<svg xmlns="http://www.w3.org/2000/svg" width="162.59" height="93" viewBox="0 0 162.59 93"><circle cx="25.1" cy="84.57" r="8.43" fill="#e8eff7"/><circle cx="141.8" cy="66.5" r="8.43" fill="#b0cb1f"/><path d="M124.77,34.3S130.38,1.92,101.67,0c-10.26,0-14.38,8.17-16,11.65S74,23.1,66.18,14.65,38.69,5,32.52,15.2s1,21.53.36,27.06-6.42,22.13,3.4,31.39S59.05,71,66,71.88c4.76.57,12.74,14.31,29.79,14.55,18.82.27,38.56-11.61,35.16-32.81C129.27,43,123.52,43.52,124.77,34.3Z" fill="#00adee"/><path d="M95.07,1.32C89.51,3.78,86.88,9,85.64,11.65c-1.65,3.48-11.72,11.45-19.49,3S38.69,5,32.52,15.2c-4.48,7.41-2,15.37-.46,21.3" fill="none" stroke="#052460" stroke-linecap="round" stroke-linejoin="round"/><path d="M124.77,34.3a46.91,46.91,0,0,0-1.18-17.81c-1.88-6-5.76-11.94-13.54-14.8" fill="none" stroke="#052460" stroke-linecap="round" stroke-linejoin="round"/><path d="M77.05,79.82a32,32,0,0,0,18.76,6.61c18.82.27,38.56-11.61,35.16-32.81A21.71,21.71,0,0,0,128.9,47" fill="none" stroke="#052460" stroke-linecap="round" stroke-linejoin="round"/><path d="M31.05,52.47c-.95,7-.83,15.47,5.23,21.18,5.17,4.87,11.21,3.89,16.78,2" fill="none" stroke="#052460" stroke-linecap="round" stroke-linejoin="round"/><circle cx="147.98" cy="33.03" r="14.61" fill="#e8eff7"/><circle cx="10.49" cy="46.21" r="10.49" fill="#a3d9f6"/><g style="isolation:isolate"><g style="isolation:isolate"><path d="M43.82,32.06l2.78.88a6.19,6.19,0,0,1-2.13,3.45,6,6,0,0,1-3.77,1.13,6.1,6.1,0,0,1-4.65-1.93,7.41,7.41,0,0,1-1.82-5.28,7.75,7.75,0,0,1,1.83-5.51,6.28,6.28,0,0,1,4.82-2,5.91,5.91,0,0,1,4.23,1.54A5.55,5.55,0,0,1,46.56,27l-2.84.68a2.9,2.9,0,0,0-1-1.74,3,3,0,0,0-1.94-.64,3.21,3.21,0,0,0-2.56,1.13,5.54,5.54,0,0,0-1,3.67,6,6,0,0,0,1,3.84,3.16,3.16,0,0,0,2.52,1.14,2.86,2.86,0,0,0,2-.73A4.18,4.18,0,0,0,43.82,32.06Z" fill="#fff"/><path d="M49.14,23.08H52v5.67h3.83a7.19,7.19,0,0,1,2.6.42,3.74,3.74,0,0,1,1.82,1.47A4.25,4.25,0,0,1,61,33.08a4.13,4.13,0,0,1-.76,2.48,3.71,3.71,0,0,1-1.68,1.38,8.19,8.19,0,0,1-2.71.34h-6.7ZM52,34.9h2.8a9.44,9.44,0,0,0,1.86-.13,1.86,1.86,0,0,0,.94-.6A1.67,1.67,0,0,0,58,33a1.63,1.63,0,0,0-.67-1.43,4.54,4.54,0,0,0-2.43-.47H52ZM62.64,23.08h2.87v14.2H62.64Z" fill="#fff"/><path d="M68.63,23.08h9.62v2.38H71.5V37.28H68.63Z" fill="#fff"/></g><g style="isolation:isolate"><path d="M76.68,37.28V23.08h4.61a17,17,0,0,1,3.41.21,3.73,3.73,0,0,1,2,1.39,4.43,4.43,0,0,1,.82,2.77,4.74,4.74,0,0,1-.47,2.2,4,4,0,0,1-1.21,1.4,4.12,4.12,0,0,1-1.49.67,16.86,16.86,0,0,1-3,.2H79.55v5.36Zm2.87-11.8v4h1.57a7.42,7.42,0,0,0,2.27-.22,1.83,1.83,0,0,0,.89-.7,1.88,1.88,0,0,0,.33-1.1,1.8,1.8,0,0,0-.46-1.28A1.94,1.94,0,0,0,83,25.58a12.88,12.88,0,0,0-2.06-.1Z" fill="#fff"/></g><g style="isolation:isolate"><path d="M101.79,37.28H98.67l-1.24-3.23H91.75l-1.17,3.23h-3l5.53-14.2h3Zm-5.28-5.62-2-5.27-1.91,5.27Z" fill="#fff"/><path d="M103.35,23.08H106v9.45l5.76-9.45h2.86v14.2H112V28l-5.74,9.27h-2.87Zm7.36-3.54H112a3.08,3.08,0,0,1-.93,2.07,2.93,2.93,0,0,1-2.09.75,3,3,0,0,1-2.1-.75,3.08,3.08,0,0,1-.93-2.07h1.33a1.49,1.49,0,0,0,.49,1,2.21,2.21,0,0,0,2.42,0A1.44,1.44,0,0,0,110.71,19.54Z" fill="#fff"/></g></g><path d="M147.94,16.14a1.78,1.78,0,0,0-2.5.33h0l-23,30.06-12.32,16.1L108,65.3l-2,2.5a4.84,4.84,0,0,1-.58.62,5.11,5.11,0,0,1-5.22,1.11L89.8,66a4.18,4.18,0,0,0-2.88,7.85l.28.09,9.61,3a8.43,8.43,0,0,0,9.19-3l.32-.41,1-1.33.37-.49,2.14-2.79L124.25,50l24-31.39A1.79,1.79,0,0,0,147.94,16.14Z" fill="#ffae00"/><path d="M107.68,71.68l2.14-2.79L108,65.3l-2,2.5a4.84,4.84,0,0,1-.58.62l2,3.75Z" fill="#052460"/><polygon points="124.25 50.04 122.43 46.53 110.11 62.63 107.95 65.3 109.82 68.89 124.25 50.04" fill="#ce005b"/><polygon points="97.36 77.17 95.56 76.14 99.42 69.27 101.13 70.31 97.36 77.17" fill="#052460"/><polygon points="95.56 68.07 97.41 68.83 94.68 76.14 92.8 75.39 91.78 75.2 90.83 75.05 90.92 71.22 89.56 74.54 87.74 73.77 90.71 66.5 91.76 66.96 93.15 67 93.14 67.46 95.06 67.87 94.25 71.51 95.56 68.07" fill="#052460"/><path d="M12.25,16.14a1.79,1.79,0,0,1,2.51.33l23,30.06,12.32,16.1,2.16,2.67,2,2.5a5.67,5.67,0,0,0,.58.62A5.11,5.11,0,0,0,60,69.53L70.44,66a4.18,4.18,0,0,1,2.88,7.85L73,73.9l-9.61,3A8.43,8.43,0,0,1,54.21,74l-.32-.41-1-1.33-.38-.49L50.37,69,35.94,50l-24-31.39A1.79,1.79,0,0,1,12.25,16.14Z" fill="#ffae00"/><path d="M52.51,71.68l-2.14-2.79,1.87-3.59,2,2.5a5.67,5.67,0,0,0,.58.62l-1.94,3.75Z" fill="#052460"/><polygon points="35.94 50.04 37.76 46.53 50.08 62.63 52.24 65.3 50.37 68.89 35.94 50.04" fill="#ce005b"/><polygon points="62.83 77.17 64.63 76.14 60.77 69.27 59.06 70.31 62.83 77.17" fill="#052460"/><polygon points="64.64 68.07 62.79 68.83 65.51 76.14 67.39 75.39 68.41 75.2 69.36 75.05 69.28 71.22 70.64 74.54 72.45 73.77 69.48 66.5 68.43 66.96 67.04 67 67.06 67.46 65.13 67.87 65.95 71.51 64.64 68.07" fill="#052460"/><path d="M97.71,56.57H62.48v-8.2H97.71Z" fill="#052460"/><path d="M72.23,61.08c-5.78-.83-9.75-2.53-9.75-4.51,0-2.78,7.89-8.2,17.62-8.2s17.61,5.42,17.61,8.2-7.88,5-17.61,5A56,56,0,0,1,72.23,61" fill="#052460"/><path d="M66.25,45.26A43.32,43.32,0,0,1,80.1,43.33c9.73,0,17.61,2.26,17.61,5s-7.88,5-17.61,5-17.62-2.26-17.62-5c0-1.17,1.41-2.26,3.77-3.11" fill="#a3d9f6"/><path d="M95.5,46.23c1.1.65,1.72,1.37,1.72,2.14,0,2.7-7.67,4.9-17.12,4.9S63,51.07,63,48.37c0-1.23,1.6-2.36,4.23-3.22" fill="none" stroke="#052460" stroke-linecap="round" stroke-linejoin="round"/><path d="M71.68,44.11a51.64,51.64,0,0,1,8.42-.63,53.9,53.9,0,0,1,6.48.36" fill="none" stroke="#052460" stroke-linecap="round" stroke-linejoin="round"/><path d="M84.59,47.2a2.1,2.1,0,0,1-.56-.07,14.88,14.88,0,0,0-3.93-.46,16.68,16.68,0,0,0-3.52.35,2.36,2.36,0,0,1-1.12,0c-.27-.09-.22-.24.12-.32a20.83,20.83,0,0,1,4.52-.46,19.55,19.55,0,0,1,5.05.6c.31.09.31.23,0,.32A2.09,2.09,0,0,1,84.59,47.2Z" fill="#00adee"/><line x1="62.97" y1="48.37" x2="62.97" y2="56.82" fill="none" stroke="#052460" stroke-linecap="round" stroke-linejoin="round" stroke-width="1.01"/><path d="M116.9,36.85a2.5,2.5,0,0,1-.8-1.87,2.38,2.38,0,0,1,.8-1.85,2.94,2.94,0,0,1,2.06-.74,2.89,2.89,0,0,1,2,.74,2.38,2.38,0,0,1,.8,1.85,2.5,2.5,0,0,1-.81,1.87,2.8,2.8,0,0,1-2,.76A2.87,2.87,0,0,1,116.9,36.85Zm-.78-17h5.68L120.8,31H117Z" fill="#fff"/><polygon points="26.72 17.99 24.28 17.55 22.54 19.31 22.2 16.86 19.99 15.74 22.23 14.66 22.61 12.21 24.32 14.01 26.76 13.61 25.59 15.79 26.72 17.99" fill="none" stroke="#00376a" stroke-linecap="round" stroke-linejoin="round" stroke-width="0.76"/><polygon points="72.45 12.98 70.31 12.37 68.6 13.79 68.52 11.57 66.64 10.37 68.73 9.61 69.28 7.46 70.66 9.21 72.88 9.07 71.64 10.91 72.45 12.98" fill="none" stroke="#ffae00" stroke-linecap="round" stroke-linejoin="round" stroke-width="0.76"/><polygon points="152.35 57.71 150.03 56.19 147.46 57.23 148.2 54.56 146.41 52.44 149.18 52.31 150.64 49.95 151.62 52.55 154.31 53.21 152.15 54.95 152.35 57.71" fill="none" stroke="#00376a" stroke-linecap="round" stroke-linejoin="round" stroke-width="0.76"/><polygon points="131.35 85.61 129.78 85.62 128.89 86.92 128.4 85.42 126.88 84.98 128.15 84.05 128.11 82.47 129.39 83.39 130.87 82.86 130.39 84.36 131.35 85.61" fill="none" stroke="#00376a" stroke-linecap="round" stroke-linejoin="round" stroke-width="0.76"/><polygon points="59.85 84.69 57.75 83.63 55.68 84.76 56.04 82.43 54.34 80.81 56.66 80.44 57.67 78.32 58.74 80.41 61.07 80.71 59.41 82.38 59.85 84.69" fill="none" stroke="#00376a" stroke-linecap="round" stroke-linejoin="round" stroke-width="0.76"/><polygon points="15.72 68.89 13.49 69.06 12.37 71 11.52 68.93 9.33 68.46 11.03 67.01 10.8 64.78 12.71 65.96 14.76 65.05 14.23 67.23 15.72 68.89" fill="none" stroke="#00376a" stroke-linecap="round" stroke-linejoin="round" stroke-width="0.76"/><polygon points="26.76 50.86 25.29 50.37 24.04 51.3 24.05 49.74 22.78 48.85 24.26 48.38 24.72 46.89 25.62 48.16 27.18 48.13 26.26 49.39 26.76 50.86" fill="none" stroke="#00376a" stroke-linecap="round" stroke-linejoin="round" stroke-width="0.76"/><polygon points="139.85 39.4 138.64 38.95 137.58 39.69 137.63 38.4 136.6 37.62 137.85 37.28 138.27 36.05 138.98 37.13 140.27 37.15 139.47 38.16 139.85 39.4" fill="none" stroke="#00376a" stroke-linecap="round" stroke-linejoin="round" stroke-width="0.76"/><polygon points="128.37 13.79 126.83 12.21 124.65 12.58 125.68 10.62 124.65 8.66 126.83 9.04 128.38 7.46 128.69 9.65 130.68 10.63 128.69 11.6 128.37 13.79" fill="none" stroke="#ffae00" stroke-linecap="round" stroke-linejoin="round" stroke-width="0.76"/></svg>