<svg xmlns="http://www.w3.org/2000/svg" width="159.12" height="87.64" viewBox="0 0 159.12 87.64"><path d="M105.43,84.64c14.08-4.09,25.65-15,22-31-1-10.66-7.45-10.1-6.2-19.32,0,0,5.6-32.38-23.1-34.3-10.26,0-14.38,8.17-16,11.65s-11.72,11.45-19.49,3S35.13,5,29,15.2s1,21.53.36,27.06-6.42,22.13,3.4,31.39S55.48,71,62.45,71.88c4.77.57,12.75,14.31,29.8,14.55a45.52,45.52,0,0,0,13.18-1.79" transform="translate(0 -0.02)" fill="#e8eff7"/><path d="M26.62,27.83c.71,5.88,3.06,11.16,2.69,14.43-.23,2.06-1.18,5.64-1.77,9.8" transform="translate(0 -0.02)" fill="none" stroke="#00adee" stroke-linecap="round" stroke-linejoin="round"/><path d="M61.81,13.89c-5.57-5.22-15.92-7.32-23.88-5" transform="translate(0 -0.02)" fill="none" stroke="#00adee" stroke-linecap="round" stroke-linejoin="round"/><path d="M126.33,68.23a23.31,23.31,0,0,0,1.08-14.61c-1-10.66-7.45-10.1-6.2-19.32a33.15,33.15,0,0,0,.36-3.44" transform="translate(0 -0.02)" fill="none" stroke="#00adee" stroke-linecap="round" stroke-linejoin="round"/><path d="M47.08,76.38c5.92-1.6,11.55-5,15.37-4.5,4.77.57,12.75,14.31,29.8,14.55a44.71,44.71,0,0,0,11.23-1.28" transform="translate(0 -0.02)" fill="none" stroke="#00adee" stroke-linecap="round" stroke-linejoin="round"/><circle cx="13.46" cy="34.31" r="6.5" fill="#a3d9f6"/><circle cx="149.35" cy="11.29" r="9.77" fill="#e8eff7"/><path d="M12.63,22.18a5.19,5.19,0,0,0,1.3,1.13,2.41,2.41,0,0,0,1.17.34,1.16,1.16,0,0,0,.78-.25.67.67,0,0,0,.26-.54.72.72,0,0,0-.21-.58,5.28,5.28,0,0,0-1.44-.57,5.74,5.74,0,0,1-2.64-1.32A3.26,3.26,0,0,1,11,18.05,4,4,0,0,1,12.28,15a4.52,4.52,0,0,1,3.21-1.18,6.45,6.45,0,0,1,2,.28,5.88,5.88,0,0,1,1.77.84.42.42,0,0,1,.15.52l-1,2.3a.44.44,0,0,1-.3.25.45.45,0,0,1-.37-.09,4.05,4.05,0,0,0-1-.64,2.66,2.66,0,0,0-1-.2,1.1,1.1,0,0,0-.68.19.44.44,0,0,0-.19.37A.47.47,0,0,0,15,18a3.36,3.36,0,0,0,1.06.42h.14A6.62,6.62,0,0,1,19,19.76,3.16,3.16,0,0,1,19.72,21a4.71,4.71,0,0,1-1.12,4.8A5.08,5.08,0,0,1,15,27a6.35,6.35,0,0,1-2.4-.45,6.94,6.94,0,0,1-2.07-1.4.41.41,0,0,1-.06-.52L12,22.25a.38.38,0,0,1,.32-.21.43.43,0,0,1,.36.14Z" transform="translate(0 -0.02)" fill="#ce005b" fill-rule="evenodd"/><path d="M29.38,14.38a.42.42,0,0,0-.4-.28H25a.42.42,0,0,0-.4.28L20.52,26.12a.4.4,0,0,0,.05.38.44.44,0,0,0,.35.18H24.1a.41.41,0,0,0,.41-.3l.52-1.8h3.91l.5,1.79a.43.43,0,0,0,.41.31H33a.39.39,0,0,0,.35-.18.43.43,0,0,0,.06-.38ZM26,21.45l1-3.31,1,3.31Z" transform="translate(0 -0.02)" fill="#ce005b" fill-rule="evenodd"/><path d="M38.75,23.09H42.3a.42.42,0,0,1,.42.42h0v2.74a.42.42,0,0,1-.42.42H35.13a.42.42,0,0,1-.43-.41h0V14.52a.42.42,0,0,1,.42-.42h3.21a.42.42,0,0,1,.42.42Z" transform="translate(0 -0.02)" fill="#ce005b" fill-rule="evenodd"/><path d="M48.38,17.52v1.19h3.41a.42.42,0,0,1,.43.41h0v2.52a.42.42,0,0,1-.42.42H48.38v1.14H52a.42.42,0,0,1,.43.41h0v2.63a.42.42,0,0,1-.42.42H44.84a.42.42,0,0,1-.43-.41h0V14.52a.42.42,0,0,1,.42-.42H52a.42.42,0,0,1,.43.41h0V17.1a.42.42,0,0,1-.42.42H48.38Z" transform="translate(0 -0.02)" fill="#ce005b" fill-rule="evenodd"/><path d="M64.46,21.09l-1.54,5.29a.41.41,0,0,1-.4.3H60.38a.43.43,0,0,1-.41-.3l-1.54-5.32v.18l-.69,5.08a.42.42,0,0,1-.42.36h-3a.42.42,0,0,1-.42-.49l1.81-11.73a.42.42,0,0,1,.42-.36H59.3a.42.42,0,0,1,.41.3l1.73,5.92,1.75-5.92a.42.42,0,0,1,.41-.3h3.17a.42.42,0,0,1,.42.36L69,26.19a.42.42,0,0,1-.42.49h-3a.43.43,0,0,1-.42-.37l-.68-5.07v-.15Z" transform="translate(0 -0.02)" fill="#ce005b" fill-rule="evenodd"/><path d="M80,18.54h3.76V14a.43.43,0,0,1,.43-.43h3.46a.42.42,0,0,1,.42.42h0V26.72a.42.42,0,0,1-.41.43H84.22a.43.43,0,0,1-.43-.43h0V22H80v4.73a.43.43,0,0,1-.43.43H76.15a.43.43,0,0,1-.43-.43h0V14a.43.43,0,0,1,.43-.43H79.6A.43.43,0,0,1,80,14v4.54Z" transform="translate(0 -0.02)" fill="#00adee" fill-rule="evenodd"/><path d="M110,18.44l3.23-4.65a.39.39,0,0,1,.35-.18h4A.43.43,0,0,1,118,14a.44.44,0,0,1-.09.27l-4.49,5.92,4.89,6.24a.43.43,0,0,1-.34.69h-4.31a.41.41,0,0,1-.35-.18L110,22.35v4.37a.43.43,0,0,1-.43.43h-3.43c-.23,0-.66-.19-.66-.43L105.73,14a.42.42,0,0,1,.41-.43h3.44A.44.44,0,0,1,110,14v4.44Z" transform="translate(0 -0.02)" fill="#00adee" fill-rule="evenodd"/><path d="M123.63,17.25v1.34h3.72a.43.43,0,0,1,.43.43h0v2.72a.43.43,0,0,1-.43.43h-3.72v1.29h4a.42.42,0,0,1,.43.41h0v2.84a.43.43,0,0,1-.43.43h-7.77a.43.43,0,0,1-.43-.43h0V14a.43.43,0,0,1,.43-.43h7.77A.43.43,0,0,1,128,14v2.78a.43.43,0,0,1-.43.43h0Z" transform="translate(0 -0.02)" fill="#00adee" fill-rule="evenodd"/><path d="M129.9,26.72V13.61h4.35V27.15h-3.92a.43.43,0,0,1-.43-.43Z" transform="translate(0 -0.02)" fill="#00adee" fill-rule="evenodd"/><path d="M103.75,17.68a6.76,6.76,0,0,0-1.56-2.28,7.06,7.06,0,0,0-2.34-1.54,7.25,7.25,0,0,0-2.76-.53A7,7,0,0,0,92,25.42a7.27,7.27,0,0,0,10.19,0,6.86,6.86,0,0,0,1.56-2.28,7.17,7.17,0,0,0,0-5.46Zm-4.61,5.11a2.81,2.81,0,0,1-4,.16,1.21,1.21,0,0,1-.16-.16,3.47,3.47,0,0,1-.81-2.39A3.44,3.44,0,0,1,95,18a2.74,2.74,0,0,1,3.87-.23,2.5,2.5,0,0,1,.23.23,3.46,3.46,0,0,1,.84,2.38A3.41,3.41,0,0,1,99.14,22.79Z" transform="translate(0 -0.02)" fill="#00adee" fill-rule="evenodd"/><path d="M137.64,28.53a2.47,2.47,0,0,1-.8-1.86,2.39,2.39,0,0,1,.8-1.86,3,3,0,0,1,2.06-.73,2.9,2.9,0,0,1,2,.73,2.41,2.41,0,0,1,.79,1.86,2.47,2.47,0,0,1-.8,1.86,3.09,3.09,0,0,1-4.09,0Zm-.78-17h5.67l-.95,11.15h-3.79Z" transform="translate(0 -0.02)" fill="#b0cb1f"/><path d="M28.09,69.92h0a.73.73,0,0,1,.76.67L29.12,75a.71.71,0,0,1-.67.75h0a.7.7,0,0,1-.75-.65h0l-.28-4.39a.73.73,0,0,1,.67-.76ZM41.51,84.5h0c-.21-.3-.21-.66,0-.8l3.32-2.26c.2-.14.53,0,.74.3h0c.2.3.38,1.09.16,1.2L42.24,84.8A.61.61,0,0,1,41.51,84.5ZM46,48.26s.69.57.23,1.21a3.09,3.09,0,0,1-1.21,1,5.1,5.1,0,0,0-3.53,5.35,5.5,5.5,0,0,0,5.65,5,5.56,5.56,0,0,0,5-5.65,5,5,0,0,0-3.71-4.75A2,2,0,0,0,46,48.26ZM26.7,56.71c-.92,1.21.43,2.56,1.52,1.13l3.63-4.71c.47,1.83,1.23,3.67,4.07,7.48s3.64,5.18,1.71,6.77-6.41,1.09-7.06,2.88-.52,5,.5,4.7,5.89-3.34,7.57-.91-.06,7.34,2.72,7.24,3.48-.91,2.81-1.82c-.54-.73-.57-2.43.42-4.45a22.92,22.92,0,0,1,6.63-8.77c2.18-1.68,4.46-2.25,5.71-5.1.64-1.48.26-2.49-1.34-1.51-10.61,6.5-14.13,1.07-21-7.38-.4-.49-.77-.94-1.11-1.28L41,41.17h0A1,1,0,0,0,41.18,40l-2.77-5.38c-.66-1.27-3.32.77-2.69,1.53l3.5,4.26Z" transform="translate(0 -0.02)" fill="#00adee" fill-rule="evenodd"/><path d="M113.33,83.73h-4.24a.71.71,0,1,0,0,1.42h4.24a.71.71,0,0,0,0-1.42Z" transform="translate(0 -0.02)" fill="#ce005b"/><path d="M100,56.75a5,5,0,0,0,.22,1.67,5.13,5.13,0,0,0,9.81-3h0a5.3,5.3,0,0,0-.83-1.62,1,1,0,0,0,0-.71,6.85,6.85,0,0,1,3.57-.6c-.94-4-4.49-4.63-4.46-.15a1,1,0,0,0-.68.07,5.13,5.13,0,0,0-6.95,2s0,.07-.05.1a1,1,0,0,0-.74.33c-2.44-3.76-5-1.23-3.63,2.58A6.83,6.83,0,0,1,99.47,56,1,1,0,0,0,100,56.75Z" transform="translate(0 -0.02)" fill="#ce005b"/><path d="M121.25,57.73c1.19,1.36,2.45-.07,1.45-1.22l-4.38-5a.4.4,0,0,0-.1-.12l-9-10.32,3.23-4.47c.57-.8-2.21-2.67-2.78-1.36l-2.43,5.55a1,1,0,0,0,.2,1.11h0l9.3,10.66c-3.36,4.56-3.86,7.43-8.9,10.37-1.56.9-13.37,6.08-11.23,8.4.37.41,1.58.31,3.92-.41,7-2.15,9.37,3.94,8.88,10.23-.07.9.14,1.25,2.92,1.18s.8-5.13,2.33-7.67,6.58.16,7.62.44,1-3,.21-4.73-5.22-1-7.23-2.44c-3.82-2.76,2.4-7.51,3.31-13.27Z" transform="translate(0 -0.02)" fill="#ce005b"/><path d="M124.93,70.23a.73.73,0,0,0-.71.72v4.3a.71.71,0,0,0,1.42,0V71a.72.72,0,0,0-.67-.77Z" transform="translate(0 -0.02)" fill="#ce005b"/><circle cx="138.27" cy="54.77" r="7.6" fill="#ffae00"/><circle cx="11.73" cy="75.91" r="11.73" fill="#e8eff7"/><path d="M98,48.22H55v-10H98Z" transform="translate(0 -0.02)" fill="#052460"/><path d="M98,48.22c0,3.39-9.62,6.14-21.5,6.14S55,51.61,55,48.22s9.62-10,21.49-10S98,44.82,98,48.22Z" transform="translate(0 -0.02)" fill="#052460"/><path d="M98,38.21c0,3.39-9.62,6.15-21.5,6.15S55,41.6,55,38.21s9.62-6.15,21.49-6.15S98,34.82,98,38.21Z" transform="translate(0 -0.02)" fill="#00adee"/><path d="M93,34.38c2.86,1,4.57,2.38,4.57,3.83,0,3.39-9.39,6.15-21,6.15s-21-2.76-21-6.15c0-1.33,1.44-2.57,3.9-3.57" transform="translate(0 -0.02)" fill="none" stroke="#052460" stroke-linecap="round" stroke-linejoin="round" stroke-width="0.99"/><path d="M64.44,33.18a61.27,61.27,0,0,1,12.09-1.12c1.86,0,3.66.07,5.38.21" transform="translate(0 -0.02)" fill="none" stroke="#052460" stroke-linecap="round" stroke-linejoin="round" stroke-width="0.99"/><path d="M82,36.78a3.25,3.25,0,0,1-.69-.08,18.07,18.07,0,0,0-4.8-.57,18.77,18.77,0,0,0-4.29.44,3.12,3.12,0,0,1-1.36,0c-.34-.12-.28-.3.14-.39a24.9,24.9,0,0,1,5.51-.56,23.78,23.78,0,0,1,6.17.72c.38.11.38.29,0,.4A3.07,3.07,0,0,1,82,36.78Z" transform="translate(0 -0.02)" fill="#a3d9f6"/><polygon points="17.91 45.89 18.91 47.91 21.14 48.23 19.52 49.8 19.9 52.02 17.91 50.97 15.91 52.02 16.3 49.8 14.68 48.23 16.91 47.91 17.91 45.89" fill="none" stroke="#ffae00" stroke-linecap="round" stroke-linejoin="round" stroke-width="0.76"/><polygon points="141.19 38.19 138.61 38.4 137.33 40.65 136.32 38.26 133.79 37.74 135.75 36.04 135.47 33.47 137.68 34.81 140.04 33.75 139.45 36.27 141.19 38.19" fill="none" stroke="#00376a" stroke-linecap="round" stroke-linejoin="round" stroke-width="0.76"/><polygon points="140.08 80.14 137.9 79.49 136.12 80.92 136.07 78.65 134.16 77.4 136.31 76.64 136.9 74.44 138.28 76.25 140.56 76.14 139.27 78.01 140.08 80.14" fill="none" stroke="#00376a" stroke-linecap="round" stroke-linejoin="round" stroke-width="0.76"/><polygon points="61.45 83.71 59.82 82.78 58.13 83.59 58.51 81.76 57.21 80.4 59.08 80.2 59.96 78.54 60.73 80.25 62.58 80.59 61.19 81.85 61.45 83.71" fill="none" stroke="#ffae00" stroke-linecap="round" stroke-linejoin="round" stroke-width="0.76"/><polygon points="9.28 58.53 7.46 58.37 6.29 59.78 5.88 58 4.18 57.33 5.75 56.39 5.86 54.56 7.24 55.76 9.02 55.3 8.3 56.99 9.28 58.53" fill="none" stroke="#00376a" stroke-linecap="round" stroke-linejoin="round" stroke-width="0.76"/><polygon points="89.88 80.92 86.93 79.98 84.48 81.87 84.47 78.77 81.92 77.03 84.86 76.06 85.73 73.09 87.56 75.59 90.65 75.5 88.84 78.01 89.88 80.92" fill="none" stroke="#00376a" stroke-linecap="round" stroke-linejoin="round" stroke-width="0.76"/></svg>