<svg xmlns="http://www.w3.org/2000/svg" width="158.85" height="93" viewBox="0 0 158.85 93"><circle cx="19.29" cy="20.9" r="13.59" fill="#ffae00"/><path d="M122.64,34.3S128.25,1.92,99.54,0c-10.26,0-14.38,8.17-16,11.65S71.79,23.1,64,14.67,36.56,5,30.39,15.2s1,21.53.36,27.06-6.42,22.13,3.4,31.39S56.92,71,63.89,71.88c4.76.57,12.74,14.31,29.79,14.55,18.82.27,39.95-11.88,35.16-32.81C127.84,43,121.39,43.52,122.64,34.3Z" fill="#e8eff7"/><path d="M90.42,2.74c-3.87,2.7-5.87,6.73-6.91,8.91-1.65,3.48-11.72,11.45-19.49,3C56.83,6.88,39.45,5.2,32,13.09" fill="none" stroke="#00adee" stroke-linecap="round" stroke-linejoin="round"/><path d="M122.86,23.48c-.74-7.2-3.56-16.15-12.37-20.66" fill="none" stroke="#00adee" stroke-linecap="round" stroke-linejoin="round"/><path d="M84.5,84.88a30.17,30.17,0,0,0,9.18,1.55c10.15.14,21-3.32,28-9.83" fill="none" stroke="#00adee" stroke-linecap="round" stroke-linejoin="round"/><path d="M34.15,73.65c8.31,7.83,18.86.53,26.13-1.38" fill="none" stroke="#00adee" stroke-linecap="round" stroke-linejoin="round"/><path d="M30.38,44.47a82.45,82.45,0,0,0-1.85,12" fill="none" stroke="#00adee" stroke-linecap="round" stroke-linejoin="round"/><circle cx="142.59" cy="60.34" r="16.26" fill="#a3d9f6"/><circle cx="135.68" cy="18.38" r="7.6" fill="#e8eff7"/><circle cx="14.61" cy="78.39" r="14.61" fill="#e8eff7"/><g style="isolation:isolate"><g style="isolation:isolate"><path d="M83.89,59.9h7.58v1.7H85.94V64h2.74a5.36,5.36,0,0,1,1.88.28,2.7,2.7,0,0,1,1.28,1A3,3,0,0,1,92.37,67a2.91,2.91,0,0,1-.54,1.77,2.76,2.76,0,0,1-1.21,1,5.49,5.49,0,0,1-1.94.27H83.89Zm2,8.44h2a5.89,5.89,0,0,0,1.34-.1,1.26,1.26,0,0,0,.68-.42,1.2,1.2,0,0,0,.28-.82,1.1,1.1,0,0,0-.5-1A3.24,3.24,0,0,0,88,65.65H85.94Z" fill="#052460"/></g><g style="isolation:isolate"><path d="M91.66,65a6.44,6.44,0,0,1,.46-2.6A4.87,4.87,0,0,1,93.06,61a3.82,3.82,0,0,1,1.32-.91,5.5,5.5,0,0,1,2.18-.41,4.79,4.79,0,0,1,3.59,1.39,6.25,6.25,0,0,1,0,7.72,5.35,5.35,0,0,1-7.17,0A5.22,5.22,0,0,1,91.66,65ZM93.77,65a3.79,3.79,0,0,0,.79,2.61,2.74,2.74,0,0,0,4,0,3.85,3.85,0,0,0,.79-2.65,3.81,3.81,0,0,0-.77-2.6,2.83,2.83,0,0,0-4.07,0A3.81,3.81,0,0,0,93.77,65Z" fill="#052460"/></g><g style="isolation:isolate"><path d="M102.71,59.9h7.1V70h-2V61.61h-3.05v4.33a18.84,18.84,0,0,1-.12,2.6,1.85,1.85,0,0,1-.61,1.15,2.3,2.3,0,0,1-1.5.41c-.24,0-.68,0-1.31-.07V68.45h.46a1.44,1.44,0,0,0,.86-.18c.15-.11.22-.4.22-.85V59.9Z" fill="#052460"/><path d="M112,59.9H114V64h2.74a3.74,3.74,0,0,1,2.81.91,3,3,0,0,1,.87,2.17,2.92,2.92,0,0,1-.53,1.76,2.65,2.65,0,0,1-1.2,1,5.75,5.75,0,0,1-2,.26H112ZM114,68.34h2a5.83,5.83,0,0,0,1.34-.1,1.31,1.31,0,0,0,.67-.42,1.21,1.21,0,0,0,.29-.82,1.14,1.14,0,0,0-.5-1,3.29,3.29,0,0,0-1.71-.33H114Z" fill="#052460"/><path d="M122.14,59.9h2v8.44h2.93V59.9h2v8.44h3V59.9h2V70.05H122.14Z" fill="#052460"/><path d="M136.35,70V59.9h7.52v1.71H138.4v2.25h5.09v1.71H138.4v2.76h5.66V70Z" fill="#052460"/><path d="M146.55,67.42,146,62.28V59.9h2.1v2.38l-.49,5.14ZM146.12,70V68.1h1.95V70Z" fill="#052460"/></g></g><g style="isolation:isolate"><path d="M9.33,62.69H11.2v4.62l3-4.62H16.1V70H14.23v-4.7l-3,4.7H9.33Z" fill="#ce005b"/><path d="M21,59.9H23.3l2.36,5.26,2-5.26h2.14L26.4,67.6a7.78,7.78,0,0,1-1.14,1.91,1.92,1.92,0,0,1-1.51.66,6.46,6.46,0,0,1-1.41-.12V68.52l.79,0a1.56,1.56,0,0,0,1-.26,2.6,2.6,0,0,0,.59-1.11Z" fill="#ce005b"/><path d="M32.3,62.66l-2-.46Q31,59.72,34,59.72a4,4,0,0,1,2.69.79,2.36,2.36,0,0,1,.91,1.84,2.24,2.24,0,0,1-.41,1.31,3.54,3.54,0,0,1-1.25,1,3.27,3.27,0,0,1,1.52,1,2.45,2.45,0,0,1,.5,1.56,2.67,2.67,0,0,1-1,2.16,4.45,4.45,0,0,1-2.93.82,5,5,0,0,1-2.51-.53,3.31,3.31,0,0,1-1.38-2L32,67.09a2,2,0,0,0,.77,1.18,2.41,2.41,0,0,0,1.19.27,2,2,0,0,0,1.41-.42,1.27,1.27,0,0,0,.44-1,1.18,1.18,0,0,0-.5-1,2.5,2.5,0,0,0-1.51-.38h-.46V64.25h.23A2.17,2.17,0,0,0,35,63.83a1.41,1.41,0,0,0,.5-1.12,1.25,1.25,0,0,0-.4-.94A1.67,1.67,0,0,0,34,61.39,1.58,1.58,0,0,0,32.3,62.66Z" fill="#ce005b"/><path d="M39.74,70V59.9h2v4h4v-4h2.05V70H45.8V65.61h-4V70Z" fill="#ce005b"/><path d="M59.11,70H56.88L56,67.74H51.94L51.11,70H48.93l4-10.14h2.17Zm-3.77-4-1.4-3.77L52.57,66Z" fill="#ce005b"/><path d="M60.22,59.9h1.92v6.75l4.11-6.75h2V70H66.38V63.42L62.27,70H60.22Zm5.26-2.53h1a2.16,2.16,0,0,1-.66,1.48,2.39,2.39,0,0,1-3,0,2.25,2.25,0,0,1-.66-1.48h1a1.07,1.07,0,0,0,.35.75,1.34,1.34,0,0,0,.86.25,1.37,1.37,0,0,0,.87-.25A1.1,1.1,0,0,0,65.48,57.37Z" fill="#ce005b"/></g><path d="M61.37,87.7a22.62,22.62,0,0,1-1.52-6.11c-.64-4.38-.51-7.77,1.1-8.6a3.57,3.57,0,0,1,2.28-.18A5.22,5.22,0,0,1,68,71.52,4.11,4.11,0,0,1,72.26,70V63.25a2.65,2.65,0,0,1,2.65-2.64h0a2.64,2.64,0,0,1,2.64,2.64V74a2.89,2.89,0,0,1,1.19,2.51c0,3.73.44,8.84-1.92,11.2v.93a2.42,2.42,0,0,1-2.42,2.42H63.78a2.43,2.43,0,0,1-2.41-2.42Z" fill="#b0cb1f"/><path d="M46.43,22.18h64a15,15,0,0,1,15,15h0a15,15,0,0,1-15,15h-64a15,15,0,0,1-15-15h0A15,15,0,0,1,46.43,22.18Z" fill="#00adee"/><g style="isolation:isolate"><g style="isolation:isolate"><path d="M38.64,31.46h8.07V41.6H44.66V33.16h-4V41.6h-2Z" fill="#fff"/><path d="M48.38,36.59a6.61,6.61,0,0,1,.46-2.6,4.71,4.71,0,0,1,.95-1.39,3.79,3.79,0,0,1,1.31-.91,5.52,5.52,0,0,1,2.19-.41,4.77,4.77,0,0,1,3.58,1.39,5.33,5.33,0,0,1,1.35,3.87,5.34,5.34,0,0,1-1.34,3.85,5.33,5.33,0,0,1-7.16,0A5.23,5.23,0,0,1,48.38,36.59Zm2.11-.07a3.79,3.79,0,0,0,.8,2.61,2.74,2.74,0,0,0,4,0,3.9,3.9,0,0,0,.78-2.65,3.81,3.81,0,0,0-.76-2.6,2.83,2.83,0,0,0-4.07,0A3.82,3.82,0,0,0,50.49,36.52Z" fill="#fff"/><path d="M66.31,37.87l2,.63A4.43,4.43,0,0,1,66.77,41a4.78,4.78,0,0,1-6-.58,5.27,5.27,0,0,1-1.3-3.77,5.49,5.49,0,0,1,1.31-3.93,4.45,4.45,0,0,1,3.43-1.41,4.26,4.26,0,0,1,3,1.1,4.15,4.15,0,0,1,1,1.87l-2,.49a2.17,2.17,0,0,0-.75-1.25A2.19,2.19,0,0,0,64.1,33a2.31,2.31,0,0,0-1.83.81,4,4,0,0,0-.7,2.63,4.28,4.28,0,0,0,.69,2.74,2.25,2.25,0,0,0,1.8.81,2,2,0,0,0,1.4-.52A2.94,2.94,0,0,0,66.31,37.87Z" fill="#fff"/><path d="M69.84,41.6V31.46H72.9l1.84,6.92,1.82-6.92h3.07V41.6h-1.9v-8l-2,8h-2l-2-8v8Z" fill="#fff"/></g><g style="isolation:isolate"><path d="M80.58,36.59A6.44,6.44,0,0,1,81,34,4.67,4.67,0,0,1,82,32.6a3.88,3.88,0,0,1,1.31-.91,5.59,5.59,0,0,1,2.19-.41,4.79,4.79,0,0,1,3.59,1.39,5.33,5.33,0,0,1,1.34,3.87,5.33,5.33,0,0,1-1.33,3.85,5.35,5.35,0,0,1-7.17,0A5.22,5.22,0,0,1,80.58,36.59Zm2.11-.07a3.79,3.79,0,0,0,.79,2.61,2.74,2.74,0,0,0,4,0,3.85,3.85,0,0,0,.79-2.65,3.81,3.81,0,0,0-.77-2.6,2.83,2.83,0,0,0-4.07,0A3.81,3.81,0,0,0,82.69,36.52Z" fill="#fff"/></g><g style="isolation:isolate"><path d="M93.22,41.6V33.17h-3V31.46h8.07v1.71h-3V41.6Z" fill="#fff"/><path d="M99.6,41.6V31.46h3.28a12.13,12.13,0,0,1,2.44.15,2.64,2.64,0,0,1,1.46,1,3.17,3.17,0,0,1,.59,2,3.4,3.4,0,0,1-.34,1.57,2.92,2.92,0,0,1-.86,1,3.08,3.08,0,0,1-1.07.48,11.37,11.37,0,0,1-2.12.14h-1.34V41.6Zm2-8.43v2.88h1.13a5.12,5.12,0,0,0,1.61-.16,1.24,1.24,0,0,0,.64-.5,1.32,1.32,0,0,0,.24-.79,1.31,1.31,0,0,0-.33-.91,1.42,1.42,0,0,0-.82-.45,10.9,10.9,0,0,0-1.48-.07Z" fill="#fff"/><path d="M109.08,31.46H111v6.75l4.11-6.75h2V41.6h-1.91V35l-4.11,6.62h-2Z" fill="#fff"/></g></g><path d="M96.65,52.18H46.43a15,15,0,0,1-15-15h0A15,15,0,0,1,41.56,23" fill="none" stroke="#052460" stroke-linecap="round" stroke-linejoin="round"/><path d="M46.43,22.18h64a15,15,0,0,1,15,15h0a15,15,0,0,1-15,15" fill="none" stroke="#052460" stroke-linecap="round" stroke-linejoin="round"/><polygon points="138.63 35.33 136.81 34.62 135.19 35.73 135.29 33.78 133.74 32.58 135.63 32.08 136.29 30.23 137.35 31.87 139.31 31.93 138.08 33.45 138.63 35.33" fill="none" stroke="#ffae00" stroke-linecap="round" stroke-linejoin="round" stroke-width="0.76"/><polygon points="154.3 15.82 152.52 14.73 150.61 15.57 151.11 13.54 149.72 11.98 151.8 11.82 152.85 10.02 153.64 11.95 155.68 12.4 154.09 13.75 154.3 15.82" fill="none" stroke="#00376a" stroke-linecap="round" stroke-linejoin="round" stroke-width="0.76"/><polygon points="21.8 46.5 20.06 46.74 19.27 48.3 18.5 46.72 16.77 46.45 18.04 45.24 17.76 43.51 19.3 44.34 20.87 43.53 20.55 45.26 21.8 46.5" fill="none" stroke="#00376a" stroke-linecap="round" stroke-linejoin="round" stroke-width="0.76"/><polygon points="8.36 58.16 6.18 57.73 4.59 59.28 4.33 57.07 2.36 56.04 4.37 55.11 4.75 52.92 6.26 54.55 8.46 54.23 7.38 56.17 8.36 58.16" fill="none" stroke="#00376a" stroke-linecap="round" stroke-linejoin="round" stroke-width="0.76"/><polygon points="69.59 13.82 68.25 12.23 66.18 12.43 67.28 10.66 66.45 8.75 68.47 9.26 70.03 7.88 70.18 9.96 71.97 11.01 70.04 11.79 69.59 13.82" fill="none" stroke="#00376a" stroke-linecap="round" stroke-linejoin="round" stroke-width="0.76"/><polygon points="55.63 84.91 53.24 84.06 51.18 85.55 51.25 83.02 49.2 81.52 51.63 80.8 52.42 78.39 53.86 80.48 56.4 80.48 54.85 82.5 55.63 84.91" fill="none" stroke="#ffae00" stroke-linecap="round" stroke-linejoin="round" stroke-width="0.76"/><polygon points="114.69 16.24 112.1 15.38 109.91 17.02 109.93 14.28 107.69 12.71 110.3 11.89 111.1 9.27 112.69 11.5 115.43 11.45 113.8 13.65 114.69 16.24" fill="none" stroke="#ffae00" stroke-linecap="round" stroke-linejoin="round" stroke-width="0.76"/></svg>