<svg xmlns="http://www.w3.org/2000/svg" width="165" height="88.69" viewBox="0 0 165 88.69"><circle cx="10.81" cy="10.81" r="10.81" fill="#e8eff7"/><circle cx="133.65" cy="16.92" r="11.73" fill="#ffae00"/><path d="M126.77,34.3S132.37,1.92,103.66,0c-10.25,0-14.37,8.17-16,11.65s-11.72,11.45-19.49,3S40.69,5,34.51,15.2s1,21.53.36,27.06-6.42,22.13,3.4,31.39S61,71,68,71.88c4.77.57,12.75,14.31,29.79,14.55,18.83.27,38.57-11.61,35.16-32.81C131.27,43,125.52,43.52,126.77,34.3Z" fill="#e8eff7"/><path d="M68.15,14.67C60.37,6.25,40.69,5,34.51,15.2c-4.49,7.44-1.93,15.44-.44,21.37" fill="none" stroke="#00adee" stroke-linecap="round" stroke-linejoin="round"/><path d="M126.77,34.3S131.2,8.68,112,1.67" fill="none" stroke="#00adee" stroke-linecap="round" stroke-linejoin="round"/><path d="M32.81,54.47c-.64,6.54,0,14,5.46,19.18C48.09,82.9,61,71,68,71.88c4.77.57,12.75,14.31,29.79,14.55a45.26,45.26,0,0,0,17.47-3.28" fill="none" stroke="#00adee" stroke-linecap="round" stroke-linejoin="round"/><g style="isolation:isolate"><g style="isolation:isolate"><path d="M48.2,34.42V26.83H45.49V25.29h7.26v1.54h-2.7v7.59Z" fill="#052460"/></g><g style="isolation:isolate"><path d="M56.82,32.31l1.74.3a2.88,2.88,0,0,1-1.06,1.46,3.15,3.15,0,0,1-1.82.5,3,3,0,0,1-2.55-1.13,3.75,3.75,0,0,1-.66-2.28,3.69,3.69,0,0,1,.86-2.58,2.85,2.85,0,0,1,2.18-.93,3,3,0,0,1,2.33,1,4.33,4.33,0,0,1,.82,3H54.27a1.75,1.75,0,0,0,.42,1.21,1.32,1.32,0,0,0,1,.43,1,1,0,0,0,.69-.22A1.39,1.39,0,0,0,56.82,32.31Zm.1-1.77a1.66,1.66,0,0,0-.4-1.15,1.25,1.25,0,0,0-1.85,0,1.64,1.64,0,0,0-.37,1.13Z" fill="#052460"/><path d="M64.88,25.07h1.19a2.06,2.06,0,0,1-.41,1.2c-.24.28-.83.41-1.77.41h-.56a4.26,4.26,0,0,0-1.36.18,1.68,1.68,0,0,0-.86.71,3.49,3.49,0,0,0-.34,1.71,2.66,2.66,0,0,1,1-1.09,3,3,0,0,1,3.66.65,3.4,3.4,0,0,1,.91,2.35,3.34,3.34,0,0,1-1,2.38,3.26,3.26,0,0,1-2.48,1,3.39,3.39,0,0,1-1.86-.51,2.77,2.77,0,0,1-1.14-1.38,9,9,0,0,1-.34-2.9,5.29,5.29,0,0,1,.88-3.42,3.82,3.82,0,0,1,3-1h.89A.49.49,0,0,0,64.88,25.07Zm-3.53,6.09a2.13,2.13,0,0,0,.45,1.43,1.46,1.46,0,0,0,2.27,0,2.12,2.12,0,0,0,.45-1.4,2.09,2.09,0,0,0-.46-1.42,1.43,1.43,0,0,0-1.13-.54,1.45,1.45,0,0,0-1.12.53A2.12,2.12,0,0,0,61.35,31.16Z" fill="#052460"/><path d="M71.63,32.31l1.74.3a2.88,2.88,0,0,1-1.06,1.46,3.15,3.15,0,0,1-1.82.5,3,3,0,0,1-2.55-1.13,3.75,3.75,0,0,1-.66-2.28,3.69,3.69,0,0,1,.86-2.58,2.85,2.85,0,0,1,2.18-.93,3,3,0,0,1,2.33,1,4.28,4.28,0,0,1,.81,3H69.08a1.75,1.75,0,0,0,.42,1.21,1.32,1.32,0,0,0,1,.43A1,1,0,0,0,71.2,33,1.39,1.39,0,0,0,71.63,32.31Zm.1-1.77a1.71,1.71,0,0,0-.4-1.15,1.22,1.22,0,0,0-.91-.4,1.2,1.2,0,0,0-.94.42,1.64,1.64,0,0,0-.37,1.13Z" fill="#052460"/></g><g style="isolation:isolate"><path d="M7.38,43.11H9.06v4.16l2.7-4.16h1.72v6.62H11.79V45.5L9.06,49.73H7.38Z" fill="#052460"/><path d="M15.2,43.11H17v2.43h2.51V43.11h1.75v6.62H19.46V47H17v2.78H15.2Z" fill="#052460"/><path d="M22.19,43.11h6v1.42H26.06v5.2H24.31v-5.2H22.19Z" fill="#052460"/><path d="M33.06,47.63l1.74.29a2.88,2.88,0,0,1-1.06,1.46,3.15,3.15,0,0,1-1.82.5,3,3,0,0,1-2.55-1.13,3.75,3.75,0,0,1-.66-2.28,3.62,3.62,0,0,1,.87-2.57A2.79,2.79,0,0,1,31.75,43a3,3,0,0,1,2.33,1,4.33,4.33,0,0,1,.82,3H30.51a1.75,1.75,0,0,0,.42,1.21,1.32,1.32,0,0,0,1,.43,1,1,0,0,0,.69-.22A1.4,1.4,0,0,0,33.06,47.63Zm.1-1.77a1.67,1.67,0,0,0-.4-1.16,1.25,1.25,0,0,0-1.85,0,1.65,1.65,0,0,0-.37,1.14Z" fill="#052460"/><path d="M36.27,43.11h1.64v1a2.34,2.34,0,0,1,.86-.82A2.44,2.44,0,0,1,40,43a2.51,2.51,0,0,1,2,.91,3.62,3.62,0,0,1,.81,2.51A3.76,3.76,0,0,1,41.92,49a2.54,2.54,0,0,1-2,.92,2.19,2.19,0,0,1-1-.22,3.14,3.14,0,0,1-.94-.75v3.34H36.27ZM38,46.31A2.54,2.54,0,0,0,38.45,48a1.35,1.35,0,0,0,1.08.53,1.25,1.25,0,0,0,1-.49A2.5,2.5,0,0,0,41,46.4a2.39,2.39,0,0,0-.42-1.55,1.31,1.31,0,0,0-1-.5,1.34,1.34,0,0,0-1.06.49A2.22,2.22,0,0,0,38,46.31Z" fill="#052460"/><path d="M48,47.63l1.74.29a2.82,2.82,0,0,1-1.06,1.46,3.14,3.14,0,0,1-1.81.5,3,3,0,0,1-2.56-1.13,3.75,3.75,0,0,1-.65-2.28,3.62,3.62,0,0,1,.86-2.57A2.79,2.79,0,0,1,46.64,43a2.93,2.93,0,0,1,2.33,1,4.33,4.33,0,0,1,.82,3H45.4a1.75,1.75,0,0,0,.42,1.21,1.32,1.32,0,0,0,1,.43,1.09,1.09,0,0,0,.7-.22A1.46,1.46,0,0,0,48,47.63Zm.1-1.77a1.67,1.67,0,0,0-.39-1.16,1.24,1.24,0,0,0-.91-.4,1.21,1.21,0,0,0-1,.42,1.65,1.65,0,0,0-.37,1.14Z" fill="#052460"/><path d="M56.81,45.07l-1.72.31a1.27,1.27,0,0,0-.4-.78,1.2,1.2,0,0,0-.8-.26,1.31,1.31,0,0,0-1,.45,2.32,2.32,0,0,0-.39,1.51,2.66,2.66,0,0,0,.4,1.67,1.29,1.29,0,0,0,1.06.48,1.16,1.16,0,0,0,.81-.28,1.63,1.63,0,0,0,.45-1l1.72.3a3.07,3.07,0,0,1-1,1.79,3.17,3.17,0,0,1-2,.6A3,3,0,0,1,51.52,49a4.16,4.16,0,0,1,0-5.08A3,3,0,0,1,53.87,43a3.26,3.26,0,0,1,1.92.52A2.84,2.84,0,0,1,56.81,45.07Z" fill="#052460"/><path d="M58.07,43.11h1.75v2.43h2.51V43.11h1.76v6.62H62.33V47H59.82v2.78H58.07Z" fill="#052460"/><path d="M65.44,46.33a3.66,3.66,0,0,1,.43-1.69,3.06,3.06,0,0,1,1.22-1.25A3.7,3.7,0,0,1,68.85,43a3.31,3.31,0,0,1,2.46,1,3.36,3.36,0,0,1,1,2.46,3.4,3.4,0,0,1-1,2.49,3.26,3.26,0,0,1-2.44,1,3.89,3.89,0,0,1-1.73-.41,2.89,2.89,0,0,1-1.26-1.21A4.08,4.08,0,0,1,65.44,46.33Zm1.8.09a2.15,2.15,0,0,0,.47,1.51,1.53,1.53,0,0,0,2.3,0,2.23,2.23,0,0,0,.46-1.52,2.19,2.19,0,0,0-.46-1.5,1.53,1.53,0,0,0-2.3,0A2.17,2.17,0,0,0,67.24,46.42Z" fill="#052460"/></g></g><circle cx="24.58" cy="73.02" r="8.43" fill="#b0cb1f"/><circle cx="157.4" cy="80.28" r="7.6" fill="#e8eff7"/><g style="isolation:isolate"><g style="isolation:isolate"><path d="M91.45,40.47h7.27V49.6H96.87V42H93.3v7.6H91.45Z" fill="#ce005b"/><path d="M100.18,46.2a3.66,3.66,0,0,1,.43-1.69,3,3,0,0,1,1.22-1.25,3.7,3.7,0,0,1,1.76-.43,3.31,3.31,0,0,1,2.46,1,3.36,3.36,0,0,1,1,2.46,3.4,3.4,0,0,1-1,2.49,3.26,3.26,0,0,1-2.44,1,3.89,3.89,0,0,1-1.73-.41,2.89,2.89,0,0,1-1.26-1.21A4.08,4.08,0,0,1,100.18,46.2Zm1.8.09a2.2,2.2,0,0,0,.46,1.51,1.5,1.5,0,0,0,1.16.52,1.48,1.48,0,0,0,1.15-.52,2.23,2.23,0,0,0,.46-1.52,2.19,2.19,0,0,0-.46-1.5,1.51,1.51,0,0,0-1.15-.52,1.53,1.53,0,0,0-1.16.52A2.2,2.2,0,0,0,102,46.29Z" fill="#ce005b"/><path d="M108.31,43h5.88V49.6h-1.75V44.4h-2.38v5.2h-1.75Z" fill="#ce005b"/><path d="M116,43h1.63v1a2.31,2.31,0,0,1,.86-.81,2.34,2.34,0,0,1,1.2-.32,2.55,2.55,0,0,1,2,.91,3.62,3.62,0,0,1,.8,2.51,3.76,3.76,0,0,1-.81,2.58,2.53,2.53,0,0,1-2,.92,2.15,2.15,0,0,1-1-.22,3.14,3.14,0,0,1-.94-.75v3.34H116Zm1.73,3.2a2.6,2.6,0,0,0,.44,1.65,1.38,1.38,0,0,0,1.08.53,1.26,1.26,0,0,0,1-.49,2.52,2.52,0,0,0,.4-1.6,2.39,2.39,0,0,0-.42-1.55,1.29,1.29,0,0,0-1-.5,1.32,1.32,0,0,0-1.06.49A2.17,2.17,0,0,0,117.77,46.18Z" fill="#ce005b"/><path d="M123.48,46.2a3.54,3.54,0,0,1,.43-1.69,2.94,2.94,0,0,1,1.22-1.25,3.67,3.67,0,0,1,1.76-.43,3.31,3.31,0,0,1,2.46,1,3.36,3.36,0,0,1,1,2.46,3.44,3.44,0,0,1-1,2.49,3.28,3.28,0,0,1-2.44,1,3.9,3.9,0,0,1-1.74-.41,2.81,2.81,0,0,1-1.25-1.21A4,4,0,0,1,123.48,46.2Zm1.79.09a2.2,2.2,0,0,0,.47,1.51,1.53,1.53,0,0,0,2.3,0,2.23,2.23,0,0,0,.47-1.52,2.19,2.19,0,0,0-.47-1.5,1.5,1.5,0,0,0-1.15-.52,1.51,1.51,0,0,0-1.15.52A2.2,2.2,0,0,0,125.27,46.29Z" fill="#ce005b"/></g><g style="isolation:isolate"><path d="M137,40.25h1.19a2,2,0,0,1-.41,1.2c-.24.28-.83.41-1.77.41h-.56a4.26,4.26,0,0,0-1.36.18,1.62,1.62,0,0,0-.85.71,3.36,3.36,0,0,0-.35,1.71,2.66,2.66,0,0,1,1-1.09,2.85,2.85,0,0,1,1.46-.36,2.88,2.88,0,0,1,2.21,1,3.44,3.44,0,0,1,.9,2.35,3.34,3.34,0,0,1-.95,2.38,3.25,3.25,0,0,1-2.48,1,3.34,3.34,0,0,1-1.85-.51A2.68,2.68,0,0,1,132,47.87a8.73,8.73,0,0,1-.35-2.91,5.29,5.29,0,0,1,.88-3.42,3.82,3.82,0,0,1,3.05-1h.89A.49.49,0,0,0,137,40.25Zm-3.53,6.09a2.13,2.13,0,0,0,.46,1.43,1.41,1.41,0,0,0,1.1.53,1.43,1.43,0,0,0,1.16-.55,2.12,2.12,0,0,0,.45-1.4,2.09,2.09,0,0,0-.46-1.42,1.44,1.44,0,0,0-2.24,0A2.08,2.08,0,0,0,133.46,46.34Z" fill="#ce005b"/></g><g style="isolation:isolate"><path d="M138.87,43h1.86l1.58,4.7,1.55-4.7h1.81l-2.34,6.37-.41,1.15a4.88,4.88,0,0,1-.44.89,1.87,1.87,0,0,1-.48.49,2.07,2.07,0,0,1-.67.3,3.44,3.44,0,0,1-.89.11,4.62,4.62,0,0,1-1-.11l-.16-1.37a4.26,4.26,0,0,0,.74.08,1.11,1.11,0,0,0,.91-.36,2.49,2.49,0,0,0,.44-.91Z" fill="#ce005b"/><path d="M146.75,43h1.68v4.16L151.12,43h1.72V49.6h-1.68V45.37l-2.73,4.23h-1.68Zm4.19-2.68h.86a2,2,0,0,1-.6,1.33,2.14,2.14,0,0,1-2.7,0,2,2,0,0,1-.59-1.33h.85a1,1,0,0,0,.31.67,1.49,1.49,0,0,0,1.56,0A1,1,0,0,0,150.94,40.3Z" fill="#ce005b"/><path d="M155.32,47.24l-.45-4.63V40.47h1.89v2.14l-.45,4.63Zm-.38,2.36V47.85h1.75V49.6Z" fill="#ce005b"/></g></g><path d="M78.3,33.22a19.74,19.74,0,0,1,3-3.39,16.93,16.93,0,0,0,2-2.15,3,3,0,0,0,.7-1.86,2.59,2.59,0,0,0-1.15-2.2,5.08,5.08,0,0,0-3-.84,6.68,6.68,0,0,0-3.43.91A6.75,6.75,0,0,0,74,26.19l-7-3.78a13.38,13.38,0,0,1,5.49-5.16A18.44,18.44,0,0,1,81,15.4a15.77,15.77,0,0,1,9,2.35,7.49,7.49,0,0,1,3.43,6.55,8.59,8.59,0,0,1-.66,3.43,9.7,9.7,0,0,1-1.59,2.51,27.07,27.07,0,0,1-2.39,2.28,16.31,16.31,0,0,0-2.35,2.35,3.46,3.46,0,0,0-.76,2.24H77.26A6.69,6.69,0,0,1,78.3,33.22Zm-.67,14.93a4.71,4.71,0,0,1-1.51-3.52,4.53,4.53,0,0,1,1.49-3.49,5.46,5.46,0,0,1,3.85-1.38,5.54,5.54,0,0,1,3.89,1.38,4.5,4.5,0,0,1,1.51,3.49,4.71,4.71,0,0,1-1.51,3.52,5.38,5.38,0,0,1-3.89,1.45A5.28,5.28,0,0,1,77.63,48.15Z" fill="#00adee"/><path d="M79.86,22.78a6.68,6.68,0,0,0-3.43.91A6.85,6.85,0,0,0,74,26.19l-7-3.78a13.2,13.2,0,0,1,4.31-4.48m12.14,9.75A3,3,0,0,0,84,25.82m-2.69,4a16.93,16.93,0,0,0,2-2.15M87,34.15a8.17,8.17,0,0,0-.61.71,3.46,3.46,0,0,0-.76,2.24H77.26a6.73,6.73,0,0,1,1-3.89,19.74,19.74,0,0,1,3-3.39M76.12,15.91A21.07,21.07,0,0,1,81,15.4a15.77,15.77,0,0,1,9,2.35,7.49,7.49,0,0,1,3.43,6.55,8.59,8.59,0,0,1-.66,3.43,9.7,9.7,0,0,1-1.59,2.51c-.27.3-.59.62-.93,1M71.25,18c.38-.24.77-.47,1.18-.68A16,16,0,0,1,76.16,16m10.7,28.67a4.71,4.71,0,0,1-1.51,3.52,5.38,5.38,0,0,1-3.89,1.45,5.28,5.28,0,0,1-3.83-1.45,4.71,4.71,0,0,1-1.51-3.52,4.53,4.53,0,0,1,1.49-3.49,5.46,5.46,0,0,1,3.85-1.38,6.42,6.42,0,0,1,2.56.5" fill="none" stroke="#052460" stroke-linecap="round" stroke-linejoin="round"/><path d="M120.36,86.71a4.76,4.76,0,0,1-1.53-3.58,4.57,4.57,0,0,1,1.53-3.55,5.68,5.68,0,0,1,4-1.41,5.53,5.53,0,0,1,3.92,1.41,4.6,4.6,0,0,1,1.52,3.55,4.77,4.77,0,0,1-1.54,3.58,6,6,0,0,1-7.9,0Zm-1.48-32.63h10.87l-1.83,21.4h-7.26Z" fill="#ffae00"/><path d="M120.36,79.58a6.28,6.28,0,0,1,7.39-.39m-7.52,7.39a4.75,4.75,0,0,1-1.4-3.45m10.92,0a4.77,4.77,0,0,1-1.54,3.58,6,6,0,0,1-7.9,0l-.13-.13m7.52-7.39a4.54,4.54,0,0,1,.48.39m-.07-6.9-.24,2.8h-7.26l-1.78-21.4h4.39m6.27,2.41-.94,11.06m-1.41-13.47h2.56l-.21,2.41" fill="none" stroke="#ce005b" stroke-linecap="round" stroke-linejoin="round"/><polygon points="30 33.47 27.84 32.85 26.11 34.27 26.03 32.03 24.14 30.82 26.25 30.05 26.82 27.88 28.2 29.65 30.44 29.52 29.18 31.38 30 33.47" fill="none" stroke="#00376a" stroke-linecap="round" stroke-linejoin="round" stroke-width="0.76"/><polygon points="147.13 37.11 144.34 36.39 142.16 38.27 141.99 35.4 139.52 33.91 142.2 32.86 142.86 30.05 144.69 32.27 147.56 32.03 146.01 34.46 147.13 37.11" fill="none" stroke="#00376a" stroke-linecap="round" stroke-linejoin="round" stroke-width="0.76"/><polygon points="153.33 18.66 152.82 16.87 151.07 16.28 152.6 15.25 152.62 13.39 154.08 14.54 155.85 13.98 155.22 15.72 156.29 17.23 154.44 17.17 153.33 18.66" fill="none" stroke="#00376a" stroke-linecap="round" stroke-linejoin="round" stroke-width="0.76"/><polygon points="27.29 60.16 26.23 59.69 25.25 60.3 25.36 59.15 24.48 58.4 25.61 58.16 26.04 57.08 26.63 58.08 27.78 58.17 27.01 59.03 27.29 60.16" fill="none" stroke="#ffae00" stroke-linecap="round" stroke-linejoin="round" stroke-width="0.76"/><polygon points="64.93 83.13 62.35 82.3 60.19 83.95 60.19 81.24 57.95 79.7 60.53 78.86 61.3 76.25 62.9 78.45 65.62 78.38 64.02 80.57 64.93 83.13" fill="none" stroke="#00376a" stroke-linecap="round" stroke-linejoin="round" stroke-width="0.76"/><polygon points="137.5 76.25 134.96 75.11 132.58 76.55 132.88 73.79 130.78 71.97 133.5 71.4 134.58 68.83 135.96 71.25 138.73 71.48 136.86 73.54 137.5 76.25" fill="none" stroke="#00376a" stroke-linecap="round" stroke-linejoin="round" stroke-width="0.76"/><polygon points="151.05 64.78 148.16 64.16 146.01 66.19 145.7 63.25 143.11 61.84 145.81 60.64 146.35 57.73 148.33 59.93 151.26 59.55 149.78 62.11 151.05 64.78" fill="none" stroke="#00376a" stroke-linecap="round" stroke-linejoin="round" stroke-width="0.76"/><polygon points="38.63 82.61 36.79 82.66 35.79 84.19 35.19 82.46 33.42 81.98 34.88 80.87 34.79 79.04 36.29 80.08 38 79.43 37.48 81.19 38.63 82.61" fill="none" stroke="#ffae00" stroke-linecap="round" stroke-linejoin="round" stroke-width="0.76"/><polygon points="111.5 15.4 108.77 14.13 106.17 15.65 106.54 12.66 104.29 10.66 107.25 10.09 108.46 7.33 109.91 9.96 112.91 10.26 110.86 12.46 111.5 15.4" fill="none" stroke="#00376a" stroke-linecap="round" stroke-linejoin="round" stroke-width="0.76"/><polygon points="121.93 32.16 119.4 31.68 117.58 33.49 117.25 30.95 114.97 29.77 117.29 28.67 117.7 26.14 119.46 28 122 27.61 120.77 29.86 121.93 32.16" fill="none" stroke="#ffae00" stroke-linecap="round" stroke-linejoin="round" stroke-width="0.76"/></svg>