<svg width="48" height="108" viewBox="0 0 48 108" fill="none" xmlns="http://www.w3.org/2000/svg">
<path fill-rule="evenodd" clip-rule="evenodd" d="M47.0099 105.399C47.0099 106.298 45.3192 107.026 43.2336 107.026C41.1481 107.026 39.4575 106.298 39.4575 105.399C39.4575 104.5 41.1481 103.771 43.2336 103.771C45.3193 103.771 47.0099 104.5 47.0099 105.399Z" fill="#3A4252"/>
<path fill-rule="evenodd" clip-rule="evenodd" d="M47.0099 106.31C47.0099 107.209 45.3192 107.938 43.2336 107.938C41.1481 107.938 39.4575 107.209 39.4575 106.31C39.4575 105.411 41.1481 104.683 43.2336 104.683C45.3193 104.683 47.0099 105.411 47.0099 106.31Z" fill="#3A4252"/>
<path fill-rule="evenodd" clip-rule="evenodd" d="M39.3908 105.969C41.5969 107.426 44.7878 106.883 47.0453 105.939C47.2004 105.874 47.1323 105.617 46.9747 105.683C44.7766 106.603 41.6756 107.161 39.5247 105.74C39.3819 105.646 39.2488 105.875 39.3908 105.969Z" fill="#F5E3E4"/>
<path fill-rule="evenodd" clip-rule="evenodd" d="M3.52353 21.3016C3.10073 20.7878 2.59124 19.9643 2.31314 19.2933C1.70154 17.8177 2.91473 18.1837 3.85212 18.4772C4.72622 18.7509 7.99143 19.936 8.25493 20.513C8.06053 20.5997 3.79623 21.3219 3.52353 21.3016ZM39.93 20.5386C40.0469 20.0184 43.4426 18.7475 44.2984 18.4875C45.2194 18.2077 46.5007 17.7937 45.8815 19.2839C45.7178 19.6779 45.5293 20.0171 45.3129 20.3573C45.1334 20.6392 44.8013 21.0798 44.6984 21.3455L39.93 20.5386ZM6.22361 38.4334C6.18881 38.2817 5.39655 36.5616 5.16525 35.8777C4.11725 32.7783 3.98631 29.6563 4.98111 26.5679C5.19591 25.9011 5.63153 24.4571 6.30103 24.2687C7.25503 24.0003 8.24343 23.7832 9.23993 23.6008L11.6154 23.2345C12.0007 23.1749 11.99 23.0597 12.316 23.0662C13.441 23.0886 14.5372 22.8626 15.6679 22.8242C15.7394 22.6492 15.677 22.7018 15.9446 22.545L16.057 22.4842C15.8363 22.4761 15.7816 22.5042 15.7327 22.3569C15.0199 21.9718 15.2268 20.9904 15.2268 20.0536C15.2268 19.2419 15.2887 18.1448 15.2084 17.3677C12.8582 17.3548 10.6872 17.1915 8.37509 16.901C7.71609 16.8182 6.86124 16.6301 6.29704 16.6072C6.83994 16.5906 7.6381 16.6784 8.2286 16.7213C12.3679 17.0221 18.2495 16.7475 22.4282 16.7791L24.792 16.7618L27.3521 16.8106L28.5336 16.825C32.0181 16.7816 35.2017 16.88 38.7743 16.7681C39.749 16.7375 41.0194 16.5761 41.9031 16.6083C41.4415 16.6121 40.322 16.8294 39.7543 16.9063C39.0369 17.0033 38.3104 17.0773 37.5701 17.1459L32.9738 17.4011C32.928 18.202 32.9657 19.1096 32.9657 19.9222C32.9657 20.7329 33.1133 21.777 32.6883 22.1888C32.5185 22.4 32.4297 22.4847 32.142 22.4664C32.3961 22.7112 32.4352 22.4441 32.5163 22.8542C33.2886 22.8762 35.677 23.1839 35.8283 23.1768C36.1553 23.1615 36.1562 22.9036 36.537 23.1391C36.7524 23.2722 36.4915 23.2762 37.167 23.3683C38.2844 23.5205 40.7054 23.9637 41.6151 24.3053C42.2393 24.5396 41.759 24.3515 42.2578 24.3227C42.5464 24.306 42.6453 24.4965 42.747 24.6795C44.4014 27.6555 44.6288 31.7799 43.608 35.1295C43.3556 35.9575 42.7053 37.5132 42.6538 37.7114C42.7992 37.8266 43.1612 38.6851 44.1297 38.4744C44.6488 38.3614 45.2592 37.932 45.5539 37.5992C45.8563 37.2577 46.3309 34.2924 46.3922 33.8426L46.9824 26.4244C47.0127 26.0576 47.0445 25.7684 47.0445 25.305C47.7639 25.1374 47.8334 24.3006 47.8323 23.4013V18.0186C47.8336 17.4615 47.8554 17.215 47.6607 16.8117C47.357 16.1826 46.7318 15.8536 46.0352 15.7459C45.2747 15.6283 45.2758 16.0031 45.1674 15.2352C44.8966 13.3149 43.9416 10.9922 42.9473 9.31566L41.906 7.66556C41.5043 7.13016 41.1786 6.63706 40.7579 6.12226C39.9181 5.09436 38.8265 3.84976 37.839 2.93646C36.8679 2.03826 36.2168 1.60326 34.8927 1.15646C32.2442 0.262865 27.8574 0.165367 25.0542 0.163867L20.4589 0.163574C20.1668 0.179274 20.1441 0.228168 19.8055 0.232168C17.5587 0.258468 12.6735 0.758376 11.0558 2.31347L9.22821 4.08597C9.21851 4.09557 9.20473 4.10926 9.19493 4.11886L8.36345 5.00386C8.21455 5.15706 8.20154 5.21518 8.06814 5.36498C7.93154 5.51848 7.89975 5.53716 7.76165 5.71486L6.56111 7.27126C6.35411 7.54786 6.19702 7.80637 6.00462 8.09327C5.90512 8.24157 5.84281 8.35487 5.75181 8.49687L4.98876 9.76886C4.44506 10.8605 4.1957 11.2947 3.729 12.5133C3.5998 12.851 3.50631 13.232 3.40041 13.5632C3.12521 14.4236 3.07832 15.1979 2.80142 15.7212C1.96342 15.7212 0.986967 15.9319 0.611268 16.6818C0.336068 17.2308 0.371596 17.2481 0.372596 18.0186V22.8762C0.372596 23.9895 0.246509 25.0921 1.16041 25.305C1.16041 27.9335 1.64587 31.6288 2.35627 34.1525C2.72097 35.4483 3.0637 36.8342 3.449 38.1141C3.9957 39.9304 5.84491 39.7067 6.22361 38.4334Z" fill="#00376A"/>
<path fill-rule="evenodd" clip-rule="evenodd" d="M27.8231 47.1331C27.7057 47.3504 27.7753 47.2382 27.5891 47.4053C27.5022 47.4832 27.4639 47.5216 27.3534 47.6244C26.7508 48.1848 24.391 50.1286 23.8934 50.3502C23.0234 49.7087 21.5124 48.3855 20.7213 47.5578C20.5546 47.3834 20.4965 47.3707 20.3416 47.1654C19.282 47.0166 18.3508 46.6805 17.3963 46.5051C16.905 47.9754 15.5799 49.3478 14.4107 49.9763C13.6815 50.3683 12.9117 50.631 11.9774 50.7525C11.3848 50.8296 9.50356 50.9063 9.05956 50.643L8.99917 50.7267C8.62437 51.332 7.98888 53.5529 7.84198 54.1738C7.77248 54.4676 7.72766 54.8342 7.64706 55.1604C7.36206 56.3139 7.13834 56.6072 7.13284 58.1927C7.12944 59.1509 7.3981 60.2783 7.868 61.0024C9.1556 62.9869 10.5166 63.1894 11.138 63.625C11.3601 63.5167 11.7174 62.6453 11.831 62.3616C12.5357 60.6033 12.7502 59.2394 12.615 57.2967C12.897 57.3774 13.9085 57.7987 14.1049 58.0332C14.3506 58.0326 15.1508 58.5136 15.3981 58.6636L16.0025 58.7573L15.9309 59.9596L16.0619 58.7418L19.1669 59.0502C19.0969 58.1373 18.846 57.0079 18.6938 56.0871L17.7225 50.2198C17.636 49.6985 17.5013 49.2242 17.8096 48.7821C18.0247 48.4735 18.392 48.2106 18.931 48.3002C19.9216 48.4649 19.8937 49.5593 20.0617 50.5788L21.5067 59.309C22.245 59.4039 24.0896 59.7563 23.951 60.7465C23.8952 61.1456 23.5769 61.3251 23.4223 61.5401C24.53 62.1968 23.3359 63.3651 23.2712 63.5517C23.1962 63.768 23.519 64.2909 23.3574 64.7634C23.2082 65.1996 22.9336 65.2937 22.5496 65.5208L22.8989 67.7047C24.8115 67.7525 26.4809 67.8245 28.3935 67.6259C30.2051 67.4378 31.4981 67.0895 33.1027 66.6001L33.9066 64.8218C33.784 64.5961 33.8826 64.4297 33.8323 64.0521C33.6935 63.0089 33.8905 61.6841 33.9181 60.7541L34.0473 58.1919L34.3216 58.6396C34.4921 58.9706 34.6917 60.0996 34.7623 60.4894C34.8323 60.5477 34.7765 60.5233 34.8895 60.5666C35.9142 60.9589 39.9306 60.2214 40.6082 59.636C40.9329 58.9973 40.3489 55.5852 40.2248 54.9681C39.9505 53.6037 39.5117 52.1163 39.0362 50.9511C37.44 51.5125 34.8275 50.7865 33.7124 50.059C33.0639 49.636 32.4833 49.1017 32.0492 48.5057C31.7688 48.1208 31.0419 46.9703 30.9695 46.3901C30.5812 46.4269 29.8336 46.6877 29.4041 46.792C28.8942 46.916 28.3062 47.0076 27.8231 47.1331Z" fill="#00AEEF"/>
<path fill-rule="evenodd" clip-rule="evenodd" d="M26.4362 46.4322C25.1407 46.6096 23.6552 46.632 22.3357 46.5309C22.1269 46.2481 21.6543 45.0341 21.4854 44.6273C21.1411 43.798 20.9714 43.5683 20.8914 42.5381C21.6098 42.4284 23.4122 42.5629 24.2668 42.5576C25.359 42.5505 26.6092 42.4512 27.668 42.4929C27.5882 44.0138 26.8749 45.1361 26.4362 46.4322ZM21.1398 46.1431C21.3119 46.2684 21.2276 46.1588 21.2968 46.4293L19.1827 46.051L17.7686 45.7025L17.7598 45.5609C17.6605 45.6735 17.8047 45.7281 17.1398 45.4965C16.5926 45.306 15.3989 44.9817 15.2134 44.6038C14.9075 44.3913 13.8663 42.8115 13.7639 42.3719L13.6769 42.3063L13.482 41.905C14.473 41.9463 15.6087 42.1684 16.6344 42.2615C17.7216 42.3603 18.8424 42.4217 19.9632 42.4749C20.2205 43.1908 19.9005 43.1213 20.4504 44.4159C20.609 44.7895 21.1076 45.8412 21.1398 46.1431ZM32.6108 44.8007C32.3745 44.9881 31.0123 45.5135 30.6436 45.4969C30.316 45.7464 29.6802 45.8395 29.2501 45.9309L27.448 46.3081L27.6073 45.8511C27.7189 45.4017 28.0245 44.7271 28.2015 44.2758C29.168 41.8119 27.0249 42.7014 31.9861 42.1488C32.5384 42.0873 33.0709 42.0169 33.6037 41.9399C33.8679 41.9018 35.0178 41.6052 35.2325 41.7811C34.8527 42.4596 34.9847 42.359 34.48 43.1326C34.3627 43.3123 34.3237 43.4045 34.1987 43.5734C33.6993 44.2482 33.4419 44.5959 32.6108 44.8007ZM20.6559 37.4307L27.8687 37.4191C27.8839 37.6554 27.9192 40.9895 27.829 41.3391C27.7357 41.7002 27.8393 41.4478 27.7122 41.5757C27.3576 41.7321 21.3717 41.7394 20.7594 41.6138C20.5512 40.4333 20.6559 38.6856 20.6559 37.4307ZM13.4357 43.8161C12.7129 43.6477 10.4234 41.9391 9.71469 41.3667C9.52729 41.2153 9.36081 41.1163 9.23461 40.9278L12.0663 41.6408C12.464 41.7153 12.4112 41.6685 12.548 42.0124L13.4357 43.8161ZM35.3604 43.4878C35.7552 42.8982 35.9913 42.2716 36.2748 41.711C36.4265 41.411 36.4691 41.4478 36.8425 41.3596L39.6271 40.5339C39.4801 40.7535 38.9207 41.1794 38.6801 41.3592C38.3114 41.6347 38.0001 41.8781 37.6197 42.1369L36.5383 42.8278C36.2864 42.9781 35.6096 43.4213 35.3604 43.4878ZM12.1483 36.889C13.3922 36.9803 14.6535 37.1325 15.8862 37.2131C17.0261 37.2877 18.7474 37.2405 19.7823 37.4095C19.8102 38.805 19.7184 40.2152 19.8657 41.5849C18.2645 41.6935 15.2361 41.2506 13.5509 41.0066C12.947 40.9192 13.0393 40.9517 12.6604 39.5386C12.4562 38.7769 12.2029 37.7178 12.1483 36.889ZM28.6905 41.5479L28.8265 37.3976C29.0018 37.3082 32.2402 37.1968 32.7829 37.1589C34.0786 37.0683 35.3316 36.8956 36.6047 36.7874C36.5738 37.4372 35.9636 40.3165 35.7086 40.6198C35.3659 41.0277 29.4042 41.5236 28.6905 41.5479ZM20.7057 36.543C20.6023 36.27 20.6047 32.6244 20.6861 32.234L27.8573 32.2262L27.8793 36.5116C26.6772 36.6094 21.9988 36.5996 20.7057 36.543ZM6.66227 35.7997C6.83747 35.8495 6.8916 35.9179 7.0111 36.0117C7.1904 35.8653 7.73624 36.1099 7.96344 36.1655C8.30884 36.2501 8.66416 36.3249 9.03016 36.3977C11.9271 36.9735 11.0042 36.1401 11.5789 38.777C11.7197 39.4225 11.9755 40.1257 12.0797 40.7195L10.7444 40.3846C10.6579 40.4083 10.6787 40.4256 10.6787 40.337C10.3021 40.3286 9.52688 39.9956 9.17868 39.8677C8.65248 39.6744 8.36097 39.4635 7.89227 39.1849C7.49387 38.9481 7.66357 39.0525 7.43407 38.6585C7.20827 38.2707 6.48828 37.012 6.47758 36.6298C6.19798 36.4382 6.05148 35.9062 6.01798 35.5484L6.66227 35.7997ZM37.3296 40.2832L36.7452 40.4683C36.7789 40.0095 37.0802 39.1416 37.1915 38.6196C37.3285 37.9768 37.4358 37.3135 37.5197 36.648L40.5512 36.0878C40.7162 36.1712 40.5924 36.0023 40.6121 36.227L40.805 36.034C40.8115 36.0098 40.832 36.0105 40.8462 35.9996L41.9247 35.6932C42.0639 35.6059 42.326 35.4952 42.5154 35.4795C42.4723 35.9975 41.3178 38.5428 40.9154 38.8682C40.5636 39.1526 39.6954 39.4969 39.234 39.6813L37.3296 40.2832ZM32.0315 32.2913C32.481 32.1417 32.4036 32.1545 32.9969 32.1405C33.4121 32.1306 33.6885 32.103 34.0533 32.2031L34.1437 32.1491C34.4069 32.0578 36.6249 32.0193 36.8465 32.0289C36.9894 32.9815 36.8122 34.8645 36.7322 35.8727C35.7331 36.0868 29.5933 36.6269 28.7497 36.4572L28.7504 32.2295L31.8147 32.172C32.0321 32.2279 31.9001 32.1302 32.0315 32.2913ZM14.5357 32.2004C15.0127 32.0899 16.202 32.1303 16.568 32.2898C16.583 32.2768 16.6047 32.2647 16.6187 32.2583L16.7844 32.1919C16.8008 32.1884 16.9536 32.1811 16.9765 32.1809C17.095 32.1797 17.2495 32.1917 17.3741 32.1943L19.7844 32.2352L19.7773 36.4986C18.8501 36.594 12.6126 36.2191 12.0352 35.9485C11.8642 35.3887 11.794 32.8017 11.8366 32.105C12.1773 32.0381 14.3534 32.0899 14.5357 32.2004ZM6.88688 31.8074L10.9291 32.0338L11.1213 35.8509C10.1439 35.782 7.06398 35.163 6.41438 34.7495C5.55648 34.5413 5.69566 34.3246 5.54196 33.4849C5.43976 32.9263 5.28294 32.2219 5.22344 31.6249L6.88688 31.8074ZM43.2086 32.8538C43.1325 33.2039 43.0936 33.4207 43.0265 33.7587C42.9593 34.0978 42.9025 34.2695 42.5809 34.3493C42.2669 34.709 41.4187 34.8943 40.8793 35.0701C40.2481 35.2397 38.2003 35.7726 37.624 35.7196L37.8016 31.9764L40.1597 31.8482L43.3427 31.4649L43.2746 32.0659C43.3303 32.3122 43.2671 32.6228 43.2086 32.8538ZM20.6664 27.2919C20.6714 27.037 20.6223 27.2174 20.7221 27.0453L27.8815 27.0782L27.8709 27.8074L27.8708 31.356L20.6561 31.3399L20.6664 27.2919ZM12.1627 27.2533C13.3892 27.182 18.9645 26.9272 19.7801 27.163L19.7797 31.3226C19.093 31.4346 12.9169 31.2631 11.8648 31.1983C11.8225 30.6331 11.9922 27.6844 12.1627 27.2533ZM28.7602 27.7785L28.7537 27.0769L30.3775 27.1171C31.4212 27.0824 32.3909 27.1896 33.3883 27.252C34.3624 27.313 35.5463 27.1598 36.4762 27.3359C36.6435 27.7398 36.8493 30.5977 36.8215 31.1479C35.4807 31.1941 29.6387 31.4447 28.7496 31.3147L28.7602 27.7785ZM6.75985 30.9177L5.19798 30.7199C5.11328 30.0041 5.35496 28.5285 5.53446 27.8368C5.90146 27.6898 7.50948 27.5301 7.97758 27.5265L11.2144 27.3026L10.9798 31.1326C10.5345 31.2265 7.34185 31.0043 6.75985 30.9177ZM37.4125 27.4964C37.5095 27.3339 37.3284 27.3884 37.7179 27.3762L38.7747 27.4559C39.2465 27.4904 39.7168 27.5273 40.194 27.5726C40.8405 27.6339 42.184 27.7248 42.7501 27.8944L43.0252 27.9542L43.2994 29.5782C43.314 29.7093 43.3402 30.041 43.2186 30.1177C43.3217 30.2459 43.3609 30.2915 43.3477 30.5497L43.1614 30.5879C42.2622 30.8272 40.7252 30.9192 39.7379 30.9822L37.7329 31.0957L37.4125 27.4964ZM26.8886 24.9892C27.3389 25.1325 27.1898 24.9659 27.3987 25.4529C27.5057 25.7022 27.6326 25.9097 27.6994 26.183L20.815 26.172L21.3408 25.0133C22.0349 25.0449 22.9368 24.9531 23.6758 24.9511C24.3541 24.9493 25.424 25.0433 26.0272 24.9859C25.5924 24.8018 22.1512 24.9383 21.398 24.9539C21.4665 24.6788 21.952 23.5819 22.1005 23.3854L26.4801 23.4234L27.1676 24.9934L26.8886 24.9892ZM40.6629 24.9547C41.2578 25.0555 41.3764 25.2913 41.9455 25.0365L42.3254 25.8455L42.7611 26.9946C41.8447 26.9218 40.9087 26.7577 39.9552 26.6776C39.2184 26.6156 37.8576 26.5468 37.2468 26.2481L36.9047 24.223C38.0461 24.3163 39.5947 24.6559 40.6629 24.9547ZM11.3586 26.0879L11.3432 26.4241C10.984 26.4492 9.50028 26.5798 9.27008 26.4973C8.19098 26.6325 6.96089 26.7514 5.83079 26.8686C5.87929 26.5281 6.16992 25.8558 6.32462 25.5661C6.50532 25.082 6.59871 25.0845 7.10821 24.9524C7.49171 24.853 7.84951 24.7603 8.23711 24.6894C9.30401 24.5197 10.5389 24.1765 11.6725 24.1188C11.6168 24.6003 11.4681 25.7247 11.3586 26.0879ZM36.2855 26.0837L36.3775 26.4124L28.7205 26.2075C28.5512 25.9576 28.2837 25.4099 28.2291 25.0732C28.0839 24.898 27.5653 23.7613 27.4783 23.4509C28.6149 23.4189 35.3482 23.8147 35.969 24.1233C36.0741 24.4446 36.364 25.8325 36.2855 26.0837ZM19.3302 22.5892C19.4024 23.4246 19.1307 23.3344 18.3765 23.426C17.8703 23.4874 17.2585 23.5448 16.7439 23.5801L21.0855 23.4469L20.3404 25.0075C20.2679 25.3556 19.9942 25.9834 19.8014 26.1927L15.0755 26.2473L12.2194 26.3719L12.3177 25.9004L12.5926 23.9756L16.098 23.6563C15.6896 23.362 15.7108 23.5021 15.668 22.824C14.5373 22.8624 13.4412 23.0885 12.3162 23.0661C11.9902 23.0596 12.0008 23.1747 11.6155 23.2343L9.24008 23.6006C8.24358 23.783 7.25518 24.0002 6.30118 24.2686C5.63168 24.457 5.19606 25.901 4.98126 26.5678C3.98646 29.6562 4.1174 32.7782 5.1654 35.8776C5.3967 36.5615 6.18896 38.2816 6.22376 38.4333C6.53816 38.8409 7.19684 40.3723 7.98774 41.0586C9.29574 42.1932 9.92684 42.8385 11.5184 43.8296L13.8295 45.1141C14.3023 45.2471 15.0109 45.6356 15.5415 45.8478C16.1282 46.0824 16.8333 46.2595 17.3965 46.505C18.351 46.6804 19.2822 47.0165 20.3418 47.1653L22.4766 47.4406L25.4946 47.4201L27.8233 47.133C28.3064 47.0075 28.8944 46.9159 29.4043 46.7919C29.8338 46.6876 30.5814 46.4268 30.9697 46.39C31.0339 46.3495 33.8949 45.2886 33.9162 45.2856C35.3916 44.6686 36.5564 43.8635 37.8511 43.0905L38.7465 42.476C38.8817 42.3738 38.9085 42.3316 39.0361 42.2404L40.6941 40.8789C40.9213 40.6504 40.9901 40.5952 41.1768 40.3113C41.3206 40.0925 41.4366 39.941 41.5694 39.7193L42.654 37.7113C42.7055 37.5131 43.3558 35.9574 43.6082 35.1294C44.629 31.7798 44.4016 27.6554 42.7472 24.6794C42.6455 24.4964 42.5465 24.3058 42.2579 24.3225C41.7591 24.3513 42.2394 24.5394 41.6152 24.3051C40.7055 23.9635 38.2846 23.5203 37.1672 23.3681C36.4917 23.276 36.7526 23.272 36.5372 23.1389C36.1564 22.9034 36.1554 23.1613 35.8284 23.1766C35.6771 23.1837 33.2888 22.876 32.5165 22.854C32.4891 23.3137 32.5026 23.5716 32.0137 23.6173C31.6795 23.6486 29.2573 23.4504 28.8394 23.1514L28.865 22.5924L27.9423 22.5801C27.7026 22.5758 27.3253 22.605 27.1073 22.5357C26.8525 22.4547 26.955 22.3128 26.5233 22.3592C26.1095 22.596 26.2452 22.5439 25.7119 22.5313L22.7547 22.5245C22.5963 22.5271 22.4141 22.5441 22.2701 22.4996C22.0873 22.4433 22.1654 22.3937 21.9541 22.3578C21.6066 22.2989 21.6781 22.5281 21.1861 22.5518C20.6226 22.579 19.8848 22.6109 19.3302 22.5892Z" fill="#696868"/>
<path fill-rule="evenodd" clip-rule="evenodd" d="M14.4859 81.6803L14.4478 81.7802C14.3368 82.2811 14.5556 82.4867 14.3062 82.8907C14.1157 83.1992 13.9217 83.4072 13.7639 83.7393L14.614 83.7095C14.5464 83.4033 14.2804 83.3993 14.5101 83.1588C14.7781 82.9173 14.9893 83.4367 15.2079 83.6609C15.4474 83.7753 17.2157 83.457 17.3994 83.713C17.5279 84.1234 17.1145 84.0448 16.7161 84.0592C16.3416 84.0727 15.9661 84.088 15.5832 84.1083C15.6793 84.3541 16.1726 84.9533 16.3696 85.1936C17.0295 85.9988 15.4685 85.6208 15.0489 85.6699C15.1602 85.7982 15.3365 86.0569 15.4707 86.2213C15.634 86.421 15.9305 86.6401 15.7015 86.8482C15.4957 87.0392 14.3567 86.7163 13.7144 86.7047C13.9054 86.9563 14.06 87.1504 14.2214 87.3386C14.3246 87.459 14.3966 87.5388 14.4953 87.664C14.6433 87.8519 14.7124 87.8533 14.5273 88.035C14.3103 88.2408 13.2953 87.4931 12.8346 87.2161C12.5479 87.0437 12.2971 86.8972 12.0141 86.7246C11.6865 86.5249 11.2782 86.4394 11.3403 86.023C11.6636 85.8866 12.1682 86.0607 12.5811 86.0817C12.4183 85.833 12.0937 85.6189 12.1324 85.2409L12.9054 85.0922C13.2244 85.081 13.6553 85.1347 13.996 85.1402C13.8739 84.8453 13.8267 84.8498 13.6461 84.6306C13.456 84.4002 13.4885 84.2774 13.37 84.1415C12.7818 84.8389 9.7725 85.7754 8.7294 87.8823C7.82741 89.7041 8.60942 91.5852 10.0222 92.3627C10.9139 92.6685 10.953 92.9762 12.6283 93.2682C14.5061 93.5954 16.854 93.4272 18.5562 92.5855C19.8702 91.9357 19.7915 91.7327 20.525 91.0069L20.854 90.4231C21.0675 89.8922 21.133 88.5461 21.1764 87.9885C21.2317 87.2794 21.5029 85.1148 21.3784 84.5801C21.1893 84.6303 21.3329 84.5697 21.1814 84.6483C20.1376 85.5134 18.4973 83.6713 18.3646 83.3985C18.5367 83.1078 18.8138 82.9419 18.9123 82.5876C18.3588 82.3773 16.8932 81.2294 15.5352 81.2179C14.892 81.2125 14.8295 81.4 14.4859 81.6803Z" fill="#00376A"/>
<path fill-rule="evenodd" clip-rule="evenodd" d="M26.9646 84.7116C26.8267 84.6429 26.801 84.6203 26.6296 84.5803C26.4788 85.2276 26.659 85.6617 26.6934 86.2889C26.7664 87.6175 26.8417 89.91 27.395 90.905C27.4877 91.0717 27.3924 90.9276 27.4957 91.0657C27.5068 91.0806 27.5432 91.1229 27.5535 91.1349C27.5603 91.143 27.5782 91.1607 27.5839 91.1671C27.5895 91.1735 27.6039 91.1884 27.6142 91.1988C27.7485 91.3082 27.9109 91.4877 28.045 91.6328C28.4383 92.0585 29.0335 92.3883 29.5846 92.6523C31.5456 93.5915 34.7099 93.666 36.7888 92.9029C37.2416 92.7366 37.597 92.4984 37.9859 92.3594C38.7657 91.9611 39.3296 91.0768 39.5712 90.2355C39.901 89.0869 39.4647 88.0875 38.9428 87.3649C37.5989 85.5037 35.4003 84.924 34.6381 84.1517L34.5841 84.2558C34.5766 84.2706 34.5671 84.2897 34.5591 84.3056C34.3009 84.8157 34.1877 84.7068 34.0121 85.14C34.3531 85.1352 34.7838 85.0808 35.1025 85.0925L35.8744 85.2424C35.9135 85.6093 35.5837 85.8293 35.4273 86.0816C35.8332 86.062 36.3486 85.8851 36.6635 86.0246C36.7324 86.4382 36.3197 86.5258 35.9927 86.7239L34.3117 87.7327C34.0874 87.8686 33.6854 88.2222 33.4803 88.0354C33.1748 87.7449 33.7885 87.4931 34.2931 86.7029C33.8858 86.709 32.5096 87.0384 32.3067 86.8497C32.0186 86.5929 32.7515 86.0603 32.9135 85.653C32.5244 85.6659 31.8255 85.815 31.546 85.6341C31.2385 85.3125 32.305 84.6286 32.4264 84.104C31.877 84.0711 30.1211 84.1688 30.6317 83.6747C30.801 83.511 32.4373 83.6952 32.8 83.6615C33.0172 83.4345 33.2306 82.9169 33.4975 83.1593C33.7253 83.3976 33.4613 83.4051 33.3931 83.7095L34.2442 83.7423C34.1463 83.5315 34.0776 83.4399 33.9423 83.2412C33.809 83.0455 33.7067 82.9571 33.6534 82.7112C33.3183 82.4845 33.8491 81.7519 33.137 81.3566C31.9417 80.6931 29.5827 82.4055 29.0921 82.5861C29.1952 82.9417 29.4665 83.1087 29.6421 83.3987C29.4961 83.6952 27.6015 85.5503 26.9646 84.7116Z" fill="#00376A"/>
<path fill-rule="evenodd" clip-rule="evenodd" d="M22.8989 67.7047L23.3475 70.2514C23.5351 69.9569 23.5761 69.5791 23.9382 69.4824C23.9908 69.7079 24.1179 69.9076 24.1942 70.1456C24.5504 71.2568 24.9885 74.7595 24.9885 75.9154C25.2163 75.9685 25.4031 76.0865 25.645 76.156C27.4857 76.4271 27.8651 76.5671 29.9138 76.4457C31.9978 76.3221 32.0617 76.1476 33.7191 75.6197C33.9093 75.5241 34.0547 75.3897 34.2081 75.2228C34.5576 74.8426 34.241 74.0656 34.2459 72.7627C34.2474 72.3668 34.1797 72.2878 34.176 71.9137L34.0473 69.1775L33.9846 68.7122C32.5451 68.7084 32.7878 67.687 33.1027 66.6001C31.4981 67.0895 30.2051 67.4378 28.3935 67.6259C26.4809 67.8245 24.8115 67.7525 22.8989 67.7047Z" fill="#00376A"/>
<path fill-rule="evenodd" clip-rule="evenodd" d="M36.272 15.4148C36.472 15.1895 40.4884 13.0124 40.8342 12.9397C41.0746 13.4203 42.2166 14.5713 42.3832 14.9423L36.272 15.4148ZM7.39628 12.9602C7.64488 12.9936 11.733 15.2045 11.9263 15.3945L5.80776 14.9549C5.90946 14.7283 6.0255 14.6314 6.1819 14.4421L7.39628 12.9602ZM40.0216 11.7492L39.0782 12.1421C38.9557 12.2673 37.7985 12.7615 37.4731 12.8238L36.7081 13.1211L35.5573 13.5052L33.8506 13.9671L32.4066 14.2702L31.6188 14.4058L30.6341 14.5465L29.7152 14.6514L28.2374 14.7653L20.262 14.7828L18.9837 14.7039L16.6517 14.4174L15.6013 14.2371L14.7184 14.0606L13.9603 13.8769L12.8444 13.5691L11.5971 13.1635L10.6782 12.8181C10.368 12.7342 9.36118 12.3461 9.20948 12.1849C8.84888 12.0972 8.5218 11.7838 8.1712 11.7539C7.5193 11.6703 7.34656 11.7641 6.96886 12.1418C6.58136 12.5294 4.83394 14.7172 4.73144 15.0284C4.35824 16.1634 6.26595 16.0406 7.06815 16.0405H41.071C41.8565 16.0406 43.7408 16.1898 43.4759 15.089C43.3852 14.7117 41.6821 12.6742 41.2612 12.1816C40.9615 11.8311 40.6715 11.6809 40.0216 11.7492Z" fill="#0A2B5B"/>
<path fill-rule="evenodd" clip-rule="evenodd" d="M14.4204 75.846C15.7989 76.2104 15.9575 76.5675 18.0307 76.5983C20.1295 76.6296 20.3559 76.3403 21.9655 76.1092L21.609 73.591L20.5662 67.4689C19.6968 67.4783 18.0164 67.1338 17.1276 66.9696C16.0473 66.77 14.9223 66.4379 13.8952 66.2607C13.7123 67.0761 13.8295 69.7787 13.8295 70.8609C13.8295 72.4363 13.8295 74.0118 13.8295 75.5872C14.0596 75.6408 14.2305 75.752 14.4204 75.846Z" fill="#00376A"/>
<path fill-rule="evenodd" clip-rule="evenodd" d="M15.9311 59.9595C15.896 61.781 15.2716 63.7497 14.5654 65.0395C14.6454 65.2715 14.723 65.1282 15.2793 65.266C15.9269 65.4264 17.9648 66.9945 20.5325 67.1093C21.0851 67.0083 21.5233 66.9447 21.8108 66.6332C21.9218 66.5129 22.0685 66.2567 22.1325 66.0313C22.2413 65.6484 22.1248 65.5985 22.5498 65.5207C22.9338 65.2936 23.2083 65.1995 23.3575 64.7633C23.5191 64.2908 23.1964 63.7679 23.2714 63.5516C23.3361 63.365 24.5302 62.1967 23.4225 61.54C23.5771 61.325 23.8954 61.1455 23.9512 60.7464C24.0898 59.7562 22.2452 59.4038 21.5069 59.3089L19.1671 59.0501L16.0621 58.7417L15.9311 59.9595Z" fill="#484949"/>
<path fill-rule="evenodd" clip-rule="evenodd" d="M34.3753 64.0865L34.0246 64.6687C34.0165 64.6805 34.0053 64.6971 33.9972 64.7084C33.9032 64.8387 33.9876 64.7385 33.9064 64.822L33.1025 66.6003C32.7876 67.6872 32.5449 68.7086 33.9844 68.7124L34.0471 69.1777C34.0471 68.9861 34.0228 68.8367 34.1128 68.6949C34.1128 69.4462 34.1086 71.2726 35.0372 71.3154C35.34 71.3293 35.6318 71.0524 35.8193 70.9268C36.1594 71.1759 36.2973 72.0567 37.7886 71.058C38.0723 71.1241 38.9985 71.9103 39.7043 70.8073C40.0817 70.2174 39.6227 70.5136 40.4661 70.3221C42.4816 69.8644 41.5173 65.9721 41.1897 64.6373C41.0992 64.2683 40.8355 63.6455 40.8082 63.3076C39.2645 64.1643 36.3583 64.3335 34.3753 64.0865Z" fill="#484949"/>
<path fill-rule="evenodd" clip-rule="evenodd" d="M25.645 76.1559L26.4984 81.5158C27.423 81.446 33.1284 80.9371 33.522 80.7655C33.522 80.3304 33.5223 79.8952 33.522 79.46C33.5218 78.9568 33.5778 78.6183 33.5899 78.2149C33.6059 77.6789 33.6011 75.9368 33.7191 75.6196C32.0617 76.1475 31.9978 76.322 29.9138 76.4456C27.8651 76.567 27.4857 76.427 25.645 76.1559Z" fill="#00AEEF"/>
<path fill-rule="evenodd" clip-rule="evenodd" d="M14.6535 80.7731C14.8009 80.8717 21.1324 81.5198 21.6405 81.4796C21.6672 81.191 21.7398 80.9211 21.7773 80.5817C21.8104 80.282 21.86 79.9769 21.9123 79.6663C21.9594 79.3862 22.1565 77.9755 22.231 77.8192C22.2546 77.4559 22.1013 76.3668 21.9651 76.1094C20.3555 76.3405 20.129 76.6298 18.0302 76.5985C15.957 76.5677 15.7984 76.2106 14.4199 75.8462C14.4199 76.2902 14.4881 76.5291 14.4841 77.0328L14.6535 80.7731Z" fill="#00AEEF"/>
<path fill-rule="evenodd" clip-rule="evenodd" d="M21.9654 76.109C22.1016 76.3664 22.255 77.4555 22.2314 77.8188C22.2404 77.833 22.2479 77.8408 22.2504 77.8656L23.145 83.2072C23.3245 84.1066 23.4248 84.9735 23.5722 85.9308L23.9285 88.3298C23.9406 88.4118 23.9346 88.4224 23.959 88.503C24.0189 88.7008 23.9093 88.5133 24.0293 88.6499C24.2323 88.5203 26.033 89.2433 26.4985 89.2841C26.4715 89.0064 26.3923 88.6701 26.339 88.3497L23.9531 74.0116L23.9483 74.2517L21.6089 73.5908L21.9654 76.109Z" fill="#9E9E9F"/>
<path fill-rule="evenodd" clip-rule="evenodd" d="M12.1624 27.2532C11.9919 27.6843 11.8222 30.633 11.8645 31.1982C12.9166 31.263 19.0926 31.4345 19.7793 31.3225L19.7797 27.1629C18.9641 26.9271 13.3889 27.1819 12.1624 27.2532Z" fill="#F9D6BA"/>
<path fill-rule="evenodd" clip-rule="evenodd" d="M28.7601 27.7785L28.7495 31.3147C29.6386 31.4447 35.4806 31.1941 36.8214 31.1479C36.8492 30.5977 36.6434 27.7398 36.4761 27.3359C35.5462 27.1598 34.3624 27.313 33.3883 27.252C32.3909 27.1896 31.4211 27.0824 30.3774 27.1171C30.5453 27.35 30.6184 27.3261 30.8272 27.5367L28.7601 27.7785Z" fill="#F9D6BA"/>
<path fill-rule="evenodd" clip-rule="evenodd" d="M20.7057 36.5434C21.9988 36.6 26.6772 36.6098 27.8793 36.512L27.8574 32.2266L20.6861 32.2344C20.6047 32.6248 20.6023 36.2704 20.7057 36.5434Z" fill="#F9D6BA"/>
<path fill-rule="evenodd" clip-rule="evenodd" d="M28.6904 41.5481C29.4041 41.5238 35.3658 41.0279 35.7085 40.62C35.9635 40.3167 36.5737 37.4374 36.6046 36.7876C35.3315 36.8958 34.0785 37.0685 32.7828 37.1591C32.2401 37.197 29.0017 37.3084 28.8264 37.3978L28.6904 41.5481Z" fill="#F9D6BA"/>
<path fill-rule="evenodd" clip-rule="evenodd" d="M19.8654 41.5851C19.7181 40.2154 19.8098 38.8051 19.7819 37.4096C18.747 37.2406 17.0257 37.2879 15.8858 37.2133C14.6531 37.1327 13.3918 36.9805 12.1479 36.8892C12.2025 37.718 12.4559 38.777 12.6601 39.5387C13.039 40.9518 12.9467 40.9194 13.5506 41.0068C15.2358 41.2508 18.2642 41.6937 19.8654 41.5851Z" fill="#F9D6BA"/>
<path fill-rule="evenodd" clip-rule="evenodd" d="M9.05957 50.643C9.50357 50.9063 11.3848 50.8297 11.9774 50.7526C12.9117 50.6311 13.6815 50.3683 14.4107 49.9763C15.5799 49.3478 16.905 47.9755 17.3963 46.5052C16.8331 46.2597 16.128 46.0825 15.5413 45.8479C15.0107 45.6357 14.3021 45.2473 13.8293 45.1143C13.5872 45.2748 13.2884 45.4204 13.0207 45.5677C12.2682 45.982 11.2071 47.0173 10.6682 47.6789C10.1589 48.304 9.10697 49.9763 9.05957 50.643Z" fill="#00376A"/>
<path fill-rule="evenodd" clip-rule="evenodd" d="M21.6506 39.6754C21.7335 39.5832 21.8052 39.4967 21.9691 39.3899C23.1293 40.175 24.4435 40.8901 26.0095 40.1103C26.7031 39.765 26.8225 39.4668 27.1105 39.3518C27.2505 39.5049 27.2747 39.4819 27.3687 39.6809C26.958 40.2919 25.6906 40.9518 24.5284 40.9174C23.5373 40.888 21.995 40.2205 21.6506 39.6754ZM20.6558 37.431C20.6558 38.6859 20.551 40.4336 20.7592 41.6141C21.3715 41.7397 27.3574 41.7324 27.7121 41.576C27.8391 41.4481 27.7355 41.7005 27.8288 41.3394C27.919 40.9898 27.8838 37.6557 27.8686 37.4194L20.6558 37.431Z" fill="#F9D6BA"/>
<path fill-rule="evenodd" clip-rule="evenodd" d="M30.9697 46.39C31.0421 46.9702 31.769 48.1207 32.0494 48.5056C32.4835 49.1016 33.0641 49.6359 33.7126 50.0589C34.8277 50.7864 37.4402 51.5124 39.0364 50.951L38.6997 49.9948C38.5886 49.7232 38.3962 49.3276 38.2464 49.0696C37.6624 48.0636 37.5517 48.1228 37.0947 47.5299C36.6482 46.9507 35.5198 46.1117 34.8333 45.7215C34.5485 45.5596 34.2127 45.4601 33.9161 45.2856C33.8948 45.2886 31.0339 46.3495 30.9697 46.39Z" fill="#00376A"/>
<path fill-rule="evenodd" clip-rule="evenodd" d="M27.8706 27.8075C26.6231 27.7321 25.401 27.7682 24.1356 27.6672C23.028 27.5789 21.7013 27.3275 20.6661 27.292L20.6558 31.34L27.8704 31.3561L27.8706 27.8075Z" fill="#F9D6BA"/>
<path fill-rule="evenodd" clip-rule="evenodd" d="M18.3555 96.3305L18.4724 96.4561L19.4605 95.7779C19.6794 96.0248 19.838 96.2923 20.0257 96.5662L20.6066 97.3365C20.4573 96.7541 19.9635 96.1781 19.8455 95.6001L20.9741 95.0824L23.1855 99.6135C22.5768 99.8336 21.4694 100.405 21.1803 100.794C21.4501 100.732 23.1834 99.6788 23.5875 99.4587C23.7752 99.3566 24.2608 99.0893 24.3978 98.9287L23.6042 99.1784L22.0628 94.3722L23.2769 93.9995L24.8573 98.6879C26.4345 97.7199 27.2762 95.7646 27.2227 93.8994C27.2124 93.5437 27.1287 93.2286 27.0777 92.8628C27.0485 92.6538 26.9948 91.9791 26.8923 91.842L24.2666 91.1162C24.2666 92.2421 23.6827 93.2028 22.8327 93.8463C22.5744 94.0419 22.2431 94.1741 21.9563 94.3485L19.2773 95.805C18.9588 95.9691 18.6887 96.1592 18.3555 96.3305Z" fill="#B18046"/>
<path fill-rule="evenodd" clip-rule="evenodd" d="M19.1671 59.05L21.5069 59.3088L20.0619 50.5786C19.8939 49.5591 19.9217 48.4647 18.9311 48.3C18.3921 48.2104 18.0249 48.4733 17.8098 48.7819C17.5015 49.224 17.6362 49.6983 17.7227 50.2196L18.6939 56.0869C18.8461 57.0077 19.0971 58.1371 19.1671 59.05Z" fill="#B18046"/>
<path fill-rule="evenodd" clip-rule="evenodd" d="M16.9718 19.8301C18.0441 19.4727 18.4949 20.9109 17.6026 21.2705C16.4824 21.722 15.9801 20.1607 16.9718 19.8301ZM16.0568 22.4843L15.9444 22.5451C15.6768 22.7019 15.7392 22.6493 15.6677 22.8243C15.7105 23.5024 15.6892 23.3623 16.0976 23.6566L12.5922 23.9759L12.3174 25.9007L13.1863 25.7801C13.6242 25.509 19.3201 25.1012 20.34 25.0078L21.0851 23.4472L16.7436 23.5804C17.2582 23.5451 17.8699 23.4877 18.3761 23.4263C19.1303 23.3347 19.402 23.4249 19.3298 22.5895C19.2393 22.2179 19.0716 22.2954 18.7546 22.1543C18.7638 21.4831 18.5412 20.5851 18.5743 20.0701C18.4869 19.9879 18.5705 20.0756 18.4691 19.9508C18.2946 19.736 18.2119 19.5836 17.9318 19.4301C17.6081 19.2528 17.2568 19.2414 16.8593 19.3009C16.3513 19.53 15.8963 19.8023 15.9037 20.5758C15.9067 20.8887 15.9727 21.3304 16.0081 21.6228C16.0386 21.8744 16.1946 22.3477 16.0568 22.4843Z" fill="#0A2B5B"/>
<path fill-rule="evenodd" clip-rule="evenodd" d="M26.4359 46.4324C26.8746 45.1363 27.5879 44.014 27.6677 42.4931C26.6089 42.4514 25.3587 42.5507 24.2665 42.5578C23.4119 42.5631 21.6095 42.4286 20.8911 42.5383C20.9711 43.5685 21.1408 43.7982 21.4851 44.6275C21.654 45.0343 22.1266 46.2483 22.3354 46.5311C23.6549 46.6322 25.1404 46.6098 26.4359 46.4324Z" fill="#F9D6BA"/>
<path fill-rule="evenodd" clip-rule="evenodd" d="M18.3556 96.3301C18.1813 96.2557 18.3438 96.1856 17.977 96.5365L17.8468 96.6582C17.7016 96.9045 17.3401 97.0542 16.9653 97.1822C17.1035 97.8522 18.7623 100.993 19.0074 101.783L20.2001 101.27L19.336 99.3117C19.5536 99.4651 20.8294 100.736 20.9343 100.925C21.1952 100.901 21.0555 100.967 21.1804 100.794C21.4695 100.405 22.5769 99.8332 23.1856 99.6131L20.9742 95.082L19.8456 95.5997C19.9636 96.1777 20.4574 96.7537 20.6067 97.3361L20.0258 96.5658C19.8381 96.2919 19.6795 96.0244 19.4606 95.7775L18.4725 96.4557L18.3556 96.3301Z" fill="#231815"/>
<path fill-rule="evenodd" clip-rule="evenodd" d="M24.201 22.0326C24.7956 22.0353 25.4155 22.0804 26.0164 22.0885V22.4169L22.3889 22.4166V22.0885C22.9845 22.0803 23.6121 22.0298 24.201 22.0326ZM25.9892 19.66H22.4207H21.1353L20.3924 19.6595L20.4296 16.8688L18.5586 16.9679C18.5586 17.9901 18.6147 19.0905 18.5745 20.0699C18.5414 20.5849 18.7641 21.4829 18.7549 22.1541C19.0719 22.2952 19.2396 22.2177 19.3301 22.5893C19.8847 22.611 20.6225 22.5791 21.186 22.5518C21.678 22.5282 21.6066 22.2989 21.9541 22.3578C22.1654 22.3937 22.0872 22.4433 22.27 22.4996C22.414 22.5441 22.5962 22.5271 22.7546 22.5245L25.7118 22.5313C26.2451 22.5439 26.1095 22.5961 26.5233 22.3593L26.4332 22.0885C26.7497 22.0537 26.5626 22.1715 26.716 21.9284L22.166 21.9435C20.8516 21.9448 21.2834 21.9261 20.5576 21.2687C20.1649 20.9129 19.7908 20.581 19.4168 20.1847C19.581 19.8722 19.745 19.7699 20.2601 19.7745L26.4985 19.7788C26.9153 19.7784 27.3315 19.7778 27.7482 19.7746C28.2776 19.7706 28.3122 19.8138 28.5562 20.1847C28.3017 20.5573 27.9628 20.6308 27.7851 20.9919C28.0124 21.1048 27.9404 20.9556 27.9539 21.3612C27.9574 21.464 27.9435 21.6438 27.9426 21.7597C27.9403 22.0329 27.9423 22.307 27.9423 22.5802L28.8649 22.5925C28.9466 22.1894 29.1217 22.3067 29.4388 22.1541C29.4115 21.3367 29.662 20.5288 29.6858 19.9162C29.7364 18.9846 29.7179 17.9435 29.7179 16.9679C29.4006 16.9569 28.9618 16.975 28.6612 16.8829L28.5337 16.8249L27.3522 16.8105C27.51 16.9678 27.3714 16.8867 27.61 16.9597C27.6568 16.9741 27.821 16.9679 27.8783 16.9679V19.66H25.9892Z" fill="#ACBBD6"/>
<path fill-rule="evenodd" clip-rule="evenodd" d="M34.0532 32.2035C34.8673 32.5419 34.5047 33.1781 35.554 32.5262C35.5045 32.9153 35.3281 33.0581 35.0198 33.1749C35.6402 35.5544 33.7249 36.4689 32.3646 35.9813C30.4675 35.3013 30.8408 32.6928 32.0313 32.2916C31.8999 32.1305 32.0319 32.2283 31.8145 32.1724L28.7502 32.2299L28.7495 36.4575C29.5931 36.6272 35.733 36.0872 36.7321 35.8731C36.8121 34.8649 36.9892 32.9819 36.8463 32.0293C36.6247 32.0197 34.4067 32.0582 34.1435 32.1495L34.0532 32.2035Z" fill="#F9D6BA"/>
<path fill-rule="evenodd" clip-rule="evenodd" d="M16.5678 32.2898C17.778 32.7226 18.1162 35.3109 16.2328 35.9807C14.8736 36.4641 12.9607 35.5606 13.5825 33.172C13.2747 33.0602 13.0945 32.9142 13.0445 32.5271C14.0674 33.1581 13.7216 32.5985 14.5354 32.2004C14.3531 32.0899 12.1771 32.0381 11.8364 32.105C11.7938 32.8017 11.8639 35.3887 12.0349 35.9485C12.6123 36.2191 18.8498 36.594 19.777 36.4986L19.7841 32.2352L17.3739 32.1943C17.2493 32.1917 17.0947 32.1797 16.9762 32.1809C16.9533 32.1811 16.8006 32.1884 16.7842 32.1919L16.6185 32.2583C16.6045 32.2647 16.5828 32.2768 16.5678 32.2898Z" fill="#F9D6BA"/>
<path fill-rule="evenodd" clip-rule="evenodd" d="M20.5322 67.1096L20.5659 67.4691L21.6086 73.5912L23.9481 74.2521L23.9528 74.012C23.924 73.681 23.8576 73.3968 23.8066 73.0932L23.3474 70.2516L22.8988 67.7049L22.5495 65.521C22.1245 65.5988 22.241 65.6487 22.1322 66.0316C22.0682 66.257 21.9215 66.5132 21.8105 66.6335C21.523 66.945 21.0848 67.0086 20.5322 67.1096Z" fill="#B18046"/>
<path fill-rule="evenodd" clip-rule="evenodd" d="M26.7157 21.9284C26.9015 21.7438 27.0469 21.6242 27.2406 21.4524L27.7849 20.992C27.9626 20.6309 28.3014 20.5574 28.5559 20.1848C28.3119 19.8139 28.2773 19.7707 27.7479 19.7747C27.3312 19.7779 26.915 19.7785 26.4982 19.7789L20.2598 19.7746C19.7447 19.77 19.5807 19.8723 19.4165 20.1848C19.7905 20.5811 20.1646 20.913 20.5573 21.2688C21.2831 21.9262 20.8513 21.9449 22.1657 21.9436L26.7157 21.9284Z" fill="#40353A"/>
<path fill-rule="evenodd" clip-rule="evenodd" d="M6.41434 34.7497C7.06394 35.1632 10.1438 35.7822 11.1212 35.8511L10.929 32.034L6.88684 31.8076L6.96536 32.778C6.85816 32.4764 6.74267 32.1544 6.57497 31.9036C6.49807 32.6032 6.29824 34.0647 6.41434 34.7497Z" fill="#F9D6BA"/>
<path fill-rule="evenodd" clip-rule="evenodd" d="M20.9343 100.925C20.8294 100.736 19.5536 99.4651 19.336 99.3117L20.2001 101.27L19.0074 101.783C18.7623 100.993 17.1035 97.8522 16.9653 97.1822C17.3401 97.0542 17.7016 96.9045 17.8468 96.6582L16.5072 97.3668C16.0407 97.6613 15.7456 97.8188 15.4029 98.2974C13.8632 100.447 15.9035 103.103 18.2522 102.394C18.6776 102.266 20.7104 101.176 20.9343 100.925Z" fill="#B18046"/>
<path fill-rule="evenodd" clip-rule="evenodd" d="M28.2289 25.0733C29.5839 25.1239 31.0563 25.2994 32.3641 25.4709C33.0261 25.5576 33.6768 25.6588 34.3244 25.757C34.9059 25.8451 35.7392 26.0603 36.2853 26.0838C36.3638 25.8326 36.0739 24.4447 35.9688 24.1234C35.348 23.8148 28.6146 23.419 27.478 23.451C27.565 23.7614 28.0837 24.8981 28.2289 25.0733Z" fill="#0A2B5B"/>
<path fill-rule="evenodd" clip-rule="evenodd" d="M10.0221 92.3626C9.96688 93.1485 9.34848 95.021 11.3035 95.3769C12.3062 95.5594 15.0283 94.786 15.93 94.4264C17.3066 93.8775 18.444 93.4552 19.5568 92.3424C19.8319 92.0673 20.4373 91.4001 20.5249 91.0068C19.7914 91.7326 19.8701 91.9356 18.5561 92.5854C16.8539 93.4271 14.506 93.5953 12.6282 93.2681C10.9529 92.9761 10.9138 92.6684 10.0221 92.3626Z" fill="#B6B6B6"/>
<path fill-rule="evenodd" clip-rule="evenodd" d="M37.9859 92.3593C37.597 92.4983 37.2417 92.7365 36.7889 92.9028C34.7099 93.6659 31.5456 93.5914 29.5846 92.6522C29.0335 92.3882 28.4383 92.0584 28.045 91.6327C27.9109 91.4876 27.7486 91.3081 27.6143 91.1987C27.681 91.4699 27.8817 91.6889 28.0567 91.8836C28.2608 92.1107 28.3513 92.2545 28.5812 92.4752C29.6629 93.5137 31.6586 94.3455 33.077 94.7405C34.4107 95.1119 37.3939 96.2145 38.0457 94.3553C38.2892 93.6608 38.1116 93.0264 37.9859 92.3593Z" fill="#B6B6B6"/>
<path fill-rule="evenodd" clip-rule="evenodd" d="M7.9775 27.5266C7.7774 28.0209 7.45876 28.4796 7.24406 29.0914C7.05676 29.625 6.81507 30.3455 6.75977 30.9178C7.34177 31.0044 10.5345 31.2266 10.9798 31.1327L11.2143 27.3027L7.9775 27.5266Z" fill="#F9D6BA"/>
<path fill-rule="evenodd" clip-rule="evenodd" d="M39.7376 30.9825C40.7249 30.9195 42.2618 30.8275 43.161 30.5882C43.1583 30.5535 43.1155 30.3171 43.1186 30.2845C43.1389 30.0661 43.0296 30.1797 43.2368 30.0949C42.957 29.751 43.0316 29.6515 42.9248 29.0097C42.868 28.6683 42.7879 28.2756 42.7498 27.8947C42.1837 27.7251 40.8402 27.6342 40.1937 27.5729C39.7165 27.5276 39.2461 27.4907 38.7743 27.4562L37.7175 27.3765C37.328 27.3887 37.5091 27.3342 37.4121 27.4967C37.8016 27.7804 39.674 30.2558 39.7376 30.9825Z" fill="#373435"/>
<path fill-rule="evenodd" clip-rule="evenodd" d="M14.4858 81.6804C14.8294 81.4001 14.8919 81.2126 15.5351 81.218C16.8931 81.2295 18.3587 82.3775 18.9122 82.5878C18.8137 82.9421 18.5366 83.108 18.3645 83.3986C18.4972 83.6714 20.1375 85.5136 21.1813 84.6485C21.1813 83.3971 21.854 81.8662 21.6408 81.4795C21.1327 81.5197 14.8012 80.8715 14.6538 80.7729C14.4091 80.7729 14.4771 80.859 14.4764 81.1603C14.476 81.3281 14.4858 81.5082 14.4858 81.6804Z" fill="#B4B4B5"/>
<path fill-rule="evenodd" clip-rule="evenodd" d="M14.6074 34.8717C15.0308 34.5703 15.414 35.1695 15.0404 35.4452C14.6478 35.7349 14.1975 35.1635 14.6074 34.8717ZM15.4424 32.5372C16.4275 32.123 16.9132 33.6289 16.0286 34.0061C15.0889 34.4068 14.341 33.0003 15.4424 32.5372ZM16.5677 32.2899C16.2017 32.1304 15.0124 32.09 14.5354 32.2005C13.7216 32.5986 14.0673 33.1582 13.0444 32.5272C13.0944 32.9143 13.2746 33.0603 13.5824 33.1721C12.9606 35.5607 14.8735 36.4642 16.2327 35.9808C18.1161 35.311 17.7779 32.7227 16.5677 32.2899Z" fill="#040000"/>
<path fill-rule="evenodd" clip-rule="evenodd" d="M32.181 35.4406C31.9391 34.7277 32.5549 34.6432 32.7728 34.9176C32.8642 35.0327 32.8681 35.2796 32.7355 35.4153C32.5628 35.5922 32.3604 35.5021 32.181 35.4406ZM34.1227 33.5101C33.8058 34.4942 32.2732 34.0701 32.5879 33.0278C32.8892 32.0298 34.448 32.5002 34.1227 33.5101ZM32.0313 32.2913C30.8408 32.6925 30.4675 35.3009 32.3646 35.9809C33.7249 36.4685 35.6402 35.5541 35.0198 33.1746C35.3281 33.0578 35.5044 32.9149 35.5539 32.5258C34.5046 33.1777 34.8673 32.5415 34.0532 32.2031C33.6884 32.103 33.412 32.1306 32.9968 32.1405C32.4035 32.1545 32.4808 32.1417 32.0313 32.2913Z" fill="#040000"/>
<path fill-rule="evenodd" clip-rule="evenodd" d="M8.99191 38.6961L10.6783 40.3372L10.744 40.3848L12.0793 40.7197C11.9751 40.1259 11.7194 39.4227 11.5786 38.7772C11.0039 36.1403 11.9267 36.9737 9.0298 36.3979C8.6638 36.3251 8.30848 36.2503 7.96309 36.1657C7.73589 36.1101 7.19004 35.8655 7.01074 36.0119C7.30124 36.4951 7.64354 37.0036 7.95754 37.4126C8.31084 37.8732 8.69581 38.2606 8.99191 38.6961Z" fill="#F9D6BA"/>
<path fill-rule="evenodd" clip-rule="evenodd" d="M26.4985 81.5159C26.4985 81.8234 26.5521 82.0173 26.6017 82.3108C26.6551 82.6264 26.6713 82.7842 26.7148 83.1168C26.7754 83.5819 26.9348 84.2382 26.9648 84.7115C27.6017 85.5502 29.4963 83.6951 29.6423 83.3986C29.4667 83.1086 29.1954 82.9416 29.0923 82.586C29.5829 82.4054 31.9418 80.693 33.1371 81.3565C33.8492 81.7518 33.3184 82.4844 33.6535 82.7111C33.6535 82.3714 33.6531 82.0316 33.6536 81.6919C33.6539 81.5203 33.6635 81.3283 33.6599 81.1609C33.6529 80.8334 33.7073 80.9081 33.5222 80.7656C33.1286 80.9372 27.4231 81.4461 26.4985 81.5159Z" fill="#B4B4B5"/>
<path fill-rule="evenodd" clip-rule="evenodd" d="M11.1379 63.6252C11.081 63.8966 11.0013 63.9062 10.9409 64.1656C11.1536 64.2676 11.5174 64.3469 11.7437 64.4132C12.0319 64.4977 12.2682 64.5953 12.5337 64.6907C12.4913 64.526 12.9763 63.6102 13.1011 63.3024C13.2963 62.8207 13.4826 62.2589 13.6247 61.7268C13.857 60.8576 14.224 58.9561 14.1047 58.0334C13.9083 57.7989 12.8969 57.3776 12.6149 57.2969C12.7501 59.2396 12.5356 60.6035 11.8309 62.3618C11.7173 62.6455 11.36 63.5169 11.1379 63.6252Z" fill="#FEFEFE"/>
<path fill-rule="evenodd" clip-rule="evenodd" d="M3.52326 21.3014C3.79596 21.3217 8.06027 20.5996 8.25467 20.5129C7.99117 19.9359 4.72596 18.7508 3.85186 18.4771C2.91446 18.1836 1.70128 17.8175 2.31288 19.2931C2.59097 19.9641 3.10047 20.7876 3.52326 21.3014Z" fill="#040000"/>
<path fill-rule="evenodd" clip-rule="evenodd" d="M39.9297 20.5386L44.6981 21.3456C44.801 21.0799 45.1331 20.6393 45.3126 20.3574C45.529 20.0172 45.7175 19.678 45.8812 19.284C46.5004 17.7938 45.2191 18.2077 44.2981 18.4875C43.4423 18.7475 40.0466 20.0184 39.9297 20.5386Z" fill="#040000"/>
<path fill-rule="evenodd" clip-rule="evenodd" d="M40.8793 35.07C40.8588 33.9018 40.46 32.8541 40.1596 31.8481L37.8016 31.9763L37.624 35.7195C38.2003 35.7725 40.2481 35.2396 40.8793 35.07Z" fill="#F9D6BA"/>
<path fill-rule="evenodd" clip-rule="evenodd" d="M22.4204 19.66H25.9889V16.9027C25.4839 16.9013 25.0201 16.989 24.7918 16.7617L22.428 16.779V16.8351L22.4204 19.66Z" fill="#B5C3DA"/>
<path fill-rule="evenodd" clip-rule="evenodd" d="M8.23689 24.6897L6.32439 25.5664C6.16969 25.8561 5.87907 26.5284 5.83057 26.8689C6.96067 26.7517 8.19076 26.6329 9.26986 26.4977L11.3584 26.0882C11.4679 25.725 11.6166 24.6006 11.6723 24.1191C10.5387 24.1768 9.30379 24.52 8.23689 24.6897Z" fill="#0A2B5B"/>
<path fill-rule="evenodd" clip-rule="evenodd" d="M42.325 25.8456L40.6624 24.9548C39.5942 24.656 38.0457 24.3164 36.9043 24.2231L37.2463 26.2483C37.8571 26.547 39.218 26.6158 39.9548 26.6778C40.9083 26.7579 41.8442 26.9219 42.7606 26.9947L42.325 25.8456Z" fill="#0A2B5B"/>
<path fill-rule="evenodd" clip-rule="evenodd" d="M34.7036 86.9615C34.8094 86.6877 34.9778 86.5702 35.3602 86.5555C35.198 86.7209 34.9676 86.8731 34.7036 86.9615ZM32.9715 86.3869C33.1369 86.2002 33.4315 85.6777 33.6806 85.6126C33.8545 85.5672 35.006 85.532 35.2234 85.5454C34.9931 86.0743 34.722 86.1944 34.3208 86.2439C33.9601 86.2883 33.3002 86.4148 32.9715 86.3869ZM32.1945 85.2376C32.3989 84.8375 32.7614 84.4985 33.0069 84.1359L34.0783 84.167C34.0817 84.34 33.9065 84.492 33.8129 84.6073C33.3459 85.1825 33.4912 85.1862 32.9362 85.2119C32.6876 85.2235 32.4432 85.2386 32.1945 85.2376ZM34.638 84.1518C34.7446 83.8103 34.691 83.7018 34.2441 83.7423L33.393 83.7095C33.4612 83.4051 33.7252 83.3977 33.4974 83.1594C33.2305 82.917 33.0171 83.4345 32.7999 83.6615C32.4372 83.6952 30.8009 83.511 30.6316 83.6747C30.121 84.1688 31.8769 84.0711 32.4263 84.104C32.3049 84.6286 31.2384 85.3126 31.5459 85.6342C31.8254 85.8151 32.5243 85.6659 32.9134 85.653C32.7514 86.0603 32.0185 86.5929 32.3066 86.8497C32.5095 87.0384 33.8857 86.709 34.293 86.7029C33.7884 87.4931 33.1747 87.7449 33.4802 88.0354C33.6853 88.2222 34.0873 87.8686 34.3116 87.7327L35.9926 86.7239C36.3196 86.5258 36.7323 86.4382 36.6634 86.0246C36.3485 85.8851 35.8331 86.0621 35.4272 86.0817C35.5836 85.8294 35.9134 85.6093 35.8743 85.2424L35.1024 85.0926C34.7837 85.0809 34.353 85.1353 34.012 85.1401C34.1876 84.7069 34.3008 84.8157 34.559 84.3056C34.567 84.2897 34.5765 84.2707 34.584 84.2559L34.638 84.1518Z" fill="#FDFDFD"/>
<path fill-rule="evenodd" clip-rule="evenodd" d="M30.6399 19.838C31.7075 19.4588 32.2203 20.9559 31.2126 21.293C30.2047 21.6303 29.6031 20.2062 30.6399 19.838ZM30.4374 19.3225C30.2877 19.4443 30.2076 19.4263 30.0322 19.5812C29.8697 19.7247 29.8854 19.7833 29.6858 19.9163C29.662 20.5289 29.4115 21.3367 29.4388 22.1541C29.1217 22.3067 28.9466 22.1894 28.8649 22.5925L28.8394 23.1515C29.2573 23.4505 31.6794 23.6487 32.0136 23.6174C32.5025 23.5717 32.489 23.3138 32.5164 22.8541C32.4353 22.444 32.3962 22.7112 32.1421 22.4664C31.9968 22.2915 32.0605 22.4799 32.0938 22.1946C32.1619 21.612 32.3959 20.6241 32.2179 20.111C31.9865 19.4447 31.3059 19.172 30.4374 19.3225Z" fill="#0A2B5B"/>
<path fill-rule="evenodd" clip-rule="evenodd" d="M13.3026 86.9587C13.0418 86.8785 12.8053 86.7217 12.6476 86.5554C13.0305 86.5705 13.1921 86.6834 13.3026 86.9587ZM15.0367 86.3863C14.6968 86.4152 14.0513 86.2864 13.6826 86.2429C13.2889 86.1965 13.0221 86.0855 12.783 85.5463C14.7798 85.4148 14.5338 85.8385 15.0367 86.3863ZM15.8128 85.2391C15.2465 85.2363 14.7477 85.2816 14.5093 85.0156C14.3995 84.8931 13.9253 84.3329 13.9288 84.1667L15.0008 84.142C15.238 84.4828 15.6259 84.8583 15.8128 85.2391ZM13.7638 83.7393C13.363 83.7096 13.2382 83.8169 13.37 84.1415C13.4885 84.2774 13.456 84.4002 13.6461 84.6306C13.8267 84.8498 13.8739 84.8453 13.996 85.1402C13.6553 85.1347 13.2244 85.081 12.9054 85.0922L12.1324 85.2409C12.0937 85.6189 12.4183 85.833 12.5811 86.0817C12.1682 86.0607 11.6636 85.8866 11.3403 86.023C11.2782 86.4394 11.6865 86.5249 12.0141 86.7246C12.2971 86.8972 12.5478 87.0437 12.8345 87.2161C13.2952 87.4931 14.3103 88.2408 14.5273 88.035C14.7124 87.8533 14.6433 87.8519 14.4953 87.664C14.3966 87.5388 14.3246 87.459 14.2214 87.3386C14.06 87.1504 13.9054 86.9563 13.7144 86.7047C14.3567 86.7163 15.4957 87.0392 15.7015 86.8482C15.9305 86.6401 15.634 86.421 15.4707 86.2213C15.3365 86.0569 15.1601 85.7982 15.0488 85.6699C15.4684 85.6208 17.0294 85.9988 16.3695 85.1936C16.1725 84.9533 15.6793 84.3541 15.5832 84.1083C15.9661 84.088 16.3416 84.0727 16.7161 84.0592C17.1145 84.0448 17.5279 84.1234 17.3994 83.713C17.2157 83.457 15.4474 83.7753 15.2079 83.6609C14.9893 83.4367 14.7781 82.9173 14.5101 83.1588C14.2804 83.3993 14.5464 83.4033 14.614 83.7095L13.7638 83.7393Z" fill="#FDFDFD"/>
<path fill-rule="evenodd" clip-rule="evenodd" d="M12.5339 64.6905C12.939 64.7603 13.3701 64.9253 13.7596 65.0187C13.9776 64.6004 14.2365 64.2685 14.4579 63.7453C14.6621 63.2625 14.8327 62.7764 14.9746 62.227C15.2654 61.1015 15.3833 59.8884 15.3982 58.6636C15.1508 58.5136 14.3506 58.0326 14.1049 58.0332C14.2242 58.9559 13.8572 60.8574 13.6249 61.7266C13.4828 62.2587 13.2964 62.8205 13.1012 63.3022C12.9764 63.61 12.4915 64.5258 12.5339 64.6905Z" fill="#484949"/>
<path fill-rule="evenodd" clip-rule="evenodd" d="M13.6769 42.3066C13.7847 42.3066 13.7639 42.2761 13.7639 42.3722C13.9558 42.4169 15.5984 43.1541 16.3654 43.381C17.0823 43.593 18.6295 43.9974 19.3436 44.0133L19.3414 44.3415L21.1058 46.2566C21.137 46.2043 21.1239 46.2722 21.1397 46.1434C21.1075 45.8415 20.609 44.7898 20.4504 44.4162C19.9005 43.1216 20.2205 43.1911 19.9632 42.4752C18.8424 42.422 17.7216 42.3606 16.6344 42.2618C15.6087 42.1687 14.4729 41.9466 13.4819 41.9053L13.6769 42.3066Z" fill="#F9D6BA"/>
<path fill-rule="evenodd" clip-rule="evenodd" d="M34.507 61.908L34.4727 62.7212L34.4757 63.2716C39.0754 63.6558 39.6831 62.679 40.8087 62.5564C40.8087 62.2878 40.8189 62.0005 40.8108 61.7346C40.8006 61.3958 40.743 61.3516 40.743 60.9731C39.8124 61.3742 38.95 61.6888 37.8655 61.8837C36.4973 62.1296 35.813 62.0197 34.507 61.908Z" fill="#484949"/>
<path fill-rule="evenodd" clip-rule="evenodd" d="M34.7624 60.4896H34.5068V61.9082C35.8128 62.0199 36.4971 62.1297 37.8653 61.8838C38.9498 61.6889 39.8122 61.3744 40.7428 60.9733C40.7428 60.747 40.7376 60.5158 40.7403 60.2905C40.7444 59.9491 40.8022 59.9194 40.8085 59.6362H40.6083C39.9307 60.2216 35.9143 60.9591 34.8896 60.5668C34.7766 60.5235 34.8324 60.5479 34.7624 60.4896Z" fill="#FEFEFE"/>
<path fill-rule="evenodd" clip-rule="evenodd" d="M27.8234 47.1333L25.4946 47.4204L25.8066 47.4142C25.6934 47.6218 25.7892 47.4969 25.6075 47.654L23.9384 49.0801C23.5883 48.9144 22.646 47.7558 22.297 47.4936L22.4766 47.4409L20.3418 47.1656C20.4967 47.3709 20.5549 47.3836 20.7216 47.558C21.5127 48.3857 23.0236 49.7089 23.8936 50.3504C24.3912 50.1288 26.751 48.185 27.3536 47.6246C27.4641 47.5218 27.5024 47.4834 27.5893 47.4055C27.7755 47.2384 27.706 47.3506 27.8234 47.1333Z" fill="#B4B4B5"/>
<path fill-rule="evenodd" clip-rule="evenodd" d="M27.6069 45.8514C27.8588 45.7422 28.3605 45.2259 28.6201 45.0185C28.798 44.8765 28.9335 44.7298 29.109 44.589C29.3253 44.4154 29.4107 44.2398 29.7147 44.2018V43.6194C30.1008 43.6194 30.8844 43.4266 31.2647 43.3314C33.7537 42.7087 34.979 41.8473 35.2321 41.7814C35.0174 41.6055 33.8675 41.9021 33.6033 41.9402C33.0705 42.0172 32.538 42.0876 31.9857 42.1491C27.0245 42.7017 29.1676 41.8122 28.2011 44.2761C28.0241 44.7274 27.7185 45.402 27.6069 45.8514Z" fill="#F9D6BA"/>
<path fill-rule="evenodd" clip-rule="evenodd" d="M26.0271 24.9862L26.8885 24.9895L27.1675 24.9937L26.48 23.4237L22.1004 23.3857C21.9519 23.5822 21.4664 24.6792 21.3979 24.9543C22.1511 24.9387 25.5923 24.8021 26.0271 24.9862Z" fill="#0A2B5B"/>
<path fill-rule="evenodd" clip-rule="evenodd" d="M26.8885 24.9893L26.0271 24.986C25.4239 25.0434 24.3541 24.9494 23.6758 24.9512C22.9368 24.9532 22.0348 25.045 21.3407 25.0134L20.8149 26.1721L27.6993 26.1831C27.6325 25.9098 27.5057 25.7023 27.3987 25.453C27.1898 24.966 27.3388 25.1326 26.8885 24.9893Z" fill="#373435"/>
<path fill-rule="evenodd" clip-rule="evenodd" d="M37.3295 40.2833L38.659 38.9753C39.3257 38.3163 40.0768 37.218 40.5347 36.3985L40.612 36.2271C40.5923 36.0024 40.7161 36.1713 40.5511 36.0879L37.5196 36.6481C37.4357 37.3136 37.3284 37.9769 37.1914 38.6197C37.0801 39.1417 36.7788 40.0096 36.7451 40.4684L37.3295 40.2833Z" fill="#F9D6BA"/>
<path fill-rule="evenodd" clip-rule="evenodd" d="M40.1592 31.8481C40.4596 32.8541 40.8584 33.9018 40.8789 35.07C41.4183 34.8942 42.2664 34.7089 42.5804 34.3492C42.6735 34.0679 43.0251 33.1422 43.0317 32.9193L43.2741 32.0658L43.3422 31.4648L40.1592 31.8481Z" fill="#373435"/>
<path fill-rule="evenodd" clip-rule="evenodd" d="M42.3832 14.942C42.2166 14.571 41.0746 13.4201 40.8342 12.9395C40.4884 13.0122 36.472 15.1892 36.272 15.4145L42.3832 14.942Z" fill="#040000"/>
<path fill-rule="evenodd" clip-rule="evenodd" d="M30.4375 19.3228C31.306 19.1723 31.9866 19.445 32.218 20.1113C32.396 20.6244 32.162 21.6123 32.0939 22.1949C32.0606 22.4802 31.9969 22.2918 32.1422 22.4667C32.4299 22.485 32.5186 22.4003 32.6884 22.1891C32.8027 21.5471 32.729 20.2433 32.729 19.5287C32.729 18.6753 32.729 17.822 32.729 16.9683H30.6337V19.1348C30.6157 19.1472 30.5718 19.2006 30.5595 19.212L30.4375 19.3228Z" fill="#A3B4D1"/>
<path fill-rule="evenodd" clip-rule="evenodd" d="M6.18176 14.4419C6.02536 14.6312 5.90932 14.728 5.80762 14.9546L11.9261 15.3943C11.7328 15.2043 7.64473 12.9934 7.39613 12.96L6.18176 14.4419Z" fill="#040000"/>
<path fill-rule="evenodd" clip-rule="evenodd" d="M24.398 98.9287C24.4952 98.9255 24.5437 98.9347 24.6575 98.8889C24.9542 98.7695 24.7928 98.8745 24.8574 98.6879L23.2771 93.9995L22.063 94.3722L23.6044 99.1784L24.398 98.9287Z" fill="#231815"/>
<path fill-rule="evenodd" clip-rule="evenodd" d="M36.2854 26.0837C35.7393 26.0602 34.906 25.845 34.3245 25.7569C33.6769 25.6587 33.0262 25.5575 32.3642 25.4708C31.0564 25.2993 29.584 25.1238 28.229 25.0732C28.2836 25.4099 28.5511 25.9576 28.7204 26.2075L36.3774 26.4124L36.2854 26.0837Z" fill="#373435"/>
<path fill-rule="evenodd" clip-rule="evenodd" d="M24.2666 91.1162L26.8923 91.842C26.8923 91.402 26.7613 90.9561 26.6949 90.5543C26.6315 90.1705 26.5267 89.6737 26.4984 89.2845C26.0329 89.2437 24.2322 88.5207 24.0292 88.6503C23.9816 88.9696 24.1064 89.5325 24.1632 89.8694C24.2453 90.3553 24.2666 90.5531 24.2666 91.1162Z" fill="#17418C"/>
<path fill-rule="evenodd" clip-rule="evenodd" d="M6.7595 30.918C6.8148 30.3457 7.0565 29.6252 7.2438 29.0916C7.4585 28.4798 7.77713 28.0212 7.97723 27.5269C7.50913 27.5305 5.90111 27.6901 5.53411 27.8371C5.35461 28.5288 5.11293 30.0045 5.19763 30.7203L6.7595 30.918Z" fill="#373435"/>
<path fill-rule="evenodd" clip-rule="evenodd" d="M13.1865 25.7801C13.5856 25.7355 13.7431 25.9046 14.1204 26.0012C14.4493 26.0855 14.7674 26.1582 15.0753 26.2476L19.8013 26.193C19.9941 25.9837 20.2678 25.3559 20.3403 25.0078C19.3204 25.1012 13.6244 25.509 13.1865 25.7801Z" fill="#373435"/>
<path fill-rule="evenodd" clip-rule="evenodd" d="M15.7326 22.3567C15.5072 21.9909 15.6098 20.1961 15.6098 19.6595C15.6098 18.7625 15.6098 17.8655 15.6098 16.9683L16.8469 16.9679H18.5583L20.4294 16.8688L21.1677 16.9022C21.5872 16.9022 22.0314 16.9466 22.428 16.835V16.779C18.2493 16.7474 12.3677 17.0219 8.22844 16.7211C7.63794 16.6782 6.83977 16.5904 6.29688 16.607C6.86107 16.6299 7.71592 16.8181 8.37492 16.9009C10.687 17.1914 12.8581 17.3546 15.2083 17.3675C15.2886 18.1446 15.2266 19.2417 15.2266 20.0534C15.2266 20.9902 15.0198 21.9716 15.7326 22.3567Z" fill="#98AACB"/>
<path fill-rule="evenodd" clip-rule="evenodd" d="M13.8947 66.2607C14.9218 66.4379 16.0469 66.77 17.1272 66.9696C18.016 67.1338 19.6964 67.4783 20.5658 67.4689L20.5322 67.1094C17.9645 66.9946 15.9266 65.4265 15.279 65.2661C14.7227 65.1283 14.645 65.2716 14.565 65.0396C14.3186 65.1462 14.1477 65.0439 13.829 65.0112C13.829 65.4856 13.8013 65.8752 13.8947 66.2607Z" fill="#71C2F4"/>
<path fill-rule="evenodd" clip-rule="evenodd" d="M25.9891 19.66H27.8782V16.968C27.8209 16.968 27.6567 16.9742 27.6099 16.9598C27.3713 16.8868 27.5099 16.9679 27.3521 16.8106L24.792 16.7617C25.0203 16.989 25.4841 16.9013 25.9891 16.9027V19.66Z" fill="#B1BFD9"/>
<path fill-rule="evenodd" clip-rule="evenodd" d="M34.4724 62.7214C34.4341 62.8477 34.3755 63.8724 34.3755 64.0865C36.3585 64.3335 39.2648 64.1644 40.8085 63.3077V62.5566C39.6829 62.6792 39.0752 63.656 34.4755 63.2718L34.4724 62.7214Z" fill="#FDFDFD"/>
<path fill-rule="evenodd" clip-rule="evenodd" d="M28.5337 16.8249L28.6612 16.8829C28.9618 16.975 29.4006 16.957 29.7179 16.968H30.6337H32.7289C32.7289 17.8217 32.7289 18.675 32.7289 19.5284C32.7289 20.243 32.8027 21.5468 32.6884 22.1888C33.1134 21.777 32.9658 20.7329 32.9658 19.9222C32.9658 19.1096 32.9281 18.2019 32.9739 17.401L37.5702 17.1458C38.3105 17.0772 39.037 17.0032 39.7544 16.9062C40.3221 16.8293 41.4416 16.612 41.9032 16.6082C41.0195 16.576 39.7491 16.7375 38.7744 16.7681C35.2018 16.88 32.0182 16.7815 28.5337 16.8249Z" fill="#98AACB"/>
<path fill-rule="evenodd" clip-rule="evenodd" d="M15.7325 22.3571C15.7814 22.5044 15.8361 22.4763 16.0568 22.4844C16.1946 22.3478 16.0386 21.8745 16.0081 21.6229C15.9727 21.3305 15.9067 20.8888 15.9037 20.5759C15.8963 19.8024 16.3513 19.5301 16.8592 19.301L16.8468 16.9683L15.6097 16.9686C15.6097 17.8658 15.6097 18.7629 15.6097 19.6599C15.6097 20.1965 15.5071 21.9913 15.7325 22.3571Z" fill="#A3B4D1"/>
<path fill-rule="evenodd" clip-rule="evenodd" d="M16.8596 19.301C17.2571 19.2415 17.6084 19.2529 17.9321 19.4302C18.2122 19.5837 18.2949 19.7361 18.4694 19.9509C18.5708 20.0757 18.4872 19.988 18.5746 20.0702C18.6148 19.0908 18.5587 17.9905 18.5587 16.9683H16.8472L16.8596 19.301Z" fill="#A7B7D4"/>
<path fill-rule="evenodd" clip-rule="evenodd" d="M39.7376 30.9824C39.674 30.2557 37.8016 27.7803 37.4121 27.4966L37.7326 31.0959L39.7376 30.9824Z" fill="#F9D6BA"/>
<path fill-rule="evenodd" clip-rule="evenodd" d="M13.7598 65.0187L13.8294 65.0112C14.1481 65.0439 14.319 65.1462 14.5654 65.0396C15.2716 63.7498 15.8959 61.7811 15.931 59.9596L16.0027 58.7573L15.3983 58.6636C15.3834 59.8884 15.2656 61.1015 14.9748 62.227C14.8329 62.7764 14.6623 63.2625 14.458 63.7453C14.2366 64.2685 13.9778 64.6004 13.7598 65.0187Z" fill="#FEFEFE"/>
<path fill-rule="evenodd" clip-rule="evenodd" d="M20.6659 27.292C21.7011 27.3275 23.0279 27.5789 24.1355 27.6672C25.4009 27.7682 26.623 27.7321 27.8705 27.8075L27.8811 27.0783L20.7216 27.0454C20.6218 27.2175 20.6709 27.0371 20.6659 27.292Z" fill="#373435"/>
<path fill-rule="evenodd" clip-rule="evenodd" d="M21.1353 19.6599H22.4206L22.4282 16.835C22.0316 16.9466 21.5874 16.9021 21.1679 16.9021L21.1353 19.6599Z" fill="#B1BFD9"/>
<path fill-rule="evenodd" clip-rule="evenodd" d="M18.0156 44.3871L18.2216 44.6129C18.5473 45.0585 18.8678 45.6005 19.2812 45.9729C19.2132 46.0741 19.3758 46.0709 19.1825 46.0513L21.2966 46.4296C21.2274 46.1591 21.3116 46.2688 21.1395 46.1435C21.1237 46.2723 21.1368 46.2043 21.1056 46.2566L19.3412 44.3415C19.0895 44.2183 17.1894 44.1954 16.9146 44.3245C17.2355 44.3243 17.8003 44.2505 18.0156 44.3871Z" fill="#B4B4B5"/>
<path fill-rule="evenodd" clip-rule="evenodd" d="M25.4945 47.4203L22.4766 47.4408L22.2969 47.4935C22.6459 47.7557 23.5883 48.9143 23.9384 49.08L25.6074 47.6538C25.7891 47.4967 25.6934 47.6217 25.8066 47.4141L25.4945 47.4203Z" fill="#F9D6BA"/>
<path fill-rule="evenodd" clip-rule="evenodd" d="M6.41408 34.7496C6.29798 34.0646 6.49781 32.6031 6.57471 31.9035C6.74241 32.1543 6.8579 32.4763 6.9651 32.7779L6.88658 31.8075L5.22314 31.625C5.28264 32.222 5.43946 32.9264 5.54166 33.485C5.69536 34.3247 5.55618 34.5414 6.41408 34.7496Z" fill="#373435"/>
<path fill-rule="evenodd" clip-rule="evenodd" d="M21.6504 39.6752C21.9948 40.2203 23.5371 40.8877 24.5282 40.9171C25.6904 40.9515 26.9578 40.2917 27.3685 39.6807C27.2745 39.4817 27.2503 39.5047 27.1103 39.3516C26.8223 39.4666 26.7029 39.7648 26.0093 40.1101C24.4433 40.8899 23.1291 40.1747 21.9689 39.3896C21.805 39.4964 21.7333 39.583 21.6504 39.6752Z" fill="#B23532"/>
<path fill-rule="evenodd" clip-rule="evenodd" d="M27.6071 45.8512L27.4478 46.3083L29.2499 45.9311C29.4053 45.6568 29.6747 45.4804 29.9092 45.2577C30.1133 45.0636 30.4399 44.8972 30.4662 44.5605L30.4756 44.3654C30.4764 44.3402 30.4942 44.3383 30.5027 44.3226L30.8306 44.3734L30.3556 44.2246C30.1452 44.1998 29.9304 44.2124 29.7148 44.2017C29.4108 44.2397 29.3255 44.4152 29.1092 44.5888C28.9337 44.7296 28.7982 44.8764 28.6203 45.0184C28.3607 45.2258 27.859 45.742 27.6071 45.8512Z" fill="#B2B3B3"/>
<path fill-rule="evenodd" clip-rule="evenodd" d="M29.6855 19.9166C29.8851 19.7836 29.8694 19.725 30.0319 19.5815C30.2073 19.4266 30.2874 19.4446 30.4371 19.3228L30.5591 19.212C30.5714 19.2006 30.6154 19.1472 30.6334 19.1348V16.9683H29.7176C29.7176 17.9439 29.7361 18.985 29.6855 19.9166Z" fill="#A7B7D4"/>
<path fill-rule="evenodd" clip-rule="evenodd" d="M15.2129 44.604C15.3984 44.9819 16.5922 45.3062 17.1394 45.4967C17.8043 45.7283 17.66 45.6737 17.7593 45.5611L18.0153 44.3869C17.8 44.2503 17.2352 44.3241 16.9143 44.3243C16.5425 44.3618 16.3647 44.3657 16.0232 44.435C15.749 44.4907 15.4814 44.5808 15.2129 44.604Z" fill="#17418C"/>
<path fill-rule="evenodd" clip-rule="evenodd" d="M21.135 19.6603L21.1676 16.9025L20.4293 16.8691L20.3921 19.6598L21.135 19.6603Z" fill="#ADBCD6"/>
<path fill-rule="evenodd" clip-rule="evenodd" d="M34.1226 33.5102C34.4479 32.5003 32.889 32.0299 32.5877 33.0279C32.273 34.0702 33.8057 34.4943 34.1226 33.5102Z" fill="#FEFEFE"/>
<path fill-rule="evenodd" clip-rule="evenodd" d="M15.4425 32.5373C14.3411 33.0004 15.089 34.4069 16.0288 34.0062C16.9134 33.629 16.4276 32.1231 15.4425 32.5373Z" fill="#FEFEFE"/>
<path fill-rule="evenodd" clip-rule="evenodd" d="M6.47762 36.4645C7.06652 37.2386 7.54718 37.7239 8.20168 38.3504C8.47538 38.6124 8.5359 38.882 8.9923 38.696C8.6962 38.2605 8.31123 37.8731 7.95793 37.4125C7.64393 37.0035 7.30163 36.495 7.01113 36.0118C6.89163 35.918 6.8375 35.8496 6.6623 35.7998L6.40723 35.7261C6.40933 35.8933 6.4164 36.0458 6.4252 36.2037C6.4393 36.4559 6.39442 36.4064 6.47762 36.4645Z" fill="#373435"/>
<path fill-rule="evenodd" clip-rule="evenodd" d="M30.4663 44.5607L30.6434 45.4972C31.0121 45.5138 32.3744 44.9885 32.6107 44.8011L32.5167 44.7594C32.5058 44.7552 32.4823 44.7449 32.4687 44.74C32.455 44.735 32.435 44.7276 32.4197 44.7222C32.1257 44.6197 31.0332 44.3489 30.8308 44.3736L30.5028 44.3228C30.4943 44.3385 30.4765 44.3404 30.4757 44.3656L30.4663 44.5607Z" fill="#17418C"/>
<path fill-rule="evenodd" clip-rule="evenodd" d="M26.7159 21.9286C26.5625 22.1717 26.7496 22.0539 26.4331 22.0887L26.5232 22.3595C26.9549 22.3131 26.8523 22.455 27.1071 22.536C27.3251 22.6053 27.7025 22.5761 27.9422 22.5804C27.9422 22.3072 27.9402 22.0332 27.9425 21.76C27.9434 21.6441 27.9573 21.4643 27.9538 21.3615C27.9403 20.9559 28.0124 21.1051 27.7851 20.9922L27.2408 21.4526C27.0471 21.6244 26.9017 21.744 26.7159 21.9286Z" fill="#ADBCD6"/>
<path fill-rule="evenodd" clip-rule="evenodd" d="M22.3887 22.0887V22.4168L26.0162 22.4172V22.0887C25.4153 22.0806 24.7954 22.0355 24.2008 22.0328C23.6119 22.03 22.9843 22.0805 22.3887 22.0887Z" fill="#B5C3DA"/>
<path fill-rule="evenodd" clip-rule="evenodd" d="M30.6453 20.9948C30.3202 20.9143 30.2405 20.1176 30.7635 20.0692L31.3289 20.2809C31.5005 20.5765 31.2865 20.8256 31.1077 21.0465L30.6453 20.9948ZM30.64 19.8379C29.6032 20.2061 30.2048 21.6302 31.2127 21.2929C32.2204 20.9558 31.7076 19.4587 30.64 19.8379Z" fill="#343844"/>
<path fill-rule="evenodd" clip-rule="evenodd" d="M17.0823 21.0614C16.9085 20.7446 16.8445 20.9601 16.8148 20.5842L16.8223 20.3483C16.8689 20.1908 16.9783 20.1058 17.0992 20.0856L17.4874 20.0802C17.907 20.1754 17.9051 20.9241 17.5177 20.9957L17.0823 21.0614ZM16.972 19.83C15.9803 20.1606 16.4826 21.7219 17.6028 21.2704C18.4951 20.9108 18.0443 19.4726 16.972 19.83Z" fill="#343844"/>
<path fill-rule="evenodd" clip-rule="evenodd" d="M15.8127 85.2392C15.6258 84.8584 15.2379 84.4829 15.0007 84.1421L13.9287 84.1668C13.9252 84.333 14.3994 84.8932 14.5092 85.0157C14.7476 85.2817 15.2464 85.2364 15.8127 85.2392Z" fill="#17418C"/>
<path fill-rule="evenodd" clip-rule="evenodd" d="M32.1943 85.2374C32.443 85.2384 32.6875 85.2234 32.9361 85.2118C33.4911 85.1861 33.3458 85.1824 33.8128 84.6072C33.9064 84.4919 34.0816 84.3399 34.0782 84.1669L33.0068 84.1357C32.7613 84.4983 32.3987 84.8373 32.1943 85.2374Z" fill="#17418C"/>
<path fill-rule="evenodd" clip-rule="evenodd" d="M15.0365 86.3866C14.5336 85.8388 14.7795 85.4151 12.7827 85.5466C13.0218 86.0858 13.2886 86.1968 13.6823 86.2432C14.051 86.2867 14.6966 86.4155 15.0365 86.3866Z" fill="#17418C"/>
<path fill-rule="evenodd" clip-rule="evenodd" d="M32.9717 86.3868C33.3004 86.4147 33.9603 86.2883 34.321 86.2439C34.7222 86.1944 34.9933 86.0743 35.2236 85.5454C35.0062 85.532 33.8547 85.5671 33.6807 85.6125C33.4316 85.6776 33.1371 86.2001 32.9717 86.3868Z" fill="#17418C"/>
<path fill-rule="evenodd" clip-rule="evenodd" d="M17.7598 45.5609L17.7686 45.7025L19.1827 46.051C19.376 46.0706 19.2134 46.0737 19.2814 45.9725C18.868 45.6001 18.5475 45.0582 18.2218 44.6126L18.0158 44.3867L17.7598 45.5609Z" fill="#72C2F3"/>
<path fill-rule="evenodd" clip-rule="evenodd" d="M28.76 27.7787L30.8271 27.537C30.6183 27.3264 30.5451 27.3502 30.3772 27.1173L28.7534 27.0771L28.76 27.7787Z" fill="#373435"/>
<path fill-rule="evenodd" clip-rule="evenodd" d="M12.3176 25.9004L12.2192 26.3719L15.0753 26.2473C14.7673 26.1579 14.4492 26.0852 14.1203 26.0009C13.743 25.9043 13.5856 25.7352 13.1865 25.7798L12.3176 25.9004Z" fill="#F6D3B9"/>
<path fill-rule="evenodd" clip-rule="evenodd" d="M17.0824 21.0613L17.5178 20.9956C17.9052 20.924 17.9071 20.1753 17.4875 20.0801L17.0993 20.0855C16.9784 20.1057 16.869 20.1907 16.8224 20.3482L16.8149 20.5841C16.8446 20.96 16.9086 20.7445 17.0824 21.0613Z" fill="#231815"/>
<path fill-rule="evenodd" clip-rule="evenodd" d="M31.1073 21.0466C31.2861 20.8257 31.5001 20.5766 31.3285 20.281L30.763 20.0693C30.24 20.1177 30.3197 20.9144 30.6448 20.9949L31.1073 21.0466Z" fill="#231815"/>
<path fill-rule="evenodd" clip-rule="evenodd" d="M29.25 45.9311C29.6801 45.8397 30.3158 45.7465 30.6434 45.497L30.4663 44.5605C30.44 44.8972 30.1134 45.0636 29.9093 45.2577C29.6748 45.4804 29.4054 45.6568 29.25 45.9311Z" fill="#72C2F3"/>
<path fill-rule="evenodd" clip-rule="evenodd" d="M40.8459 35.9997C41.0033 36.066 40.9179 35.8758 40.9526 36.2017C40.9366 36.2167 40.907 36.2686 40.898 36.2806C40.8886 36.2933 40.8667 36.3229 40.857 36.3359C40.8459 36.3507 40.8256 36.3784 40.8086 36.3986C41.0363 36.494 40.8811 36.2774 40.9445 36.6587C40.9495 36.6891 40.9396 36.9362 40.9396 36.9894C41.3462 36.7171 41.6572 36.1213 41.9243 35.6934L40.8459 35.9997Z" fill="#373435"/>
<path fill-rule="evenodd" clip-rule="evenodd" d="M43.237 30.0947L43.2185 30.1178C43.3401 30.0411 43.3139 29.7094 43.2993 29.5783L43.0251 27.9543L42.75 27.8945C42.7881 28.2754 42.8683 28.6681 42.9251 29.0095C43.0319 29.6513 42.9572 29.7508 43.237 30.0947Z" fill="#373435"/>
<path fill-rule="evenodd" clip-rule="evenodd" d="M32.1809 35.4408C32.3603 35.5023 32.5627 35.5924 32.7354 35.4155C32.868 35.2798 32.8641 35.0329 32.7727 34.9178C32.5548 34.6434 31.939 34.7279 32.1809 35.4408Z" fill="#FDFDFD"/>
<path fill-rule="evenodd" clip-rule="evenodd" d="M14.6075 34.8717C14.1976 35.1635 14.6478 35.7349 15.0404 35.4452C15.414 35.1695 15.0309 34.5703 14.6075 34.8717Z" fill="#FDFDFD"/>
<path fill-rule="evenodd" clip-rule="evenodd" d="M9.27002 26.4973C9.50022 26.5798 10.9839 26.4492 11.3431 26.4241L11.3585 26.0879L9.27002 26.4973Z" fill="#EFCDB3"/>
<path fill-rule="evenodd" clip-rule="evenodd" d="M42.3252 25.8459L41.9453 25.0369C41.3762 25.2917 41.2575 25.0559 40.6626 24.9551L42.3252 25.8459Z" fill="#16408A"/>
<path fill-rule="evenodd" clip-rule="evenodd" d="M6.32422 25.5662L8.23672 24.6895C7.84912 24.7604 7.49131 24.8531 7.10781 24.9525C6.59831 25.0846 6.50492 25.0821 6.32422 25.5662Z" fill="#1C4589"/>
<path fill-rule="evenodd" clip-rule="evenodd" d="M6.47719 36.6297V36.4643C6.39399 36.4062 6.43887 36.4557 6.42477 36.2035C6.41597 36.0456 6.4089 35.8931 6.4068 35.7259L6.66187 35.7996L6.01758 35.5483C6.05108 35.9061 6.19759 36.4381 6.47719 36.6297Z" fill="#696868"/>
<path fill-rule="evenodd" clip-rule="evenodd" d="M40.6119 36.2269L40.5347 36.3983H40.8088C40.8258 36.3781 40.8461 36.3504 40.8572 36.3356C40.8669 36.3226 40.8889 36.2931 40.8983 36.2804C40.9073 36.2684 40.9368 36.2164 40.9528 36.2014C40.9181 35.8755 41.0035 36.0658 40.8461 35.9995C40.8319 36.0104 40.8113 36.0097 40.8048 36.0339L40.6119 36.2269Z" fill="#373435"/>
<path fill-rule="evenodd" clip-rule="evenodd" d="M13.3025 86.959C13.192 86.6837 13.0304 86.5708 12.6475 86.5557C12.8052 86.722 13.0417 86.8788 13.3025 86.959Z" fill="#365A9A"/>
<path fill-rule="evenodd" clip-rule="evenodd" d="M34.7036 86.9612C34.9676 86.8728 35.198 86.7206 35.3602 86.5552C34.9778 86.5699 34.8094 86.6874 34.7036 86.9612Z" fill="#365A9A"/>
<path fill-rule="evenodd" clip-rule="evenodd" d="M43.0317 32.9194C43.1151 32.8745 43.1142 32.8903 43.2081 32.8538C43.2666 32.6228 43.3299 32.3122 43.2742 32.0659L43.0317 32.9194Z" fill="#D5BBA6"/>
<path fill-rule="evenodd" clip-rule="evenodd" d="M43.1614 30.588L43.3477 30.5498C43.3609 30.2916 43.3217 30.246 43.2186 30.1178L43.2371 30.0947C43.0299 30.1795 43.1392 30.0659 43.1189 30.2843C43.1158 30.3169 43.1587 30.5533 43.1614 30.588Z" fill="#E5C5AC"/>
</svg>
