<svg width="65" height="87" viewBox="0 0 65 87" fill="none" xmlns="http://www.w3.org/2000/svg">
<g>
    <path fill-rule="evenodd" clip-rule="evenodd" d="M25.3301 41.7447V48.3087H38.9346V41.7447C38.9346 41.0907 38.7148 40.4523 38.3163 39.9415L33.9766 34.3735H30.2885L25.9503 39.9415C25.5492 40.4523 25.3301 41.0907 25.3301 41.7447V41.7447Z" fill="#2A2B26"/>
    <path fill-rule="evenodd" clip-rule="evenodd" d="M46.6858 53.0544L55.1628 34.6289L40.6513 46.6026V49.2232H23.6116V46.6026L9.09961 34.6289L17.5812 53.0544C17.598 53.09 17.59 53.1309 17.5642 53.1615L21.7542 54.5255C22.1834 54.6685 22.6597 54.5919 23.027 54.3263C23.3924 54.0606 23.6116 53.6316 23.6116 53.182V52.431H40.6513V53.182C40.6513 53.6316 40.8711 54.0606 41.239 54.3263C41.6068 54.5919 42.0821 54.6685 42.5113 54.5255L46.7012 53.1615C46.6757 53.1309 46.6654 53.09 46.6858 53.0544Z" fill="#2A2B26"/>
    <path fill-rule="evenodd" clip-rule="evenodd" d="M39.6717 38.884C40.3053 39.6962 40.6528 40.7128 40.6528 41.7447V44.3754L52.7781 34.3735H36.1562L39.6717 38.884V38.884Z" fill="#2A2B26"/>
    <path fill-rule="evenodd" clip-rule="evenodd" d="M23.613 41.7447C23.613 40.7128 23.9615 39.6962 24.595 38.884L28.1106 34.3735H11.4902L23.613 44.3754V41.7447Z" fill="#2A2B26"/>
    <path fill-rule="evenodd" clip-rule="evenodd" d="M56.6561 49.6775C56.3546 49.6775 56.0788 49.56 55.8692 49.3506C55.6649 49.1514 55.5524 48.8909 55.5422 48.61V47.9561L55.2866 48.0224C54.321 48.2779 53.6465 49.1514 53.6465 50.1475C53.6465 51.1896 54.3925 52.0988 55.4145 52.3032L56.3342 52.3076L58.3372 49.6769H56.6561V49.6775Z" fill="#CDCCC9"/>
    <path fill-rule="evenodd" clip-rule="evenodd" d="M52.6439 50.3466C52.5366 48.7018 53.7374 47.2205 55.3674 46.9752L55.5411 46.9497V34.3222L55.7199 34.1739H55.5411V33.8164L55.3776 34.1739H53.0169L40.6515 44.3751V41.7444C40.6515 40.7125 40.304 39.6959 39.6704 38.8837L35.9966 34.1739H33.8194L38.3164 39.9412C38.7149 40.452 38.9347 41.0905 38.9347 41.7444V48.3085H25.3302V41.7444C25.3302 41.0905 25.5493 40.452 25.9504 39.9412L30.4444 34.1739H28.2666L24.5937 38.8837C23.9603 39.6959 23.6117 40.7125 23.6117 41.7444V44.3751L11.2453 34.1739H8.88977L8.72465 33.8164V34.1739H8.54688L8.72465 34.3222V46.9497L8.89536 46.9752C10.5273 47.2205 11.7271 48.7018 11.6239 50.3466C11.534 51.7973 10.4733 53.0131 9.04502 53.2992L8.73024 53.3605L9.64859 54.5711C10.2504 55.3629 11.1574 55.8124 12.141 55.8124C12.6581 55.8124 13.1736 55.6847 13.6346 55.4344L17.5195 53.34L17.7556 53.202L17.57 53.0284L9.10127 34.6286L23.6117 46.6023V49.4221H40.6515V46.6023L55.163 34.6286L46.6962 53.0233L46.502 53.2072L50.6306 55.4344C51.0906 55.6847 51.6066 55.8124 52.1227 55.8124C53.1089 55.8124 54.0133 55.3629 54.6163 54.5711L55.5359 53.3605L55.2193 53.2992C53.7937 53.0131 52.7308 51.7973 52.6439 50.3466V50.3466Z" fill="#CDCCC9"/>
    <path fill-rule="evenodd" clip-rule="evenodd" d="M23.6133 53.34H40.6552V52.229H23.6133V53.34Z" fill="#CDCCC9"/>
    <path fill-rule="evenodd" clip-rule="evenodd" d="M8.85494 52.3032C9.87637 52.0988 10.6183 51.1896 10.6183 50.1475C10.6183 49.1514 9.94384 48.2779 8.97852 48.0224L8.72562 47.9561V48.61C8.70117 49.2025 8.21218 49.6775 7.61273 49.6775H5.92969L7.92912 52.3082H8.83449L8.85494 52.3038V52.3032Z" fill="#CDCCC9"/>
    <path fill-rule="evenodd" clip-rule="evenodd" d="M58.2249 34.7359C57.8621 34.3732 57.3767 34.1738 56.8657 34.1738H55.3379V48.3696L55.3423 48.6098C55.3527 48.9418 55.4853 49.2534 55.7256 49.4934C55.9708 49.7387 56.303 49.8766 56.6556 49.8766H58.7862V36.0947C58.7862 35.5787 58.587 35.0985 58.2242 34.7359H58.2249Z" fill="#2A2B26"/>
    <path fill-rule="evenodd" clip-rule="evenodd" d="M8.927 34.1738H7.40109C6.88765 34.1738 6.40633 34.3732 6.04253 34.7359C5.68123 35.0985 5.48047 35.5787 5.48047 36.0947V49.8766H7.61318C8.32355 49.8766 8.9024 49.3147 8.927 48.6098V34.1738V34.1738Z" fill="#2A2B26"/>
    <path fill-rule="evenodd" clip-rule="evenodd" d="M2.41406 31.1396L2.84121 34.3732H61.4231L61.8523 31.1396H2.41406V31.1396Z" fill="#00AEEF"/>
    <path fill-rule="evenodd" clip-rule="evenodd" d="M61.0913 21.6485C58.6643 22.7315 56.2678 23.9421 53.9275 25.2242L53.7539 25.3214L54.8219 27.2675C55.057 27.6864 55.4963 27.9469 55.9766 27.9469H57.0241C58.0154 27.9469 58.9197 27.3646 59.3286 26.4553L61.3264 21.5361L61.0913 21.6485V21.6485Z" fill="#2A2B26"/>
    <path fill-rule="evenodd" clip-rule="evenodd" d="M21.5267 2.90685L21.2773 2.9681L23.1945 6.58473L25.4263 5.54783V2.12012L25.1939 2.16105C23.9665 2.35512 22.7315 2.60544 21.5267 2.90685Z" fill="#2A2B26"/>
    <path fill-rule="evenodd" clip-rule="evenodd" d="M12.2083 15.2427C11.8466 15.0027 11.5072 14.7269 11.198 14.4255L11.0505 14.2773L7.24219 18.4098L13.5107 20.3153L16.0708 17.5363L12.2609 15.2786L12.2083 15.2427V15.2427Z" fill="#2A2B26"/>
    <path fill-rule="evenodd" clip-rule="evenodd" d="M53.2162 14.2773L53.068 14.4255C52.7512 14.7319 52.4037 15.013 52.0358 15.2581L48.1934 17.5363L50.7534 20.3153L57.0229 18.4098L53.2162 14.2773Z" fill="#2A2B26"/>
    <path fill-rule="evenodd" clip-rule="evenodd" d="M39.0728 2.16105L38.8379 2.12012V5.54783L41.0708 6.58473L42.9869 2.9681L42.7417 2.90685C41.5307 2.60544 40.2992 2.35512 39.0728 2.16105V2.16105Z" fill="#2A2B26"/>
    <path fill-rule="evenodd" clip-rule="evenodd" d="M3.19647 21.6435L2.93945 21.5361L4.93536 26.4553C5.34408 27.3646 6.24902 27.9469 7.24233 27.9469H8.2919C8.77162 27.9469 9.21216 27.6864 9.44252 27.2675L10.443 25.449L10.9662 25.3469L10.4528 25.0812C8.06302 23.8451 5.65176 22.6905 3.19647 21.6435V21.6435Z" fill="#2A2B26"/>
    <path fill-rule="evenodd" clip-rule="evenodd" d="M60.6358 38.1179L60.9065 38.2966L61.4226 34.3735H57.1816L57.6261 34.5523C57.7999 34.639 57.9531 34.7464 58.081 34.8792C58.4079 35.2009 58.5868 35.6353 58.5868 36.095V49.8769H59.6138C60.3292 49.8769 60.9168 49.2946 60.927 48.5744V44.8096L60.6153 45.0088C60.5694 45.0446 60.5234 45.0701 60.4773 45.0905V42.8786C60.5234 42.8991 60.5694 42.9297 60.6153 42.9603L60.927 43.1597V39.9568L60.6153 40.156C60.5694 40.1867 60.5234 40.2121 60.4773 40.2378V38.0207C60.5285 38.0463 60.5847 38.0769 60.6358 38.1179V38.1179Z" fill="#0A94B0"/>
    <path fill-rule="evenodd" clip-rule="evenodd" d="M63.2117 22.0061C62.7671 21.6843 62.2256 21.5361 61.6788 21.5361H61.3262L59.1496 26.3736C58.7714 27.2063 57.9386 27.7477 57.0239 27.7477H55.9765C55.5677 27.7477 55.1947 27.5282 55.0005 27.1705L53.9274 25.2242L53.7486 25.3214C50.6368 27.0377 47.617 28.9174 44.7045 30.9609L44.168 31.3389H61.7401C63.1351 31.3389 64.2643 30.2048 64.2643 28.8102V24.0646C64.2643 23.2526 63.8862 22.4965 63.2117 22.0061V22.0061Z" fill="#0B798F"/>
    <path fill-rule="evenodd" clip-rule="evenodd" d="M3.35963 38.2966L3.62784 38.1179C3.68204 38.0821 3.73462 38.0513 3.79089 38.0207V40.2378C3.74375 40.2121 3.69677 40.1867 3.64831 40.156L3.33709 39.9568V43.1597L3.64831 42.9603C3.69529 42.9297 3.74184 42.8991 3.79089 42.8786V45.0905C3.74375 45.0701 3.69677 45.0446 3.64831 45.0088L3.33709 44.8096L3.33857 48.5692C3.34004 49.0034 3.55007 49.4019 3.91946 49.6574C4.14643 49.8105 4.41979 49.8769 4.69316 49.8769H5.67926V36.095C5.67926 35.6353 5.85923 35.2009 6.18311 34.8792C6.31434 34.7464 6.46621 34.639 6.63633 34.5523L7.0094 34.3735H2.83984L3.35904 38.2966H3.35963Z" fill="#0A94B0"/>
    <path fill-rule="evenodd" clip-rule="evenodd" d="M50.9694 20.2493L48.3737 17.4346L47.8116 17.7054L47.7093 17.7513L47.6073 17.7974C45.8189 18.5738 43.8464 18.9876 41.8997 18.9876H22.419H22.395H22.3706C20.1837 18.9876 17.9891 18.4716 16.0273 17.501L15.8924 17.4346L13.2988 20.2493L14.8654 20.7243C17.3222 21.3783 19.8561 21.7101 22.3987 21.7101L22.4287 21.716L41.8435 21.7101C44.3933 21.7101 46.9379 21.3783 49.4058 20.7243L50.9694 20.2493V20.2493Z" fill="#0A94B0"/>
    <path fill-rule="evenodd" clip-rule="evenodd" d="M24.5952 9.23047C25.0148 10.1041 25.9049 10.666 26.8736 10.666H37.393C38.3586 10.666 39.2478 10.1041 39.6718 9.23047L41.169 6.41086L39.0433 5.41975V1.51715L38.8697 1.49153C36.647 1.14933 34.3792 0.975586 32.1341 0.975586C29.8889 0.975586 27.6218 1.14933 25.397 1.49153L25.2268 1.51715V5.41975L23.0996 6.41086L24.5672 9.17952L24.5952 9.23047Z" fill="#0B798F"/>
    <path fill-rule="evenodd" clip-rule="evenodd" d="M10.5617 25.1375L10.4253 25.0659L10.266 25.357L9.26899 27.1705C9.07178 27.5282 8.69928 27.7477 8.29262 27.7477H7.24304C6.32691 27.7477 5.49649 27.2114 5.12002 26.3736L2.94017 21.5361H2.58815C2.04097 21.5361 1.49777 21.6843 1.05517 22.0061C0.378678 22.4965 0 23.2526 0 24.0646V28.7591C0 29.3007 0.150238 29.837 0.466613 30.2764C0.959733 30.9558 1.71487 31.3389 2.52834 31.3389H21.0264L20.4695 30.9711C17.2953 28.8665 13.9613 26.9049 10.5617 25.1375V25.1375Z" fill="#0B798F"/>
    <path fill-rule="evenodd" clip-rule="evenodd" d="M59.7365 17.3682C58.684 14.5637 57.2532 11.9279 55.4802 9.52704L55.1327 9.04688L55.1174 9.63939C55.0868 11.3863 54.407 13.0364 53.2012 14.2828L53.0684 14.4206L56.8087 18.4766L59.8133 17.5672L59.7365 17.3682Z" fill="#0A94B0"/>
    <path fill-rule="evenodd" clip-rule="evenodd" d="M9.1478 9.63939L9.13602 9.04688L8.78399 9.52704C7.013 11.9279 5.58329 14.5637 4.53019 17.3682L4.45508 17.5672L7.45692 18.4766L11.1957 14.4206L11.0645 14.2828C9.85949 13.0364 9.17947 11.3863 9.14721 9.63939H9.1478Z" fill="#0A94B0"/>
    <path fill-rule="evenodd" clip-rule="evenodd" d="M59.8129 17.5674L49.3584 20.5303L49.3226 20.5406C46.8904 21.1842 44.3815 21.5112 41.8625 21.5112H22.4533H22.4518H22.3972C19.8807 21.5112 17.3713 21.1842 14.9371 20.5354L4.45402 17.5675L2.93945 18.6046L14.4404 22.119C17.0361 22.8137 19.7135 23.1662 22.3993 23.1714H22.4252H41.842C44.5349 23.1714 47.2226 22.8137 49.8285 22.119L61.3252 18.6046L59.8129 17.5675V17.5674Z" fill="#00679B"/>
    <path fill-rule="evenodd" clip-rule="evenodd" d="M35.8242 29.0098H28.4443L26.4668 31.3392H37.8016L35.8242 29.0098Z" fill="#00679B"/>
    <path fill-rule="evenodd" clip-rule="evenodd" d="M3.89853 37.8522C3.8402 37.8164 3.76717 37.8112 3.70545 37.8419C3.20674 38.0769 2.88477 38.5825 2.88477 39.1292C2.88477 39.6758 3.20674 40.1815 3.70545 40.4165C3.73344 40.4318 3.76156 40.4369 3.79175 40.4369C3.82902 40.4369 3.86627 40.4266 3.89853 40.4063C3.95626 40.3705 3.99207 40.3041 3.99207 40.2377V38.0206C3.99207 37.9544 3.95626 37.8878 3.89853 37.8522Z" fill="#F9F9F9"/>
    <path fill-rule="evenodd" clip-rule="evenodd" d="M3.89853 42.7097C3.8402 42.6688 3.76717 42.6688 3.70545 42.6943C3.20674 42.9293 2.88477 43.4351 2.88477 43.9866C2.88477 44.5334 3.20674 45.039 3.70545 45.274C3.73344 45.2843 3.76156 45.2893 3.79175 45.2893C3.82902 45.2893 3.86627 45.279 3.89853 45.2587C3.95626 45.2229 3.99207 45.1617 3.99207 45.0901V42.8782C3.99207 42.8068 3.95626 42.7454 3.89853 42.7097V42.7097Z" fill="#F9F9F9"/>
    <path fill-rule="evenodd" clip-rule="evenodd" d="M60.3705 40.4063C60.4011 40.4266 60.4369 40.4369 60.4777 40.4369C60.5033 40.4369 60.534 40.431 60.5594 40.4165C61.0602 40.1815 61.3821 39.6758 61.3821 39.1292C61.3821 38.5825 61.0602 38.0769 60.5594 37.8419C60.4982 37.8112 60.4266 37.8164 60.3705 37.8522C60.3092 37.8878 60.2734 37.9544 60.2734 38.0206V40.2377C60.2734 40.3041 60.3092 40.3705 60.3705 40.4063V40.4063Z" fill="#F9F9F9"/>
    <path fill-rule="evenodd" clip-rule="evenodd" d="M60.5594 42.6943C60.4982 42.6688 60.4266 42.6688 60.3705 42.7097C60.3092 42.7454 60.2734 42.8068 60.2734 42.8782V45.0901C60.2734 45.1617 60.3092 45.2229 60.3705 45.2587C60.4011 45.2792 60.4369 45.2893 60.4777 45.2893C60.5033 45.2893 60.534 45.2834 60.5594 45.274C61.0602 45.039 61.3821 44.5334 61.3821 43.9866C61.3821 43.4351 61.0602 42.9293 60.5594 42.6943V42.6943Z" fill="#F9F9F9"/>
    <path fill-rule="evenodd" clip-rule="evenodd" d="M61.131 46.7607H60.7273L60.7229 56.9568C60.5697 64.4812 57.5294 71.5254 52.149 76.7921C46.7736 82.0636 39.6661 84.9651 32.1334 84.9651C24.6017 84.9651 17.4921 82.0636 12.1157 76.7921C6.73878 71.5254 3.69596 64.4812 3.54367 56.9568L3.54072 46.7607H3.13803C2.58158 46.7607 2.12794 47.2154 2.12794 47.7722V56.9261L2.125 56.9671L2.13089 56.9925C2.46391 73.1958 15.9192 86.3801 32.1348 86.3801C48.3488 86.3801 61.8027 73.2009 62.1398 56.9925V47.7722C62.1398 47.2154 61.6851 46.7607 61.1333 46.7607H61.131Z" fill="#CDCCC9"/>
    <path fill-rule="evenodd" clip-rule="evenodd" d="M1.93456 57.0589C1.63675 57.0692 1.35013 57.2018 1.14967 57.4215C0.948924 57.6412 0.844215 57.9426 0.861153 58.2389C0.956152 59.8174 1.17177 61.406 1.50537 62.9589C1.56929 63.2501 1.75267 63.5106 2.00762 63.6689C2.26464 63.8273 2.57939 63.8784 2.87175 63.8017L3.03833 63.7609C2.49101 61.5899 2.18186 59.3422 2.13134 57.0537L1.93456 57.0596V57.0589Z" fill="#ECECEB"/>
    <path fill-rule="evenodd" clip-rule="evenodd" d="M63.1191 57.4215C62.9146 57.2019 62.6286 57.069 62.3321 57.0589L62.133 57.053C62.0819 59.3415 61.7752 61.5892 61.2285 63.7602L61.3972 63.801C61.6883 63.8777 62.0001 63.8266 62.2555 63.6682C62.5161 63.5099 62.695 63.2494 62.7615 62.9581C63.0936 61.4053 63.3082 59.8166 63.4052 58.2382C63.4206 57.9419 63.3183 57.6405 63.1191 57.4208V57.4215Z" fill="#ECECEB"/>
    <path fill-rule="evenodd" clip-rule="evenodd" d="M8.92707 46.9805V48.0072C9.91272 48.2422 10.6188 49.131 10.6188 50.1476C10.6188 51.1948 9.8728 52.104 8.84621 52.3083C8.84032 52.3083 8.83295 52.3083 8.82735 52.3083H3.54297V53.3606H8.41699C10.1114 53.3606 11.5202 52.0376 11.6254 50.3468C11.7286 48.6968 10.5499 47.2409 8.92707 46.9805V46.9805Z" fill="#ECECEB"/>
    <path fill-rule="evenodd" clip-rule="evenodd" d="M55.4403 52.3083C55.4359 52.3083 55.4301 52.3083 55.4199 52.3083C54.3929 52.104 53.6469 51.1948 53.6469 50.1476C53.6469 49.131 54.3571 48.2422 55.3381 48.0072V46.9805C53.7184 47.2409 52.5381 48.6968 52.6454 50.3468C52.7477 52.0376 54.1579 53.3606 55.8492 53.3606H60.7237V52.3083H55.4403V52.3083Z" fill="#ECECEB"/>
    <path fill-rule="evenodd" clip-rule="evenodd" d="M1.92514 53.3605H2.12753V52.3081H1.92514C1.87049 52.3081 1.82042 52.3286 1.78109 52.3695C1.74324 52.4053 1.7207 52.4564 1.7207 52.5125L1.72216 53.1613C1.72216 53.2736 1.81217 53.3605 1.92456 53.3605H1.92514Z" fill="#ECECEB"/>
    <path fill-rule="evenodd" clip-rule="evenodd" d="M62.5424 53.1613V52.5125C62.5424 52.4564 62.5219 52.4053 62.4861 52.3695C62.4453 52.3286 62.3942 52.3081 62.3431 52.3081H62.1387V53.3605H62.3431C62.4555 53.3605 62.5424 53.2736 62.5424 53.1613V53.1613Z" fill="#ECECEB"/>
    <path fill-rule="evenodd" clip-rule="evenodd" d="M24.6607 26.9561C23.7705 26.9561 23.0449 27.6762 23.0449 28.5703C23.0449 29.4591 23.7705 30.1844 24.6607 30.1844C25.5507 30.1844 26.2758 29.4591 26.2758 28.5703C26.2758 27.6762 25.5507 26.9561 24.6607 26.9561Z" fill="#ECECEB"/>
    <path fill-rule="evenodd" clip-rule="evenodd" d="M39.6048 26.9561C38.7158 26.9561 37.9902 27.6762 37.9902 28.5703C37.9902 29.4591 38.7158 30.1844 39.6048 30.1844C40.499 30.1844 41.2247 29.4591 41.2247 28.5703C41.2247 27.6762 40.499 26.9561 39.6048 26.9561Z" fill="#ECECEB"/>
    <path fill-rule="evenodd" clip-rule="evenodd" d="M55.3217 9.31241L55.2809 9.26132C52.3939 5.42498 48.7661 2.33959 44.5148 0.0920286L44.336 0L39.5023 9.12335C39.1189 9.93556 38.2913 10.4617 37.3919 10.4617H26.8725C25.9733 10.4617 25.1451 9.93556 24.7588 9.11304L19.9316 0L19.7538 0.0920286C15.4958 2.33959 11.8736 5.42498 8.98369 9.26132L8.9442 9.31241L8.94274 9.37367C8.89576 11.8256 10.0894 14.0885 12.1434 15.4423L15.8704 17.6489C17.8831 18.6553 20.134 19.1866 22.396 19.1916H41.868L41.8834 19.1871C44.1316 19.1871 46.3849 18.6559 48.4083 17.6445L52.1282 15.4377C54.1771 14.0891 55.3678 11.8262 55.3217 9.37425V9.31301V9.31241Z" fill="#00AEEF"/>
    <path fill-rule="evenodd" clip-rule="evenodd" d="M24.6602 26.9563C25.5502 26.9563 26.2753 27.6765 26.2753 28.5706C26.2753 29.4593 25.5502 30.1847 24.6602 30.1847C23.7681 30.1847 23.0444 29.4593 23.0444 28.5706C23.0444 27.6765 23.7681 26.9563 24.6602 26.9563ZM39.6049 26.9563C40.4991 26.9563 41.2248 27.6765 41.2248 28.5706C41.2248 29.4593 40.4991 30.1847 39.6049 30.1847C38.7159 30.1847 37.9903 29.4593 37.9903 28.5706C37.9903 27.6765 38.7159 26.9563 39.6049 26.9563ZM26.4664 31.3392L28.4137 29.0456C28.4151 29.0456 28.4151 29.0456 28.4166 29.0397C28.4225 29.0353 28.4284 29.0353 28.4335 29.0294C28.4394 29.0235 28.4438 29.0191 28.4489 29.0191C28.4547 29.0147 28.4607 29.0147 28.4673 29.0147C28.4732 29.0147 28.479 29.0088 28.4861 29.0088C28.4876 29.0088 28.4876 29.0088 28.4891 29.0088H35.7764C35.7764 29.0088 35.7764 29.0088 35.7823 29.0088C35.7867 29.0088 35.7926 29.0147 35.7976 29.0147C35.808 29.0147 35.8129 29.0147 35.8181 29.0191C35.8225 29.0191 35.8284 29.0235 35.8334 29.0294C35.8378 29.0353 35.8437 29.0353 35.8488 29.0397C35.8488 29.0456 35.8488 29.0456 35.8488 29.0456L37.8006 31.3392H44.1673C47.1768 29.2142 50.5953 27.0533 53.8296 25.2757C53.8355 25.2757 53.8356 25.2712 53.8356 25.2712C53.84 25.2712 53.9224 25.2251 53.9274 25.2251C56.3546 23.8868 58.8021 22.7273 61.3263 21.5371V18.605L49.8296 22.1194C47.2236 22.8141 44.5359 23.1718 41.8431 23.1718V23.1674C41.8386 23.1674 41.8387 23.1718 41.8387 23.1718H22.431C22.4295 23.1718 22.4295 23.1674 22.4265 23.1674L22.4251 23.1718C19.7303 23.1718 17.043 22.8141 14.4396 22.1194C14.4396 22.1194 14.4396 22.1194 14.4381 22.1194C14.4381 22.1194 14.4381 22.1194 14.4366 22.1194L2.94141 18.605V21.5371C9.11645 24.132 15.3134 27.6158 21.0276 31.3398H26.4674L26.4664 31.3392Z" fill="#00AEEF"/>
</g>
</svg>
