<svg id="fff6315d-c6da-45ff-8f6c-78361a3efe9d" data-name="wrapper-learn-more" xmlns="http://www.w3.org/2000/svg" viewBox="0 0 226.64 127.74"><title>salem-baner-KAZ_03-2</title><path id="faf47530-f7ed-46e0-8248-6764ae20df2d" data-name="background-layer" d="M342,428.77H254.05a20.61,20.61,0,0,1-20.61-20.61h0a20.6,20.6,0,0,1,20.61-20.6H342a20.6,20.6,0,0,1,20.6,20.6h0A20.6,20.6,0,0,1,342,428.77Z" transform="translate(-184.05 -357.09)" style="fill:#1aa6e0;fill-rule:evenodd"/><g id="b56dd21b-1b02-46b6-b8ac-9e52e4c384b7" data-name="text-layer"><path d="M270.65,407.21v.12a3.64,3.64,0,0,1,2.63,1.24,23.88,23.88,0,0,1,1.8,5.07c.09.32.17.58.22.75h-4.47q-1.05-3.9-1.35-4.59a1.65,1.65,0,0,0-1-1,3.44,3.44,0,0,0-.83-.08h-.45a6,6,0,0,1,.16,1.25v4.45h-4.29V400.74h4.29v3.44a7.41,7.41,0,0,1-.2,1.74h.43a1.76,1.76,0,0,0,1.67-.77,19.45,19.45,0,0,0,1.16-3.84c.07-.25.11-.44.14-.57h4.35c-.76,2.56-1.17,3.92-1.22,4.07a3.49,3.49,0,0,1-1.29,1.88A4.44,4.44,0,0,1,270.65,407.21Z" transform="translate(-184.05 -357.09)" style="fill:#fff;fill-rule:evenodd"/><path d="M282.18,400.46a9.27,9.27,0,0,1,3.77.61,3.84,3.84,0,0,1,2,2.13,15.4,15.4,0,0,1,0,8.72,3.82,3.82,0,0,1-2,2.14,12.08,12.08,0,0,1-7.52,0,3.82,3.82,0,0,1-2-2.14,15.4,15.4,0,0,1,0-8.72,3.84,3.84,0,0,1,2-2.13,9.2,9.2,0,0,1,3.75-.61Zm1.47,4a1.78,1.78,0,0,0-2.94,0,13.47,13.47,0,0,0,0,6.27,1.78,1.78,0,0,0,2.94,0,13.47,13.47,0,0,0,0-6.27Z" transform="translate(-184.05 -357.09)" style="fill:#fff;fill-rule:evenodd"/><path d="M290.29,414.39V400.74c1.34-.13,3.27-.2,5.78-.2,2.17,0,3.66.32,4.46,1s1.19,1.87,1.19,3.68-.37,3-1.11,3.64-2.05,1-3.95,1a17.62,17.62,0,0,1-2.08-.12v4.71Zm4.29-7.62H296a1.58,1.58,0,0,0,1.16-.31,1.94,1.94,0,0,0,.3-1.27,2,2,0,0,0-.3-1.3,1.58,1.58,0,0,0-1.16-.32h-1.39Z" transform="translate(-184.05 -357.09)" style="fill:#fff;fill-rule:evenodd"/><path d="M321.44,411.58v5.79h-3.1l-.3-3h-8.23l-.3,3h-3.1v-5.79h1.5a33.67,33.67,0,0,0,1.66-7.81,3.38,3.38,0,0,1,1.06-2.18,3.3,3.3,0,0,1,2.33-.85h6.6v10.84Zm-6.17,0v-8h-.81c-.55,0-.86.31-.91.95a40.5,40.5,0,0,1-.63,4.25,13.44,13.44,0,0,1-1,2.83Z" transform="translate(-184.05 -357.09)" style="fill:#fff;fill-rule:evenodd"/><path d="M332.75,411.18l.2,3a64.92,64.92,0,0,1-7.1.26,3.21,3.21,0,0,1-2.3-.86,3,3,0,0,1-.9-2.25v-7.59a3,3,0,0,1,.9-2.25,3.21,3.21,0,0,1,2.3-.86,64.92,64.92,0,0,1,7.1.26l-.2,3h-5a.84.84,0,0,0-.59.2.65.65,0,0,0-.22.52V406H332v2.85h-5.1v1.64a.64.64,0,0,0,.22.51.8.8,0,0,0,.59.2Z" transform="translate(-184.05 -357.09)" style="fill:#fff;fill-rule:evenodd"/><rect x="95.98" y="48.55" width="4.98" height="3.01" style="fill:#fff"/></g><path d="M323,428.77h-69a20.61,20.61,0,0,1-20.61-20.61h0a20.61,20.61,0,0,1,13.93-19.49" transform="translate(-184.05 -357.09)" style="fill:none;stroke:#1b215d;stroke-linecap:round;stroke-linejoin:round;stroke-width:1.3737000000000001px;fill-rule:evenodd"/><path d="M254.05,387.56H342a20.6,20.6,0,0,1,20.6,20.6h0A20.6,20.6,0,0,1,342,428.77" transform="translate(-184.05 -357.09)" style="fill:none;stroke:#1b215d;stroke-linecap:round;stroke-linejoin:round;stroke-width:1.3745px;fill-rule:evenodd"/><polygon points="196.65 48.52 194.14 47.56 191.93 49.08 192.06 46.39 189.93 44.75 192.53 44.06 193.43 41.52 194.9 43.78 197.59 43.85 195.89 45.94 196.65 48.52" style="fill:none;stroke:#f8aa00;stroke-linecap:round;stroke-linejoin:round;stroke-width:1.044px;fill-rule:evenodd"/><polygon points="36.17 63.87 33.78 64.2 32.69 66.35 31.65 64.17 29.26 63.81 31.01 62.14 30.62 59.76 32.74 60.9 34.89 59.8 34.46 62.17 36.17 63.87" style="fill:none;stroke:#003165;stroke-linecap:round;stroke-linejoin:round;stroke-width:1.044px;fill-rule:evenodd"/><polygon points="157.65 11.91 160.78 15.29 165.17 14.11 162.98 17.55 165.07 21.39 160.84 21.17 158.04 25.09 156.82 19.78 152.7 17.73 156.9 16.29 157.65 11.91" style="fill:none;stroke:#f8aa00;stroke-linecap:round;stroke-linejoin:round;stroke-width:1.0431000000000001px;fill-rule:evenodd"/><polygon points="213.08 22.69 215.74 20.61 218.51 21.93 217.21 19.33 220.17 16.23 216.27 16.79 213.88 13.98 213.5 17.1 210.49 18 213.1 19.59 213.08 22.69" style="fill:none;stroke:#003165;stroke-linecap:round;stroke-linejoin:round;stroke-width:1.0437px;fill-rule:evenodd"/><polygon points="25.66 30.09 28.18 25.57 32.88 25.77 29.48 22.88 31.83 16.73 26.65 19.85 21.6 17.31 22.92 21.94 19.2 25 23.84 25.7 25.66 30.09" style="fill:none;stroke:#003165;stroke-linecap:round;stroke-linejoin:round;stroke-width:1.044px;fill-rule:evenodd"/><polygon points="75.97 118.5 79.35 115.86 82.87 117.53 81.21 114.24 84.98 110.3 80.03 111.01 76.99 107.45 76.51 111.4 72.69 112.55 76 114.57 75.97 118.5" style="fill:none;stroke:#f8aa00;stroke-linecap:round;stroke-linejoin:round;stroke-width:0.8646px;fill-rule:evenodd"/><polygon points="103.68 10.76 103.87 14.17 106.72 15.41 103.87 16.15 103.49 20.48 101.57 16.84 97.58 17.18 100.24 14.66 98.38 11.92 101.63 13.22 103.68 10.76" style="fill:none;stroke:#003165;stroke-linecap:round;stroke-linejoin:round;stroke-width:1.044px;fill-rule:evenodd"/><path d="M308.64,477.55s-1.18-2.39-2.07-8.39-.71-10.67,1.5-11.8a4.87,4.87,0,0,1,3.13-.26,7.14,7.14,0,0,1,6.55-1.76s1.66-2.77,5.86-2.13V444a3.63,3.63,0,0,1,3.63-3.63h0a3.62,3.62,0,0,1,3.63,3.63v14.75a4,4,0,0,1,1.64,3.45c0,5.11.6,12.14-2.64,15.37v1.28a3.32,3.32,0,0,1-3.32,3.32H312a3.32,3.32,0,0,1-3.32-3.32Z" transform="translate(-184.05 -357.09)" style="fill:#f8aa00;fill-rule:evenodd"/><path d="M312,482.15a3.32,3.32,0,0,1-3.32-3.32v-1.28s-1.18-2.39-2.07-8.39-.71-10.67,1.5-11.8a4.87,4.87,0,0,1,3.13-.26,7.14,7.14,0,0,1,6.55-1.76s1.66-2.77,5.86-2.13V444a3.63,3.63,0,0,1,3.63-3.63h0a3.62,3.62,0,0,1,3.63,3.63m0,14.75a4,4,0,0,1,1.64,3.45c0,5.11.6,12.14-2.64,15.37v1.28a3.32,3.32,0,0,1-3.32,3.32" transform="translate(-184.05 -357.09)" style="fill:none;stroke:#1b215d;stroke-linecap:round;stroke-linejoin:round;stroke-width:0.9921000000000001px;fill-rule:evenodd"/><path d="M343.22,445.37h1.35c2.11,0,3.56.29,4.37.88s1.21,1.67,1.21,3.28a4,4,0,0,1-1.17,3.33,6.24,6.24,0,0,1-3.85.92q-3.94,0-6-.15H339V440.15c1.52-.1,3.2-.15,5-.15s3.4.05,5.2.15l-.32,3h-5.66v2.19Zm0,5.48h1.35a1.49,1.49,0,0,0,1.09-.28,2.91,2.91,0,0,0,0-2.36,1.48,1.48,0,0,0-1.09-.29h-1.35Z" transform="translate(-184.05 -357.09)" style="fill:#1b215d;fill-rule:evenodd"/><path d="M369.57,440.15v13.48h-4.24V442.92h-.82c-.65,0-1,.3-1,.9a34.29,34.29,0,0,1-.93,6.6,4.48,4.48,0,0,1-2,2.95,5.35,5.35,0,0,1-3.47.36l-.29-3.29a5.35,5.35,0,0,0,.84-.13,1.57,1.57,0,0,0,.61-.32,1.62,1.62,0,0,0,.46-.7,27.13,27.13,0,0,0,.82-5.76c.14-2.25,1.33-3.38,3.55-3.38Z" transform="translate(-184.05 -357.09)" style="fill:#1b215d;fill-rule:evenodd"/><rect x="167.53" y="83.06" width="4.2" height="13.48" style="fill:#1b215d"/><path d="M375.91,444.62l-.42,4.57h-3.21l-.43-4.57v-4.57h4.06v4.57ZM373.43,450h.92a1.58,1.58,0,0,1,1.11.31,1.56,1.56,0,0,1,.3,1.1v.8a1.15,1.15,0,0,1-1.41,1.41h-.92a1.56,1.56,0,0,1-1.1-.3,1.59,1.59,0,0,1-.3-1.11v-.8a1.16,1.16,0,0,1,1.4-1.41Z" transform="translate(-184.05 -357.09)" style="fill:#1b215d;fill-rule:evenodd"/><polygon points="13.63 86.13 10.09 86.13 10.09 95.83 6.1 95.83 6.1 86.13 2.56 86.13 2.56 83.16 13.63 83.16 13.63 86.13" style="fill:#d0005a;fill-rule:evenodd"/><path d="M204.25,440a8.59,8.59,0,0,1,3.5.56,3.51,3.51,0,0,1,1.83,2,14.2,14.2,0,0,1,0,8.1,3.57,3.57,0,0,1-1.83,2,8.77,8.77,0,0,1-3.5.56,8.67,8.67,0,0,1-3.47-.56,3.57,3.57,0,0,1-1.83-2,14.2,14.2,0,0,1,0-8.1,3.51,3.51,0,0,1,1.83-2,8.5,8.5,0,0,1,3.47-.56Zm1.37,3.68a1.64,1.64,0,0,0-2.73,0,12.62,12.62,0,0,0,0,5.82,1.65,1.65,0,0,0,2.73,0,12.62,12.62,0,0,0,0-5.82Z" transform="translate(-184.05 -357.09)" style="fill:#d0005a;fill-rule:evenodd"/><path d="M222.6,440.25v12.67h-4V442.86h-.77c-.61,0-.93.28-1,.84a33.19,33.19,0,0,1-.88,6.21,4.23,4.23,0,0,1-1.91,2.77,5,5,0,0,1-3.27.33l-.28-3.08a6,6,0,0,0,.8-.13,1.57,1.57,0,0,0,.57-.3,1.38,1.38,0,0,0,.43-.65,25,25,0,0,0,.77-5.42c.14-2.12,1.25-3.18,3.35-3.18Z" transform="translate(-184.05 -357.09)" style="fill:#d0005a;fill-rule:evenodd"/><path d="M228.69,444.6h1c1.92,0,3.25.3,4,.89s1.09,1.71,1.09,3.34a4.39,4.39,0,0,1-1,3.32,4.92,4.92,0,0,1-3.34.92q-3.74,0-5.64-.15h-.11V440.25h4v4.35Zm11.44-4.35v12.67h-4V440.25Zm-11.44,10.06h1c.44,0,.73-.1.86-.31a2.71,2.71,0,0,0,.21-1.32,2.8,2.8,0,0,0-.21-1.35c-.13-.21-.42-.32-.86-.32h-1Z" transform="translate(-184.05 -357.09)" style="fill:#d0005a;fill-rule:evenodd"/><path d="M242.17,452.92v-9.86A2.72,2.72,0,0,1,243,441a2.9,2.9,0,0,1,2.13-.8,47.06,47.06,0,0,1,6.15.26l-.19,2.79h-4.17a.86.86,0,0,0-.56.18.6.6,0,0,0-.21.48v9Z" transform="translate(-184.05 -357.09)" style="fill:#d0005a;fill-rule:evenodd"/><path d="M256.4,444.6h1c1.92,0,3.24.3,4,.89s1.09,1.71,1.09,3.34a4.35,4.35,0,0,1-1,3.32,4.9,4.9,0,0,1-3.34.92c-2.48,0-4.36-.05-5.63-.15h-.11V440.25h4v4.35Zm11.44-4.35v12.67h-4V440.25ZM256.4,450.31h1c.44,0,.73-.1.86-.31a2.87,2.87,0,0,0,.2-1.32,3,3,0,0,0-.2-1.35c-.13-.21-.42-.32-.86-.32h-1Z" transform="translate(-184.05 -357.09)" style="fill:#d0005a;fill-rule:evenodd"/><path d="M269.91,452.92V440.25c1.25-.12,3-.18,5.36-.18q3,0,4.14.9c.74.6,1.11,1.74,1.11,3.41s-.34,2.78-1,3.38a5.68,5.68,0,0,1-3.68.9,17.09,17.09,0,0,1-1.92-.11v4.37Zm4-7.07h1.28a1.5,1.5,0,0,0,1.08-.29,1.76,1.76,0,0,0,.28-1.18,1.81,1.81,0,0,0-.28-1.2,1.45,1.45,0,0,0-1.08-.3H273.9Z" transform="translate(-184.05 -357.09)" style="fill:#d0005a;fill-rule:evenodd"/><path d="M288.27,450.19H284.8l-.64,2.73H280.1l3.29-11.64a1.35,1.35,0,0,1,.49-.74,1.37,1.37,0,0,1,.85-.29h3.62a1.34,1.34,0,0,1,.84.29,1.37,1.37,0,0,1,.5.74L293,452.92h-4.05l-.65-2.73Zm-.64-2.8-.62-2.71a14,14,0,0,1-.22-1.45h-.5c-.07.57-.15,1.06-.22,1.45l-.62,2.71Z" transform="translate(-184.05 -357.09)" style="fill:#d0005a;fill-rule:evenodd"/><path d="M300.9,446.26v.11a3.45,3.45,0,0,1,2.45,1.15,22.25,22.25,0,0,1,1.67,4.7c.08.31.15.54.2.7h-4.15c-.65-2.41-1.07-3.83-1.25-4.26a1.49,1.49,0,0,0-.94-1,3,3,0,0,0-.77-.08h-.42a5.2,5.2,0,0,1,.15,1.16v4.13h-4V440.25h4v3.2a6.4,6.4,0,0,1-.19,1.61h.41a1.62,1.62,0,0,0,1.54-.71,17.9,17.9,0,0,0,1.08-3.57,4.33,4.33,0,0,0,.13-.53h4q-1.07,3.57-1.14,3.78a3.12,3.12,0,0,1-1.19,1.75A4.11,4.11,0,0,1,300.9,446.26Z" transform="translate(-184.05 -357.09)" style="fill:#d0005a;fill-rule:evenodd"/><rect x="56.93" y="87.71" width="7.49" height="2.79" style="fill:#d0005a"/><polygon points="120.24 93.22 121.63 93.22 121.63 98.6 118.75 98.6 118.47 95.83 120.24 93.22" style="fill:#d0005a;fill-rule:evenodd"/></svg>