<svg width="32" height="32" viewBox="0 0 32 32" fill="none" xmlns="http://www.w3.org/2000/svg">
<path d="M32 16C32 24.8366 24.8366 32 16 32C7.16344 32 0 24.8366 0 16C0 7.16344 7.16344 0 16 0C24.8366 0 32 7.16344 32 16Z" fill="#003467"/>
<path d="M17.2375 15.2C17.921 15.8835 17.921 16.9915 17.2375 17.675C16.5541 18.3584 15.446 18.3584 14.7626 17.675C14.0791 16.9915 14.0791 15.8835 14.7626 15.2C15.446 14.5166 16.5541 14.5166 17.2375 15.2Z" fill="#003467"/>
<path d="M21.25 11.6248H20.0408L19.1654 9.87476H12.8338L11.9592 11.6257L10.7518 11.6278C9.78915 11.6295 9.00553 12.414 9.0047 13.377L9 20.3747C9 21.3398 9.78487 22.1252 10.7501 22.1252H21.25C22.2152 22.1252 23 21.3403 23 20.3751V13.3748C23 12.4097 22.2151 11.6248 21.25 11.6248ZM15.9998 19.9376C14.0698 19.9376 12.4997 18.3674 12.4997 16.4374C12.4997 14.5075 14.0698 12.9373 15.9998 12.9373C17.9297 12.9373 19.4999 14.5075 19.4999 16.4374C19.4999 18.3674 17.9297 19.9376 15.9998 19.9376Z" fill="#003467"/>
<g clip-path="url(#clip0)">
<path d="M17.2375 15.2C17.921 15.8835 17.921 16.9915 17.2375 17.675C16.5541 18.3584 15.446 18.3584 14.7626 17.675C14.0791 16.9915 14.0791 15.8835 14.7626 15.2C15.446 14.5166 16.5541 14.5166 17.2375 15.2Z" fill="white"/>
<path d="M21.25 11.6248H20.0408L19.1654 9.87479H12.8338L11.9592 11.6257L10.7518 11.6279C9.78915 11.6296 9.00553 12.414 9.0047 13.3771L9 20.3747C9 21.3399 9.78487 22.1252 10.7501 22.1252H21.25C22.2152 22.1252 23 21.3403 23 20.3751V13.3749C23 12.4097 22.2151 11.6248 21.25 11.6248ZM15.9998 19.9376C14.0698 19.9376 12.4997 18.3674 12.4997 16.4375C12.4997 14.5075 14.0698 12.9374 15.9998 12.9374C17.9297 12.9374 19.4999 14.5075 19.4999 16.4375C19.4999 18.3674 17.9297 19.9376 15.9998 19.9376Z" fill="white"/>
</g>
<defs>
<clipPath id="clip0">
<rect x="9" y="9" width="14" height="14" fill="white"/>
</clipPath>
</defs>
</svg>
