<svg width="38" height="38" viewBox="0 0 38 38" fill="none" xmlns="http://www.w3.org/2000/svg">
<path fill-rule="evenodd" clip-rule="evenodd" d="M18.9542 0.776367C29.1108 0.776367 37.3444 9.00997 37.3444 19.1666C37.3444 29.3233 29.1108 37.5568 18.9542 37.5568C8.79753 37.5568 0.563965 29.3233 0.563965 19.1666C0.563965 9.00997 8.79753 0.776367 18.9542 0.776367Z" fill="#E8F7FE" fill-opacity="0.729412"/>
<path fill-rule="evenodd" clip-rule="evenodd" d="M27.2569 22.2735L11.9165 31.1304V21.1669L27.2569 12.3101V22.2735Z" fill="#404341"/>
<path fill-rule="evenodd" clip-rule="evenodd" d="M12.3032 21.3897L26.8706 12.979V22.0504L12.3032 30.4608V21.3897Z" fill="#181918"/>
<path fill-rule="evenodd" clip-rule="evenodd" d="M11.9165 31.13L10.6519 30.44V20.4766L11.9165 21.1666V31.13Z" fill="#4B4F4C"/>
<path fill-rule="evenodd" clip-rule="evenodd" d="M25.9923 11.5957L10.6299 20.4651L11.9166 21.1679L27.2789 12.2986L25.9923 11.5957Z" fill="#6D736E"/>
<path fill-rule="evenodd" clip-rule="evenodd" d="M19.633 16.6872L18.5972 17.285V8.39994L19.633 7.80225V16.6872Z" fill="#222423"/>
<path fill-rule="evenodd" clip-rule="evenodd" d="M18.5971 17.285L17.5615 16.6872V7.80225L18.5971 8.39994V17.285Z" fill="#2E302F"/>
<path fill-rule="evenodd" clip-rule="evenodd" d="M18.5971 7.20264L17.5601 7.80135L18.5971 8.40043L19.6344 7.80135L18.5971 7.20264Z" fill="#444744"/>
<path fill-rule="evenodd" clip-rule="evenodd" d="M12.3032 21.3897V30.4608L26.8706 22.0501L26.8705 12.979L12.3032 21.3897Z" fill="#181918"/>
<path fill-rule="evenodd" clip-rule="evenodd" d="M12.5509 21.533V30.0318L26.6226 21.9072V13.4086L12.5509 21.533ZM12.5137 30.139L12.4766 30.1604V21.4899L26.6971 13.2798V21.9501L12.5137 30.139Z" fill="#999999"/>
<path fill-rule="evenodd" clip-rule="evenodd" d="M14.4945 22.6628C14.4945 22.7352 14.2596 22.93 13.9724 23.0961L13.4701 23.386C13.1828 23.5521 12.9479 23.6283 12.9478 23.5556C12.9478 23.4833 13.1828 23.2884 13.4701 23.1223L13.9724 22.832C14.2596 22.6663 14.4945 22.5902 14.4945 22.6628Z" fill="#E80400"/>
<path fill-rule="evenodd" clip-rule="evenodd" d="M14.4945 24.4819C14.4945 24.5546 14.2595 24.7495 13.9723 24.9153L13.47 25.2054C13.1827 25.3711 12.9478 25.4474 12.9478 25.3751C12.9478 25.3023 13.1827 25.1074 13.47 24.9417L13.9723 24.6515C14.2595 24.4858 14.4945 24.4096 14.4945 24.4819Z" fill="#E80400"/>
<path fill-rule="evenodd" clip-rule="evenodd" d="M12.8935 23.6174C12.9563 23.581 13.0076 23.8227 13.0076 24.1545V24.7344C13.0076 25.0661 12.9563 25.367 12.8935 25.4033C12.8306 25.4396 12.7793 25.198 12.7793 24.8662V24.2863C12.7792 23.9545 12.8306 23.6538 12.8935 23.6174Z" fill="#E80400"/>
<path fill-rule="evenodd" clip-rule="evenodd" d="M14.5492 22.6613C14.6121 22.6249 14.6635 22.8667 14.6635 23.1985V23.7786C14.6635 24.11 14.6121 24.4112 14.5492 24.4476C14.4865 24.4835 14.4351 24.2419 14.4351 23.9105V23.3302C14.4351 22.9984 14.4865 22.6977 14.5492 22.6613Z" fill="#E80400"/>
<path fill-rule="evenodd" clip-rule="evenodd" d="M12.8936 25.4401C12.9563 25.4038 13.0077 25.6454 13.0076 25.9772V26.5571C13.0077 26.8889 12.9563 27.1897 12.8936 27.226C12.8306 27.2624 12.7793 27.0208 12.7793 26.6889V26.109C12.7794 25.7773 12.8306 25.4765 12.8936 25.4401Z" fill="#E80400"/>
<path fill-rule="evenodd" clip-rule="evenodd" d="M14.5493 24.4836C14.6122 24.4473 14.6636 24.6889 14.6636 25.0207V25.6009C14.6636 25.9323 14.6122 26.2332 14.5493 26.2695C14.4866 26.3058 14.4352 26.0643 14.4351 25.7324V25.1525C14.4352 24.8207 14.4866 24.52 14.5493 24.4836Z" fill="#E80400"/>
<path fill-rule="evenodd" clip-rule="evenodd" d="M14.4945 26.3014C14.4945 26.3741 14.2596 26.5691 13.9724 26.7348L13.4699 27.025C13.1827 27.1906 12.9478 27.2669 12.9478 27.1943C12.9478 27.1218 13.1828 26.927 13.4701 26.7609L13.9724 26.4707C14.2596 26.305 14.4945 26.2288 14.4945 26.3014Z" fill="#E80400"/>
<path fill-rule="evenodd" clip-rule="evenodd" d="M16.6567 21.4145C16.6567 21.4873 16.4216 21.6822 16.1344 21.8479L15.6321 22.138C15.3449 22.3038 15.1099 22.38 15.1099 22.3077C15.1099 22.2354 15.3449 22.0401 15.6321 21.8743L16.1344 21.5843C16.4216 21.4185 16.6567 21.3422 16.6567 21.4145Z" fill="#E80400"/>
<path fill-rule="evenodd" clip-rule="evenodd" d="M16.6567 23.2336C16.6567 23.306 16.4216 23.5009 16.1344 23.667L15.6321 23.9571C15.3449 24.1228 15.1099 24.1991 15.1099 24.1268C15.11 24.0541 15.3449 23.8591 15.6321 23.6934L16.1344 23.4032C16.4216 23.2372 16.6567 23.1609 16.6567 23.2336Z" fill="#E80400"/>
<path fill-rule="evenodd" clip-rule="evenodd" d="M15.0556 22.3688C15.1184 22.3328 15.1698 22.5745 15.1698 22.9059V23.4861C15.1698 23.8176 15.1184 24.1187 15.0556 24.1551C14.9928 24.191 14.9414 23.9498 14.9414 23.618V23.0377C14.9414 22.7064 14.9928 22.4052 15.0556 22.3688Z" fill="#E80400"/>
<path fill-rule="evenodd" clip-rule="evenodd" d="M16.7113 21.4128C16.7741 21.3764 16.8254 21.6181 16.8254 21.9496V22.5298C16.8255 22.8616 16.7741 23.1624 16.7113 23.1988C16.6485 23.2351 16.5972 22.9935 16.5972 22.6617V22.0818C16.5972 21.75 16.6484 21.4489 16.7113 21.4128Z" fill="#E80400"/>
<path fill-rule="evenodd" clip-rule="evenodd" d="M15.0551 24.1915C15.1179 24.1555 15.1694 24.3967 15.1693 24.7285V25.3087C15.1694 25.6402 15.1179 25.9413 15.0551 25.9777C14.9923 26.0137 14.9409 25.7721 14.9409 25.4406V24.8604C14.941 24.5286 14.9923 24.2278 15.0551 24.1915Z" fill="#E80400"/>
<path fill-rule="evenodd" clip-rule="evenodd" d="M16.7115 23.2355C16.7743 23.1992 16.8256 23.4408 16.8256 23.7723V24.3525C16.8256 24.6844 16.7743 24.9851 16.7115 25.0215C16.6487 25.0579 16.5973 24.8162 16.5973 24.4844L16.5972 23.9041C16.5973 23.5728 16.6486 23.2716 16.7115 23.2355Z" fill="#E80400"/>
<path fill-rule="evenodd" clip-rule="evenodd" d="M16.6567 25.0527C16.6567 25.1254 16.4216 25.3204 16.1344 25.4861L15.6319 25.7763C15.3448 25.9419 15.1099 26.0186 15.1099 25.9459C15.1099 25.8731 15.3449 25.6783 15.6321 25.5126L16.1344 25.2224C16.4216 25.0566 16.6567 24.9805 16.6567 25.0527Z" fill="#E80400"/>
<path fill-rule="evenodd" clip-rule="evenodd" d="M19.9143 18.1638C19.9143 18.2099 19.7655 18.3331 19.5838 18.4383L19.2659 18.6218C19.0842 18.7266 18.9355 18.7751 18.9355 18.7291C18.9355 18.6831 19.0842 18.5598 19.2659 18.4546L19.5838 18.2711C19.7655 18.1663 19.9143 18.1179 19.9143 18.1638Z" fill="#E80400"/>
<path fill-rule="evenodd" clip-rule="evenodd" d="M19.9143 19.3151C19.9143 19.3611 19.7655 19.4844 19.5838 19.5896L19.2659 19.773C19.0843 19.8779 18.9355 19.9264 18.9355 19.8804C18.9355 19.8344 19.0842 19.7111 19.2659 19.6063L19.5838 19.4224C19.7655 19.3176 19.9143 19.2695 19.9143 19.3151Z" fill="#E80400"/>
<path fill-rule="evenodd" clip-rule="evenodd" d="M18.9008 18.7679C18.9406 18.7451 18.9731 18.898 18.9731 19.108L18.9732 19.475C18.9732 19.6846 18.9406 19.8753 18.9007 19.8981C18.861 19.9212 18.8286 19.768 18.8286 19.5585V19.1913C18.8286 18.9814 18.861 18.7908 18.9008 18.7679Z" fill="#E80400"/>
<path fill-rule="evenodd" clip-rule="evenodd" d="M19.9488 18.1624C19.9885 18.1395 20.021 18.2925 20.021 18.5024L20.0211 18.8695C20.0211 19.0794 19.9886 19.2697 19.9488 19.2929C19.9091 19.3157 19.8765 19.1628 19.8765 18.9529V18.5858C19.8765 18.3758 19.909 18.1855 19.9488 18.1624Z" fill="#E80400"/>
<path fill-rule="evenodd" clip-rule="evenodd" d="M18.9007 19.9212C18.9406 19.8984 18.9731 20.0514 18.9731 20.2613L18.9732 20.628C18.9732 20.8379 18.9406 21.0286 18.9008 21.0514C18.861 21.0742 18.8286 20.9217 18.8286 20.7118V20.3447C18.8286 20.1347 18.861 19.9444 18.9007 19.9212Z" fill="#E80400"/>
<path fill-rule="evenodd" clip-rule="evenodd" d="M19.9488 19.3157C19.9885 19.2929 20.021 19.4458 20.021 19.6558L20.0212 20.0228C20.0211 20.2327 19.9886 20.4231 19.9488 20.4462C19.909 20.469 19.8764 20.3162 19.8765 20.1062L19.8765 19.7391C19.8765 19.5292 19.909 19.3388 19.9488 19.3157Z" fill="#E80400"/>
<path fill-rule="evenodd" clip-rule="evenodd" d="M19.9143 20.4661C19.9143 20.5118 19.7655 20.6354 19.5838 20.7403L19.2659 20.9237C19.0842 21.0285 18.9355 21.077 18.9355 21.031C18.9355 20.9851 19.0842 20.8618 19.2659 20.7569L19.5838 20.5734C19.7655 20.4683 19.9143 20.4202 19.9143 20.4661Z" fill="#E80400"/>
<path fill-rule="evenodd" clip-rule="evenodd" d="M18.6502 23.1958C18.6502 23.2215 18.5671 23.2902 18.4657 23.3487L18.2881 23.4513C18.1866 23.5097 18.1035 23.5368 18.1035 23.5112C18.1035 23.4855 18.1867 23.4168 18.2881 23.358L18.4657 23.2557C18.5672 23.1969 18.6502 23.1702 18.6502 23.1958Z" fill="#E80400"/>
<path fill-rule="evenodd" clip-rule="evenodd" d="M18.6502 23.8382C18.6502 23.8638 18.5671 23.9329 18.4656 23.9914L18.288 24.0941C18.1866 24.1525 18.1035 24.1796 18.1035 24.154C18.1035 24.1282 18.1866 24.0595 18.288 24.0007L18.4656 23.8983C18.5671 23.8396 18.6502 23.8129 18.6502 23.8382Z" fill="#E80400"/>
<path fill-rule="evenodd" clip-rule="evenodd" d="M18.0843 23.533C18.1065 23.5201 18.1245 23.6057 18.1245 23.7226V23.9279C18.1245 24.0452 18.1064 24.1513 18.0843 24.1642C18.0621 24.177 18.0439 24.0915 18.0439 23.9746V23.7693C18.0439 23.652 18.0621 23.5459 18.0843 23.533Z" fill="#E80400"/>
<path fill-rule="evenodd" clip-rule="evenodd" d="M18.6692 23.1951C18.6914 23.1823 18.7095 23.2679 18.7095 23.3848V23.59C18.7095 23.7069 18.6915 23.8135 18.6692 23.8263C18.647 23.8392 18.6289 23.7536 18.6289 23.6364V23.4314C18.6289 23.3141 18.6469 23.208 18.6692 23.1951Z" fill="#E80400"/>
<path fill-rule="evenodd" clip-rule="evenodd" d="M18.0843 24.1771C18.1064 24.1643 18.1245 24.2498 18.1245 24.3671V24.572C18.1245 24.6893 18.1065 24.7955 18.0843 24.8083C18.0621 24.8211 18.0439 24.736 18.0439 24.6187V24.4134C18.0439 24.2965 18.0621 24.1899 18.0843 24.1771Z" fill="#E80400"/>
<path fill-rule="evenodd" clip-rule="evenodd" d="M18.6692 23.8392C18.6915 23.8263 18.7095 23.9119 18.7095 24.0291V24.2341C18.7095 24.3513 18.6915 24.4576 18.6692 24.4704C18.647 24.4832 18.6289 24.3976 18.6289 24.2808V24.0755C18.6289 23.9582 18.647 23.852 18.6692 23.8392Z" fill="#E80400"/>
<path fill-rule="evenodd" clip-rule="evenodd" d="M18.6501 24.4814C18.6501 24.5071 18.5671 24.5762 18.4656 24.6347L18.288 24.7373C18.1865 24.7957 18.1035 24.8229 18.1035 24.7972C18.1034 24.7715 18.1865 24.7027 18.288 24.6439L18.4656 24.5413C18.567 24.4828 18.6501 24.4557 18.6501 24.4814Z" fill="#E80400"/>
<path fill-rule="evenodd" clip-rule="evenodd" d="M19.3685 22.7807C19.3685 22.8064 19.2854 22.8752 19.184 22.934L19.0063 23.0362C18.9048 23.095 18.8218 23.1218 18.8218 23.0965C18.8218 23.0708 18.9049 23.0017 19.0063 22.9433L19.184 22.8406C19.2855 22.7821 19.3685 22.7551 19.3685 22.7807Z" fill="#E80400"/>
<path fill-rule="evenodd" clip-rule="evenodd" d="M19.3685 23.4237C19.3685 23.4494 19.2854 23.5182 19.1839 23.577L19.0063 23.6792C18.9048 23.738 18.8218 23.7648 18.8218 23.7392C18.8218 23.7139 18.9048 23.6447 19.0063 23.5863L19.1839 23.4837C19.2854 23.4252 19.3685 23.3981 19.3685 23.4237Z" fill="#E80400"/>
<path fill-rule="evenodd" clip-rule="evenodd" d="M18.802 23.1179C18.8242 23.1055 18.8423 23.1907 18.8424 23.308V23.5129C18.8424 23.6301 18.8242 23.7363 18.8021 23.7492C18.7799 23.7623 18.7617 23.6768 18.7617 23.5595V23.3546C18.7617 23.2374 18.7798 23.1308 18.802 23.1179Z" fill="#E80400"/>
<path fill-rule="evenodd" clip-rule="evenodd" d="M19.3875 22.78C19.4097 22.7675 19.4279 22.8527 19.4279 22.9699V23.1749C19.4279 23.2921 19.4098 23.3984 19.3875 23.4112C19.3653 23.4241 19.3472 23.3389 19.3472 23.2216V23.0163C19.3472 22.8994 19.3652 22.7928 19.3875 22.78Z" fill="#E80400"/>
<path fill-rule="evenodd" clip-rule="evenodd" d="M18.8021 23.7625C18.8242 23.7497 18.8424 23.8349 18.8424 23.9521V24.1574C18.8424 24.2743 18.8242 24.3809 18.802 24.3937C18.7798 24.4065 18.7617 24.3211 18.7617 24.2038V23.9988C18.7617 23.8816 18.7799 23.7754 18.8021 23.7625Z" fill="#E80400"/>
<path fill-rule="evenodd" clip-rule="evenodd" d="M19.3875 23.4246C19.4098 23.4117 19.4279 23.4969 19.4279 23.6142V23.8195C19.4279 23.9364 19.4098 24.0429 19.3875 24.0558C19.3653 24.0686 19.3472 23.983 19.3472 23.8658V23.6609C19.3472 23.5436 19.3653 23.4374 19.3875 23.4246Z" fill="#E80400"/>
<path fill-rule="evenodd" clip-rule="evenodd" d="M19.3684 24.0668C19.3684 24.0924 19.2854 24.1612 19.1839 24.22L19.0063 24.3225C18.9048 24.3813 18.8218 24.4079 18.8218 24.3822C18.8217 24.3565 18.9048 24.2878 19.0063 24.2293L19.1839 24.1267C19.2853 24.0683 19.3684 24.0411 19.3684 24.0668Z" fill="#E80400"/>
<path fill-rule="evenodd" clip-rule="evenodd" d="M20.2931 22.2471C20.2931 22.2727 20.2101 22.3415 20.1086 22.4L19.931 22.5027C19.8295 22.5611 19.7466 22.5883 19.7466 22.5626C19.7466 22.5368 19.8296 22.4681 19.9311 22.4093L20.1087 22.307C20.2101 22.2482 20.2931 22.2214 20.2931 22.2471Z" fill="#E80400"/>
<path fill-rule="evenodd" clip-rule="evenodd" d="M20.2932 22.89C20.2932 22.9154 20.2101 22.9845 20.1086 23.043L19.931 23.1456C19.8296 23.204 19.7466 23.2312 19.7466 23.2055C19.7466 23.1798 19.8296 23.1111 19.9309 23.0526L20.1086 22.9499C20.2101 22.8911 20.2932 22.8645 20.2932 22.89Z" fill="#E80400"/>
<path fill-rule="evenodd" clip-rule="evenodd" d="M19.7273 22.5843C19.7495 22.5715 19.7677 22.657 19.7677 22.7742V22.9791C19.7677 23.0964 19.7496 23.2026 19.7274 23.2154C19.7052 23.2283 19.687 23.1428 19.687 23.0259V22.8205C19.687 22.7033 19.7051 22.5971 19.7273 22.5843Z" fill="#E80400"/>
<path fill-rule="evenodd" clip-rule="evenodd" d="M20.3124 22.2464C20.3346 22.2336 20.3527 22.3191 20.3527 22.436V22.6413C20.3528 22.7586 20.3346 22.8648 20.3124 22.8776C20.2901 22.8904 20.2721 22.8049 20.272 22.688V22.4827C20.272 22.3654 20.2901 22.2592 20.3124 22.2464Z" fill="#E80400"/>
<path fill-rule="evenodd" clip-rule="evenodd" d="M19.7274 23.2283C19.7496 23.2157 19.7677 23.301 19.7677 23.4183V23.6232C19.7677 23.7405 19.7496 23.8466 19.7274 23.8595C19.7052 23.8723 19.687 23.7871 19.687 23.6698V23.465C19.687 23.3477 19.7052 23.2411 19.7274 23.2283Z" fill="#E80400"/>
<path fill-rule="evenodd" clip-rule="evenodd" d="M20.3124 22.8904C20.3346 22.8776 20.3528 22.9632 20.3527 23.0804V23.2853C20.3527 23.4025 20.3346 23.5088 20.3124 23.5216C20.2901 23.5345 20.272 23.4493 20.272 23.332V23.127C20.2721 23.0098 20.2901 22.9033 20.3124 22.8904Z" fill="#E80400"/>
<path fill-rule="evenodd" clip-rule="evenodd" d="M20.2932 23.5327C20.2932 23.558 20.2101 23.6272 20.1086 23.6856L19.931 23.7883C19.8296 23.8466 19.7466 23.8738 19.7466 23.8482C19.7466 23.8225 19.8295 23.7537 19.9309 23.6949L20.1086 23.5926C20.2101 23.5338 20.2931 23.5071 20.2932 23.5327Z" fill="#E80400"/>
<path fill-rule="evenodd" clip-rule="evenodd" d="M21.0116 21.832C21.0116 21.8576 20.9284 21.9264 20.827 21.9852L20.6495 22.0879C20.548 22.1463 20.4648 22.1734 20.4648 22.1478C20.4648 22.1221 20.548 22.0529 20.6495 21.9945L20.8271 21.8919C20.9285 21.8334 21.0115 21.8063 21.0116 21.832Z" fill="#E80400"/>
<path fill-rule="evenodd" clip-rule="evenodd" d="M21.0117 22.475C21.0117 22.5007 20.9285 22.5695 20.827 22.6283L20.6494 22.7309C20.548 22.7894 20.4648 22.8165 20.4648 22.7908C20.4648 22.7652 20.548 22.696 20.6494 22.6376L20.827 22.5349C20.9285 22.4764 21.0117 22.4493 21.0117 22.475Z" fill="#E80400"/>
<path fill-rule="evenodd" clip-rule="evenodd" d="M20.4455 22.1697C20.4677 22.1569 20.4859 22.242 20.4859 22.3593V22.5642C20.4859 22.6815 20.4677 22.7881 20.4455 22.8009C20.4234 22.8136 20.4053 22.7282 20.4053 22.6109V22.406C20.4053 22.2887 20.4233 22.1825 20.4455 22.1697Z" fill="#E80400"/>
<path fill-rule="evenodd" clip-rule="evenodd" d="M21.0306 21.8319C21.0528 21.819 21.0709 21.9043 21.0709 22.0215V22.2265C21.0709 22.3437 21.0528 22.4502 21.0306 22.463C21.0083 22.4758 20.9902 22.3904 20.9902 22.2732V22.0682C20.9902 21.951 21.0083 21.8448 21.0306 21.8319Z" fill="#E80400"/>
<path fill-rule="evenodd" clip-rule="evenodd" d="M20.4455 22.8138C20.4677 22.801 20.4859 22.8863 20.4859 23.0039V23.2088C20.4859 23.3261 20.4677 23.4322 20.4455 23.4451C20.4233 23.4579 20.4053 23.3724 20.4053 23.2555V23.0501C20.4053 22.933 20.4233 22.8268 20.4455 22.8138Z" fill="#E80400"/>
<path fill-rule="evenodd" clip-rule="evenodd" d="M21.0306 22.4759C21.0528 22.4631 21.071 22.5482 21.0709 22.6655V22.8708C21.0709 22.9877 21.0528 23.0943 21.0306 23.1071C21.0083 23.12 20.9902 23.0344 20.9902 22.9175V22.7122C20.9903 22.5949 21.0083 22.4887 21.0306 22.4759Z" fill="#E80400"/>
<path fill-rule="evenodd" clip-rule="evenodd" d="M21.0116 23.1181C21.0116 23.1438 20.9285 23.2126 20.827 23.2714L20.6494 23.374C20.5479 23.4325 20.4648 23.4596 20.4648 23.434C20.4647 23.4083 20.5479 23.3392 20.6494 23.2807L20.827 23.178C20.9284 23.1196 21.0115 23.0925 21.0116 23.1181Z" fill="#E80400"/>
<path fill-rule="evenodd" clip-rule="evenodd" d="M24.0795 17.1291C24.0796 17.2014 23.8445 17.3964 23.5573 17.5622L23.0549 17.8522C22.7677 18.018 22.5328 18.0946 22.5327 18.0219C22.5327 17.9495 22.7677 17.7542 23.0549 17.5885L23.5573 17.2984C23.8446 17.1327 24.0795 17.0564 24.0795 17.1291Z" fill="#E80400"/>
<path fill-rule="evenodd" clip-rule="evenodd" d="M24.0796 18.9483C24.0795 19.021 23.8445 19.216 23.5573 19.3817L23.0549 19.6718C22.7677 19.8375 22.5327 19.9137 22.5327 19.8413C22.5327 19.7686 22.7676 19.5737 23.0549 19.4079L23.5572 19.1179C23.8445 18.9522 24.0796 18.8759 24.0796 18.9483Z" fill="#E80400"/>
<path fill-rule="evenodd" clip-rule="evenodd" d="M22.4784 18.0837C22.5412 18.0473 22.5925 18.289 22.5925 18.6204V19.2006C22.5926 19.5324 22.5412 19.8333 22.4784 19.8696C22.4155 19.9059 22.3643 19.6643 22.3643 19.3325V18.7523C22.3643 18.4208 22.4155 18.1196 22.4784 18.0837Z" fill="#E80400"/>
<path fill-rule="evenodd" clip-rule="evenodd" d="M24.1341 17.1272C24.197 17.0908 24.2484 17.3324 24.2484 17.6642V18.2444C24.2484 18.5759 24.197 18.877 24.1341 18.9131C24.0715 18.9494 24.0201 18.7078 24.02 18.3763V17.7961C24.02 17.4643 24.0713 17.1635 24.1341 17.1272Z" fill="#E80400"/>
<path fill-rule="evenodd" clip-rule="evenodd" d="M22.4784 19.906C22.5412 19.8696 22.5925 20.1113 22.5925 20.4428V21.0229C22.5925 21.3547 22.5412 21.6556 22.4784 21.6919C22.4155 21.7282 22.3643 21.4867 22.3643 21.1548V20.5746C22.3643 20.2428 22.4155 19.942 22.4784 19.906Z" fill="#E80400"/>
<path fill-rule="evenodd" clip-rule="evenodd" d="M24.134 18.9499C24.197 18.9135 24.2484 19.1552 24.2483 19.4869V20.0671C24.2483 20.3986 24.197 20.6995 24.134 20.7358C24.0713 20.7721 24.02 20.5305 24.02 20.1987V19.6188C24.02 19.287 24.0713 18.9862 24.134 18.9499Z" fill="#E80400"/>
<path fill-rule="evenodd" clip-rule="evenodd" d="M24.0795 20.7678C24.0795 20.8402 23.8445 21.0352 23.5572 21.2012L23.0549 21.4913C22.7676 21.657 22.5327 21.7333 22.5327 21.6606C22.5327 21.5882 22.7677 21.3929 23.0549 21.2272L23.5573 20.9371C23.8446 20.7714 24.0795 20.6951 24.0795 20.7678Z" fill="#E80400"/>
<path fill-rule="evenodd" clip-rule="evenodd" d="M26.2415 15.8805C26.2416 15.9528 26.0065 16.148 25.7194 16.3138L25.2169 16.6038C24.9298 16.7695 24.6948 16.8459 24.6948 16.7735C24.6948 16.7008 24.9298 16.5058 25.2169 16.3402L25.7194 16.05C26.0066 15.8839 26.2415 15.8081 26.2415 15.8805Z" fill="#E80400"/>
<path fill-rule="evenodd" clip-rule="evenodd" d="M26.2415 17.7C26.2415 17.7723 26.0065 17.9673 25.7194 18.133L25.2169 18.4231C24.9298 18.5892 24.6948 18.6655 24.6948 18.5927C24.6948 18.5204 24.9297 18.3254 25.2169 18.1593L25.7194 17.8695C26.0065 17.7034 26.2415 17.6272 26.2415 17.7Z" fill="#E80400"/>
<path fill-rule="evenodd" clip-rule="evenodd" d="M24.6406 16.8351C24.7033 16.7991 24.7547 17.0404 24.7547 17.3721V17.9524C24.7548 18.2838 24.7033 18.5851 24.6406 18.6213C24.5777 18.6573 24.5264 18.4157 24.5264 18.0843V17.5041C24.5264 17.1722 24.5777 16.8715 24.6406 16.8351Z" fill="#E80400"/>
<path fill-rule="evenodd" clip-rule="evenodd" d="M26.2964 15.8791C26.3591 15.8428 26.4104 16.0845 26.4104 16.4159V16.9961C26.4104 17.3279 26.3591 17.6287 26.2964 17.665C26.2335 17.7014 26.1821 17.4597 26.1821 17.128V16.5478C26.1821 16.2163 26.2335 15.9151 26.2964 15.8791Z" fill="#E80400"/>
<path fill-rule="evenodd" clip-rule="evenodd" d="M24.6406 18.6574C24.7033 18.621 24.7547 18.8627 24.7547 19.1946V19.7748C24.7547 20.1061 24.7033 20.4074 24.6406 20.4434C24.5777 20.4797 24.5264 20.2381 24.5264 19.9066V19.3264C24.5264 18.9945 24.5777 18.6938 24.6406 18.6574Z" fill="#E80400"/>
<path fill-rule="evenodd" clip-rule="evenodd" d="M26.2964 17.7013C26.3591 17.6653 26.4105 17.907 26.4104 18.2384V18.8186C26.4105 19.1504 26.3591 19.4513 26.2964 19.4875C26.2335 19.5239 26.1821 19.282 26.1821 18.9505L26.1822 18.3703C26.1822 18.0384 26.2335 17.7377 26.2964 17.7013Z" fill="#E80400"/>
<path fill-rule="evenodd" clip-rule="evenodd" d="M26.2415 19.5191C26.2415 19.5917 26.0065 19.7867 25.7193 19.9525L25.2169 20.2425C24.9297 20.4082 24.6948 20.4846 24.6948 20.4121C24.6948 20.3395 24.9298 20.1445 25.2169 19.9788L25.7194 19.6887C26.0066 19.5226 26.2415 19.4467 26.2415 19.5191Z" fill="#E80400"/>
<path fill-rule="evenodd" clip-rule="evenodd" d="M19.5867 23.1371L19.5078 23.1827V23.0915L19.5867 23.0459V23.1371Z" fill="#E80400"/>
<path fill-rule="evenodd" clip-rule="evenodd" d="M19.5867 23.5556L19.5078 23.6013V23.51L19.5867 23.4644V23.5556Z" fill="#E80400"/>
<path fill-rule="evenodd" clip-rule="evenodd" d="M17.3946 27.2621L17.3203 27.3048L17.3204 18.7523L17.3946 18.7095V27.2621Z" fill="#999999"/>
<path fill-rule="evenodd" clip-rule="evenodd" d="M21.6857 24.7844L21.6113 24.8271L21.6114 16.2746L21.6857 16.2319L21.6857 24.7844Z" fill="#999999"/>
</svg>
