<svg width="38" height="38" viewBox="0 0 38 38" fill="none" xmlns="http://www.w3.org/2000/svg">
<path fill-rule="evenodd" clip-rule="evenodd" d="M18.7828 0.789551C28.9394 0.789551 37.1729 9.02304 37.1729 19.1797C37.1729 29.3363 28.9394 37.5699 18.7828 37.5699C8.62617 37.5699 0.392578 29.3363 0.392578 19.1797C0.392578 9.02304 8.62617 0.789551 18.7828 0.789551Z" fill="#E8F7FE" fill-opacity="0.729412"/>
<path fill-rule="evenodd" clip-rule="evenodd" d="M17.6373 31.0605L17.7146 31.0205L17.6215 31.6699L17.5439 31.7105L17.6373 31.0605Z" fill="#ABABAB"/>
<path fill-rule="evenodd" clip-rule="evenodd" d="M17.5439 31.7105L17.6215 31.6699L19.1416 32.4579L19.0642 32.4985L17.5439 31.7105Z" fill="#ABABAB"/>
<path fill-rule="evenodd" clip-rule="evenodd" d="M19.8302 33.0118L19.7529 33.0517C19.8893 32.9804 19.9738 32.8294 19.9746 32.6144L20.0518 32.5737C20.0514 32.7891 19.9667 32.9404 19.8302 33.0118Z" fill="#ABABAB"/>
<path fill-rule="evenodd" clip-rule="evenodd" d="M19.9761 32.1256L20.0534 32.085L20.0519 32.5741L19.9746 32.6148L19.9761 32.1256Z" fill="#ABABAB"/>
<path fill-rule="evenodd" clip-rule="evenodd" d="M16.9072 30.5406L16.9846 30.5L20.0532 32.085L19.9759 32.1256L16.9072 30.5406Z" fill="#ABABAB"/>
<path fill-rule="evenodd" clip-rule="evenodd" d="M16.8252 31.5308C16.9624 31.7481 17.1545 31.9378 17.3674 32.0482L19.2124 33.0041C19.4252 33.1148 19.6176 33.1238 19.7558 33.0495L16.8252 31.5308Z" fill="#B3B3B3"/>
<path fill-rule="evenodd" clip-rule="evenodd" d="M17.544 31.7108L19.0643 32.4988L18.7935 31.6603L17.6374 31.0608L17.544 31.7108ZM19.7557 33.0498L16.8251 31.531C16.6372 31.1564 16.9054 31.2434 16.9061 31.0298L16.9074 30.5405L19.9761 32.1255L19.9746 32.6147C19.9743 32.828 19.8905 32.9781 19.7557 33.0498Z" fill="#CFCFCF"/>
<path fill-rule="evenodd" clip-rule="evenodd" d="M14.4913 32.2309L14.569 32.1909L14.4753 32.8405L14.3979 32.8807L14.4913 32.2309Z" fill="#ABABAB"/>
<path fill-rule="evenodd" clip-rule="evenodd" d="M14.3979 32.8805L14.4753 32.8403L15.9956 33.6279L15.9184 33.6685L14.3979 32.8805Z" fill="#ABABAB"/>
<path fill-rule="evenodd" clip-rule="evenodd" d="M16.6841 34.1814L16.6064 34.222C16.7429 34.151 16.8276 33.9994 16.8286 33.7847L16.9059 33.7441C16.9052 33.9594 16.8206 34.1107 16.6841 34.1814Z" fill="#ABABAB"/>
<path fill-rule="evenodd" clip-rule="evenodd" d="M16.83 33.2955L16.9073 33.2549L16.906 33.7441L16.8286 33.7847L16.83 33.2955Z" fill="#ABABAB"/>
<path fill-rule="evenodd" clip-rule="evenodd" d="M13.7617 31.7105L13.8391 31.6699L16.9076 33.2549L16.8303 33.2955L13.7617 31.7105Z" fill="#ABABAB"/>
<path fill-rule="evenodd" clip-rule="evenodd" d="M13.6787 32.7012C13.8163 32.9181 14.008 33.1082 14.2212 33.2182L16.0658 34.1748C16.2786 34.2849 16.4711 34.2941 16.6095 34.2202L13.6787 32.7012Z" fill="#B3B3B3"/>
<path fill-rule="evenodd" clip-rule="evenodd" d="M14.398 32.8809L15.9184 33.6689L15.6476 32.8307L14.4913 32.2312L14.398 32.8809ZM16.6099 34.2205L13.6791 32.7015C13.4913 32.3268 13.7593 32.4135 13.7597 32.2001L13.7618 31.7109L16.8304 33.2959L16.829 33.7851C16.828 33.9985 16.7445 34.1485 16.6099 34.2205Z" fill="#CFCFCF"/>
<path fill-rule="evenodd" clip-rule="evenodd" d="M23.4907 5.95574C23.5457 5.83474 23.6002 5.69024 23.6419 5.52384C23.7817 4.96294 24.0859 4.33554 24.1875 4.37244C24.2699 4.40254 24.0988 4.82034 24.0375 4.97714C24.1957 4.64404 24.4295 4.04154 24.5817 4.09404C24.6832 4.12924 24.4114 4.69105 24.2542 5.01195C24.4206 4.68885 24.6654 4.09405 24.813 4.14365C24.9281 4.18235 24.5931 4.89265 24.4659 5.16165C24.5867 4.95085 24.9278 4.32505 25.0276 4.38205C25.1954 4.47705 24.5208 5.57755 24.5208 5.57755C24.5208 5.57755 24.746 5.27435 25.0183 5.19365C25.2097 5.13765 24.9288 5.45565 24.8858 5.52515C24.7991 5.66365 24.6976 5.83905 24.4958 6.05525C24.4167 6.14035 24.3037 6.32814 24.2247 6.47374C24.0575 6.29774 23.8151 6.09714 23.4907 5.95574Z" fill="#FED7AA"/>
<path fill-rule="evenodd" clip-rule="evenodd" d="M17.1721 10.6208C17.4273 10.4286 17.7335 10.2581 18.0585 10.1063C19.1729 9.58587 20.5152 9.28928 20.8266 9.11328C21.1998 8.90238 23.1976 6.45247 23.4201 6.10047L23.4287 6.08357C23.4491 6.04477 23.4699 6.00167 23.491 5.95557C23.8153 6.09697 24.0577 6.29757 24.2249 6.47357L24.2117 6.49758C24.1483 6.59768 22.1385 9.75028 21.761 10.0242C21.3596 10.3149 20.1469 11.0028 19.1558 11.5211C18.7709 11.7227 18.4195 11.899 18.1621 12.0163C17.388 12.3686 17.0167 12.3606 16.7918 12.2333C16.4888 12.0624 16.2144 11.3433 17.1721 10.6208Z" fill="#CFCFCF"/>
<path fill-rule="evenodd" clip-rule="evenodd" d="M16.5403 11.8915L19.2084 9.65479C19.0346 9.71379 18.8563 9.77729 18.6778 9.84559L16.5083 11.6644C16.5076 11.7465 16.5194 11.8227 16.5403 11.8915Z" fill="#2B2B2B"/>
<path fill-rule="evenodd" clip-rule="evenodd" d="M16.9201 12.2867L20.586 9.21355C20.4542 9.25995 20.2862 9.31245 20.0936 9.37195L16.731 12.191C16.7509 12.2074 16.7712 12.2218 16.7917 12.2334C16.8299 12.255 16.8722 12.2732 16.9201 12.2867ZM21.4972 8.44955L24.0512 6.30855C24.0029 6.26715 23.9507 6.22595 23.8945 6.18555L22.2833 7.53635C22.0165 7.85605 21.74 8.17885 21.4972 8.44955Z" fill="#2B2B2B"/>
<path fill-rule="evenodd" clip-rule="evenodd" d="M18.0169 12.0804L23.6642 7.34641C23.8058 7.12901 23.9298 6.93722 24.0238 6.79102L17.5698 12.2014L17.6022 12.2326C17.7244 12.1961 17.8617 12.1461 18.0169 12.0804Z" fill="#2B2B2B"/>
<path fill-rule="evenodd" clip-rule="evenodd" d="M20.2228 10.9448L22.5771 8.97113C22.708 8.78253 22.8451 8.58113 22.9817 8.37793L19.3613 11.4127C19.6442 11.2627 19.9388 11.1028 20.2228 10.9448Z" fill="#2B2B2B"/>
<path fill-rule="evenodd" clip-rule="evenodd" d="M16.4367 10.413C16.4367 10.413 17.306 10.2063 17.7953 10.6532C18.48 11.2791 18.5777 13.1033 18.4365 14.4047C18.295 15.7052 17.9579 18.5827 17.9579 18.5827C17.9579 18.5827 17.0451 20.2275 15.4752 20.2832C13.9369 20.3379 12.7583 18.7811 12.7583 18.7811C12.7583 18.781 12.9678 18.328 12.7889 15.9711C12.6863 14.6188 12.0199 12.4535 13.0428 11.7583C13.7651 11.2669 14.8102 10.8404 14.8102 10.8404L16.0101 11.6856L16.4367 10.413Z" fill="#E8E8E8"/>
<path fill-rule="evenodd" clip-rule="evenodd" d="M17.4132 30.9974C17.2134 30.7853 17.0212 30.5304 16.9282 30.3205C17.0547 30.1135 17.151 30.0297 17.2853 29.9756C17.4349 29.9154 17.6285 29.983 17.7426 30.0959C17.8569 30.2088 18.0459 30.2753 18.2508 30.2616C18.4557 30.2481 18.9808 30.6727 19.1814 30.842C19.3824 31.0115 19.5694 31.2636 19.7317 31.3679C19.8938 31.4722 20.3068 31.7323 20.3921 31.9822C20.3921 31.9822 20.4106 32.0289 20.3924 32.0798C20.3807 32.1127 20.3675 32.155 20.3332 32.1994C20.2388 32.3248 20.021 32.3514 19.7627 32.3619L19.6835 32.3596C19.5727 32.2199 19.2993 31.915 18.9394 31.7851C18.4653 31.6139 17.709 31.3125 17.4132 30.9974Z" fill="#424242"/>
<path fill-rule="evenodd" clip-rule="evenodd" d="M16.9283 30.3203C17.0213 30.5303 17.2135 30.7852 17.4133 30.9973C17.7091 31.3124 18.4654 31.6138 18.9395 31.785C19.2994 31.9149 19.5728 32.2198 19.6837 32.3596C19.4332 32.3346 19.1113 32.1641 18.8792 32.073C18.6219 31.9721 18.1262 31.7526 17.9657 31.6659C17.8054 31.5786 17.6971 31.4801 17.5716 31.4478C17.4458 31.4158 17.1625 31.3304 16.9825 31.2398C16.8018 31.1499 16.7295 31.0015 16.7295 31.0015C16.7294 31.0015 16.7355 30.6572 16.8844 30.3949L16.9283 30.3203Z" fill="#424242"/>
<path fill-rule="evenodd" clip-rule="evenodd" d="M20.3921 31.9821C20.3921 31.9821 20.5362 32.2374 20.3333 32.3964C20.1305 32.5557 19.5126 32.5266 18.985 32.3369C18.985 32.3369 17.0697 31.5668 16.8616 31.4228C16.6538 31.2789 16.5875 31.2136 16.6186 31.139C16.6499 31.0639 16.7298 31.0015 16.7298 31.0015C16.7298 31.0015 16.8021 31.1499 16.9821 31.2398C17.1631 31.3304 17.4461 31.4158 17.5716 31.4478C17.697 31.4801 17.8057 31.5786 17.9661 31.6659C18.1265 31.7526 18.6219 31.9722 18.8792 32.073C19.1369 32.1737 19.5047 32.3727 19.7627 32.3618C20.0218 32.3513 20.2393 32.3247 20.3337 32.1993C20.4281 32.0751 20.3921 31.9821 20.3921 31.9821Z" fill="#282828"/>
<path fill-rule="evenodd" clip-rule="evenodd" d="M19.3485 31.6047C19.104 31.5917 18.1029 30.7825 17.9885 30.7339C17.8737 30.6853 17.759 30.6447 17.7743 30.5871C17.7889 30.5295 17.9287 30.4969 17.9711 30.4137C17.9981 30.3602 18.0188 30.2946 18.0591 30.2505C18.1204 30.2613 18.1846 30.2655 18.2508 30.2614C18.4557 30.2479 18.9808 30.6725 19.1814 30.8418C19.3727 31.0033 19.5521 31.2401 19.7086 31.3521C19.7085 31.352 19.5931 31.6182 19.3485 31.6047Z" fill="#2B2B2B"/>
<path fill-rule="evenodd" clip-rule="evenodd" d="M17.9884 30.7343C18.1028 30.7829 19.1039 31.5921 19.3484 31.6052C19.1156 31.649 18.7896 31.4596 18.317 31.1249C17.8451 30.7906 17.812 30.6514 17.812 30.6514C17.853 30.6799 17.9203 30.7056 17.9884 30.7343Z" fill="#3B3B3B"/>
<path fill-rule="evenodd" clip-rule="evenodd" d="M17.7744 30.5871C17.789 30.5295 17.9288 30.4969 17.9712 30.4137C17.9982 30.3602 18.0189 30.2946 18.0592 30.2505L18.1476 30.2613C18.1444 30.3215 18.1226 30.4316 18.0171 30.4923C17.8674 30.5794 17.8122 30.651 17.8122 30.651L17.7744 30.5871Z" fill="#454545"/>
<path fill-rule="evenodd" clip-rule="evenodd" d="M17.0827 30.1112C17.1465 30.0456 17.2095 30.006 17.285 29.9756C17.4346 29.9154 17.6282 29.983 17.7423 30.0959C17.831 30.1842 17.9661 30.2437 18.118 30.2594L18.0905 30.2555L18.0589 30.2507L18.0461 30.2671L18.0218 30.3051L17.9875 30.378C17.9875 30.378 17.7709 30.2994 17.6446 30.1912C17.5188 30.0833 17.3493 30.0405 17.2816 30.0862C17.2142 30.1333 17.1404 30.2235 17.1777 30.3144C17.2155 30.4052 17.2743 30.5624 17.4562 30.5978C17.6097 30.6276 17.7118 30.6091 17.7773 30.6164C17.813 30.6496 17.8178 30.6443 17.8264 30.6349C17.8438 30.6653 17.7502 30.7201 17.6457 30.7095C17.5256 30.6979 17.3294 30.7079 17.1223 30.4526C17.0281 30.3367 17.0381 30.2139 17.0827 30.1112Z" fill="#3B3B3B"/>
<path fill-rule="evenodd" clip-rule="evenodd" d="M16.9283 30.3203C17.0213 30.5303 17.2135 30.7852 17.4133 30.9973C17.7091 31.3124 18.4654 31.6138 18.9395 31.785C19.2994 31.9149 19.5728 32.2198 19.6837 32.3596C19.4332 32.3346 19.1113 32.1641 18.8792 32.073C18.6219 31.9721 18.1262 31.7526 17.9657 31.6659C17.8054 31.5786 17.6971 31.4801 17.5716 31.4478C17.4458 31.4158 17.1625 31.3304 16.9825 31.2398C16.8018 31.1499 16.7295 31.0015 16.7295 31.0015C16.7294 31.0015 16.7355 30.6572 16.8844 30.3949L16.9283 30.3203Z" fill="#2B2B2B"/>
<path fill-rule="evenodd" clip-rule="evenodd" d="M18.1892 30.2632L18.2505 30.2615C18.4554 30.2481 18.9805 30.6727 19.1811 30.842C19.3724 31.0035 19.5518 31.2403 19.7083 31.3523C19.7082 31.3522 19.5852 31.3545 19.1825 30.9185C18.8732 30.5829 18.1875 30.2636 18.1875 30.2636L18.1892 30.2632Z" fill="#3B3B3B"/>
<path fill-rule="evenodd" clip-rule="evenodd" d="M20.3332 32.1991C20.2388 32.3245 20.021 32.3511 19.7627 32.3616L19.7085 32.361C19.8357 32.3456 20.0739 32.2349 20.1087 32.1668C20.1433 32.0992 20.1943 32.0465 20.3079 32.0376C20.422 32.028 20.3921 31.9819 20.3921 31.9819C20.3992 32.0077 20.4149 32.0919 20.3332 32.1991Z" fill="#282828"/>
<path fill-rule="evenodd" clip-rule="evenodd" d="M19.4785 31.1374L18.9457 31.477L18.9004 31.4423L19.441 31.0981L19.4785 31.1374Z" fill="#1F1F1F"/>
<path fill-rule="evenodd" clip-rule="evenodd" d="M19.0993 30.7739L18.9524 31.4669L18.895 31.4505L19.0575 30.7397L19.0993 30.7739Z" fill="#1F1F1F"/>
<path fill-rule="evenodd" clip-rule="evenodd" d="M19.425 31.0806L18.5432 31.1878L18.54 31.2396L19.3911 31.1302L19.4409 31.0982L19.425 31.0806Z" fill="#1F1F1F"/>
<path fill-rule="evenodd" clip-rule="evenodd" d="M19.0495 30.7329L18.2271 30.9645L18.2476 31.0144L19.046 30.7904L19.0495 30.7329Z" fill="#1F1F1F"/>
<path fill-rule="evenodd" clip-rule="evenodd" d="M18.5711 31.2377L18.8024 30.5434L18.7654 30.5166L18.5088 31.2403L18.5711 31.2377Z" fill="#1F1F1F"/>
<path fill-rule="evenodd" clip-rule="evenodd" d="M18.2604 31.0112L18.5377 30.3973L18.4829 30.3755L18.208 30.9811L18.2604 31.0112Z" fill="#1F1F1F"/>
<path fill-rule="evenodd" clip-rule="evenodd" d="M18.7656 30.5166L17.958 30.7511L17.969 30.8032L18.7463 30.5761L18.7656 30.5166Z" fill="#1F1F1F"/>
<path fill-rule="evenodd" clip-rule="evenodd" d="M18.0313 30.2891L18.022 30.3051L18.0313 30.2891Z" fill="#EBEBEB"/>
<path fill-rule="evenodd" clip-rule="evenodd" d="M17.7743 30.5871C17.7889 30.5295 17.9287 30.4969 17.9711 30.4137L17.9875 30.3778C17.9856 30.3778 17.7708 30.2992 17.6449 30.191C17.5191 30.0831 17.3495 30.0403 17.2818 30.086C17.2144 30.1331 17.1407 30.2233 17.178 30.3142C17.2158 30.405 17.2746 30.5622 17.4565 30.5976C17.6047 30.6264 17.7052 30.6101 17.7712 30.6156L17.7743 30.5871Z" fill="#131313"/>
<path fill-rule="evenodd" clip-rule="evenodd" d="M14.2453 32.108C14.0454 31.8962 13.8532 31.6406 13.7603 31.4311C13.8868 31.224 13.9826 31.1402 14.1173 31.0865C14.2666 31.0263 14.4605 31.0935 14.5746 31.2064C14.6885 31.3194 14.8776 31.3856 15.0828 31.3721C15.2873 31.3587 15.8127 31.7833 16.013 31.9528C16.2136 32.122 16.4011 32.3742 16.5636 32.4785C16.7254 32.5825 17.1384 32.8429 17.2237 33.0928C17.2237 33.0928 17.2422 33.1391 17.224 33.19C17.2123 33.2233 17.1995 33.2655 17.1649 33.3103C17.0704 33.4354 16.8527 33.462 16.5944 33.4729L16.5155 33.4702C16.4047 33.3307 16.1313 33.0256 15.7713 32.8957C15.2969 32.7245 14.5411 32.4229 14.2453 32.108Z" fill="#424242"/>
<path fill-rule="evenodd" clip-rule="evenodd" d="M13.7599 31.4307C13.8528 31.6403 14.045 31.8959 14.2449 32.1077C14.5407 32.4225 15.2966 32.7242 15.771 32.8954C16.131 33.0253 16.4044 33.3304 16.5152 33.47C16.2647 33.445 15.9429 33.2742 15.7104 33.1833C15.4531 33.0822 14.9574 32.8634 14.797 32.7761C14.6366 32.6894 14.5283 32.5904 14.4028 32.558C14.2774 32.5258 13.994 32.4404 13.8137 32.3502C13.633 32.2603 13.561 32.1119 13.561 32.1119C13.561 32.1119 13.5667 31.7676 13.7161 31.5053L13.7599 31.4307Z" fill="#424242"/>
<path fill-rule="evenodd" clip-rule="evenodd" d="M17.2242 33.0924C17.2242 33.0924 17.3686 33.3477 17.1658 33.5064C16.9626 33.666 16.3447 33.6366 15.8171 33.4465C15.8171 33.4465 13.9017 32.6771 13.694 32.5331C13.4862 32.3888 13.4196 32.3242 13.4506 32.2497C13.4824 32.1742 13.5619 32.1118 13.5619 32.1118C13.5619 32.1118 13.6342 32.2602 13.8145 32.3501C13.9949 32.4403 14.2783 32.5258 14.404 32.558C14.5295 32.5904 14.6382 32.6893 14.7982 32.776C14.9585 32.8633 15.4543 33.0821 15.7117 33.1832C15.969 33.2843 16.3364 33.4827 16.5952 33.4725C16.8536 33.4616 17.0718 33.435 17.1658 33.3099C17.2606 33.1854 17.2242 33.0924 17.2242 33.0924Z" fill="#282828"/>
<path fill-rule="evenodd" clip-rule="evenodd" d="M16.1804 32.7157C15.9359 32.7023 14.9347 31.8929 14.8201 31.8448C14.7052 31.7962 14.5908 31.7549 14.6058 31.6977C14.6208 31.64 14.7602 31.6077 14.8025 31.5243C14.8296 31.4711 14.8503 31.4052 14.8913 31.3608C14.9519 31.3719 15.0164 31.3761 15.0827 31.3719C15.2872 31.3585 15.8126 31.7831 16.0129 31.9526C16.2046 32.1139 16.3832 32.3507 16.5401 32.4629C16.54 32.4629 16.4249 32.7291 16.1804 32.7157Z" fill="#2B2B2B"/>
<path fill-rule="evenodd" clip-rule="evenodd" d="M14.82 31.8449C14.9347 31.8929 15.9359 32.7024 16.1804 32.7158C15.9476 32.7593 15.6212 32.5699 15.1489 32.2356C14.6767 31.9012 14.6436 31.7617 14.6436 31.7617C14.685 31.7896 14.7523 31.8161 14.82 31.8449Z" fill="#3B3B3B"/>
<path fill-rule="evenodd" clip-rule="evenodd" d="M14.606 31.6976C14.621 31.64 14.7603 31.6077 14.8026 31.5243C14.8297 31.4711 14.8504 31.4052 14.8914 31.3608L14.9794 31.3717C14.9759 31.4321 14.9545 31.5425 14.8487 31.6029C14.6989 31.69 14.6437 31.7616 14.6437 31.7616L14.606 31.6976Z" fill="#454545"/>
<path fill-rule="evenodd" clip-rule="evenodd" d="M13.9147 31.2221C13.9785 31.1562 14.042 31.1162 14.1175 31.0865C14.2668 31.0263 14.4607 31.0935 14.5748 31.2064C14.6638 31.2944 14.7982 31.3539 14.9504 31.3696L14.9229 31.3661L14.8916 31.361L14.8778 31.3773L14.8538 31.416L14.8196 31.4892C14.8196 31.4892 14.603 31.4102 14.4771 31.3018C14.3513 31.1939 14.1817 31.1508 14.1139 31.1968C14.0462 31.2435 13.9725 31.3341 14.0098 31.4253C14.0476 31.5161 14.1068 31.6732 14.2886 31.7088C14.4418 31.7382 14.5438 31.7197 14.6097 31.727C14.6453 31.7602 14.6499 31.7545 14.6585 31.7459C14.6763 31.7752 14.5822 31.8307 14.4782 31.82C14.3581 31.8085 14.1613 31.8185 13.9543 31.5631C13.8601 31.4473 13.8701 31.3245 13.9147 31.2221Z" fill="#3B3B3B"/>
<path fill-rule="evenodd" clip-rule="evenodd" d="M13.7599 31.4307C13.8528 31.6403 14.045 31.8959 14.2449 32.1077C14.5407 32.4225 15.2966 32.7242 15.771 32.8954C16.131 33.0253 16.4044 33.3304 16.5152 33.47C16.2647 33.445 15.9429 33.2742 15.7104 33.1833C15.4531 33.0822 14.9574 32.8634 14.797 32.7761C14.6366 32.6894 14.5283 32.5904 14.4028 32.558C14.2774 32.5258 13.994 32.4404 13.8137 32.3502C13.633 32.2603 13.561 32.1119 13.561 32.1119C13.561 32.1119 13.5667 31.7676 13.7161 31.5053L13.7599 31.4307Z" fill="#2B2B2B"/>
<path fill-rule="evenodd" clip-rule="evenodd" d="M15.0206 31.3736L15.0827 31.3719C15.2872 31.3585 15.8126 31.7831 16.0129 31.9526C16.2046 32.1139 16.3832 32.3507 16.5401 32.4629C16.54 32.4629 16.4171 32.4646 16.0146 32.0288C15.7053 31.6932 15.02 31.3739 15.02 31.3739L15.0206 31.3736Z" fill="#3B3B3B"/>
<path fill-rule="evenodd" clip-rule="evenodd" d="M17.1648 33.3103C17.0704 33.4354 16.8527 33.462 16.5944 33.4729L16.5405 33.4719C16.6673 33.4562 16.9055 33.3455 16.9403 33.278C16.9753 33.2101 17.0259 33.1573 17.1399 33.1481C17.2536 33.1388 17.2237 33.0928 17.2237 33.0928C17.2308 33.1186 17.2464 33.2028 17.1648 33.3103Z" fill="#282828"/>
<path fill-rule="evenodd" clip-rule="evenodd" d="M16.3101 32.2479L15.7776 32.5873L15.7319 32.5528L16.2729 32.2085L16.3101 32.2479Z" fill="#1F1F1F"/>
<path fill-rule="evenodd" clip-rule="evenodd" d="M15.9309 31.884L15.7839 32.5776L15.7266 32.5609L15.8891 31.8501L15.9309 31.884Z" fill="#1F1F1F"/>
<path fill-rule="evenodd" clip-rule="evenodd" d="M16.2562 32.1909L15.3753 32.2981L15.3721 32.35L16.2231 32.2403L16.273 32.2085L16.2562 32.1909Z" fill="#1F1F1F"/>
<path fill-rule="evenodd" clip-rule="evenodd" d="M15.8811 31.8438L15.0586 32.0751L15.0792 32.1254L15.8775 31.9011L15.8811 31.8438Z" fill="#1F1F1F"/>
<path fill-rule="evenodd" clip-rule="evenodd" d="M15.4026 32.3482L15.634 31.6537L15.5969 31.6274L15.3403 32.3509L15.4026 32.3482Z" fill="#1F1F1F"/>
<path fill-rule="evenodd" clip-rule="evenodd" d="M15.092 32.1219L15.3693 31.5077L15.3147 31.4863L15.0396 32.0922L15.092 32.1219Z" fill="#1F1F1F"/>
<path fill-rule="evenodd" clip-rule="evenodd" d="M15.5971 31.6274L14.7896 31.8613L14.801 31.9141L15.5778 31.6866L15.5971 31.6274Z" fill="#1F1F1F"/>
<path fill-rule="evenodd" clip-rule="evenodd" d="M14.8631 31.3994L14.8535 31.4157L14.8631 31.3994Z" fill="#EBEBEB"/>
<path fill-rule="evenodd" clip-rule="evenodd" d="M14.6059 31.6975C14.6209 31.6399 14.7603 31.6076 14.8026 31.5242L14.8194 31.4886C14.8172 31.488 14.6028 31.4093 14.4769 31.3015C14.3511 31.1936 14.1815 31.1505 14.1137 31.1965C14.046 31.2432 13.9723 31.3338 14.0096 31.425C14.0474 31.5158 14.1066 31.6729 14.2884 31.7085C14.437 31.7369 14.5371 31.7203 14.6028 31.7263L14.6059 31.6975Z" fill="#131313"/>
<path fill-rule="evenodd" clip-rule="evenodd" d="M12.8567 18.9009C12.7986 18.8337 12.7651 18.7902 12.7594 18.7826C12.7651 18.7902 12.7986 18.8337 12.8567 18.9009ZM12.759 18.7823L12.7587 18.7821L12.759 18.7823ZM12.7587 18.7821C12.7587 18.7817 12.7587 18.7817 12.7587 18.7817C12.7587 18.7817 12.7587 18.7817 12.7587 18.7821ZM12.7583 18.7817V18.7814C12.7583 18.7813 12.7583 18.7817 12.7583 18.7817ZM13.0428 11.7586C13.213 11.6427 13.4009 11.5308 13.5892 11.4268C13.4009 11.5307 13.2127 11.6427 13.0428 11.7586Z" fill="#7BDAF2"/>
<path fill-rule="evenodd" clip-rule="evenodd" d="M13.3535 19.3982C13.4686 18.9128 13.6454 18.1242 13.634 15.8549C13.6275 14.5515 13.2659 12.6545 13.6258 11.4062C13.6133 11.4128 13.6013 11.4196 13.5892 11.4263C13.4009 11.5302 13.2131 11.6423 13.0428 11.7582C12.6132 12.05 12.4818 12.6012 12.481 13.2426C12.4803 14.1286 12.7294 15.1866 12.7888 15.971C12.8424 16.6752 12.8613 17.2095 12.8613 17.6126C12.8613 18.5583 12.7583 18.781 12.7583 18.781V18.7809V18.781C12.7583 18.7808 12.7583 18.7812 12.7583 18.7812H12.7587C12.7587 18.7812 12.7587 18.7813 12.7587 18.7817L12.759 18.7818C12.759 18.7818 12.759 18.7822 12.7594 18.7822C12.7651 18.7898 12.7986 18.8333 12.8567 18.9005C12.9557 19.0157 13.1266 19.2007 13.3535 19.3982Z" fill="#DCDCDC"/>
<path fill-rule="evenodd" clip-rule="evenodd" d="M17.4651 18.8532C17.4651 18.8532 17.8132 15.8827 17.9596 14.5396C18.1054 13.196 18.0041 11.3132 17.2974 10.6666C17.1031 10.4894 16.8513 10.412 16.6147 10.3833C16.6636 10.3773 16.7206 10.3718 16.7833 10.3687C17.0436 10.3834 17.3411 10.4521 17.5612 10.6534C18.2463 11.2793 18.3438 13.1035 18.2026 14.4049C18.0609 15.7054 17.7237 18.5826 17.7237 18.5826C17.7237 18.5826 17.4853 19.0119 17.0423 19.4397C17.3185 19.1172 17.4651 18.8532 17.4651 18.8532Z" fill="#2B2B2B"/>
<path fill-rule="evenodd" clip-rule="evenodd" d="M16.7077 19.6759C16.7077 19.6759 17.0894 16.4173 17.2502 14.9438C17.4094 13.4701 17.299 11.4047 16.5231 10.6957C16.4776 10.6542 16.4293 10.6177 16.3789 10.5856L16.4227 10.4551C16.5629 10.5037 16.6974 10.5759 16.8128 10.6813C17.5638 11.3676 17.671 13.3684 17.5164 14.796C17.3606 16.2228 16.991 19.3793 16.991 19.3793C16.991 19.3792 16.8448 19.642 16.5685 19.9706C16.5407 19.9859 16.5123 20.001 16.4837 20.0155C16.6308 19.8136 16.7077 19.6759 16.7077 19.6759Z" fill="#2B2B2B"/>
<path fill-rule="evenodd" clip-rule="evenodd" d="M15.9155 19.6761C15.9155 19.6761 16.2972 16.4175 16.4579 14.944C16.5836 13.7812 16.5412 12.2501 16.1367 11.3075L16.252 10.9634C16.7927 11.8147 16.8613 13.5306 16.7241 14.7962C16.5687 16.223 16.1989 19.3795 16.1989 19.3795C16.1989 19.3794 15.9504 19.8261 15.4891 20.2826L15.4824 20.2829C15.7653 19.9456 15.9155 19.6761 15.9155 19.6761Z" fill="#2B2B2B"/>
<path fill-rule="evenodd" clip-rule="evenodd" d="M15.1235 19.6759C15.1235 19.6759 15.5055 16.4173 15.666 14.9438C15.798 13.7243 15.7453 12.0997 15.2836 11.1738L15.6961 11.4642C16.0184 12.3833 16.0464 13.745 15.9325 14.796C15.7768 16.2228 15.4072 19.3793 15.4072 19.3793C15.4071 19.3792 15.1874 19.7743 14.7773 20.201L14.7612 20.1965C14.9985 19.9006 15.1235 19.6759 15.1235 19.6759Z" fill="#2B2B2B"/>
<path fill-rule="evenodd" clip-rule="evenodd" d="M14.3316 19.676C14.3316 19.676 14.7133 16.4174 14.8737 14.9439C15.0136 13.6525 14.9462 11.9069 14.4055 11.0177C14.4944 10.977 14.5727 10.9422 14.636 10.9146C15.2061 11.7477 15.2801 13.5059 15.1403 14.7961C14.9849 16.2229 14.615 19.3794 14.615 19.3794C14.615 19.3793 14.4681 19.6434 14.1905 19.973L14.1523 19.9534C14.2703 19.786 14.3316 19.676 14.3316 19.676Z" fill="#2B2B2B"/>
<path fill-rule="evenodd" clip-rule="evenodd" d="M13.5532 19.5628C13.6217 18.9766 13.9394 16.2542 14.0821 14.9437C14.207 13.7897 14.1664 12.273 13.7705 11.3287C13.8514 11.2862 13.9311 11.2455 14.0084 11.207C14.4276 12.113 14.4736 13.6418 14.3486 14.7959C14.1928 16.2227 13.8232 19.3792 13.8232 19.3792C13.8232 19.3792 13.766 19.4822 13.6552 19.6399C13.6205 19.6144 13.5863 19.5887 13.5532 19.5628Z" fill="#2B2B2B"/>
<path fill-rule="evenodd" clip-rule="evenodd" d="M12.8408 18.8821C12.9641 17.8217 13.1798 15.9593 13.2905 14.944C13.3995 13.9357 13.3822 12.6505 13.1119 11.7122C13.1897 11.6611 13.2705 11.611 13.3529 11.562C13.6446 12.478 13.667 13.7818 13.5571 14.7962C13.4282 15.977 13.1526 18.3427 13.0615 19.1231C12.9666 19.0263 12.8921 18.9425 12.8408 18.8821Z" fill="#2B2B2B"/>
<path fill-rule="evenodd" clip-rule="evenodd" d="M15.0074 9.80948C15.0811 10.7716 14.8101 10.8403 14.8101 10.8403C14.8101 10.8403 15.3147 11.8727 16.0101 11.6856C16.7663 11.4817 16.4367 10.4129 16.4367 10.4129C16.4366 10.4129 14.9831 9.48828 15.0074 9.80948Z" fill="#F2CDA2"/>
<path fill-rule="evenodd" clip-rule="evenodd" d="M17.2327 8.5943C17.2327 8.5943 17.2327 11.0884 16.2986 10.8578C15.3527 10.6242 14.966 10.097 14.966 10.097L14.3965 8.60099L15.8816 7.43799L17.2327 8.5943Z" fill="#FED7AA"/>
<path fill-rule="evenodd" clip-rule="evenodd" d="M14.9659 10.0967C14.9659 10.0967 14.6341 9.66201 14.2954 9.15521C13.9572 8.64841 14.1575 7.89281 14.3964 7.64611C14.6341 7.39971 15.3206 7.04692 15.9603 7.12082C16.601 7.19502 17.0675 7.54792 17.342 7.95002C17.6164 8.35251 17.5433 8.68112 17.8085 8.70572C17.8085 8.70572 17.3145 8.96871 16.61 8.68941C15.9057 8.41011 15.4392 8.41881 15.2103 8.64841C14.9816 8.87811 15.5173 9.94451 14.9659 10.0967Z" fill="#241303"/>
<path fill-rule="evenodd" clip-rule="evenodd" d="M15.3149 9.26044C15.3149 9.26044 15.157 8.99365 15.0269 9.15365C14.8972 9.31385 15.1852 9.81114 15.2404 9.85204C15.2956 9.89234 15.3149 9.26054 15.3149 9.26044Z" fill="#FED7AA"/>
<path fill-rule="evenodd" clip-rule="evenodd" d="M13.0768 25.0662C12.5817 21.3134 12.7581 18.7812 12.7581 18.7812C12.8415 18.8244 12.9235 18.8638 13.0058 18.9018C15.1549 19.8807 17.8165 18.9335 17.9577 18.5825C17.9577 18.5825 18.3512 22.8306 18.4303 23.8828C18.4958 24.7495 18.4488 30.4513 18.4488 30.4513C18.4488 30.4513 17.4673 31.1789 16.9555 30.4878L16.6119 26.2199L16.6033 26.1571L16.5865 26.035C16.5876 25.9985 16.5841 25.9623 16.5798 25.9256C16.4386 24.7978 15.7647 23.0193 15.6122 22.3148C15.5973 22.2742 15.5862 22.2528 15.5801 22.255C15.5071 22.2879 15.177 31.4527 15.177 31.4527C15.177 31.4527 14.2707 32.1338 13.7147 31.6057C13.6762 31.5688 13.2932 26.7532 13.2932 26.7532L13.2902 26.7343L13.2849 26.6978L13.2627 26.5533C13.2121 26.0625 13.1484 25.5833 13.1014 25.23C13.0917 25.1718 13.0835 25.1168 13.0768 25.0662Z" fill="black"/>
<path fill-rule="evenodd" clip-rule="evenodd" d="M18.0345 19.4171C18.0214 19.181 17.9914 19.0015 17.9839 18.8652C17.3499 19.2815 14.8309 20.1539 12.7617 19.045C12.7644 19.1912 12.7683 19.3925 12.7745 19.6337C14.8729 20.7493 17.6133 19.8484 18.0345 19.4171Z" fill="#2B2B2B"/>
<path fill-rule="evenodd" clip-rule="evenodd" d="M13.7746 20.2281H13.5103V19.2363H13.7746V20.2281Z" fill="black"/>
<path fill-rule="evenodd" clip-rule="evenodd" d="M15.1065 20.45H14.8423V19.4585H15.1065V20.45Z" fill="black"/>
<path fill-rule="evenodd" clip-rule="evenodd" d="M17.0435 20.195H16.7793V19.2036H17.0435V20.195Z" fill="black"/>
<path fill-rule="evenodd" clip-rule="evenodd" d="M17.9246 19.857H17.6602V18.8652H17.9246V19.857Z" fill="black"/>
<path fill-rule="evenodd" clip-rule="evenodd" d="M16.3445 19.7553C16.3577 19.8218 16.3417 19.8893 16.2989 19.9444C16.2558 19.9997 16.192 20.0372 16.1179 20.049L16.0672 20.0531C15.9315 20.0531 15.8157 19.9658 15.791 19.8455C15.7633 19.7086 15.8648 19.5767 16.0177 19.5522L16.068 19.5476C16.2041 19.5476 16.3203 19.6353 16.3445 19.7553ZM16.131 20.1136C16.224 20.0986 16.305 20.0522 16.3591 19.9821C16.413 19.9124 16.4333 19.8272 16.4165 19.7438C16.3862 19.5927 16.2394 19.4824 16.068 19.4824L16.0045 19.4871C15.8125 19.5182 15.6841 19.6846 15.7191 19.8573C15.7493 20.009 15.8962 20.1187 16.0672 20.1187L16.131 20.1136Z" fill="#7F7F7F"/>
<path fill-rule="evenodd" clip-rule="evenodd" d="M16.0792 19.8409L16.0596 19.7776L16.3671 19.7012L16.3867 19.7645L16.0792 19.8409Z" fill="#525252"/>
<path fill-rule="evenodd" clip-rule="evenodd" d="M17.1546 10.727C17.1557 10.8099 17.092 10.8442 17.0132 10.8038C16.9465 10.7696 16.8902 10.6937 16.8738 10.6221L16.8279 10.561L16.5513 10.3412V10.2715L16.7601 10.3786L16.846 10.4288L17.0092 10.506C17.0879 10.5459 17.1539 10.6451 17.1546 10.727Z" fill="#F07400"/>
<path fill-rule="evenodd" clip-rule="evenodd" d="M17.0098 10.3452L16.9309 10.3042L16.7598 10.3788L16.8457 10.429L17.0139 10.3459L17.0098 10.3452Z" fill="#E37900"/>
<path fill-rule="evenodd" clip-rule="evenodd" d="M16.7155 10.1875L16.5513 10.2717L16.7601 10.3788L16.9248 10.2944L16.7155 10.1875Z" fill="#FF8F26"/>
<path fill-rule="evenodd" clip-rule="evenodd" d="M17.3187 10.6427C17.318 10.5607 17.2522 10.4619 17.1734 10.4216L17.0166 10.3413L16.8525 10.4255L17.0091 10.5061C17.0878 10.546 17.1538 10.6452 17.1545 10.7271C17.1552 10.7658 17.1413 10.7943 17.118 10.809L17.2768 10.7281C17.3042 10.7137 17.3195 10.684 17.3187 10.6427Z" fill="#FF8F26"/>
<path fill-rule="evenodd" clip-rule="evenodd" d="M17.2017 10.5703L17.2299 10.5664L17.2017 10.5703Z" fill="#E38B00"/>
<path fill-rule="evenodd" clip-rule="evenodd" d="M17.2479 10.6206L17.245 10.6113L17.2197 10.5723L17.255 10.6059L17.2479 10.6206Z" fill="#E38B00"/>
<path fill-rule="evenodd" clip-rule="evenodd" d="M17.2196 10.5723L17.2448 10.6113L17.2253 10.6267L17.2196 10.6107L17.2192 10.586L17.1997 10.5723H17.2192H17.2196Z" fill="#D48200"/>
<path fill-rule="evenodd" clip-rule="evenodd" d="M17.0103 10.5654C17.0649 10.5936 17.1087 10.6628 17.1087 10.7191L17.0827 10.7728L17.0171 10.7664C16.963 10.7382 16.9184 10.6695 16.9184 10.6131L16.9451 10.5591L16.9683 10.5539L17.0103 10.5654ZM17.0891 10.783C17.1106 10.7721 17.1223 10.7495 17.1223 10.7191C17.1223 10.6586 17.0752 10.5853 17.0171 10.5556L16.9383 10.5488C16.917 10.5597 16.9053 10.583 16.9053 10.6131C16.9053 10.6729 16.9526 10.7465 17.0103 10.7767L17.0595 10.7897L17.0891 10.783Z" fill="#FFA522"/>
<path fill-rule="evenodd" clip-rule="evenodd" d="M17.0104 10.6259L17.051 10.6883L17.0414 10.7088L17.0172 10.7059L16.9769 10.6432L16.9862 10.623L17.0104 10.6259ZM17.0482 10.7193L17.0643 10.6883L17.0172 10.6153L16.9798 10.6128L16.9634 10.6432L17.0104 10.7162L17.0333 10.7225L17.0482 10.7193Z" fill="#FFA522"/>
<path fill-rule="evenodd" clip-rule="evenodd" d="M20.6998 17.1457C21.0114 17.1857 21.2174 17.2549 21.3848 17.3058C21.4685 17.331 21.9145 17.3989 21.7309 17.4719C21.4682 17.5758 21.0748 17.4856 21.0748 17.4856C21.0748 17.4856 22.3964 17.8986 22.3432 18.0698C22.3107 18.1722 21.5905 17.9121 21.3443 17.8279C21.6386 17.9513 22.4177 18.2774 22.361 18.3756C22.288 18.5014 21.6632 18.2061 21.2982 18.0662C21.6539 18.2102 22.2751 18.4643 22.2259 18.5516C22.1522 18.6821 21.5289 18.3749 21.1635 18.2224C21.326 18.3017 21.764 18.5093 21.7256 18.581C21.6779 18.67 20.9835 18.3865 20.4614 18.0541C20.3595 17.9888 20.2605 17.9347 20.167 17.8887C20.2775 17.5902 20.3669 17.2968 20.428 17.0786C20.5288 17.1103 20.625 17.1362 20.6998 17.1457Z" fill="#FED7AA"/>
<path fill-rule="evenodd" clip-rule="evenodd" d="M12.6224 12.1219C12.7671 11.8279 13.3831 11.3653 14.3182 12.1111C14.5673 12.3097 14.8 12.5568 15.0144 12.8236C15.7501 13.7376 16.2712 14.8865 16.5112 15.1376C16.7977 15.4387 19.7882 16.8572 20.2087 17.0034C20.2797 17.0296 20.3548 17.0556 20.4276 17.0783C20.3665 17.2965 20.2772 17.5899 20.1667 17.8884C20.0644 17.8375 19.9685 17.7972 19.8851 17.7659C19.766 17.722 15.9997 16.3953 15.6425 16.1C15.2634 15.7861 14.3295 14.8088 13.6135 14.0038C13.3359 13.6912 13.0907 13.4045 12.9246 13.1924C12.4235 12.557 12.5151 12.3405 12.6224 12.1219Z" fill="#CFCFCF"/>
<path fill-rule="evenodd" clip-rule="evenodd" d="M13.311 11.7097L15.6065 13.6628C15.4666 13.4418 15.3143 13.2155 15.1501 12.998L13.699 11.7634C13.5573 11.7189 13.4277 11.7038 13.311 11.7097ZM18.7631 16.349L20.2604 17.623C20.2854 17.5485 20.309 17.4757 20.3308 17.4058L19.4917 16.6918C19.2732 16.5913 19.0234 16.4738 18.7631 16.349Z" fill="#2B2B2B"/>
<path fill-rule="evenodd" clip-rule="evenodd" d="M12.749 11.9514L19.3629 17.5791C19.6609 17.6861 19.8593 17.7563 19.8852 17.7659L19.9256 17.7814L17.5101 15.726C17.006 15.4644 16.607 15.2383 16.5112 15.1376C16.4237 15.0461 16.2989 14.8352 16.14 14.56L12.9215 11.8213C12.8542 11.8595 12.7965 11.9044 12.749 11.9514Z" fill="#2B2B2B"/>
<path fill-rule="evenodd" clip-rule="evenodd" d="M12.5449 12.4984L17.879 17.037C18.0743 17.1099 18.2681 17.1815 18.4541 17.2497L12.5694 12.2422C12.5431 12.3156 12.5287 12.3966 12.5449 12.4984Z" fill="#2B2B2B"/>
<path fill-rule="evenodd" clip-rule="evenodd" d="M14.1035 14.5448L16.3164 16.4277C16.5002 16.5046 16.7102 16.5892 16.9346 16.677L13.1138 13.4258C13.2566 13.5972 13.4278 13.7947 13.6136 14.0039C13.7693 14.1789 13.9352 14.362 14.1035 14.5448Z" fill="#2B2B2B"/>
</svg>
