<svg width="239" height="168" viewBox="0 0 239 168" fill="none" xmlns="http://www.w3.org/2000/svg">
<path d="M165.735 148.373L143.972 8.38962L146.221 8.04201L167.984 148.025L165.735 148.373ZM214.378 139.529L205.706 83.7239C201.9 84.3137 195.431 85.3158 195.227 85.3534C194.699 85.4494 193.84 84.9093 193.375 84.5788C192.226 83.7617 188.39 80.5471 187.29 73.4676C185.967 64.9589 190.23 59.8913 191.232 59.7357L201.724 58.1047L193.022 2.10303C193.296 2.13513 193.57 2.17072 193.842 2.20912L202.51 57.9824L202.64 57.9621L202.704 58.3757L206.559 83.1697L206.623 83.5827L206.491 83.6029L215.128 139.179C214.88 139.299 214.629 139.415 214.378 139.529ZM205.577 82.8984L201.853 58.9304L191.361 60.5618C191.382 60.5583 191.393 60.5541 191.395 60.5541C190.659 60.8518 186.902 65.5332 188.116 73.3393C189.363 81.366 194.347 84.5423 195.091 84.5297C195.091 84.5297 195.086 84.5297 195.077 84.5322C195.319 84.4874 203.43 83.2312 205.577 82.8984ZM215.396 140.908L215.408 140.98L215.158 141.019C215.238 140.982 215.317 140.945 215.396 140.908ZM84.1814 55.6441C83.3459 55.774 82.7737 56.556 82.9039 57.3911C83.0336 58.2265 83.816 58.7981 84.6514 58.6683C85.487 58.538 86.0583 57.7565 85.9282 56.921C85.7983 56.0854 85.017 55.5143 84.1814 55.6441ZM144.09 44.6556C143.255 44.7855 142.683 45.5675 142.813 46.4026C142.943 47.238 143.725 47.8096 144.56 47.6798C145.396 47.5495 145.967 46.768 145.837 45.9325C145.707 45.0969 144.926 44.5258 144.09 44.6556ZM154.393 110.922C153.557 111.052 152.985 111.833 153.115 112.669C153.245 113.504 154.027 114.076 154.863 113.946C155.699 113.816 156.269 113.034 156.139 112.199C156.009 111.363 155.228 110.792 154.393 110.922ZM94.0838 120.298C93.2479 120.428 92.6759 121.21 92.806 122.045C92.9353 122.88 93.7179 123.451 94.554 123.322C95.3891 123.192 95.9612 122.41 95.831 121.575C95.7012 120.739 94.919 120.169 94.0838 120.298ZM140.565 80.6866C142.347 92.1474 134.68 102.933 123.379 105.1L120.427 86.1099C120.448 86.099 120.469 86.0878 120.489 86.0763C121.337 85.6021 121.844 84.637 121.686 83.6216C121.528 82.605 120.752 81.8404 119.8 81.6459C119.777 81.6411 119.754 81.6367 119.731 81.6326L116.779 62.6414C128.204 61.2755 138.783 69.2263 140.565 80.6866ZM92.3869 159.706L70.624 19.7231L72.8729 19.3756L94.6358 159.359L92.3869 159.706ZM121.865 105.336C110.44 106.702 99.8606 98.7529 98.0789 87.2914C96.2971 75.8306 103.963 65.0438 115.264 62.8769L118.216 81.8682C118.195 81.8793 118.174 81.8905 118.154 81.9022C117.306 82.3756 116.799 83.3407 116.957 84.3566C117.115 85.3725 117.891 86.1375 118.842 86.332C118.866 86.3368 118.889 86.3412 118.913 86.3454L121.865 105.336ZM130.942 153.749L123.498 105.866C135.223 103.633 143.178 92.4496 141.331 80.5673C139.484 68.6848 128.509 60.4447 116.66 61.8759L109.18 13.7655L107.665 13.9996L115.145 62.1114C103.42 64.3445 95.4655 75.5277 97.3131 87.4107C99.1603 99.293 110.135 107.534 121.984 106.102L129.428 153.983L130.942 153.749Z" fill="#91D8F7" fill-opacity="0.160784"/>
<path d="M44.8632 165.825L36.1775 110.246L36.1732 110.246L36.1089 109.833L36.0403 109.391L36.0547 109.456L32.3496 85.6233L32.3453 85.6249L32.2543 85.04L32.1903 84.6266L32.1946 84.626L23.4521 28.3927C23.7013 28.2778 23.9521 28.1659 24.2044 28.0566L32.9803 84.504C36.7668 83.9185 43.3787 82.8933 43.5864 82.855C44.1138 82.7602 44.9723 83.2999 45.4375 83.6302C46.5874 84.4463 50.422 87.663 51.5221 94.741C52.8452 103.25 48.5823 108.317 47.5797 108.473L36.9633 110.123L45.6681 165.825H44.8632ZM33.05 84.9528L33.1086 85.33L33.1437 85.3246L33.1098 85.3373L36.8936 109.675L36.9343 109.705L36.8701 109.292H36.8699L47.4516 107.647C47.4306 107.651 47.4189 107.655 47.4185 107.655C48.1534 107.357 51.9103 102.675 50.6964 94.8695C49.4489 86.8425 44.4661 83.6669 43.721 83.6802C43.721 83.6802 43.7272 83.6795 43.736 83.6776C43.4905 83.7229 35.1413 85.0155 33.144 85.3245H33.1439L33.0798 84.9122L33.05 84.9528Z" fill="#91D8F7" fill-opacity="0.160784"/>
<path d="M1.76953 70.6564L1.76953 68.846C1.84673 69.6091 1.94232 70.3747 2.06172 71.1423L11.4968 131.832C13.4461 144.369 20.6663 154.713 30.3337 160.663H30.2952C20.484 154.737 13.1456 144.304 11.1885 131.638L1.81422 70.9707C1.79802 70.8658 1.78493 70.7612 1.76953 70.6564ZM1.76953 60.2655L1.76953 58.2213C4.23673 41.6749 16.4401 28.0955 32.8617 25.558L52.2477 22.5625V22.6972L33.0836 25.6767C16.0384 28.3265 3.54693 42.8663 1.76953 60.2655Z" fill="#91D8F7" fill-opacity="0.160784"/>
<path d="M63.7364 57.0322C64.7679 63.6669 60.2104 69.9039 53.5754 70.9349C46.9414 71.9666 40.7035 67.4082 39.6723 60.7731C38.6407 54.1389 43.2001 47.9022 49.8344 46.8706C56.4689 45.8395 62.7049 50.3976 63.7364 57.0322ZM49.7666 46.4371C42.8931 47.5057 38.1712 53.9676 39.2398 60.8402C40.3087 67.7143 46.7692 72.4367 53.6426 71.3682C60.5176 70.2991 65.2387 63.8383 64.1704 56.9644C63.1019 50.0917 56.6414 45.3681 49.7666 46.4371Z" fill="#91D8F7" fill-opacity="0.160784"/>
<path d="M55.4931 75.4113L54.8018 70.9658L55.1255 70.9155L55.8168 75.3609L55.4931 75.4113Z" fill="#91D8F7" fill-opacity="0.160784"/>
<path d="M52.783 75.8321L52.0918 71.3868L52.4166 71.3364L53.108 75.7815L52.783 75.8321Z" fill="#91D8F7" fill-opacity="0.160784"/>
<path d="M50.9941 46.4688L50.3027 42.0238L50.627 41.9736L51.3178 46.4183L50.9941 46.4688Z" fill="#91D8F7" fill-opacity="0.160784"/>
<path d="M48.284 46.89L47.5928 42.4449L47.9178 42.395L48.6089 46.8395L48.284 46.89Z" fill="#91D8F7" fill-opacity="0.160784"/>
<path d="M51.5723 58.0501C51.1007 58.1232 50.7787 58.5643 50.8521 59.036C50.9258 59.5087 51.3659 59.8301 51.8373 59.7569L51.8592 59.7532H51.8593L51.8736 59.7505L51.8808 59.749L51.8811 59.7489L51.8951 59.7459L51.9022 59.7443L51.9027 59.7442L51.9234 59.739L51.924 59.7389L51.9304 59.7372L51.9374 59.7353L51.9443 59.7334L51.9451 59.7331L51.9512 59.7313L51.9581 59.7292L51.965 59.7272L51.9659 59.7268L51.9855 59.7205L51.9865 59.7201L52.0056 59.7133L52.0067 59.7128L52.0255 59.7056L52.0269 59.7051L52.0452 59.6975L52.0466 59.6969L52.0517 59.6947L52.0646 59.689L52.0661 59.6882L52.071 59.686L52.0836 59.6799L52.0853 59.6791L52.0899 59.6768L52.1025 59.6705L52.1043 59.6696L52.1087 59.6673L52.1229 59.6595L52.1271 59.6572L52.1332 59.6538L52.1392 59.6503L52.1412 59.6492L52.1453 59.6468L52.1513 59.6432L52.1572 59.6396L52.1593 59.6383L52.1631 59.6359L52.1748 59.6284L52.1771 59.627L52.1806 59.6247L52.1944 59.6153L52.1979 59.6129L52.2035 59.609L52.2092 59.605L52.2116 59.6033L52.2148 59.6009L52.2204 59.5968L52.2259 59.5927L52.2283 59.5908L52.2314 59.5885L52.2423 59.5799L52.2448 59.5779L52.2476 59.5756C52.4788 59.3885 52.607 59.0866 52.5583 58.7707C52.5179 58.5104 52.3655 58.2958 52.1579 58.1679L52.1485 58.1621C52.117 58.1433 52.0843 58.1264 52.0505 58.1116L52.0403 58.1073L52.0301 58.1031L52.0198 58.099L52.0095 58.095L51.999 58.0911L51.9886 58.0874L51.9781 58.0838L51.9756 58.0829L51.9675 58.0804L51.9569 58.0771L51.9462 58.0739L51.9355 58.0709V58.0708L51.9247 58.0679L51.9139 58.0651L51.903 58.0625L51.8921 58.06L51.8811 58.0576L51.874 58.0562L51.8701 58.0555L51.8591 58.0534L51.8532 58.0523L51.8479 58.0514L51.8368 58.0497L51.8323 58.049L51.8257 58.048L51.8144 58.0466L51.8038 58.0453L51.8032 58.0452L51.7919 58.044L51.7899 58.0438L51.7806 58.0429L51.7693 58.042L51.7686 58.0419L51.7579 58.0412L51.7472 58.0407H51.7465L51.735 58.0402L51.7257 58.0399H51.7236L51.704 58.0397H51.7005L51.689 58.0399L51.6822 58.04L51.6774 58.0402L51.6658 58.0407L51.6604 58.0409L51.6542 58.0413L51.6425 58.042L51.6385 58.0423L51.6309 58.043L51.6192 58.0441L51.6165 58.0443L51.6075 58.0454L51.5958 58.0467L51.5944 58.047L51.5723 58.0501ZM50.4416 60.0222L50.5115 60.0115L50.5224 60.0815L51.0606 63.5416L50.9191 63.5636L50.3924 60.1751L45.7855 60.8914L45.7633 60.7495L50.4416 60.0222ZM50.1618 58.221L50.2318 58.2102L50.2209 58.1406L49.6827 54.6788L49.5412 54.7011L50.0687 58.0929L45.4619 58.8092L45.4836 58.9481L50.1618 58.221ZM52.9674 57.7848L52.8995 57.7954L52.8886 57.7257L52.3507 54.2642L52.4893 54.2427L53.0166 57.6345L57.6246 56.9179L57.6463 57.0578L52.9674 57.7848ZM53.2475 59.5861L53.1796 59.5968L53.1902 59.6666L53.7286 63.1267L53.8675 63.1052L53.3407 59.7171L57.9483 59.0004L57.9265 58.8587L53.2475 59.5861Z" fill="#FEFEFE" fill-opacity="0.160784"/>
<path fill-rule="evenodd" clip-rule="evenodd" d="M35.1379 116.883C35.4755 116.892 35.258 116.689 35.1471 116.718C34.974 116.763 34.9012 116.877 35.1379 116.883Z" fill="#93FFFF" fill-opacity="0.160784"/>
<path fill-rule="evenodd" clip-rule="evenodd" d="M23.4184 114.679C23.7931 114.681 23.5671 114.491 23.4435 114.521C23.232 114.573 23.3315 114.679 23.4184 114.679Z" fill="#8CFFFF" fill-opacity="0.160784"/>
<path fill-rule="evenodd" clip-rule="evenodd" d="M20.7511 110.568C21.0117 110.569 20.753 110.34 20.7231 110.432C20.7224 110.434 20.717 110.46 20.717 110.464C20.7125 110.642 20.5025 110.566 20.7511 110.568Z" fill="#8EFFFF" fill-opacity="0.160784"/>
<path d="M74.544 126.548C75.5755 133.183 71.0179 139.42 64.383 140.45C57.749 141.482 51.5112 136.924 50.48 130.289C49.4484 123.654 54.0078 117.418 60.6421 116.386C67.2765 115.355 73.5125 119.913 74.544 126.548ZM60.5743 115.953C53.7008 117.021 48.9788 123.483 50.0474 130.356C51.1163 137.23 57.5769 141.952 64.4503 140.884C71.3252 139.815 76.0464 133.354 74.978 126.48C73.9096 119.607 67.4491 114.884 60.5743 115.953Z" fill="#91D8F7" fill-opacity="0.160784"/>
<path d="M66.3007 144.927L65.6094 140.481L65.9331 140.431L66.6244 144.876L66.3007 144.927Z" fill="#91D8F7" fill-opacity="0.160784"/>
<path d="M63.5916 145.348L62.9004 140.902L63.2251 140.852L63.9165 145.297L63.5916 145.348Z" fill="#91D8F7" fill-opacity="0.160784"/>
<path d="M61.8007 115.984L61.1094 111.539L61.4336 111.489L62.1245 115.934L61.8007 115.984Z" fill="#91D8F7" fill-opacity="0.160784"/>
<path d="M59.0916 116.406L58.4004 111.961L58.7254 111.911L59.4166 116.355L59.0916 116.406Z" fill="#91D8F7" fill-opacity="0.160784"/>
<path d="M62.3799 127.566C61.9083 127.639 61.5864 128.08 61.6598 128.552C61.7335 129.024 62.1735 129.346 62.6449 129.273L62.6669 129.269L62.6669 129.269L62.6812 129.266L62.6884 129.265L62.6887 129.265L62.7027 129.261L62.7098 129.26L62.7102 129.26L62.731 129.255L62.7316 129.255L62.738 129.253L62.7449 129.251L62.7519 129.249L62.7527 129.249L62.7588 129.247L62.7658 129.245L62.7727 129.243L62.7735 129.242L62.793 129.236L62.7941 129.236L62.8133 129.229L62.8144 129.228L62.8331 129.221L62.8344 129.221L62.8528 129.213L62.8542 129.212L62.8592 129.21L62.8723 129.205L62.8737 129.204L62.8787 129.202L62.8912 129.195L62.893 129.195L62.8976 129.192L62.9102 129.186L62.9119 129.185L62.9163 129.183L62.9305 129.175L62.9348 129.173L62.9409 129.169L62.9469 129.166L62.9488 129.165L62.953 129.162L62.959 129.159L62.9648 129.155L62.9669 129.154L62.9708 129.151L62.9824 129.144L62.9846 129.143L62.9883 129.14L63.002 129.131L63.0055 129.128L63.0112 129.125L63.0169 129.12L63.0192 129.119L63.0224 129.116L63.028 129.112L63.0335 129.108L63.0359 129.106L63.0391 129.104L63.0499 129.095L63.0524 129.093L63.0552 129.091C63.2864 128.904 63.4147 128.602 63.3659 128.286C63.3256 128.026 63.1731 127.811 62.9655 127.683L62.9562 127.678C62.9247 127.659 62.8919 127.642 62.8581 127.627L62.848 127.623L62.8377 127.619L62.8274 127.614L62.8171 127.611L62.8066 127.607L62.7962 127.603L62.7858 127.599L62.7833 127.598L62.7751 127.596L62.7645 127.593L62.7538 127.589L62.7431 127.587V127.586L62.7323 127.583L62.7216 127.581L62.7106 127.578L62.6998 127.576L62.6887 127.573L62.6816 127.572L62.6777 127.571L62.6667 127.569L62.6609 127.568L62.6555 127.567L62.6444 127.565L62.6399 127.564L62.6334 127.564L62.622 127.562L62.6115 127.561L62.6109 127.561L62.5995 127.56L62.5976 127.559L62.5883 127.558L62.5769 127.558L62.5762 127.557L62.5655 127.557L62.5548 127.556H62.5541L62.5427 127.556L62.5333 127.556L62.5312 127.555L62.5116 127.555H62.5081L62.4966 127.555L62.4898 127.556L62.4851 127.556L62.4734 127.556L62.468 127.557L62.4619 127.557L62.4502 127.558L62.4462 127.558L62.4385 127.558L62.4269 127.56L62.4241 127.56L62.4152 127.561L62.4034 127.562L62.402 127.562L62.3799 127.566ZM61.2492 129.538L61.3191 129.527L61.3301 129.597L61.8683 133.057L61.7266 133.079L61.1999 129.691L56.5931 130.407L56.5709 130.265L61.2492 129.538ZM60.9694 127.737L61.0394 127.726L61.0285 127.656L60.4903 124.194L60.3488 124.217L60.8763 127.608L56.2695 128.325L56.2912 128.464L60.9694 127.737ZM63.7751 127.3L63.7071 127.311L63.6962 127.241L63.1584 123.78L63.2969 123.758L63.8242 127.15L68.4321 126.433L68.454 126.573L63.7751 127.3ZM64.0551 129.102L63.9871 129.112L63.9978 129.182L64.5362 132.642L64.6751 132.621L64.1484 129.233L68.7559 128.516L68.7341 128.374L64.0551 129.102Z" fill="#FEFEFE" fill-opacity="0.160784"/>
<path d="M188.209 37.7011C189.241 44.3359 184.683 50.5728 178.048 51.6038C171.414 52.6356 165.176 48.0772 164.145 41.4421C163.113 34.8078 167.673 28.5711 174.307 27.5396C180.942 26.5084 187.178 31.0665 188.209 37.7011ZM174.239 27.106C167.366 28.1747 162.644 34.6366 163.712 41.5092C164.781 48.3832 171.242 53.1057 178.115 52.0371C184.99 50.9681 189.711 44.5072 188.643 37.6334C187.575 30.7607 181.114 26.0371 174.239 27.106Z" fill="#91D8F7" fill-opacity="0.160784"/>
<path d="M179.966 56.0803L179.274 51.6348L179.598 51.5845L180.289 56.0298L179.966 56.0803Z" fill="#91D8F7" fill-opacity="0.160784"/>
<path d="M177.256 56.501L176.564 52.0558L176.889 52.0054L177.581 56.4504L177.256 56.501Z" fill="#91D8F7" fill-opacity="0.160784"/>
<path d="M175.467 27.1377L174.775 22.6927L175.1 22.6426L175.79 27.0873L175.467 27.1377Z" fill="#91D8F7" fill-opacity="0.160784"/>
<path d="M172.757 27.559L172.065 23.114L172.39 23.064L173.082 27.5085L172.757 27.559Z" fill="#91D8F7" fill-opacity="0.160784"/>
<path d="M176.045 38.7189C175.573 38.7921 175.251 39.2332 175.325 39.7048C175.398 40.1775 175.839 40.499 176.31 40.4258L176.332 40.4221L176.332 40.422L176.346 40.4193L176.353 40.4179L176.354 40.4178L176.368 40.4148L176.375 40.4132L176.375 40.413L176.396 40.4079L176.397 40.4078L176.403 40.4061L176.41 40.4042L176.417 40.4022L176.418 40.402L176.424 40.4002L176.431 40.3981L176.438 40.396L176.439 40.3957L176.458 40.3893L176.459 40.3889L176.478 40.3821L176.479 40.3817L176.498 40.3745L176.499 40.3739L176.518 40.3664L176.519 40.3657L176.524 40.3636L176.537 40.3578L176.539 40.3571L176.544 40.3549L176.556 40.3488L176.558 40.3479L176.563 40.3457L176.575 40.3394L176.577 40.3384L176.581 40.3361L176.596 40.3284L176.6 40.3261L176.606 40.3226L176.612 40.3192L176.614 40.318L176.618 40.3156L176.624 40.312L176.63 40.3084L176.632 40.3072L176.636 40.3048L176.647 40.2973L176.65 40.2958L176.653 40.2935L176.667 40.2842L176.671 40.2818L176.676 40.2778L176.682 40.2738L176.684 40.2721L176.687 40.2698L176.693 40.2657L176.699 40.2615L176.701 40.2596L176.704 40.2573L176.715 40.2488L176.717 40.2468L176.72 40.2445C176.951 40.0573 177.08 39.7554 177.031 39.4395C176.991 39.1793 176.838 38.9646 176.631 38.8367L176.621 38.831C176.59 38.8122 176.557 38.7953 176.523 38.7805L176.513 38.7762L176.503 38.772L176.492 38.7678L176.482 38.7638L176.472 38.76L176.461 38.7563L176.451 38.7527L176.448 38.7518L176.44 38.7492L176.43 38.746L176.419 38.7428L176.408 38.7398V38.7397L176.397 38.7368L176.387 38.734L176.376 38.7314L176.365 38.7289L176.354 38.7265L176.347 38.7251L176.343 38.7244L176.332 38.7223L176.326 38.7212L176.321 38.7203L176.309 38.7185L176.305 38.7178L176.298 38.7169L176.287 38.7154L176.276 38.7141H176.276L176.265 38.7129L176.263 38.7126L176.253 38.7118L176.242 38.7109L176.241 38.7108L176.231 38.7101L176.22 38.7095H176.219L176.208 38.709L176.198 38.7088L176.196 38.7087L176.177 38.7086H176.173L176.162 38.7087L176.155 38.7089L176.15 38.709L176.138 38.7095L176.133 38.7098L176.127 38.7102L176.115 38.7109L176.111 38.7112L176.104 38.7118L176.092 38.7129L176.089 38.7132L176.08 38.7142L176.068 38.7156L176.067 38.7158L176.045 38.7189ZM174.914 40.6911L174.984 40.6803L174.995 40.7503L175.533 44.2105L175.392 44.2325L174.865 40.844L170.258 41.5602L170.236 41.4183L174.914 40.6911ZM174.634 38.8899L174.704 38.879L174.694 38.8095L174.155 35.3477L174.014 35.3699L174.541 38.7618L169.935 39.4781L169.956 39.6169L174.634 38.8899ZM177.44 38.4537L177.372 38.4642L177.361 38.3946L176.823 34.933L176.962 34.9116L177.489 38.3033L182.097 37.5868L182.119 37.7266L177.44 38.4537ZM177.72 40.2549L177.652 40.2657L177.663 40.3355L178.201 43.7956L178.34 43.7741L177.813 40.386L182.421 39.6693L182.399 39.5275L177.72 40.2549Z" fill="#FEFEFE" fill-opacity="0.160784"/>
<path d="M199.017 107.217C200.048 113.852 195.491 120.088 188.856 121.119C182.222 122.151 175.984 117.593 174.953 110.958C173.921 104.323 178.48 98.0867 185.115 97.0551C191.749 96.024 197.985 100.582 199.017 107.217ZM185.047 96.6216C178.173 97.6902 173.451 104.152 174.52 111.025C175.589 117.899 182.05 122.621 188.923 121.553C195.798 120.484 200.519 114.023 199.451 107.149C198.382 100.276 191.922 95.5527 185.047 96.6216Z" fill="#91D8F7" fill-opacity="0.160784"/>
<path d="M190.773 125.595L190.082 121.15L190.406 121.1L191.097 125.545L190.773 125.595Z" fill="#91D8F7" fill-opacity="0.160784"/>
<path d="M188.064 126.016L187.373 121.571L187.698 121.521L188.389 125.966L188.064 126.016Z" fill="#91D8F7" fill-opacity="0.160784"/>
<path d="M186.273 96.6529L185.582 92.2079L185.906 92.1577L186.597 96.6024L186.273 96.6529Z" fill="#91D8F7" fill-opacity="0.160784"/>
<path d="M183.564 97.0741L182.873 92.629L183.198 92.5791L183.889 97.0236L183.564 97.0741Z" fill="#91D8F7" fill-opacity="0.160784"/>
<path d="M186.853 108.234C186.381 108.307 186.059 108.748 186.132 109.22C186.206 109.693 186.646 110.014 187.118 109.941L187.14 109.937L187.14 109.937L187.154 109.934L187.161 109.933L187.161 109.933L187.175 109.93L187.182 109.928L187.183 109.928L187.204 109.923L187.204 109.923L187.211 109.921L187.218 109.919L187.225 109.917L187.225 109.917L187.231 109.915L187.238 109.913L187.245 109.911L187.246 109.911L187.266 109.904L187.267 109.904L187.286 109.897L187.287 109.897L187.306 109.89L187.307 109.889L187.325 109.881L187.327 109.881L187.332 109.879L187.345 109.873L187.346 109.872L187.351 109.87L187.364 109.864L187.366 109.863L187.37 109.861L187.383 109.855L187.385 109.854L187.389 109.851L187.403 109.844L187.407 109.841L187.414 109.838L187.42 109.834L187.421 109.833L187.426 109.831L187.432 109.827L187.437 109.824L187.44 109.822L187.443 109.82L187.455 109.812L187.457 109.811L187.461 109.809L187.475 109.799L187.478 109.797L187.484 109.793L187.49 109.789L187.492 109.787L187.495 109.785L187.501 109.781L187.506 109.777L187.509 109.775L187.512 109.772L187.523 109.764L187.525 109.762L187.528 109.76C187.759 109.572 187.887 109.271 187.839 108.955C187.798 108.694 187.646 108.48 187.438 108.352L187.429 108.346C187.397 108.327 187.365 108.31 187.331 108.296L187.321 108.291L187.31 108.287L187.3 108.283L187.29 108.279L187.279 108.275L187.269 108.271L187.258 108.268L187.256 108.267L187.248 108.264L187.237 108.261L187.226 108.258L187.216 108.255V108.255L187.205 108.252L187.194 108.249L187.183 108.246L187.172 108.244L187.161 108.242L187.154 108.24L187.15 108.239L187.139 108.237L187.134 108.236L187.128 108.235L187.117 108.234L187.113 108.233L187.106 108.232L187.095 108.231L187.084 108.229L187.084 108.229L187.072 108.228L187.07 108.228L187.061 108.227L187.05 108.226H187.049L187.038 108.225L187.027 108.225H187.027L187.015 108.224L187.006 108.224L187.004 108.224L186.984 108.224H186.981L186.969 108.224L186.962 108.224L186.958 108.224L186.946 108.225L186.941 108.225L186.935 108.225L186.923 108.226L186.919 108.226L186.911 108.227L186.9 108.228L186.897 108.228L186.888 108.229L186.876 108.231L186.875 108.231L186.853 108.234ZM185.722 110.206L185.792 110.195L185.803 110.265L186.341 113.726L186.199 113.748L185.673 110.359L181.066 111.075L181.044 110.933L185.722 110.206ZM185.442 108.405L185.512 108.394L185.501 108.325L184.963 104.863L184.821 104.885L185.349 108.277L180.742 108.993L180.764 109.132L185.442 108.405ZM188.248 107.969L188.18 107.979L188.169 107.91L187.631 104.448L187.77 104.427L188.297 107.818L192.905 107.102L192.927 107.242L188.248 107.969ZM188.528 109.77L188.46 109.781L188.47 109.851L189.009 113.311L189.148 113.289L188.621 109.901L193.229 109.184L193.207 109.043L188.528 109.77Z" fill="#FEFEFE" fill-opacity="0.160784"/>
<path fill-rule="evenodd" clip-rule="evenodd" d="M32.8394 24.0065C11.4654 27.3502 -3.02552 48.6052 0.539075 71.3907L10.027 132.042C13.5916 154.827 33.882 170.644 55.2561 167.3L205.861 143.74C227.235 140.396 241.724 119.139 238.159 96.353L228.671 35.7024C225.107 12.9167 204.818 -2.89747 183.444 0.446123L32.8394 24.0065ZM183.705 2.10921C204.197 -1.09669 223.655 14.0853 227.075 35.9519L236.564 96.6026C239.984 118.47 226.093 138.868 205.6 142.074L54.9954 165.635C34.5023 168.841 15.0457 153.659 11.6248 131.792L2.13689 71.1409C-1.28391 49.2743 12.6065 28.8754 33.0997 25.6695L183.705 2.10921Z" fill="#FEFEFE" fill-opacity="0.160784"/>
</svg>
