<svg width="38" height="38" viewBox="0 0 38 38" fill="none" xmlns="http://www.w3.org/2000/svg">
<path fill-rule="evenodd" clip-rule="evenodd" d="M18.7828 0.776367C28.9394 0.776367 37.1729 9.00997 37.1729 19.1666C37.1729 29.3233 28.9394 37.5568 18.7828 37.5568C8.62617 37.5568 0.392578 29.3233 0.392578 19.1666C0.392578 9.00997 8.62617 0.776367 18.7828 0.776367Z" fill="#E8F7FE" fill-opacity="0.729412"/>
<path fill-rule="evenodd" clip-rule="evenodd" d="M7.1024 27.8296L7.06689 27.8186L10.9288 15.4165L10.9644 15.4276L7.1024 27.8296Z" fill="#CFCFCF"/>
<path fill-rule="evenodd" clip-rule="evenodd" d="M7.86957 27.3875L7.83398 27.3761L11.6959 14.9741L11.7316 14.9855L7.86957 27.3875Z" fill="#CFCFCF"/>
<path fill-rule="evenodd" clip-rule="evenodd" d="M8.63602 26.9443L8.60059 26.9333L12.4622 14.5312L12.4983 14.5423L8.63602 26.9443Z" fill="#CFCFCF"/>
<path fill-rule="evenodd" clip-rule="evenodd" d="M9.40277 26.502L9.36719 26.491L13.2292 14.0889L13.2648 14.0996L9.40277 26.502Z" fill="#CFCFCF"/>
<path fill-rule="evenodd" clip-rule="evenodd" d="M10.1699 26.0596L10.1343 26.0486L13.9963 13.6465L14.0319 13.6575L10.1699 26.0596Z" fill="#CFCFCF"/>
<path fill-rule="evenodd" clip-rule="evenodd" d="M10.9366 25.6164L10.9014 25.6057L14.763 13.2036L14.7986 13.2148L10.9366 25.6164Z" fill="#CFCFCF"/>
<path fill-rule="evenodd" clip-rule="evenodd" d="M11.7037 25.1743L11.668 25.1629L15.53 12.7612L15.5655 12.7723L11.7037 25.1743Z" fill="#CFCFCF"/>
<path fill-rule="evenodd" clip-rule="evenodd" d="M12.4708 24.7311L12.4351 24.7204L16.297 12.3184L16.3326 12.3296L12.4708 24.7311Z" fill="#CFCFCF"/>
<path fill-rule="evenodd" clip-rule="evenodd" d="M13.2376 24.2891L13.2017 24.2781L17.0636 11.876L17.0995 11.8871L13.2376 24.2891Z" fill="#CFCFCF"/>
<path fill-rule="evenodd" clip-rule="evenodd" d="M14.0043 23.8462L13.9688 23.8352L17.8307 11.4331L17.8662 11.4443L14.0043 23.8462Z" fill="#CFCFCF"/>
<path fill-rule="evenodd" clip-rule="evenodd" d="M14.7711 23.4038L14.7354 23.3928L18.5969 10.9907L18.6329 11.0018L14.7711 23.4038Z" fill="#CFCFCF"/>
<path fill-rule="evenodd" clip-rule="evenodd" d="M15.5381 22.9609L15.502 22.9499L19.3638 10.5479L19.3996 10.559L15.5381 22.9609Z" fill="#CFCFCF"/>
<path fill-rule="evenodd" clip-rule="evenodd" d="M16.3047 22.5186L16.269 22.5072L20.131 10.1055L20.1667 10.1163L16.3047 22.5186Z" fill="#CFCFCF"/>
<path fill-rule="evenodd" clip-rule="evenodd" d="M17.0716 22.0757L17.0361 22.0647L20.898 9.6626L20.9333 9.67408L17.0716 22.0757Z" fill="#CFCFCF"/>
<path fill-rule="evenodd" clip-rule="evenodd" d="M17.8382 21.6332L17.8027 21.6219L21.6646 9.22021L21.7002 9.23131L17.8382 21.6332Z" fill="#CFCFCF"/>
<path fill-rule="evenodd" clip-rule="evenodd" d="M18.605 21.1904L18.5693 21.1794L22.4312 8.77734L22.467 8.78855L18.605 21.1904Z" fill="#CFCFCF"/>
<path fill-rule="evenodd" clip-rule="evenodd" d="M19.3721 20.7479L19.3369 20.7366L23.1988 8.33447L23.2344 8.34598L19.3721 20.7479Z" fill="#CFCFCF"/>
<path fill-rule="evenodd" clip-rule="evenodd" d="M20.139 20.3052L20.1035 20.2942L23.9654 7.89209L24.001 7.90328L20.139 20.3052Z" fill="#CFCFCF"/>
<path fill-rule="evenodd" clip-rule="evenodd" d="M20.9057 19.8627L20.8701 19.8513L24.732 7.44971L24.7677 7.46082L20.9057 19.8627Z" fill="#CFCFCF"/>
<path fill-rule="evenodd" clip-rule="evenodd" d="M21.6726 19.4202L21.6372 19.4088L25.4988 7.00684L25.5349 7.01822L21.6726 19.4202Z" fill="#CFCFCF"/>
<path fill-rule="evenodd" clip-rule="evenodd" d="M22.4394 18.9774L22.4038 18.966L26.2658 6.56445L26.3014 6.57555L22.4394 18.9774Z" fill="#CFCFCF"/>
<path fill-rule="evenodd" clip-rule="evenodd" d="M10.7148 15.5765L10.6958 15.544L27.1042 6.0708L27.1231 6.10301L10.7148 15.5765Z" fill="#CFCFCF"/>
<path fill-rule="evenodd" clip-rule="evenodd" d="M10.5047 16.6198L10.4858 16.5877L26.8942 7.11426L26.9131 7.14676L10.5047 16.6198Z" fill="#CFCFCF"/>
<path fill-rule="evenodd" clip-rule="evenodd" d="M10.2722 17.379L10.2534 17.3469L26.6617 7.87354L26.6805 7.90594L10.2722 17.379Z" fill="#CFCFCF"/>
<path fill-rule="evenodd" clip-rule="evenodd" d="M10.0394 18.1382L10.021 18.1062L26.4293 8.63232L26.4477 8.66473L10.0394 18.1382Z" fill="#CFCFCF"/>
<path fill-rule="evenodd" clip-rule="evenodd" d="M9.80744 18.8971L9.78857 18.865L26.1972 9.3916L26.2157 9.424L9.80744 18.8971Z" fill="#CFCFCF"/>
<path fill-rule="evenodd" clip-rule="evenodd" d="M9.57506 19.6559L9.55615 19.6235L25.9643 10.1504L25.9833 10.1824L9.57506 19.6559Z" fill="#CFCFCF"/>
<path fill-rule="evenodd" clip-rule="evenodd" d="M9.34264 20.4151L9.32373 20.3827L25.7324 10.9092L25.751 10.9416L9.34264 20.4151Z" fill="#CFCFCF"/>
<path fill-rule="evenodd" clip-rule="evenodd" d="M9.11039 21.1739L9.0918 21.1415L25.5002 11.6685L25.5187 11.701L9.11039 21.1739Z" fill="#CFCFCF"/>
<path fill-rule="evenodd" clip-rule="evenodd" d="M8.87791 21.9333L8.85889 21.9008L25.2675 12.4277L25.2861 12.4598L8.87791 21.9333Z" fill="#CFCFCF"/>
<path fill-rule="evenodd" clip-rule="evenodd" d="M8.64586 22.6921L8.62695 22.6596L25.0353 13.1865L25.0539 13.2189L8.64586 22.6921Z" fill="#CFCFCF"/>
<path fill-rule="evenodd" clip-rule="evenodd" d="M8.41293 23.4512L8.39453 23.4191L24.8028 13.9453L24.8216 13.9777L8.41293 23.4512Z" fill="#CFCFCF"/>
<path fill-rule="evenodd" clip-rule="evenodd" d="M8.1815 24.21L8.1626 24.1776L24.571 14.7041L24.5898 14.7365L8.1815 24.21Z" fill="#CFCFCF"/>
<path fill-rule="evenodd" clip-rule="evenodd" d="M7.94908 24.9691L7.93018 24.9367L24.3385 15.4639L24.357 15.4959L7.94908 24.9691Z" fill="#CFCFCF"/>
<path fill-rule="evenodd" clip-rule="evenodd" d="M7.71654 25.7281L7.69775 25.696L24.1059 16.2222L24.1248 16.255L7.71654 25.7281Z" fill="#CFCFCF"/>
<path fill-rule="evenodd" clip-rule="evenodd" d="M7.4843 26.487L7.46582 26.4549L23.8741 16.9814L23.8927 17.0144L7.4843 26.487Z" fill="#CFCFCF"/>
<path fill-rule="evenodd" clip-rule="evenodd" d="M7.25203 27.2462L7.2334 27.2134L23.6417 17.7402L23.6603 17.7724L7.25203 27.2462Z" fill="#CFCFCF"/>
<path fill-rule="evenodd" clip-rule="evenodd" d="M7.01951 28.005L7.00049 27.9725L23.4088 18.4995L23.4277 18.5315L7.01951 28.005Z" fill="#CFCFCF"/>
<path fill-rule="evenodd" clip-rule="evenodd" d="M30.2483 9.07174L26.895 7.13553L26.9135 7.10303L30.2673 9.03972L30.2483 9.07174Z" fill="#CFCFCF"/>
<path fill-rule="evenodd" clip-rule="evenodd" d="M30.2483 9.9651L26.6626 7.8948L26.6811 7.8623L30.2673 9.93301L30.2483 9.9651Z" fill="#CFCFCF"/>
<path fill-rule="evenodd" clip-rule="evenodd" d="M30.2483 10.8579L26.4302 8.65357L26.4491 8.62158L30.2672 10.8255L30.2483 10.8579Z" fill="#CFCFCF"/>
<path fill-rule="evenodd" clip-rule="evenodd" d="M30.2485 11.7513L26.1987 9.41287L26.2172 9.38086L30.2675 11.7188L30.2485 11.7513Z" fill="#CFCFCF"/>
<path fill-rule="evenodd" clip-rule="evenodd" d="M30.2483 12.6445L25.9658 10.1717L25.9846 10.1396L30.2673 12.612L30.2483 12.6445Z" fill="#CFCFCF"/>
<path fill-rule="evenodd" clip-rule="evenodd" d="M30.2483 13.5376L25.7334 10.9309L25.7524 10.8989L30.2673 13.5052L30.2483 13.5376Z" fill="#CFCFCF"/>
<path fill-rule="evenodd" clip-rule="evenodd" d="M30.2484 14.43L25.5015 11.6896L25.5204 11.6572L26.1755 12.0358L30.2651 14.3969L30.2577 14.414L30.2484 14.43Z" fill="#CFCFCF"/>
<path fill-rule="evenodd" clip-rule="evenodd" d="M30.2484 15.3237L25.2695 12.449L25.2881 12.4165L30.2674 15.2913L30.2484 15.3237Z" fill="#CFCFCF"/>
<path fill-rule="evenodd" clip-rule="evenodd" d="M30.2484 16.2171L25.0371 13.2087L25.0557 13.1763L25.7111 13.5541L30.2674 16.185L30.2484 16.2171Z" fill="#CFCFCF"/>
<path fill-rule="evenodd" clip-rule="evenodd" d="M30.2484 17.1102L24.8047 13.9675L24.8232 13.9351L25.4784 14.3132L30.2674 17.0778L30.2484 17.1102Z" fill="#CFCFCF"/>
<path fill-rule="evenodd" clip-rule="evenodd" d="M30.2483 18.0029L24.5728 14.7262L24.5912 14.6938L30.2673 17.9705L30.2483 18.0029Z" fill="#CFCFCF"/>
<path fill-rule="evenodd" clip-rule="evenodd" d="M30.2483 18.8963L24.3403 15.4852L24.3588 15.4531L30.2673 18.8642L30.2483 18.8963Z" fill="#CFCFCF"/>
<path fill-rule="evenodd" clip-rule="evenodd" d="M30.2483 19.7895L24.1079 16.2443L24.1268 16.2119L30.2673 19.757L30.2483 19.7895Z" fill="#CFCFCF"/>
<path fill-rule="evenodd" clip-rule="evenodd" d="M30.2486 20.6828L24.5309 17.3814L23.8765 17.0033L23.895 16.9712L25.6542 17.987L30.2676 20.6503L30.2486 20.6828Z" fill="#CFCFCF"/>
<path fill-rule="evenodd" clip-rule="evenodd" d="M30.2485 21.5755L24.8622 18.4663L23.644 17.7625L23.6625 17.73L24.8812 18.4335L30.2675 21.5435L30.2485 21.5755Z" fill="#CFCFCF"/>
<path fill-rule="evenodd" clip-rule="evenodd" d="M30.2485 22.469L23.4658 18.5529L23.4843 18.5205L30.2675 22.437L30.2592 22.4538L30.2485 22.469Z" fill="#CFCFCF"/>
<path fill-rule="evenodd" clip-rule="evenodd" d="M30.0762 22.484H30.0386V7.79346H30.0762V22.484Z" fill="#CFCFCF"/>
<path fill-rule="evenodd" clip-rule="evenodd" d="M29.662 22.2443H29.6245V7.54785H29.662V22.2443Z" fill="#CFCFCF"/>
<path fill-rule="evenodd" clip-rule="evenodd" d="M29.2471 22.005H29.21V7.30176H29.2471V22.005Z" fill="#CFCFCF"/>
<path fill-rule="evenodd" clip-rule="evenodd" d="M28.8324 21.7659H28.7949V7.05664H28.8324V21.7659Z" fill="#CFCFCF"/>
<path fill-rule="evenodd" clip-rule="evenodd" d="M28.4183 21.5262H28.3809V6.81055H28.4183V21.5262Z" fill="#CFCFCF"/>
<path fill-rule="evenodd" clip-rule="evenodd" d="M28.0033 21.2867H27.9663V6.56494H28.0033V21.2867Z" fill="#CFCFCF"/>
<path fill-rule="evenodd" clip-rule="evenodd" d="M27.5892 21.0479H27.5518V6.31934H27.5892V21.0479Z" fill="#CFCFCF"/>
<path fill-rule="evenodd" clip-rule="evenodd" d="M27.1741 20.8081H27.1367V6.07324H27.1741V20.8081Z" fill="#CFCFCF"/>
<path fill-rule="evenodd" clip-rule="evenodd" d="M26.7597 20.5689H26.7222V7.6543H26.7597V20.5689Z" fill="#CFCFCF"/>
<path fill-rule="evenodd" clip-rule="evenodd" d="M26.345 20.3293H26.3076V9.00928H26.345V20.3293Z" fill="#CFCFCF"/>
<path fill-rule="evenodd" clip-rule="evenodd" d="M25.9301 20.0896H25.8931V10.3643H25.9301V20.0896Z" fill="#CFCFCF"/>
<path fill-rule="evenodd" clip-rule="evenodd" d="M25.5155 19.8505H25.4785V11.7197H25.5155V19.8505Z" fill="#CFCFCF"/>
<path fill-rule="evenodd" clip-rule="evenodd" d="M25.101 19.6108H25.064V13.0747H25.101V19.6108Z" fill="#CFCFCF"/>
<path fill-rule="evenodd" clip-rule="evenodd" d="M24.6867 19.3722H24.6494V14.4297H24.6867V19.3722Z" fill="#CFCFCF"/>
<path fill-rule="evenodd" clip-rule="evenodd" d="M24.2714 19.1326H24.2344V15.7856H24.2714V19.1326Z" fill="#CFCFCF"/>
<path fill-rule="evenodd" clip-rule="evenodd" d="M23.8572 18.893H23.8198V17.1406H23.8572V18.893Z" fill="#CFCFCF"/>
<path fill-rule="evenodd" clip-rule="evenodd" d="M29.7621 22.5413V22.8959L22.9785 18.9794V18.6245L29.7621 22.5413Z" fill="#BF1700"/>
<path fill-rule="evenodd" clip-rule="evenodd" d="M30.2581 22.2553L29.762 22.5415L22.978 18.625L23.4744 18.3389L30.2581 22.2553Z" fill="#EA1C00"/>
<path fill-rule="evenodd" clip-rule="evenodd" d="M13.8495 31.7299V32.0848L7.06543 28.1684V27.813L13.8495 31.7299Z" fill="#BF1700"/>
<path fill-rule="evenodd" clip-rule="evenodd" d="M8.05713 27.8136V28.1686L23.4743 19.2657V18.9111L8.05713 27.8136Z" fill="#991200"/>
<path fill-rule="evenodd" clip-rule="evenodd" d="M7.56104 27.527L8.05752 27.8135L23.4746 18.911L22.9786 18.6245L7.56104 27.527Z" fill="#EA1C00"/>
<path fill-rule="evenodd" clip-rule="evenodd" d="M14.3457 31.4436L13.8492 31.7302L7.06543 27.8137L7.56164 27.5269L14.3457 31.4436Z" fill="#EA1C00"/>
<path fill-rule="evenodd" clip-rule="evenodd" d="M23.2857 18.8055L22.9785 18.6281L26.618 6.73145L26.9252 6.90895L23.2857 18.8055Z" fill="#BF1700"/>
<path fill-rule="evenodd" clip-rule="evenodd" d="M23.7818 18.5185L23.2861 18.8053L26.9256 6.90869L27.2638 7.10289L23.7818 18.5185Z" fill="#991200"/>
<path fill-rule="evenodd" clip-rule="evenodd" d="M7.37273 27.9906L7.06543 27.8131L10.7053 15.9165L11.0122 16.094L7.37273 27.9906Z" fill="#BF1700"/>
<path fill-rule="evenodd" clip-rule="evenodd" d="M7.86906 27.7041L7.37305 27.9903L11.0125 16.0938L11.3612 16.2973L7.86906 27.7041Z" fill="#991200"/>
<path fill-rule="evenodd" clip-rule="evenodd" d="M14.6519 31.9766L14.1558 32.2628V17.5646L14.6519 17.2783V31.9766Z" fill="#991200"/>
<path fill-rule="evenodd" clip-rule="evenodd" d="M14.1561 32.2624L13.8486 32.0849V17.3867L14.1561 17.5642V32.2624Z" fill="#BF1700"/>
<path fill-rule="evenodd" clip-rule="evenodd" d="M14.3451 17.1011L14.6523 17.2787L14.1561 17.5653L13.8486 17.3878L14.3451 17.1011Z" fill="#EA1C00"/>
<path fill-rule="evenodd" clip-rule="evenodd" d="M30.5654 22.7876L30.0693 23.0743V8.37594L30.5654 8.08984V22.7876Z" fill="#991200"/>
<path fill-rule="evenodd" clip-rule="evenodd" d="M30.0693 23.0735L29.7617 22.8959V8.19775L30.0693 8.37525V23.0735Z" fill="#BF1700"/>
<path fill-rule="evenodd" clip-rule="evenodd" d="M30.2582 7.9126L30.5654 8.0901L30.0693 8.37631L29.7617 8.1992L30.2582 7.9126Z" fill="#EA1C00"/>
<path fill-rule="evenodd" clip-rule="evenodd" d="M14.6523 17.8516V17.2785L30.0694 8.37598V8.94908L14.6523 17.8516Z" fill="#991200"/>
<path fill-rule="evenodd" clip-rule="evenodd" d="M29.7614 8.19775L30.069 8.37525L14.6519 17.278L14.3447 17.1005L29.7614 8.19775Z" fill="#EA1C00"/>
<path fill-rule="evenodd" clip-rule="evenodd" d="M29.7623 8.20105V8.55605L26.6187 6.72766V6.37305L29.7623 8.20105Z" fill="#BF1700"/>
<path fill-rule="evenodd" clip-rule="evenodd" d="M30.2581 7.91531L29.762 8.20181L26.6182 6.37342L27.1143 6.08691L30.2581 7.91531Z" fill="#EA1C00"/>
<path fill-rule="evenodd" clip-rule="evenodd" d="M13.8497 17.3898V17.7448L10.7056 15.9164V15.5615L13.8497 17.3898Z" fill="#BF1700"/>
<path fill-rule="evenodd" clip-rule="evenodd" d="M11.6973 15.5616V15.9162L27.1145 7.01369V6.65869L11.6973 15.5616Z" fill="#991200"/>
<path fill-rule="evenodd" clip-rule="evenodd" d="M11.2017 15.2755L11.6976 15.5617L27.1147 6.65955L26.6188 6.37305L11.2017 15.2755Z" fill="#EA1C00"/>
<path fill-rule="evenodd" clip-rule="evenodd" d="M14.3456 17.1037L13.849 17.3903L10.7056 15.5619L11.2018 15.2754L14.3456 17.1037Z" fill="#EA1C00"/>
<path fill-rule="evenodd" clip-rule="evenodd" d="M13.6542 17.2919L13.6489 17.2733L13.6353 17.2602L14.1399 16.9683L25.4741 10.4241L30.0497 7.78271L30.0681 7.81521L25.493 10.4565L14.1499 17.0057L13.6542 17.2919Z" fill="#CFCFCF"/>
<path fill-rule="evenodd" clip-rule="evenodd" d="M13.2436 17.0481L13.2333 17.0321L13.2256 17.0154L29.6345 7.5415L29.6531 7.57389L25.671 9.87279L13.2436 17.0481Z" fill="#CFCFCF"/>
<path fill-rule="evenodd" clip-rule="evenodd" d="M12.8295 16.8075L12.8071 16.7775L29.2203 7.30078L29.2389 7.33328L12.8295 16.8075Z" fill="#CFCFCF"/>
<path fill-rule="evenodd" clip-rule="evenodd" d="M12.4147 16.5658L12.3916 16.5369L28.8059 7.05957L28.8244 7.09187L26.0285 8.70607L12.4147 16.5658Z" fill="#CFCFCF"/>
<path fill-rule="evenodd" clip-rule="evenodd" d="M14.4068 17.4385L10.9375 15.4383L10.9564 15.4062L10.9981 15.4305L14.4159 17.4036L14.4068 17.4195V17.4385Z" fill="#CFCFCF"/>
<path fill-rule="evenodd" clip-rule="evenodd" d="M15.1638 16.9935L11.7041 14.9959L11.7227 14.9634L15.1862 16.9639L15.1726 16.9778L15.1638 16.9935Z" fill="#CFCFCF"/>
<path fill-rule="evenodd" clip-rule="evenodd" d="M15.9403 16.5531L12.4712 14.5526L12.4901 14.5205L12.5314 14.5448L15.9493 16.5182L15.9399 16.5342L15.9403 16.5531Z" fill="#CFCFCF"/>
<path fill-rule="evenodd" clip-rule="evenodd" d="M16.6973 16.1079L13.2378 14.1101L13.2564 14.0781L16.7199 16.0783L16.7063 16.0925L16.6973 16.1079Z" fill="#CFCFCF"/>
<path fill-rule="evenodd" clip-rule="evenodd" d="M17.4635 15.6647L14.0039 13.6678L14.0229 13.6353L17.4857 15.6346L17.4724 15.6496L17.4635 15.6647Z" fill="#CFCFCF"/>
<path fill-rule="evenodd" clip-rule="evenodd" d="M18.2306 15.2227L14.771 13.2254L14.79 13.1929L18.2531 15.1931L18.2395 15.2073L18.2306 15.2227Z" fill="#CFCFCF"/>
<path fill-rule="evenodd" clip-rule="evenodd" d="M18.9992 14.7805L15.5386 12.7825L15.557 12.75L19.0163 14.7473L18.9992 14.7805Z" fill="#CFCFCF"/>
<path fill-rule="evenodd" clip-rule="evenodd" d="M19.7647 14.3369L16.3052 12.3393L16.3236 12.3071L19.7872 14.3073L19.7733 14.3216L19.7647 14.3369Z" fill="#CFCFCF"/>
<path fill-rule="evenodd" clip-rule="evenodd" d="M20.5309 13.8937L17.0713 11.8968L17.0898 11.8643L20.554 13.8652L20.5398 13.8787L20.5309 13.8937Z" fill="#CFCFCF"/>
<path fill-rule="evenodd" clip-rule="evenodd" d="M21.3077 13.4542L17.8384 11.4544L17.857 11.4219L21.3166 13.4192L21.3077 13.4349V13.4542Z" fill="#CFCFCF"/>
<path fill-rule="evenodd" clip-rule="evenodd" d="M22.0743 13.0116L18.6055 11.0116L18.6144 10.9958V10.9766L18.666 11.0037L22.0833 12.9767L22.0739 12.9927L22.0743 13.0116Z" fill="#CFCFCF"/>
<path fill-rule="evenodd" clip-rule="evenodd" d="M22.8416 12.5687L19.3721 10.5686L19.3906 10.5361L22.8538 12.5366L22.841 12.5498L22.8416 12.5687Z" fill="#CFCFCF"/>
<path fill-rule="evenodd" clip-rule="evenodd" d="M23.5982 12.1231L20.1387 10.1258L20.1479 10.1097V10.0908L20.1999 10.1179L23.6207 12.0938L23.6072 12.1077L23.5982 12.1231Z" fill="#CFCFCF"/>
<path fill-rule="evenodd" clip-rule="evenodd" d="M24.3667 11.6813L20.9053 9.68289L20.9242 9.65039L20.9666 9.6751L24.3831 11.6477L24.3667 11.6813Z" fill="#CFCFCF"/>
<path fill-rule="evenodd" clip-rule="evenodd" d="M25.1314 11.2378L21.6719 9.24051L21.6907 9.20801L21.733 9.23301L25.1546 11.2089L25.1403 11.2224L25.1314 11.2378Z" fill="#CFCFCF"/>
<path fill-rule="evenodd" clip-rule="evenodd" d="M25.8995 10.7956L22.4385 8.79764L22.457 8.76514L25.9162 10.7624L25.8995 10.7956Z" fill="#CFCFCF"/>
<path fill-rule="evenodd" clip-rule="evenodd" d="M26.6646 10.3521L23.2051 8.35484L23.2241 8.32275L26.6872 10.3225L26.6736 10.3371L26.6646 10.3521Z" fill="#CFCFCF"/>
<path fill-rule="evenodd" clip-rule="evenodd" d="M27.4333 9.9099L23.9722 7.91189L23.9908 7.87939L24.0335 7.90439L27.4502 9.8766L27.4333 9.9099Z" fill="#CFCFCF"/>
<path fill-rule="evenodd" clip-rule="evenodd" d="M28.1983 9.46681L24.7388 7.46951L24.7572 7.43701L24.8004 7.4617L28.2204 9.4376L28.2068 9.4514L28.1983 9.46681Z" fill="#CFCFCF"/>
<path fill-rule="evenodd" clip-rule="evenodd" d="M28.9666 9.02504L25.5054 7.02664L25.5242 6.99414L28.9831 8.99144L28.9666 9.02504Z" fill="#CFCFCF"/>
<path fill-rule="evenodd" clip-rule="evenodd" d="M29.7334 8.58226L26.2725 6.58396L26.291 6.55176L29.7502 8.54906L29.7334 8.58226Z" fill="#CFCFCF"/>
<path fill-rule="evenodd" clip-rule="evenodd" d="M12.0002 16.3255L11.9775 16.2959L28.3911 6.81885L28.41 6.85135L26.2064 8.12324L12.0002 16.3255Z" fill="#CFCFCF"/>
<path fill-rule="evenodd" clip-rule="evenodd" d="M11.5816 16.0866L11.576 16.0674L11.5674 16.0518L12.0628 15.7652L26.3709 7.50463L27.9768 6.57764L27.9954 6.61004L11.5816 16.0866Z" fill="#CFCFCF"/>
<path fill-rule="evenodd" clip-rule="evenodd" d="M11.2703 16.2631L11.27 16.2261L11.2703 16.2631Z" fill="#CFCFCF"/>
<path fill-rule="evenodd" clip-rule="evenodd" d="M11.167 15.8457L11.1618 15.8268L11.1528 15.8111L11.6529 15.5228L26.545 6.9243L27.5623 6.33691L27.5808 6.36941L26.5635 6.95631L11.6667 15.5574L11.167 15.8457Z" fill="#CFCFCF"/>
<path fill-rule="evenodd" clip-rule="evenodd" d="M10.7568 15.6019L10.7465 15.5863L10.7383 15.5695L11.238 15.2811L26.6494 6.3833L27.1472 6.0957L27.1657 6.1277L10.7568 15.6019Z" fill="#CFCFCF"/>
<path fill-rule="evenodd" clip-rule="evenodd" d="M13.8397 18.5562L10.4858 16.62L10.5047 16.5879L13.8583 18.5238L13.8397 18.5562Z" fill="#CFCFCF"/>
<path fill-rule="evenodd" clip-rule="evenodd" d="M13.8395 19.4496L10.2534 17.3793L10.2722 17.3472L13.8581 19.4172L13.8395 19.4496Z" fill="#CFCFCF"/>
<path fill-rule="evenodd" clip-rule="evenodd" d="M13.8394 20.3428L10.021 18.1384L10.0394 18.1064L13.858 20.3107L13.8394 20.3428Z" fill="#CFCFCF"/>
<path fill-rule="evenodd" clip-rule="evenodd" d="M13.8396 21.236L9.78906 18.8973L9.80754 18.8652L13.8582 21.2035L13.8396 21.236Z" fill="#CFCFCF"/>
<path fill-rule="evenodd" clip-rule="evenodd" d="M13.8396 22.1288L9.55713 19.6564L9.57561 19.624L13.8582 22.0963L13.8396 22.1288Z" fill="#CFCFCF"/>
<path fill-rule="evenodd" clip-rule="evenodd" d="M13.8396 23.022L9.32471 20.4157L9.3433 20.3833L13.8582 22.99L13.8396 23.022Z" fill="#CFCFCF"/>
<path fill-rule="evenodd" clip-rule="evenodd" d="M13.8386 23.915L9.09229 21.1745L9.11092 21.1421L13.8561 23.8822L13.8485 23.8992L13.8386 23.915Z" fill="#CFCFCF"/>
<path fill-rule="evenodd" clip-rule="evenodd" d="M13.8396 24.8077L8.86035 21.933L8.87895 21.9009L13.8582 24.776L13.8396 24.8077Z" fill="#CFCFCF"/>
<path fill-rule="evenodd" clip-rule="evenodd" d="M13.8396 25.7014L8.62793 22.693L8.64684 22.6606L9.30195 23.0387L13.8582 25.6694L13.8396 25.7014Z" fill="#CFCFCF"/>
<path fill-rule="evenodd" clip-rule="evenodd" d="M13.8395 26.5948L8.39551 23.4518L8.41402 23.4194L9.06941 23.7975L13.8581 26.5624L13.8395 26.5948Z" fill="#CFCFCF"/>
<path fill-rule="evenodd" clip-rule="evenodd" d="M13.8397 27.4882L8.16357 24.2111L8.18244 24.1787L13.8583 27.4558L13.8397 27.4882Z" fill="#CFCFCF"/>
<path fill-rule="evenodd" clip-rule="evenodd" d="M13.8395 28.3807L7.93115 24.9699L7.94963 24.9375L13.8581 28.3483L13.8395 28.3807Z" fill="#CFCFCF"/>
<path fill-rule="evenodd" clip-rule="evenodd" d="M13.8394 29.2739L7.69873 25.7287L7.71752 25.6963L13.858 29.2414L13.8394 29.2739Z" fill="#CFCFCF"/>
<path fill-rule="evenodd" clip-rule="evenodd" d="M13.8396 30.1668L8.12148 26.8659L7.4668 26.4878L7.48559 26.4556L9.24488 27.4718L13.8582 30.1347L13.8396 30.1668Z" fill="#CFCFCF"/>
<path fill-rule="evenodd" clip-rule="evenodd" d="M13.8397 31.06L7.23486 27.2466L7.25334 27.2144L8.47185 27.9179L13.8583 31.0276L13.8397 31.06Z" fill="#CFCFCF"/>
<path fill-rule="evenodd" clip-rule="evenodd" d="M13.8396 31.9535L7.05664 28.0374L7.07496 28.0049L13.8582 31.9214L13.8498 31.9381L13.8396 31.9535Z" fill="#CFCFCF"/>
<path fill-rule="evenodd" clip-rule="evenodd" d="M13.667 31.9688H13.6294V17.2783H13.667V31.9688Z" fill="#CFCFCF"/>
<path fill-rule="evenodd" clip-rule="evenodd" d="M13.2522 31.7291H13.2148V17.0322H13.2522V31.7291Z" fill="#CFCFCF"/>
<path fill-rule="evenodd" clip-rule="evenodd" d="M12.8378 31.4895H12.8003V16.7861H12.8378V31.4895Z" fill="#CFCFCF"/>
<path fill-rule="evenodd" clip-rule="evenodd" d="M12.4236 31.2503H12.3857V16.541H12.4236V31.2503Z" fill="#CFCFCF"/>
<path fill-rule="evenodd" clip-rule="evenodd" d="M12.0086 31.0109H11.9712V16.2949H12.0086V31.0109Z" fill="#CFCFCF"/>
<path fill-rule="evenodd" clip-rule="evenodd" d="M11.5937 30.7718H11.5566V16.0493H11.5937V30.7718Z" fill="#CFCFCF"/>
<path fill-rule="evenodd" clip-rule="evenodd" d="M11.1795 30.5323H11.1421V15.8037H11.1795V30.5323Z" fill="#CFCFCF"/>
<path fill-rule="evenodd" clip-rule="evenodd" d="M10.7648 30.2931H10.7275V15.5581H10.7648V30.2931Z" fill="#CFCFCF"/>
<path fill-rule="evenodd" clip-rule="evenodd" d="M10.3504 30.0533H10.313V17.1387H10.3504V30.0533Z" fill="#CFCFCF"/>
<path fill-rule="evenodd" clip-rule="evenodd" d="M9.93537 29.8145H9.89795V18.4941H9.93537V29.8145Z" fill="#CFCFCF"/>
<path fill-rule="evenodd" clip-rule="evenodd" d="M9.52078 29.5745H9.4834V19.8491H9.52078V29.5745Z" fill="#CFCFCF"/>
<path fill-rule="evenodd" clip-rule="evenodd" d="M9.10676 29.3355H9.06934V21.2041H9.10676V29.3355Z" fill="#CFCFCF"/>
<path fill-rule="evenodd" clip-rule="evenodd" d="M8.69168 29.0956H8.6543V22.5591H8.69168V29.0956Z" fill="#CFCFCF"/>
<path fill-rule="evenodd" clip-rule="evenodd" d="M8.27717 28.8567H8.23975V23.9146H8.27717V28.8567Z" fill="#CFCFCF"/>
<path fill-rule="evenodd" clip-rule="evenodd" d="M7.8625 28.6173H7.8252V25.27H7.8625V28.6173Z" fill="#CFCFCF"/>
<path fill-rule="evenodd" clip-rule="evenodd" d="M7.44758 28.3779H7.41016V26.625H7.44758V28.3779Z" fill="#CFCFCF"/>
</svg>
