<svg width="73" height="95" viewBox="0 0 73 95" fill="none" xmlns="http://www.w3.org/2000/svg">
<path fill-rule="evenodd" clip-rule="evenodd" d="M22.8689 3.57861H48.7876C56.8109 3.57861 63.3753 10.1431 63.3753 18.1663V77.1708C63.3753 85.1942 56.8109 91.7585 48.7876 91.7585H22.8689C14.8456 91.7585 8.28125 85.1942 8.28125 77.1708V18.1663C8.28125 10.1431 14.8456 3.57861 22.8689 3.57861Z" fill="#BBE5FB"/>
<path fill-rule="evenodd" clip-rule="evenodd" d="M39.3701 14.4278V14.383C39.3701 14.2915 39.3553 14.2056 39.331 14.1178C39.1219 13.356 38.0277 12.7734 36.7076 12.7734H34.9317C33.4604 12.7734 32.269 13.4942 32.269 14.383V14.3941V14.4726H39.3701V14.4278Z" fill="#C7EAFB"/>
<path fill-rule="evenodd" clip-rule="evenodd" d="M36.7782 14.4598L39.3475 11.8905L39.3008 11.8457L36.7334 14.4131L36.7782 14.4598Z" fill="#E1F3FC"/>
<path fill-rule="evenodd" clip-rule="evenodd" d="M35.908 14.4563L38.9142 11.4501L38.8675 11.4053L35.8613 14.4115L35.908 14.4563Z" fill="#E1F3FC"/>
<path fill-rule="evenodd" clip-rule="evenodd" d="M36.2014 14.4839L39.0546 11.6307L39.0098 11.5859L36.1548 14.4391L36.2014 14.4839Z" fill="#E1F3FC"/>
<path fill-rule="evenodd" clip-rule="evenodd" d="M36.3714 14.5476L39.0919 11.827L39.0471 11.7822L36.3267 14.5028L36.3714 14.5476Z" fill="#E1F3FC"/>
<path fill-rule="evenodd" clip-rule="evenodd" d="M37.2429 14.5046L39.4034 12.346L39.3586 12.2993L37.1982 14.4597L37.2429 14.5046Z" fill="#E1F3FC"/>
<path fill-rule="evenodd" clip-rule="evenodd" d="M36.9594 14.5121L39.5174 11.9559L39.4708 11.9111L36.9146 14.4673L36.9594 14.5121Z" fill="#E1F3FC"/>
<path fill-rule="evenodd" clip-rule="evenodd" d="M35.0697 14.4021L38.5147 10.9589L38.47 10.9141L35.0249 14.3573L35.0697 14.4021Z" fill="#E1F3FC"/>
<path fill-rule="evenodd" clip-rule="evenodd" d="M34.1678 14.4503L37.8668 10.7513L37.822 10.7065L34.123 14.4055L34.1678 14.4503Z" fill="#E1F3FC"/>
<path fill-rule="evenodd" clip-rule="evenodd" d="M34.4818 14.4376L38.1397 10.7797L38.0948 10.7349L34.437 14.3928L34.4818 14.4376Z" fill="#E1F3FC"/>
<path fill-rule="evenodd" clip-rule="evenodd" d="M34.702 14.4507L38.2702 10.8843L38.2254 10.8394L34.6572 14.4059L34.702 14.4507Z" fill="#E1F3FC"/>
<path fill-rule="evenodd" clip-rule="evenodd" d="M35.6263 14.4204L38.7558 11.2928L38.7092 11.2461L35.5815 14.3756L35.6263 14.4204Z" fill="#E1F3FC"/>
<path fill-rule="evenodd" clip-rule="evenodd" d="M35.4135 14.3571L38.6551 11.1156L38.6083 11.0708L35.3687 14.3123L35.4135 14.3571Z" fill="#E1F3FC"/>
<path fill-rule="evenodd" clip-rule="evenodd" d="M33.2699 14.4578L37.051 10.6766L37.0063 10.6318L33.2251 14.4129L33.2699 14.4578Z" fill="#E1F3FC"/>
<path fill-rule="evenodd" clip-rule="evenodd" d="M32.3886 14.404L36.0876 10.705L36.0428 10.6602L32.3438 14.3592L32.3886 14.404Z" fill="#E1F3FC"/>
<path fill-rule="evenodd" clip-rule="evenodd" d="M32.7225 14.4132L36.4832 10.6508L36.4384 10.606L32.6777 14.3665L32.7225 14.4132Z" fill="#E1F3FC"/>
<path fill-rule="evenodd" clip-rule="evenodd" d="M33.0253 14.3849L36.7859 10.6224L36.7411 10.5776L32.9805 14.3383L33.0253 14.3849Z" fill="#E1F3FC"/>
<path fill-rule="evenodd" clip-rule="evenodd" d="M33.9086 14.3944L37.5254 10.7777L37.4806 10.731L33.8638 14.3495L33.9086 14.3944Z" fill="#E1F3FC"/>
<path fill-rule="evenodd" clip-rule="evenodd" d="M33.604 14.4222L37.3944 10.6317L37.3495 10.5869L33.5591 14.3774L33.604 14.4222Z" fill="#E1F3FC"/>
<path fill-rule="evenodd" clip-rule="evenodd" d="M32.1941 13.7689L35.2191 10.7421L35.1741 10.6973L32.1475 13.7241L32.1941 13.7689Z" fill="#E1F3FC"/>
<path fill-rule="evenodd" clip-rule="evenodd" d="M32.2299 12.9248L34.6031 10.5516L34.5583 10.5068L32.1851 12.88L32.2299 12.9248Z" fill="#E1F3FC"/>
<path fill-rule="evenodd" clip-rule="evenodd" d="M32.0749 13.3356L34.7955 10.6151L34.7507 10.5703L32.0283 13.2908L32.0749 13.3356Z" fill="#E1F3FC"/>
<path fill-rule="evenodd" clip-rule="evenodd" d="M32.1941 13.5112L35.0248 10.6786L34.98 10.6338L32.1475 13.4664L32.1941 13.5112Z" fill="#E1F3FC"/>
<path fill-rule="evenodd" clip-rule="evenodd" d="M32.4032 14.1348L35.8781 10.6599L35.8333 10.6133L32.3584 14.0881L32.4032 14.1348Z" fill="#E1F3FC"/>
<path fill-rule="evenodd" clip-rule="evenodd" d="M32.6702 13.5915L35.6242 10.6357L35.5793 10.5908L32.6235 13.5466L32.6702 13.5915Z" fill="#E1F3FC"/>
<path fill-rule="evenodd" clip-rule="evenodd" d="M32.2636 12.6148L34.4538 10.4245L34.409 10.3779L32.2188 12.57L32.2636 12.6148Z" fill="#E1F3FC"/>
<path fill-rule="evenodd" clip-rule="evenodd" d="M32.2782 12.1912L33.8074 10.6639L33.7626 10.6172L32.2334 12.1464L32.2782 12.1912Z" fill="#E1F3FC"/>
<path fill-rule="evenodd" clip-rule="evenodd" d="M32.243 12.4432L34.1999 10.4882L34.1552 10.4434L32.1982 12.3984L32.243 12.4432Z" fill="#E1F3FC"/>
<path fill-rule="evenodd" clip-rule="evenodd" d="M38.2758 14.5158L39.426 13.3656L39.3812 13.3208L38.231 14.471L38.2758 14.5158Z" fill="#E1F3FC"/>
<path fill-rule="evenodd" clip-rule="evenodd" d="M37.5571 14.426L39.4616 12.5213L39.4168 12.4766L37.5122 14.3812L37.5571 14.426Z" fill="#E1F3FC"/>
<path fill-rule="evenodd" clip-rule="evenodd" d="M37.8182 14.4184L39.439 12.7996L39.3942 12.7529L37.7734 14.3736L37.8182 14.4184Z" fill="#E1F3FC"/>
<path fill-rule="evenodd" clip-rule="evenodd" d="M38.0199 14.5137L39.6089 12.9247L39.5641 12.8799L37.9751 14.4671L38.0199 14.5137Z" fill="#E1F3FC"/>
<path fill-rule="evenodd" clip-rule="evenodd" d="M38.7596 14.5419L39.2787 14.0228L39.2339 13.978L38.7148 14.4971L38.7596 14.5419Z" fill="#E1F3FC"/>
<path fill-rule="evenodd" clip-rule="evenodd" d="M38.5468 14.4787L39.1573 13.868L39.1125 13.8232L38.502 14.432L38.5468 14.4787Z" fill="#E1F3FC"/>
<path fill-rule="evenodd" clip-rule="evenodd" d="M8.05908 61.5439H63.5976V62.422H8.05908V61.5439Z" fill="#0092D5"/>
<path fill-rule="evenodd" clip-rule="evenodd" d="M8.05908 32.915H63.5976V33.7929H8.05908V32.915Z" fill="#0092D5"/>
<path fill-rule="evenodd" clip-rule="evenodd" d="M8.16846 47.964H35.0328C34.9985 47.8719 34.9786 47.7727 34.9786 47.6687C34.9787 47.5645 34.9985 47.4651 35.0328 47.373H8.16846V47.964Z" fill="#ED3237"/>
<path fill-rule="evenodd" clip-rule="evenodd" d="M36.624 47.964H63.489V47.373H36.624C36.658 47.4651 36.6779 47.5646 36.6779 47.6687C36.6779 47.7727 36.658 47.8719 36.624 47.964Z" fill="#ED3237"/>
<path fill-rule="evenodd" clip-rule="evenodd" d="M35.157 47.9178C35.2585 48.1904 35.5205 48.385 35.8284 48.385C36.1365 48.385 36.3986 48.1904 36.4998 47.9178C36.5288 47.84 36.5454 47.7561 36.5454 47.6681C36.5454 47.5804 36.5288 47.4965 36.4998 47.4187C36.3983 47.146 36.1365 46.9517 35.8284 46.9517C35.5205 46.9516 35.2587 47.146 35.1573 47.4187C35.1282 47.4964 35.1118 47.5804 35.1118 47.6681C35.1118 47.7561 35.1282 47.84 35.157 47.9178Z" fill="#ED3237"/>
<path fill-rule="evenodd" clip-rule="evenodd" d="M35.8282 55.9614C31.2552 55.9614 27.535 52.241 27.535 47.6684C27.535 43.096 31.2552 39.3759 35.8282 39.3759C40.4013 39.3759 44.1216 43.096 44.1216 47.6684C44.1216 52.2409 40.4012 55.9614 35.8282 55.9614ZM44.4204 47.6684C44.4204 42.9306 40.566 39.0767 35.8282 39.0767C31.0906 39.0767 27.2363 42.9306 27.2363 47.6684C27.2363 52.4061 31.0906 56.2603 35.8282 56.2603C40.566 56.2603 44.4204 52.4061 44.4204 47.6684Z" fill="#ED3237"/>
<path fill-rule="evenodd" clip-rule="evenodd" d="M49.0454 72.5026V72.4756H49.0183H47.667V72.5302H48.9903V74.3288H49.0454V72.5026Z" fill="#ED3237"/>
<path fill-rule="evenodd" clip-rule="evenodd" d="M49.0454 71.4071V71.4341H49.0183H47.667V71.3791H48.9903V69.5806H49.0454V71.4071Z" fill="#ED3237"/>
<path fill-rule="evenodd" clip-rule="evenodd" d="M49.749 72.5026V72.4756H49.7761H51.1273V72.5302H49.8034V74.3288H49.749V72.5026Z" fill="#ED3237"/>
<path fill-rule="evenodd" clip-rule="evenodd" d="M49.749 71.4071V71.4341H49.7761H51.1273V71.3791H49.8034V69.5806H49.749V71.4071Z" fill="#ED3237"/>
<path fill-rule="evenodd" clip-rule="evenodd" d="M49.3975 76.652C46.8074 76.652 44.7003 74.5451 44.7003 71.9549C44.7003 69.3653 46.8074 67.2578 49.3975 67.2578C51.9873 67.2578 54.0941 69.3653 54.0941 71.9549C54.0942 74.5451 51.9873 76.652 49.3975 76.652ZM54.2637 71.9549C54.2637 69.2717 52.0804 67.0889 49.3975 67.0889C46.7142 67.0889 44.5312 69.2717 44.5312 71.9549C44.5312 74.6387 46.7142 76.8213 49.3975 76.8213C52.0804 76.8213 54.2636 74.6387 54.2637 71.9549Z" fill="#ED3237"/>
<path fill-rule="evenodd" clip-rule="evenodd" d="M49.7307 71.9548C49.7307 71.771 49.5819 71.6221 49.3975 71.6221C49.213 71.622 49.0645 71.771 49.0645 71.9548C49.0645 72.1395 49.213 72.2882 49.3975 72.2882C49.5819 72.2882 49.7307 72.1395 49.7307 71.9548Z" fill="#ED3237"/>
<path fill-rule="evenodd" clip-rule="evenodd" d="M42.8804 72.4204H44.6157V72.5474H42.8804V72.4204Z" fill="#ED3237"/>
<path fill-rule="evenodd" clip-rule="evenodd" d="M42.8804 71.3628H44.6157V71.4896H42.8804V71.3628Z" fill="#ED3237"/>
<path fill-rule="evenodd" clip-rule="evenodd" d="M54.1787 72.4204H55.914V72.5474H54.1787V72.4204Z" fill="#ED3237"/>
<path fill-rule="evenodd" clip-rule="evenodd" d="M54.1787 71.3628H55.914V71.4896H54.1787V71.3628Z" fill="#ED3237"/>
<path fill-rule="evenodd" clip-rule="evenodd" d="M21.9083 72.5026V72.4756H21.8811H20.5298V72.5302H21.8529V74.3288H21.9083V72.5026Z" fill="#ED3237"/>
<path fill-rule="evenodd" clip-rule="evenodd" d="M21.9083 71.4071V71.4341H21.8811H20.5298V71.3791H21.8529V69.5806H21.9083V71.4071Z" fill="#ED3237"/>
<path fill-rule="evenodd" clip-rule="evenodd" d="M22.6118 72.5026V72.4756H22.6391H23.9901V72.5302H22.666V74.3288H22.6118V72.5026Z" fill="#ED3237"/>
<path fill-rule="evenodd" clip-rule="evenodd" d="M22.6118 71.4071V71.4341H22.6391H23.9901V71.3791H22.666V69.5806H22.6118V71.4071Z" fill="#ED3237"/>
<path fill-rule="evenodd" clip-rule="evenodd" d="M22.26 76.652C19.6695 76.652 17.5629 74.5451 17.5629 71.9549C17.5629 69.3653 19.6695 67.2578 22.26 67.2578C24.8501 67.2578 26.9569 69.3653 26.9569 71.9549C26.957 74.5451 24.8501 76.652 22.26 76.652ZM27.126 71.9549C27.126 69.2717 24.943 67.0889 22.26 67.0889C19.5766 67.0889 17.3936 69.2717 17.3936 71.9549C17.3936 74.6387 19.5766 76.8213 22.26 76.8213C24.943 76.8213 27.126 74.6387 27.126 71.9549Z" fill="#ED3237"/>
<path fill-rule="evenodd" clip-rule="evenodd" d="M22.5932 71.9548C22.5932 71.771 22.444 71.6221 22.26 71.6221C22.0756 71.622 21.9268 71.771 21.9268 71.9548C21.9269 72.1395 22.0756 72.2882 22.26 72.2882C22.444 72.2882 22.5932 72.1395 22.5932 71.9548Z" fill="#ED3237"/>
<path fill-rule="evenodd" clip-rule="evenodd" d="M15.7437 72.4204H17.4788V72.5474H15.7437V72.4204Z" fill="#ED3237"/>
<path fill-rule="evenodd" clip-rule="evenodd" d="M15.7437 71.3628H17.4788V71.4896H15.7437V71.3628Z" fill="#ED3237"/>
<path fill-rule="evenodd" clip-rule="evenodd" d="M27.0415 72.4204H28.7766V72.5474H27.0415V72.4204Z" fill="#ED3237"/>
<path fill-rule="evenodd" clip-rule="evenodd" d="M27.0415 71.3628H28.7766V71.4896H27.0415V71.3628Z" fill="#ED3237"/>
<path fill-rule="evenodd" clip-rule="evenodd" d="M49.0454 23.9295V23.9028H49.0183H47.667V23.9569H48.9903V25.7559H49.0454V23.9295Z" fill="#ED3237"/>
<path fill-rule="evenodd" clip-rule="evenodd" d="M49.0454 22.834V22.8612H49.0183H47.667V22.8062H48.9903V21.0078H49.0454V22.834Z" fill="#ED3237"/>
<path fill-rule="evenodd" clip-rule="evenodd" d="M49.749 23.9295V23.9028H49.7761H51.1273V23.9569H49.8034V25.7559H49.749V23.9295Z" fill="#ED3237"/>
<path fill-rule="evenodd" clip-rule="evenodd" d="M49.749 22.834V22.8612H49.7761H51.1273V22.8062H49.8034V21.0078H49.749V22.834Z" fill="#ED3237"/>
<path fill-rule="evenodd" clip-rule="evenodd" d="M49.3975 28.0784C46.8074 28.0784 44.7003 25.9718 44.7003 23.3815C44.7003 20.7917 46.8074 18.6844 49.3975 18.6844C51.9873 18.6844 54.0941 20.7917 54.0941 23.3815C54.0942 25.9718 51.9873 28.0785 49.3975 28.0784ZM54.2637 23.3815C54.2637 20.6981 52.0804 18.5156 49.3975 18.5156C46.7142 18.5156 44.5312 20.6981 44.5312 23.3815C44.5312 26.0653 46.7142 28.2477 49.3975 28.2477C52.0804 28.2477 54.2636 26.0654 54.2637 23.3815Z" fill="#ED3237"/>
<path fill-rule="evenodd" clip-rule="evenodd" d="M49.7307 23.3818C49.7307 23.1976 49.5819 23.0488 49.3975 23.0488C49.213 23.0488 49.0645 23.1976 49.0645 23.3818C49.0645 23.566 49.213 23.7148 49.3975 23.7148C49.5819 23.7148 49.7307 23.5661 49.7307 23.3818Z" fill="#ED3237"/>
<path fill-rule="evenodd" clip-rule="evenodd" d="M42.8804 23.8477H44.6157V23.974H42.8804V23.8477Z" fill="#ED3237"/>
<path fill-rule="evenodd" clip-rule="evenodd" d="M42.8804 22.7896H44.6157V22.9164H42.8804V22.7896Z" fill="#ED3237"/>
<path fill-rule="evenodd" clip-rule="evenodd" d="M54.1787 23.8477H55.914V23.974H54.1787V23.8477Z" fill="#ED3237"/>
<path fill-rule="evenodd" clip-rule="evenodd" d="M54.1787 22.7896H55.914V22.9164H54.1787V22.7896Z" fill="#ED3237"/>
<path fill-rule="evenodd" clip-rule="evenodd" d="M21.9085 23.9295V23.9028H21.8813H20.5303V23.9569H21.8531V25.7559H21.9085V23.9295Z" fill="#ED3237"/>
<path fill-rule="evenodd" clip-rule="evenodd" d="M21.9085 22.834V22.8612H21.8813H20.5303V22.8062H21.8531V21.0078H21.9085V22.834Z" fill="#ED3237"/>
<path fill-rule="evenodd" clip-rule="evenodd" d="M22.6118 23.9295V23.9028H22.6391H23.9901V23.9569H22.666V25.7559H22.6118V23.9295Z" fill="#ED3237"/>
<path fill-rule="evenodd" clip-rule="evenodd" d="M22.6118 22.834V22.8612H22.6391H23.9901V22.8062H22.666V21.0078H22.6118V22.834Z" fill="#ED3237"/>
<path fill-rule="evenodd" clip-rule="evenodd" d="M22.26 28.0784C19.6695 28.0784 17.5631 25.9718 17.5631 23.3815C17.5631 20.7917 19.6695 18.6844 22.26 18.6844C24.8501 18.6844 26.9569 20.7917 26.9569 23.3815C26.957 25.9718 24.8501 28.0785 22.26 28.0784ZM27.126 23.3815C27.126 20.6981 24.943 18.5156 22.26 18.5156C19.5766 18.5156 17.3936 20.6981 17.3936 23.3815C17.3936 26.0653 19.5766 28.2477 22.26 28.2477C24.943 28.2477 27.126 26.0654 27.126 23.3815Z" fill="#ED3237"/>
<path fill-rule="evenodd" clip-rule="evenodd" d="M22.593 23.3818C22.593 23.1976 22.4438 23.0488 22.2598 23.0488C22.0754 23.0488 21.9268 23.1976 21.9268 23.3818C21.9268 23.566 22.0754 23.7148 22.2598 23.7148C22.4438 23.7148 22.593 23.5661 22.593 23.3818Z" fill="#ED3237"/>
<path fill-rule="evenodd" clip-rule="evenodd" d="M15.7432 23.8477H17.4787V23.974H15.7432V23.8477Z" fill="#ED3237"/>
<path fill-rule="evenodd" clip-rule="evenodd" d="M15.7432 22.7896H17.4787V22.9164H15.7432V22.7896Z" fill="#ED3237"/>
<path fill-rule="evenodd" clip-rule="evenodd" d="M27.0415 23.8477H28.7766V23.974H27.0415V23.8477Z" fill="#ED3237"/>
<path fill-rule="evenodd" clip-rule="evenodd" d="M27.0415 22.7896H28.7766V22.9164H27.0415V22.7896Z" fill="#ED3237"/>
<path fill-rule="evenodd" clip-rule="evenodd" d="M49.353 59.4403C49.353 59.1139 49.0888 58.8496 48.7631 58.8496C48.4368 58.8496 48.1724 59.1139 48.1724 59.4403C48.1725 59.7662 48.4368 60.0303 48.7631 60.0303C49.0888 60.0303 49.3529 59.7662 49.353 59.4403Z" fill="#ED3237"/>
<path fill-rule="evenodd" clip-rule="evenodd" d="M23.4842 59.4403C23.4842 59.1139 23.2201 58.8496 22.894 58.8496C22.568 58.8496 22.3037 59.1139 22.3037 59.4403C22.3037 59.7662 22.568 60.0303 22.894 60.0303C23.2201 60.0303 23.4842 59.7662 23.4842 59.4403Z" fill="#ED3237"/>
<path fill-rule="evenodd" clip-rule="evenodd" d="M49.353 35.8968C49.353 35.5706 49.0888 35.3062 48.7631 35.3062C48.4368 35.3062 48.1724 35.5707 48.1724 35.8968C48.1725 36.223 48.4368 36.4872 48.7631 36.4872C49.0888 36.4872 49.3529 36.223 49.353 35.8968Z" fill="#ED3237"/>
<path fill-rule="evenodd" clip-rule="evenodd" d="M23.4842 35.8968C23.4842 35.5706 23.2201 35.3062 22.894 35.3062C22.568 35.3062 22.3037 35.5707 22.3037 35.8968C22.3037 36.223 22.568 36.4872 22.894 36.4872C23.2201 36.4872 23.4842 36.223 23.4842 35.8968Z" fill="#ED3237"/>
<path fill-rule="evenodd" clip-rule="evenodd" d="M8.41162 14.4209H63.2454V14.7276H8.41162V14.4209Z" fill="#ED3237"/>
<path fill-rule="evenodd" clip-rule="evenodd" d="M8.41162 80.6621H63.2454V80.9685H8.41162V80.6621Z" fill="#ED3237"/>
<path fill-rule="evenodd" clip-rule="evenodd" d="M7.84131 77.0835C7.84131 85.4327 15.0814 92.2259 23.9821 92.2259H47.6741C56.5748 92.2259 63.8159 85.4327 63.8159 77.0835V18.2525C63.8159 9.90363 56.5747 3.11084 47.6741 3.11084H23.9821C15.0815 3.11084 7.84131 9.90363 7.84131 18.2525V77.0835ZM8.4908 18.2525C8.4908 10.2476 15.4404 3.73424 23.9821 3.73424H47.6741C56.2158 3.73424 63.1652 10.2476 63.1652 18.2525V77.0835C63.1652 85.0887 56.2158 91.6016 47.6741 91.6016H23.9821C15.4404 91.6016 8.4908 85.0887 8.4908 77.0835V18.2525Z" fill="#0A63AD"/>
<path fill-rule="evenodd" clip-rule="evenodd" d="M6.13135 78.8803C6.13135 87.7396 13.8137 94.9478 23.2581 94.9478H48.3973C57.8417 94.9478 65.5251 87.7396 65.5251 78.8803V16.456C65.5251 7.59687 57.8417 0.38916 48.3973 0.38916H23.2582C13.8137 0.38916 6.13135 7.59687 6.13135 16.4561V78.8803ZM6.82072 16.456C6.82072 7.96197 14.1946 1.05066 23.2581 1.05066H48.3973C57.461 1.05066 64.8349 7.96197 64.8349 16.4561V78.8803C64.8349 87.3745 57.461 94.2855 48.3973 94.2855H23.2582C14.1946 94.2855 6.82072 87.3745 6.82072 78.8803V16.456Z" fill="#FEFEFE"/>
<path fill-rule="evenodd" clip-rule="evenodd" d="M30.8281 18.8723C30.8281 19.2631 32.5069 21.1885 35.8287 21.1885C38.5916 21.1885 40.0449 19.9174 40.4244 19.5276C40.5775 19.3699 40.8343 19.0746 40.8292 18.8677C40.8273 18.7839 40.8282 16.0266 40.8292 14.5802V14.4189H40.668H30.9893H30.8281V14.5802V18.8723ZM30.9893 14.7412H40.668L40.5072 14.5802C40.5068 14.7512 40.504 18.769 40.5072 18.8761V18.8704C40.4678 19.155 38.9619 20.8663 35.8287 20.8663C32.7812 20.8663 31.2197 19.1568 31.1493 18.8588L31.1505 18.8723V14.5802L30.9893 14.7412Z" fill="#ED3237"/>
<path fill-rule="evenodd" clip-rule="evenodd" d="M39.4189 18.7036H40.7618V19.0528H39.4189V18.7036Z" fill="#ED3237"/>
<path fill-rule="evenodd" clip-rule="evenodd" d="M31.0913 18.7036H32.4345V19.0528H31.0913V18.7036Z" fill="#ED3237"/>
<path fill-rule="evenodd" clip-rule="evenodd" d="M32.473 14.7277C32.3745 14.4727 32.3197 14.1937 32.3197 13.9004V13.0613C32.3197 11.8707 33.2172 10.905 34.3245 10.905H37.3324C38.4394 10.905 39.337 11.8707 39.337 13.0614V13.9004C39.337 14.1937 39.2824 14.4731 39.1836 14.7277C39.5552 14.349 39.784 13.8443 39.784 13.2881V12.4613C39.784 11.2875 38.772 10.3354 37.5239 10.3354H34.1332C32.8845 10.3354 31.8726 11.2875 31.8726 12.4614V13.2881C31.8726 13.8439 32.1014 14.3486 32.473 14.7277Z" fill="#E1F3FC"/>
<path fill-rule="evenodd" clip-rule="evenodd" d="M39.3795 14.4281H32.2779L32.4787 14.5779V14.4996V14.4872C32.4787 13.6832 33.5835 13.0293 34.9409 13.0293H36.7163C37.9285 13.0293 38.9499 13.5443 39.1437 14.2538C39.1671 14.339 39.1781 14.4158 39.1781 14.4872V14.5322V14.5779L39.3795 14.4281ZM39.5806 14.5322V14.4872C39.5806 14.3953 39.5663 14.2996 39.5377 14.1938C39.3055 13.3453 38.119 12.7295 36.7163 12.7295H34.9409C33.3615 12.7295 32.0771 13.5179 32.0771 14.4872V14.4996V14.5779V14.7277H32.2779H39.3795H39.5806V14.5779V14.5322Z" fill="#E1F3FC"/>
<path fill-rule="evenodd" clip-rule="evenodd" d="M34.8994 14.523L32.332 11.9554L32.377 11.9102L34.9446 14.4779L34.8994 14.523Z" fill="#E1F3FC"/>
<path fill-rule="evenodd" clip-rule="evenodd" d="M35.7711 14.5203L32.7651 11.514L32.8103 11.4692L35.8163 14.4751L35.7711 14.5203Z" fill="#E1F3FC"/>
<path fill-rule="evenodd" clip-rule="evenodd" d="M35.4776 14.5488L32.6245 11.6957L32.6697 11.6504L35.5228 14.5036L35.4776 14.5488Z" fill="#E1F3FC"/>
<path fill-rule="evenodd" clip-rule="evenodd" d="M35.3079 14.6125L32.5869 11.892L32.6324 11.8467L35.3527 14.5672L35.3079 14.6125Z" fill="#E1F3FC"/>
<path fill-rule="evenodd" clip-rule="evenodd" d="M34.4346 14.5691L32.2749 12.4093L32.3201 12.3643L34.4799 14.5243L34.4346 14.5691Z" fill="#E1F3FC"/>
<path fill-rule="evenodd" clip-rule="evenodd" d="M34.7193 14.5768L32.1616 12.0191L32.2068 11.9741L34.7641 14.5316L34.7193 14.5768Z" fill="#E1F3FC"/>
<path fill-rule="evenodd" clip-rule="evenodd" d="M36.6084 14.4665L33.1641 11.0221L33.2088 10.9771L36.6532 14.4214L36.6084 14.4665Z" fill="#E1F3FC"/>
<path fill-rule="evenodd" clip-rule="evenodd" d="M37.5107 14.5148L33.8115 10.8152L33.8568 10.77L37.5557 14.4695L37.5107 14.5148Z" fill="#E1F3FC"/>
<path fill-rule="evenodd" clip-rule="evenodd" d="M37.1968 14.5021L33.5381 10.8434L33.5831 10.7988L37.2412 14.4567L37.1968 14.5021Z" fill="#E1F3FC"/>
<path fill-rule="evenodd" clip-rule="evenodd" d="M36.976 14.5153L33.4092 10.9481L33.4539 10.9033L37.0211 14.4698L36.976 14.5153Z" fill="#E1F3FC"/>
<path fill-rule="evenodd" clip-rule="evenodd" d="M36.0521 14.4847L32.9238 11.356L32.9689 11.311L36.0973 14.4397L36.0521 14.4847Z" fill="#E1F3FC"/>
<path fill-rule="evenodd" clip-rule="evenodd" d="M36.2648 14.421L33.0244 11.18L33.0696 11.1353L36.3098 14.3757L36.2648 14.421Z" fill="#E1F3FC"/>
<path fill-rule="evenodd" clip-rule="evenodd" d="M38.4081 14.5222L34.6274 10.7415L34.6724 10.6963L38.4535 14.4772L38.4081 14.5222Z" fill="#E1F3FC"/>
<path fill-rule="evenodd" clip-rule="evenodd" d="M39.2901 14.4682L35.5903 10.769L35.6358 10.7236L39.3351 14.4232L39.2901 14.4682Z" fill="#E1F3FC"/>
<path fill-rule="evenodd" clip-rule="evenodd" d="M38.9558 14.4763L35.1953 10.7155L35.2405 10.6704L39.0011 14.4309L38.9558 14.4763Z" fill="#E1F3FC"/>
<path fill-rule="evenodd" clip-rule="evenodd" d="M38.6533 14.4479L34.8926 10.6874L34.9379 10.6426L38.6983 14.4029L38.6533 14.4479Z" fill="#E1F3FC"/>
<path fill-rule="evenodd" clip-rule="evenodd" d="M37.77 14.459L34.1523 10.8411L34.1973 10.7959L37.8156 14.4138L37.77 14.459Z" fill="#E1F3FC"/>
<path fill-rule="evenodd" clip-rule="evenodd" d="M38.075 14.487L34.2837 10.6959L34.3285 10.6509L38.12 14.4415L38.075 14.487Z" fill="#E1F3FC"/>
<path fill-rule="evenodd" clip-rule="evenodd" d="M39.4849 13.8332L36.4585 10.807L36.5033 10.7617L39.5299 13.7881L39.4849 13.8332Z" fill="#E1F3FC"/>
<path fill-rule="evenodd" clip-rule="evenodd" d="M39.4493 12.9894L37.0752 10.6153L37.1203 10.5703L39.4941 12.9441L39.4493 12.9894Z" fill="#E1F3FC"/>
<path fill-rule="evenodd" clip-rule="evenodd" d="M39.6044 13.4003L36.8838 10.6795L36.9289 10.6343L39.6494 13.3552L39.6044 13.4003Z" fill="#E1F3FC"/>
<path fill-rule="evenodd" clip-rule="evenodd" d="M39.4849 13.5755L36.6523 10.7429L36.6971 10.6978L39.5301 13.5306L39.4849 13.5755Z" fill="#E1F3FC"/>
<path fill-rule="evenodd" clip-rule="evenodd" d="M39.2756 14.1979L35.7998 10.7226L35.845 10.6777L39.3204 14.1527L39.2756 14.1979Z" fill="#E1F3FC"/>
<path fill-rule="evenodd" clip-rule="evenodd" d="M39.0088 13.655L36.0537 10.6998L36.099 10.6548L39.054 13.6096L39.0088 13.655Z" fill="#E1F3FC"/>
<path fill-rule="evenodd" clip-rule="evenodd" d="M39.4143 12.6783L37.2236 10.4883L37.2689 10.4429L39.4595 12.6333L39.4143 12.6783Z" fill="#E1F3FC"/>
<path fill-rule="evenodd" clip-rule="evenodd" d="M39.3991 12.2547L37.8711 10.7273L37.9159 10.6821L39.4441 12.2099L39.3991 12.2547Z" fill="#E1F3FC"/>
<path fill-rule="evenodd" clip-rule="evenodd" d="M39.4352 12.5078L37.479 10.5517L37.5242 10.5063L39.4804 12.4623L39.4352 12.5078Z" fill="#E1F3FC"/>
<path fill-rule="evenodd" clip-rule="evenodd" d="M33.4028 14.5798L32.2524 13.4293L32.2974 13.3843L33.4481 14.5345L33.4028 14.5798Z" fill="#E1F3FC"/>
<path fill-rule="evenodd" clip-rule="evenodd" d="M34.1223 14.4904L32.2173 12.5853L32.2623 12.54L34.1675 14.4453L34.1223 14.4904Z" fill="#E1F3FC"/>
<path fill-rule="evenodd" clip-rule="evenodd" d="M33.8593 14.4832L32.2397 12.8634L32.2849 12.8184L33.9041 14.4379L33.8593 14.4832Z" fill="#E1F3FC"/>
<path fill-rule="evenodd" clip-rule="evenodd" d="M33.6581 14.5772L32.0693 12.9882L32.1143 12.9434L33.7033 14.5322L33.6581 14.5772Z" fill="#E1F3FC"/>
<path fill-rule="evenodd" clip-rule="evenodd" d="M32.9181 14.6053L32.3994 14.0866L32.4448 14.042L32.9633 14.5602L32.9181 14.6053Z" fill="#E1F3FC"/>
<path fill-rule="evenodd" clip-rule="evenodd" d="M33.1309 14.5419L32.5205 13.9316L32.5658 13.8862L33.1763 14.4966L33.1309 14.5419Z" fill="#E1F3FC"/>
<path fill-rule="evenodd" clip-rule="evenodd" d="M32.3569 14.3296C32.3569 14.1101 32.2336 13.9321 32.0818 13.9321C31.9297 13.9321 31.8062 14.1101 31.8062 14.3296C31.8062 14.5493 31.9296 14.7274 32.0818 14.7274C32.2336 14.7274 32.3568 14.5493 32.3569 14.3296Z" fill="#E1F3FC"/>
<path fill-rule="evenodd" clip-rule="evenodd" d="M39.8507 14.3296C39.8507 14.1101 39.7274 13.9321 39.5753 13.9321C39.4231 13.9321 39.2998 14.1101 39.2998 14.3296C39.2998 14.5493 39.4231 14.7274 39.5753 14.7274C39.7274 14.7274 39.8506 14.5493 39.8507 14.3296Z" fill="#E1F3FC"/>
<path fill-rule="evenodd" clip-rule="evenodd" d="M40.8293 76.5151C40.8293 76.1242 39.1504 74.1987 35.8286 74.1987C33.0652 74.1987 31.6124 75.4703 31.2328 75.8597C31.0795 76.0174 30.8225 76.3126 30.8281 76.5197C30.8302 76.6035 30.8289 79.3608 30.8281 80.807L30.8276 80.9682H30.9888H40.6679H40.8293V80.807V76.5151ZM40.6679 80.646H30.9888L31.1503 80.807C31.1503 80.6363 31.153 76.6185 31.1501 76.5112V76.5168C31.1895 76.2323 32.6953 74.5211 35.8286 74.5211C38.8762 74.5211 40.4378 76.2305 40.5079 76.5284L40.5067 76.5151V80.807L40.6679 80.646Z" fill="#ED3237"/>
<path fill-rule="evenodd" clip-rule="evenodd" d="M32.3362 76.6837H30.9932V76.3345H32.3362V76.6837Z" fill="#ED3237"/>
<path fill-rule="evenodd" clip-rule="evenodd" d="M40.6637 76.6837H39.3208V76.3345H40.6637V76.6837Z" fill="#ED3237"/>
<path fill-rule="evenodd" clip-rule="evenodd" d="M39.1842 80.5563C39.2826 80.8113 39.3377 81.0904 39.3377 81.3834V82.2221C39.3377 83.4131 38.4398 84.3787 37.3326 84.3787H34.3251C33.2177 84.3787 32.3201 83.4131 32.3201 82.2221V81.3832C32.3201 81.0901 32.3744 80.8112 32.4732 80.5562C32.1018 80.935 31.8726 81.4398 31.8726 81.9959V82.8223C31.8726 83.9964 32.8847 84.9482 34.1329 84.9482H37.5243C38.7724 84.9482 39.7845 83.9964 39.7845 82.8223V81.9957C39.7845 81.4397 39.5558 80.9352 39.1842 80.5563Z" fill="#E1F3FC"/>
<path fill-rule="evenodd" clip-rule="evenodd" d="M32.2778 80.8557H39.3793L39.1784 80.706V80.7842V80.7967C39.1784 81.6006 38.0737 82.2546 36.7163 82.2546H34.9408C33.7288 82.2546 32.7075 81.7396 32.5135 81.0302C32.4902 80.9446 32.479 80.8685 32.479 80.7967L32.4791 80.7518V80.706L32.2778 80.8557ZM32.0767 80.7518V80.7967C32.0767 80.8888 32.0908 80.9846 32.1197 81.0902C32.3518 81.9387 33.5384 82.5545 34.9408 82.5545H36.7163C38.2953 82.5545 39.5807 81.766 39.5807 80.7967V80.7842V80.706V80.5562H39.3793H32.2778H32.0767V80.706V80.7518Z" fill="#E1F3FC"/>
<path fill-rule="evenodd" clip-rule="evenodd" d="M36.7577 80.7607L39.3253 83.3286L39.2805 83.3736L36.7129 80.806L36.7577 80.7607Z" fill="#E1F3FC"/>
<path fill-rule="evenodd" clip-rule="evenodd" d="M35.8858 80.7637L38.8921 83.7697L38.8468 83.8149L35.8408 80.8091L35.8858 80.7637Z" fill="#E1F3FC"/>
<path fill-rule="evenodd" clip-rule="evenodd" d="M36.1796 80.7354L39.0327 83.5885L38.9877 83.6336L36.1343 80.7807L36.1796 80.7354Z" fill="#E1F3FC"/>
<path fill-rule="evenodd" clip-rule="evenodd" d="M36.3497 80.6719L39.0704 83.3925L39.0254 83.4377L36.3047 80.7168L36.3497 80.6719Z" fill="#E1F3FC"/>
<path fill-rule="evenodd" clip-rule="evenodd" d="M37.2221 80.7148L39.382 82.875L39.337 82.92L37.1768 80.76L37.2221 80.7148Z" fill="#E1F3FC"/>
<path fill-rule="evenodd" clip-rule="evenodd" d="M36.9376 80.707L39.4958 83.2647L39.4506 83.3097L36.8931 80.7523L36.9376 80.707Z" fill="#E1F3FC"/>
<path fill-rule="evenodd" clip-rule="evenodd" d="M35.0488 80.8174L38.4933 84.262L38.4487 84.307L35.0039 80.8626L35.0488 80.8174Z" fill="#E1F3FC"/>
<path fill-rule="evenodd" clip-rule="evenodd" d="M34.1461 80.7695L37.8456 84.4686L37.8008 84.5139L34.1011 80.8143L34.1461 80.7695Z" fill="#E1F3FC"/>
<path fill-rule="evenodd" clip-rule="evenodd" d="M34.4598 80.7817L38.1185 84.4404L38.0734 84.4855L34.415 80.8269L34.4598 80.7817Z" fill="#E1F3FC"/>
<path fill-rule="evenodd" clip-rule="evenodd" d="M34.6815 80.7686L38.2482 84.3357L38.2032 84.3809L34.6362 80.8138L34.6815 80.7686Z" fill="#E1F3FC"/>
<path fill-rule="evenodd" clip-rule="evenodd" d="M35.6048 80.7993L38.7334 83.9278L38.6884 83.9732L35.5596 80.8448L35.6048 80.7993Z" fill="#E1F3FC"/>
<path fill-rule="evenodd" clip-rule="evenodd" d="M35.3924 80.8633L38.6329 84.1039L38.5883 84.1489L35.3472 80.9082L35.3924 80.8633Z" fill="#E1F3FC"/>
<path fill-rule="evenodd" clip-rule="evenodd" d="M33.2485 80.7617L37.0297 84.5426L36.9847 84.5879L33.2031 80.8067L33.2485 80.7617Z" fill="#E1F3FC"/>
<path fill-rule="evenodd" clip-rule="evenodd" d="M32.3668 80.8159L36.0666 84.5153L36.0213 84.5604L32.3218 80.8611L32.3668 80.8159Z" fill="#E1F3FC"/>
<path fill-rule="evenodd" clip-rule="evenodd" d="M32.7016 80.8076L36.4621 84.5682L36.4169 84.6135L32.6562 80.8529L32.7016 80.8076Z" fill="#E1F3FC"/>
<path fill-rule="evenodd" clip-rule="evenodd" d="M33.004 80.8359L36.7648 84.5964L36.7194 84.6413L32.959 80.8809L33.004 80.8359Z" fill="#E1F3FC"/>
<path fill-rule="evenodd" clip-rule="evenodd" d="M33.8867 80.8257L37.5044 84.4431L37.4591 84.4884L33.8413 80.8707L33.8867 80.8257Z" fill="#E1F3FC"/>
<path fill-rule="evenodd" clip-rule="evenodd" d="M33.5817 80.7974L37.3734 84.5883L37.328 84.6333L33.5366 80.8422L33.5817 80.7974Z" fill="#E1F3FC"/>
<path fill-rule="evenodd" clip-rule="evenodd" d="M32.1721 81.4507L35.1984 84.477L35.1534 84.5221L32.127 81.4957L32.1721 81.4507Z" fill="#E1F3FC"/>
<path fill-rule="evenodd" clip-rule="evenodd" d="M32.2076 82.2944L34.5815 84.6682L34.5364 84.7135L32.1626 82.3394L32.2076 82.2944Z" fill="#E1F3FC"/>
<path fill-rule="evenodd" clip-rule="evenodd" d="M32.053 81.8838L34.7736 84.6047L34.7285 84.6498L32.0078 81.929L32.053 81.8838Z" fill="#E1F3FC"/>
<path fill-rule="evenodd" clip-rule="evenodd" d="M32.1723 81.708L35.0045 84.5409L34.9597 84.5859L32.127 81.7533L32.1723 81.708Z" fill="#E1F3FC"/>
<path fill-rule="evenodd" clip-rule="evenodd" d="M32.3812 81.0854L35.8568 84.5609L35.8118 84.6059L32.3364 81.131L32.3812 81.0854Z" fill="#E1F3FC"/>
<path fill-rule="evenodd" clip-rule="evenodd" d="M32.6482 81.6284L35.6032 84.5836L35.5582 84.6288L32.603 81.6738L32.6482 81.6284Z" fill="#E1F3FC"/>
<path fill-rule="evenodd" clip-rule="evenodd" d="M32.2428 82.6055L34.433 84.7959L34.3877 84.8412L32.1973 82.6507L32.2428 82.6055Z" fill="#E1F3FC"/>
<path fill-rule="evenodd" clip-rule="evenodd" d="M32.2577 83.0288L33.7857 84.5562L33.7404 84.6014L32.2124 83.0736L32.2577 83.0288Z" fill="#E1F3FC"/>
<path fill-rule="evenodd" clip-rule="evenodd" d="M32.2219 82.7764L34.1779 84.7325L34.1325 84.7774L32.1763 82.8219L32.2219 82.7764Z" fill="#E1F3FC"/>
<path fill-rule="evenodd" clip-rule="evenodd" d="M38.2535 80.7041L39.4044 81.855L39.3594 81.9L38.2085 80.7495L38.2535 80.7041Z" fill="#E1F3FC"/>
<path fill-rule="evenodd" clip-rule="evenodd" d="M37.535 80.7935L39.4402 82.6985L39.3952 82.7437L37.4902 80.8385L37.535 80.7935Z" fill="#E1F3FC"/>
<path fill-rule="evenodd" clip-rule="evenodd" d="M37.7979 80.8008L39.4177 82.4203L39.3726 82.4654L37.7529 80.846L37.7979 80.8008Z" fill="#E1F3FC"/>
<path fill-rule="evenodd" clip-rule="evenodd" d="M37.9983 80.707L39.5874 82.2958L39.5424 82.341L37.9531 80.752L37.9983 80.707Z" fill="#E1F3FC"/>
<path fill-rule="evenodd" clip-rule="evenodd" d="M38.7387 80.6782L39.2571 81.1967L39.2121 81.2419L38.6938 80.7234L38.7387 80.6782Z" fill="#E1F3FC"/>
<path fill-rule="evenodd" clip-rule="evenodd" d="M38.5262 80.7422L39.1363 81.3524L39.0913 81.3976L38.481 80.7872L38.5262 80.7422Z" fill="#E1F3FC"/>
<path fill-rule="evenodd" clip-rule="evenodd" d="M39.3003 80.9538C39.3003 81.1731 39.4233 81.3513 39.5753 81.3513C39.7274 81.3513 39.8506 81.1731 39.8506 80.9538C39.8507 80.7341 39.7274 80.5562 39.5753 80.5562C39.4233 80.5562 39.3003 80.7341 39.3003 80.9538Z" fill="#E1F3FC"/>
<path fill-rule="evenodd" clip-rule="evenodd" d="M31.8062 80.9538C31.8062 81.1731 31.9294 81.3513 32.0814 81.3513C32.2336 81.3513 32.3566 81.1731 32.3566 80.9538C32.3566 80.7341 32.2336 80.5562 32.0814 80.5562C31.9294 80.5562 31.8062 80.7341 31.8062 80.9538Z" fill="#E1F3FC"/>
<path fill-rule="evenodd" clip-rule="evenodd" d="M1.65262 49.1206C0.989017 49.1206 0.449219 49.6267 0.449219 50.2489L0.449297 72.8885C0.449297 73.5107 0.989017 74.017 1.65262 74.017H2.98039C3.64399 74.017 4.18371 73.5107 4.18371 72.8885V50.2488C4.18371 49.6266 3.64399 49.1206 2.98039 49.1206H1.65262ZM2.98039 49.5355C3.41519 49.5355 3.76879 49.8555 3.76879 50.2489V72.8885C3.76879 73.2819 3.41519 73.602 2.98039 73.602H1.65262C1.21782 73.602 0.864218 73.2819 0.864218 72.8885V50.2488C0.864218 49.8555 1.21782 49.5356 1.65262 49.5356L2.98039 49.5355Z" fill="#FEFEFE"/>
<path fill-rule="evenodd" clip-rule="evenodd" d="M1.65262 21.3198C0.989017 21.3198 0.449219 21.8258 0.449219 22.4482L0.449297 45.0877C0.449297 45.7099 0.989017 46.2161 1.65262 46.2161H2.98039C3.64399 46.2161 4.18371 45.7099 4.18371 45.0877V22.4482C4.18371 21.8258 3.64399 21.3198 2.98039 21.3198H1.65262ZM2.98039 21.7348C3.41519 21.7348 3.76879 22.0547 3.76879 22.4482V45.0877C3.76879 45.4811 3.41519 45.8012 2.98039 45.8012H1.65262C1.21782 45.8012 0.864218 45.4811 0.864218 45.0877V22.4482C0.864218 22.0546 1.21782 21.7348 1.65262 21.7348H2.98039Z" fill="#FEFEFE"/>
<path fill-rule="evenodd" clip-rule="evenodd" d="M69.1401 27.4404C68.3292 27.4403 67.6694 28.2625 67.6694 29.274V66.0633C67.6694 67.0745 68.3292 67.8969 69.1401 67.8969H70.7635C71.5743 67.8969 72.2337 67.0745 72.2337 66.0633L72.2338 29.274C72.2338 28.2625 71.5743 27.4404 70.7635 27.4404H69.1401ZM70.7635 28.1146C71.2944 28.1146 71.7267 28.6346 71.7267 29.274V66.0633C71.7267 66.7023 71.2944 67.2226 70.7635 67.2226H69.1401C68.6091 67.2226 68.1767 66.7023 68.1767 66.0633L68.1767 29.274C68.1767 28.6345 68.6091 28.1146 69.1401 28.1146H70.7635Z" fill="#FEFEFE"/>
</svg>
