<svg width="38" height="38" viewBox="0 0 38 38" fill="none" xmlns="http://www.w3.org/2000/svg">
<path fill-rule="evenodd" clip-rule="evenodd" d="M18.7828 0.972656C28.9394 0.972656 37.1729 9.20624 37.1729 19.3628C37.1729 29.5194 28.9394 37.753 18.7828 37.753C8.62617 37.753 0.392578 29.5194 0.392578 19.3628C0.392578 9.20624 8.62617 0.972656 18.7828 0.972656Z" fill="#E8F7FE" fill-opacity="0.729412"/>
<path fill-rule="evenodd" clip-rule="evenodd" d="M16.4567 23.6839H15.4678V11.7715H16.4567V23.6839Z" fill="#394343"/>
<path fill-rule="evenodd" clip-rule="evenodd" d="M21.1332 17.7281C21.1332 21.0177 18.4667 23.6839 15.1773 23.6839C11.8878 23.6839 9.22119 21.0177 9.22119 17.7281C9.22119 14.4389 11.8878 11.7715 15.1773 11.7715C18.4667 11.7715 21.1332 14.4389 21.1332 17.7281Z" fill="#394343"/>
<path fill-rule="evenodd" clip-rule="evenodd" d="M22.4131 17.7281C22.4131 21.0177 19.7465 23.6839 16.4568 23.6839C13.1677 23.6839 10.501 21.0177 10.501 17.7281C10.501 14.4389 13.1677 11.7715 16.4568 11.7715C19.7465 11.7715 22.4131 14.4389 22.4131 17.7281Z" fill="#505F5F"/>
<path fill-rule="evenodd" clip-rule="evenodd" d="M28.3445 25.1517H15.7329V22.2153H28.3445V25.1517Z" fill="#394343"/>
<path fill-rule="evenodd" clip-rule="evenodd" d="M28.3445 25.1517C28.3445 26.1479 25.5214 26.9544 22.0387 26.9544C18.556 26.9544 15.7329 26.1479 15.7329 25.1517C15.7329 24.1563 18.5559 22.2153 22.0387 22.2153C25.5214 22.2153 28.3445 24.1563 28.3445 25.1517Z" fill="#394343"/>
<path fill-rule="evenodd" clip-rule="evenodd" d="M28.3445 22.2157C28.3445 23.2112 25.5214 24.0187 22.0387 24.0187C18.556 24.0187 15.7329 23.2112 15.7329 22.2157C15.7329 21.2203 18.5559 20.4131 22.0387 20.4131C25.5214 20.4131 28.3445 21.2203 28.3445 22.2157Z" fill="#5D6C6D"/>
<path fill-rule="evenodd" clip-rule="evenodd" d="M23.6473 21.7964C23.575 21.7964 23.5027 21.7881 23.447 21.772C23.07 21.6647 22.57 21.6055 22.0386 21.6055C21.5802 21.6055 21.133 21.6507 20.7794 21.7337C20.6578 21.7616 20.4793 21.7566 20.3809 21.7221C20.2819 21.6878 20.2997 21.6362 20.4208 21.6084C20.8757 21.5018 21.4498 21.4434 22.0386 21.4434C22.7211 21.4434 23.3632 21.5199 23.8473 21.6571C23.9582 21.6892 23.9582 21.7406 23.8477 21.772C23.7927 21.7881 23.7197 21.7964 23.6473 21.7964Z" fill="#7B8A8A"/>
</svg>
