<svg width="211" height="65" viewBox="0 0 211 65" fill="none" xmlns="http://www.w3.org/2000/svg">
<g>
    <path fill-rule="evenodd" clip-rule="evenodd" d="M27.5009 36.3479V27.7268L23.9395 31.3782V36.4153L27.5009 36.3479V36.3479Z" fill="#51524E"/>
    <path fill-rule="evenodd" clip-rule="evenodd" d="M27.5006 18.6459V14.498H10.9902V15.9125H17.969C19.3266 15.9125 20.604 16.3548 21.6633 17.1921L21.7409 17.2539L21.8371 17.2293C22.3296 17.1058 22.8354 17.044 23.3407 17.044C24.7276 17.044 26.0893 17.52 27.1746 18.3854L27.5006 18.6459V18.6459Z" fill="#51524E"/>
    <path fill-rule="evenodd" clip-rule="evenodd" d="M37.429 51.1276L35.2855 41.1855C34.6775 38.3637 32.1404 36.3142 29.253 36.3142L23.9395 36.4154L27.9162 54.8745L27.9766 54.9194C28.0538 54.9757 28.1064 55.0562 28.1252 55.1442C28.1422 55.2213 28.1326 55.3055 28.0977 55.3822L28.0317 55.5283L28.1595 55.6238C28.2918 55.725 28.3822 55.8639 28.4155 56.0172C28.4518 56.1858 28.42 56.3599 28.3266 56.5122L28.2841 56.5811L29.2116 60.8843L29.4401 60.7795C31.4507 59.8448 33.3674 58.6852 35.1363 57.3341C37.0304 55.892 37.9303 53.4564 37.429 51.1276V51.1276Z" fill="#2A2B26"/>
    <path fill-rule="evenodd" clip-rule="evenodd" d="M27.8528 20.7327C26.9483 19.0843 25.2172 18.0596 23.3362 18.0596C23.2116 18.0596 23.086 18.0655 22.9612 18.0728L22.6016 18.0989L22.8131 18.391C23.5494 19.4086 23.9388 20.6152 23.9388 21.8794V29.9295L27.3469 26.4467L27.3601 26.4318C28.6646 24.8003 28.8579 22.5634 27.8528 20.7327V20.7327Z" fill="#2A2B26"/>
    <path fill-rule="evenodd" clip-rule="evenodd" d="M28.685 19.7571C27.5081 17.9345 25.5112 16.8459 23.3437 16.8459C22.8737 16.8459 22.4015 16.8981 21.9407 17.0011L21.5508 17.089L21.8538 17.3495C21.9831 17.46 22.093 17.5632 22.1911 17.6607C22.2318 17.702 22.2712 17.743 22.3105 17.7862L22.4015 17.8834H22.402L22.4878 17.983C22.5517 18.056 22.6136 18.1307 22.6734 18.2078L22.7413 18.2935L22.8512 18.2832C23.0126 18.2677 23.1767 18.2586 23.3386 18.2586C25.1445 18.2586 26.807 19.244 27.6772 20.8291C28.6394 22.5822 28.459 24.7221 27.2159 26.2917L23.9391 29.6433V31.6666L28.2935 27.2005C30.0181 25.0591 30.1749 22.0673 28.685 19.7574V19.7571Z" fill="#CDCCC9"/>
    <path fill-rule="evenodd" clip-rule="evenodd" d="M10.6487 0.501518L10.3176 0.252686C10.2209 0.312467 9.78924 0.780846 9.77539 1.11244L10.0074 1.28664L27.4998 14.4249L27.8622 14.6988H29.5493L10.6487 0.501518Z" fill="#9F9F9B"/>
    <path fill-rule="evenodd" clip-rule="evenodd" d="M12.3903 0.290084L12.0024 0H11.0909C10.6321 0 10.3184 0.252832 10.3184 0.252832L29.4965 14.6576L29.5501 14.699H31.571L12.3903 0.290084V0.290084Z" fill="#ECECEB"/>
    <path fill-rule="evenodd" clip-rule="evenodd" d="M6.99178 25.3194H6.99149C5.75162 26.8855 5.61553 29.0846 6.65302 30.7918C6.66481 30.8102 6.66775 30.8326 6.6648 30.8537C6.68233 30.8625 6.69823 30.874 6.70854 30.893C8.31824 33.8491 9.84004 36.9028 11.2323 39.9677C12.1905 42.0754 13.6753 43.9261 15.5276 45.316L27.8501 54.5731L23.9406 36.4365C23.9402 36.4321 23.9412 36.4291 23.9406 36.4247C23.9402 36.4232 23.9377 36.4188 23.9377 36.4144V21.8785C23.9377 20.2842 23.3173 18.7854 22.1897 17.6596C21.0619 16.5317 19.5622 15.9116 17.9675 15.9116H9.87524C9.1522 15.9116 8.45745 16.1756 7.91837 16.6574L6.72267 17.727C8.64227 19.8326 8.76497 23.0759 6.99075 25.3184L6.99178 25.3194Z" fill="#ECECEB"/>
    <path fill-rule="evenodd" clip-rule="evenodd" d="M28.486 56.5679L14.7987 46.2867C12.7844 44.775 11.1693 42.7629 10.1275 40.4699C8.74993 37.4366 7.24464 34.4166 5.6529 31.4921L5.58736 31.3742C4.31922 29.244 4.49979 26.5107 6.03997 24.5644C7.44849 22.7862 7.37234 20.2683 5.85955 18.5765L5.68825 18.3855L3.49573 20.3455L3.63846 20.4952C4.23409 21.1209 4.27696 22.0669 3.74054 22.7453C1.43549 25.6565 1.1574 29.6056 3.03075 32.811L3.04401 32.8596L3.07582 32.8918C5.15493 36.7117 7.07277 40.6778 8.77541 44.6796C9.09518 45.4304 9.6098 46.0879 10.2629 46.5788L29.4368 60.9804L28.4855 56.5679H28.486Z" fill="#00679B"/>
    <path fill-rule="evenodd" clip-rule="evenodd" d="M28.6115 55.9763C28.5674 55.77 28.45 55.5881 28.2855 55.463L28.3054 55.3991C28.3365 55.3 28.3416 55.1969 28.3212 55.1013C28.2891 54.9532 28.1986 54.8204 28.0765 54.7397L15.5287 45.316C13.6764 43.9261 12.1916 42.0754 11.2335 39.9677C9.84572 36.9119 8.32909 33.8695 6.72586 30.9226L6.63794 30.7652C5.61768 29.0621 5.75834 26.8758 6.99232 25.3194C8.78333 23.0564 8.64341 19.7641 6.66637 17.6606L6.62484 17.6269C6.49906 17.5503 6.32746 17.5687 6.22289 17.6678C6.17296 17.7148 6.14041 17.7729 6.12627 17.8369C5.97073 17.7843 5.7897 17.8199 5.66377 17.9283C5.46979 18.0969 5.44225 18.3855 5.60898 18.5974L5.71002 18.7099C7.15801 20.3281 7.23062 22.7376 5.88265 24.4407C4.29135 26.4509 4.10474 29.2741 5.41471 31.4753L5.47834 31.5918C7.06771 34.5106 8.57079 37.5265 9.94528 40.5522C11.0004 42.8752 12.6371 44.9155 14.6784 46.448L28.4223 56.7707L28.5312 56.5586C28.6247 56.3773 28.6533 56.1695 28.6115 55.9763V55.9763Z" fill="#00AEEF"/>
    <path fill-rule="evenodd" clip-rule="evenodd" d="M33.2589 8.64355C31.9237 8.64355 30.8379 9.72859 30.8379 11.0644C30.8379 12.3981 31.9237 13.4847 33.2589 13.4847C34.594 13.4847 35.6802 12.3981 35.6802 11.0644C35.6802 9.72859 34.594 8.64355 33.2589 8.64355Z" fill="#ECECEB"/>
    <path fill-rule="evenodd" clip-rule="evenodd" d="M10.3835 46.4178C9.75901 45.9494 9.26706 45.3201 8.961 44.6008C7.25585 40.5935 5.33595 36.6233 3.2536 32.7977L3.24477 32.7472L3.1991 32.7027C1.37258 29.5699 1.64582 25.7141 3.89785 22.8704C4.49819 22.1119 4.44886 21.0535 3.78047 20.3547L3.64495 20.2122L3.50003 20.3454C-0.232535 23.749 -1.08932 29.3767 1.46053 33.7346L1.47525 33.7591C3.7831 37.9984 5.8855 42.4144 7.72291 46.8806L7.74397 46.9333L27.2602 61.5907L27.3492 61.6581L27.4528 61.6188C28.0088 61.4074 28.5862 61.1637 29.1698 60.8995L29.4783 60.7607L10.3835 46.4178V46.4178Z" fill="#ECECEB"/>
    <path fill-rule="evenodd" clip-rule="evenodd" d="M7.7207 46.6636L7.73853 47.0871C7.81718 48.9918 8.19439 50.86 8.86013 52.6377L8.8862 52.7086L13.7869 55.3879L20.3063 60.2816C20.3492 60.3133 20.3773 60.3617 20.385 60.4144C20.3923 60.4649 20.3805 60.5135 20.3533 60.5549L20.0038 61.0212C17.8547 61.5142 15.5272 61.1995 13.5579 60.1538L12.0664 59.3616L13.3306 60.4819C14.862 61.838 16.6902 62.8985 18.6171 63.5524L18.6554 63.5656L18.6957 63.5612C21.6189 63.3497 24.49 62.724 27.2298 61.703L27.5732 61.5737L7.7207 46.6633V46.6636Z" fill="#00AEEF"/>
    <path fill-rule="evenodd" clip-rule="evenodd" d="M13.1634 56.0564L8.53711 53.5442L8.58777 53.7316C8.9224 54.9642 9.40891 56.1463 10.0424 57.261C11.8084 59.884 14.7643 61.4522 17.9497 61.4522C17.9501 61.4522 17.9501 61.4522 17.9501 61.4522C18.5924 61.4522 20.0799 61.2515 20.0799 61.2515L13.1634 56.0564Z" fill="#51524E"/>
    <path fill-rule="evenodd" clip-rule="evenodd" d="M37.8994 55.4572C37.6531 55.1161 37.1866 54.9698 36.7864 55.1088L36.7113 55.1349L36.6747 55.2044C36.2648 55.9854 35.7064 56.647 35.0144 57.1752C30.2834 60.7852 24.6443 62.925 18.7058 63.3592L18.617 63.3651L18.5622 63.4365C18.3635 63.6894 18.3308 64.0246 18.478 64.3111C18.618 64.5848 18.897 64.7549 19.2046 64.7549C19.2317 64.7549 19.2587 64.7535 19.2869 64.752H19.2957C26.1396 64.1243 32.726 61.2565 37.8444 56.6698L37.8664 56.6478C38.1433 56.3051 38.1567 55.8156 37.8991 55.4581L37.8994 55.4572Z" fill="#CDCCC9"/>
    <path fill-rule="evenodd" clip-rule="evenodd" d="M9.77539 13.3836C9.77539 13.7355 9.9118 14.0655 10.1607 14.3127C10.409 14.562 10.7391 14.6989 11.0901 14.6989H27.8622L9.77539 1.11255V13.3836Z" fill="#2A2B26"/>
    <path fill-rule="evenodd" clip-rule="evenodd" d="M33.2578 8.84432C34.482 8.84432 35.4784 9.83897 35.4784 11.0645C35.4784 12.2878 34.482 13.2845 33.2578 13.2845C32.0335 13.2845 31.0371 12.2878 31.0371 11.0645C31.0371 9.83897 32.0335 8.84432 33.2578 8.84432ZM36.5086 0.38373C36.2602 0.136357 35.93 0 35.579 0H12.002L31.5173 14.6576L31.5706 14.699H35.579C36.3037 14.699 36.8933 14.1089 36.8933 13.3836V1.31285C36.8933 0.962401 36.7569 0.63287 36.5086 0.38373V0.38373Z" fill="#2A2B26"/>
    <path fill-rule="evenodd" clip-rule="evenodd" d="M9.0129 52.5497L8.98521 52.5364C8.81878 52.4613 8.60564 52.5139 8.49577 52.6621L8.31696 52.8981C8.24641 52.9916 8.22093 53.1116 8.24538 53.226C8.26998 53.34 8.34304 53.4397 8.44614 53.4958L13.1635 56.0565L13.8313 55.1688L9.0129 52.5497Z" fill="#797B76"/>
    <path fill-rule="evenodd" clip-rule="evenodd" d="M20.5824 60.3883C20.5675 60.2794 20.5114 60.1855 20.4249 60.1201L13.8319 55.1687L13.1641 56.0565L20.0806 61.2516L20.5056 60.686C20.5706 60.5997 20.5977 60.4929 20.5824 60.3883Z" fill="#9F9F9B"/>
    <path fill-rule="evenodd" clip-rule="evenodd" d="M20.3929 49.539C20.3484 49.5074 20.2857 49.515 20.2524 49.5599C20.2192 49.6044 20.2284 49.6667 20.2724 49.7004L20.5938 49.942C20.6116 49.9553 20.6331 49.9625 20.654 49.9625C20.6842 49.9625 20.7143 49.9476 20.7343 49.9211C20.7675 49.8781 20.7588 49.8144 20.7143 49.7807L20.3929 49.539V49.539Z" fill="#ECECEB"/>
    <path fill-rule="evenodd" clip-rule="evenodd" d="M19.7505 49.0577C19.7064 49.0239 19.6435 49.0332 19.6098 49.0781C19.5767 49.1209 19.5858 49.1849 19.6297 49.2186L19.9512 49.4581C19.969 49.4735 19.9905 49.479 20.0115 49.479C20.0417 49.479 20.0718 49.4658 20.0917 49.4397C20.1249 49.3948 20.1162 49.3309 20.0718 49.2993L19.7505 49.0577Z" fill="#ECECEB"/>
    <path fill-rule="evenodd" clip-rule="evenodd" d="M7.67886 22.8367C7.70788 22.7039 7.73218 22.5689 7.75104 22.4342C7.7584 22.3795 7.72053 22.3289 7.66574 22.3197C7.60902 22.3124 7.55983 22.3513 7.55232 22.406C7.53405 22.5352 7.51063 22.6665 7.48279 22.7937C7.47101 22.8479 7.50519 22.9004 7.5594 22.9137C7.56676 22.9152 7.57412 22.9152 7.58104 22.9152C7.62715 22.9152 7.6687 22.8834 7.67886 22.8366V22.8367Z" fill="#ECECEB"/>
    <path fill-rule="evenodd" clip-rule="evenodd" d="M7.3507 23.6836C7.39106 23.6836 7.4289 23.6592 7.44422 23.6197C7.49297 23.4926 7.53745 23.3634 7.57648 23.2322C7.59239 23.1794 7.56175 23.1238 7.50917 23.1085C7.45585 23.0915 7.39989 23.1217 7.38398 23.1759C7.34642 23.2994 7.30384 23.4252 7.25671 23.5468C7.23683 23.5994 7.26261 23.6571 7.3146 23.678C7.32639 23.681 7.33862 23.6839 7.3507 23.6839V23.6836Z" fill="#ECECEB"/>
    <path fill-rule="evenodd" clip-rule="evenodd" d="M6.86094 18.9979C6.87979 19.03 6.91295 19.0468 6.94697 19.0468C6.96449 19.0468 6.98246 19.0438 6.99866 19.0335C7.04638 19.0039 7.0617 18.9421 7.03297 18.8951C6.96302 18.7787 6.88775 18.6628 6.80925 18.5524C6.77729 18.5074 6.71469 18.4977 6.66933 18.53C6.62396 18.5616 6.61351 18.6235 6.64533 18.6684C6.72103 18.7751 6.79348 18.8854 6.86094 18.9979V18.9979Z" fill="#ECECEB"/>
    <path fill-rule="evenodd" clip-rule="evenodd" d="M7.70241 21.5198C7.70226 21.5198 7.70183 21.5198 7.70153 21.5198C7.646 21.5198 7.60137 21.5647 7.6021 21.6209L7.60224 21.6791C7.60224 21.7915 7.59931 21.9019 7.59194 22.0143C7.589 22.0689 7.63037 22.1175 7.68575 22.121C7.68723 22.121 7.69019 22.121 7.69166 22.121C7.7441 22.121 7.78842 22.0802 7.79181 22.0275C7.79918 21.9116 7.80359 21.7951 7.80359 21.6791L7.80316 21.6189C7.80257 21.5626 7.75779 21.5198 7.7027 21.5198H7.70241Z" fill="#ECECEB"/>
    <path fill-rule="evenodd" clip-rule="evenodd" d="M7.23535 23.8615C7.18527 23.8391 7.12561 23.86 7.1016 23.9106C7.04592 24.0265 6.98466 24.1445 6.91941 24.259C6.89187 24.3075 6.90909 24.3678 6.95681 24.3958C6.97242 24.4046 6.98967 24.4091 7.00646 24.4091C7.04166 24.4091 7.07539 24.3902 7.0938 24.3586C7.1617 24.2405 7.22548 24.119 7.28322 23.9974C7.30708 23.9463 7.28617 23.8865 7.23535 23.8619V23.8615Z" fill="#ECECEB"/>
    <path fill-rule="evenodd" clip-rule="evenodd" d="M7.35063 20.0718C7.39084 20.1974 7.42678 20.3246 7.45757 20.4504C7.46935 20.4968 7.50956 20.5269 7.55492 20.5269C7.56229 20.5269 7.57067 20.527 7.57877 20.5255C7.63253 20.5122 7.66567 20.458 7.65271 20.4038C7.62104 20.2731 7.58348 20.1398 7.54151 20.0105C7.52457 19.9584 7.46831 19.9282 7.41514 19.9452C7.36226 19.9636 7.33355 20.0197 7.35063 20.0724V20.0718Z" fill="#ECECEB"/>
    <path fill-rule="evenodd" clip-rule="evenodd" d="M7.05152 19.3427C7.1103 19.4607 7.16523 19.5808 7.21472 19.7029C7.23063 19.7402 7.26818 19.7642 7.30766 19.7642C7.32091 19.7642 7.33329 19.7627 7.34566 19.7568C7.39707 19.7364 7.42167 19.6761 7.40075 19.6255C7.3489 19.5003 7.29234 19.3747 7.23151 19.2526C7.20647 19.204 7.14652 19.1836 7.09659 19.2076C7.04695 19.2342 7.02693 19.294 7.05152 19.3425V19.3427Z" fill="#ECECEB"/>
    <path fill-rule="evenodd" clip-rule="evenodd" d="M6.41669 18.3461C6.43923 18.3742 6.47413 18.3875 6.50801 18.384C6.52568 18.3825 6.54278 18.3737 6.55766 18.3629C6.60126 18.3292 6.60907 18.2654 6.57519 18.2224C6.49138 18.1157 6.40255 18.011 6.31152 17.9098C6.27396 17.8684 6.21046 17.867 6.16936 17.9039C6.12841 17.9412 6.12547 18.0051 6.16347 18.0444C6.25112 18.142 6.33685 18.243 6.41727 18.3458L6.41669 18.3461Z" fill="#ECECEB"/>
    <path fill-rule="evenodd" clip-rule="evenodd" d="M6.31898 25.3981C6.35153 25.3981 6.38291 25.3828 6.4025 25.3532C6.47555 25.2463 6.5542 25.1395 6.63535 25.0365C6.7199 24.9297 6.80136 24.8172 6.87706 24.7065C6.90829 24.66 6.89636 24.5981 6.85041 24.566C6.80446 24.5363 6.74199 24.5476 6.71091 24.594C6.63786 24.7007 6.55936 24.8076 6.47776 24.9107C6.39351 25.0175 6.31207 25.1284 6.23607 25.2407C6.20485 25.2878 6.21706 25.3491 6.26286 25.3812C6.28024 25.393 6.29969 25.3981 6.31898 25.3981V25.3981Z" fill="#ECECEB"/>
    <path fill-rule="evenodd" clip-rule="evenodd" d="M7.53458 20.8359C7.55549 20.9657 7.57185 21.0964 7.58348 21.2278C7.5879 21.2803 7.63165 21.3197 7.68319 21.3197C7.68614 21.3197 7.68908 21.3197 7.69202 21.3197C7.74725 21.3138 7.78819 21.265 7.78333 21.2088C7.77155 21.0739 7.75447 20.937 7.73268 20.8042C7.72384 20.7501 7.67184 20.7123 7.61735 20.722C7.56271 20.7293 7.52545 20.7818 7.53458 20.8359Z" fill="#ECECEB"/>
    <path fill-rule="evenodd" clip-rule="evenodd" d="M5.39881 28.425C5.39926 28.425 5.39954 28.425 5.39998 28.425C5.4555 28.425 5.49967 28.3805 5.49923 28.3238V28.2977C5.49923 28.1763 5.50365 28.0542 5.51248 27.9305C5.51543 27.8763 5.4745 27.8279 5.41928 27.8238C5.36244 27.8223 5.31591 27.8616 5.31208 27.9177C5.30325 28.0449 5.29883 28.1705 5.29883 28.2977L5.29912 28.3259C5.29971 28.3821 5.34432 28.425 5.39924 28.425H5.39881Z" fill="#ECECEB"/>
    <path fill-rule="evenodd" clip-rule="evenodd" d="M5.47917 29.225C5.53395 29.2161 5.57167 29.1652 5.56312 29.1089C5.54265 28.9798 5.52733 28.8485 5.51688 28.7177C5.51246 28.6631 5.46605 28.6237 5.40876 28.6258C5.35353 28.6317 5.31244 28.6799 5.31671 28.7346C5.32702 28.8694 5.34353 29.0059 5.36444 29.1407C5.37181 29.1896 5.41496 29.225 5.4637 29.225C5.4696 29.225 5.47401 29.225 5.47917 29.225Z" fill="#ECECEB"/>
    <path fill-rule="evenodd" clip-rule="evenodd" d="M5.44123 27.6251C5.44564 27.6251 5.45154 27.6251 5.4561 27.6251C5.50515 27.6251 5.54799 27.5899 5.55521 27.5394C5.57421 27.4101 5.59822 27.2789 5.62679 27.1515C5.63857 27.0989 5.60457 27.0443 5.55051 27.0331C5.49661 27.0199 5.44298 27.0541 5.43075 27.1082C5.40145 27.2415 5.37627 27.3764 5.35639 27.5113C5.34903 27.5655 5.38659 27.616 5.44123 27.6251Z" fill="#ECECEB"/>
    <path fill-rule="evenodd" clip-rule="evenodd" d="M6.53041 31.5185L6.33879 31.1661C6.32406 31.138 6.2809 31.0558 6.26381 31.0277L6.22021 30.9547C6.19223 30.9056 6.13052 30.8908 6.0828 30.9189C6.03493 30.947 6.01901 31.0087 6.047 31.0559L6.09222 31.1324C6.10768 31.1568 6.14714 31.2336 6.16232 31.2617L6.3538 31.614C6.37177 31.6478 6.40623 31.6662 6.44217 31.6662C6.45808 31.6662 6.47458 31.6632 6.48975 31.6544C6.53836 31.6283 6.55663 31.5665 6.53041 31.5179V31.5185Z" fill="#ECECEB"/>
    <path fill-rule="evenodd" clip-rule="evenodd" d="M5.60058 26.8385C5.61089 26.84 5.62017 26.8415 5.62989 26.8415C5.67305 26.8415 5.71267 26.8134 5.72563 26.7705C5.76378 26.6449 5.80708 26.5192 5.85421 26.3975C5.87425 26.347 5.84833 26.2893 5.79692 26.2684C5.74522 26.248 5.68688 26.2743 5.667 26.3266C5.61809 26.4523 5.57318 26.581 5.53356 26.7124C5.51751 26.7649 5.54829 26.821 5.60058 26.838V26.8385Z" fill="#ECECEB"/>
    <path fill-rule="evenodd" clip-rule="evenodd" d="M5.87758 26.0833C5.89084 26.0907 5.90631 26.0951 5.9206 26.0951C5.95816 26.0951 5.99411 26.0726 6.01149 26.0368C6.0676 25.9189 6.12901 25.803 6.19412 25.6884C6.22166 25.64 6.20444 25.5781 6.15672 25.5516C6.10841 25.5239 6.04712 25.5398 6.01987 25.5893C5.95241 25.7074 5.88849 25.8289 5.83016 25.951C5.8063 26.0016 5.82721 26.0614 5.87758 26.0838V26.0833Z" fill="#ECECEB"/>
    <path fill-rule="evenodd" clip-rule="evenodd" d="M5.74183 29.8754C5.70236 29.7519 5.66747 29.6226 5.63772 29.4968C5.62446 29.4428 5.57114 29.4091 5.51709 29.4223C5.46304 29.4341 5.42946 29.4877 5.44212 29.5419C5.47305 29.6731 5.50929 29.8059 5.55024 29.9372C5.56349 29.9786 5.60311 30.0067 5.64597 30.0067C5.65627 30.0067 5.66613 30.0053 5.67615 30.0023C5.72887 29.986 5.75862 29.9293 5.74183 29.8751V29.8754Z" fill="#ECECEB"/>
    <path fill-rule="evenodd" clip-rule="evenodd" d="M6.03524 30.6079C5.97735 30.4899 5.92345 30.3683 5.87528 30.2462C5.85481 30.1956 5.79605 30.1711 5.74479 30.1921C5.69323 30.2125 5.66833 30.2707 5.6888 30.3213C5.73903 30.4469 5.79471 30.5721 5.85481 30.6958C5.87219 30.7314 5.90784 30.7525 5.94496 30.7525C5.95969 30.7525 5.97486 30.748 5.98914 30.7407C6.03893 30.7167 6.05955 30.6563 6.03524 30.6079V30.6079Z" fill="#ECECEB"/>
    <path fill-rule="evenodd" clip-rule="evenodd" d="M10.4832 39.4247L10.3145 39.0589C10.2911 39.0105 10.2317 38.988 10.1812 39.0105C10.1311 39.0349 10.1092 39.0947 10.1322 39.1452L10.3008 39.5085C10.3182 39.5463 10.354 39.5668 10.3923 39.5668C10.4055 39.5668 10.4203 39.5653 10.4341 39.558C10.4842 39.5356 10.5067 39.4752 10.4832 39.4251V39.4247Z" fill="#ECECEB"/>
    <path fill-rule="evenodd" clip-rule="evenodd" d="M8.75005 35.7994L8.57124 35.4398C8.54664 35.3908 8.4864 35.3703 8.43632 35.3943C8.38669 35.421 8.3668 35.4806 8.3914 35.5298L8.57021 35.8894C8.58803 35.9245 8.62338 35.9456 8.66065 35.9456C8.67538 35.9456 8.69069 35.9412 8.70513 35.9338C8.75462 35.9094 8.7745 35.8496 8.75005 35.7989V35.7994Z" fill="#ECECEB"/>
    <path fill-rule="evenodd" clip-rule="evenodd" d="M9.80355 37.9687L9.63017 37.605C9.60675 37.5564 9.54695 37.534 9.49687 37.558C9.44679 37.5825 9.42528 37.6429 9.44929 37.6928L9.62208 38.0546C9.63946 38.0903 9.67524 38.1127 9.71295 38.1127C9.72768 38.1127 9.74212 38.1098 9.75597 38.1009C9.80605 38.0784 9.82756 38.0186 9.80355 37.9681V37.9687Z" fill="#ECECEB"/>
    <path fill-rule="evenodd" clip-rule="evenodd" d="M9.10402 36.5207L8.92683 36.1605C8.90223 36.1104 8.84241 36.0895 8.79234 36.114C8.74284 36.1386 8.72236 36.1998 8.74637 36.2488L8.92373 36.6084C8.94111 36.6443 8.9769 36.6647 9.01358 36.6647C9.02846 36.6647 9.04377 36.6632 9.05806 36.6558C9.1077 36.6312 9.12862 36.5715 9.10402 36.521V36.5207Z" fill="#ECECEB"/>
    <path fill-rule="evenodd" clip-rule="evenodd" d="M9.45575 37.2435L9.28093 36.8823C9.25648 36.8312 9.19669 36.8107 9.14661 36.8353C9.09654 36.8593 9.07562 36.9195 9.10007 36.9702L9.27489 37.3318C9.29227 37.3676 9.32806 37.3881 9.36577 37.3881C9.3805 37.3881 9.39494 37.3836 9.40878 37.3778C9.45886 37.3538 9.47976 37.2934 9.45575 37.2429V37.2435Z" fill="#ECECEB"/>
    <path fill-rule="evenodd" clip-rule="evenodd" d="M10.1451 38.6956L9.97436 38.332C9.95094 38.2814 9.89116 38.2588 9.84064 38.2834C9.79041 38.308 9.76905 38.3677 9.79306 38.4183L9.96317 38.7799C9.98055 38.8172 10.0169 38.8377 10.0546 38.8377C10.0694 38.8377 10.0832 38.8362 10.097 38.8288C10.1471 38.8064 10.1686 38.7467 10.1451 38.696V38.6956Z" fill="#ECECEB"/>
    <path fill-rule="evenodd" clip-rule="evenodd" d="M10.9892 40.5164C10.931 40.3968 10.8747 40.2768 10.8196 40.1552L10.6525 39.7895C10.6295 39.7394 10.5703 39.7164 10.5196 39.7394C10.4691 39.7634 10.4471 39.8232 10.47 39.8743L10.6367 40.2375V40.239C10.6924 40.3606 10.7495 40.4823 10.8089 40.6043C10.8263 40.6401 10.8619 40.6606 10.8993 40.6606C10.9141 40.6606 10.9294 40.6561 10.9432 40.6488C10.9933 40.6243 11.0138 40.5646 10.9892 40.5155V40.5164Z" fill="#ECECEB"/>
    <path fill-rule="evenodd" clip-rule="evenodd" d="M7.28689 32.9366L7.09926 32.5826C7.07319 32.5336 7.01266 32.5132 6.96361 32.5392C6.91457 32.5657 6.89585 32.6275 6.92192 32.6761L7.10913 33.0301C7.12695 33.0639 7.16171 33.0847 7.19794 33.0847C7.2137 33.0847 7.2296 33.0803 7.24462 33.073C7.29367 33.0463 7.31267 32.9866 7.28689 32.9361V32.9366Z" fill="#ECECEB"/>
    <path fill-rule="evenodd" clip-rule="evenodd" d="M6.91172 32.2268L6.72201 31.8728C6.69594 31.8238 6.63524 31.8048 6.58619 31.8314C6.53729 31.8575 6.51887 31.9193 6.54524 31.9682L6.73437 32.3224C6.75248 32.3561 6.78739 32.3743 6.82303 32.3743C6.83909 32.3743 6.8553 32.3714 6.87032 32.3625C6.91922 32.3365 6.93779 32.2746 6.91172 32.2262V32.2268Z" fill="#ECECEB"/>
    <path fill-rule="evenodd" clip-rule="evenodd" d="M7.65785 33.6502L7.47272 33.2927C7.44739 33.2437 7.38641 33.2253 7.33737 33.2513C7.28803 33.2753 7.2689 33.3372 7.29467 33.3862L7.47964 33.7423C7.49761 33.776 7.5325 33.7964 7.56888 33.7964C7.58435 33.7964 7.60012 33.7935 7.615 33.7847C7.66433 33.7586 7.68348 33.6984 7.65785 33.6498V33.6502Z" fill="#ECECEB"/>
    <path fill-rule="evenodd" clip-rule="evenodd" d="M8.3888 35.0817L8.20732 34.7222C8.18243 34.6731 8.12202 34.6526 8.07253 34.6791C8.02289 34.7031 8.00345 34.7635 8.0285 34.814L8.20939 35.1717C8.22677 35.2073 8.26257 35.2259 8.29881 35.2259C8.31471 35.2259 8.33003 35.2244 8.34432 35.217C8.39396 35.191 8.41385 35.1308 8.3888 35.0822V35.0817Z" fill="#ECECEB"/>
    <path fill-rule="evenodd" clip-rule="evenodd" d="M8.02715 34.364L7.84421 34.0064C7.81858 33.9579 7.75834 33.9369 7.70885 33.9629C7.65951 33.9895 7.64021 34.0493 7.66525 34.0983L7.84848 34.4558C7.8663 34.4897 7.90151 34.5106 7.93833 34.5106C7.9535 34.5106 7.96896 34.5062 7.98368 34.4988C8.03273 34.4748 8.05263 34.4146 8.02715 34.364V34.364Z" fill="#ECECEB"/>
    <path fill-rule="evenodd" clip-rule="evenodd" d="M12.4503 42.8901C12.4165 42.8452 12.3532 42.8359 12.3093 42.8697C12.2649 42.9034 12.2566 42.9673 12.2899 43.0101C12.3716 43.1189 12.4544 43.2236 12.5386 43.3283C12.5587 43.355 12.5877 43.3662 12.6174 43.3662C12.6394 43.3662 12.6618 43.3603 12.6802 43.3453C12.7232 43.3101 12.7302 43.2462 12.6955 43.2033C12.6123 43.1001 12.5299 42.9954 12.4503 42.8901V42.8901Z" fill="#ECECEB"/>
    <path fill-rule="evenodd" clip-rule="evenodd" d="M11.9868 42.2403C11.9556 42.1953 11.8932 42.1836 11.8473 42.2137C11.8012 42.246 11.789 42.3077 11.8196 42.3526C11.8953 42.4651 11.9725 42.5754 12.0506 42.6858C12.0706 42.7123 12.1012 42.7271 12.1323 42.7271C12.1528 42.7271 12.1733 42.7212 12.1912 42.7082C12.2362 42.6766 12.2463 42.6127 12.2141 42.5678C12.1364 42.461 12.0609 42.3507 11.9868 42.2403Z" fill="#ECECEB"/>
    <path fill-rule="evenodd" clip-rule="evenodd" d="M12.9483 43.5104C12.9127 43.469 12.8487 43.4638 12.8069 43.4986C12.7649 43.5344 12.7593 43.5983 12.7951 43.6411C12.882 43.7443 12.971 43.8455 13.0614 43.9446C13.0807 43.9671 13.1084 43.9783 13.1355 43.9783C13.16 43.9783 13.184 43.9695 13.203 43.9522C13.2444 43.9144 13.2473 43.8511 13.2103 43.8097C13.1214 43.7121 13.034 43.611 12.9476 43.5099L12.9483 43.5104Z" fill="#ECECEB"/>
    <path fill-rule="evenodd" clip-rule="evenodd" d="M14.048 44.6664C14.0077 44.629 13.9442 44.629 13.9059 44.6693C13.8682 44.7107 13.8703 44.7744 13.9103 44.8118C14.0086 44.9037 14.1081 44.9956 14.2089 45.0835C14.2278 45.1025 14.2518 45.1096 14.2758 45.1096C14.3033 45.1096 14.331 45.0978 14.3503 45.0758C14.3877 45.0344 14.3836 44.9712 14.3429 44.9333C14.2438 44.8454 14.1457 44.7556 14.0486 44.6658L14.048 44.6664Z" fill="#ECECEB"/>
    <path fill-rule="evenodd" clip-rule="evenodd" d="M11.1676 40.8723C11.1422 40.8217 11.0813 40.8034 11.0323 40.8293C10.9832 40.8554 10.9644 40.9158 10.9899 40.9642C11.0522 41.0842 11.1165 41.2023 11.1825 41.3203C11.2009 41.354 11.2346 41.373 11.2698 41.373C11.2868 41.373 11.3036 41.3671 11.3189 41.3597C11.367 41.3318 11.3849 41.272 11.3578 41.2229C11.2928 41.1069 11.2295 40.991 11.1676 40.8725V40.8723Z" fill="#ECECEB"/>
    <path fill-rule="evenodd" clip-rule="evenodd" d="M11.5577 41.5676C11.5295 41.5206 11.4677 41.5038 11.4197 41.5339C11.3722 41.562 11.3569 41.6238 11.3855 41.6708C11.454 41.7868 11.525 41.9013 11.5976 42.0151C11.6164 42.0453 11.6485 42.0622 11.6824 42.0622C11.7007 42.0622 11.7191 42.0563 11.7354 42.0452C11.7824 42.0171 11.7969 41.9534 11.7667 41.9068C11.6957 41.7959 11.6256 41.682 11.5577 41.5676Z" fill="#ECECEB"/>
    <path fill-rule="evenodd" clip-rule="evenodd" d="M13.4837 44.1044C13.4453 44.063 13.382 44.063 13.3416 44.1C13.3012 44.1376 13.3002 44.201 13.3386 44.2423C13.4316 44.34 13.5262 44.4355 13.6218 44.5309C13.6412 44.5493 13.6667 44.5591 13.6922 44.5591C13.7178 44.5591 13.7439 44.5487 13.7638 44.5309C13.8027 44.4916 13.8027 44.4278 13.7633 44.3884C13.6688 44.295 13.5758 44.1995 13.4843 44.1039L13.4837 44.1044Z" fill="#ECECEB"/>
    <path fill-rule="evenodd" clip-rule="evenodd" d="M14.6436 45.1964C14.6012 45.1608 14.5374 45.1648 14.502 45.2082C14.4664 45.251 14.472 45.3149 14.5138 45.3506C14.6165 45.4364 14.7212 45.5208 14.827 45.605C14.8454 45.6203 14.8673 45.6275 14.8888 45.6275C14.919 45.6275 14.948 45.6143 14.9681 45.5887C15.0022 45.5452 14.9952 45.4834 14.9517 45.4478C14.8474 45.3655 14.7448 45.2812 14.643 45.1969L14.6436 45.1964Z" fill="#ECECEB"/>
    <path fill-rule="evenodd" clip-rule="evenodd" d="M17.8228 47.6096C17.7783 47.5773 17.7154 47.585 17.6823 47.63C17.649 47.6749 17.6577 47.7366 17.7022 47.7703L18.0231 48.012C18.0414 48.0252 18.0625 48.0324 18.0834 48.0324C18.114 48.0324 18.1442 48.0177 18.1641 47.9916C18.1974 47.9486 18.1881 47.8849 18.1436 47.8512L17.8228 47.6096V47.6096Z" fill="#ECECEB"/>
    <path fill-rule="evenodd" clip-rule="evenodd" d="M19.108 48.5739C19.0635 48.5423 19.0008 48.5499 18.967 48.5948C18.9343 48.6398 18.943 48.7016 18.9869 48.7353L19.3083 48.9769C19.3267 48.9902 19.3476 48.9974 19.3685 48.9974C19.3993 48.9974 19.4294 48.9826 19.4488 48.9565C19.482 48.9131 19.4734 48.8497 19.4289 48.816L19.108 48.5739Z" fill="#ECECEB"/>
    <path fill-rule="evenodd" clip-rule="evenodd" d="M18.4673 48.0928C18.4228 48.0591 18.3601 48.0683 18.3264 48.1133C18.2937 48.1566 18.3024 48.2199 18.3468 48.2536L18.6676 48.4938C18.6856 48.5087 18.707 48.5143 18.728 48.5143C18.7587 48.5143 18.7887 48.501 18.8081 48.4749C18.8419 48.4299 18.8327 48.3661 18.7882 48.3345L18.4673 48.0928V48.0928Z" fill="#ECECEB"/>
    <path fill-rule="evenodd" clip-rule="evenodd" d="M15.8969 46.163C15.853 46.1292 15.7897 46.139 15.7564 46.1839C15.7233 46.2269 15.732 46.2906 15.7763 46.3243L16.0978 46.564C16.1156 46.5788 16.1372 46.585 16.1581 46.585C16.1883 46.585 16.2183 46.5717 16.2384 46.5451C16.2715 46.5002 16.2623 46.4369 16.2183 46.4046L15.8969 46.163V46.163Z" fill="#ECECEB"/>
    <path fill-rule="evenodd" clip-rule="evenodd" d="M15.2543 45.6797C15.2105 45.648 15.1471 45.6557 15.1138 45.7001C15.0807 45.7451 15.0894 45.8069 15.1339 45.8406L15.4552 46.0822C15.4731 46.0955 15.4946 46.1032 15.5155 46.1032C15.5457 46.1032 15.5763 46.0879 15.5958 46.0618C15.6289 46.0189 15.6204 45.955 15.5759 45.9213L15.2543 45.6797V45.6797Z" fill="#ECECEB"/>
    <path fill-rule="evenodd" clip-rule="evenodd" d="M16.5394 46.6447C16.4956 46.6125 16.4327 46.6201 16.3989 46.665C16.3656 46.7101 16.3749 46.7718 16.4188 46.8055L16.7397 47.0477C16.7581 47.061 16.7796 47.0681 16.8006 47.0681C16.8307 47.0681 16.8608 47.0529 16.8807 47.0267C16.9139 46.9838 16.9047 46.9201 16.8608 46.8863L16.5394 46.6447V46.6447Z" fill="#ECECEB"/>
    <path fill-rule="evenodd" clip-rule="evenodd" d="M17.1822 47.128C17.1377 47.0943 17.0748 47.1034 17.0417 47.1489C17.0084 47.1918 17.0171 47.2557 17.0616 47.2894L17.3829 47.5289C17.4009 47.5436 17.4218 47.5492 17.4427 47.5492C17.4734 47.5492 17.5036 47.536 17.5235 47.5099C17.5567 47.465 17.5475 47.4017 17.5036 47.3694L17.1822 47.128Z" fill="#ECECEB"/>
    <path fill-rule="evenodd" clip-rule="evenodd" d="M28.0165 55.2683L27.4575 54.8464C27.413 54.8127 27.3502 54.8218 27.317 54.8652C27.2839 54.9101 27.2924 54.974 27.3369 55.0057L27.896 55.4292C27.9138 55.4424 27.9347 55.4476 27.9558 55.4476C27.9864 55.4476 28.0165 55.4344 28.0365 55.4087C28.0696 55.3632 28.0605 55.302 28.0165 55.2683Z" fill="#ECECEB"/>
    <path fill-rule="evenodd" clip-rule="evenodd" d="M24.2464 52.4333C24.2025 52.4016 24.1396 52.4093 24.1059 52.4544C24.0727 52.4993 24.0819 52.561 24.1263 52.5947L24.4473 52.8364C24.4651 52.8496 24.4866 52.8568 24.5075 52.8568C24.5377 52.8568 24.5677 52.8421 24.5878 52.8161C24.6209 52.7705 24.6122 52.7087 24.5677 52.6756L24.2464 52.4333V52.4333Z" fill="#ECECEB"/>
    <path fill-rule="evenodd" clip-rule="evenodd" d="M25.5298 53.3984C25.486 53.3668 25.4224 53.3744 25.3893 53.4193C25.356 53.4638 25.3647 53.5261 25.4096 53.5598L25.7306 53.8014C25.7486 53.8147 25.7699 53.8198 25.7909 53.8198C25.821 53.8198 25.8512 53.8066 25.8711 53.7805C25.9044 53.7354 25.8951 53.6738 25.8512 53.64L25.5298 53.3984V53.3984Z" fill="#ECECEB"/>
    <path fill-rule="evenodd" clip-rule="evenodd" d="M24.8894 52.9172C24.845 52.8835 24.7821 52.8926 24.7489 52.936C24.7151 52.9805 24.7244 53.0442 24.7689 53.078L25.0897 53.3181C25.1076 53.333 25.1291 53.3386 25.1501 53.3386C25.1802 53.3386 25.2103 53.3253 25.2302 53.2993C25.2635 53.2542 25.2548 53.1905 25.2103 53.1588L24.8894 52.9172Z" fill="#ECECEB"/>
    <path fill-rule="evenodd" clip-rule="evenodd" d="M26.8149 54.3632C26.7704 54.3315 26.7077 54.3386 26.6744 54.3837C26.6412 54.4286 26.6499 54.4904 26.6944 54.5242L27.0158 54.7658C27.0336 54.779 27.0545 54.7847 27.0756 54.7847C27.1062 54.7847 27.1369 54.7714 27.1563 54.7453C27.1895 54.7004 27.1803 54.6386 27.1363 54.6049L26.8149 54.3632Z" fill="#ECECEB"/>
    <path fill-rule="evenodd" clip-rule="evenodd" d="M26.1727 53.8814C26.1278 53.8477 26.0655 53.8572 26.0318 53.9002C25.9985 53.9451 26.0077 54.009 26.0516 54.0407L26.3726 54.2824C26.3908 54.2956 26.4123 54.3027 26.4328 54.3027C26.4635 54.3027 26.4937 54.2894 26.5135 54.2639C26.5468 54.219 26.5375 54.1551 26.4937 54.1235L26.1727 53.8814V53.8814Z" fill="#ECECEB"/>
    <path fill-rule="evenodd" clip-rule="evenodd" d="M21.0338 50.0223C20.9893 49.9886 20.9264 49.9983 20.8932 50.0432C20.86 50.0861 20.8687 50.15 20.9131 50.1837L21.2346 50.4233C21.2525 50.4382 21.2734 50.4437 21.2949 50.4437C21.325 50.4437 21.3552 50.4305 21.3751 50.4044C21.4084 50.3599 21.3991 50.296 21.3552 50.2639L21.0338 50.0223V50.0223Z" fill="#ECECEB"/>
    <path fill-rule="evenodd" clip-rule="evenodd" d="M21.6783 50.5037C21.6338 50.4716 21.5709 50.4793 21.5378 50.5242C21.5045 50.5691 21.5132 50.631 21.5576 50.6647L21.879 50.9063C21.897 50.9196 21.9179 50.9272 21.9388 50.9272C21.9694 50.9272 21.9996 50.9125 22.0195 50.8859C22.0528 50.843 22.0435 50.7791 21.9996 50.7454L21.6783 50.5037Z" fill="#ECECEB"/>
    <path fill-rule="evenodd" clip-rule="evenodd" d="M23.6043 51.9519C23.5598 51.9182 23.4969 51.9275 23.4637 51.9724C23.43 52.0158 23.4392 52.0791 23.4836 52.1129L23.8046 52.3529C23.8224 52.3678 23.8439 52.3734 23.8648 52.3734C23.8954 52.3734 23.9256 52.3601 23.9451 52.334C23.9788 52.2891 23.9697 52.2252 23.9252 52.1936L23.6043 51.9519V51.9519Z" fill="#ECECEB"/>
    <path fill-rule="evenodd" clip-rule="evenodd" d="M22.9614 51.4686C22.9169 51.4371 22.8542 51.4441 22.8209 51.4891C22.7877 51.534 22.7964 51.5958 22.8407 51.6295L23.1617 51.8712C23.1801 51.8844 23.201 51.8921 23.2221 51.8921C23.2527 51.8921 23.2828 51.877 23.3022 51.8507C23.3359 51.8058 23.3268 51.7441 23.2823 51.7103L22.9614 51.4686V51.4686Z" fill="#ECECEB"/>
    <path fill-rule="evenodd" clip-rule="evenodd" d="M22.3188 50.9871C22.2744 50.9534 22.2115 50.9626 22.1784 51.0076C22.1451 51.051 22.1538 51.1147 22.1983 51.1485L22.5191 51.3881C22.5375 51.4029 22.5584 51.4085 22.5794 51.4085C22.6101 51.4085 22.6401 51.3953 22.6596 51.3692C22.6933 51.3243 22.6842 51.261 22.6401 51.2287L22.3188 50.9871V50.9871Z" fill="#ECECEB"/>
    <path fill-rule="evenodd" clip-rule="evenodd" d="M27.0579 27.1061L26.7767 27.3948C26.738 27.4341 26.7385 27.498 26.7782 27.5352C26.7977 27.5561 26.8232 27.5654 26.8482 27.5654C26.8749 27.5654 26.9003 27.5536 26.9202 27.5352L27.2008 27.2466C27.2401 27.2073 27.2391 27.1438 27.1998 27.1061C27.16 27.0668 27.0965 27.0668 27.0578 27.1061H27.0579Z" fill="#2A2B26"/>
    <path fill-rule="evenodd" clip-rule="evenodd" d="M26.4969 27.6819L26.2163 27.9685C26.1774 28.0078 26.178 28.0711 26.2177 28.1104C26.2372 28.1293 26.2628 28.1385 26.2879 28.1385C26.3138 28.1385 26.34 28.1297 26.3599 28.109L26.6403 27.8224C26.6792 27.7829 26.6782 27.7192 26.6388 27.6799C26.5995 27.6406 26.536 27.642 26.4969 27.6813V27.6819Z" fill="#2A2B26"/>
    <path fill-rule="evenodd" clip-rule="evenodd" d="M24.8108 29.4035L24.1281 30.093C24.0894 30.1319 24.0903 30.1957 24.1296 30.2335C24.1491 30.254 24.1746 30.2631 24.2002 30.2631C24.2261 30.2631 24.2517 30.2513 24.2716 30.2314L24.9543 29.5439C24.9932 29.5046 24.9922 29.4407 24.9528 29.4014C24.9137 29.3621 24.8497 29.364 24.8108 29.4029V29.4035Z" fill="#2A2B26"/>
    <path fill-rule="evenodd" clip-rule="evenodd" d="M25.3723 28.8302L25.0912 29.1168C25.0525 29.156 25.0529 29.2199 25.0927 29.2592C25.112 29.2776 25.1376 29.2873 25.1627 29.2873C25.1887 29.2873 25.2148 29.2755 25.2347 29.2573L25.5153 28.9706C25.554 28.9292 25.5536 28.8676 25.5138 28.8281C25.4745 28.7888 25.4107 28.7908 25.3723 28.8296V28.8302Z" fill="#2A2B26"/>
    <path fill-rule="evenodd" clip-rule="evenodd" d="M25.9346 28.2549L25.6536 28.5415C25.6147 28.5828 25.6158 28.6463 25.6551 28.6836C25.6751 28.7024 25.7 28.7115 25.7256 28.7115C25.7517 28.7115 25.7777 28.7027 25.7972 28.6819L26.0782 28.3954C26.1165 28.3561 26.1159 28.2922 26.0767 28.2529C26.037 28.2156 25.9736 28.2156 25.9347 28.2543L25.9346 28.2549Z" fill="#2A2B26"/>
    <path fill-rule="evenodd" clip-rule="evenodd" d="M27.7928 26.2782C27.7181 26.385 27.6395 26.4923 27.5577 26.595C27.5533 26.6008 27.5518 26.6067 27.5489 26.6119C27.5445 26.6134 27.5386 26.6178 27.534 26.6207L27.3389 26.8199C27.3006 26.8588 27.3012 26.9226 27.3403 26.962C27.3598 26.9809 27.3848 26.99 27.4103 26.99C27.4364 26.99 27.4624 26.9812 27.4819 26.9604L27.677 26.7618C27.6844 26.7544 27.6888 26.7448 27.6934 26.7351C27.7008 26.7322 27.7083 26.7278 27.7134 26.7204C27.7987 26.6137 27.8804 26.5032 27.9576 26.3925C27.9888 26.3454 27.9771 26.2837 27.9316 26.2519C27.886 26.2202 27.8232 26.233 27.7921 26.2779L27.7928 26.2782Z" fill="#2A2B26"/>
    <path fill-rule="evenodd" clip-rule="evenodd" d="M28.325 25.5514C28.2749 25.5274 28.2151 25.5485 28.1905 25.5984C28.1329 25.7163 28.0699 25.8328 28.004 25.9451C27.9759 25.9937 27.9922 26.0556 28.0398 26.0835C28.0556 26.0924 28.073 26.0968 28.0903 26.0968C28.1251 26.0968 28.1588 26.0778 28.1772 26.0462C28.2457 25.9297 28.3107 25.8103 28.3709 25.686C28.3955 25.6376 28.3753 25.5757 28.325 25.5513V25.5514Z" fill="#2A2B26"/>
    <path fill-rule="evenodd" clip-rule="evenodd" d="M28.6115 24.8025C28.5589 24.7851 28.5026 24.8158 28.4852 24.8679C28.4449 24.9935 28.4 25.1172 28.3509 25.2386C28.3304 25.2893 28.3553 25.3475 28.4066 25.37C28.4184 25.3729 28.4316 25.3759 28.4443 25.3759C28.4842 25.3759 28.5216 25.3535 28.5374 25.314C28.5879 25.1884 28.635 25.0592 28.6763 24.93C28.6937 24.8773 28.6645 24.8191 28.6115 24.8028V24.8025Z" fill="#2A2B26"/>
    <path fill-rule="evenodd" clip-rule="evenodd" d="M28.5449 21.76C28.5801 21.8851 28.6108 22.0144 28.6368 22.1421C28.6457 22.1907 28.688 22.2228 28.7349 22.2228C28.7423 22.2228 28.7482 22.2228 28.7548 22.2213C28.8095 22.2095 28.8442 22.1574 28.8335 22.1032C28.807 21.97 28.7747 21.8371 28.738 21.7058C28.7232 21.6516 28.6671 21.6216 28.6143 21.6363C28.5611 21.6516 28.5295 21.7058 28.5449 21.7604V21.76Z" fill="#2A2B26"/>
    <path fill-rule="evenodd" clip-rule="evenodd" d="M25.561 18.2829C25.6806 18.3369 25.7996 18.3952 25.9142 18.4586C25.9289 18.4659 25.9458 18.4703 25.9622 18.4703C25.9974 18.4703 26.0321 18.4519 26.0501 18.4182C26.0766 18.3692 26.059 18.3095 26.0096 18.2814C25.8911 18.2175 25.7675 18.1557 25.6439 18.0996C25.5932 18.077 25.5334 18.0996 25.511 18.1501C25.4879 18.2007 25.5104 18.2604 25.561 18.2835V18.2829Z" fill="#2A2B26"/>
    <path fill-rule="evenodd" clip-rule="evenodd" d="M26.2531 18.6592C26.364 18.7303 26.4733 18.8053 26.5771 18.882C26.5949 18.8969 26.6159 18.9029 26.6369 18.9029C26.668 18.9029 26.6982 18.8897 26.7176 18.8632C26.7508 18.8181 26.7416 18.7548 26.6977 18.7227C26.5898 18.6425 26.477 18.5637 26.3615 18.4887C26.3149 18.4585 26.2527 18.4739 26.2231 18.5204C26.1929 18.5659 26.2067 18.6292 26.2531 18.6592V18.6592Z" fill="#2A2B26"/>
    <path fill-rule="evenodd" clip-rule="evenodd" d="M24.8205 18.0111C24.9461 18.0469 25.0723 18.0878 25.1955 18.1327C25.2073 18.1386 25.2185 18.1401 25.2298 18.1401C25.2712 18.1401 25.3095 18.114 25.3244 18.0747C25.3432 18.022 25.317 17.9638 25.2646 17.945C25.1367 17.8984 25.0059 17.855 24.8762 17.8177C24.8221 17.8029 24.7669 17.833 24.752 17.8871C24.7367 17.9398 24.7673 17.9955 24.8205 18.0108V18.0111Z" fill="#2A2B26"/>
    <path fill-rule="evenodd" clip-rule="evenodd" d="M22.6577 17.6024C22.6026 17.6024 22.5582 17.6474 22.5586 17.7037C22.5592 17.7583 22.6047 17.8032 22.6593 17.8032C22.6598 17.8032 22.6598 17.8032 22.6604 17.8032H22.7299C22.8387 17.8032 23.5494 17.8047 23.6572 17.812C23.6587 17.812 23.6616 17.812 23.6631 17.812C23.7157 17.812 23.7597 17.7706 23.7633 17.7185C23.7662 17.6623 23.7244 17.6153 23.6687 17.6116C23.5574 17.6043 22.8424 17.6013 22.7296 17.5999L22.6574 17.6013L22.6577 17.6024Z" fill="#2A2B26"/>
    <path fill-rule="evenodd" clip-rule="evenodd" d="M27.172 19.3993C27.1919 19.4197 27.2174 19.4289 27.2436 19.4289C27.2685 19.4289 27.2947 19.42 27.314 19.4009C27.3533 19.3614 27.3533 19.2981 27.3146 19.2584C27.219 19.1628 27.1182 19.0672 27.0156 18.9793C26.9742 18.9421 26.9109 18.9477 26.874 18.9882C26.8378 19.0296 26.8424 19.0935 26.8844 19.1307C26.9829 19.217 27.08 19.307 27.172 19.3989V19.3993Z" fill="#2A2B26"/>
    <path fill-rule="evenodd" clip-rule="evenodd" d="M24.0497 17.8497C24.1794 17.867 24.3098 17.889 24.4385 17.9171C24.4444 17.9171 24.4518 17.9186 24.459 17.9186C24.5055 17.9186 24.5474 17.8848 24.5571 17.8379C24.5689 17.7838 24.5335 17.7311 24.4795 17.7199C24.3466 17.6918 24.2107 17.6694 24.0768 17.651C24.0211 17.6437 23.971 17.6827 23.9638 17.7369C23.9564 17.7915 23.995 17.842 24.0497 17.8492V17.8497Z" fill="#2A2B26"/>
    <path fill-rule="evenodd" clip-rule="evenodd" d="M28.2783 21.0178C28.3313 21.1378 28.3803 21.2594 28.4248 21.383C28.4397 21.4244 28.478 21.4504 28.5194 21.4504C28.5312 21.4504 28.5419 21.4489 28.5535 21.4445C28.6057 21.4241 28.6323 21.368 28.6139 21.3152C28.568 21.188 28.5163 21.061 28.4617 20.9367C28.4391 20.8847 28.3799 20.8622 28.3288 20.8847C28.2783 20.9071 28.2557 20.9669 28.2783 21.0175V21.0178Z" fill="#2A2B26"/>
    <path fill-rule="evenodd" clip-rule="evenodd" d="M28.8455 23.2188C28.7831 23.2232 28.7443 23.2622 28.7432 23.3184C28.7403 23.4492 28.7329 23.5805 28.7213 23.7117C28.7154 23.7659 28.7565 23.815 28.8117 23.8206C28.8147 23.8206 28.8176 23.8206 28.8206 23.8206C28.8723 23.8206 28.9162 23.7812 28.9207 23.7306C28.9325 23.5957 28.9412 23.4568 28.9439 23.322C28.9447 23.2659 28.9008 23.2208 28.8452 23.2188H28.8455Z" fill="#2A2B26"/>
    <path fill-rule="evenodd" clip-rule="evenodd" d="M27.6858 19.9984C27.7052 20.0246 27.7359 20.0379 27.7665 20.0379C27.7874 20.0379 27.8083 20.032 27.8263 20.0189C27.8708 19.9852 27.8803 19.9235 27.8478 19.8784C27.7665 19.7702 27.6806 19.6614 27.5927 19.5582C27.5565 19.5168 27.4931 19.5112 27.4507 19.5464C27.4089 19.5836 27.4042 19.6459 27.4404 19.6889C27.5251 19.788 27.608 19.8912 27.6856 19.9978L27.6858 19.9984Z" fill="#2A2B26"/>
    <path fill-rule="evenodd" clip-rule="evenodd" d="M28.7012 22.5317C28.718 22.6604 28.7299 22.7918 28.737 22.9232C28.7399 22.9772 28.784 23.0186 28.8371 23.0186C28.8386 23.0186 28.8401 23.0186 28.843 23.0186C28.8987 23.0156 28.9411 22.9681 28.938 22.9139C28.9307 22.7769 28.9186 22.6401 28.9012 22.5052C28.8953 22.451 28.8449 22.4117 28.7893 22.4188C28.7342 22.4262 28.6953 22.4751 28.7019 22.5317H28.7012Z" fill="#2A2B26"/>
    <path fill-rule="evenodd" clip-rule="evenodd" d="M28.785 24.0189C28.7299 24.01 28.6782 24.047 28.6695 24.1016C28.6481 24.2309 28.6214 24.36 28.5908 24.4873C28.5776 24.542 28.6107 24.5961 28.6649 24.6095C28.6723 24.6109 28.6808 24.6124 28.6885 24.6124C28.7334 24.6124 28.7748 24.5806 28.786 24.5357C28.8183 24.4024 28.8458 24.2676 28.8679 24.1348C28.8767 24.0801 28.8396 24.028 28.785 24.0183V24.0189Z" fill="#2A2B26"/>
    <path fill-rule="evenodd" clip-rule="evenodd" d="M28.0047 20.4818C28.0399 20.5421 28.0736 20.6019 28.1065 20.6636C28.1247 20.6973 28.1591 20.7163 28.1949 20.7163C28.2112 20.7163 28.227 20.7119 28.2423 20.7045C28.2913 20.678 28.3097 20.6183 28.2837 20.5698C28.2495 20.5059 28.2142 20.442 28.1779 20.3802C28.1457 20.3241 28.1121 20.2699 28.0778 20.2153C28.0482 20.1687 27.9859 20.1555 27.9393 20.1836C27.8923 20.2138 27.8785 20.2755 27.9082 20.322C27.9408 20.3747 27.9736 20.4273 28.0047 20.4813V20.4818Z" fill="#2A2B26"/>
    <path fill-rule="evenodd" clip-rule="evenodd" d="M182.721 36.3479V27.7268L186.282 31.3782V36.4153L182.721 36.3479V36.3479Z" fill="#51524E"/>
    <path fill-rule="evenodd" clip-rule="evenodd" d="M182.721 18.6459V14.498H199.231V15.9125H192.252C190.895 15.9125 189.617 16.3548 188.558 17.1921L188.48 17.2539L188.384 17.2293C187.891 17.1058 187.385 17.044 186.881 17.044C185.493 17.044 184.132 17.52 183.047 18.3854L182.721 18.6459V18.6459Z" fill="#51524E"/>
    <path fill-rule="evenodd" clip-rule="evenodd" d="M172.792 51.1276L174.936 41.1855C175.543 38.3621 178.08 36.3142 180.968 36.3142L186.281 36.4154L182.304 54.8745L182.244 54.9194C182.167 54.9757 182.115 55.0562 182.096 55.1442C182.079 55.2213 182.089 55.3055 182.122 55.3822L182.188 55.5283L182.06 55.6238C181.929 55.725 181.837 55.8639 181.806 56.0172C181.768 56.1858 181.8 56.3599 181.894 56.5122L181.937 56.5811L181.009 60.8843L180.781 60.7795C178.77 59.8427 176.853 58.6852 175.083 57.3341C173.189 55.892 172.289 53.4564 172.792 51.1276V51.1276Z" fill="#2A2B26"/>
    <path fill-rule="evenodd" clip-rule="evenodd" d="M182.368 20.7327C183.272 19.0843 185.004 18.0596 186.885 18.0596C187.009 18.0596 187.134 18.0655 187.259 18.0728L187.619 18.0989L187.408 18.391C186.672 19.4086 186.281 20.6152 186.281 21.8794V29.9295L182.873 26.4467L182.86 26.4318C181.555 24.8003 181.362 22.5634 182.369 20.7327H182.368Z" fill="#2A2B26"/>
    <path fill-rule="evenodd" clip-rule="evenodd" d="M181.536 19.7571C182.713 17.9345 184.709 16.8459 186.877 16.8459C187.347 16.8459 187.819 16.8981 188.28 17.0011L188.67 17.089L188.367 17.3495C188.237 17.46 188.126 17.5632 188.029 17.6607C187.988 17.702 187.949 17.743 187.909 17.7862L187.819 17.8834H187.818L187.734 17.9809C187.668 18.056 187.608 18.1307 187.548 18.2078L187.479 18.2935L187.37 18.2832C187.209 18.2677 187.044 18.2586 186.883 18.2586C185.077 18.2586 183.414 19.244 182.543 20.8291C181.582 22.5822 181.761 24.7221 183.006 26.2917L186.281 29.6433V31.6666L181.928 27.2005C180.202 25.0591 180.047 22.0673 181.537 19.7574L181.536 19.7571Z" fill="#CDCCC9"/>
    <path fill-rule="evenodd" clip-rule="evenodd" d="M199.571 0.501518L199.903 0.252686C199.998 0.312467 200.431 0.780846 200.444 1.11244L200.212 1.28664L182.72 14.4249L182.357 14.6988H180.67L199.571 0.501518V0.501518Z" fill="#9F9F9B"/>
    <path fill-rule="evenodd" clip-rule="evenodd" d="M197.83 0.290084L198.219 0H199.131C199.588 0 199.903 0.252832 199.903 0.252832L180.724 14.6576L180.67 14.699H178.65L197.83 0.290084V0.290084Z" fill="#ECECEB"/>
    <path fill-rule="evenodd" clip-rule="evenodd" d="M203.228 25.3194C204.468 26.8855 204.605 29.0846 203.566 30.7918C203.554 30.8102 203.551 30.8326 203.554 30.8537C203.536 30.8625 203.521 30.874 203.509 30.893C201.899 33.8491 200.378 36.9028 198.985 39.9677C198.028 42.0754 196.544 43.9261 194.69 45.316L182.369 54.5731L186.278 36.4365C186.278 36.4321 186.278 36.4291 186.278 36.4247C186.278 36.4203 186.28 36.4188 186.28 36.4144V21.8785C186.28 20.2842 186.9 18.7854 188.028 17.6596C189.156 16.5317 190.655 15.9116 192.25 15.9116H200.342C201.065 15.9116 201.76 16.1756 202.298 16.6574L203.496 17.727C201.575 19.8326 201.453 23.0759 203.227 25.3184L203.228 25.3194Z" fill="#ECECEB"/>
    <path fill-rule="evenodd" clip-rule="evenodd" d="M181.735 56.5679L195.423 46.2867C197.438 44.775 199.051 42.7629 200.093 40.4699C201.47 37.4366 202.977 34.4166 204.568 31.4921L204.634 31.3742C205.902 29.2419 205.72 26.5107 204.182 24.5644C202.773 22.7862 202.847 20.2669 204.362 18.5765L204.532 18.3855L206.725 20.3455L206.582 20.4952C205.986 21.1209 205.943 22.0669 206.481 22.7453C208.786 25.6565 209.064 29.6056 207.189 32.811L207.176 32.8596L207.144 32.8918C205.066 36.7117 203.147 40.6778 201.446 44.6796C201.125 45.4304 200.61 46.0879 199.958 46.5788L180.783 60.9804L181.735 56.5679V56.5679Z" fill="#00679B"/>
    <path fill-rule="evenodd" clip-rule="evenodd" d="M181.61 55.9744C181.655 55.77 181.771 55.5881 181.936 55.463L181.915 55.3991C181.886 55.3 181.88 55.1969 181.901 55.1013C181.933 54.9532 182.022 54.8204 182.144 54.7397L194.692 45.316C196.546 43.9261 198.03 42.0754 198.987 39.9677C200.376 36.9119 201.892 33.8695 203.497 30.9226L203.585 30.7652C204.604 29.0621 204.463 26.8758 203.23 25.3194C201.439 23.0564 201.58 19.7641 203.556 17.6606L203.598 17.6269C203.723 17.5503 203.894 17.5687 203.998 17.6678C204.049 17.7148 204.081 17.7729 204.096 17.8369C204.251 17.7843 204.432 17.8199 204.557 17.9283C204.752 18.0969 204.78 18.3855 204.613 18.5974L204.512 18.7099C203.063 20.3281 202.99 22.7376 204.34 24.4407C205.931 26.4509 206.116 29.2741 204.806 31.4753L204.742 31.5918C203.153 34.5106 201.651 37.5265 200.277 40.5522C199.222 42.8752 197.584 44.9134 195.543 46.448L181.799 56.7707L181.691 56.5586C181.597 56.3773 181.569 56.1695 181.61 55.9744V55.9744Z" fill="#0098D1"/>
    <path fill-rule="evenodd" clip-rule="evenodd" d="M176.962 8.64355C178.298 8.64355 179.384 9.72859 179.384 11.0644C179.384 12.3981 178.298 13.4847 176.962 13.4847C175.628 13.4847 174.541 12.3981 174.541 11.0644C174.541 9.72859 175.628 8.64355 176.962 8.64355Z" fill="#ECECEB"/>
    <path fill-rule="evenodd" clip-rule="evenodd" d="M199.838 46.4178C200.462 45.9473 200.955 45.3201 201.26 44.6008C202.966 40.5935 204.885 36.6233 206.967 32.7977L206.976 32.7472L207.021 32.7027C208.848 29.5699 208.574 25.7141 206.324 22.8704C205.722 22.1119 205.771 21.0535 206.44 20.3547L206.575 20.2122L206.721 20.3454C210.454 23.749 211.31 29.3767 208.76 33.7346L208.747 33.7591C206.438 37.9984 204.336 42.4144 202.497 46.8806L202.476 46.9333L182.961 61.5907L182.871 61.6581L182.768 61.6188C182.213 61.4053 181.634 61.1637 181.051 60.8995L180.742 60.7607L199.838 46.4178H199.838Z" fill="#ECECEB"/>
    <path fill-rule="evenodd" clip-rule="evenodd" d="M202.501 46.6636L202.485 47.087C202.406 48.9918 202.029 50.86 201.362 52.6377L201.336 52.7086L196.435 55.3879L189.918 60.2816C189.873 60.3132 189.845 60.3617 189.837 60.4144C189.831 60.4649 189.84 60.5135 189.869 60.5549L190.219 61.0212C192.369 61.5142 194.697 61.1995 196.664 60.1538L198.156 59.3616L196.893 60.4819C195.362 61.838 193.533 62.8985 191.606 63.5524L191.567 63.5641L191.528 63.5627C188.604 63.3512 185.733 62.7254 182.993 61.7044L182.65 61.5752L202.501 46.6647V46.6636Z" fill="#00AEEF"/>
    <path fill-rule="evenodd" clip-rule="evenodd" d="M197.057 56.0564L201.684 53.5442L201.633 53.7316C201.298 54.9642 200.811 56.1463 200.177 57.261C198.412 59.884 195.457 61.4522 192.271 61.4522C192.271 61.4522 192.271 61.4522 192.269 61.4522C191.629 61.4522 190.141 61.2515 190.141 61.2515L197.058 56.0564H197.057Z" fill="#51524E"/>
    <path fill-rule="evenodd" clip-rule="evenodd" d="M172.322 55.4572C172.567 55.1161 173.034 54.9698 173.435 55.1088L173.51 55.1328L173.545 55.2044C173.956 55.9854 174.515 56.647 175.206 57.1752C179.937 60.7852 185.577 62.925 191.515 63.3592L191.603 63.3651L191.658 63.4365C191.858 63.6894 191.89 64.0246 191.743 64.3111C191.603 64.5848 191.324 64.7549 191.017 64.7549C190.989 64.7549 190.962 64.7535 190.934 64.752L190.925 64.7505C184.081 64.1248 177.494 61.2571 172.377 56.6704L172.354 56.6485C172.077 56.3057 172.063 55.8162 172.322 55.4587L172.322 55.4572Z" fill="#CDCCC9"/>
    <path fill-rule="evenodd" clip-rule="evenodd" d="M200.445 13.3836C200.445 13.7355 200.308 14.0655 200.059 14.3127C199.812 14.562 199.482 14.6989 199.131 14.6989H182.357L200.445 1.11255V13.3836Z" fill="#2A2B26"/>
    <path fill-rule="evenodd" clip-rule="evenodd" d="M179.182 11.0645C179.182 12.2878 178.188 13.2845 176.962 13.2845C175.738 13.2845 174.741 12.2878 174.741 11.0645C174.741 9.83897 175.738 8.84432 176.962 8.84432C178.188 8.84432 179.182 9.83897 179.182 11.0645ZM173.326 1.31285V13.3836C173.326 14.1089 173.917 14.699 174.642 14.699H178.65L178.702 14.6576L198.219 0H174.642C174.289 0 173.96 0.136357 173.713 0.38373C173.463 0.63287 173.326 0.962401 173.326 1.31285V1.31285Z" fill="#2A2B26"/>
    <path fill-rule="evenodd" clip-rule="evenodd" d="M201.207 52.5497L201.233 52.5364C201.402 52.4613 201.613 52.5139 201.724 52.6621L201.902 52.8981C201.973 52.9916 202 53.1116 201.973 53.226C201.949 53.34 201.876 53.4397 201.773 53.4958L197.056 56.0565L196.389 55.1688L201.207 52.5497V52.5497Z" fill="#797B76"/>
    <path fill-rule="evenodd" clip-rule="evenodd" d="M189.639 60.3862C189.654 60.2794 189.71 60.1855 189.796 60.1201L196.391 55.1687L197.058 56.0565L190.141 61.2516L189.715 60.686C189.652 60.5997 189.624 60.4929 189.639 60.3862Z" fill="#9F9F9B"/>
    <path fill-rule="evenodd" clip-rule="evenodd" d="M189.828 49.539C189.871 49.5074 189.935 49.515 189.969 49.5599C190.001 49.6044 189.993 49.6667 189.948 49.7004L189.628 49.942C189.609 49.9553 189.588 49.9625 189.568 49.9625C189.536 49.9625 189.506 49.9476 189.487 49.9211C189.454 49.8762 189.463 49.8144 189.506 49.7807L189.828 49.539V49.539Z" fill="#ECECEB"/>
    <path fill-rule="evenodd" clip-rule="evenodd" d="M190.47 49.0577C190.515 49.0239 190.578 49.0332 190.611 49.0781C190.644 49.1209 190.635 49.1849 190.592 49.2186L190.269 49.4581C190.253 49.4735 190.232 49.479 190.21 49.479C190.179 49.479 190.15 49.4658 190.129 49.4397C190.097 49.3948 190.104 49.3309 190.15 49.2993L190.47 49.0577V49.0577Z" fill="#ECECEB"/>
    <path fill-rule="evenodd" clip-rule="evenodd" d="M202.543 22.8367C202.515 22.7039 202.49 22.5689 202.472 22.4342C202.464 22.3795 202.502 22.3289 202.556 22.3197C202.614 22.3124 202.663 22.3513 202.67 22.406C202.689 22.5352 202.712 22.6665 202.74 22.7937C202.752 22.8479 202.717 22.9004 202.663 22.9137C202.656 22.9152 202.648 22.9152 202.642 22.9152C202.595 22.9152 202.554 22.8834 202.543 22.8366V22.8367Z" fill="#ECECEB"/>
    <path fill-rule="evenodd" clip-rule="evenodd" d="M202.872 23.6836C202.831 23.6836 202.793 23.6592 202.778 23.6197C202.73 23.4926 202.684 23.3634 202.645 23.2322C202.629 23.1794 202.66 23.1238 202.712 23.1085C202.765 23.0915 202.821 23.1217 202.838 23.1759C202.875 23.2994 202.917 23.4252 202.966 23.5468C202.984 23.5994 202.958 23.6571 202.908 23.678C202.894 23.681 202.883 23.6839 202.872 23.6839V23.6836Z" fill="#ECECEB"/>
    <path fill-rule="evenodd" clip-rule="evenodd" d="M203.36 18.9981C203.342 19.0302 203.31 19.047 203.274 19.047C203.257 19.047 203.238 19.044 203.224 19.0337C203.175 19.0041 203.16 18.9423 203.188 18.8953C203.259 18.7788 203.334 18.6629 203.413 18.5525C203.445 18.5076 203.507 18.4964 203.553 18.5301C203.599 18.5618 203.608 18.6236 203.576 18.6685C203.501 18.7753 203.428 18.8856 203.36 18.9981V18.9981Z" fill="#ECECEB"/>
    <path fill-rule="evenodd" clip-rule="evenodd" d="M202.519 21.5198H202.521C202.575 21.5198 202.62 21.5647 202.62 21.6209V21.6791C202.62 21.7915 202.623 21.9019 202.63 22.0143C202.633 22.0689 202.592 22.1175 202.536 22.121C202.534 22.121 202.531 22.121 202.53 22.121C202.477 22.121 202.432 22.0802 202.43 22.0275C202.423 21.9116 202.42 21.7951 202.42 21.6791V21.6189C202.42 21.5626 202.464 21.5198 202.519 21.5198V21.5198Z" fill="#ECECEB"/>
    <path fill-rule="evenodd" clip-rule="evenodd" d="M202.987 23.8615C203.037 23.8391 203.097 23.86 203.12 23.9106C203.176 24.0265 203.238 24.1445 203.304 24.259C203.33 24.3075 203.313 24.3678 203.266 24.3958C203.249 24.4046 203.232 24.4091 203.215 24.4091C203.182 24.4091 203.148 24.3902 203.129 24.3586C203.062 24.2405 202.998 24.119 202.94 23.9974C202.915 23.9463 202.937 23.8865 202.987 23.8619V23.8615Z" fill="#ECECEB"/>
    <path fill-rule="evenodd" clip-rule="evenodd" d="M202.873 20.0718C202.832 20.1974 202.796 20.3246 202.766 20.4504C202.754 20.4968 202.713 20.5269 202.668 20.5269C202.661 20.5269 202.652 20.527 202.644 20.5255C202.59 20.5122 202.558 20.458 202.571 20.4038C202.603 20.2731 202.64 20.1398 202.682 20.0105C202.699 19.9584 202.755 19.9282 202.807 19.9452C202.862 19.9636 202.89 20.0197 202.873 20.0724V20.0718Z" fill="#ECECEB"/>
    <path fill-rule="evenodd" clip-rule="evenodd" d="M203.17 19.3427C203.112 19.4607 203.056 19.5808 203.007 19.7029C202.992 19.7402 202.955 19.7642 202.915 19.7642C202.902 19.7642 202.889 19.7627 202.876 19.7568C202.825 19.7364 202.801 19.6761 202.822 19.6255C202.872 19.5003 202.931 19.3747 202.99 19.2526C203.016 19.204 203.077 19.1836 203.125 19.2076C203.176 19.2342 203.195 19.294 203.17 19.3425V19.3427Z" fill="#ECECEB"/>
    <path fill-rule="evenodd" clip-rule="evenodd" d="M203.806 18.3461C203.783 18.3742 203.747 18.3875 203.714 18.384C203.695 18.3825 203.678 18.3737 203.663 18.3629C203.62 18.3292 203.613 18.2654 203.646 18.2224C203.731 18.1157 203.818 18.011 203.91 17.9098C203.948 17.8684 204.012 17.867 204.053 17.9039C204.092 17.9412 204.096 18.0051 204.059 18.0444C203.97 18.142 203.886 18.243 203.806 18.3458L203.806 18.3461Z" fill="#ECECEB"/>
    <path fill-rule="evenodd" clip-rule="evenodd" d="M203.902 25.3981C203.87 25.3981 203.839 25.3828 203.818 25.3532C203.745 25.2463 203.668 25.1395 203.585 25.0365C203.501 24.9297 203.421 24.8172 203.344 24.7065C203.312 24.66 203.325 24.5981 203.37 24.566C203.417 24.5363 203.478 24.5476 203.511 24.594C203.584 24.7007 203.662 24.8076 203.743 24.9107C203.827 25.0175 203.91 25.1284 203.985 25.2407C204.017 25.2878 204.003 25.3491 203.958 25.3812C203.941 25.393 203.921 25.3981 203.902 25.3981V25.3981Z" fill="#ECECEB"/>
    <path fill-rule="evenodd" clip-rule="evenodd" d="M202.687 20.8359C202.666 20.9657 202.649 21.0964 202.638 21.2278C202.634 21.2803 202.589 21.3197 202.538 21.3197C202.536 21.3197 202.533 21.3197 202.53 21.3197C202.475 21.3138 202.434 21.265 202.438 21.2088C202.451 21.0739 202.468 20.937 202.488 20.8042C202.497 20.7501 202.55 20.7123 202.605 20.722C202.659 20.7293 202.697 20.7818 202.687 20.8359H202.687Z" fill="#ECECEB"/>
    <path fill-rule="evenodd" clip-rule="evenodd" d="M204.822 28.425C204.765 28.425 204.72 28.3805 204.722 28.3238V28.2977C204.722 28.1763 204.719 28.0542 204.709 27.9305C204.706 27.8763 204.747 27.8279 204.803 27.8238C204.859 27.8223 204.906 27.8616 204.91 27.9177C204.919 28.0449 204.923 28.1705 204.923 28.2977V28.3259C204.923 28.3821 204.878 28.425 204.822 28.425V28.425Z" fill="#ECECEB"/>
    <path fill-rule="evenodd" clip-rule="evenodd" d="M204.741 29.225C204.687 29.2161 204.65 29.1652 204.657 29.1089C204.678 28.9798 204.693 28.8485 204.704 28.7177C204.707 28.6631 204.755 28.6237 204.813 28.6258C204.867 28.6317 204.909 28.6799 204.904 28.7346C204.893 28.8694 204.876 29.0059 204.856 29.1407C204.848 29.1896 204.805 29.225 204.757 29.225C204.752 29.225 204.746 29.225 204.741 29.225V29.225Z" fill="#ECECEB"/>
    <path fill-rule="evenodd" clip-rule="evenodd" d="M204.78 27.6251C204.775 27.6251 204.769 27.6251 204.764 27.6251C204.716 27.6251 204.673 27.5899 204.667 27.5394C204.646 27.4101 204.624 27.2789 204.594 27.1515C204.583 27.0989 204.617 27.0443 204.671 27.0331C204.725 27.0199 204.78 27.0541 204.791 27.1082C204.821 27.2415 204.845 27.3764 204.866 27.5113C204.873 27.5655 204.836 27.616 204.78 27.6251Z" fill="#ECECEB"/>
    <path fill-rule="evenodd" clip-rule="evenodd" d="M203.69 31.5185L203.881 31.1661C203.896 31.138 203.939 31.0558 203.956 31.0277L203.999 30.9547C204.027 30.9056 204.089 30.8908 204.138 30.9189C204.185 30.947 204.201 31.0087 204.173 31.0559L204.126 31.1304C204.112 31.1569 204.072 31.2336 204.057 31.2617L203.866 31.614C203.847 31.6478 203.814 31.6662 203.778 31.6662C203.761 31.6662 203.746 31.6632 203.729 31.6544C203.68 31.6283 203.664 31.5665 203.69 31.5179V31.5185Z" fill="#ECECEB"/>
    <path fill-rule="evenodd" clip-rule="evenodd" d="M204.621 26.8385C204.612 26.84 204.6 26.8415 204.591 26.8415C204.548 26.8415 204.508 26.8134 204.495 26.7705C204.458 26.6449 204.414 26.5192 204.366 26.3975C204.347 26.347 204.372 26.2893 204.424 26.2684C204.477 26.248 204.534 26.2743 204.553 26.3266C204.602 26.4523 204.647 26.581 204.688 26.7124C204.703 26.7649 204.673 26.821 204.621 26.838V26.8385Z" fill="#ECECEB"/>
    <path fill-rule="evenodd" clip-rule="evenodd" d="M204.344 26.0833C204.329 26.0907 204.314 26.0951 204.301 26.0951C204.263 26.0951 204.226 26.0726 204.209 26.0368C204.153 25.9189 204.091 25.803 204.027 25.6884C203.999 25.64 204.016 25.5781 204.065 25.5516C204.112 25.5239 204.174 25.5398 204.202 25.5893C204.269 25.7074 204.333 25.8289 204.391 25.951C204.415 26.0016 204.392 26.0614 204.344 26.0838V26.0833Z" fill="#ECECEB"/>
    <path fill-rule="evenodd" clip-rule="evenodd" d="M204.48 29.8754C204.519 29.7519 204.552 29.6226 204.583 29.4968C204.596 29.4428 204.65 29.4091 204.702 29.4223C204.757 29.4341 204.791 29.4877 204.777 29.5419C204.747 29.6731 204.712 29.8059 204.671 29.9372C204.657 29.9786 204.616 30.0067 204.575 30.0067C204.563 30.0067 204.554 30.0053 204.545 30.0023C204.491 29.986 204.463 29.9293 204.48 29.8751V29.8754Z" fill="#ECECEB"/>
    <path fill-rule="evenodd" clip-rule="evenodd" d="M204.188 30.6079C204.244 30.4899 204.298 30.3683 204.347 30.2462C204.368 30.1956 204.426 30.1711 204.478 30.1921C204.529 30.2125 204.553 30.2707 204.533 30.3213C204.484 30.4469 204.428 30.5721 204.368 30.6958C204.351 30.7314 204.315 30.7525 204.278 30.7525C204.263 30.7525 204.248 30.748 204.233 30.7407C204.184 30.7167 204.164 30.6563 204.188 30.6079V30.6079Z" fill="#ECECEB"/>
    <path fill-rule="evenodd" clip-rule="evenodd" d="M199.738 39.4247L199.906 39.0589C199.93 39.0105 199.989 38.988 200.039 39.0105C200.09 39.0349 200.112 39.0947 200.088 39.1452L199.919 39.5085C199.902 39.5463 199.867 39.5668 199.829 39.5668C199.815 39.5668 199.801 39.5653 199.786 39.558C199.736 39.5356 199.715 39.4752 199.738 39.4251V39.4247Z" fill="#ECECEB"/>
    <path fill-rule="evenodd" clip-rule="evenodd" d="M201.473 35.7994L201.653 35.4398C201.677 35.3908 201.737 35.3703 201.786 35.3943C201.837 35.421 201.857 35.4806 201.831 35.5298L201.653 35.8894C201.636 35.9245 201.601 35.9456 201.563 35.9456C201.548 35.9456 201.533 35.9412 201.518 35.9338C201.469 35.9094 201.449 35.8496 201.473 35.7989V35.7994Z" fill="#ECECEB"/>
    <path fill-rule="evenodd" clip-rule="evenodd" d="M200.418 37.9687L200.591 37.605C200.615 37.5564 200.675 37.534 200.726 37.558C200.774 37.5825 200.797 37.6429 200.773 37.6928L200.6 38.0546C200.581 38.0903 200.546 38.1127 200.508 38.1127C200.493 38.1127 200.48 38.1098 200.465 38.1009C200.415 38.0784 200.394 38.0186 200.418 37.9681V37.9687Z" fill="#ECECEB"/>
    <path fill-rule="evenodd" clip-rule="evenodd" d="M201.116 36.5207L201.294 36.1605C201.318 36.1104 201.378 36.0895 201.429 36.114C201.478 36.1386 201.498 36.1998 201.473 36.2488L201.297 36.6084C201.279 36.6443 201.243 36.6647 201.206 36.6647C201.19 36.6647 201.176 36.6632 201.163 36.6558C201.112 36.6312 201.091 36.5715 201.116 36.521V36.5207Z" fill="#ECECEB"/>
    <path fill-rule="evenodd" clip-rule="evenodd" d="M200.766 37.2435L200.94 36.8823C200.964 36.8312 201.025 36.8107 201.075 36.8353C201.126 36.8593 201.146 36.9195 201.122 36.9702L200.946 37.3318C200.929 37.3676 200.894 37.3881 200.856 37.3881C200.841 37.3881 200.826 37.3836 200.813 37.3778C200.762 37.3538 200.742 37.2934 200.766 37.2429V37.2435Z" fill="#ECECEB"/>
    <path fill-rule="evenodd" clip-rule="evenodd" d="M200.076 38.6956L200.247 38.332C200.269 38.2814 200.331 38.2588 200.38 38.2834C200.43 38.308 200.451 38.3677 200.429 38.4183L200.258 38.7799C200.241 38.8172 200.203 38.8377 200.166 38.8377C200.153 38.8377 200.138 38.8362 200.125 38.8288C200.075 38.8064 200.052 38.7467 200.076 38.696V38.6956Z" fill="#ECECEB"/>
    <path fill-rule="evenodd" clip-rule="evenodd" d="M199.233 40.5164C199.291 40.3968 199.348 40.2768 199.403 40.1552L199.57 39.7895C199.593 39.7394 199.652 39.7164 199.704 39.7394C199.752 39.7634 199.775 39.8232 199.752 39.8722L199.585 40.2375V40.239C199.529 40.3606 199.473 40.4823 199.413 40.6043C199.396 40.6401 199.36 40.6606 199.323 40.6606C199.308 40.6606 199.293 40.6561 199.28 40.6488C199.229 40.6243 199.208 40.5646 199.233 40.5155V40.5164Z" fill="#ECECEB"/>
    <path fill-rule="evenodd" clip-rule="evenodd" d="M202.934 32.9367L203.122 32.5827C203.148 32.532 203.21 32.5132 203.259 32.5393C203.307 32.5658 203.326 32.6276 203.3 32.6762L203.113 33.0302C203.095 33.0639 203.06 33.0848 203.024 33.0848C203.007 33.0848 202.993 33.0804 202.978 33.073C202.929 33.0464 202.91 32.9866 202.934 32.9361V32.9367Z" fill="#ECECEB"/>
    <path fill-rule="evenodd" clip-rule="evenodd" d="M203.311 32.2268L203.5 31.8728C203.526 31.8238 203.588 31.8048 203.637 31.8314C203.686 31.8575 203.705 31.9193 203.678 31.9682L203.489 32.3224C203.47 32.3561 203.434 32.3743 203.399 32.3743C203.384 32.3743 203.367 32.3714 203.352 32.3625C203.303 32.3365 203.284 32.2746 203.311 32.2262V32.2268Z" fill="#ECECEB"/>
    <path fill-rule="evenodd" clip-rule="evenodd" d="M202.562 33.6502L202.748 33.2927C202.772 33.2437 202.834 33.2253 202.883 33.2513C202.932 33.2753 202.952 33.3372 202.926 33.3862L202.74 33.7423C202.723 33.776 202.688 33.7964 202.65 33.7964C202.635 33.7964 202.621 33.7935 202.605 33.7847C202.557 33.7586 202.536 33.6984 202.562 33.6498V33.6502Z" fill="#ECECEB"/>
    <path fill-rule="evenodd" clip-rule="evenodd" d="M201.832 35.0817L202.012 34.7222C202.038 34.6731 202.098 34.6526 202.147 34.6791C202.197 34.7031 202.216 34.7635 202.192 34.814L202.01 35.1717C201.993 35.2073 201.957 35.2259 201.922 35.2259C201.905 35.2259 201.89 35.2244 201.875 35.217C201.826 35.191 201.805 35.1308 201.832 35.0822V35.0817Z" fill="#ECECEB"/>
    <path fill-rule="evenodd" clip-rule="evenodd" d="M202.195 34.364L202.379 34.0064C202.403 33.9579 202.463 33.9369 202.514 33.9629C202.562 33.9895 202.581 34.0493 202.557 34.0983L202.373 34.4558C202.356 34.4897 202.321 34.5106 202.283 34.5106C202.268 34.5106 202.253 34.5062 202.238 34.4988C202.189 34.4748 202.169 34.413 202.195 34.364V34.364Z" fill="#ECECEB"/>
    <path fill-rule="evenodd" clip-rule="evenodd" d="M197.771 42.8901C197.805 42.8452 197.869 42.8359 197.911 42.8697C197.956 42.9034 197.966 42.9673 197.932 43.0101C197.849 43.1189 197.767 43.2236 197.683 43.3283C197.662 43.355 197.634 43.3662 197.604 43.3662C197.582 43.3662 197.559 43.3603 197.542 43.3453C197.497 43.3101 197.492 43.2462 197.526 43.2033C197.61 43.1001 197.69 42.9954 197.771 42.8901V42.8901Z" fill="#ECECEB"/>
    <path fill-rule="evenodd" clip-rule="evenodd" d="M198.237 42.2403C198.268 42.1953 198.33 42.1836 198.377 42.2137C198.422 42.246 198.435 42.3077 198.403 42.3526C198.328 42.4651 198.251 42.5754 198.173 42.6858C198.153 42.7123 198.122 42.7271 198.091 42.7271C198.07 42.7271 198.049 42.7212 198.032 42.7082C197.987 42.6766 197.976 42.6127 198.01 42.5678C198.087 42.461 198.162 42.3507 198.237 42.2403Z" fill="#ECECEB"/>
    <path fill-rule="evenodd" clip-rule="evenodd" d="M197.272 43.5104C197.307 43.469 197.371 43.4638 197.413 43.4986C197.456 43.5344 197.461 43.5983 197.425 43.6411C197.338 43.7443 197.248 43.8455 197.158 43.9446C197.139 43.9671 197.111 43.9783 197.083 43.9783C197.061 43.9783 197.036 43.9695 197.018 43.9522C196.976 43.9144 196.973 43.8511 197.01 43.8097C197.098 43.7121 197.187 43.611 197.273 43.5099L197.272 43.5104Z" fill="#ECECEB"/>
    <path fill-rule="evenodd" clip-rule="evenodd" d="M196.174 44.6664C196.215 44.629 196.278 44.629 196.316 44.6693C196.354 44.7107 196.352 44.7744 196.312 44.8118C196.213 44.9037 196.114 44.9956 196.013 45.0835C195.994 45.1025 195.969 45.1096 195.947 45.1096C195.918 45.1096 195.89 45.0978 195.872 45.0758C195.834 45.0344 195.838 44.9712 195.879 44.9333C195.978 44.8454 196.078 44.7556 196.174 44.6658L196.174 44.6664Z" fill="#ECECEB"/>
    <path fill-rule="evenodd" clip-rule="evenodd" d="M199.053 40.8723C199.079 40.8217 199.139 40.8034 199.188 40.8293C199.236 40.8554 199.257 40.9158 199.231 40.9642C199.169 41.0842 199.103 41.2023 199.038 41.3203C199.019 41.354 198.985 41.373 198.95 41.373C198.935 41.373 198.918 41.3671 198.901 41.3597C198.852 41.3318 198.835 41.272 198.863 41.2229C198.927 41.1069 198.991 40.991 199.053 40.8725V40.8723Z" fill="#ECECEB"/>
    <path fill-rule="evenodd" clip-rule="evenodd" d="M198.664 41.5676C198.692 41.5206 198.754 41.5038 198.802 41.5339C198.849 41.562 198.864 41.6238 198.836 41.6708C198.767 41.7868 198.697 41.9013 198.624 42.0151C198.605 42.0453 198.574 42.0622 198.54 42.0622C198.521 42.0622 198.502 42.0563 198.486 42.0452C198.439 42.0171 198.425 41.9534 198.456 41.9068C198.527 41.7943 198.596 41.682 198.664 41.5676V41.5676Z" fill="#ECECEB"/>
    <path fill-rule="evenodd" clip-rule="evenodd" d="M196.739 44.1044C196.779 44.063 196.84 44.063 196.881 44.1C196.921 44.1376 196.923 44.201 196.884 44.2423C196.791 44.34 196.697 44.4355 196.602 44.5309C196.581 44.5493 196.557 44.5591 196.53 44.5591C196.504 44.5591 196.478 44.5487 196.459 44.5309C196.42 44.4916 196.42 44.4278 196.459 44.3884C196.555 44.295 196.647 44.1995 196.739 44.1039L196.739 44.1044Z" fill="#ECECEB"/>
    <path fill-rule="evenodd" clip-rule="evenodd" d="M195.576 45.1944C195.619 45.1607 195.682 45.1646 195.718 45.2076C195.753 45.2505 195.748 45.3123 195.705 45.35C195.602 45.4359 195.497 45.5202 195.392 45.6045C195.373 45.6198 195.35 45.627 195.33 45.627C195.3 45.627 195.27 45.6138 195.251 45.5881C195.215 45.5447 195.223 45.4814 195.266 45.4472C195.371 45.3649 195.474 45.2807 195.576 45.1944Z" fill="#ECECEB"/>
    <path fill-rule="evenodd" clip-rule="evenodd" d="M192.398 47.6096C192.442 47.5773 192.505 47.585 192.539 47.63C192.571 47.6749 192.563 47.7366 192.518 47.7703L192.198 48.012C192.18 48.0252 192.159 48.0324 192.136 48.0324C192.106 48.0324 192.076 48.0177 192.058 47.9916C192.024 47.9486 192.033 47.8849 192.076 47.8512L192.398 47.6096V47.6096Z" fill="#ECECEB"/>
    <path fill-rule="evenodd" clip-rule="evenodd" d="M191.113 48.5739C191.158 48.5423 191.22 48.5499 191.254 48.5948C191.288 48.6398 191.278 48.7016 191.235 48.7353L190.913 48.9769C190.894 48.9902 190.873 48.9974 190.853 48.9974C190.823 48.9974 190.793 48.9826 190.772 48.9565C190.738 48.911 190.748 48.8497 190.793 48.816L191.113 48.5739V48.5739Z" fill="#ECECEB"/>
    <path fill-rule="evenodd" clip-rule="evenodd" d="M191.756 48.0928C191.799 48.0591 191.863 48.0683 191.897 48.1133C191.931 48.1566 191.921 48.2199 191.876 48.2536L191.556 48.4938C191.537 48.5087 191.516 48.5143 191.496 48.5143C191.464 48.5143 191.434 48.501 191.415 48.4749C191.381 48.4299 191.39 48.3661 191.434 48.3345L191.756 48.0928V48.0928Z" fill="#ECECEB"/>
    <path fill-rule="evenodd" clip-rule="evenodd" d="M194.325 46.163C194.368 46.1292 194.431 46.139 194.465 46.1839C194.497 46.2269 194.489 46.2906 194.444 46.3243L194.124 46.564C194.105 46.5788 194.084 46.585 194.064 46.585C194.032 46.585 194.002 46.5717 193.983 46.5451C193.95 46.5002 193.959 46.4369 194.002 46.4046L194.325 46.163V46.163Z" fill="#ECECEB"/>
    <path fill-rule="evenodd" clip-rule="evenodd" d="M194.966 45.6797C195.011 45.648 195.075 45.6557 195.107 45.7001C195.14 45.7451 195.131 45.8069 195.088 45.8406L194.765 46.0822C194.749 46.0955 194.726 46.1032 194.705 46.1032C194.676 46.1032 194.646 46.0879 194.625 46.0618C194.593 46.0189 194.601 45.955 194.646 45.9213L194.966 45.6797V45.6797Z" fill="#ECECEB"/>
    <path fill-rule="evenodd" clip-rule="evenodd" d="M193.682 46.6447C193.727 46.6125 193.789 46.6201 193.822 46.665C193.856 46.7101 193.847 46.7718 193.801 46.8055L193.481 47.0477C193.463 47.061 193.442 47.0681 193.421 47.0681C193.391 47.0681 193.361 47.0529 193.34 47.0267C193.307 46.9838 193.316 46.9201 193.361 46.8863L193.682 46.6447V46.6447Z" fill="#ECECEB"/>
    <path fill-rule="evenodd" clip-rule="evenodd" d="M193.039 47.128C193.084 47.0943 193.146 47.1034 193.18 47.1489C193.213 47.1918 193.204 47.2557 193.161 47.2894L192.839 47.5289C192.822 47.5436 192.799 47.5492 192.779 47.5492C192.749 47.5492 192.719 47.536 192.698 47.5099C192.664 47.465 192.674 47.4017 192.719 47.3694L193.039 47.128V47.128Z" fill="#ECECEB"/>
    <path fill-rule="evenodd" clip-rule="evenodd" d="M182.207 55.2683L182.765 54.8464C182.81 54.8127 182.872 54.8218 182.906 54.8652C182.94 54.9101 182.93 54.974 182.885 55.0057L182.327 55.4292C182.31 55.4424 182.288 55.4476 182.267 55.4476C182.237 55.4476 182.207 55.4344 182.186 55.4087C182.153 55.3632 182.162 55.302 182.207 55.2683V55.2683Z" fill="#ECECEB"/>
    <path fill-rule="evenodd" clip-rule="evenodd" d="M185.974 52.4333C186.019 52.4016 186.083 52.4093 186.116 52.4544C186.148 52.4993 186.141 52.561 186.096 52.5947L185.773 52.8363C185.757 52.8496 185.736 52.8553 185.713 52.8553C185.683 52.8553 185.653 52.8421 185.633 52.816C185.601 52.7705 185.608 52.7087 185.653 52.6756L185.974 52.4333V52.4333Z" fill="#ECECEB"/>
    <path fill-rule="evenodd" clip-rule="evenodd" d="M184.692 53.3984C184.737 53.3668 184.798 53.3744 184.832 53.4193C184.866 53.4638 184.857 53.5261 184.812 53.5598L184.491 53.8014C184.472 53.8147 184.452 53.8198 184.431 53.8198C184.401 53.8198 184.371 53.8066 184.35 53.7805C184.316 53.7354 184.326 53.6738 184.371 53.64L184.692 53.3984Z" fill="#ECECEB"/>
    <path fill-rule="evenodd" clip-rule="evenodd" d="M185.334 52.9172C185.377 52.8835 185.441 52.8926 185.474 52.936C185.508 52.9805 185.499 53.0442 185.454 53.0765L185.134 53.3181C185.115 53.3314 185.094 53.3386 185.073 53.3386C185.042 53.3386 185.012 53.3253 184.993 53.2993C184.959 53.2542 184.969 53.1905 185.012 53.1588L185.334 52.9172V52.9172Z" fill="#ECECEB"/>
    <path fill-rule="evenodd" clip-rule="evenodd" d="M183.407 54.3632C183.449 54.3315 183.513 54.3386 183.547 54.3837C183.579 54.4286 183.572 54.4904 183.527 54.5242L183.206 54.7658C183.187 54.779 183.166 54.7847 183.146 54.7847C183.114 54.7847 183.084 54.7714 183.065 54.7453C183.031 54.7004 183.041 54.6386 183.084 54.6049L183.407 54.3632V54.3632Z" fill="#ECECEB"/>
    <path fill-rule="evenodd" clip-rule="evenodd" d="M184.048 53.8814C184.093 53.8477 184.157 53.8572 184.188 53.9002C184.222 53.9451 184.213 54.009 184.17 54.0407L183.848 54.2824C183.831 54.2956 183.808 54.3027 183.787 54.3027C183.757 54.3027 183.728 54.2894 183.707 54.2639C183.675 54.219 183.683 54.1551 183.728 54.1214L184.048 53.8814V53.8814Z" fill="#ECECEB"/>
    <path fill-rule="evenodd" clip-rule="evenodd" d="M189.187 50.0223C189.232 49.9886 189.294 49.9983 189.328 50.0432C189.362 50.0861 189.352 50.15 189.307 50.1837L188.987 50.4233C188.968 50.4382 188.948 50.4437 188.927 50.4437C188.897 50.4437 188.867 50.4305 188.846 50.4044C188.813 50.3599 188.822 50.296 188.867 50.2639L189.187 50.0223V50.0223Z" fill="#ECECEB"/>
    <path fill-rule="evenodd" clip-rule="evenodd" d="M188.544 50.5037C188.589 50.4716 188.651 50.4793 188.685 50.5242C188.718 50.5691 188.709 50.631 188.666 50.6647L188.344 50.9063C188.327 50.9196 188.304 50.9272 188.284 50.9272C188.254 50.9272 188.224 50.9125 188.203 50.8859C188.171 50.841 188.178 50.7791 188.224 50.7454L188.544 50.5037V50.5037Z" fill="#ECECEB"/>
    <path fill-rule="evenodd" clip-rule="evenodd" d="M186.617 51.9519C186.662 51.9182 186.724 51.9275 186.758 51.9724C186.791 52.0158 186.782 52.0791 186.739 52.1129L186.417 52.3529C186.4 52.3662 186.377 52.3734 186.357 52.3734C186.327 52.3734 186.297 52.3601 186.276 52.334C186.242 52.2891 186.252 52.2252 186.297 52.1936L186.617 51.9519V51.9519Z" fill="#ECECEB"/>
    <path fill-rule="evenodd" clip-rule="evenodd" d="M187.26 51.4686C187.303 51.4371 187.366 51.4441 187.4 51.4891C187.434 51.534 187.425 51.5958 187.38 51.6295L187.059 51.8712C187.04 51.8844 187.02 51.8902 186.999 51.8902C186.969 51.8902 186.937 51.877 186.919 51.8507C186.885 51.8058 186.894 51.7441 186.939 51.7103L187.26 51.4686V51.4686Z" fill="#ECECEB"/>
    <path fill-rule="evenodd" clip-rule="evenodd" d="M187.902 50.9871C187.945 50.9534 188.009 50.9626 188.043 51.0076C188.074 51.051 188.067 51.1147 188.022 51.1485L187.702 51.3881C187.683 51.4013 187.663 51.4085 187.64 51.4085C187.61 51.4085 187.58 51.3953 187.561 51.3692C187.528 51.3243 187.537 51.261 187.58 51.2287L187.902 50.9871V50.9871Z" fill="#ECECEB"/>
    <path fill-rule="evenodd" clip-rule="evenodd" d="M183.164 27.1061L183.445 27.3948C183.484 27.4341 183.482 27.498 183.443 27.5352C183.425 27.5561 183.399 27.5654 183.374 27.5654C183.348 27.5654 183.322 27.5536 183.301 27.5352L183.02 27.2466C182.983 27.2073 182.983 27.1438 183.022 27.1061C183.061 27.0668 183.125 27.0668 183.164 27.1061H183.164Z" fill="#2A2B26"/>
    <path fill-rule="evenodd" clip-rule="evenodd" d="M183.725 27.6819L184.006 27.9685C184.044 28.0078 184.044 28.0711 184.005 28.1104C183.984 28.1293 183.96 28.1385 183.933 28.1385C183.907 28.1385 183.883 28.1297 183.862 28.109L183.581 27.8224C183.542 27.7829 183.544 27.7192 183.583 27.6799C183.622 27.6406 183.686 27.642 183.725 27.6813V27.6819Z" fill="#2A2B26"/>
    <path fill-rule="evenodd" clip-rule="evenodd" d="M185.41 29.4035L186.092 30.093C186.131 30.1319 186.131 30.1957 186.09 30.2335C186.072 30.2519 186.047 30.2631 186.021 30.2631C185.995 30.2631 185.969 30.2513 185.95 30.2314L185.266 29.5439C185.229 29.5046 185.229 29.4407 185.268 29.4014C185.307 29.3621 185.37 29.364 185.41 29.4029L185.41 29.4035Z" fill="#2A2B26"/>
    <path fill-rule="evenodd" clip-rule="evenodd" d="M184.848 28.8302L185.129 29.1168C185.168 29.156 185.168 29.2199 185.127 29.2592C185.108 29.2776 185.082 29.2873 185.058 29.2873C185.032 29.2873 185.005 29.2755 184.986 29.2573L184.705 28.9706C184.666 28.9292 184.666 28.8655 184.707 28.8281C184.746 28.7888 184.81 28.7908 184.847 28.8296L184.848 28.8302Z" fill="#2A2B26"/>
    <path fill-rule="evenodd" clip-rule="evenodd" d="M184.288 28.2549L184.567 28.5415C184.607 28.5828 184.607 28.6441 184.567 28.6836C184.547 28.7024 184.522 28.7115 184.496 28.7115C184.47 28.7115 184.444 28.7027 184.425 28.6819L184.144 28.3954C184.104 28.3561 184.107 28.2922 184.145 28.2529C184.185 28.2156 184.248 28.2156 184.287 28.2543L184.288 28.2549Z" fill="#2A2B26"/>
    <path fill-rule="evenodd" clip-rule="evenodd" d="M182.428 26.2782C182.503 26.385 182.582 26.4923 182.665 26.595C182.668 26.5994 182.671 26.6067 182.672 26.6119C182.678 26.6134 182.684 26.6178 182.687 26.6207L182.882 26.8199C182.921 26.8588 182.919 26.9226 182.881 26.962C182.862 26.9809 182.836 26.99 182.812 26.99C182.785 26.99 182.759 26.9812 182.738 26.9604L182.543 26.7618C182.537 26.7544 182.532 26.7448 182.529 26.7351C182.521 26.7322 182.513 26.7278 182.508 26.7204C182.424 26.6137 182.341 26.5032 182.264 26.3925C182.232 26.3454 182.243 26.2837 182.29 26.2519C182.335 26.2202 182.397 26.233 182.429 26.2779L182.428 26.2782Z" fill="#2A2B26"/>
    <path fill-rule="evenodd" clip-rule="evenodd" d="M181.897 25.5514C181.947 25.5274 182.007 25.5485 182.032 25.5984C182.089 25.7163 182.152 25.8328 182.217 25.9451C182.245 25.9937 182.23 26.0556 182.181 26.0835C182.167 26.0924 182.148 26.0968 182.131 26.0968C182.097 26.0968 182.063 26.0778 182.045 26.0462C181.975 25.9297 181.912 25.8103 181.85 25.686C181.826 25.6376 181.847 25.5757 181.897 25.5513V25.5514Z" fill="#2A2B26"/>
    <path fill-rule="evenodd" clip-rule="evenodd" d="M181.61 24.8025C181.662 24.7851 181.718 24.8158 181.735 24.8679C181.776 24.9935 181.821 25.1172 181.87 25.2386C181.891 25.2893 181.866 25.3475 181.814 25.37C181.802 25.3729 181.79 25.3759 181.776 25.3759C181.737 25.3759 181.7 25.3535 181.683 25.314C181.634 25.1884 181.587 25.0592 181.544 24.93C181.527 24.8773 181.557 24.8191 181.61 24.8028V24.8025Z" fill="#2A2B26"/>
    <path fill-rule="evenodd" clip-rule="evenodd" d="M181.676 21.76C181.64 21.8851 181.61 22.0144 181.583 22.1421C181.575 22.1907 181.533 22.2228 181.486 22.2228C181.479 22.2228 181.473 22.2228 181.465 22.2213C181.411 22.2095 181.376 22.1574 181.387 22.1032C181.413 21.97 181.447 21.8371 181.482 21.7058C181.498 21.6516 181.554 21.6216 181.606 21.6363C181.661 21.6516 181.69 21.7058 181.676 21.7604V21.76Z" fill="#2A2B26"/>
    <path fill-rule="evenodd" clip-rule="evenodd" d="M184.661 18.2829C184.541 18.3369 184.423 18.3952 184.309 18.4586C184.294 18.4659 184.277 18.4703 184.26 18.4703C184.225 18.4703 184.191 18.4519 184.172 18.4182C184.146 18.3692 184.165 18.3095 184.213 18.2814C184.331 18.2175 184.455 18.1557 184.579 18.0996C184.629 18.077 184.69 18.0996 184.711 18.1501C184.734 18.2007 184.711 18.2604 184.661 18.2835V18.2829Z" fill="#2A2B26"/>
    <path fill-rule="evenodd" clip-rule="evenodd" d="M183.969 18.6591C183.857 18.7302 183.748 18.8051 183.645 18.8818C183.626 18.8967 183.606 18.9027 183.585 18.9027C183.553 18.9027 183.523 18.8895 183.505 18.863C183.471 18.8179 183.48 18.7546 183.523 18.7225C183.632 18.6423 183.744 18.5635 183.861 18.4886C183.908 18.4584 183.969 18.4737 184 18.5186C184.03 18.5657 184.014 18.629 183.969 18.6591V18.6591Z" fill="#2A2B26"/>
    <path fill-rule="evenodd" clip-rule="evenodd" d="M185.401 18.0111C185.275 18.0469 185.149 18.0878 185.026 18.1327C185.014 18.1386 185.001 18.1401 184.99 18.1401C184.951 18.1401 184.912 18.114 184.897 18.0747C184.878 18.022 184.904 17.9638 184.957 17.945C185.084 17.8984 185.215 17.855 185.344 17.8177C185.399 17.8029 185.453 17.833 185.468 17.8871C185.485 17.9398 185.453 17.9955 185.401 18.0108V18.0111Z" fill="#2A2B26"/>
    <path fill-rule="evenodd" clip-rule="evenodd" d="M187.564 17.6024C187.618 17.6024 187.663 17.6474 187.663 17.7037C187.662 17.7583 187.616 17.8032 187.562 17.8032C187.562 17.8032 187.562 17.8032 187.561 17.8032H187.491C187.382 17.8032 186.673 17.8047 186.566 17.812C186.561 17.812 186.56 17.812 186.558 17.812C186.506 17.812 186.463 17.7706 186.459 17.7185C186.455 17.6623 186.499 17.6153 186.553 17.6116C186.665 17.6043 187.379 17.6013 187.492 17.5999L187.565 17.6013L187.564 17.6024Z" fill="#2A2B26"/>
    <path fill-rule="evenodd" clip-rule="evenodd" d="M183.048 19.3993C183.029 19.4197 183.003 19.4289 182.977 19.4289C182.952 19.4289 182.926 19.42 182.907 19.4009C182.868 19.3614 182.866 19.2981 182.906 19.2584C183.001 19.1628 183.102 19.0672 183.205 18.9793C183.247 18.9421 183.31 18.9477 183.346 18.9882C183.383 19.0296 183.378 19.0935 183.337 19.1307C183.238 19.217 183.14 19.307 183.048 19.3989L183.048 19.3993Z" fill="#2A2B26"/>
    <path fill-rule="evenodd" clip-rule="evenodd" d="M186.171 17.8497C186.042 17.867 185.911 17.889 185.783 17.9171C185.776 17.9171 185.77 17.9186 185.763 17.9186C185.715 17.9186 185.674 17.8848 185.665 17.8379C185.652 17.7838 185.687 17.7311 185.741 17.7199C185.875 17.6918 186.01 17.6694 186.145 17.651C186.201 17.6437 186.25 17.6827 186.257 17.7369C186.265 17.7915 186.227 17.842 186.171 17.8492V17.8497Z" fill="#2A2B26"/>
    <path fill-rule="evenodd" clip-rule="evenodd" d="M181.943 21.0177C181.888 21.1377 181.84 21.2593 181.795 21.3829C181.779 21.4242 181.742 21.4503 181.701 21.4503C181.689 21.4503 181.678 21.4488 181.667 21.4429C181.615 21.4241 181.587 21.368 181.605 21.3153C181.652 21.1881 181.703 21.061 181.759 20.9352C181.782 20.8847 181.84 20.8622 181.89 20.8847C181.941 20.9071 181.965 20.9669 181.943 21.0175V21.0177Z" fill="#2A2B26"/>
    <path fill-rule="evenodd" clip-rule="evenodd" d="M181.376 23.2188C181.438 23.2232 181.477 23.2622 181.479 23.3184C181.481 23.4492 181.488 23.5805 181.5 23.7117C181.506 23.7659 181.466 23.815 181.41 23.8206C181.407 23.8206 181.404 23.8206 181.401 23.8206C181.35 23.8206 181.305 23.7812 181.302 23.7285C181.289 23.5957 181.281 23.4568 181.279 23.322C181.278 23.2659 181.32 23.2208 181.377 23.2188H181.376Z" fill="#2A2B26"/>
    <path fill-rule="evenodd" clip-rule="evenodd" d="M182.537 19.9984C182.517 20.0246 182.487 20.0379 182.455 20.0379C182.434 20.0379 182.414 20.032 182.397 20.0189C182.352 19.9852 182.342 19.9235 182.374 19.8784C182.455 19.7702 182.541 19.6614 182.629 19.5582C182.666 19.5168 182.728 19.5112 182.772 19.5464C182.813 19.5836 182.818 19.6459 182.782 19.6889C182.696 19.788 182.613 19.8912 182.537 19.9978L182.537 19.9984Z" fill="#2A2B26"/>
    <path fill-rule="evenodd" clip-rule="evenodd" d="M181.52 22.5317C181.503 22.6604 181.492 22.7918 181.484 22.9232C181.483 22.9772 181.437 23.0186 181.385 23.0186C181.384 23.0186 181.381 23.0186 181.379 23.0186C181.323 23.0156 181.282 22.9681 181.283 22.9139C181.291 22.7769 181.304 22.6401 181.321 22.5052C181.328 22.451 181.377 22.4117 181.433 22.4188C181.488 22.4262 181.527 22.4751 181.52 22.5317H181.52Z" fill="#2A2B26"/>
    <path fill-rule="evenodd" clip-rule="evenodd" d="M181.436 24.0189C181.49 24.01 181.542 24.047 181.55 24.1016C181.572 24.2309 181.598 24.36 181.628 24.4873C181.642 24.542 181.61 24.5961 181.555 24.6095C181.548 24.6109 181.538 24.6124 181.531 24.6124C181.486 24.6124 181.445 24.5806 181.434 24.5357C181.402 24.4024 181.374 24.2676 181.353 24.1348C181.344 24.0801 181.381 24.028 181.436 24.0183V24.0189Z" fill="#2A2B26"/>
    <path fill-rule="evenodd" clip-rule="evenodd" d="M182.217 20.4818C182.181 20.5421 182.147 20.6019 182.116 20.6636C182.097 20.6973 182.063 20.7163 182.028 20.7163C182.011 20.7163 181.993 20.7119 181.979 20.7045C181.93 20.678 181.911 20.6183 181.938 20.5678C181.972 20.5059 182.007 20.442 182.045 20.3802C182.076 20.3241 182.11 20.2699 182.144 20.2153C182.174 20.1687 182.236 20.1555 182.282 20.1836C182.329 20.2138 182.344 20.2755 182.314 20.322C182.281 20.3747 182.248 20.4273 182.217 20.4813V20.4818Z" fill="#2A2B26"/>
</g>
</svg>
