<svg width="97" height="97" viewBox="0 0 97 97" fill="none" xmlns="http://www.w3.org/2000/svg">
<path fill-rule="evenodd" clip-rule="evenodd" d="M48.4996 0.300781C74.8996 0.300781 96.3997 21.8008 96.3997 48.2008C96.3997 74.7008 74.8996 96.1008 48.4996 96.1008C22.0996 96.1008 0.599609 74.7008 0.599609 48.2008C0.599609 21.8008 22.0996 0.300781 48.4996 0.300781Z" fill="white" fill-opacity="0.8"/>
<path fill-rule="evenodd" clip-rule="evenodd" d="M71.7004 33.7996C67.0004 26.4996 56.8004 25.5996 56.8004 25.5996L55.3004 25.6996C55.3004 25.6996 54.1004 26.0996 48.8004 26.0996C48.7004 26.0996 48.5004 26.0996 48.4004 26.0996C48.3004 26.0996 48.1004 26.0996 48.0004 26.0996C42.8004 26.0996 41.6003 25.5996 41.6003 25.5996H40.1003C40.1003 25.5996 30.0004 26.4996 25.2004 33.7996L5.90039 51.6996L13.3004 58.5996L30.8004 45.7996C30.8004 45.7996 33.3004 61.7996 33.5004 70.1996C37.5004 70.7996 43.1004 70.7996 48.4004 70.6996C53.7004 70.7996 59.3004 70.7996 63.4004 70.1996C63.6004 61.7996 66.1003 45.7996 66.1003 45.7996L83.7004 58.5996L91.2004 51.6996L71.7004 33.7996Z" fill="#00AEEF"/>
<path fill-rule="evenodd" clip-rule="evenodd" d="M41.6006 25.5996C41.6006 25.5996 50.5006 26.5996 55.9006 25.5996C55.9006 25.5996 52.8006 33.6996 48.8006 35.1996C48.8006 35.2996 43.2006 32.6996 41.6006 25.5996Z" fill="#CBCBCB"/>
<path fill-rule="evenodd" clip-rule="evenodd" d="M42.9004 25.7998C42.9004 25.7998 49.1004 26.4998 54.5004 25.8998C54.5004 25.8998 52.5004 31.6998 48.7004 33.5998C48.8004 33.4998 44.0004 31.0998 42.9004 25.7998Z" fill="#3399FF"/>
<path fill-rule="evenodd" clip-rule="evenodd" d="M50.1006 26.1C51.2006 26.1 52.3006 26 53.5006 26C52.8006 26.1 52.1006 26.1 51.4006 26.1C50.9006 26.1 50.5006 26.1 50.1006 26.1Z" fill="#A6A6A6"/>
<path fill-rule="evenodd" clip-rule="evenodd" d="M48.8 33.4998C48.8 33.4998 44.1 31.0998 43 25.7998C43.1 25.7998 44.4 25.8998 46.4 25.9998C47.3 25.9998 48.4 26.0998 49.5 26.0998C50.1 26.0998 50.8 26.0998 51.4 25.9998C52.1 25.9998 52.8 25.8998 53.5 25.8998C53.9 25.8998 54.2 25.7998 54.5 25.7998C54.4 26.0998 52.5 31.6998 48.8 33.4998Z" fill="#057DBB"/>
<path fill-rule="evenodd" clip-rule="evenodd" d="M33.2 65.2998H63.6C63.7 64.6998 63.7 63.9998 63.8 63.2998H33C33.1 63.9998 33.1 64.6998 33.2 65.2998Z" fill="#3399FF"/>
<path fill-rule="evenodd" clip-rule="evenodd" d="M91.1003 51.7996L89.3004 50.0996L81.9004 57.3996L83.7004 58.6996L91.1003 51.7996Z" fill="#EFEFEF"/>
<path fill-rule="evenodd" clip-rule="evenodd" d="M87.2006 48.2002L79.6006 55.7002L81.0006 56.7002L88.4006 49.3002L87.2006 48.2002Z" fill="#EFEFEF"/>
<path fill-rule="evenodd" clip-rule="evenodd" d="M5.90039 51.8002L13.3004 58.7002L14.9004 57.5002L7.60034 50.2002L5.90039 51.8002Z" fill="#EFEFEF"/>
<path fill-rule="evenodd" clip-rule="evenodd" d="M8.40039 49.3998L15.9004 56.7998L17.2004 55.7998L9.60034 48.2998L8.40039 49.3998Z" fill="#EFEFEF"/>
<path fill-rule="evenodd" clip-rule="evenodd" d="M52.7008 70.7996C51.4008 70.7996 50.1008 70.7996 48.9008 70.7996C50.2008 70.7996 51.4008 70.7996 52.7008 70.7996ZM44.1008 70.7996C40.3008 70.7996 36.6008 70.6996 33.7008 70.2996C36.6008 70.6996 40.3008 70.7996 44.1008 70.7996ZM47.9008 70.7996C48.0008 70.7996 48.1008 70.7996 48.2008 70.7996C48.1008 70.7996 48.0008 70.7996 47.9008 70.7996ZM48.5008 70.7996C48.4008 70.7996 48.4008 70.7996 48.4008 70.7996H48.5008ZM63.2008 70.2996C63.2008 70.2996 63.3008 70.2996 63.2008 70.2996C63.3008 70.2996 63.2008 70.2996 63.2008 70.2996ZM33.5008 70.2996C33.5008 70.1996 33.5008 70.1996 33.5008 70.2996C33.5008 70.1996 33.5008 70.1996 33.5008 70.2996ZM33.0008 62.8996C33.0008 62.7996 33.0008 62.7996 33.0008 62.8996C33.0008 62.7996 33.0008 62.7996 33.0008 62.8996ZM32.9008 62.5996C32.8008 62.0996 32.8008 61.5996 32.8008 61.0996C32.9008 61.5996 32.9008 62.0996 32.9008 62.5996Z" fill="#D9D9D9"/>
<path fill-rule="evenodd" clip-rule="evenodd" d="M33.7 70.2998C33.6 70.2998 33.6 70.2998 33.6 70.2998C33.6 70.2998 33.6 70.2998 33.6 70.1998L33.5 67.5998L33.1 62.4998C33 62.0998 33 61.7998 33 61.3998C47.3 62.3998 67.9 62.7998 63.1 41.2998C63.1 41.2998 64.4 41.7998 72.4 50.5998L66.3 46.1998C66.3 46.1998 64.8 55.3998 64.1 63.4998L63.9 65.5998L63.8 66.9998L63.6 70.0998C63.6 70.2998 63.6 70.3998 63.6 70.5998H63.5C58.2 70.9998 38.7 70.9998 33.7 70.2998Z" fill="#0099D1"/>
<path fill-rule="evenodd" clip-rule="evenodd" d="M83.7004 58.7L91.1003 51.8L71.7004 33.9C70.5004 32.1 69.0004 30.7 67.4004 29.6C67.4004 29.6 67.2004 29.5 67.0004 29.3C66.3004 28.8 65.5004 28.4 64.7004 28C64.5004 27.9 64.2004 27.8 64.0004 27.7C66.7004 28.9 69.7004 30.8 71.7004 33.9L91.2004 51.8L83.7004 58.7ZM55.9004 25.7C55.9004 25.6 55.9004 25.6 55.9004 25.7H56.1003C56.1003 25.6 56.0004 25.6 55.9004 25.7Z" fill="#D9D9D9"/>
<path fill-rule="evenodd" clip-rule="evenodd" d="M84.9002 54.4004C85.2002 53.6004 85.4002 52.9004 85.4002 52.3004L88.4002 49.3004L87.2002 48.2004L85.0002 50.4004C84.6002 49.7004 84.1002 49.4004 84.1002 49.4004L75.9002 43.4004L67.0002 34.8004C68.0002 32.2004 67.4002 29.7004 67.4002 29.5004C69.0002 30.6004 70.5002 32.0004 71.7002 33.8004L91.1002 51.7004L89.3002 50.0004L84.9002 54.4004ZM67.0002 29.2004C66.5002 28.9004 65.8002 28.4004 64.7002 27.9004C65.5002 28.3004 66.2002 28.7004 67.0002 29.2004Z" fill="#0099D1"/>
<path fill-rule="evenodd" clip-rule="evenodd" d="M83.7008 58.6996L82.8008 57.9996C83.8008 56.6996 84.5008 55.4996 84.9008 54.4996L89.3008 50.0996L91.1008 51.7996L83.7008 58.6996Z" fill="#CBCBCB"/>
<path fill-rule="evenodd" clip-rule="evenodd" d="M85.4 52.2996C85.4 51.3996 85.3 50.7996 85 50.2996L87.2 48.0996L88.4 49.1996L85.4 52.2996Z" fill="#CBCBCB"/>
<path fill-rule="evenodd" clip-rule="evenodd" d="M13.3006 58.7004L14.9006 57.5004L11.6006 54.2004C12.1006 54.4004 12.6006 54.5004 13.0006 54.5004C13.1006 54.5004 13.3006 54.5004 13.4006 54.5004L15.8006 56.9004L13.3006 58.7004ZM9.10059 51.7004L7.60059 50.2004L8.40063 49.4004C8.60063 50.3004 8.80059 51.0004 9.10059 51.7004Z" fill="#0099D1"/>
<path fill-rule="evenodd" clip-rule="evenodd" d="M13.3004 58.7002L5.90039 51.8002L7.60034 50.2002L9.10034 51.7002C9.80034 53.1002 10.7003 53.9002 11.6003 54.2002L14.9004 57.5002L13.3004 58.7002Z" fill="#CBCBCB"/>
<path fill-rule="evenodd" clip-rule="evenodd" d="M16.6006 56.3004L30.8006 45.9004C30.8006 45.9004 31.0006 47.2004 31.3006 49.2004L30.8006 45.9004L16.6006 56.3004Z" fill="#D9D9D9"/>
<path fill-rule="evenodd" clip-rule="evenodd" d="M16.6003 56.3L17.2004 55.9L15.4004 54.1C16.0004 53.9 16.3004 53.7 16.3004 53.7C22.4004 51.1 30.1003 42.8 30.1003 42.8L32.8004 39.5L32.4004 44.8L31.6003 51.6L31.3004 49.3C31.0004 47.3 30.8004 46 30.8004 46L16.6003 56.3Z" fill="#0099D1"/>
<path fill-rule="evenodd" clip-rule="evenodd" d="M15.9 56.8L13.5 54.4C14.2 54.3 14.9 54.2 15.4 54L17.2 55.8L16.6 56.2L15.9 56.8Z" fill="#CBCBCB"/>
<path fill-rule="evenodd" clip-rule="evenodd" d="M25.2002 33.8001C25.2002 33.8001 29.1002 37.8001 34.0002 36.3001C38.8002 34.8001 41.6002 25.6001 41.6002 25.6001C38.1002 25.1001 32.8002 27.2001 29.8002 29.2001C28.0002 30.5001 25.5002 33.4001 25.2002 33.8001Z" fill="#044785"/>
<path fill-rule="evenodd" clip-rule="evenodd" d="M68.6 36.3996C69.2 36.1996 69.8 35.8996 70.2 35.5996C69.7 35.8996 69.2 36.1996 68.6 36.3996ZM57.6 30.1996C57 30.0996 56.4 30.0996 55.9 30.0996C54.6 30.0996 53.8 30.2996 53.5 30.3996C54.4 28.8996 55.2 27.2996 55.9 25.6996C56 25.8996 56.6 27.9996 57.6 30.1996ZM55.9 25.6996C56 25.5996 56.1 25.5996 56.2 25.5996H56.5C56.3 25.6996 56.1 25.6996 55.9 25.6996ZM71.9 33.8996C72 33.9996 72.1 34.1996 72.1 34.1996C72.1 34.1996 72 34.0996 71.9 33.8996Z" fill="#0099D1"/>
<path fill-rule="evenodd" clip-rule="evenodd" d="M67.4004 29.5002C64.7004 27.7002 59.4004 25.7002 55.9004 25.7002C56.4004 28.6002 59.5004 34.5002 62.0004 36.0002C63.2004 36.8002 64.6003 37.1002 66.1003 36.9002C67.1003 36.8002 68.5004 36.4002 68.5004 36.4002C70.5004 34.1002 67.4004 29.5002 67.4004 29.5002Z" fill="#044785"/>
<path fill-rule="evenodd" clip-rule="evenodd" d="M68.6003 36.3998L66.4004 34.1998C63.1004 31.4998 57.6003 30.2998 57.6003 30.2998L57.2004 29.4998L56.8004 28.5998L56.3004 27.2998L56.1003 26.5998L55.9004 25.7998C56.0004 25.7998 56.0003 25.7998 56.1003 25.7998H56.8004C56.8004 25.7998 60.2004 26.0998 64.0004 27.7998C64.2004 27.8998 64.5004 27.9998 64.7004 28.0998C65.7004 28.5998 66.5004 29.0998 67.0004 29.3998C67.4004 29.6998 68.1004 30.0998 68.8004 30.6998C70.2004 31.8998 71.8003 33.7998 72.1003 34.3998C72.1003 34.1998 70.2003 35.8998 68.6003 36.3998Z" fill="#00376A"/>
<path fill-rule="evenodd" clip-rule="evenodd" d="M45.3006 49.5994C45.2006 49.4994 45.2006 49.4994 45.3006 49.3994L46.0006 48.8994C46.0006 48.8994 46.1006 48.8994 46.1006 48.9994C46.1006 49.0994 46.2006 49.1994 46.1006 49.2994L45.4006 49.6994C45.4006 49.6994 45.3006 49.6994 45.3006 49.5994Z" fill="#A2D9F7"/>
<path fill-rule="evenodd" clip-rule="evenodd" d="M42.6009 51.5002C42.7009 51.6002 42.801 51.7002 42.901 51.8002C43.001 51.9002 43.101 51.9002 43.201 51.9002C43.301 51.9002 43.301 51.9002 43.401 51.8002L43.501 51.7002C43.501 51.6002 43.501 51.6002 43.401 51.6002C43.301 51.5002 43.2009 51.5002 43.1009 51.5002C42.9009 51.4002 42.701 51.4002 42.501 51.2002C42.401 51.1002 42.301 50.9002 42.301 50.7002C42.301 50.4002 42.4009 50.2002 42.6009 50.0002C42.8009 49.8002 43.001 49.7002 43.301 49.7002C43.401 49.7002 43.601 49.7002 43.701 49.8002C43.801 49.8002 44.0009 49.9002 44.1009 50.0002V50.1002L43.901 50.6002C43.901 50.6002 43.901 50.6002 43.801 50.7002H43.701C43.601 50.6002 43.601 50.6002 43.501 50.6002C43.401 50.6002 43.401 50.6002 43.301 50.6002C43.201 50.6002 43.201 50.6002 43.201 50.6002L43.1009 50.7002V50.8002C43.2009 50.8002 43.301 50.9002 43.401 50.9002C43.601 51.0002 43.901 51.0002 44.001 51.2002C44.101 51.3002 44.1009 51.4002 44.1009 51.5002C44.2009 51.6002 44.201 51.7002 44.201 51.8002C44.201 52.1002 44.101 52.3002 43.901 52.5002C43.701 52.7002 43.4009 52.8002 43.1009 52.8002C42.9009 52.8002 42.7009 52.8002 42.6009 52.7002C42.4009 52.6002 42.301 52.5002 42.201 52.4002C42.101 52.4002 42.101 52.3002 42.201 52.3002L42.501 51.8002C42.501 51.5002 42.5009 51.5002 42.6009 51.5002ZM46.201 52.1002H45.301L45.201 52.5002L45.1009 52.6002H44.401C44.301 52.6002 44.301 52.6002 44.301 52.5002C44.301 52.5002 44.301 52.5002 44.301 52.4002L45.201 49.8002L45.301 49.7002H46.201C46.301 49.7002 46.301 49.7002 46.301 49.8002L47.201 52.4002V52.5002L47.1009 52.6002H46.401C46.301 52.6002 46.301 52.6002 46.301 52.5002L46.201 52.1002ZM45.501 51.4002H46.001L45.801 50.7002L45.501 51.4002ZM48.301 51.7002H49.1009C49.2009 51.7002 49.201 51.8002 49.201 51.8002V52.4002C49.201 52.4002 49.2009 52.5002 49.1009 52.5002H47.501C47.401 52.5002 47.401 52.4002 47.401 52.4002V49.8002C47.401 49.7002 47.401 49.7002 47.501 49.7002H48.201C48.301 49.7002 48.301 49.7002 48.301 49.8002V51.7002ZM50.401 50.5002V50.8002H51.1009C51.2009 50.8002 51.201 50.8002 51.201 50.9002V51.4002C51.201 51.5002 51.1009 51.5002 51.1009 51.5002H50.401V51.7002H51.201C51.301 51.7002 51.301 51.8002 51.301 51.8002V52.4002C51.301 52.4002 51.301 52.5002 51.201 52.5002H49.6009C49.5009 52.5002 49.501 52.4002 49.501 52.4002V49.8002C49.501 49.7002 49.5009 49.7002 49.6009 49.7002H51.201C51.301 49.7002 51.301 49.7002 51.301 49.8002V50.4002C51.301 50.4002 51.301 50.5002 51.201 50.5002H50.401V50.5002ZM53.901 51.3002L53.6009 52.5002C53.6009 52.5002 53.601 52.6002 53.501 52.6002H53.001C52.901 52.6002 52.901 52.6002 52.901 52.5002L52.6009 51.3002L52.501 52.4002C52.501 52.5002 52.401 52.5002 52.401 52.5002H51.801H51.701V52.4002L52.1009 49.8002L52.201 49.7002H52.901C52.901 49.7002 53.001 49.7002 53.001 49.8002L53.401 51.1002L53.801 49.8002L53.901 49.7002H54.6009C54.6009 49.7002 54.701 49.7002 54.701 49.8002L55.1009 52.4002V52.5002H55.001H54.401C54.301 52.5002 54.301 52.5002 54.301 52.4002L53.901 51.3002Z" fill="#EFEFEF"/>
<path fill-rule="evenodd" clip-rule="evenodd" d="M43.1011 53.8002H43.9012V52.8002C43.9012 52.7002 44.0012 52.7002 44.0012 52.7002H44.7012C44.8012 52.7002 44.8011 52.8002 44.8011 52.8002V55.5002C44.8011 55.5002 44.8012 55.6002 44.7012 55.6002H44.0012C43.9012 55.6002 43.9012 55.5002 43.9012 55.5002V54.5002H43.1011V55.5002L43.0012 55.6002H42.3011C42.2011 55.6002 42.2012 55.5002 42.2012 55.5002V52.8002C42.2012 52.7002 42.2011 52.7002 42.3011 52.7002H43.0012C43.1012 52.7002 43.1011 52.8002 43.1011 52.8002V53.8002ZM48.4012 54.2002C48.4012 54.4002 48.4011 54.6002 48.3011 54.8002C48.2011 55.0002 48.1012 55.2002 48.0012 55.3002C47.9012 55.4002 47.7012 55.6002 47.5012 55.6002C47.3012 55.7002 47.1012 55.7002 46.9012 55.7002C46.7012 55.7002 46.5011 55.7002 46.3011 55.6002C46.1011 55.5002 45.9011 55.4002 45.8011 55.3002C45.7011 55.2002 45.5012 55.0002 45.5012 54.8002C45.4012 54.6002 45.4012 54.4002 45.4012 54.2002C45.4012 54.0002 45.4012 53.8002 45.5012 53.6002C45.6012 53.4002 45.7011 53.3002 45.8011 53.1002C45.9011 53.0002 46.1011 52.8002 46.3011 52.8002C46.5011 52.7002 46.7012 52.7002 46.9012 52.7002C47.1012 52.7002 47.3012 52.8002 47.5012 52.8002C47.7012 52.9002 47.9012 53.0002 48.0012 53.1002C48.1012 53.2002 48.3011 53.4002 48.3011 53.6002C48.3011 53.8002 48.4012 54.0002 48.4012 54.2002ZM49.6011 53.8002L50.3011 52.8002L50.4012 52.7002H51.3011C51.3011 52.7002 51.4012 52.7002 51.4012 52.8002V52.9002L50.4012 54.2002L51.4012 55.6002V55.7002L51.3011 55.8002H50.4012C50.4012 55.8002 50.3011 55.8002 50.3011 55.7002L49.6011 54.7002V55.7002C49.6011 55.7002 49.6012 55.8002 49.5012 55.8002H48.8011C48.7011 55.8002 48.7012 55.7002 48.7012 55.7002L48.8011 53.0002C48.8011 52.9002 48.8012 52.9002 48.9012 52.9002H49.6011C49.7011 52.9002 49.7012 53.0002 49.7012 53.0002V53.8002H49.6011ZM52.6011 53.6002V53.9002H53.4012C53.5012 53.9002 53.5012 54.0002 53.5012 54.0002V54.6002C53.5012 54.7002 53.5012 54.7002 53.4012 54.7002H52.6011V55.0002H53.5012C53.6012 55.0002 53.6011 55.0002 53.6011 55.1002V55.7002C53.6011 55.7002 53.6012 55.8002 53.5012 55.8002H51.8011C51.7011 55.8002 51.7012 55.7002 51.7012 55.7002V53.0002C51.7012 52.9002 51.8011 52.9002 51.8011 52.9002H53.5012C53.6012 52.9002 53.6011 53.0002 53.6011 53.0002V53.6002C53.6011 53.7002 53.6012 53.7002 53.5012 53.7002H52.6011V53.6002ZM53.9012 55.6002V52.9002C53.9012 52.8002 54.0012 52.8002 54.0012 52.8002H54.7012C54.8012 52.8002 54.8011 52.9002 54.8011 52.9002V55.6002L54.7012 55.7002H54.0012C54.0012 55.7002 53.9012 55.7002 53.9012 55.6002ZM46.8011 55.0002C47.0011 55.0002 47.1011 54.9002 47.3011 54.8002C47.4011 54.6002 47.5012 54.5002 47.5012 54.3002C47.5012 54.1002 47.4011 53.9002 47.3011 53.8002C47.2011 53.7002 47.0012 53.6002 46.9012 53.6002C46.7012 53.6002 46.6012 53.7002 46.4012 53.8002C46.3012 53.9002 46.2012 54.1002 46.2012 54.3002C46.2012 54.5002 46.2012 54.7002 46.4012 54.8002C46.5012 54.9002 46.6011 55.0002 46.8011 55.0002Z" fill="#EFEFEF"/>
<path fill-rule="evenodd" clip-rule="evenodd" d="M42.6011 51.4996C42.7011 51.5996 42.8012 51.6996 42.9012 51.7996H43.0012C42.7012 51.8996 42.5011 51.8996 42.3011 51.9996L42.6011 51.5996C42.5011 51.4996 42.5011 51.4996 42.6011 51.4996ZM43.4012 51.6996C43.4012 51.5996 43.4011 51.5996 43.3011 51.4996C43.2011 51.3996 43.1012 51.3996 43.0012 51.3996C42.8012 51.2996 42.6012 51.2996 42.4012 51.0996C42.3012 50.9996 42.2012 50.7996 42.2012 50.5996C42.2012 50.2996 42.3012 50.0996 42.5012 49.8996C42.7012 49.6996 42.9012 49.5996 43.2012 49.5996C43.3012 49.5996 43.5011 49.5996 43.6011 49.6996C43.7011 49.6996 43.9012 49.7996 44.0012 49.8996V49.9996L43.8011 50.4996C43.8011 50.4996 43.8012 50.4996 43.7012 50.5996H43.6011C43.5011 50.4996 43.5012 50.4996 43.4012 50.4996C43.3012 50.4996 43.3012 50.4996 43.2012 50.4996C43.1012 50.4996 43.1011 50.4996 43.1011 50.4996L43.0012 50.5996V50.6996C43.1012 50.6996 43.2011 50.7996 43.3011 50.7996C43.5011 50.8996 43.8012 50.8996 43.9012 51.0996C44.0012 51.1996 44.0012 51.2996 44.0012 51.3996C44.1012 51.4996 44.1011 51.5996 44.1011 51.6996C43.9011 51.5996 43.7012 51.6996 43.4012 51.6996ZM44.7012 51.4996L45.3011 49.7996L45.4012 49.6996H46.3011C46.4011 49.6996 46.4012 49.6996 46.4012 49.7996L46.9012 51.2996C46.0012 51.3996 45.3012 51.3996 44.7012 51.4996ZM45.5012 51.3996H46.0012L45.8011 50.6996L45.5012 51.3996ZM47.4012 51.2996V49.8996C47.4012 49.7996 47.4012 49.7996 47.5012 49.7996H48.2012C48.3012 49.7996 48.3011 49.7996 48.3011 49.8996V51.2996C48.0011 51.2996 47.7012 51.2996 47.4012 51.2996ZM50.4012 50.4996V50.7996H51.1011C51.2011 50.7996 51.2012 50.7996 51.2012 50.8996V51.3996C50.6012 51.3996 50.1012 51.2996 49.5012 51.2996V49.8996C49.5012 49.7996 49.5011 49.7996 49.6011 49.7996H51.2012C51.3012 49.7996 51.3011 49.7996 51.3011 49.8996V50.4996C51.3011 50.4996 51.3012 50.5996 51.2012 50.5996H50.4012V50.4996ZM53.9012 51.2996L53.8011 51.7996C53.5011 51.6996 53.1012 51.6996 52.7012 51.5996L52.6011 51.2996V51.4996C52.3011 51.4996 52.1011 51.3996 51.8011 51.3996L52.0012 49.7996L52.1011 49.6996H52.8011C52.8011 49.6996 52.9012 49.6996 52.9012 49.7996L53.3011 51.0996L53.7012 49.7996L53.8011 49.6996H54.5012C54.5012 49.6996 54.6011 49.6996 54.6011 49.7996L54.9012 51.8996C54.6012 51.7996 54.4012 51.7996 54.0012 51.6996L53.9012 51.2996Z" fill="#A2D9F7"/>
<path fill-rule="evenodd" clip-rule="evenodd" d="M43.1006 53.8002H43.9006V52.8002C43.9006 52.7002 44.0006 52.7002 44.0006 52.7002H44.7006C44.8006 52.7002 44.8006 52.8002 44.8006 52.8002V54.2002C43.8006 54.3002 43.0006 54.5002 42.1006 54.7002V52.8002C42.1006 52.7002 42.1006 52.7002 42.2006 52.7002H42.9006C43.0006 52.7002 43.0006 52.8002 43.0006 52.8002V53.8002H43.1006ZM45.3006 54.2002C45.3006 54.0002 45.3006 53.8002 45.4006 53.6002C45.5006 53.4002 45.6006 53.3002 45.7006 53.1002C45.8006 53.0002 46.0006 52.8002 46.2006 52.8002C46.4006 52.7002 46.6006 52.7002 46.8006 52.7002C47.0006 52.7002 47.2006 52.8002 47.4006 52.8002C47.6006 52.9002 47.8006 53.0002 47.9006 53.1002C48.0006 53.2002 48.2006 53.4002 48.2006 53.6002C48.3006 53.7002 48.3006 53.9002 48.3006 54.0002C48.0006 54.0002 47.7006 54.0002 47.4006 54.0002C47.4006 53.9002 47.3006 53.8002 47.2006 53.7002C47.1006 53.6002 46.9006 53.5002 46.8006 53.5002C46.6006 53.5002 46.5006 53.6002 46.3006 53.7002C46.2006 53.8002 46.2006 54.0002 46.1006 54.1002C45.9006 54.2002 45.6006 54.2002 45.3006 54.2002ZM49.6006 53.8002L50.3006 52.8002L50.4006 52.7002H51.3006C51.3006 52.7002 51.4006 52.7002 51.4006 52.8002V52.9002L50.5006 54.1002C49.9006 54.1002 49.3006 54.0002 48.7006 54.0002V52.8002C48.7006 52.7002 48.7006 52.7002 48.8006 52.7002H49.5006C49.6006 52.7002 49.6006 52.8002 49.6006 52.8002V53.8002V53.8002ZM52.6006 53.6002V53.9002H53.4006C53.5006 53.9002 53.5006 54.0002 53.5006 54.0002V54.5002C52.9006 54.4002 52.3006 54.3002 51.7006 54.2002V52.9002C51.7006 52.8002 51.8006 52.8002 51.8006 52.8002H53.5006C53.6006 52.8002 53.6006 52.9002 53.6006 52.9002V53.5002C53.6006 53.6002 53.6006 53.6002 53.5006 53.6002H52.6006V53.6002ZM53.9006 54.6002V52.9002C53.9006 52.8002 54.0006 52.8002 54.0006 52.8002H54.7006C54.8006 52.8002 54.8006 52.9002 54.8006 52.9002V54.8002C54.5006 54.7002 54.2006 54.6002 53.9006 54.6002Z" fill="#A2D9F7"/>
<path fill-rule="evenodd" clip-rule="evenodd" d="M42.601 46.5995C42.701 46.5995 42.701 46.6995 42.801 46.6995L42.901 47.5995C42.901 47.6995 42.801 47.6995 42.801 47.7995C42.701 47.7995 42.701 47.6995 42.601 47.6995V46.7995C42.401 46.6995 42.501 46.5995 42.601 46.5995ZM46.201 42.2995C46.201 42.2995 46.301 42.3995 46.301 42.4995C46.201 42.5995 46.201 42.5995 46.001 42.6995C45.601 42.7995 45.301 43.1995 45.301 43.7995C45.301 44.2995 45.801 44.7995 46.401 44.7995C47.001 44.7995 47.401 44.1995 47.401 43.6995C47.401 43.1995 47.101 42.8995 46.601 42.6995C46.701 42.5995 46.601 42.1995 46.201 42.2995ZM42.301 43.9995L44.901 40.6995L44.201 39.7995C44.101 39.5995 44.601 39.1995 44.701 39.4995L45.301 40.5995C45.301 40.6995 45.301 40.7995 45.301 40.7995L43.801 42.7995C43.901 42.8995 43.901 42.9995 44.001 43.0995C45.401 44.7995 46.101 45.8995 48.201 44.5995C48.501 44.3995 48.601 44.5995 48.501 44.8995C48.201 45.4995 47.801 45.5995 47.301 45.8995C46.501 46.4995 46.201 47.2995 46.001 47.6995C45.801 48.0995 45.801 48.4995 45.901 48.5995C46.001 48.7995 45.901 48.8995 45.301 48.9995C44.701 48.9995 45.101 47.9995 44.801 47.5995C44.501 47.0995 43.501 47.6995 43.301 47.7995C43.101 47.8995 43.001 47.1995 43.201 46.7995C43.301 46.4995 44.201 46.4995 44.601 46.1995C45.001 45.8995 44.801 45.5995 44.301 44.7995C43.701 43.9995 43.601 43.5995 43.501 43.2995L42.801 44.2995C42.401 44.4995 42.101 44.1995 42.301 43.9995Z" fill="#EFEFEF"/>
<path fill-rule="evenodd" clip-rule="evenodd" d="M49.6006 42.7999C49.9006 42.6999 50.1007 42.6999 50.4007 42.8999H50.5006C50.5006 41.9999 51.2007 42.0999 51.4007 42.8999C51.1007 42.8999 50.8006 42.9999 50.7006 42.9999V43.0999C50.8006 43.1999 50.8007 43.2999 50.9007 43.3999C51.1007 43.8999 50.8006 44.4999 50.2006 44.6999C49.6006 44.7999 49.1007 44.4999 48.9007 43.9999C48.9007 43.8999 48.8007 43.7999 48.9007 43.6999C48.8007 43.6999 48.8006 43.5999 48.8006 43.5999C48.6006 43.5999 48.4006 43.6999 48.1006 43.8999C47.8006 43.0999 48.4006 42.5999 48.8006 43.3999C48.9006 43.3999 48.9006 43.2999 49.0006 43.2999C49.1006 43.0999 49.3006 42.8999 49.6006 42.7999ZM53.9007 46.4999C53.8007 46.4999 53.8006 46.5999 53.8006 46.5999V47.4999C53.8006 47.5999 53.9007 47.5999 53.9007 47.5999C54.0007 47.5999 54.0006 47.4999 54.0006 47.4999V46.5999C54.1006 46.5999 54.0007 46.4999 53.9007 46.4999ZM48.2006 46.6999C48.3006 46.7999 48.5006 46.7999 49.0006 46.5999C50.4006 46.1999 50.9006 47.3999 50.8006 48.6999C50.8006 48.8999 50.8007 48.9999 51.4007 48.9999C52.0007 48.9999 51.5007 47.9999 51.9007 47.3999C52.2007 46.8999 53.2006 47.3999 53.5006 47.4999C53.7006 47.5999 53.7006 46.8999 53.5006 46.4999C53.4006 46.1999 52.5006 46.2999 52.1006 45.9999C51.3006 45.3999 52.6006 44.4999 52.8006 43.2999L53.3006 43.8999C53.6006 44.1999 53.8006 43.8999 53.6006 43.6999L52.7006 42.6999L50.9007 40.5999L51.6006 39.6999C51.7006 39.4999 51.2006 39.0999 51.1006 39.3999L50.6006 40.4999C50.6006 40.5999 50.6006 40.6999 50.7006 40.6999L52.6006 42.8999C51.9006 43.7999 51.8006 44.3999 50.8006 44.9999C50.2006 45.1999 47.7006 46.1999 48.2006 46.6999ZM51.7006 49.3999C51.7006 49.2999 51.6006 49.2999 51.6006 49.2999H50.7006C50.6006 49.2999 50.6006 49.3999 50.6006 49.3999C50.6006 49.4999 50.7006 49.4999 50.7006 49.4999H51.6006C51.7006 49.4999 51.7006 49.3999 51.7006 49.3999Z" fill="#CC0256"/>
<path fill-rule="evenodd" clip-rule="evenodd" d="M48.3008 51.6998H49.0008C49.1008 51.6998 49.1008 51.7997 49.1008 51.7997V52.3997C49.1008 52.4997 49.0008 52.4998 49.0008 52.4998H47.4008C47.3008 52.4998 47.3008 52.3997 47.3008 52.3997V49.7997C47.3008 49.6997 47.4008 49.6998 47.4008 49.6998H48.1008C48.2008 49.6998 48.2008 49.7997 48.2008 49.7997V51.6998H48.3008ZM48.3008 51.7997V49.8997C48.3008 49.8997 48.3008 49.7997 48.2008 49.7997H47.5008C47.5008 49.7997 47.5008 49.7997 47.5008 49.8997V52.4998H49.1008V51.8997V51.7997H48.3008ZM50.7008 49.1998C50.7008 49.1998 50.6008 49.2998 50.7008 49.1998C50.6008 49.2998 50.7008 49.3997 50.7008 49.3997H51.6008C51.6008 49.3997 51.7008 49.3997 51.7008 49.2997C51.7008 49.1997 51.6008 49.1998 51.6008 49.1998H50.7008V49.1998ZM50.7008 40.5998L51.4008 39.6998C51.4008 39.5998 51.3008 39.4998 51.2008 39.4998C51.1008 39.4998 51.0008 39.3997 50.9008 39.3997C50.9008 39.3997 50.9008 39.3998 50.9008 39.4998L50.4008 40.5998V40.6998L52.3008 42.8997L52.2008 42.9998C52.1008 43.1998 51.9008 43.3998 51.8008 43.5998C51.7008 43.7998 51.5008 43.9998 51.4008 44.1998C51.1008 44.5998 50.8008 44.8998 50.4008 45.0998C50.3008 45.0998 50.3008 45.1998 50.2008 45.1998C50.1008 45.2998 50.0008 45.2997 49.9008 45.3997C49.6008 45.4997 49.4008 45.6997 49.1008 45.7997C48.8008 45.8997 48.6008 46.0997 48.3008 46.2997C48.2008 46.3997 48.0008 46.5998 48.0008 46.6998C48.0008 46.6998 48.0008 46.7997 48.1008 46.7997C48.1008 46.8997 48.4008 46.7997 48.4008 46.7997C48.5008 46.7997 48.7008 46.6998 48.8008 46.6998C49.2008 46.5998 49.7008 46.5997 50.0008 46.7997C50.6008 47.1997 50.7008 48.0997 50.6008 48.7997V48.8997C50.6008 48.8997 50.7008 48.8998 50.7008 48.9998C50.8008 48.9998 51.0008 48.9998 51.1008 48.9998C51.2008 48.9998 51.2008 48.9997 51.3008 48.8997C51.4008 48.7997 51.4008 48.6998 51.4008 48.5998C51.4008 48.3998 51.4008 48.2998 51.4008 48.0998C51.4008 47.8998 51.4008 47.5997 51.5008 47.3997C51.7008 47.0997 52.1008 47.0998 52.4008 47.1998C52.5008 47.1998 52.7008 47.2997 52.8008 47.2997C52.9008 47.2997 53.0008 47.3997 53.1008 47.3997C53.2008 47.3997 53.2008 47.1998 53.2008 47.0998C53.2008 46.9998 53.2008 46.8997 53.2008 46.7997C53.2008 46.6997 53.2008 46.5998 53.1008 46.4998C53.0008 46.3998 52.9008 46.3997 52.8008 46.3997C52.7008 46.2997 52.5008 46.2997 52.3008 46.2997C52.1008 46.2997 51.8008 46.1998 51.6008 46.0998C51.5008 45.9998 51.4008 45.8997 51.3008 45.7997C51.2008 45.4997 51.4008 45.1997 51.5008 44.8997C51.7008 44.5997 51.9008 44.1997 52.0008 43.8997C52.1008 43.7997 52.1008 43.5998 52.1008 43.4998V43.2997L52.7008 43.9998C52.8008 44.0998 52.9008 44.0998 52.9008 44.0998C53.0008 43.9998 53.0008 43.8997 52.9008 43.7997L52.0008 42.7997L50.7008 40.5998ZM48.1008 43.7997C48.3008 43.6997 48.5008 43.5998 48.7008 43.4998H48.8008V43.5998C48.8008 43.5998 48.8008 43.6998 48.9008 43.6998V43.7997C48.9008 44.0997 49.0008 44.4998 49.4008 44.6998C49.6008 44.7998 49.9008 44.8997 50.2008 44.7997C50.5008 44.6997 50.7008 44.4997 50.9008 44.2997C51.0008 43.9997 51.0008 43.5997 50.8008 43.2997V43.1998V43.0998V42.9998H50.9008C51.1008 42.8998 51.3008 42.8997 51.6008 42.8997C51.5008 42.6997 51.5008 42.5998 51.4008 42.4998C51.3008 42.3998 51.2008 42.3997 51.1008 42.3997C50.9008 42.4997 50.8008 42.7997 50.8008 42.8997V42.9998H50.7008H50.6008C50.4008 42.8998 50.1008 42.8997 49.9008 42.8997C49.6008 42.9997 49.4008 43.0997 49.3008 43.3997V43.4998H49.2008L49.1008 43.5998L49.0008 43.4998C48.9008 43.3998 48.7008 43.0998 48.5008 43.1998C48.4008 43.1998 48.3008 43.3998 48.3008 43.4998C48.1008 43.4998 48.1008 43.5997 48.1008 43.7997ZM53.8008 46.5998V47.4998C53.8008 47.4998 53.8008 47.5998 53.9008 47.5998C54.0008 47.5998 54.0008 47.4998 54.0008 47.4998V46.5998C54.0008 46.4998 54.0008 46.4998 53.8008 46.5998C53.8008 46.4998 53.9008 46.4998 53.8008 46.5998ZM46.3008 42.2997C46.3008 42.3997 46.3008 42.4998 46.3008 42.4998C46.2008 42.5998 46.2008 42.5998 46.0008 42.6998C45.8008 42.7998 45.7008 42.8998 45.6008 42.9998C45.4008 43.1998 45.3008 43.4997 45.3008 43.7997C45.3008 44.0997 45.4008 44.2998 45.6008 44.4998C45.8008 44.6998 46.1008 44.7997 46.3008 44.7997C46.8008 44.6997 47.3008 44.1998 47.3008 43.6998C47.3008 43.1998 47.0008 42.8997 46.6008 42.7997H46.5008V42.6998C46.6008 42.4998 46.5008 42.2997 46.3008 42.2997ZM43.4008 43.2997C43.4008 43.4997 43.5008 43.5997 43.6008 43.7997C43.8008 44.0997 44.0008 44.3998 44.2008 44.6998C44.4008 44.8998 44.5008 45.0997 44.7008 45.3997C44.8008 45.4997 44.8008 45.6997 44.8008 45.8997C44.8008 45.9997 44.7008 46.0998 44.6008 46.1998C44.4008 46.2998 44.2008 46.3998 44.0008 46.4998C43.8008 46.4998 43.7008 46.5998 43.5008 46.5998C43.4008 46.5998 43.3008 46.6997 43.2008 46.7997C43.1008 46.8997 43.1008 46.9998 43.1008 47.0998C43.1008 47.1998 43.1008 47.2997 43.1008 47.3997C43.1008 47.4997 43.1008 47.6998 43.2008 47.6998C43.3008 47.6998 43.4008 47.5998 43.5008 47.5998C43.6008 47.4998 43.8008 47.4997 43.9008 47.3997C44.1008 47.2997 44.4008 47.2997 44.6008 47.3997C44.7008 47.4997 44.7008 47.4998 44.8008 47.5998C44.9008 47.7998 44.9008 47.9998 45.0008 48.1998C45.0008 48.2998 45.0008 48.4998 45.0008 48.6998C45.0008 48.7998 45.1008 48.8998 45.1008 48.9998C45.1008 48.9998 45.2008 48.9998 45.3008 48.9998C45.4008 48.9998 45.8008 48.9997 45.9008 48.7997V48.6998C45.8008 48.5998 45.8008 48.3997 45.8008 48.2997C45.8008 48.0997 45.9008 47.8998 45.9008 47.6998C46.0008 47.3998 46.2008 47.0997 46.4008 46.8997C46.7008 46.4997 47.0008 46.1997 47.3008 45.8997C47.8008 45.4997 48.2008 45.3997 48.4008 44.8997C48.4008 44.7997 48.5008 44.5998 48.4008 44.5998C48.4008 44.5998 48.2008 44.5998 48.2008 44.6998C47.6008 45.0998 46.8008 45.4998 46.0008 45.1998C45.6008 45.0998 45.2008 44.7998 44.9008 44.4998C44.5008 44.0998 44.2008 43.5998 43.8008 43.1998C43.7008 43.0998 43.7008 43.0998 43.6008 42.9998L43.5008 42.8997L45.0008 40.8997C45.1008 40.7997 45.1008 40.7998 45.0008 40.6998L44.4008 39.5998C44.3008 39.5998 44.2008 39.5998 44.1008 39.6998C44.0008 39.7998 43.9008 39.8997 43.9008 39.8997L44.6008 40.7997L42.0008 44.0998C41.9008 44.1998 41.9008 44.2997 42.0008 44.3997C42.1008 44.4997 42.2008 44.3997 42.2008 44.2997L43.0008 43.2997H43.4008ZM42.6008 46.6998C42.6008 46.6998 42.5008 46.7998 42.6008 46.6998V47.6998L42.7008 47.7997L42.8008 47.6998L42.7008 46.7997C42.7008 46.6997 42.6008 46.6998 42.6008 46.6998ZM45.4008 49.3997C45.4008 49.3997 45.3008 49.4998 45.4008 49.4998H45.5008L46.1008 49.1998C46.1008 49.1998 46.2008 49.1998 46.2008 49.0998C46.2008 48.9998 46.2008 48.9997 46.1008 48.8997C46.1008 48.7997 46.0008 48.7997 46.0008 48.8997L45.4008 49.3997ZM46.2008 51.9998L46.3008 52.3997C46.3008 52.3997 46.3008 52.3997 46.4008 52.3997H47.1008L46.2008 49.7997C46.2008 49.7997 46.2008 49.7997 46.1008 49.7997H45.2008L44.3008 52.3997C44.3008 52.3997 44.3008 52.3997 44.4008 52.3997H45.1008L45.2008 51.9998H46.2008ZM45.5008 51.3997L45.8008 50.4998L46.1008 51.3997H45.5008ZM44.0008 54.5998V55.6998C44.0008 55.6998 44.0008 55.6998 44.1008 55.6998H44.8008V52.9998V52.8997H44.0008C44.0008 52.8997 43.9008 52.8998 43.9008 52.9998V53.9998H43.0008V52.9998C43.0008 52.9998 43.0008 52.8997 42.9008 52.8997H42.2008C42.2008 52.8997 42.1008 52.8998 42.1008 52.9998V55.6998C42.1008 55.6998 42.1008 55.6998 42.2008 55.6998H42.9008H43.0008V54.5998H44.0008ZM50.4008 50.4998H51.2008H51.3008V49.8997C51.3008 49.8997 51.3008 49.7997 51.2008 49.7997H49.6008C49.6008 49.7997 49.6008 49.7997 49.6008 49.8997V52.4998H51.2008H51.3008V51.8997C51.3008 51.8997 51.3008 51.7997 51.2008 51.7997H50.4008V51.4998H51.2008C51.2008 51.4998 51.3008 51.4997 51.3008 51.3997V50.8997C51.3008 50.8997 51.3008 50.8997 51.2008 50.8997H50.4008V50.4998ZM46.8008 52.7997C46.6008 52.7997 46.4008 52.7997 46.2008 52.8997C46.0008 52.9997 45.9008 53.0998 45.7008 53.1998C45.6008 53.2998 45.4008 53.4998 45.4008 53.6998C45.3008 53.8998 45.3008 54.0997 45.3008 54.2997C45.3008 54.4997 45.3008 54.6997 45.4008 54.8997C45.5008 55.0997 45.6008 55.1997 45.7008 55.3997C45.8008 55.5997 46.0008 55.6998 46.2008 55.6998C46.4008 55.7998 46.6008 55.7997 46.8008 55.7997C47.0008 55.7997 47.2008 55.6998 47.4008 55.6998C47.6008 55.5998 47.8008 55.4997 47.9008 55.3997C48.0008 55.2997 48.1008 55.0997 48.2008 54.8997C48.3008 54.6997 48.3008 54.4997 48.3008 54.2997C48.3008 54.1997 48.3008 54.1998 48.3008 54.0998C48.3008 53.9998 48.2008 53.7998 48.2008 53.6998C48.1008 53.4998 48.0008 53.3998 47.9008 53.1998C47.8008 53.0998 47.6008 52.9997 47.4008 52.8997C47.2008 52.7997 47.0008 52.7997 46.8008 52.7997ZM46.8008 53.4998C47.2008 53.4998 47.5008 53.8997 47.5008 54.2997C47.5008 54.6997 47.2008 55.0998 46.8008 55.0998C46.4008 55.0998 46.1008 54.6997 46.1008 54.2997C46.1008 53.8997 46.4008 53.4998 46.8008 53.4998ZM53.9008 51.0998L54.1008 52.4998C54.1008 52.4998 54.1008 52.4998 54.2008 52.4998H54.8008C54.8008 52.4998 54.8008 52.4998 54.9008 52.4998C54.9008 52.4998 54.9008 52.4997 54.9008 52.3997L54.5008 49.8997V49.7997H53.8008C53.8008 49.7997 53.8008 49.7997 53.8008 49.8997L53.4008 51.2997L53.0008 49.8997V49.7997H52.3008C52.3008 49.7997 52.2008 49.7997 52.2008 49.8997L51.8008 52.3997C51.8008 52.3997 51.8008 52.3998 51.8008 52.4998H52.4008H52.5008L52.7008 51.0998L53.1008 52.4998C53.1008 52.4998 53.1008 52.4998 53.2008 52.4998H53.7008C53.7008 52.4998 53.7008 52.4998 53.8008 52.4998L53.9008 51.0998ZM50.3008 54.1998L51.3008 52.8997C51.3008 52.8997 51.3008 52.8997 51.3008 52.7997C51.3008 52.6997 51.3008 52.7997 51.3008 52.7997H50.4008L49.6008 53.8997V52.7997C49.6008 52.7997 49.6008 52.6998 49.5008 52.6998H48.8008C48.8008 52.6998 48.8008 52.6997 48.8008 52.7997L48.7008 55.4998L48.8008 55.5998H49.5008H49.6008V54.4998L50.4008 55.5998H51.3008L50.3008 54.1998ZM52.5008 53.4998H53.4008V52.8997V52.7997H51.7008C51.7008 52.7997 51.6008 52.7997 51.6008 52.8997V55.5998C51.6008 55.5998 51.6008 55.5998 51.7008 55.5998H53.4008V54.9998V54.8997H52.5008V54.4998H53.4008C53.4008 54.4998 53.4008 54.4997 53.4008 54.3997V53.9998V53.8997H52.5008V53.4998ZM54.7008 52.7997H54.0008C54.0008 52.7997 53.9008 52.7997 53.9008 52.8997V55.5998C53.9008 55.5998 53.9008 55.5998 54.0008 55.5998H54.7008H54.8008L54.7008 52.7997C54.8008 52.7997 54.8008 52.8997 54.7008 52.7997ZM43.4008 50.7997C43.3008 50.7997 43.2008 50.6998 43.1008 50.6998V50.5998C43.1008 50.4998 43.1008 50.4998 43.2008 50.4998C43.2008 50.3998 43.3008 50.3997 43.4008 50.3997C43.5008 50.3997 43.5008 50.3997 43.6008 50.3997C43.7008 50.4997 43.8008 50.4998 43.8008 50.5998L44.0008 50.0998C43.9008 49.9998 43.7008 49.9997 43.6008 49.8997C43.5008 49.8997 43.3008 49.7997 43.2008 49.7997C42.9008 49.7997 42.7008 49.8998 42.5008 50.0998C42.3008 50.2998 42.2008 50.4998 42.2008 50.6998C42.2008 50.8998 42.2008 50.9998 42.4008 51.1998C42.5008 51.2998 42.7008 51.3998 42.9008 51.4998C43.0008 51.4998 43.2008 51.5998 43.2008 51.5998C43.2008 51.5998 43.3008 51.6997 43.3008 51.7997C43.3008 51.7997 43.3008 51.7997 43.3008 51.8997C43.3008 51.8997 43.3008 51.9998 43.2008 51.9998C43.1008 52.0998 43.1008 52.0998 43.0008 52.0998C42.9008 52.0998 42.9008 52.0998 42.8008 52.0998H42.7008C42.6008 51.9998 42.5008 51.8997 42.4008 51.7997C42.4008 51.7997 42.4008 51.7997 42.3008 51.7997L42.0008 52.2997C42.0008 52.2997 42.0008 52.2997 42.0008 52.3997C42.1008 52.4997 42.3008 52.5998 42.4008 52.6998C42.6008 52.7998 42.7008 52.7997 42.9008 52.7997C43.2008 52.7997 43.4008 52.6998 43.6008 52.4998C43.8008 52.2998 43.9008 52.0997 43.9008 51.7997C43.9008 51.6997 43.9008 51.5998 43.9008 51.4998C43.9008 51.3998 43.8008 51.2998 43.8008 51.1998C43.9008 50.8998 43.6008 50.7997 43.4008 50.7997ZM50.7008 49.0998H51.6008C51.7008 49.0998 51.8008 49.1997 51.8008 49.2997C51.8008 49.3997 51.7008 49.4998 51.6008 49.4998H50.7008C50.6008 49.4998 50.5008 49.3997 50.5008 49.2997C50.6008 49.1997 50.6008 49.0998 50.7008 49.0998ZM50.8008 40.5998L52.6008 42.5998L53.5008 43.5998C53.6008 43.6998 53.6008 43.8998 53.5008 43.9998C53.4008 44.0998 53.2008 43.9997 53.2008 43.8997L52.7008 43.3997C52.7008 43.4997 52.6008 43.6997 52.6008 43.8997C52.5008 44.1997 52.2008 44.5997 52.1008 44.8997C52.0008 45.0997 51.8008 45.3998 51.9008 45.6998C51.9008 45.7998 52.0008 45.8998 52.1008 45.9998C52.3008 46.0998 52.5008 46.1998 52.7008 46.1998C52.8008 46.1998 53.0008 46.1997 53.2008 46.2997C53.3008 46.3997 53.5008 46.3998 53.5008 46.4998C53.5008 46.4998 53.5008 46.4998 53.5008 46.5998C53.6008 46.6998 53.6008 46.7997 53.6008 46.8997C53.6008 47.0997 53.7008 47.4998 53.5008 47.5998H53.4008C53.3008 47.5998 53.2008 47.4998 53.1008 47.4998C53.0008 47.3998 52.8008 47.3997 52.7008 47.3997C52.4008 47.2997 52.1008 47.2998 51.9008 47.4998C51.8008 47.6998 51.8008 47.8998 51.8008 48.0998C51.8008 48.2998 51.8008 48.3998 51.8008 48.5998C51.8008 48.6998 51.8008 48.8998 51.7008 48.9998C51.6008 49.0998 51.6008 49.0998 51.5008 49.0998C51.4008 49.0998 51.2008 49.0998 51.1008 49.0998C51.0008 49.0998 51.0008 49.0998 50.9008 48.9998C50.9008 48.8998 50.9008 48.8997 50.9008 48.7997C51.0008 48.1997 50.9008 47.2997 50.3008 46.8997C50.0008 46.5997 49.5008 46.6997 49.1008 46.7997C48.9008 46.8997 48.4008 46.9997 48.2008 46.8997L48.1008 46.7997C48.1008 46.5997 48.3008 46.3997 48.4008 46.2997C48.7008 46.0997 48.9008 45.8997 49.2008 45.7997C49.5008 45.6997 49.7008 45.4997 50.0008 45.3997C50.1008 45.2997 50.2008 45.2998 50.3008 45.1998C50.4008 45.1998 50.4008 45.0998 50.5008 45.0998C50.9008 44.8998 51.2008 44.5998 51.5008 44.1998C51.6008 43.9998 51.8008 43.7998 51.9008 43.5998C52.0008 43.3998 52.2008 43.1998 52.3008 42.9998L50.4008 40.8997C50.3008 40.7997 50.3008 40.6998 50.3008 40.5998L50.8008 39.4998C50.8008 39.3998 50.8008 39.3997 50.9008 39.3997C51.1008 39.2997 51.6008 39.5997 51.5008 39.7997L50.8008 40.5998ZM48.9008 43.2997C49.0008 43.2997 49.0008 43.2997 49.0008 43.2997C49.1008 42.9997 49.4008 42.7997 49.7008 42.7997C50.0008 42.6997 50.3008 42.6997 50.5008 42.8997H50.6008C50.6008 42.6997 50.7008 42.2997 50.9008 42.2997C51.0008 42.2997 51.2008 42.3997 51.3008 42.3997C51.4008 42.4997 51.5008 42.7997 51.6008 42.8997V42.9998H51.5008C51.3008 42.9998 51.0008 42.9998 50.8008 43.0998V43.1998C51.0008 43.4998 51.1008 43.8998 50.9008 44.1998C50.8008 44.4998 50.5008 44.6997 50.2008 44.7997C49.9008 44.8997 49.5008 44.7998 49.3008 44.6998C49.0008 44.4998 48.8008 44.0997 48.8008 43.7997C48.7008 43.7997 48.7008 43.6998 48.7008 43.6998C48.5008 43.6998 48.3008 43.7998 48.1008 43.9998L48.0008 44.0998V43.9998C47.9008 43.7998 47.9008 43.5997 47.9008 43.3997C47.9008 43.2997 48.0008 43.0998 48.2008 43.0998C48.5008 42.7998 48.7008 43.0997 48.9008 43.2997ZM53.8008 46.5998C53.8008 46.4998 53.9008 46.3997 54.0008 46.3997C54.1008 46.3997 54.2008 46.4998 54.2008 46.5998V47.4998C54.2008 47.5998 54.1008 47.6998 54.0008 47.6998C53.9008 47.6998 53.8008 47.5998 53.8008 47.4998V46.5998ZM46.0008 42.6998C46.1008 42.5998 46.2008 42.5998 46.2008 42.4998C46.3008 42.3998 46.2008 42.3997 46.2008 42.2997L46.1008 42.1998H46.2008C46.5008 42.0998 46.7008 42.2998 46.7008 42.6998C47.2008 42.7998 47.4008 43.1998 47.5008 43.6998C47.5008 44.2998 47.0008 44.8997 46.4008 44.8997C46.1008 44.8997 45.8008 44.7998 45.6008 44.5998C45.4008 44.3998 45.2008 44.0997 45.2008 43.8997C45.2008 43.5997 45.3008 43.2998 45.5008 43.0998C45.7008 42.7998 45.8008 42.6998 46.0008 42.6998ZM43.3008 43.3997L42.6008 44.2997C42.5008 44.3997 42.4008 44.4997 42.2008 44.3997C42.0008 44.2997 42.1008 44.0998 42.2008 43.9998L44.7008 40.6998L44.0008 39.8997C43.8008 39.6997 44.5008 39.1998 44.6008 39.4998L45.2008 40.5998C45.3008 40.6998 45.2008 40.7997 45.2008 40.8997L43.7008 42.8997C43.8008 42.9997 43.8008 42.9998 43.9008 43.0998C44.2008 43.4998 44.6008 43.9997 45.0008 44.3997C45.3008 44.6997 45.6008 44.9998 46.0008 45.0998C46.7008 45.2998 47.5008 44.9998 48.1008 44.5998C48.2008 44.4998 48.4008 44.4998 48.5008 44.5998C48.6008 44.6998 48.5008 44.8998 48.5008 44.9998C48.2008 45.5998 47.8008 45.6998 47.3008 45.9998C47.0008 46.2998 46.7008 46.5998 46.4008 46.9998C46.2008 47.2998 46.1008 47.4997 45.9008 47.7997C45.8008 47.9997 45.8008 48.0997 45.8008 48.2997C45.8008 48.3997 45.8008 48.4998 45.9008 48.5998C46.0008 48.6998 46.0008 48.6997 46.0008 48.7997C46.0008 48.9997 45.5008 49.0998 45.3008 49.0998C45.2008 49.0998 45.1008 49.0998 45.0008 48.9998C44.9008 48.8998 44.9008 48.7998 44.9008 48.5998C44.9008 48.4998 44.9008 48.2998 44.9008 48.0998C44.9008 47.8998 44.8008 47.6998 44.7008 47.5998C44.7008 47.4998 44.6008 47.4998 44.6008 47.4998C44.4008 47.3998 44.1008 47.4998 43.9008 47.4998C43.8008 47.5998 43.6008 47.5998 43.5008 47.6998C43.4008 47.7998 43.3008 47.7997 43.2008 47.7997H43.1008C42.9008 47.6997 42.9008 47.2998 43.0008 47.0998C43.0008 46.9998 43.0008 46.8997 43.1008 46.7997C43.1008 46.7997 43.1008 46.7998 43.1008 46.6998C43.2008 46.5998 43.3008 46.4998 43.4008 46.4998C43.6008 46.3998 43.7008 46.3997 43.9008 46.3997C44.1008 46.2997 44.4008 46.2998 44.5008 46.1998C44.6008 46.0998 44.7008 45.9997 44.7008 45.8997C44.7008 45.7997 44.7008 45.5998 44.6008 45.4998C44.5008 45.2998 44.3008 44.9997 44.2008 44.7997C44.0008 44.4997 43.8008 44.1997 43.6008 43.8997C43.5008 43.6997 43.4008 43.5997 43.3008 43.3997ZM42.6008 46.5998C42.7008 46.5998 42.8008 46.6997 42.8008 46.7997L42.9008 47.6998C42.9008 47.7998 42.8008 47.8997 42.7008 47.8997C42.6008 47.8997 42.5008 47.7998 42.5008 47.6998L42.4008 46.7997C42.4008 46.6997 42.5008 46.5998 42.6008 46.5998ZM45.3008 49.2997L45.9008 48.8997C46.0008 48.7997 46.1008 48.8998 46.2008 48.9998C46.3008 49.0998 46.3008 49.2997 46.1008 49.3997L45.5008 49.6998C45.4008 49.6998 45.3008 49.6998 45.2008 49.5998C45.2008 49.4998 45.2008 49.3997 45.3008 49.2997ZM46.1008 52.0998H45.3008L45.2008 52.3997C45.2008 52.4997 45.1008 52.4998 45.1008 52.4998H44.4008C44.3008 52.4998 44.3008 52.4997 44.3008 52.3997C44.3008 52.3997 44.2008 52.2997 44.3008 52.2997L45.2008 49.6998C45.2008 49.5998 45.3008 49.5998 45.3008 49.5998H46.2008C46.3008 49.5998 46.3008 49.5998 46.3008 49.6998L47.2008 52.2997C47.2008 52.3997 47.2008 52.3997 47.2008 52.3997C47.2008 52.4997 47.1008 52.4998 47.1008 52.4998H46.4008C46.3008 52.4998 46.3008 52.3997 46.3008 52.3997L46.1008 52.0998ZM43.9008 54.5998H43.2008V55.5998C43.2008 55.6998 43.1008 55.6998 43.1008 55.6998H42.4008C42.3008 55.6998 42.3008 55.5998 42.3008 55.5998V52.8997C42.3008 52.7997 42.4008 52.7997 42.4008 52.7997H43.1008C43.2008 52.7997 43.2008 52.8997 43.2008 52.8997V53.7997H43.9008V52.8997C43.9008 52.7997 44.0008 52.7997 44.0008 52.7997H44.7008C44.8008 52.7997 44.8008 52.8997 44.8008 52.8997V55.5998C44.8008 55.6998 44.7008 55.6998 44.7008 55.6998H44.0008C43.9008 55.6998 43.9008 55.5998 43.9008 55.5998V54.5998ZM50.4008 50.5998V50.6998H51.1008C51.2008 50.6998 51.2008 50.7997 51.2008 50.7997V51.2997C51.2008 51.3997 51.1008 51.3997 51.1008 51.3997H50.4008V51.5998H51.1008C51.2008 51.5998 51.2008 51.6998 51.2008 51.6998V52.2997C51.2008 52.3997 51.1008 52.3997 51.1008 52.3997H49.5008C49.4008 52.3997 49.4008 52.2997 49.4008 52.2997V49.6998C49.4008 49.5998 49.5008 49.5998 49.5008 49.5998H51.1008C51.2008 49.5998 51.2008 49.6998 51.2008 49.6998V50.2997C51.2008 50.3997 51.1008 50.3997 51.1008 50.3997H50.4008V50.5998ZM46.8008 52.6998C47.0008 52.6998 47.2008 52.6997 47.4008 52.7997C47.6008 52.8997 47.8008 52.9998 47.9008 53.0998C48.0008 53.1998 48.2008 53.3998 48.2008 53.5998C48.3008 53.6998 48.3008 53.8998 48.3008 53.9998C48.3008 54.0998 48.3008 54.0998 48.3008 54.1998C48.3008 54.3998 48.2008 54.5997 48.2008 54.7997C48.2008 54.9997 48.0008 55.1997 47.9008 55.2997C47.8008 55.3997 47.6008 55.5998 47.4008 55.5998C47.2008 55.6998 47.0008 55.6998 46.8008 55.6998C46.6008 55.6998 46.4008 55.6998 46.2008 55.5998C46.0008 55.4998 45.8008 55.3997 45.7008 55.2997C45.5008 55.1997 45.4008 54.9997 45.3008 54.7997C45.2008 54.5997 45.2008 54.3998 45.2008 54.1998C45.2008 53.9998 45.3008 53.7998 45.3008 53.5998C45.4008 53.3998 45.5008 53.1998 45.7008 53.0998C45.8008 52.9998 46.0008 52.7997 46.2008 52.7997C46.4008 52.6997 46.6008 52.6998 46.8008 52.6998ZM53.8008 51.4998L53.5008 52.3997C53.5008 52.4997 53.4008 52.4998 53.4008 52.4998H53.0008C52.9008 52.4998 52.9008 52.3997 52.9008 52.3997L52.6008 51.4998L52.5008 52.3997C52.5008 52.4997 52.4008 52.4998 52.4008 52.4998H51.8008C51.7008 52.4998 51.7008 52.4997 51.7008 52.3997V52.2997L52.1008 49.6998C52.1008 49.5998 52.2008 49.5998 52.2008 49.5998H52.9008C53.0008 49.5998 53.0008 49.5998 53.0008 49.6998L53.3008 50.7997L53.6008 49.6998C53.6008 49.5998 53.7008 49.5998 53.7008 49.5998H54.4008C54.5008 49.5998 54.5008 49.6998 54.5008 49.6998L54.9008 52.2997V52.3997L54.8008 52.4998H54.2008C54.1008 52.4998 54.1008 52.3997 54.1008 52.3997L53.8008 51.4998ZM50.4008 54.1998L51.4008 55.4998C51.4008 55.5998 51.4008 55.5998 51.4008 55.6998L51.3008 55.7997H50.4008C50.3008 55.7997 50.3008 55.7998 50.3008 55.6998L49.6008 54.7997V55.5998C49.6008 55.6998 49.5008 55.6998 49.5008 55.6998H48.8008C48.7008 55.6998 48.6008 55.5998 48.6008 55.4998L48.7008 52.7997C48.7008 52.6997 48.8008 52.6998 48.8008 52.6998H49.5008C49.6008 52.6998 49.6008 52.7997 49.6008 52.7997V53.5998L50.2008 52.6998C50.2008 52.5998 50.3008 52.5998 50.3008 52.5998H51.2008C51.3008 52.5998 51.3008 52.5998 51.3008 52.6998C51.3008 52.7998 51.3008 52.7997 51.3008 52.8997L50.4008 54.1998ZM52.6008 53.5998V53.7997H53.4008C53.5008 53.7997 53.5008 53.8997 53.5008 53.8997V54.4998C53.5008 54.5998 53.4008 54.5998 53.4008 54.5998H52.6008V54.7997H53.4008C53.5008 54.7997 53.5008 54.8997 53.5008 54.8997V55.4998C53.5008 55.5998 53.4008 55.5998 53.4008 55.5998H51.7008C51.6008 55.5998 51.6008 55.4998 51.6008 55.4998V52.7997C51.6008 52.6997 51.7008 52.6998 51.7008 52.6998H53.4008C53.5008 52.6998 53.5008 52.7997 53.5008 52.7997V53.3997C53.5008 53.4997 53.4008 53.4998 53.4008 53.4998H52.6008V53.5998ZM54.7008 52.6998C54.8008 52.6998 54.8008 52.7997 54.8008 52.7997V55.4998C54.8008 55.5998 54.7008 55.5998 54.7008 55.5998H54.0008C53.9008 55.5998 53.9008 55.4998 53.9008 55.4998V52.7997C53.9008 52.6997 54.0008 52.6998 54.0008 52.6998H54.7008ZM43.4008 50.6998C43.6008 50.6998 43.9008 50.7998 44.0008 50.9998C44.1008 51.0998 44.1008 51.1997 44.2008 51.2997C44.2008 51.3997 44.3008 51.4998 44.3008 51.5998C44.3008 51.8998 44.2008 52.1997 44.0008 52.3997C43.8008 52.5997 43.5008 52.6998 43.2008 52.6998C43.0008 52.6998 42.8008 52.6998 42.7008 52.5998C42.5008 52.4998 42.4008 52.3997 42.2008 52.2997C42.2008 52.2997 42.1008 52.1998 42.2008 52.0998L42.5008 51.5998L42.6008 51.4998C42.7008 51.4998 42.7008 51.4998 42.7008 51.4998C42.8008 51.5998 42.8008 51.6997 43.0008 51.7997C43.0008 51.7997 43.0008 51.7997 43.1008 51.7997C43.2008 51.7997 43.2008 51.7997 43.3008 51.7997C43.4008 51.7997 43.4008 51.7998 43.4008 51.6998V51.5998C43.4008 51.5998 43.2008 51.4998 43.1008 51.4998C42.9008 51.3998 42.6008 51.2998 42.5008 51.1998C42.4008 51.0998 42.3008 50.8998 42.3008 50.6998C42.3008 50.3998 42.4008 50.1998 42.6008 49.9998C42.8008 49.7998 43.1008 49.6998 43.3008 49.6998C43.4008 49.6998 43.6008 49.6997 43.8008 49.7997C43.9008 49.8997 44.1008 49.8998 44.2008 49.9998C44.3008 49.9998 44.3008 50.0998 44.2008 50.1998L44.0008 50.6998C44.0008 50.7998 43.9008 50.7997 43.9008 50.7997H43.8008C43.7008 50.6997 43.7008 50.6998 43.6008 50.6998C43.5008 50.6998 43.5008 50.5998 43.4008 50.5998C43.3008 50.5998 43.3008 50.5998 43.3008 50.5998C43.3008 50.5998 43.3008 50.5998 43.3008 50.6998C43.2008 50.5998 43.4008 50.6998 43.4008 50.6998ZM45.6008 51.2997H45.9008L45.8008 50.7997L45.6008 51.2997ZM46.8008 53.5998C46.5008 53.5998 46.2008 53.8997 46.2008 54.2997C46.2008 54.5997 46.5008 54.9998 46.8008 54.9998C47.1008 54.9998 47.4008 54.6997 47.4008 54.2997C47.4008 53.8997 47.2008 53.5998 46.8008 53.5998Z" fill="#00376A"/>
</svg>
