<svg width="97" height="97" viewBox="0 0 97 97" fill="none" xmlns="http://www.w3.org/2000/svg">
<path fill-rule="evenodd" clip-rule="evenodd" d="M48.5 0.900391C74.9 0.900391 96.3999 22.4004 96.3999 48.8004C96.3999 75.2004 75 96.7004 48.5 96.7004C22 96.7004 0.599957 75.2004 0.599957 48.8004C0.499957 22.4004 22 0.900391 48.5 0.900391Z" fill="white" fill-opacity="0.8"/>
<path fill-rule="evenodd" clip-rule="evenodd" d="M85.7996 45.4002C84.1996 42.8002 78.9996 37.5002 78.9996 37.5002C80.9996 32.9002 76.9996 30.0002 74.9996 28.9002C68.4996 25.3002 64.1996 28.5002 64.1996 28.5002C61.8996 27.4002 57.1996 27.5002 57.1996 27.5002L54.7996 28.4002H48.6996H48.1996H41.9996L39.5996 27.5002C39.5996 27.5002 34.9996 27.4002 32.5996 28.5002C32.5996 28.5002 28.2996 25.3002 21.7996 28.9002C19.6996 30.0002 15.6996 32.9002 17.6996 37.5002C17.6996 37.5002 12.3996 42.8002 10.8996 45.4002C10.8996 45.4002 8.99958 49.3002 13.5996 52.4002L17.9996 54.6002C17.9996 54.6002 21.9996 55.5002 23.4996 52.7002C23.4996 52.7002 24.5996 51.8002 24.6996 47.3002C24.6996 47.3002 27.9996 48.5002 30.8996 46.9002V55.0002C30.8996 55.0002 29.9996 57.5002 28.8996 58.9002L29.7996 68.2002L33.3996 70.5002L42.9996 70.6002L43.7996 69.5002H48.0996H48.3996H52.6996L53.4996 70.6002L63.0996 70.5002L66.6996 68.2002L67.5996 58.9002C66.5996 57.5002 65.6996 55.0002 65.6996 55.0002V46.9002C68.5996 48.4002 71.8996 47.3002 71.8996 47.3002C71.9996 51.8002 73.0996 52.7002 73.0996 52.7002C74.5996 55.4002 78.5996 54.6002 78.5996 54.6002L82.9996 52.4002C87.6996 49.3002 85.7996 45.4002 85.7996 45.4002Z" fill="#E2E2E2"/>
<path fill-rule="evenodd" clip-rule="evenodd" d="M29.0996 58.901L31.0996 55.001C31.0996 55.001 31.0996 55.001 31.0996 55.101C31.0996 55.001 31.0996 55.001 31.0996 55.001C31.0996 55.001 30.0996 57.501 29.0996 58.901ZM67.3996 58.501C66.8996 57.801 66.4996 56.801 66.1996 56.101C66.5996 57.001 67.1996 58.001 67.3996 58.501Z" fill="#D9D9D9"/>
<path fill-rule="evenodd" clip-rule="evenodd" d="M50.2004 63.5004H46.4004V62.0004C46.4004 61.3004 45.9004 60.8004 45.2004 60.8004H33.8004C31.0004 58.5004 30.9004 55.4004 30.9004 55.0004V54.9004H60.0004C60.3004 57.3004 60.8004 58.7004 60.8004 58.7004C61.0004 59.5004 61.0004 60.2004 60.9004 60.8004H51.0004C50.5004 60.8004 50.1004 61.2004 50.1004 61.7004V63.5004H50.2004ZM67.6004 58.9004C66.6004 57.5004 65.7004 55.0004 65.7004 55.0004C65.8004 55.3004 66.0004 55.7004 66.2004 56.1004C66.5004 56.8004 67.0004 57.8004 67.4004 58.5004C67.5004 58.7004 67.6004 58.9004 67.6004 58.9004Z" fill="#C0C0C0"/>
<path fill-rule="evenodd" clip-rule="evenodd" d="M45.3002 69.8004H32.9002C32.7002 69.8004 32.5002 69.7004 32.3002 69.6004L30.6002 68.5004L30.1002 68.2004L29.5002 62.2004C29.4002 61.5004 30.0002 60.9004 30.7002 60.9004H45.4002C46.1002 60.9004 46.6002 61.4004 46.6002 62.1004V68.6004C46.4002 69.2004 45.9002 69.8004 45.3002 69.8004Z" fill="#333333"/>
<path fill-rule="evenodd" clip-rule="evenodd" d="M63.9998 69.801H51.1998C50.6998 69.801 50.2998 69.401 50.2998 68.901V61.901C50.2998 61.401 50.6998 61.001 51.1998 61.001H67.4998C67.4998 61.001 67.4998 61.501 67.3998 62.001L66.7998 68.301L66.3998 68.601L64.4998 69.801C64.2998 69.701 64.1998 69.801 63.9998 69.801Z" fill="#333333"/>
<path fill-rule="evenodd" clip-rule="evenodd" d="M32.5998 28.5006C32.5998 28.5006 32.0998 28.1006 31.1998 27.8006C30.3998 27.5006 29.1998 27.1006 27.7998 27.1006C27.7998 27.1006 27.7998 27.1006 27.8998 27.1006C30.7998 27.1006 32.5998 28.5006 32.5998 28.5006Z" fill="#D9D9D9"/>
<path fill-rule="evenodd" clip-rule="evenodd" d="M27.5 47.6002C28.5 47.6002 29.7 47.4002 30.9 46.8002C30.9 46.8002 35 44.0002 34.6 40.0002C34.6 40.0002 34.1 33.1002 32.5 28.4002C32.5 28.4002 32 28.0002 31.2 27.7002C32.1 28.0002 32.6 28.4002 32.6 28.4002C34.1 33.1002 34.7 40.0002 34.7 40.0002C34.8 40.9002 34.7 41.7002 34.4 42.5002C33.5 45.1002 31.1 46.8002 31.1 46.8002C29.9 47.5002 28.6 47.6002 27.5 47.6002Z" fill="#C0C0C0"/>
<path fill-rule="evenodd" clip-rule="evenodd" d="M17.6998 37.5004C16.9998 36.2004 16.9998 35.0004 17.2998 33.9004C17.0998 35.0004 17.1998 36.2004 17.6998 37.5004ZM21.4998 29.0004C21.4998 29.0004 21.5998 29.0004 21.5998 28.9004C21.5998 29.0004 21.4998 29.0004 21.4998 29.0004Z" fill="#D9D9D9"/>
<path fill-rule="evenodd" clip-rule="evenodd" d="M24.7996 47.2004C24.6996 47.1004 24.5996 47.0004 24.4996 46.9004L21.9996 44.0004C19.6996 41.0004 17.6996 37.5004 17.6996 37.5004C17.0996 36.1004 16.9996 34.9004 17.2996 33.9004C17.9996 31.3004 20.5996 29.6004 21.4996 29.0004C21.4996 29.0004 21.5996 29.0004 21.5996 28.9004L20.7996 29.7004C21.0996 29.6004 21.2996 29.6004 21.4996 29.6004C25.3996 29.6004 28.3996 35.1004 28.3996 35.1004C33.9996 42.1004 25.4996 46.8004 24.7996 47.2004Z" fill="#C0C0C0"/>
<path fill-rule="evenodd" clip-rule="evenodd" d="M25.5998 47.5007C25.1998 47.4007 24.8998 47.3007 24.7998 47.3007C24.7998 47.2007 25.0998 47.4007 25.5998 47.5007Z" fill="#D9D9D9"/>
<path fill-rule="evenodd" clip-rule="evenodd" d="M27.4003 47.6002C26.7003 47.6002 26.0003 47.5002 25.6003 47.4002C25.1003 47.3002 24.8003 47.2002 24.8003 47.2002C24.8003 47.2002 25.9003 47.6002 27.4003 47.6002C27.5003 47.6002 27.5003 47.6002 27.4003 47.6002ZM24.8003 47.3002C24.8003 47.3002 24.7003 47.2002 24.8003 47.3002C24.7003 47.2002 24.8003 47.2002 24.8003 47.3002C24.8003 47.2002 24.8003 47.2002 24.8003 47.3002Z" fill="#C0C0C0"/>
<path fill-rule="evenodd" clip-rule="evenodd" d="M21.5996 29.0006C23.9996 27.6006 26.0996 27.1006 27.6996 27.1006C26.0996 27.1006 23.9996 27.6006 21.6996 28.9006C21.7996 28.9006 21.6996 28.9006 21.5996 29.0006Z" fill="#D9D9D9"/>
<path fill-rule="evenodd" clip-rule="evenodd" d="M21.5996 29.0006C21.6996 28.9006 21.7996 28.9006 21.7996 28.9006C21.6996 28.9006 21.6996 29.0006 21.5996 29.0006ZM21.7996 28.9006C24.0996 27.6006 26.0996 27.1006 27.7996 27.1006C29.1996 27.1006 30.3996 27.4006 31.1996 27.8006C30.3996 27.5006 29.2996 27.2006 27.8996 27.2006C26.1996 27.2006 24.0996 27.6006 21.7996 28.9006Z" fill="#B9B9B9"/>
<path fill-rule="evenodd" clip-rule="evenodd" d="M27.5004 47.6002C25.9004 47.6002 24.8004 47.2002 24.8004 47.2002C25.5004 46.8002 34.0004 42.0002 28.5004 35.2002C28.5004 35.2002 25.5004 29.7002 21.6004 29.7002C21.4004 29.7002 21.1004 29.7002 20.9004 29.8002L21.7004 29.0002C21.8004 29.0002 21.8004 28.9002 21.9004 28.9002C24.3004 27.6002 26.3004 27.2002 28.0004 27.2002C29.4004 27.2002 30.6004 27.5002 31.3004 27.8002C32.2004 28.1002 32.6004 28.5002 32.6004 28.5002C34.2004 33.2002 34.7004 40.1002 34.7004 40.1002C35.2004 44.1002 31.0004 46.9002 31.0004 46.9002C29.8004 47.4002 28.6004 47.6002 27.5004 47.6002Z" fill="#A3A3A3"/>
<path fill-rule="evenodd" clip-rule="evenodd" d="M25.2001 44.9003C25.6001 45.0003 27.8001 45.6004 29.8001 44.6004C30.1001 44.4004 32.8001 42.4004 32.5001 39.6004C32.5001 39.5004 32.1001 34.2004 30.9001 30.6004C30.3001 30.2004 27.2001 28.4004 22.8001 31.0004C22.6001 31.1004 17.9001 33.6003 19.8001 37.3003C19.9001 37.6003 22.8001 42.7003 25.2001 44.9003ZM27.2001 45.9003C25.9001 45.9003 25.0001 45.6004 24.9001 45.6004H24.8001H24.7001C22.1001 43.3004 19.1001 38.0004 19.0001 37.7004C16.9001 33.4004 22.1001 30.5003 22.4001 30.3003C27.7001 27.2003 31.3001 29.9004 31.4001 30.0004L31.5001 30.1004L31.6001 30.2004C32.8001 34.0004 33.3001 39.3004 33.3001 39.5004C33.7001 42.8004 30.4001 45.1003 30.2001 45.3003H30.1001C29.2001 45.8003 28.1001 45.9003 27.2001 45.9003Z" fill="#0099D1"/>
<path fill-rule="evenodd" clip-rule="evenodd" d="M79.5996 35.2006C79.5996 34.5006 79.4996 34.0006 79.2996 33.4006C79.1996 33.2006 79.1996 33.1006 79.0996 32.9006C79.3996 33.6006 79.5996 34.3006 79.5996 35.2006ZM76.4996 29.9006C75.9996 29.5006 75.3996 29.2006 74.9996 28.9006C72.5996 27.6006 70.5996 27.2006 68.8996 27.2006C67.4996 27.2006 66.3996 27.5006 65.5996 27.8006C66.3996 27.5006 67.5996 27.1006 68.9996 27.1006C70.6996 27.1006 72.6996 27.6006 74.9996 28.9006C74.9996 28.9006 75.6996 29.2006 76.4996 29.9006Z" fill="#D9D9D9"/>
<path fill-rule="evenodd" clip-rule="evenodd" d="M68.2002 42.6002C65.2002 42.6002 62.2002 40.2002 62.2002 40.2002C62.2002 40.4002 62.2002 40.6002 62.2002 40.8002C62.2002 40.6002 62.2002 40.4002 62.2002 40.1002C62.2002 40.1002 62.7002 33.2002 64.3002 28.5002C64.3002 28.5002 64.8002 28.1002 65.7002 27.8002C66.5002 27.5002 67.6002 27.2002 69.0002 27.2002C70.7002 27.2002 72.7002 27.6002 75.1002 28.9002C75.6002 29.1002 76.1002 29.5002 76.6002 29.9002C77.5002 30.6002 78.5002 31.6002 79.2002 32.9002C79.3002 33.1002 79.3002 33.2002 79.4002 33.4002C78.3002 30.7002 75.1002 29.0002 75.1002 29.0002L74.3002 28.9002C76.5002 34.2002 72.5002 39.8002 72.5002 39.8002C71.4002 41.9002 69.8002 42.6002 68.2002 42.6002Z" fill="#C0C0C0"/>
<path fill-rule="evenodd" clip-rule="evenodd" d="M69.2998 47.7004C68.2998 47.7004 66.9998 47.5004 65.7998 46.9004C66.8998 47.5004 68.0998 47.7004 69.2998 47.7004C69.9998 47.7004 70.7998 47.6004 71.2998 47.4004C71.5998 47.3004 71.8998 47.3004 71.9998 47.2004C71.9998 47.2004 71.9998 47.2004 71.9998 47.3004C71.6998 47.4004 70.5998 47.7004 69.2998 47.7004Z" fill="#D9D9D9"/>
<path fill-rule="evenodd" clip-rule="evenodd" d="M69.1996 47.7008C68.1996 47.7008 66.8996 47.5008 65.7996 46.9008C65.7996 46.9008 65.7996 46.9008 65.6996 46.9008C65.6996 46.9008 65.5996 46.8008 65.3996 46.7008C65.5996 46.9008 65.6996 47.0008 65.6996 47.0008C66.9996 47.5008 68.1996 47.6008 69.1996 47.7008C70.0996 47.7008 70.7996 47.6008 71.2996 47.5008C70.6996 47.6008 69.9996 47.7008 69.1996 47.7008ZM71.8996 47.3008C71.9996 47.2008 71.9996 47.2008 71.8996 47.3008C71.9996 47.2008 72.0996 47.1008 72.1996 47.0008L71.8996 47.3008C71.9996 47.3008 71.9996 47.3008 71.8996 47.3008ZM64.7996 46.1008C64.5996 45.9008 64.3996 45.8008 64.2996 45.7008C64.1996 45.6008 64.0996 45.4008 63.8996 45.2008C64.2996 45.5008 64.5996 45.8008 64.7996 46.1008ZM63.4996 44.6008C63.2996 44.4008 63.1996 44.2008 63.1996 44.2008C62.5996 43.2008 62.0996 42.1008 62.0996 40.8008C62.0996 42.3008 62.6996 43.6008 63.4996 44.6008Z" fill="#C0C0C0"/>
<path fill-rule="evenodd" clip-rule="evenodd" d="M79 37.6002C79.4 36.7002 79.6 35.9002 79.6 35.2002C79.6 35.9002 79.4 36.7002 79 37.6002Z" fill="#D9D9D9"/>
<path fill-rule="evenodd" clip-rule="evenodd" d="M74.9004 44.001C77.0004 41.101 78.9004 37.801 79.0004 37.501C79.0004 37.601 77.1004 41.001 74.9004 44.001Z" fill="#C0C0C0"/>
<path fill-rule="evenodd" clip-rule="evenodd" d="M71.2002 47.4004C71.6002 47.3004 71.9002 47.2004 71.9002 47.2004C71.8002 47.3004 71.6002 47.4004 71.2002 47.4004ZM79.0002 37.6004C79.0002 37.6004 79.0002 37.5004 79.0002 37.6004C79.7002 36.0004 79.7002 34.6004 79.3002 33.4004C79.5002 34.0004 79.6002 34.6004 79.6002 35.2004C79.6002 35.9004 79.4002 36.7004 79.0002 37.6004Z" fill="#B9B9B9"/>
<path fill-rule="evenodd" clip-rule="evenodd" d="M69.3002 47.6002C68.3002 47.6002 67.0002 47.4002 65.8002 46.8002C65.8002 46.8002 65.7002 46.7002 65.5002 46.5002C65.3002 46.4002 65.1002 46.2002 64.9002 46.0002C64.6002 45.8002 64.4002 45.5002 64.1002 45.1002C63.9002 44.9002 63.7002 44.7002 63.6002 44.5002C62.9002 43.5002 62.2002 42.2002 62.2002 40.7002C62.2002 40.5002 62.2002 40.3002 62.2002 40.1002C62.2002 40.1002 65.3002 42.5002 68.2002 42.5002C69.8002 42.5002 71.4002 41.8002 72.5002 39.6002C72.5002 39.6002 76.4002 34.0002 74.3002 28.7002L75.1002 28.8002C75.1002 28.8002 78.3002 30.5002 79.4002 33.2002C79.8002 34.4002 79.8002 35.8002 79.1002 37.4002C78.9002 37.7002 77.1002 41.0002 75.0002 43.8002L72.3002 46.9002C72.2002 47.0002 72.2002 47.0002 72.1002 47.1002C72.1002 47.1002 72.1002 47.1002 72.0002 47.1002C72.0002 47.1002 71.7002 47.2002 71.3002 47.3002C70.7002 47.5002 70.1002 47.6002 69.3002 47.6002Z" fill="#A3A3A3"/>
<path fill-rule="evenodd" clip-rule="evenodd" d="M66.9999 44.6007C68.8999 45.5007 71.0999 45.0007 71.4999 44.9007C73.8999 42.7007 76.7999 37.6007 76.9999 37.3007C78.7999 33.6007 74.0999 31.1007 73.8999 31.0007C69.4999 28.5007 66.4999 30.2007 65.7999 30.6007C64.5999 34.3007 64.1999 39.6007 64.1999 39.6007C63.9999 42.4007 66.6999 44.4007 66.9999 44.6007ZM69.5999 46.1007C68.6999 46.1007 67.5999 45.9007 66.5999 45.4007H66.4999C66.3999 45.3007 62.9999 42.9007 63.3999 39.5007C63.3999 39.2007 63.8999 33.9007 65.0999 30.1007V30.0007L65.1999 29.9007C65.3999 29.8007 68.9999 27.1007 74.3999 30.2007C76.3999 31.2007 79.5999 34.1007 77.7999 37.8007C77.6999 38.0007 74.5999 43.5007 71.9999 45.8007L71.8999 45.9007H71.7999C71.7999 45.8007 70.8999 46.1007 69.5999 46.1007Z" fill="#0099D1"/>
<path fill-rule="evenodd" clip-rule="evenodd" d="M66.8996 66.4006H29.7996L29.5996 63.6006H67.1996L66.8996 66.4006Z" fill="#FF9900"/>
<path fill-rule="evenodd" clip-rule="evenodd" d="M48.4998 53.9002H48.1998C46.3998 53.9002 44.8998 52.4002 44.8998 50.6002L43.2998 32.5002C43.2998 30.7002 46.2998 29.2002 48.0998 29.2002H48.3998C50.1998 29.2002 53.1998 30.7002 53.1998 32.5002L51.5998 50.6002C51.7998 52.5002 50.2998 53.9002 48.4998 53.9002Z" fill="#00AEEF"/>
<path fill-rule="evenodd" clip-rule="evenodd" d="M39.5996 27.501L41.9996 28.401H54.6996L57.0996 27.501C57.0996 27.501 54.9996 32.501 48.0996 35.901C48.1996 35.901 42.0996 33.201 39.5996 27.501Z" fill="#333333"/>
<path fill-rule="evenodd" clip-rule="evenodd" d="M86.0004 46.0006L81.1004 49.7006C80.4004 50.2006 79.4004 50.1006 78.9004 49.4006C78.4004 48.7006 78.5004 47.7006 79.2004 47.2006L84.2004 43.6006C84.9004 43.1006 85.9004 43.2006 86.4004 43.9006C86.9004 44.4006 86.7004 45.5006 86.0004 46.0006Z" fill="#333333"/>
<path fill-rule="evenodd" clip-rule="evenodd" d="M15.5 49.7004L10.8 45.8004C10.1 45.2004 10 44.2004 10.6 43.5004C11.2 42.8004 12.2 42.8004 12.8 43.3004L17.5 47.3004C18.2 47.9004 18.3 48.9004 17.7 49.5004C17.2 50.2004 16.2 50.3004 15.5 49.7004Z" fill="#333333"/>
<path fill-rule="evenodd" clip-rule="evenodd" d="M41.0004 42.7008L36.9004 38.6008L38.5004 38.3008L42.6004 42.3008L41.0004 42.7008Z" fill="#333333"/>
<path fill-rule="evenodd" clip-rule="evenodd" d="M41.0004 48.1008L36.9004 44.1008L38.5004 43.8008L42.6004 47.8008L41.0004 48.1008Z" fill="#333333"/>
<path fill-rule="evenodd" clip-rule="evenodd" d="M41.0004 53.5002L36.9004 49.5002L38.5004 49.2002L42.6004 53.2002L41.0004 53.5002Z" fill="#333333"/>
<path fill-rule="evenodd" clip-rule="evenodd" d="M56.0996 42.101L60.3996 38.301L58.7996 38.001L54.5996 41.801L56.0996 42.101Z" fill="#333333"/>
<path fill-rule="evenodd" clip-rule="evenodd" d="M55.7002 47.3002L59.9002 43.5002L58.4002 43.2002L54.2002 47.0002L55.7002 47.3002Z" fill="#333333"/>
<path fill-rule="evenodd" clip-rule="evenodd" d="M55.2002 52.5004L59.4002 48.7004L57.9002 48.4004L53.7002 52.2004L55.2002 52.5004Z" fill="#333333"/>
<path fill-rule="evenodd" clip-rule="evenodd" d="M53.5996 70.5008L52.9996 69.7008H53.0996L53.5996 70.5008L63.1996 70.4008L64.3996 69.6008L63.0996 70.4008L53.5996 70.5008ZM43.1996 70.5008L33.5996 70.4008L29.9996 68.1008L29.0996 58.8008L29.1996 59.5008L29.5996 63.5008L29.8996 66.3008L30.0996 68.1008L30.5996 68.4008L32.2996 69.5008C32.3996 69.5008 32.3996 69.6008 32.3996 69.6008L33.5996 70.4008L43.1996 70.5008ZM50.3996 69.4008H48.4996H48.1996H45.9996H48.1996H48.4996H50.3996ZM65.9996 68.6008L66.2996 68.4008L65.9996 68.6008Z" fill="#D9D9D9"/>
<path fill-rule="evenodd" clip-rule="evenodd" d="M53.6002 70.5002L53.1002 69.7002H64.0002C64.1002 69.7002 64.3002 69.7002 64.4002 69.6002L63.2002 70.4002L53.6002 70.5002ZM43.2002 70.5002L33.6002 70.4002L32.4002 69.6002C32.5002 69.7002 32.7002 69.7002 32.9002 69.7002H43.8002L43.2002 70.5002ZM50.4002 69.4002H48.5002H48.2002H46.0002C46.2002 69.2002 46.4002 68.9002 46.4002 68.5002V66.3002H50.2002V68.7002C50.2002 69.0002 50.3002 69.2002 50.4002 69.4002ZM30.0002 68.2002L29.8002 66.4002L30.0002 68.2002ZM29.6002 63.6002L29.2002 59.6002L29.5002 61.8002C29.4002 61.9002 29.4002 62.1002 29.4002 62.2002L29.6002 63.6002ZM67.4002 60.9002L67.6002 58.9002L67.4002 60.9002ZM65.7002 55.0002H60.1002C59.9002 53.0002 59.8002 50.4002 60.5002 47.4002L63.2002 44.2002C64.1002 45.6002 65.4002 46.6002 65.7002 46.9002V55.0002Z" fill="#C0C0C0"/>
<path fill-rule="evenodd" clip-rule="evenodd" d="M29.1996 59.601L29.0996 58.901C30.0996 57.501 31.0996 55.001 31.0996 55.001C31.0996 55.001 31.0996 55.001 31.0996 55.101C30.8996 55.501 30.0996 57.701 29.1996 58.901V59.601Z" fill="#B9B9B9"/>
<path fill-rule="evenodd" clip-rule="evenodd" d="M50.1996 63.601H46.3996V63.501H50.1996V63.601ZM29.4996 61.701L29.1996 59.501L29.0996 58.801C29.9996 57.601 30.8996 55.401 30.9996 55.001C30.9996 55.501 31.0996 58.501 33.8996 60.801H30.5996C30.0996 60.901 29.5996 61.201 29.4996 61.701ZM67.3996 60.901H60.9996C61.0996 60.301 61.0996 59.701 60.8996 58.801C60.8996 58.801 60.3996 57.301 60.0996 55.001H65.6996C65.6996 55.001 66.5996 57.501 67.5996 58.901L67.3996 60.901Z" fill="#A3A3A3"/>
<path fill-rule="evenodd" clip-rule="evenodd" d="M43.7 69.8004H32.8C32.6 69.8004 32.5 69.7004 32.3 69.7004C32.2 69.7004 32.2 69.6004 32.2 69.6004L30.5 68.5004L30 68.2004L29.8 66.4004H46.4V68.6004C46.4 68.9004 46.3 69.3004 46 69.5004H43.9L43.7 69.8004ZM46.4 63.6004H29.6L29.5 62.2004C29.5 62.1004 29.5 61.9004 29.6 61.8004C29.7 61.3004 30.2 60.9004 30.7 60.9004H34C35.6 62.2004 38.2 63.3004 42.2 63.5004H46.6V63.6004H46.4Z" fill="#2B2B2B"/>
<path fill-rule="evenodd" clip-rule="evenodd" d="M64.0002 69.8004H53.0002L52.8002 69.5004H50.4002C50.3002 69.3004 50.2002 69.1004 50.2002 68.9004V66.5004H66.9002L66.7002 68.3004L66.4002 68.5004L66.1002 68.7004L64.5002 69.7004C64.2002 69.7004 64.1002 69.8004 64.0002 69.8004ZM67.1002 63.6004H50.2002V63.5004H57.5002C57.5002 63.5004 57.5002 63.5004 57.6002 63.5004C58.1002 63.5004 60.6002 63.4004 61.1002 60.9004H67.5002L67.1002 63.6004Z" fill="#2B2B2B"/>
<path fill-rule="evenodd" clip-rule="evenodd" d="M65.7002 46.8006C65.4002 46.6006 64.1002 45.6006 63.2002 44.1006C63.2002 44.1006 63.3002 44.3006 63.5002 44.5006C63.7002 44.7006 63.8002 45.0006 64.0002 45.1006C64.1002 45.3006 64.3002 45.5006 64.4002 45.6006C64.5002 45.7006 64.7002 45.9006 64.9002 46.0006C65.2002 46.2006 65.4002 46.4006 65.5002 46.5006C65.6002 46.7006 65.7002 46.8006 65.7002 46.8006Z" fill="#A3A3A3"/>
<path fill-rule="evenodd" clip-rule="evenodd" d="M65.4 46.6006C65.2 46.5006 65 46.3006 64.8 46.1006C65 46.3006 65.3 46.5006 65.4 46.6006ZM64 45.2006C63.8 45.0006 63.7 44.8006 63.5 44.6006C63.6 44.8006 63.8 45.0006 64 45.2006Z" fill="#8B8B8B"/>
<path fill-rule="evenodd" clip-rule="evenodd" d="M66.8996 66.4006H50.1996H46.3996H29.8996H29.7996L29.5996 63.6006H46.3996H50.1996H67.0996L66.8996 66.4006Z" fill="#0099D1"/>
<path fill-rule="evenodd" clip-rule="evenodd" d="M77.2004 54.701C76.3004 54.701 75.6004 54.501 74.9004 54.201C75.7004 54.501 76.6004 54.701 77.3004 54.701C77.6004 54.701 77.8004 54.701 78.0004 54.601C77.7004 54.701 77.5004 54.701 77.2004 54.701ZM78.7004 54.601L83.1004 52.401C86.6004 50.001 86.4004 47.201 86.0004 46.001C87.1004 50.201 83.0004 52.401 83.0004 52.401L78.7004 54.601ZM73.5004 53.201C72.1004 51.601 71.9004 49.101 72.0004 48.001C72.2004 51.901 73.2004 52.801 73.2004 52.801C73.3004 52.901 73.4004 53.001 73.5004 53.201Z" fill="#D9D9D9"/>
<path fill-rule="evenodd" clip-rule="evenodd" d="M77.3 54.7004C76.6 54.7004 75.7 54.6004 74.9 54.2004C74.3 53.9004 73.9 53.6004 73.5 53.1004C73.4 53.0004 73.3 52.8004 73.2 52.6004C73.2 52.6004 72.2 51.8004 72 47.8004C72 47.4004 72 47.2004 72 47.2004C72.9 46.4004 74 45.2004 74.9 43.9004C75.8 45.9004 77.3 46.8004 79 47.1004C78.5 47.7004 78.4 48.5004 78.8 49.2004C79.1 49.6004 79.6 49.9004 80.1 49.9004C80.4 49.9004 80.8 49.8004 81 49.6004L85.9 45.9004C86.2 47.1004 86.5 49.9004 83 52.3004L78.6 54.5004C78.4 54.6004 78.1 54.6004 77.9 54.6004C77.8 54.7004 77.6 54.7004 77.3 54.7004Z" fill="#C0C0C0"/>
<path fill-rule="evenodd" clip-rule="evenodd" d="M72 47.301L72.2 47.101C73.1 46.301 74 45.201 74.9 44.001C73.9 45.301 72.9 46.501 72 47.301Z" fill="#A3A3A3"/>
<path fill-rule="evenodd" clip-rule="evenodd" d="M72.2002 47.101L74.9002 44.001C74.0002 45.101 73.1002 46.301 72.2002 47.101Z" fill="#8B8B8B"/>
<path fill-rule="evenodd" clip-rule="evenodd" d="M80.0996 49.9008C79.5996 49.9008 79.0996 49.7008 78.7996 49.2008C78.2996 48.5008 78.3996 47.7008 78.9996 47.1008C79.3996 47.2008 79.7997 47.2008 80.1997 47.2008C83.0997 47.2008 85.8996 45.9008 85.9996 45.8008L81.0996 49.5008C80.7996 49.8008 80.4996 49.9008 80.0996 49.9008Z" fill="#2B2B2B"/>
<path fill-rule="evenodd" clip-rule="evenodd" d="M64.1996 28.501C63.6996 28.301 63.1996 28.101 62.5996 28.001C63.2996 28.101 63.7996 28.301 64.1996 28.501Z" fill="#D9D9D9"/>
<path fill-rule="evenodd" clip-rule="evenodd" d="M53.2002 35.001L53.4002 32.601C53.4002 32.501 53.4002 32.501 53.4002 32.401C54.6002 31.301 55.7002 30.001 56.7002 28.501C57.1002 27.901 57.2002 27.501 57.2002 27.501C57.2002 27.501 60.5002 27.601 62.6002 28.001C63.2002 28.101 63.7002 28.301 64.2002 28.501C64.2002 28.501 64.2002 28.501 64.3002 28.501C64.3002 28.501 58.4002 29.401 57.7002 31.201C57.6002 31.201 57.8002 33.601 53.2002 35.001Z" fill="#C0C0C0"/>
<path fill-rule="evenodd" clip-rule="evenodd" d="M48.2002 35.9004C48.2002 35.9004 50.8002 34.7004 53.4002 32.4004C53.4002 32.5004 53.4002 32.5004 53.4002 32.6004L53.2002 35.0004C51.9002 35.4004 50.3002 35.7004 48.2002 35.9004Z" fill="#0099D1"/>
<path fill-rule="evenodd" clip-rule="evenodd" d="M56.5996 28.501C56.7996 28.201 56.9996 27.801 57.0996 27.501C57.1996 27.501 56.9996 27.901 56.5996 28.501Z" fill="#2B2B2B"/>
<path fill-rule="evenodd" clip-rule="evenodd" d="M31 49.301L31.1 46.901L31 49.301ZM36.1 27.701C36.9 27.601 37.9 27.501 38.9 27.501C39.1 27.501 39.4 27.501 39.6 27.501C39.6 27.501 39.5 27.501 39.4 27.501C38.9 27.501 37.6 27.501 36.1 27.701Z" fill="#D9D9D9"/>
<path fill-rule="evenodd" clip-rule="evenodd" d="M31 49.301V46.901C31 46.901 33.5 45.201 34.3 42.601C34.5 42.001 34.7 41.401 34.7 40.701C34.7 40.701 33.9 31.901 32.5 28.501C32.5 28.501 33.9 28.001 36 27.701C37.5 27.501 38.8 27.501 39.3 27.501C39.4 27.501 39.5 27.501 39.5 27.501C39.5 27.501 36.3 30.101 37.3 38.601L36.8 38.701L37.4 39.301C37.6 40.501 37.9 41.901 38.3 43.401C38.3 43.401 38.3 43.601 38.3 43.901L36.9 44.201L38.1 45.401C37.8 46.101 37.2 47.001 36.1 47.601C36.1 47.501 33.7 49.101 31 49.301Z" fill="#C0C0C0"/>
<path fill-rule="evenodd" clip-rule="evenodd" d="M31 46.9006C31 46.9006 33.4 45.2006 34.3 42.6006C33.5 45.2006 31 46.9006 31 46.9006Z" fill="#A3A3A3"/>
<path fill-rule="evenodd" clip-rule="evenodd" d="M37.5004 39.201L36.9004 38.601L37.4004 38.501C37.5004 38.701 37.5004 39.001 37.5004 39.201Z" fill="#2B2B2B"/>
<path fill-rule="evenodd" clip-rule="evenodd" d="M38.1004 45.2002L36.9004 44.0002L38.3004 43.7002C38.4004 44.2002 38.3004 44.7002 38.1004 45.2002Z" fill="#2B2B2B"/>
<path fill-rule="evenodd" clip-rule="evenodd" d="M19.6996 54.8008C19.1996 54.8008 18.6996 54.7008 18.0996 54.6008C18.1996 54.6008 18.7996 54.7008 19.4996 54.7008C20.7996 54.7008 22.6996 54.4008 23.5996 52.7008C23.5996 52.7008 23.6996 52.7008 23.6996 52.6008C22.9996 53.8008 21.7996 54.8008 19.6996 54.8008ZM13.1996 52.1008L12.9996 52.0008C12.9996 52.0008 10.8996 50.8008 10.5996 48.1008C10.7996 49.3008 11.4996 50.8008 13.1996 52.1008ZM24.1996 51.4008C24.3996 50.7008 24.5996 49.8008 24.6996 48.4008C24.6996 49.2008 24.5996 50.3008 24.1996 51.4008ZM10.6996 45.9008C10.6996 45.8008 10.6996 45.8008 10.6996 45.8008C10.7996 45.8008 10.6996 45.8008 10.6996 45.9008Z" fill="#D9D9D9"/>
<path fill-rule="evenodd" clip-rule="evenodd" d="M19.4999 54.7006C18.7999 54.7006 18.1999 54.6006 18.0999 54.6006L13.2999 52.2006C11.4999 50.9006 10.7999 49.4006 10.5999 48.2006C10.4999 47.5006 10.4999 46.8006 10.6999 46.0006C10.6999 45.9006 10.6999 45.9006 10.6999 45.9006L15.3999 49.8006C15.6999 50.1006 16.0999 50.2006 16.3999 50.2006C16.8999 50.2006 17.2999 50.0006 17.5999 49.6006C18.1999 48.9006 18.0999 47.9006 17.3999 47.4006L17.0999 47.2006C19.0999 47.1006 20.9999 46.3006 21.6999 44.1006L21.7999 44.2006C22.5999 45.3006 23.3999 46.3006 24.2999 47.1006L24.5999 47.4006C24.5999 47.4006 24.6999 47.9006 24.5999 48.5006C24.4999 49.9006 24.2999 50.9006 24.0999 51.5006C23.9999 51.9006 23.7999 52.3006 23.5999 52.7006C23.4999 52.8006 23.4999 52.8006 23.4999 52.8006C22.5999 54.4006 20.7999 54.7006 19.4999 54.7006Z" fill="#C0C0C0"/>
<path fill-rule="evenodd" clip-rule="evenodd" d="M24.4004 46.901C23.6004 46.101 22.7004 45.101 21.9004 44.001L24.4004 46.901Z" fill="#A3A3A3"/>
<path fill-rule="evenodd" clip-rule="evenodd" d="M16.4998 50.1008C16.0998 50.1008 15.7998 50.0008 15.4998 49.7008L10.7998 45.8008C10.8998 45.8008 13.8998 47.1008 16.8998 47.1008C16.9998 47.1008 17.1998 47.1008 17.3998 47.1008L17.6998 47.3008C18.3998 47.9008 18.4998 48.9008 17.8998 49.5008C17.3998 49.9008 16.9998 50.1008 16.4998 50.1008Z" fill="#2B2B2B"/>
</svg>
