<svg width="97" height="97" viewBox="0 0 97 97" fill="none" xmlns="http://www.w3.org/2000/svg">
<path fill-rule="evenodd" clip-rule="evenodd" d="M48.5 0.300781C74.9 0.300781 96.3999 21.8008 96.3999 48.2008C96.3999 74.7008 75 96.1008 48.5 96.1008C22 96.1008 0.599957 74.7008 0.599957 48.2008C0.499957 21.8008 22 0.300781 48.5 0.300781Z" fill="white" fill-opacity="0.8"/>
<path fill-rule="evenodd" clip-rule="evenodd" d="M24.2 65.1006L23.5 65.8006C23.5 65.8006 24.2 69.7006 28.1 71.4006L28.6 70.7006L24.2 65.1006Z" fill="#333333"/>
<path fill-rule="evenodd" clip-rule="evenodd" d="M33.2999 59.7003L29.0999 58.2003C27.0999 57.4003 26.8999 53.5003 27.6999 51.5003L29.8999 47.0003C30.6999 45.0003 34.1999 44.4003 36.0999 45.2003L37.6999 46.8003C39.5999 47.6003 40.5999 49.8003 39.7999 51.7003L38.1999 55.7003C37.4999 57.7003 35.1999 60.5003 33.2999 59.7003Z" fill="#7F7E7C"/>
<path fill-rule="evenodd" clip-rule="evenodd" d="M33.3002 58.6005L29.8002 57.4005C28.2002 56.7005 28.0002 53.4005 28.6002 51.7005L30.5002 47.9005C31.2002 46.3005 34.2002 45.7005 35.8002 46.3005L37.1002 47.7005C38.7002 48.4005 39.6002 50.3005 38.9002 51.9005L37.6002 55.3005C36.9002 56.9005 35.0002 59.2005 33.3002 58.6005Z" fill="#333333"/>
<path fill-rule="evenodd" clip-rule="evenodd" d="M38.8997 44.9001L33.0998 38.6002C32.0998 37.5002 32.0998 35.7002 33.2998 34.6002C34.4998 33.5002 36.1998 33.6001 37.2998 34.8001L43.0998 41.1002C44.0998 42.2002 44.0997 44.0002 42.8997 45.1002C41.6997 46.1002 39.8997 46.1001 38.8997 44.9001Z" fill="#333333"/>
<path fill-rule="evenodd" clip-rule="evenodd" d="M39.2003 32.2005H45.1003C45.1003 32.2005 50.7003 34.6005 50.4003 40.4005C50.4003 40.4005 50.9003 43.2005 48.1003 46.4005C48.1003 46.4005 45.5003 49.1005 45.7003 55.4005C45.7003 55.4005 42.3003 66.1005 29.2003 71.1005C29.2003 71.1005 24.2003 68.3005 24.3003 64.8005C24.3003 64.8005 31.2003 59.3005 34.3003 53.1005L35.8003 45.5005V35.1005C35.7003 35.1005 36.8003 31.9005 39.2003 32.2005Z" fill="#E2E2E2"/>
<path fill-rule="evenodd" clip-rule="evenodd" d="M47.2 33.4002H30.8C29.8 33.4002 29 32.6002 29 31.6002V27.0002C29 26.0002 29.8 25.2002 30.8 25.2002H45.4C46.4 25.2002 47.2 26.0002 47.2 27.0002V31.5002C47.2 32.6002 47.2 33.4002 47.2 33.4002Z" fill="#333333"/>
<path fill-rule="evenodd" clip-rule="evenodd" d="M35.3999 58.7997C31.2999 61.6997 29.4999 66.3998 31.4999 69.0998C31.6999 69.3998 31.8999 69.5997 32.0999 69.7997C39.8999 65.8997 43.4999 59.9998 44.8999 57.1998C42.4999 55.8998 38.6999 56.4997 35.3999 58.7997Z" fill="#00AEEF"/>
<path fill-rule="evenodd" clip-rule="evenodd" d="M42.4002 54.2998C39.7002 54.3998 36.8002 55.3998 34.3002 57.1998C29.0002 60.9998 26.8002 66.9998 29.3002 70.5998C29.4002 70.6998 29.4002 70.7998 29.5002 70.8998C29.8002 70.7998 30.0002 70.6998 30.2002 70.5998C30.1002 70.4998 30.0002 70.2998 29.9002 70.1998C27.6002 66.8998 29.7002 61.2998 34.7002 57.7998C37.1002 56.0998 39.9002 55.0998 42.4002 55.0998C42.5002 55.0998 42.5002 55.0998 42.6002 55.0998C43.7002 55.0998 44.6002 55.2998 45.5002 55.5998C45.5002 55.4998 45.6002 55.4998 45.6002 55.4998C45.6002 55.2998 45.6002 55.0998 45.6002 54.8998C44.7002 54.3998 43.6002 54.2998 42.4002 54.2998Z" fill="#00AEEF"/>
<path fill-rule="evenodd" clip-rule="evenodd" d="M50.4004 40.4002C50.5004 38.2002 49.8004 36.5002 48.9004 35.2002C46.8004 35.4002 45.1004 38.0002 45.0004 41.2002C44.9004 43.9002 46.0004 46.2002 47.6004 47.1002C47.9004 46.6002 48.1004 46.4002 48.1004 46.4002C50.9004 43.2002 50.4004 40.4002 50.4004 40.4002Z" fill="#00AEEF"/>
<path fill-rule="evenodd" clip-rule="evenodd" d="M45.4004 46.3998C44.5004 44.9998 44.0004 43.0998 44.1004 41.0998C44.2004 37.6998 45.8004 34.8998 47.9004 34.0998C47.8004 33.9998 47.6004 33.8998 47.5004 33.7998C45.4004 34.7998 43.7004 37.6998 43.6004 41.0998C43.5004 43.1998 44.0004 45.1998 45.0004 46.6998C45.5004 47.4998 46.1004 48.0998 46.7004 48.4998C46.8004 48.2998 46.8004 48.1998 46.9004 47.9998C46.4004 47.6998 45.9004 47.0998 45.4004 46.3998Z" fill="#00AEEF"/>
<path fill-rule="evenodd" clip-rule="evenodd" d="M35.7002 35.1006V45.5006L42.8002 52.0006L35.7002 35.1006Z" fill="#00AEEF"/>
<path fill-rule="evenodd" clip-rule="evenodd" d="M36.9998 27.9004C36.0998 27.9004 35.2998 28.7004 35.2998 29.6004C35.2998 30.5004 35.9998 31.3004 36.9998 31.3004H47.0998V27.9004H36.9998Z" fill="#7F7E7C"/>
<path fill-rule="evenodd" clip-rule="evenodd" d="M37.9002 29.5998C37.9002 30.0998 37.5002 30.3998 37.1002 30.3998C36.6002 30.3998 36.2002 29.9998 36.2002 29.5998C36.2002 29.1998 36.6002 28.7998 37.1002 28.7998C37.6002 28.7998 37.9002 29.1998 37.9002 29.5998Z" fill="#E2E2E2"/>
<path fill-rule="evenodd" clip-rule="evenodd" d="M29.1001 71.0998C29.1001 71.0998 27.9001 70.1998 28.0001 66.6998C28.0001 66.6998 28.1001 66.5998 28.3001 66.4998C28.2001 67.9998 28.5001 69.4998 29.3001 70.6998C29.4001 70.7998 29.4001 70.8998 29.5001 70.9998C29.8001 70.8998 30.0001 70.7998 30.2001 70.6998C30.1001 70.5998 30.0001 70.3998 29.9001 70.2998C29.0001 69.0998 28.8001 67.5998 29.0001 65.9998C29.5001 65.6998 30.1001 65.1998 30.8001 64.6998C30.3001 66.2998 30.5001 67.8998 31.3001 69.1998C31.5001 69.4998 31.7001 69.6998 31.9001 69.8998C39.7001 65.9998 43.3001 60.0998 44.7001 57.2998C43.9001 56.8998 42.9001 56.5998 41.8001 56.5998C41.0001 56.5998 40.2001 56.6998 39.4001 56.8998C39.8001 56.3998 40.2001 55.8998 40.5001 55.2998C41.1001 55.1998 41.7001 55.0998 42.3001 55.0998C42.4001 55.0998 42.4001 55.0998 42.5001 55.0998C43.6001 55.0998 44.5001 55.2998 45.4001 55.5998C45.1001 56.7998 41.3001 66.3998 29.1001 71.0998ZM45.6001 55.4998C45.6001 55.3998 45.7001 55.3998 45.7001 55.3998C45.6001 55.3998 45.6001 55.3998 45.6001 55.4998ZM45.6001 54.7998C44.7001 54.4998 43.7001 54.2998 42.7001 54.2998C42.6001 54.2998 42.5001 54.2998 42.4001 54.2998C42.0001 54.2998 41.5001 54.2998 41.1001 54.3998C41.1001 54.2998 41.2001 54.2998 41.2001 54.2998L41.8001 51.0998L42.8001 51.9998L42.0001 50.0998L42.9001 44.9998C42.9001 44.9998 43.4001 44.6998 44.0001 44.2998C44.2001 45.1998 44.6001 45.9998 45.0001 46.6998C45.5001 47.4998 46.1001 48.0998 46.7001 48.4998C46.2001 49.7998 45.6001 51.8998 45.6001 54.7998Z" fill="#C0C0C0"/>
<path fill-rule="evenodd" clip-rule="evenodd" d="M32.0996 69.6998C31.8996 69.4998 31.6996 69.2998 31.4996 68.9998C30.5996 67.7998 30.4996 66.1998 30.9996 64.4998C33.5996 62.6998 37.1996 59.7998 39.5996 56.5998C40.3996 56.3998 41.1996 56.2998 41.9996 56.2998C43.0996 56.2998 44.0995 56.4998 44.8995 56.9998C43.4995 59.9998 39.8996 65.7998 32.0996 69.6998Z" fill="#0099D1"/>
<path fill-rule="evenodd" clip-rule="evenodd" d="M29.6001 70.8998C29.5001 70.7998 29.5 70.6998 29.4 70.5998C28.5 69.3998 28.2 67.9998 28.4 66.3998C28.6 66.2998 28.9 66.0998 29.2 65.8998C28.9 67.4998 29.2001 68.9998 30.1001 70.1998C30.2001 70.2998 30.3 70.4998 30.4 70.5998C30.1 70.6998 29.8001 70.7998 29.6001 70.8998ZM45.6001 55.4998C44.8001 55.1998 43.8 54.9998 42.7 54.9998C42.6 54.9998 42.5 54.9998 42.5 54.9998C41.9 54.9998 41.3 55.0998 40.7 55.1998C40.9 54.8998 41 54.6998 41.2 54.3998C41.7 54.2998 42.1 54.2998 42.5 54.2998C42.6 54.2998 42.7001 54.2998 42.8001 54.2998C43.9001 54.2998 44.8 54.3998 45.7 54.7998C45.7 54.9998 45.7 55.1998 45.7 55.3998C45.6 55.3998 45.6001 55.4998 45.6001 55.4998Z" fill="#0099D1"/>
<path fill-rule="evenodd" clip-rule="evenodd" d="M47.0004 47.9998C46.4004 47.5998 45.9004 47.0998 45.4004 46.3998C44.9004 45.6998 44.6004 44.7998 44.4004 43.8998C44.6004 43.6998 44.9004 43.4998 45.1004 43.2998C45.5004 44.9998 46.4004 46.2998 47.5004 46.9998C47.4004 47.2998 47.2004 47.5998 47.0004 47.9998Z" fill="#C0C0C0"/>
<path fill-rule="evenodd" clip-rule="evenodd" d="M50.4004 39.4006V39.3006C50.3004 38.5006 50.2004 37.8006 49.9004 37.1006C50.2004 37.7006 50.4004 38.5006 50.4004 39.4006Z" fill="#D9D9D9"/>
<path fill-rule="evenodd" clip-rule="evenodd" d="M50.4003 39.2004C50.3003 37.5004 49.6003 36.2004 48.9003 35.1004C47.9003 35.2004 46.9003 35.9004 46.2003 36.9004C46.0003 36.6004 45.9003 36.3004 45.7003 36.0004C46.3003 35.1004 47.1003 34.4004 48.0003 34.1004C47.9003 34.0004 47.7003 33.9004 47.6003 33.8004C46.8003 34.1004 46.1003 34.8004 45.5003 35.6004C44.9003 34.6004 44.5003 33.8004 44.8003 33.5004V33.4004H47.2003C48.2003 34.2004 49.3003 35.4004 50.0003 37.0004C50.2003 37.7004 50.3003 38.5004 50.4003 39.2004Z" fill="#C0C0C0"/>
<path fill-rule="evenodd" clip-rule="evenodd" d="M47.2 33.4002H44.8L44.1 31.3002H47.2V31.6002C47.2 32.6002 47.2 33.4002 47.2 33.4002ZM47.2 27.9002H43C42.9 27.6002 42.9 27.2002 42.9 27.0002H29C29 26.0002 29.8 25.2002 30.8 25.2002H45.4C46.4 25.2002 47.2 26.0002 47.2 27.0002V27.9002V27.9002Z" fill="#2B2B2B"/>
<path fill-rule="evenodd" clip-rule="evenodd" d="M47.4996 47.0006C46.3996 46.4006 45.4996 45.0006 45.0996 43.3006C46.2996 42.3006 47.4996 41.1006 47.3996 40.3006C47.1996 39.1006 46.6996 37.9006 46.1996 36.9006C46.8996 35.9006 47.7996 35.2006 48.8996 35.1006C49.6996 36.1006 50.2996 37.5006 50.3996 39.2006C50.3996 39.3006 50.3996 39.3006 50.3996 39.3006C50.3996 39.6006 50.3996 40.0006 50.3996 40.3006C50.3996 40.3006 50.8996 42.9006 48.3996 45.9006C48.2996 46.0006 48.0996 46.2006 47.9996 46.3006C48.0996 46.4006 47.8996 46.6006 47.4996 47.0006Z" fill="#0099D1"/>
<path fill-rule="evenodd" clip-rule="evenodd" d="M46.7996 48.4998C46.0996 48.0998 45.5996 47.4998 45.0996 46.6998C44.5996 45.9998 44.2996 45.1998 44.0996 44.2998C44.1996 44.1998 44.3996 44.0998 44.4996 43.9998C44.6996 44.8998 44.9996 45.6998 45.4996 46.4998C45.9996 47.1998 46.4996 47.6998 47.0996 48.0998C46.8996 48.1998 46.8996 48.2998 46.7996 48.4998ZM45.6996 36.0998C45.5996 35.8998 45.4996 35.7998 45.3996 35.5998C45.9996 34.7998 46.6996 34.0998 47.4996 33.7998C47.5996 33.8998 47.7996 33.9998 47.8996 34.0998C47.0996 34.4998 46.2996 35.1998 45.6996 36.0998Z" fill="#0099D1"/>
<path fill-rule="evenodd" clip-rule="evenodd" d="M42.7998 52.0006L41.7998 51.1006L41.9998 50.1006L42.7998 52.0006Z" fill="#0099D1"/>
<path fill-rule="evenodd" clip-rule="evenodd" d="M47.2004 31.3004H44.0004L43.9004 31.0004C43.9004 31.0004 43.2004 29.2004 42.9004 27.9004H47.1004V31.3004H47.2004Z" fill="#6C6B6A"/>
<path fill-rule="evenodd" clip-rule="evenodd" d="M47.1004 65.1006L46.4004 65.8006C46.4004 65.8006 47.1004 69.7006 51.0004 71.4006L51.5004 70.7006L47.1004 65.1006Z" fill="#333333"/>
<path fill-rule="evenodd" clip-rule="evenodd" d="M56.1003 59.7003L51.9003 58.2003C50.0003 57.4003 49.8003 53.5003 50.5003 51.5003L52.7003 47.0003C53.5003 45.0003 57.0003 44.4003 59.0003 45.2003L60.6003 46.8003C62.6003 47.6003 63.5003 49.8003 62.7003 51.7003L61.1003 55.7003C60.4003 57.7003 58.0003 60.5003 56.1003 59.7003Z" fill="#7F7E7C"/>
<path fill-rule="evenodd" clip-rule="evenodd" d="M56.1996 58.6005L52.6996 57.4005C51.0996 56.7005 50.8996 53.4005 51.4996 51.7005L53.3996 47.9005C54.0996 46.3005 57.0996 45.7005 58.6996 46.3005L59.9996 47.7005C61.5996 48.4005 62.4996 50.3005 61.7996 51.9005L60.3996 55.3005C59.7996 56.9005 57.7996 59.2005 56.1996 58.6005Z" fill="#333333"/>
<path fill-rule="evenodd" clip-rule="evenodd" d="M61.7001 44.8997L55.9001 38.5998C54.9001 37.4998 54.9001 35.6998 56.0001 34.5998C57.1001 33.5998 58.9001 33.5997 60.0001 34.7997L65.8001 41.0998C66.8001 42.1998 66.8001 43.9998 65.7001 45.0998C64.6001 46.0998 62.8001 46.0997 61.7001 44.8997Z" fill="#333333"/>
<path fill-rule="evenodd" clip-rule="evenodd" d="M62.1001 32.2005H68.0001C68.0001 32.2005 73.6001 34.6005 73.3001 40.4005C73.3001 40.4005 73.8001 43.2005 70.9001 46.4005C70.9001 46.4005 68.3001 49.1005 68.5001 55.4005C68.5001 55.4005 65.1001 66.1005 52.0001 71.1005C52.0001 71.1005 47.0001 68.3005 47.1001 64.8005C47.1001 64.8005 54.0001 59.3005 57.2001 53.1005L58.6001 45.5005V35.1005C58.5001 35.1005 59.7001 31.9005 62.1001 32.2005Z" fill="#E2E2E2"/>
<path fill-rule="evenodd" clip-rule="evenodd" d="M69.9998 33.4002H53.5998C52.5998 33.4002 51.7998 32.6002 51.7998 31.6002V27.0002C51.7998 26.0002 52.5998 25.2002 53.5998 25.2002H68.1998C69.1998 25.2002 69.9998 26.0002 69.9998 27.0002V31.5002C69.9998 32.6002 69.9998 33.4002 69.9998 33.4002Z" fill="#333333"/>
<path fill-rule="evenodd" clip-rule="evenodd" d="M58.3003 58.7997C54.2003 61.6997 52.4002 66.3998 54.4002 69.0998C54.6002 69.3998 54.7003 69.5997 55.0003 69.7997C62.8003 65.8997 66.4003 59.9998 67.8003 57.1998C65.3003 55.8998 61.6003 56.4997 58.3003 58.7997Z" fill="#00AEEF"/>
<path fill-rule="evenodd" clip-rule="evenodd" d="M65.2996 54.2998C62.5996 54.3998 59.7996 55.3998 57.1996 57.1998C51.8996 60.9998 49.6996 66.9998 52.1996 70.5998C52.2996 70.6998 52.2996 70.7998 52.3996 70.8998C52.5996 70.7998 52.8996 70.6998 53.0996 70.5998C52.9996 70.4998 52.8996 70.2998 52.7996 70.1998C50.4996 66.8998 52.5996 61.2998 57.5996 57.7998C59.9996 56.0998 62.7996 55.0998 65.2996 55.0998C65.3996 55.0998 65.4996 55.0998 65.4996 55.0998C66.5996 55.0998 67.4996 55.2998 68.3996 55.5998C68.3996 55.4998 68.3996 55.4998 68.3996 55.4998C68.3996 55.2998 68.3996 55.0998 68.3996 54.8998C67.4996 54.3998 66.4996 54.2998 65.2996 54.2998Z" fill="#00AEEF"/>
<path fill-rule="evenodd" clip-rule="evenodd" d="M73.3002 40.4002C73.4002 38.2002 72.7003 36.5002 71.7003 35.2002C69.6003 35.4002 67.9002 38.0002 67.8002 41.2002C67.7002 43.9002 68.8002 46.2002 70.4002 47.1002C70.7002 46.6002 70.9002 46.4002 70.9002 46.4002C73.7002 43.2002 73.3002 40.4002 73.3002 40.4002Z" fill="#00AEEF"/>
<path fill-rule="evenodd" clip-rule="evenodd" d="M68.2999 46.3998C67.3999 44.9998 66.8999 43.0998 66.9999 41.0998C67.0999 37.6998 68.6999 34.8998 70.7999 34.0998C70.6999 33.9998 70.4999 33.8998 70.3999 33.7998C68.1999 34.7998 66.5999 37.6998 66.4999 41.0998C66.3999 43.1998 66.8999 45.1998 67.8999 46.6998C68.3999 47.4998 68.9999 48.0998 69.6999 48.4998C69.7999 48.2998 69.7999 48.1998 69.8999 47.9998C69.2999 47.6998 68.7999 47.0998 68.2999 46.3998Z" fill="#00AEEF"/>
<path fill-rule="evenodd" clip-rule="evenodd" d="M58.5 35.1006V45.5006L65.7 52.0006L58.5 35.1006Z" fill="#00AEEF"/>
<path fill-rule="evenodd" clip-rule="evenodd" d="M59.9002 27.9004C59.0002 27.9004 58.2002 28.7004 58.2002 29.6004C58.2002 30.5004 59.0002 31.3004 59.9002 31.3004H70.0002V27.9004H59.9002Z" fill="#7F7E7C"/>
<path fill-rule="evenodd" clip-rule="evenodd" d="M60.8002 29.5998C60.8002 30.0998 60.4002 30.3998 60.0002 30.3998C59.5002 30.3998 59.2002 29.9998 59.2002 29.5998C59.2002 29.1998 59.6002 28.7998 60.0002 28.7998C60.4002 28.7998 60.8002 29.1998 60.8002 29.5998Z" fill="#E2E2E2"/>
<path fill-rule="evenodd" clip-rule="evenodd" d="M51.8999 71.0998C51.8999 71.0998 50.6999 70.1998 50.7999 66.6998C50.7999 66.6998 50.8999 66.5998 51.1999 66.4998C51.0999 67.9998 51.3999 69.4998 52.1999 70.6998C52.2999 70.7998 52.2999 70.8998 52.3999 70.9998C52.5999 70.8998 52.8999 70.7998 53.0999 70.6998C52.9999 70.5998 52.8999 70.3998 52.7999 70.2998C51.9999 69.0998 51.6999 67.5998 51.8999 65.9998C52.3999 65.6998 52.9999 65.1998 53.6999 64.6998C53.1999 66.2998 53.3999 67.8998 54.2999 69.1998C54.4999 69.4998 54.5999 69.6998 54.8999 69.8998C62.6999 65.9998 66.2999 60.0998 67.6999 57.2998C66.7999 56.8998 65.8999 56.5998 64.7999 56.5998C63.9999 56.5998 63.1999 56.6998 62.3999 56.8998C62.7999 56.3998 63.1999 55.8998 63.4999 55.2998C64.0999 55.1998 64.6999 55.0998 65.2999 55.0998C65.3999 55.0998 65.4999 55.0998 65.4999 55.0998C66.5999 55.0998 67.4999 55.2998 68.3999 55.5998C67.9999 56.7998 64.1999 66.3998 51.8999 71.0998ZM68.3999 55.4998C68.3999 55.3998 68.3999 55.3998 68.3999 55.3998C68.4999 55.3998 68.4999 55.4998 68.3999 55.4998ZM68.4999 54.7998C67.5999 54.4998 66.6999 54.2998 65.5999 54.2998C65.4999 54.2998 65.3999 54.2998 65.2999 54.2998C64.8999 54.2998 64.3999 54.2998 63.9999 54.3998C63.9999 54.2998 63.9999 54.2998 64.0999 54.2998L64.6999 51.0998L65.6999 51.9998L64.8999 50.0998L65.7999 44.9998C65.7999 44.9998 66.2999 44.6998 66.8999 44.2998C67.0999 45.1998 67.4999 45.9998 67.8999 46.6998C68.3999 47.4998 68.9999 48.0998 69.6999 48.4998C69.0999 49.7998 68.4999 51.8998 68.4999 54.7998Z" fill="#C0C0C0"/>
<path fill-rule="evenodd" clip-rule="evenodd" d="M54.9002 69.6998C54.7002 69.4998 54.5002 69.2998 54.3002 68.9998C53.4002 67.7998 53.3002 66.1998 53.7002 64.4998C56.3002 62.6998 59.9002 59.7998 62.3002 56.5998C63.1002 56.3998 63.9002 56.2998 64.7002 56.2998C65.8002 56.2998 66.8002 56.4998 67.6002 56.9998C66.3002 59.9998 62.7002 65.7998 54.9002 69.6998Z" fill="#0099D1"/>
<path fill-rule="evenodd" clip-rule="evenodd" d="M52.5 70.8998C52.4 70.7998 52.4 70.6998 52.3 70.5998C51.5 69.3998 51.1 67.9998 51.3 66.3998C51.5 66.2998 51.8 66.0998 52.1 65.8998C51.9 67.4998 52.1 68.9998 53 70.1998C53.1 70.2998 53.2 70.4998 53.3 70.5998C52.9 70.6998 52.7 70.7998 52.5 70.8998ZM68.4 55.4998C67.5 55.1998 66.6 54.9998 65.5 54.9998C65.4 54.9998 65.4 54.9998 65.3 54.9998C64.7 54.9998 64.1 55.0998 63.5 55.1998C63.7 54.8998 63.8 54.6998 64 54.3998C64.4 54.2998 64.9 54.2998 65.3 54.2998C65.4 54.2998 65.5 54.2998 65.6 54.2998C66.7 54.2998 67.6 54.3998 68.5 54.7998C68.5 54.9998 68.5 55.1998 68.5 55.3998C68.5 55.3998 68.5 55.4998 68.4 55.4998Z" fill="#0099D1"/>
<path fill-rule="evenodd" clip-rule="evenodd" d="M69.9004 47.9998C69.3004 47.5998 68.8004 47.0998 68.4004 46.3998C67.9004 45.6998 67.6004 44.7998 67.4004 43.8998C67.6004 43.6998 67.9004 43.4998 68.1004 43.2998C68.5004 44.9998 69.4004 46.2998 70.5004 46.9998C70.3004 47.2998 70.1004 47.5998 69.9004 47.9998Z" fill="#C0C0C0"/>
<path fill-rule="evenodd" clip-rule="evenodd" d="M70.9004 46.4004C73.0004 44.0004 73.3004 41.9004 73.3004 40.9004C73.3004 40.6004 73.3004 40.4004 73.3004 40.4004C73.3004 40.6004 73.6004 43.3004 70.9004 46.4004Z" fill="#D9D9D9"/>
<path fill-rule="evenodd" clip-rule="evenodd" d="M73.2998 40.2006C73.2998 40.1006 73.2998 40.1006 73.2998 40.2006C73.2998 40.1006 73.2998 40.1006 73.2998 40.2006ZM73.2998 40.1006C73.2998 40.1006 73.2998 40.0006 73.2998 40.1006C73.2998 40.0006 73.2998 40.1006 73.2998 40.1006ZM73.2998 40.0006C73.2998 38.9006 73.0998 37.9006 72.7998 37.1006C73.0998 37.9006 73.2998 38.9006 73.2998 40.0006Z" fill="#D9D9D9"/>
<path fill-rule="evenodd" clip-rule="evenodd" d="M73.3 40.2C73.4 38.1 72.7001 36.5 71.7001 35.2C70.7001 35.3 69.7001 36 69.1001 37C68.9001 36.7 68.8001 36.4 68.6001 36.1C69.2001 35.2 70 34.5 70.8 34.2C70.7 34.1 70.5001 34 70.4001 33.9C69.6001 34.2 68.9001 34.9 68.3001 35.7C67.7001 34.7 67.3001 33.9 67.6001 33.6L67.5001 33.5H69.9001C70.9001 34.3 72.1001 35.5 72.7001 37.2C73.0001 38.1 73.2001 39 73.2001 40.1C73.3001 40 73.3 40.1 73.3 40.2C73.3 40.1 73.3 40.1 73.3 40.2C73.3 40.1 73.3 40.1 73.3 40.2Z" fill="#C0C0C0"/>
<path fill-rule="evenodd" clip-rule="evenodd" d="M70.0004 33.3998H67.6004L66.9004 31.2998H70.0004V31.5998C70.0004 32.5998 70.0004 33.3998 70.0004 33.3998Z" fill="#2B2B2B"/>
<path fill-rule="evenodd" clip-rule="evenodd" d="M70.4 47.0006C69.3 46.4006 68.4 45.0006 68 43.3006C69.2 42.3006 70.4 41.1006 70.3 40.3006C70.1 39.1006 69.6 37.9006 69.1 36.9006C69.8 35.9006 70.7 35.2006 71.7 35.1006C72.6 36.3006 73.3 38.0006 73.3 40.1006C73.3 40.1006 73.3 40.3006 73.3 40.6006C73.3 41.5006 73 43.7006 70.9 46.1006C70.9 46.4006 70.7 46.6006 70.4 47.0006Z" fill="#0099D1"/>
<path fill-rule="evenodd" clip-rule="evenodd" d="M69.7004 48.4998C69.0004 48.0998 68.5004 47.4998 67.9004 46.6998C67.4004 45.9998 67.1004 45.1998 66.9004 44.2998C67.0004 44.1998 67.2004 44.0998 67.3004 43.9998C67.5004 44.8998 67.9004 45.6998 68.3004 46.4998C68.7004 47.1998 69.3004 47.6998 69.8004 48.0998C69.8004 48.1998 69.7004 48.2998 69.7004 48.4998ZM68.6004 36.0998C68.5004 35.8998 68.4004 35.7998 68.3004 35.5998C68.9004 34.7998 69.6004 34.0998 70.4004 33.7998C70.5004 33.8998 70.7004 33.9998 70.8004 34.0998C69.9004 34.4998 69.2004 35.1998 68.6004 36.0998Z" fill="#0099D1"/>
<path fill-rule="evenodd" clip-rule="evenodd" d="M65.7002 52.0006L64.7002 51.1006L64.8002 50.1006L65.7002 52.0006Z" fill="#0099D1"/>
<path fill-rule="evenodd" clip-rule="evenodd" d="M69.9998 27.9002H65.7998C65.6998 27.6002 65.6998 27.2002 65.6998 27.0002H51.7998C51.7998 26.0002 52.5998 25.2002 53.5998 25.2002H68.1998C69.1998 25.2002 69.9998 26.0002 69.9998 27.0002V27.9002Z" fill="#2B2B2B"/>
<path fill-rule="evenodd" clip-rule="evenodd" d="M69.9998 31.3004H66.8998L66.7998 31.0004C66.7998 31.0004 66.0998 29.2004 65.7998 27.9004H69.9998V31.3004Z" fill="#6C6B6A"/>
</svg>
