<svg width="97" height="96" viewBox="0 0 97 96" fill="none" xmlns="http://www.w3.org/2000/svg">
<path fill-rule="evenodd" clip-rule="evenodd" d="M48.4996 0C74.8996 0 96.3997 21.5 96.3997 47.9C96.3997 74.3 74.8996 95.8 48.4996 95.8C22.0996 95.8 0.599609 74.3 0.599609 47.9C0.599609 21.4 22.0996 0 48.4996 0Z" fill="white" fill-opacity="0.8"/>
<path fill-rule="evenodd" clip-rule="evenodd" d="M41.8002 73.3C41.8002 73.3 39.4002 73.7 38.6002 73.7C37.9002 73.7 35.6002 73.3 35.6002 73.3L34.2002 61H43.1002L41.8002 73.3Z" fill="#0099D1"/>
<path fill-rule="evenodd" clip-rule="evenodd" d="M43.9001 65.6C43.9001 65.6 40.0001 66.7 38.7001 66.7C37.4001 66.7 33.5001 65.6 33.5001 65.6C33.5001 65.6 26.7 30.1 31.1 22C31.1 22 36.6001 22.5 38.4001 22.5C40.4001 22.5 46.2001 22 46.2001 22C50.2001 31.1 43.9001 65.6 43.9001 65.6Z" fill="#00AEEF"/>
<path fill-rule="evenodd" clip-rule="evenodd" d="M47.4 27.2002C47.3 25.9002 47.1 24.7002 46.8 23.7002C41.4 23.9002 36 23.9002 30.6 23.7002C30.3 24.7002 30.1 25.9002 30 27.2002C35.8 27.4002 41.5 27.4002 47.4 27.2002Z" fill="#EFEFEF"/>
<path fill-rule="evenodd" clip-rule="evenodd" d="M47.5002 29.4004C41.6002 29.6004 35.7002 29.6004 29.8002 29.4004C29.7002 30.5004 29.7002 31.7004 29.7002 32.9004C35.7002 33.1004 41.6002 33.2004 47.6002 32.9004C47.6002 31.6004 47.5002 30.5004 47.5002 29.4004Z" fill="#EFEFEF"/>
<path fill-rule="evenodd" clip-rule="evenodd" d="M35.6 72.7004H41.9L42 71.9004H35.5L35.6 72.7004Z" fill="#EFEFEF"/>
<path fill-rule="evenodd" clip-rule="evenodd" d="M42.1998 70.2002H35.2998L35.3998 71.0002H42.0998L42.1998 70.2002Z" fill="#EFEFEF"/>
<path fill-rule="evenodd" clip-rule="evenodd" d="M35.7004 73.3006L34.9004 65.9006L35.6003 71.8006V72.0006L35.7004 73.3006ZM46.7004 23.3006C46.6004 22.8006 46.4004 22.4006 46.2004 22.1006C46.2004 22.1006 40.4004 22.6006 38.5004 22.6006C38.3004 22.6006 38.0003 22.6006 37.6003 22.6006H38.5004C40.5004 22.6006 46.2004 22.1006 46.2004 22.1006C46.4004 22.4006 46.6004 22.8006 46.7004 23.3006Z" fill="#D9D9D9"/>
<path fill-rule="evenodd" clip-rule="evenodd" d="M38.6003 73.7004C37.9003 73.7004 35.8004 73.3004 35.7004 73.3004L35.6003 72.1003L35.7004 72.7004H42.0004L41.9004 73.4004C41.8004 73.3004 39.4003 73.7004 38.6003 73.7004ZM42.0004 71.9004H35.6003L34.9004 66.0004C35.0004 66.3004 35.5004 68.8004 36.7004 70.2004H35.3004L35.4004 71.0004H37.7004C37.9004 71.1004 38.1004 71.1003 38.4004 71.1003C38.6004 71.1003 38.9003 71.1004 39.1003 71.0004H42.1003L42.0004 71.9004ZM42.2004 70.2004H39.8004C40.2004 69.5004 40.7004 68.4004 40.9004 66.4004C41.6004 66.3004 42.2004 66.1004 42.7004 65.9004L42.2004 70.2004Z" fill="#057DBB"/>
<path fill-rule="evenodd" clip-rule="evenodd" d="M40.7998 66.4004C40.8998 65.7004 40.8998 65.0004 40.8998 64.0004C40.8998 64.0004 42.2998 47.2004 39.9998 33.0004C42.4998 33.0004 44.9998 32.9004 47.4998 32.9004C47.3998 46.4004 43.8998 65.6003 43.8998 65.6003C43.8998 65.6003 43.3998 65.8004 42.5998 66.0004C42.0998 66.1004 41.4998 66.3004 40.7998 66.4004ZM39.3998 29.5004C39.1998 28.8004 39.0998 28.0004 38.8998 27.3004H38.9998C41.6998 27.3004 44.4998 27.2004 47.2998 27.2004C47.3998 27.9004 47.3998 28.6004 47.3998 29.4004C44.7998 29.5004 42.0998 29.5004 39.3998 29.5004ZM47.0998 24.8004C46.9998 24.4004 46.8998 24.0003 46.7998 23.6003C44.1998 23.7003 41.6998 23.7004 39.0998 23.7004C38.6998 23.7004 38.1998 23.7004 37.7998 23.7004C37.6998 23.2004 37.4998 22.8004 37.2998 22.4004H37.5998C37.8998 22.4004 38.1998 22.4004 38.4998 22.4004C40.4998 22.4004 46.1998 21.9004 46.1998 21.9004C46.3998 22.3004 46.4998 22.7003 46.6998 23.1003C46.7998 23.8003 46.9998 24.3004 47.0998 24.8004Z" fill="#008DD2"/>
<path fill-rule="evenodd" clip-rule="evenodd" d="M39.1003 27.3002C39.0003 27.3002 39.0004 27.3002 39.0004 27.3002C38.7004 26.1002 38.3004 24.9002 37.9004 23.8002C38.3004 23.8002 38.8004 23.8002 39.2004 23.8002C41.8004 23.8002 44.3004 23.7002 46.9004 23.7002C47.0004 24.1002 47.1004 24.5002 47.2004 24.9002C47.3004 25.6002 47.4004 26.4002 47.5004 27.3002C44.6004 27.3002 41.8003 27.3002 39.1003 27.3002Z" fill="#CBCBCB"/>
<path fill-rule="evenodd" clip-rule="evenodd" d="M40.1003 33.0008C39.9003 31.8008 39.7004 30.6008 39.4004 29.5008C42.1004 29.5008 44.8004 29.4008 47.5004 29.3008C47.5004 30.4008 47.6004 31.6008 47.5004 32.8008C45.1004 33.0008 42.6003 33.0008 40.1003 33.0008Z" fill="#CBCBCB"/>
<path fill-rule="evenodd" clip-rule="evenodd" d="M41.9 72.7004H35.6L35.5 72.1003V71.9004H42L41.9 72.7004Z" fill="#CBCBCB"/>
<path fill-rule="evenodd" clip-rule="evenodd" d="M42.0998 71.0002H39.0998C39.1998 71.0002 39.1998 70.9002 39.2998 70.9002C39.2998 70.9002 39.4998 70.7002 39.7998 70.2002H42.1998L42.0998 71.0002ZM37.6998 71.0002H35.3998L35.2998 70.2002H36.6998C36.9998 70.5002 37.2998 70.8002 37.6998 71.0002Z" fill="#CBCBCB"/>
<path fill-rule="evenodd" clip-rule="evenodd" d="M61.6 73.3C61.6 73.3 59.2 73.7 58.4 73.7C57.7 73.7 55.5 73.3 55.5 73.3L54 61H62.9L61.6 73.3Z" fill="#0099D1"/>
<path fill-rule="evenodd" clip-rule="evenodd" d="M63.6998 65.6C63.6998 65.6 59.7998 66.7 58.4998 66.7C57.1998 66.7 53.2998 65.6 53.2998 65.6C53.2998 65.6 46.4999 30.1 50.8999 22C50.8999 22 56.3998 22.5 58.1998 22.5C60.1998 22.5 65.9998 22 65.9998 22C69.8998 31.1 63.6998 65.6 63.6998 65.6Z" fill="#00AEEF"/>
<path fill-rule="evenodd" clip-rule="evenodd" d="M67.1002 27.2002C67.0002 25.9002 66.8002 24.7002 66.5002 23.7002C61.1002 23.9002 55.7002 23.9002 50.3002 23.7002C50.0002 24.7002 49.8002 25.9002 49.7002 27.2002C55.5002 27.4002 61.3002 27.4002 67.1002 27.2002Z" fill="#EFEFEF"/>
<path fill-rule="evenodd" clip-rule="evenodd" d="M67.3 29.4004C61.4 29.6004 55.5 29.6004 49.6 29.4004C49.5 30.5004 49.5 31.7004 49.5 32.9004C55.5 33.1004 61.4 33.2004 67.3 32.9004C67.3 31.6004 67.3 30.5004 67.3 29.4004Z" fill="#EFEFEF"/>
<path fill-rule="evenodd" clip-rule="evenodd" d="M55.3998 72.7004H61.6998V71.9004H55.2998L55.3998 72.7004Z" fill="#EFEFEF"/>
<path fill-rule="evenodd" clip-rule="evenodd" d="M61.8997 70.2002H55.0996L55.1996 71.0002H61.8997V70.2002Z" fill="#EFEFEF"/>
<path fill-rule="evenodd" clip-rule="evenodd" d="M55.3997 73.3004L54.5996 65.9004L55.2996 71.8004V72.0004L55.3997 73.3004Z" fill="#D9D9D9"/>
<path fill-rule="evenodd" clip-rule="evenodd" d="M58.3997 73.7C57.6997 73.7 55.4996 73.3 55.4996 73.3L55.3997 72.1L55.4996 72.7H61.7996L61.6996 73.4C61.5996 73.3 59.1997 73.7 58.3997 73.7ZM61.6996 71.9H55.2996L54.5996 66C54.6996 66.3 55.1997 68.8 56.3997 70.2H54.9996L55.0996 71H57.3997C57.5997 71.1 57.7996 71.1 58.0996 71.1C58.2996 71.1 58.5996 71.1 58.7996 71H61.7996L61.6996 71.9Z" fill="#057DBB"/>
<path fill-rule="evenodd" clip-rule="evenodd" d="M61.9 70.2004H59.5C59.9 69.5004 60.4 68.4004 60.6 66.4004C61.3 66.3004 61.9 66.1004 62.4 65.9004L61.9 70.2004Z" fill="#057DBB"/>
<path fill-rule="evenodd" clip-rule="evenodd" d="M60.6002 66.4002C60.7002 65.7002 60.7002 65.0002 60.7002 64.0002C60.7002 64.0002 62.1002 47.2002 59.8002 33.0002C62.3002 33.0002 64.8002 32.9002 67.3002 32.9002C67.2002 46.4002 63.7002 65.6002 63.7002 65.6002C63.7002 65.6002 63.2002 65.8002 62.4002 66.0002C61.9002 66.1002 61.2002 66.3002 60.6002 66.4002ZM59.2002 29.5002C59.0002 28.8002 58.9002 28.0002 58.7002 27.3002C58.8002 27.3002 58.8002 27.3002 58.9002 27.3002C61.6002 27.3002 64.4002 27.2002 67.2002 27.2002C67.3002 27.9002 67.3002 28.6002 67.3002 29.4002C64.6002 29.5002 61.9002 29.5002 59.2002 29.5002Z" fill="#008DD2"/>
<path fill-rule="evenodd" clip-rule="evenodd" d="M66.5004 23.3006C66.4004 22.8006 66.2004 22.4006 66.0004 22.1006C66.0004 22.1006 60.2004 22.6006 58.3004 22.6006C58.1004 22.6006 57.8004 22.6006 57.4004 22.6006H58.3004C60.3004 22.6006 66.0004 22.1006 66.0004 22.1006C66.2004 22.4006 66.3004 22.8006 66.5004 23.3006Z" fill="#D9D9D9"/>
<path fill-rule="evenodd" clip-rule="evenodd" d="M66.8 24.8004C66.7 24.4004 66.6 24.0003 66.5 23.6003C63.9 23.7003 61.3 23.7004 58.8 23.7004C58.4 23.7004 57.9 23.7004 57.5 23.7004C57.4 23.2004 57.2 22.8004 57 22.4004H57.3C57.6 22.4004 57.9 22.4004 58.2 22.4004C60.2 22.4004 65.9 21.9004 65.9 21.9004C66.1 22.3004 66.2 22.7003 66.4 23.1003C66.6 23.8003 66.7 24.3004 66.8 24.8004Z" fill="#008DD2"/>
<path fill-rule="evenodd" clip-rule="evenodd" d="M58.8 27.3002C58.7 27.3002 58.7 27.3002 58.6 27.3002C58.3 26.1002 57.9 24.9002 57.5 23.8002C57.9 23.8002 58.4 23.8002 58.8 23.8002C61.4 23.8002 63.9 23.7002 66.5 23.7002C66.6 24.1002 66.7 24.5002 66.8 24.9002C66.9 25.6002 67 26.4002 67.1 27.3002C64.4 27.3002 61.6 27.3002 58.8 27.3002Z" fill="#CBCBCB"/>
<path fill-rule="evenodd" clip-rule="evenodd" d="M59.7996 33.0008C59.5996 31.8008 59.3996 30.6008 59.0996 29.5008C61.7996 29.5008 64.4996 29.4008 67.1996 29.3008C67.1996 30.4008 67.2996 31.6008 67.1996 32.8008C64.7996 33.0008 62.2996 33.0008 59.7996 33.0008Z" fill="#CBCBCB"/>
<path fill-rule="evenodd" clip-rule="evenodd" d="M61.5998 72.7004H55.3998L55.2998 72.1003V71.9004H61.6998L61.5998 72.7004Z" fill="#CBCBCB"/>
<path fill-rule="evenodd" clip-rule="evenodd" d="M61.7996 71.0002H58.7996C58.8996 71.0002 58.8996 70.9002 58.9996 70.9002C58.9996 70.9002 59.1996 70.7002 59.4996 70.2002H61.8997L61.7996 71.0002ZM57.4996 71.0002H55.1996L55.0996 70.2002H56.4996C56.7996 70.5002 57.0996 70.8002 57.4996 71.0002Z" fill="#CBCBCB"/>
</svg>
