<svg width="97" height="96" viewBox="0 0 97 96" fill="none" xmlns="http://www.w3.org/2000/svg">
<path fill-rule="evenodd" clip-rule="evenodd" d="M48.5 0C74.9 0 96.3999 21.5 96.3999 47.9C96.3999 74.3 75 95.8 48.5 95.8C22 95.8 0.599957 74.3 0.599957 47.9C0.499957 21.4 22 0 48.5 0Z" fill="white" fill-opacity="0.8"/>
<path fill-rule="evenodd" clip-rule="evenodd" d="M42.5992 28.4008C42.5992 33.7008 38.7992 38.0008 34.1992 38.0008C29.4992 38.0008 25.6992 33.7008 25.6992 28.4008C25.6992 23.1008 29.4992 18.8008 34.1992 18.8008C38.7992 18.8008 42.5992 23.1008 42.5992 28.4008Z" fill="#333333"/>
<path fill-rule="evenodd" clip-rule="evenodd" d="M35.9992 77.0012H32.1992C30.7992 77.0012 29.6992 75.9012 29.6992 74.5012V71.7012C29.6992 70.3012 30.7992 69.2012 32.1992 69.2012H35.9992C37.3992 69.2012 38.4992 70.3012 38.4992 71.7012V74.5012C38.5992 75.8012 37.3992 77.0012 35.9992 77.0012Z" fill="#333333"/>
<path fill-rule="evenodd" clip-rule="evenodd" d="M46.7996 35.6003C46.7996 29.6003 41.1996 22.4004 34.1996 22.4004C27.1996 22.4004 21.5996 29.6003 21.5996 35.6003C21.5996 37.8003 22.3996 39.9004 23.7996 41.7004L25.1996 49.1003L27.5996 69.3004C27.5996 72.0004 29.9996 74.3004 32.8996 74.3004H35.4996C38.3996 74.3004 40.7996 72.1004 40.7996 69.3004L43.1996 49.1003L44.5996 41.8004C45.8996 40.0004 46.7996 37.9003 46.7996 35.6003Z" fill="#E2E2E2"/>
<path fill-rule="evenodd" clip-rule="evenodd" d="M34.4992 28.8004C30.6992 28.8004 27.5992 31.6003 27.5992 35.1003C27.5992 38.5003 30.6992 41.3004 34.4992 41.3004C38.2992 41.3004 41.3992 38.5003 41.3992 35.1003C41.3992 31.6003 38.2992 28.8004 34.4992 28.8004ZM34.4992 42.3004C30.1992 42.3004 26.6992 39.1003 26.6992 35.1003C26.6992 31.1003 30.1992 27.9004 34.4992 27.9004C38.7992 27.9004 42.2992 31.1003 42.2992 35.1003C42.2992 39.1003 38.7992 42.3004 34.4992 42.3004Z" fill="#333333"/>
<path fill-rule="evenodd" clip-rule="evenodd" d="M34.3 26.0012C28.9 26.0012 24.4 30.1011 24.4 35.1011C24.4 40.1011 28.9 44.1011 34.3 44.1011C39.8 44.1011 44.2 40.0011 44.2 35.1011C44.2 30.2011 39.8 26.0012 34.3 26.0012ZM34.3 45.5012C28.1 45.5012 23 40.8011 23 35.1011C23 29.4011 28.1 24.7012 34.3 24.7012C40.5 24.7012 45.6 29.4011 45.6 35.1011C45.6 40.8011 40.5 45.5012 34.3 45.5012Z" fill="#333333"/>
<path fill-rule="evenodd" clip-rule="evenodd" d="M23.6992 41.7012L25.0992 49.1011L27.4992 69.3011C27.4992 72.0011 29.8992 74.3011 32.7992 74.3011H35.3992C38.2992 74.3011 40.6992 72.1011 40.6992 69.3011L43.0992 49.1011L44.4992 41.8011C44.4992 41.8011 36.4992 43.4012 33.7992 43.4012C31.1992 43.4012 23.6992 41.7012 23.6992 41.7012Z" fill="#00AEEF"/>
<path fill-rule="evenodd" clip-rule="evenodd" d="M28.1992 36.4004L28.9992 44.6003L30.2992 66.8004C30.2992 69.8004 31.6992 72.3004 33.2992 72.3004H34.7992C36.3992 72.3004 37.7992 69.8004 37.7992 66.8004L39.0992 44.6003L39.8992 36.5004C39.8992 36.5004 35.3992 38.3004 33.8992 38.3004C32.4992 38.3004 28.1992 36.4004 28.1992 36.4004Z" fill="#E2E2E2"/>
<path fill-rule="evenodd" clip-rule="evenodd" d="M27.8992 48.8004L24.6992 46.9004L25.0992 49.1003L25.5992 53.1003L27.6992 54.4004L27.8992 48.8004Z" fill="#333333"/>
<path fill-rule="evenodd" clip-rule="evenodd" d="M27.8998 56.701L25.7998 55.501L26.4998 61.601L27.6998 62.301L27.8998 56.701Z" fill="#333333"/>
<path fill-rule="evenodd" clip-rule="evenodd" d="M40.1992 48.8004L43.4992 46.9004L43.0992 49.1003L42.5992 53.1003L40.3992 54.4004L40.1992 48.8004Z" fill="#333333"/>
<path fill-rule="evenodd" clip-rule="evenodd" d="M40.1992 56.701L42.2992 55.501L41.5992 61.601L40.3992 62.301L40.1992 56.701Z" fill="#333333"/>
<path fill-rule="evenodd" clip-rule="evenodd" d="M36.1992 77.0008H32.0992C30.7992 77.0008 29.6992 75.9008 29.6992 74.6008V74.5008C29.6992 75.9008 30.7992 77.0008 32.1992 77.0008H35.9992C37.3992 77.0008 38.4992 75.9008 38.4992 74.5008V73.3008V74.6008C38.5992 75.9008 37.4992 77.0008 36.1992 77.0008Z" fill="#D9D9D9"/>
<path fill-rule="evenodd" clip-rule="evenodd" d="M35.9992 77.0004H32.1992C30.7992 77.0004 29.6992 75.9004 29.6992 74.5004V73.5004C30.5992 74.0004 31.5992 74.4004 32.6992 74.4004H35.2992C36.4992 74.4004 37.5992 74.0004 38.4992 73.4004V74.6003C38.5992 75.8003 37.3992 77.0004 35.9992 77.0004Z" fill="#2B2B2B"/>
<path fill-rule="evenodd" clip-rule="evenodd" d="M42.3998 26.0008C40.5998 24.3008 38.3998 23.0008 35.9998 22.6008C35.6998 21.3008 35.2998 20.0008 34.7998 18.8008C38.3998 19.1008 41.4998 22.1008 42.3998 26.0008Z" fill="#2B2B2B"/>
<path fill-rule="evenodd" clip-rule="evenodd" d="M39.3994 42.7006L39.5994 40.6006C41.2994 39.3006 42.2994 37.3006 42.2994 35.1006C42.2994 32.3006 40.5994 29.9006 38.1994 28.7006C37.7994 28.3006 37.3994 28.0006 36.8994 27.9006C36.8994 27.9006 36.7994 27.3006 36.6994 26.3006C40.9994 27.3006 44.1994 30.8006 44.1994 35.1006C44.1994 38.3006 42.3994 41.1006 39.6994 42.7006C39.5994 42.7006 39.4994 42.7006 39.3994 42.7006ZM42.5994 42.2006C44.4994 40.4006 45.5994 37.9006 45.5994 35.1006C45.5994 30.0006 41.6994 25.8006 36.3994 24.8006C36.2994 24.1006 36.0994 23.4006 35.8994 22.6006C38.2994 23.0006 40.4994 24.3006 42.2994 26.0006C42.7994 26.5006 43.2994 27.0006 43.6994 27.6006C44.2994 28.4006 44.7994 29.2006 45.2994 30.1006C46.1994 31.8006 46.6994 33.7006 46.6994 35.5006C46.6994 37.8006 45.8994 39.9006 44.4994 41.7006C44.4994 41.8006 43.6994 42.0006 42.5994 42.2006ZM39.7994 39.1006C39.7994 38.8006 39.7994 38.4006 39.7994 37.9006L39.8994 36.5006C39.8994 36.5006 39.8994 36.5006 39.7994 36.6006C39.7994 34.6006 39.5994 32.2006 38.9994 30.4006C40.3994 31.6006 41.2994 33.2006 41.2994 35.1006C41.3994 36.6006 40.7994 38.0006 39.7994 39.1006Z" fill="#C0C0C0"/>
<path fill-rule="evenodd" clip-rule="evenodd" d="M39.5992 40.6011V40.3011C39.6992 40.1011 39.6992 39.9011 39.6992 39.8011C39.6992 39.8011 39.6992 39.5011 39.7992 39.1011C40.7992 38.0011 41.3992 36.6011 41.3992 35.1011C41.3992 33.2011 40.4992 31.6012 39.0992 30.4012C38.8992 29.7012 38.5992 29.2012 38.1992 28.7012C40.6992 29.9012 42.2992 32.3011 42.2992 35.1011C42.2992 37.3011 41.2992 39.3011 39.5992 40.6011Z" fill="#2B2B2B"/>
<path fill-rule="evenodd" clip-rule="evenodd" d="M39.6994 42.7008C42.3994 41.1008 44.1994 38.3008 44.1994 35.1008C44.1994 30.8008 40.9994 27.3008 36.6994 26.3008C36.5994 25.9008 36.5994 25.4008 36.3994 24.8008C41.5994 25.7008 45.5994 30.0008 45.5994 35.1008C45.5994 37.8008 44.4994 40.3008 42.5994 42.2008C41.7994 42.3008 40.6994 42.5008 39.6994 42.7008Z" fill="#2B2B2B"/>
<path fill-rule="evenodd" clip-rule="evenodd" d="M35.4 74.301H32.8C31.7 74.301 30.6 74.001 29.8 73.401C28.5 72.501 27.6 71.201 27.5 69.601C27.5 69.601 29.3 70.801 31.4 71.101C31.9 72.001 32.6 72.501 33.4 72.501H34.9C36.5 72.501 37.9 70.001 37.9 67.001L39.2 44.801L39.4 43.001C39.5 43.001 39.6 43.001 39.7 42.901C40.8 42.701 41.8 42.601 42.6 42.401C43.8 42.201 44.5 42.001 44.5 42.001L43.5 47.201V47.101L40.2 49.001L40.3 54.601L42.5 53.301L42.2 55.601L40.1 56.801L40.2 62.401L41.4 61.701L40.5 69.401C40.4 70.801 39.6 72.101 38.4 72.901C37.7 73.901 36.6 74.301 35.4 74.301Z" fill="#0099D1"/>
<path fill-rule="evenodd" clip-rule="evenodd" d="M34.7998 72.2004H33.2998C32.4998 72.2004 31.7998 71.7004 31.2998 70.8004C31.4998 70.8004 31.7998 70.8004 31.9998 70.8004C33.4998 70.8004 34.9998 70.2003 35.8998 68.1003C35.8998 68.1003 38.2998 45.1004 39.5998 40.3004V40.6003L39.3998 42.7004L39.1998 44.5004L37.8998 66.7004C37.7998 69.7004 36.4998 72.2004 34.7998 72.2004ZM39.7998 37.9004C39.7998 37.5004 39.7998 37.0004 39.7998 36.5004C39.8998 36.5004 39.8998 36.4004 39.8998 36.4004L39.7998 37.9004Z" fill="#C0C0C0"/>
<path fill-rule="evenodd" clip-rule="evenodd" d="M40.3992 54.4004L40.1992 48.8004L43.4992 46.9004V47.0004L43.0992 49.1003L42.5992 53.1003L40.3992 54.4004Z" fill="#2B2B2B"/>
<path fill-rule="evenodd" clip-rule="evenodd" d="M40.3992 62.301L40.1992 56.701L42.2992 55.501L41.5992 61.601L40.3992 62.301Z" fill="#2B2B2B"/>
<path fill-rule="evenodd" clip-rule="evenodd" d="M71.1998 28.4008C71.1998 33.7008 67.3998 38.0008 62.7998 38.0008C58.0998 38.0008 54.2998 33.7008 54.2998 28.4008C54.2998 23.1008 58.0998 18.8008 62.7998 18.8008C67.3998 18.8008 71.1998 23.1008 71.1998 28.4008Z" fill="#333333"/>
<path fill-rule="evenodd" clip-rule="evenodd" d="M64.5998 77.0012H60.7998C59.3998 77.0012 58.2998 75.9012 58.2998 74.5012V71.7012C58.2998 70.3012 59.3998 69.2012 60.7998 69.2012H64.5998C65.9998 69.2012 67.0998 70.3012 67.0998 71.7012V74.5012C67.0998 75.8012 65.9998 77.0012 64.5998 77.0012Z" fill="#333333"/>
<path fill-rule="evenodd" clip-rule="evenodd" d="M75.2996 35.6003C75.2996 29.6003 69.6996 22.4004 62.6996 22.4004C55.6996 22.4004 50.0996 29.6003 50.0996 35.6003C50.0996 37.8003 50.8996 39.9004 52.2996 41.7004L53.6996 49.1003L56.0996 69.3004C56.0996 72.0004 58.4996 74.3004 61.3996 74.3004H63.9996C66.8996 74.3004 69.2996 72.1004 69.2996 69.3004L71.6996 49.1003L73.0996 41.8004C74.4996 40.0004 75.2996 37.9003 75.2996 35.6003Z" fill="#E2E2E2"/>
<path fill-rule="evenodd" clip-rule="evenodd" d="M63.0998 28.8004C59.2998 28.8004 56.1998 31.6003 56.1998 35.1003C56.1998 38.5003 59.2998 41.3004 63.0998 41.3004C66.8998 41.3004 69.9998 38.5003 69.9998 35.1003C69.9998 31.6003 66.8998 28.8004 63.0998 28.8004ZM63.0998 42.3004C58.7998 42.3004 55.2998 39.1003 55.2998 35.1003C55.2998 31.1003 58.7998 27.9004 63.0998 27.9004C67.3998 27.9004 70.8998 31.1003 70.8998 35.1003C70.8998 39.1003 67.3998 42.3004 63.0998 42.3004Z" fill="#333333"/>
<path fill-rule="evenodd" clip-rule="evenodd" d="M62.8996 26.0012C57.3996 26.0012 52.9996 30.1011 52.9996 35.1011C52.9996 40.1011 57.3996 44.1011 62.8996 44.1011C68.3996 44.1011 72.7996 40.0011 72.7996 35.1011C72.7996 30.2011 68.2996 26.0012 62.8996 26.0012ZM62.8996 45.5012C56.6996 45.5012 51.5996 40.8011 51.5996 35.1011C51.5996 29.4011 56.6996 24.7012 62.8996 24.7012C69.0996 24.7012 74.1996 29.4011 74.1996 35.1011C74.1996 40.8011 69.0996 45.5012 62.8996 45.5012Z" fill="#333333"/>
<path fill-rule="evenodd" clip-rule="evenodd" d="M52.2998 41.7012L53.6998 49.1011L56.0998 69.3011C56.0998 72.0011 58.4998 74.3011 61.3998 74.3011H63.9998C66.8998 74.3011 69.2998 72.1011 69.2998 69.3011L71.6998 49.1011L73.0998 41.8011C73.0998 41.8011 65.0998 43.4012 62.3998 43.4012C59.7998 43.4012 52.2998 41.7012 52.2998 41.7012Z" fill="#00AEEF"/>
<path fill-rule="evenodd" clip-rule="evenodd" d="M56.7998 36.4004L57.5998 44.6003L58.8998 66.8004C58.8998 69.8004 60.2998 72.3004 61.8998 72.3004H63.3998C64.9998 72.3004 66.3998 69.8004 66.3998 66.8004L67.6998 44.6003L68.4998 36.5004C68.4998 36.5004 63.9998 38.3004 62.4998 38.3004C61.0998 38.3004 56.7998 36.4004 56.7998 36.4004Z" fill="#E2E2E2"/>
<path fill-rule="evenodd" clip-rule="evenodd" d="M56.4992 48.8004L53.1992 46.9004L53.5992 49.1003L54.0992 53.1003L56.2992 54.4004L56.4992 48.8004Z" fill="#333333"/>
<path fill-rule="evenodd" clip-rule="evenodd" d="M56.4994 56.701L54.3994 55.501L55.0994 61.601L56.2994 62.301L56.4994 56.701Z" fill="#333333"/>
<path fill-rule="evenodd" clip-rule="evenodd" d="M68.7998 48.8004L72.0998 46.9004L71.6998 49.1003L71.1998 53.1003L68.8998 54.4004L68.7998 48.8004Z" fill="#333333"/>
<path fill-rule="evenodd" clip-rule="evenodd" d="M68.7998 56.701L70.8998 55.501L70.1998 61.601L68.8998 62.301L68.7998 56.701Z" fill="#333333"/>
<path fill-rule="evenodd" clip-rule="evenodd" d="M70.8998 26.0008C69.0998 24.3008 66.8998 23.0008 64.4998 22.6008C64.1998 21.3008 63.7998 20.0008 63.2998 18.8008C66.9998 19.1008 70.0998 22.1008 70.8998 26.0008Z" fill="#2B2B2B"/>
<path fill-rule="evenodd" clip-rule="evenodd" d="M64.5998 77.0004H60.7998C59.3998 77.0004 58.2998 75.9004 58.2998 74.5004V73.5004C59.0998 74.0004 59.9998 74.3004 60.9998 74.4004C61.0998 74.4004 61.1998 74.4004 61.2998 74.4004H63.8998C65.0998 74.4004 66.1998 74.0004 67.0998 73.4004V74.6003C67.0998 75.8003 65.9998 77.0004 64.5998 77.0004Z" fill="#2B2B2B"/>
<path fill-rule="evenodd" clip-rule="evenodd" d="M61.0994 74.3006C60.0994 74.2006 59.0994 73.9006 58.3994 73.4006C59.0994 73.9006 59.9994 74.3006 61.0994 74.3006ZM67.8994 42.7006L68.0994 40.6006C69.7994 39.3006 70.7994 37.3006 70.7994 35.1006C70.7994 32.3006 69.0994 29.9006 66.6994 28.7006C66.2994 28.3006 65.8994 28.0006 65.3994 27.9006C65.3994 27.9006 65.2994 27.3006 65.1994 26.3006C69.4994 27.3006 72.6994 30.8006 72.6994 35.1006C72.6994 38.3006 70.8994 41.1006 68.1994 42.7006C68.1994 42.7006 67.9994 42.7006 67.8994 42.7006ZM71.1994 42.2006C72.9994 40.4006 74.1994 37.9006 74.1994 35.1006C74.1994 30.0006 70.2994 25.8006 64.9994 24.8006C64.8994 24.1006 64.6994 23.4006 64.4994 22.6006C66.8994 23.0006 69.0994 24.3006 70.8994 26.0006C71.3994 26.5006 71.8994 27.0006 72.2994 27.6006C72.8994 28.4006 73.3994 29.2006 73.8994 30.1006C74.7994 31.8006 75.2994 33.7006 75.2994 35.5006C75.2994 37.8006 74.4994 39.9006 73.0994 41.7006C73.0994 41.8006 72.2994 42.0006 71.1994 42.2006ZM68.3994 39.1006C68.3994 38.8006 68.3994 38.4006 68.3994 37.9006L68.4994 36.5006C68.4994 36.5006 68.4994 36.5006 68.3994 36.6006C68.3994 34.6006 68.1994 32.2006 67.5994 30.4006C68.9994 31.6006 69.8994 33.2006 69.8994 35.1006C69.9994 36.6006 69.3994 38.0006 68.3994 39.1006Z" fill="#C0C0C0"/>
<path fill-rule="evenodd" clip-rule="evenodd" d="M68.1998 40.6011V40.3011C68.1998 40.1011 68.2998 39.9011 68.2998 39.8011C68.2998 39.8011 68.2998 39.5011 68.3998 39.1011C69.3998 38.0011 69.9998 36.6011 69.9998 35.1011C69.9998 33.2011 69.0998 31.6012 67.6998 30.4012C67.4998 29.7012 67.1998 29.2012 66.7998 28.7012C69.2998 29.9012 70.8998 32.3011 70.8998 35.1011C70.8998 37.3011 69.7998 39.3011 68.1998 40.6011Z" fill="#2B2B2B"/>
<path fill-rule="evenodd" clip-rule="evenodd" d="M68.1994 42.7008C70.8994 41.1008 72.6994 38.3008 72.6994 35.1008C72.6994 30.8008 69.4994 27.3008 65.1994 26.3008C65.0994 25.9008 65.0994 25.4008 64.8994 24.8008C70.0994 25.7008 74.0994 30.0008 74.0994 35.1008C74.0994 37.8008 72.8994 40.3008 71.0994 42.2008C70.2994 42.3008 69.2994 42.5008 68.1994 42.7008Z" fill="#2B2B2B"/>
<path fill-rule="evenodd" clip-rule="evenodd" d="M63.9996 74.301H61.3996C61.2996 74.301 61.1996 74.301 61.0996 74.301C60.0996 74.201 59.0996 73.901 58.3996 73.401C57.0996 72.501 56.1996 71.201 56.0996 69.601C56.0996 69.601 57.8996 70.801 59.9996 71.101C60.4996 72.001 61.1996 72.501 61.9996 72.501H63.4996C65.0996 72.501 66.4996 70.001 66.4996 67.001L67.7996 44.801L67.9996 43.001C68.0996 43.001 68.1996 43.001 68.2996 42.901C69.3996 42.701 70.3996 42.601 71.1996 42.401C72.2996 42.201 73.0996 42.001 73.0996 42.001L72.0996 47.201V47.101L68.7996 49.001L68.8996 54.601L71.0996 53.301L70.7996 55.601L68.6996 56.801L68.7996 62.401L69.9996 61.701L69.0996 69.401C68.8996 70.801 68.1996 72.001 66.9996 72.801C66.2996 73.901 65.1996 74.301 63.9996 74.301Z" fill="#0099D1"/>
<path fill-rule="evenodd" clip-rule="evenodd" d="M63.3994 72.2004H61.8994C61.0994 72.2004 60.3994 71.7004 59.8994 70.8004C60.0994 70.8004 60.3994 70.8004 60.5994 70.8004C62.0994 70.8004 63.5994 70.2003 64.4994 68.1003C64.4994 68.1003 66.8994 45.1004 68.1994 40.3004V40.6003L67.9994 42.7004L67.7994 44.5004L66.4994 66.7004C66.3994 69.7004 64.9994 72.2004 63.3994 72.2004ZM68.3994 37.9004C68.3994 37.5004 68.3994 37.0004 68.3994 36.5004C68.4994 36.5004 68.4994 36.4004 68.4994 36.4004L68.3994 37.9004Z" fill="#C0C0C0"/>
<path fill-rule="evenodd" clip-rule="evenodd" d="M68.8998 54.4004L68.7998 48.8004L72.0998 46.9004L71.9998 47.0004L71.5998 49.1003L71.1998 53.1003L68.8998 54.4004Z" fill="#2B2B2B"/>
<path fill-rule="evenodd" clip-rule="evenodd" d="M68.8998 62.301L68.7998 56.701L70.8998 55.501L70.1998 61.601L68.8998 62.301Z" fill="#2B2B2B"/>
</svg>
