<svg width="206" height="61" viewBox="0 0 206 61" fill="none" xmlns="http://www.w3.org/2000/svg">
<g>
    <path fill-rule="evenodd" clip-rule="evenodd" d="M30.0177 3.16643L29.9788 2.71069L30.3033 3.03198C31.6677 4.37605 32.3583 6.23974 32.1991 8.14731L31.9217 11.5075L31.6535 11.1146C31.1664 10.4006 30.5508 9.80371 29.8202 9.34283L29.7246 9.28216L29.7448 9.17068C30.1017 7.19611 30.1934 5.17663 30.0177 3.16643V3.16643Z" fill="#00AEEF"/>
    <path fill-rule="evenodd" clip-rule="evenodd" d="M7.94557 6.13637C8.10494 4.22881 9.09366 2.50322 10.6592 1.40167L11.0331 1.13916L10.9193 1.58236C10.4147 3.53425 10.1718 5.54178 10.1988 7.54623L10.1999 7.66019L10.0952 7.70513C9.30722 8.03525 8.58832 8.53028 7.99681 9.14945L7.66602 9.4924L7.94557 6.13637V6.13637Z" fill="#00AEEF"/>
    <path fill-rule="evenodd" clip-rule="evenodd" d="M12.0436 0.727965L12.0683 0.649912L12.1461 0.620748C12.6035 0.453329 13.0774 0.335973 13.5535 0.276044C18.309 -0.330168 23.0454 0.0634445 27.635 1.44344C28.0911 1.58244 28.5407 1.77442 28.9671 2.01767L29.0388 2.05964L29.0506 2.14197C29.3499 4.30722 29.3229 6.50015 28.97 8.66128L28.9347 8.87463L28.7367 8.78854C23.2579 6.41817 17.0505 5.9028 11.2553 7.33949L11.0469 7.3904L11.0473 7.17322C11.0547 4.98382 11.3903 2.81577 12.0434 0.727965H12.0436Z" fill="#00AEEF"/>
    <path fill-rule="evenodd" clip-rule="evenodd" d="M10.0316 7.54951L10.0306 7.48251C10.0084 5.39883 10.2715 3.32679 10.8127 1.31585C10.9153 0.993674 11.2495 0.774292 11.5854 0.807128L11.6238 0.814453C11.6686 0.7317 11.7382 0.665159 11.8321 0.628642C11.9061 0.600077 12.2804 0.57373 12.2804 0.57373L12.19 0.82699C11.5554 2.87077 11.2267 4.99276 11.2151 7.13048L11.2145 7.33822L11.2155 7.34851L10.9454 7.41524C10.9215 7.42261 10.9002 7.42847 10.8782 7.43466L10.7876 7.46045C10.6052 7.51257 10.4275 7.57279 10.2598 7.63817L10.0325 7.72562L10.0316 7.6716V7.54951V7.54951Z" fill="#00376A"/>
    <path fill-rule="evenodd" clip-rule="evenodd" d="M28.8913 2.23692L28.8574 1.9585C28.8574 1.9585 29.2223 2.04333 29.2762 2.07587C29.3588 2.12372 29.4189 2.20172 29.4484 2.28963C29.8064 2.29552 30.115 2.56057 30.169 2.92942C30.3693 4.99764 30.2861 7.08501 29.9204 9.13717L29.8784 9.37659L29.6694 9.25274C29.5328 9.17102 29.3909 9.09417 29.2483 9.02438L29.1354 8.96884L29.136 8.96592L29.0949 8.94826C29.0816 8.9409 29.0683 8.93499 29.0561 8.9288L28.7754 8.80366L28.7972 8.67626C29.1501 6.54577 29.1816 4.38008 28.8913 2.23633V2.23692Z" fill="#00376A"/>
    <path fill-rule="evenodd" clip-rule="evenodd" d="M24.4469 58.0814C24.2093 55.4086 24.0829 52.6927 24.0732 50.0081L24.0722 49.9199L24.0619 49.8492C24.0217 49.6033 23.8493 49.4 23.6118 49.3206L23.2891 49.2112L23.5721 49.0198C24.2165 48.59 24.775 48.0577 25.2334 47.4382L25.5486 47.01L25.5368 47.5414C25.528 47.9269 25.5208 48.3136 25.5164 48.6977L25.5152 48.7387L25.516 48.7402L25.5131 49.0257C25.5013 50.5975 25.5278 52.168 25.5903 53.6906L25.5947 53.6994C25.9804 54.0214 26.4784 54.1573 26.9708 54.0752L27.1486 54.0455L27.1671 54.2237C27.3753 56.2553 26.38 58.2301 24.6294 59.2545C24.5126 59.323 24.3939 59.387 24.2713 59.4458L23.4822 59.8292L24.0745 59.1809C24.3467 58.8811 24.4825 58.4815 24.4466 58.0817L24.4469 58.0814Z" fill="#3C3D39"/>
    <path fill-rule="evenodd" clip-rule="evenodd" d="M18.2446 58.9845C17.9689 56.3465 17.8027 53.6592 17.7491 51.0023L17.7521 50.9319L17.7373 50.8417C17.6974 50.5961 17.5246 50.391 17.2869 50.3122L16.9629 50.2031L17.2479 50.0126C18.1019 49.4404 18.8227 48.6691 19.3338 47.7819L19.4139 47.6423L19.5577 47.7166C19.6387 47.7584 19.725 47.7844 19.8147 47.7919L20.0181 47.8095L19.9932 48.9886L19.8326 48.9915C19.6653 48.9945 19.5039 49.0584 19.3859 49.1672C19.2492 49.2949 19.1712 49.4751 19.1693 49.6618L19.1722 50.0401C19.1962 52.7584 19.3364 55.4971 19.5917 58.1814C19.6092 58.3642 19.6619 58.5407 19.7469 58.7079L19.792 58.7941L19.7397 58.876C19.3805 59.441 18.8888 59.9163 18.3165 60.2511C18.231 60.3012 18.1428 60.3489 18.0531 60.3923L17.2105 60.8091L17.8569 60.1251C18.1472 59.8188 18.2882 59.4033 18.2449 58.9843L18.2446 58.9845Z" fill="#3C3D39"/>
    <path fill-rule="evenodd" clip-rule="evenodd" d="M11.693 55.9238C11.513 53.6232 11.4151 51.2795 11.4027 48.9574L11.4033 48.8711L11.3915 48.7982C11.3514 48.5526 11.1797 48.349 10.9432 48.269L10.6191 48.1599L10.9033 47.9702C11.5398 47.5432 12.0929 47.017 12.5503 46.4055L12.8654 45.9829L12.8536 46.5102C12.8433 46.898 12.8367 47.2843 12.8335 47.6703L12.833 47.7127L12.8301 47.7157L12.8271 48.0994C12.8242 48.4523 13.0983 48.7526 13.4503 48.7814L13.6951 48.8019L13.6705 49.9756L13.5089 49.9786C13.3438 49.983 13.1804 50.0486 13.0598 50.1629C12.9292 50.285 12.853 50.4533 12.8457 50.6307L12.8605 50.6562L12.8473 50.7011C12.8825 52.3931 12.966 54.1188 13.0962 55.8332L13.1006 55.8941L13.0654 55.9436C12.7175 56.437 12.2751 56.8412 11.7516 57.1477C11.6728 57.1938 11.593 57.237 11.5133 57.2781L10.6829 57.6947L11.3126 57.0135C11.5862 56.7184 11.7247 56.3207 11.6918 55.9232L11.693 55.9238Z" fill="#3C3D39"/>
    <path fill-rule="evenodd" clip-rule="evenodd" d="M4.72872 51.3071C4.97896 51.0316 5.11124 50.6759 5.1021 50.306C5.05983 48.5889 5.06438 46.8428 5.11534 45.1147L5.11831 45.0296L5.10945 44.9583C5.07646 44.7027 4.89618 44.4856 4.65212 44.4045L4.21954 44.2592L4.64183 44.0885C4.8171 44.0173 4.98131 43.9375 5.13184 43.8494C5.61465 43.5669 6.02029 43.1871 6.33799 42.7193L6.67733 42.217L6.64391 42.8221C6.62271 43.2207 6.60356 43.618 6.58618 44.0138L6.58469 44.0692L6.58323 44.0722L6.57438 44.2831C6.55111 44.8807 6.53359 45.4756 6.52107 46.0487C6.51223 46.4071 6.78663 46.7107 7.14262 46.7405L7.35089 46.7571L7.32599 47.9364L7.16442 47.9393C6.99784 47.9437 6.83657 48.0076 6.71977 48.1157C6.57896 48.2457 6.50016 48.4283 6.50208 48.6183C6.50502 49.0884 6.51386 49.5546 6.52476 50.1083L6.52181 50.1938L6.46776 50.2379C6.1209 50.7342 5.67535 51.1423 5.14658 51.4517C5.07603 51.4929 5.00429 51.5315 4.93197 51.5699L4.11719 51.985L4.72975 51.3061L4.72872 51.3071Z" fill="#3C3D39"/>
    <path fill-rule="evenodd" clip-rule="evenodd" d="M13.9928 38.3765C13.6788 38.6769 13.4409 39.0541 13.3022 39.4758C13.2933 39.4935 13.2874 39.5113 13.2818 39.5353L13.2655 39.6159C13.2625 39.6247 13.2611 39.633 13.2611 39.642C13.1005 41.3085 12.9839 43.0184 12.9114 44.7223L12.9055 44.7624C12.6841 45.5069 12.2589 46.1761 11.676 46.7013L11.2524 47.0842L11.4005 46.5329C11.4166 46.473 11.4242 46.4208 11.4256 46.373C11.4762 44.112 11.6098 41.8187 11.821 39.558L11.8269 39.4999L11.8343 39.4925L11.8135 39.3661C11.7932 39.2416 11.7419 39.1297 11.6677 39.0401C11.5824 38.9377 11.4621 38.8602 11.3297 38.8231L11.0625 38.7467L11.2528 38.546C11.4332 38.3531 11.6028 38.1645 11.7564 37.9818L11.812 37.915L13.0653 38.0189L13.1832 38.0277L13.2621 38.0351L14.2612 38.1184L13.9924 38.3776L13.9928 38.3765Z" fill="#3C3D39"/>
    <path fill-rule="evenodd" clip-rule="evenodd" d="M20.2826 38.9021C19.9424 39.2103 19.7124 39.6104 19.6188 40.0602L19.6085 40.1284C19.6055 40.1416 19.6011 40.1544 19.6011 40.168C19.3897 42.3715 19.2556 44.6306 19.1997 46.8821L19.1894 46.9336C18.9491 47.6235 18.5322 48.2462 17.9855 48.7333L17.5719 49.1029L17.7114 48.5662C17.7261 48.5049 17.7332 48.4517 17.7345 48.4037C17.755 45.6376 17.8992 42.8396 18.1614 40.0852L18.1673 40.0271L18.1761 40.0182L18.1543 39.891C18.134 39.7664 18.0829 39.6539 18.0089 39.5647C17.9229 39.4621 17.8033 39.3848 17.6701 39.3475L17.4043 39.2724L17.5937 39.0703C17.7762 38.8781 17.9454 38.6883 18.0971 38.5066L18.1527 38.4395L19.6036 38.5606L20.5716 38.6403L20.2838 38.9015L20.2826 38.9021Z" fill="#3C3D39"/>
    <path fill-rule="evenodd" clip-rule="evenodd" d="M23.9307 48.1255L24.0727 47.5779C24.0874 47.5223 24.0943 47.4724 24.0955 47.4245C24.1487 45.1618 24.2847 42.8693 24.5002 40.6103L24.5061 40.5521L24.512 40.5447L24.4909 40.419C24.4711 40.2942 24.4211 40.181 24.3456 40.0927C24.2599 39.9896 24.14 39.9129 24.0084 39.8747L23.7402 39.7989L23.9321 39.5978C24.112 39.4048 24.2821 39.2163 24.4354 39.0338L24.4908 38.9666L25.9394 39.0872L26.9018 39.1667L26.6126 39.4282C26.2524 39.7521 26.0158 40.1907 25.9433 40.6663L25.9389 40.702C25.7964 42.1869 25.6884 43.728 25.6147 45.2818L25.5924 45.7718L25.585 45.8145C25.3573 46.5516 24.9291 47.2191 24.3491 47.7461L23.9307 48.1259V48.1255Z" fill="#3C3D39"/>
    <path fill-rule="evenodd" clip-rule="evenodd" d="M7.54816 37.8318C7.2499 38.1652 7.03794 38.5711 6.93911 39.0075L6.92733 39.0725C6.92438 39.0872 6.92143 39.1018 6.91996 39.1172C6.86517 39.6952 6.81494 40.2909 6.76884 40.8836L6.76738 40.9051C6.6033 41.7251 6.11253 42.4768 5.4244 42.9648L4.94455 43.3077L5.17195 42.7633C5.20524 42.6837 5.22292 42.6114 5.22748 42.5411C5.29332 41.3761 5.38406 40.1965 5.49291 39.0336L5.49879 38.9755L5.50468 38.9681L5.48524 38.8416C5.463 38.7161 5.41321 38.6034 5.33898 38.5138C5.25193 38.4118 5.1319 38.3348 5.00097 38.2968L4.73438 38.2214L4.92408 38.0197C5.10495 37.8284 5.27402 37.6382 5.42735 37.4557L5.48362 37.3899L6.93218 37.5105L7.77585 37.5796L7.54845 37.8322L7.54816 37.8318Z" fill="#3C3D39"/>
    <path fill-rule="evenodd" clip-rule="evenodd" d="M23.9762 39.7954L23.921 39.8536L20.3321 39.5569C20.1802 39.5437 20.0245 39.5855 19.8953 39.676L19.3594 40.0442L19.6492 39.4633C19.8037 39.1524 20.0297 38.8763 20.306 38.664L20.3569 38.6228L24.6987 38.9837L24.4851 39.2343C24.3084 39.4394 24.1416 39.6243 23.9762 39.7954V39.7954Z" fill="#797B76"/>
    <path fill-rule="evenodd" clip-rule="evenodd" d="M26.6401 39.1891L26.6905 39.1482L28.2046 39.2746L28.1269 40.2025L26.6727 40.0817C26.5185 40.07 26.3621 40.1141 26.2288 40.2069L25.6953 40.5827L25.9812 39.9951C26.1348 39.6793 26.363 39.4 26.6401 39.1891V39.1891Z" fill="#797B76"/>
    <path fill-rule="evenodd" clip-rule="evenodd" d="M11.2976 38.7432L11.2423 38.8014L7.6533 38.5047C7.49982 38.4914 7.34178 38.5356 7.21143 38.6268L6.70312 38.9803L6.96383 38.4183C7.09963 38.122 7.2861 37.8531 7.51881 37.6187L7.57493 37.562L12.0188 37.9316L11.8062 38.1816C11.6296 38.3872 11.4629 38.572 11.2976 38.7432V38.7432Z" fill="#797B76"/>
    <path fill-rule="evenodd" clip-rule="evenodd" d="M17.637 39.27L17.5815 39.3279L13.9918 39.03C13.8589 39.0182 13.7274 39.0482 13.6097 39.1115L13.0781 39.4043L13.3832 38.8799C13.5442 38.6021 13.7512 38.3554 13.9957 38.1449L14.0499 38.1001L18.3571 38.4575L18.1445 38.7075C17.969 38.9138 17.8015 39.0973 17.637 39.27V39.27Z" fill="#797B76"/>
    <path fill-rule="evenodd" clip-rule="evenodd" d="M7.18099 46.7435L10.6994 47.0343L10.794 47.0373L10.8613 47.0255C10.9436 47.0102 11.0178 46.9852 11.0824 46.9488L11.1102 46.931L11.122 46.9251C11.7577 46.4966 12.2577 45.8948 12.5691 45.183L12.9237 44.3711L12.8907 45.2568C12.879 45.5751 12.8697 45.8955 12.8609 46.2137L12.8594 46.2634L12.8314 46.3055C12.3318 47.0292 11.7039 47.6422 10.9681 48.1294L10.8708 48.1932L10.8704 48.2391L10.8093 48.2347L10.7002 48.3061L10.7016 48.2251L7.15625 47.9317L7.18129 46.7434L7.18099 46.7435Z" fill="#797B76"/>
    <path fill-rule="evenodd" clip-rule="evenodd" d="M13.5285 48.7874L16.997 49.0743C17.0148 49.0772 17.0303 49.0751 17.0472 49.0757L17.1419 49.0728L17.2003 49.061C17.3079 49.0363 17.3918 49.0021 17.5 48.9074L17.5212 48.8941C18.1157 48.4698 18.5893 47.892 18.8906 47.2244L19.101 46.7573L19.208 47.257C19.2405 47.4092 19.3255 47.5451 19.4447 47.6426L19.5554 47.7326L19.484 47.8562C18.9552 48.7811 18.2039 49.5811 17.3131 50.1717L17.2146 50.2363L17.2147 50.2834L17.1518 50.279L17.0444 50.3507L17.0459 50.2696L13.5039 49.9761L13.5278 48.7885L13.5285 48.7874Z" fill="#797B76"/>
    <path fill-rule="evenodd" clip-rule="evenodd" d="M19.8497 47.795L23.3693 48.085C23.3781 48.085 23.3877 48.0852 23.3976 48.0865L23.4628 48.088L23.5315 48.0748C23.6178 48.0615 23.6951 48.0337 23.748 48.0028C23.7554 47.9969 23.7636 47.9925 23.7717 47.9874L23.7805 47.9801L23.7894 47.9771C24.4305 47.5419 24.9357 46.9311 25.2544 46.2131L25.4245 45.8262C25.4304 45.6792 25.4349 45.5304 25.4434 45.3819L25.4508 45.1977L25.6349 45.223C26.3008 45.3158 26.9917 45.1367 27.5244 44.7342C27.5785 44.6935 27.6283 44.648 27.6791 44.6034L27.7807 44.5132L27.8897 44.5933C27.9642 44.646 28.0211 44.7 28.065 44.7527C28.0896 44.782 28.108 44.811 28.1296 44.848L28.1399 44.8654C28.2603 45.0827 28.2547 45.3351 28.1311 45.56L28.1193 45.5832C28.0097 45.7818 27.8224 45.963 27.5773 46.1064C27.3792 46.2223 27.1469 46.3106 26.9046 46.363C26.5759 46.4358 26.2463 46.4392 25.9533 46.3734C25.8156 46.3433 25.6898 46.2963 25.5769 46.2374L25.5665 46.5194C25.5577 46.7615 25.5493 47.003 25.5419 47.2455L25.5405 47.2957L25.5131 47.3356C25.0116 48.0677 24.3809 48.6879 23.6363 49.1797L23.539 49.244V49.2898L23.477 49.2839L23.3687 49.3567L23.3702 49.2754L19.8262 48.9817L19.8499 47.7937L19.8497 47.795Z" fill="#797B76"/>
    <path fill-rule="evenodd" clip-rule="evenodd" d="M4.96801 38.2193L4.91248 38.277L1.32282 37.9788C1.22178 37.9715 1.11838 37.9877 1.01587 38.0295L0.503906 38.2377L0.812476 37.7787C0.975228 37.5381 1.15476 37.313 1.34579 37.1102L1.40044 37.051L5.69031 37.4071L5.47586 37.6562C5.30309 37.8589 5.13209 38.0483 4.96801 38.2193Z" fill="#797B76"/>
    <path fill-rule="evenodd" clip-rule="evenodd" d="M0.831264 42.8743L4.47943 43.1787L4.53937 43.1778C4.6603 43.1807 4.77991 43.1502 4.88242 43.0922L4.90451 43.0804C5.56819 42.7522 6.10327 42.1859 6.39991 41.5082L6.78818 40.6223L6.7054 41.8247C6.69009 42.0411 6.67565 42.259 6.66284 42.4759L6.65987 42.5156L6.64043 42.5502C6.30079 43.1461 5.80915 43.6432 5.21794 43.9893C4.99981 44.1169 4.76591 44.2244 4.52569 44.3085L4.45453 44.3336L4.45159 44.3647L4.38133 44.3603L4.28031 44.3962L4.28326 44.3519L0.942467 44.0757C0.932157 44.0764 0.920664 44.0757 0.910059 44.0764L0.732422 44.0705L0.83068 42.8735L0.831264 42.8743Z" fill="#797B76"/>
    <path fill-rule="evenodd" clip-rule="evenodd" d="M26.0735 21.793L25.4573 29.21C25.4389 29.4466 25.3051 29.6503 25.092 29.7587C24.8815 29.8655 24.6351 29.8584 24.4313 29.7375L8.04112 19.9404C7.97263 19.898 7.94126 19.8166 7.96644 19.7418C7.9797 19.7014 8.00664 19.6673 8.04184 19.6466C8.07174 19.6291 8.1074 19.6212 8.14334 19.6234L25.4533 21.0602C25.6329 21.0752 25.7969 21.1594 25.9148 21.2978C26.0324 21.437 26.0892 21.6112 26.0735 21.793V21.793ZM2.65214 24.6041L23.2087 39.0293L24.5522 39.1349C24.7541 39.1 24.9466 39.0311 25.1229 38.9279C25.5947 38.6518 25.9021 38.1628 25.9506 37.6174L25.952 37.5907L26.3015 33.377C26.322 33.1392 26.4532 32.9367 26.6674 32.8294C26.8783 32.7209 27.1253 32.7291 27.327 32.8494L30.1511 34.5385L30.2776 34.5027C30.8197 34.3562 31.4028 34.4372 31.8786 34.725C32.3593 35.017 32.7025 35.5004 32.8209 36.0539L32.8573 36.2218L33.0249 36.1818C33.1386 36.1554 33.2478 36.1113 33.3506 36.0513C33.4904 35.9694 33.6142 35.8572 33.7088 35.7269C33.886 35.4794 33.9617 35.1696 33.9164 34.8685L33.9091 34.8233L33.6525 32.7089C33.6192 32.5156 33.4971 32.3597 33.321 32.286C33.1513 32.2142 32.9578 32.2347 32.8032 32.3379L32.7657 32.3728C32.6206 32.5574 32.4504 32.7176 32.2589 32.8477C31.5361 33.3453 30.6241 33.3892 29.86 32.983L29.8266 32.9622L26.863 31.191C26.6427 31.0598 26.5139 30.8095 26.5351 30.5531L27.2545 21.8913C27.2701 21.7093 27.3541 21.5451 27.4922 21.4299C27.6311 21.312 27.8078 21.2562 27.9874 21.2712L31.6948 21.5766L31.4855 21.2821C31.4123 21.1781 31.3756 21.0502 31.3862 20.9259C31.3965 20.7996 31.4523 20.6812 31.5435 20.5877L31.7977 20.3318L6.42198 18.2256L6.41904 18.4077C6.41462 18.9216 6.20944 19.4018 5.84078 19.7615L5.68393 19.9133L24.8927 31.3958C25.1143 31.5283 25.2425 31.7788 25.2215 32.0353L24.7721 37.4305C24.7531 37.671 24.6073 37.8858 24.3839 37.9892C24.1638 38.0922 23.9046 38.0691 23.7068 37.9304L3.15175 23.5081L3.16501 23.8477C3.17384 24.0958 3.05808 24.3273 2.85291 24.4676L2.65039 24.6041H2.65214Z" fill="#00376A"/>
    <path fill-rule="evenodd" clip-rule="evenodd" d="M5.7274 17.4873L6.10386 12.957C6.27648 10.867 7.46199 8.98611 9.27481 7.92536C9.78457 7.62704 10.3318 7.40159 10.9037 7.25258C16.9417 5.68132 23.4034 6.21703 29.0995 8.76246C31.5947 9.878 33.1194 12.4565 32.8927 15.1791L32.5182 19.71C32.4947 19.9836 32.3393 20.2314 32.1006 20.3711C31.9489 20.4598 31.7766 20.4987 31.6023 20.4841L6.5008 18.4014C6.27722 18.3833 6.0716 18.2779 5.92519 18.105C5.78129 17.9347 5.70913 17.7089 5.7274 17.4873V17.4873Z" fill="#ECECEB"/>
    <path fill-rule="evenodd" clip-rule="evenodd" d="M25.779 37.6325L25.7702 37.6193L25.7852 37.5668L26.1344 33.3621C26.1585 33.0676 26.3237 32.8182 26.5919 32.6795C26.8536 32.5448 27.1612 32.5538 27.4142 32.706L30.189 34.364L30.3267 34.3906L29.9653 38.7391C29.9466 38.9648 29.8411 39.1705 29.6683 39.3172C29.6302 39.3485 29.5907 39.3769 29.5486 39.4017C29.398 39.4897 29.2257 39.5286 29.0503 39.5146L24.3125 39.1219L24.8997 38.8532C25.3901 38.6298 25.7225 38.1625 25.7783 37.633L25.779 37.6325Z" fill="#00AEEF"/>
    <path fill-rule="evenodd" clip-rule="evenodd" d="M26.3702 30.5379L27.0883 21.8764C27.1073 21.651 27.2133 21.4464 27.3859 21.3004C27.5571 21.1544 27.778 21.0832 28.0038 21.1025L31.5761 21.398C31.9742 21.4311 32.299 21.7433 32.3466 22.1392L33.4153 30.6272C33.5331 31.5532 33.1268 32.4574 32.3551 32.9869C32.3062 33.0211 32.2542 33.0535 32.2028 33.0835C31.4515 33.5232 30.5436 33.5393 29.7676 33.122L26.7795 31.3362C26.5042 31.1713 26.3427 30.8579 26.3702 30.5379V30.5379Z" fill="#00AEEF"/>
    <path fill-rule="evenodd" clip-rule="evenodd" d="M25.6263 29.2241C25.6037 29.4993 25.4476 29.7454 25.2102 29.8844C25.1969 29.8918 25.1832 29.9002 25.1695 29.9082C24.9072 30.0419 24.5997 30.0327 24.3474 29.8816L7.9547 20.0839C7.81978 20.0026 7.7591 19.8396 7.80756 19.6891C7.85425 19.5418 8.00403 19.4433 8.15692 19.4559L25.4684 20.8918C25.6928 20.9114 25.8976 21.0154 26.0444 21.1881C26.1908 21.361 26.2609 21.5799 26.2422 21.8058L25.6263 29.2241V29.2241Z" fill="#00AEEF"/>
    <path fill-rule="evenodd" clip-rule="evenodd" d="M2.93763 22.6016L4.5036 19.996C4.61613 19.8066 4.80745 19.6638 5.02294 19.6087C5.2424 19.5547 5.47068 19.5868 5.6651 19.7043L24.9822 31.2506C25.2593 31.4159 25.4186 31.7287 25.3927 32.048L24.9442 37.4449C24.9217 37.7201 24.7653 37.9658 24.5265 38.1056C24.5047 38.1188 24.4832 38.1309 24.4585 38.1421C24.1848 38.2714 23.8603 38.243 23.6122 38.0676L3.17757 23.7297C2.81583 23.4754 2.71125 22.9797 2.93763 22.6016V22.6016Z" fill="#00AEEF"/>
    <path fill-rule="evenodd" clip-rule="evenodd" d="M0.612467 36.3036L1.53639 25.1741C1.56231 24.8732 1.74747 24.6045 2.02201 24.4766C2.29655 24.3487 2.62042 24.3761 2.86772 24.55L23.5426 39.0564L1.38821 37.2183C1.16227 37.1998 0.956667 37.0943 0.810263 36.9213C0.663565 36.7487 0.59332 36.5296 0.612467 36.3036Z" fill="#ECECEB"/>
    <path fill-rule="evenodd" clip-rule="evenodd" d="M28.3369 48.9763C28.3355 48.5262 28.3371 48.0755 28.3428 47.6258L28.3487 47.1453L28.3496 47.1468C28.3525 47.0361 28.354 46.9239 28.357 46.813L28.3599 46.6055L28.3585 46.6026L28.3614 46.541C28.3816 45.9853 28.2528 45.4323 27.9883 44.9431L27.978 44.9277C27.9628 44.9018 27.9453 44.8777 27.9262 44.8543C27.8992 44.8209 27.8602 44.7857 27.8095 44.7458L27.6602 44.6298L27.7929 44.4936C28.202 44.0794 28.4596 43.5391 28.5185 42.9682L28.5193 42.9509C28.5598 42.2775 28.6088 41.5958 28.6645 40.9295C28.6801 40.7477 28.6237 40.5732 28.5059 40.4348C28.4074 40.3156 28.2704 40.2376 28.1113 40.2086L27.9612 40.1818L28.0366 39.2603L29.0665 39.3454C29.2462 39.3609 29.4254 39.3032 29.5615 39.1873C29.7001 39.0695 29.7843 38.9054 29.7992 38.726L29.9795 36.571L30.1623 34.3584L30.2791 34.3282C30.86 34.1849 31.46 34.2739 31.9677 34.5813C32.5177 34.9145 32.8967 35.4685 33.0085 36.1106L34.2271 46.0576L34.2286 46.0766C34.4665 47.5027 33.8141 48.8948 32.5656 49.6254C32.5098 49.6579 32.452 49.6899 32.395 49.7196C31.061 50.402 29.4504 50.1506 28.3847 49.0959L28.3356 49.0461L28.3371 48.9763H28.3369Z" fill="#00376A"/>
    <path fill-rule="evenodd" clip-rule="evenodd" d="M25.4092 46.2341L25.4195 45.9681L25.6551 46.0904C25.7605 46.1467 25.883 46.1881 26.0181 46.2162C26.2821 46.2692 26.5777 46.2639 26.8686 46.2011C27.3523 46.0946 27.7847 45.8251 27.962 45.5194L27.9884 45.4712C28.005 45.4378 28.0181 45.4008 28.0298 45.3612L28.1782 44.856L28.3513 45.3532C28.4862 45.7456 28.5477 46.1523 28.5295 46.563L28.5369 46.5823L28.5281 46.6039C28.5114 47.3527 28.5024 48.137 28.5045 48.9984L28.5042 49.0224C28.5057 50.124 28.5261 51.1991 28.5615 52.2048L28.5644 52.2377L28.5643 52.2436C28.6197 52.9665 28.2682 53.6416 27.6431 54.0073C27.6106 54.0265 27.5773 54.0444 27.5431 54.0605C26.87 54.4031 26.0602 54.3113 25.4818 53.8236L25.4256 53.7766L25.4212 53.7024C25.3195 51.2591 25.3154 48.7461 25.4094 46.2343L25.4092 46.2341Z" fill="#ECECEB"/>
    <path fill-rule="evenodd" clip-rule="evenodd" d="M19.0001 49.6696C18.9971 49.4322 19.0973 49.2047 19.2712 49.0448C19.4443 48.8836 19.6807 48.8013 19.9175 48.821L23.4614 49.1153C23.9035 49.1514 24.2377 49.5145 24.2392 49.9579C24.248 52.6514 24.3756 55.3802 24.6139 58.0669C24.6565 58.5407 24.4875 59.0073 24.1523 59.3454C24.0529 59.4437 23.9415 59.5308 23.8225 59.6004C23.5349 59.7687 23.2083 59.8417 22.8755 59.8142L20.8936 59.6509C20.1161 59.5854 19.4961 58.9744 19.4235 58.1976C19.1554 55.3734 19.0123 52.5049 19.0001 49.6696V49.6696Z" fill="#ECECEB"/>
    <path fill-rule="evenodd" clip-rule="evenodd" d="M12.678 50.6755C12.6721 50.4364 12.77 50.2046 12.9449 50.0403C13.1188 49.877 13.3586 49.7947 13.5954 49.8144L17.1384 50.1073C17.5735 50.144 17.9074 50.5 17.9164 50.9348L17.917 50.951C17.9679 53.6222 18.1353 56.3182 18.4124 58.9679C18.4619 59.4466 18.297 59.9178 17.9601 60.2624C17.86 60.3652 17.7458 60.4532 17.6223 60.5255C17.335 60.6937 17.0089 60.7683 16.6761 60.7408L14.7027 60.576C13.936 60.5136 13.3184 59.9124 13.2353 59.1491C12.9241 56.3446 12.7373 53.4942 12.678 50.6755Z" fill="#ECECEB"/>
    <path fill-rule="evenodd" clip-rule="evenodd" d="M6.33209 48.6199C6.32915 48.3825 6.42976 48.1548 6.60282 47.9935C6.77677 47.8336 7.0142 47.7508 7.24927 47.7701L10.7953 48.0646C11.2356 48.1017 11.5693 48.4632 11.571 48.9044C11.5813 51.2333 11.6798 53.5894 11.8627 55.9101C11.9006 56.3818 11.7286 56.8443 11.3929 57.1791C11.2966 57.2757 11.1873 57.3595 11.0708 57.4277C10.7831 57.596 10.4551 57.6699 10.1237 57.6415L8.13534 57.4765C7.34971 57.4122 6.73066 56.7933 6.66321 56.0066C6.45833 53.5583 6.34712 51.0736 6.33209 48.6199V48.6199Z" fill="#ECECEB"/>
    <path fill-rule="evenodd" clip-rule="evenodd" d="M0.0380898 50.2207C-0.0137555 48.4 -0.0125788 46.5522 0.041034 44.7257C0.0483984 44.4946 0.151357 44.274 0.324863 44.1194C0.494538 43.9674 0.729919 43.8879 0.959246 43.9065L4.50754 44.2017C4.95721 44.2388 5.29937 44.6212 5.28464 45.0719C5.23176 46.8102 5.22632 48.5695 5.26992 50.3021C5.28023 50.758 5.09686 51.2003 4.76487 51.5132C4.67591 51.5979 4.57796 51.6697 4.47221 51.7316C4.18456 51.8999 3.85728 51.9748 3.52456 51.9477L1.51495 51.7803C0.695584 51.712 0.061084 51.042 0.0373707 50.2207H0.0380898Z" fill="#ECECEB"/>
    <path fill-rule="evenodd" clip-rule="evenodd" d="M17.9011 48.4052C17.8996 48.6392 17.7992 48.8654 17.6247 49.024C17.5821 49.0633 17.5336 49.0992 17.4837 49.1284C17.3302 49.2182 17.1582 49.2568 16.984 49.2422L13.4368 48.9483C12.9985 48.9119 12.6574 48.5379 12.6602 48.0975C12.6774 45.2791 12.824 42.4291 13.0922 39.6257C13.0966 39.5798 13.1054 39.5362 13.1196 39.486C13.1255 39.4679 13.1314 39.4499 13.1378 39.4333L13.1452 39.4068C13.2764 39.0646 13.6391 38.8319 14.0043 38.8623L17.556 39.1571C17.7798 39.1755 17.9913 39.285 18.1358 39.457C18.2808 39.6302 18.3503 39.8575 18.3293 40.0826C18.0659 42.8358 17.9213 45.6358 17.9007 48.4052H17.9011Z" fill="#ECECEB"/>
    <path fill-rule="evenodd" clip-rule="evenodd" d="M24.2659 47.4294C24.2614 47.6615 24.1586 47.8838 23.9854 48.0392C23.9437 48.0764 23.8968 48.1115 23.848 48.1401C23.696 48.229 23.5225 48.2684 23.3487 48.254L19.8004 47.9588C19.3549 47.9227 19.0145 47.5433 19.0236 47.0958C19.0746 44.7852 19.2139 42.4486 19.4332 40.1526C19.4593 39.8827 19.6147 39.6384 19.8506 39.5004C20.001 39.4124 20.1735 39.3735 20.3474 39.3884L23.8972 39.6827C24.1227 39.7015 24.333 39.8112 24.4775 39.9837C24.622 40.1558 24.692 40.3837 24.6715 40.6072C24.4559 42.8663 24.3195 45.1614 24.2659 47.4294V47.4294Z" fill="#ECECEB"/>
    <path fill-rule="evenodd" clip-rule="evenodd" d="M27.3603 45.0452C26.8313 45.3548 26.2043 45.4776 25.5951 45.3884L25.4434 45.366L25.4507 45.2142C25.5242 43.6694 25.6326 42.1446 25.7736 40.6755C25.7745 40.6637 25.7751 40.654 25.7795 40.6427C25.8153 40.3835 25.9664 40.16 26.1931 40.0275C26.3436 39.9394 26.5136 39.8999 26.6865 39.9154L28.0578 40.0285C28.2837 40.0472 28.4878 40.1535 28.6338 40.3246C28.7805 40.4973 28.8512 40.7181 28.8325 40.9439C28.7752 41.614 28.7267 42.2961 28.6864 42.9766C28.6113 43.7248 28.2249 44.415 27.624 44.8688C27.5393 44.9327 27.4505 44.9922 27.3599 45.0452H27.3603Z" fill="#ECECEB"/>
    <path fill-rule="evenodd" clip-rule="evenodd" d="M11.5948 46.3759C11.5889 46.6086 11.4871 46.8319 11.3142 46.9877C11.2711 47.0259 11.2254 47.06 11.1752 47.0895C11.0246 47.1775 10.8513 47.217 10.6769 47.2024L7.12976 46.9085C6.68348 46.8714 6.34148 46.4924 6.35179 46.0463C6.40113 43.737 6.53471 41.3997 6.75284 39.1009C6.77847 38.8309 6.93431 38.5869 7.17026 38.4488C7.32064 38.3607 7.49267 38.3222 7.66706 38.3367L11.2177 38.63C11.4423 38.6499 11.6537 38.759 11.7982 38.931C11.9414 39.1043 12.0123 39.3318 11.991 39.5556C11.7774 41.8156 11.6446 44.1101 11.5948 46.3759V46.3759Z" fill="#ECECEB"/>
    <path fill-rule="evenodd" clip-rule="evenodd" d="M5.39467 42.5508C5.38142 42.7769 5.2764 42.9931 5.10525 43.1424C5.06504 43.1762 5.02293 43.2068 4.97816 43.2331C4.82763 43.3211 4.65072 43.3606 4.47869 43.3466L0.928924 43.0524C0.46762 43.0131 0.12532 42.6219 0.151832 42.1603C0.219731 40.9707 0.309885 39.7656 0.42359 38.576C0.449366 38.3064 0.605333 38.0623 0.84114 37.9243C0.991667 37.8362 1.16399 37.7973 1.33764 37.8118L4.88756 38.1061C5.11129 38.1245 5.32265 38.2336 5.46787 38.4071C5.61236 38.5792 5.68277 38.8054 5.66171 39.0307C5.5508 40.1968 5.46139 41.381 5.39467 42.5508V42.5508Z" fill="#ECECEB"/>
    <path fill-rule="evenodd" clip-rule="evenodd" d="M32.444 41.2636L32.403 40.9292C32.3971 40.8832 32.4295 40.8407 32.4758 40.8354C32.5219 40.8295 32.5643 40.8621 32.5701 40.9093L32.6103 41.2426C32.6147 41.2782 32.5985 41.3096 32.5701 41.3262C32.5612 41.3321 32.5496 41.3351 32.5377 41.3365C32.4899 41.3424 32.4494 41.3098 32.444 41.264V41.2636Z" fill="#ECECEB"/>
    <path fill-rule="evenodd" clip-rule="evenodd" d="M32.5263 41.9311L32.4854 41.5968C32.478 41.5515 32.5125 41.51 32.559 41.5046C32.6039 41.4987 32.6472 41.5314 32.6521 41.5772L32.6932 41.9118C32.6976 41.9463 32.6814 41.9772 32.6524 41.9938C32.6436 41.9997 32.6313 42.0042 32.6209 42.0056C32.5733 42.0115 32.5318 41.9779 32.5263 41.9314V41.9311Z" fill="#ECECEB"/>
    <path fill-rule="evenodd" clip-rule="evenodd" d="M32.3623 40.5944L32.3213 40.26C32.3139 40.2145 32.3483 40.1728 32.3944 40.1677C32.4399 40.1618 32.4829 40.1943 32.4881 40.2404L32.5291 40.5751C32.5321 40.6093 32.5174 40.6405 32.4883 40.6571C32.478 40.663 32.4671 40.6674 32.4564 40.6689C32.409 40.6748 32.3674 40.6405 32.3623 40.5944V40.5944Z" fill="#ECECEB"/>
    <path fill-rule="evenodd" clip-rule="evenodd" d="M32.2808 39.927L32.2393 39.5924C32.2319 39.5472 32.2659 39.5039 32.3122 39.4992C32.3585 39.4948 32.4003 39.5256 32.4057 39.5715L32.4468 39.9062C32.4513 39.9404 32.4336 39.9741 32.4065 39.9898C32.3976 39.9957 32.3847 39.9987 32.3741 40.0002C32.3266 40.0061 32.2855 39.9737 32.2808 39.9273V39.927Z" fill="#ECECEB"/>
    <path fill-rule="evenodd" clip-rule="evenodd" d="M32.1985 39.258L32.1572 38.9231C32.1499 38.8779 32.1848 38.8361 32.2298 38.83C32.2761 38.8241 32.3189 38.8577 32.3242 38.9038L32.365 39.2382C32.3695 39.2728 32.3518 39.3048 32.3244 39.3205C32.3141 39.3264 32.3032 39.3309 32.2912 39.3323C32.2451 39.3368 32.2035 39.3037 32.1985 39.2576V39.258Z" fill="#ECECEB"/>
    <path fill-rule="evenodd" clip-rule="evenodd" d="M32.8537 44.6044L32.8135 44.2712C32.8061 44.2244 32.8401 44.1827 32.8858 44.1777C32.9317 44.1718 32.9743 44.2044 32.9794 44.2504L33.0207 44.5851C33.0251 44.619 33.0089 44.6505 32.9798 44.6671C32.9695 44.673 32.96 44.6774 32.9481 44.6774C32.902 44.6833 32.8597 44.6513 32.8537 44.6037V44.6044Z" fill="#ECECEB"/>
    <path fill-rule="evenodd" clip-rule="evenodd" d="M32.9773 45.6081C32.9714 45.5605 33.0038 45.5196 33.0499 45.5144C33.0952 45.5071 33.1381 45.5412 33.1431 45.587L33.1845 45.9214C33.1874 45.9562 33.1713 45.9871 33.1434 46.0037C33.1331 46.0096 33.1234 46.014 33.1119 46.0155C33.0658 46.0214 33.0232 45.9888 33.0173 45.9413L32.9773 45.6083V45.6081Z" fill="#ECECEB"/>
    <path fill-rule="evenodd" clip-rule="evenodd" d="M32.1158 38.5908L32.0749 38.2564C32.069 38.2105 32.1026 38.1672 32.1488 38.162C32.1949 38.1576 32.2374 38.1887 32.2425 38.2347L32.2836 38.5696C32.2866 38.6036 32.2704 38.6372 32.2433 38.6532C32.2344 38.6591 32.2212 38.662 32.2092 38.6635C32.163 38.6679 32.122 38.6361 32.1158 38.5906V38.5908Z" fill="#ECECEB"/>
    <path fill-rule="evenodd" clip-rule="evenodd" d="M32.9363 45.2733L32.8949 44.939C32.8905 44.8924 32.9225 44.852 32.9677 44.8454C33.0138 44.841 33.0562 44.8721 33.0621 44.9192L33.1023 45.2525C33.1067 45.2882 33.0905 45.3195 33.0619 45.3362C33.0531 45.3421 33.0416 45.345 33.0295 45.3465C32.984 45.3523 32.9415 45.3197 32.9363 45.2736V45.2733Z" fill="#ECECEB"/>
    <path fill-rule="evenodd" clip-rule="evenodd" d="M32.7725 43.9368L32.7311 43.6023C32.7253 43.5562 32.7585 43.5153 32.8041 43.509C32.8502 43.5045 32.8924 43.5353 32.8983 43.5829L32.9387 43.9161C32.9431 43.9517 32.9269 43.9831 32.8983 43.9997C32.888 44.0056 32.8779 44.0086 32.8659 44.01C32.8194 44.0174 32.7774 43.9835 32.7725 43.9372V43.9368Z" fill="#ECECEB"/>
    <path fill-rule="evenodd" clip-rule="evenodd" d="M32.608 42.6001L32.5671 42.2657C32.5612 42.2203 32.5946 42.1787 32.6399 42.172C32.686 42.1676 32.7284 42.1987 32.7342 42.2464L32.7747 42.5795C32.7791 42.6148 32.7629 42.6465 32.7343 42.6633C32.7255 42.6692 32.7123 42.6721 32.7017 42.6721C32.655 42.6795 32.6135 42.6453 32.608 42.5994V42.6001Z" fill="#ECECEB"/>
    <path fill-rule="evenodd" clip-rule="evenodd" d="M32.6897 43.2679L32.6495 42.9346C32.6421 42.8879 32.6757 42.8462 32.7218 42.8411C32.7675 42.8337 32.8103 42.8678 32.8155 42.9138L32.8564 43.2483C32.8608 43.2826 32.8446 43.314 32.8158 43.3306C32.8055 43.3365 32.7956 43.3409 32.7841 43.3424C32.7364 43.3483 32.6948 43.3145 32.6897 43.2685V43.2679Z" fill="#ECECEB"/>
    <path fill-rule="evenodd" clip-rule="evenodd" d="M31.8706 36.5855L31.8365 36.2998C31.8203 36.2037 31.7926 36.1106 31.7505 36.0225C31.7294 35.9804 31.7508 35.9296 31.7889 35.9108C31.8313 35.89 31.8817 35.9079 31.9007 35.9493C31.9397 36.0286 31.9647 36.1121 31.9861 36.1979C31.992 36.2068 31.9964 36.219 31.9979 36.2306L32.0038 36.2768C32.0045 36.2813 32.0067 36.2872 32.0067 36.2953C32.0082 36.2982 32.0057 36.2997 32.0066 36.3011L32.0394 36.5659C32.0424 36.5999 32.0247 36.632 31.998 36.6481C31.9877 36.6539 31.9762 36.6569 31.9655 36.6598C31.9191 36.6642 31.8776 36.631 31.8709 36.5856L31.8706 36.5855Z" fill="#ECECEB"/>
    <path fill-rule="evenodd" clip-rule="evenodd" d="M31.9521 37.2542L31.9108 36.9201C31.9049 36.8736 31.939 36.8308 31.9851 36.8256C32.0312 36.8212 32.0721 36.853 32.0785 36.8985L32.1197 37.2326C32.1241 37.2672 32.105 37.299 32.0785 37.3147C32.0682 37.3206 32.0576 37.325 32.0455 37.328C31.9994 37.3324 31.9584 37.3004 31.9521 37.2549V37.2542Z" fill="#ECECEB"/>
    <path fill-rule="evenodd" clip-rule="evenodd" d="M32.0336 37.922L31.9928 37.5878C31.987 37.5415 32.0214 37.5 32.0666 37.4933C32.1127 37.4875 32.156 37.5213 32.161 37.5671L32.2021 37.9018C32.2065 37.9364 32.1889 37.9681 32.1612 37.9838C32.1523 37.9897 32.1398 37.9956 32.1283 37.9956C32.0822 38 32.0406 37.9671 32.0336 37.9214V37.922Z" fill="#ECECEB"/>
    <path fill-rule="evenodd" clip-rule="evenodd" d="M31.0927 35.4672C31.0761 35.4775 31.0556 35.4819 31.0348 35.4774C30.932 35.4571 30.8282 35.4545 30.7248 35.4672C30.6797 35.473 30.6367 35.4404 30.6316 35.3943C30.6257 35.3482 30.6581 35.3057 30.7039 35.3009C30.8242 35.285 30.9463 35.2891 31.0656 35.3112C31.1116 35.3185 31.1412 35.3632 31.1323 35.41C31.1279 35.4343 31.113 35.4542 31.0927 35.4661V35.4672Z" fill="#ECECEB"/>
    <path fill-rule="evenodd" clip-rule="evenodd" d="M31.6927 35.7706C31.6868 35.7764 31.6823 35.7809 31.6765 35.7838C31.6439 35.8028 31.6004 35.797 31.5733 35.7691C31.5014 35.6931 31.4194 35.6299 31.3279 35.5797C31.2861 35.5585 31.2706 35.5076 31.2944 35.4663C31.316 35.4264 31.3677 35.411 31.4076 35.4328C31.514 35.4906 31.6118 35.5644 31.6947 35.6525C31.7271 35.6866 31.7257 35.7401 31.6932 35.7702L31.6927 35.7706Z" fill="#ECECEB"/>
    <path fill-rule="evenodd" clip-rule="evenodd" d="M33.0852 46.4894C33.0822 46.4424 33.1168 46.4034 33.1641 46.3996C33.2096 46.3966 33.2498 46.4312 33.2535 46.4782C33.2609 46.5939 33.2609 46.7109 33.2522 46.8269C33.2507 46.8549 33.2338 46.8795 33.2108 46.8929C33.1956 46.9017 33.1799 46.9061 33.1606 46.9031C33.1146 46.8987 33.0803 46.8594 33.0843 46.8135C33.0917 46.7053 33.0917 46.596 33.0852 46.4888V46.4894Z" fill="#ECECEB"/>
    <path fill-rule="evenodd" clip-rule="evenodd" d="M32.1704 48.467C32.2562 48.4024 32.3387 48.3323 32.4163 48.2562C32.4493 48.2219 32.5028 48.2233 32.5343 48.256C32.5669 48.2896 32.5672 48.3426 32.5353 48.3756C32.452 48.457 32.3633 48.5328 32.2693 48.6022C32.2664 48.6036 32.2635 48.6051 32.2605 48.6066C32.224 48.6281 32.1768 48.6184 32.1515 48.5851C32.1235 48.5464 32.1313 48.4946 32.1696 48.4667L32.1704 48.467Z" fill="#ECECEB"/>
    <path fill-rule="evenodd" clip-rule="evenodd" d="M33.0363 47.1343C33.0467 47.0889 33.0914 47.0604 33.1358 47.0707C33.1817 47.081 33.21 47.1255 33.1993 47.1699C33.1754 47.2842 33.1417 47.3946 33.1004 47.5046C33.0931 47.5234 33.0799 47.5385 33.0637 47.5481C33.0434 47.5598 33.0163 47.5629 32.9925 47.5539C32.9486 47.5374 32.9266 47.4881 32.9428 47.4445C32.9807 47.344 33.0126 47.2399 33.0363 47.1347V47.1343Z" fill="#ECECEB"/>
    <path fill-rule="evenodd" clip-rule="evenodd" d="M32.6303 48.011C32.6949 47.9257 32.7543 47.8347 32.8058 47.7387C32.8279 47.6983 32.8802 47.6827 32.9212 47.7058C32.962 47.7291 32.9754 47.7799 32.9541 47.8216C32.8983 47.9212 32.8344 48.0206 32.7643 48.1128C32.7569 48.1216 32.7484 48.129 32.7388 48.1346C32.7104 48.1512 32.6739 48.1508 32.6465 48.1287C32.6099 48.101 32.6021 48.0495 32.6303 48.0112V48.011Z" fill="#ECECEB"/>
    <path fill-rule="evenodd" clip-rule="evenodd" d="M29.6024 48.6614C29.6254 48.6201 29.6752 48.6058 29.7161 48.629C29.8116 48.6804 29.9097 48.7266 30.0104 48.7646C30.0545 48.7805 30.076 48.8298 30.0598 48.8735C30.0524 48.8927 30.0387 48.9062 30.0225 48.9158C30.0022 48.9276 29.9755 48.9323 29.9512 48.9217C29.8419 48.8818 29.7366 48.8323 29.6344 48.7756C29.594 48.7535 29.5801 48.7016 29.6024 48.6618V48.6614Z" fill="#ECECEB"/>
    <path fill-rule="evenodd" clip-rule="evenodd" d="M30.9675 48.9079C31.0758 48.9006 31.1842 48.8863 31.2888 48.8632C31.3349 48.8543 31.3791 48.8833 31.3892 48.9285C31.3951 48.9646 31.3804 49.0008 31.3492 49.019C31.3433 49.0234 31.3334 49.0263 31.3235 49.0278C31.2107 49.0521 31.0942 49.0677 30.9786 49.0754C30.9328 49.0783 30.8925 49.0437 30.8887 48.9964C30.8872 48.9502 30.9216 48.9101 30.9675 48.9072V48.9079Z" fill="#ECECEB"/>
    <path fill-rule="evenodd" clip-rule="evenodd" d="M30.3213 48.8572C30.4263 48.8815 30.5359 48.8973 30.6427 48.9059C30.6893 48.9103 30.7236 48.9498 30.72 48.9971C30.7171 49.0243 30.7009 49.0484 30.6779 49.0618C30.6646 49.0707 30.6471 49.0751 30.6302 49.0736C30.514 49.0648 30.398 49.0477 30.2849 49.0225C30.2396 49.0122 30.2111 48.9674 30.2206 48.9218C30.2323 48.8756 30.2755 48.8479 30.3213 48.8573V48.8572Z" fill="#ECECEB"/>
    <path fill-rule="evenodd" clip-rule="evenodd" d="M31.6005 48.7735C31.6858 48.742 31.7712 48.7049 31.8541 48.6634L31.8959 48.6409C31.9372 48.6188 31.9883 48.6335 32.01 48.6743C32.0318 48.7142 32.0173 48.7646 31.9793 48.7865C31.9779 48.7874 31.9764 48.788 31.9764 48.788L31.9294 48.8139C31.8419 48.8576 31.7509 48.8979 31.6583 48.9323C31.6143 48.9471 31.567 48.9249 31.5499 48.8812C31.534 48.8379 31.5573 48.789 31.6 48.7734L31.6005 48.7735Z" fill="#ECECEB"/>
    <path fill-rule="evenodd" clip-rule="evenodd" d="M10.9281 5.20305C10.9251 5.2322 10.9089 5.25446 10.8857 5.26816C10.8709 5.27699 10.8537 5.28139 10.8359 5.27845C10.7899 5.27403 10.7556 5.23458 10.7602 5.18629C10.7705 5.07423 10.782 4.96264 10.7937 4.85206C10.7996 4.80479 10.8412 4.77104 10.8865 4.77738C10.9326 4.78179 10.9662 4.82361 10.9622 4.8694C10.949 4.98087 10.9373 5.09147 10.9281 5.20264V5.20305Z" fill="#ECECEB"/>
    <path fill-rule="evenodd" clip-rule="evenodd" d="M10.8751 5.87236C10.8736 5.90107 10.857 5.92519 10.834 5.93859C10.8188 5.94742 10.8032 5.95188 10.7862 5.95041C10.7395 5.94893 10.7043 5.90693 10.7072 5.86202C10.7131 5.7485 10.7225 5.63631 10.7309 5.52367C10.7353 5.47803 10.7751 5.44373 10.8211 5.44756C10.8673 5.4505 10.9016 5.49129 10.8973 5.53738C10.89 5.64913 10.8826 5.76089 10.8751 5.87249V5.87236Z" fill="#ECECEB"/>
    <path fill-rule="evenodd" clip-rule="evenodd" d="M11.4929 1.9009C11.4856 1.92313 11.4717 1.94256 11.4529 1.95361C11.4352 1.96391 11.4124 1.96834 11.3898 1.96098C11.3455 1.95067 11.3171 1.9053 11.3288 1.8601C11.3555 1.74967 11.4794 1.32445 11.5084 1.21461C11.5202 1.16955 11.5666 1.14378 11.6111 1.15453C11.6559 1.16778 11.6828 1.2143 11.6701 1.25788C11.6411 1.36434 11.5193 1.7903 11.4929 1.90058V1.9009Z" fill="#ECECEB"/>
    <path fill-rule="evenodd" clip-rule="evenodd" d="M10.9993 4.53661C10.9963 4.56459 10.9798 4.58636 10.9579 4.59903C10.9428 4.60786 10.925 4.61079 10.9056 4.60932C10.8589 4.60343 10.8266 4.56089 10.8328 4.51554C10.8461 4.40422 10.86 4.2916 10.8767 4.18014C10.8826 4.13479 10.9259 4.10224 10.9713 4.10842C11.0175 4.11578 11.0492 4.15757 11.043 4.20292C11.028 4.31394 11.0134 4.42632 10.9993 4.53616V4.53661Z" fill="#ECECEB"/>
    <path fill-rule="evenodd" clip-rule="evenodd" d="M10.8352 6.95137C10.8343 6.98126 10.8186 7.00687 10.7941 7.02116C10.7809 7.02852 10.7645 7.03293 10.7498 7.03293C10.7031 7.03146 10.6661 6.99261 10.668 6.94593C10.671 6.83344 10.6828 6.31157 10.6876 6.19937C10.6891 6.15255 10.7303 6.11632 10.7763 6.12015C10.8227 6.1231 10.8583 6.1611 10.8564 6.20778C10.8505 6.31895 10.839 6.84032 10.8352 6.95164V6.95137Z" fill="#ECECEB"/>
    <path fill-rule="evenodd" clip-rule="evenodd" d="M11.0934 3.87246C11.089 3.89837 11.0741 3.91991 11.0523 3.93272C11.036 3.94302 11.0165 3.94595 10.9969 3.94301C10.9504 3.93564 10.9192 3.89163 10.927 3.84554C10.9442 3.73511 10.9608 3.62362 10.9807 3.51172C10.9896 3.4671 11.0317 3.43678 11.0778 3.44458C11.1242 3.45195 11.1552 3.49551 11.147 3.54057C11.128 3.65144 11.1106 3.76176 11.0934 3.87219V3.87246Z" fill="#ECECEB"/>
    <path fill-rule="evenodd" clip-rule="evenodd" d="M11.3382 2.55282C11.3323 2.57785 11.3185 2.59716 11.2982 2.60894C11.2805 2.61925 11.2589 2.62365 11.2384 2.61923C11.1917 2.60893 11.164 2.56447 11.1739 2.51853C11.197 2.40883 11.2222 2.29927 11.2487 2.18942C11.2575 2.14363 11.3035 2.11521 11.3502 2.12611C11.3947 2.13641 11.4226 2.18192 11.4107 2.22712C11.3859 2.33638 11.3617 2.44488 11.3382 2.5534V2.55282Z" fill="#ECECEB"/>
    <path fill-rule="evenodd" clip-rule="evenodd" d="M11.2058 3.21149C11.2028 3.23549 11.1865 3.25549 11.1657 3.26757C11.1483 3.27787 11.129 3.28232 11.1082 3.2779C11.062 3.27054 11.0324 3.22561 11.0404 3.1807C11.0608 3.06894 11.0823 2.95968 11.1044 2.84836C11.1147 2.80301 11.1586 2.77312 11.2046 2.78284C11.2504 2.79168 11.2791 2.83555 11.2703 2.88237C11.2486 2.99193 11.227 3.1009 11.2058 3.21149V3.21149Z" fill="#ECECEB"/>
    <path fill-rule="evenodd" clip-rule="evenodd" d="M28.8444 47.9187C28.8819 47.8894 28.9338 47.8976 28.9624 47.9335L29.1695 48.1999C29.174 48.2058 29.1784 48.2147 29.1813 48.2226C29.1887 48.227 29.1965 48.23 29.2024 48.2375C29.2781 48.3133 29.36 48.3854 29.4464 48.4515C29.4825 48.4795 29.4902 48.5331 29.4622 48.5694C29.4549 48.5782 29.4466 48.5858 29.4385 48.5905C29.4101 48.6073 29.3727 48.6054 29.3447 48.5861C29.2519 48.5149 29.1651 48.438 29.082 48.3556C29.0747 48.3467 29.0688 48.3361 29.0645 48.3256C29.0542 48.3197 29.0439 48.3124 29.0371 48.3034L28.83 48.0371C28.8016 48.0011 28.8086 47.948 28.8449 47.9192L28.8444 47.9187Z" fill="#ECECEB"/>
    <path fill-rule="evenodd" clip-rule="evenodd" d="M29.6047 3.8803C29.6106 3.99309 29.6164 4.10617 29.621 4.21867C29.6225 4.25018 29.605 4.27859 29.5792 4.29375C29.5674 4.30112 29.5547 4.30406 29.5408 4.30553C29.4945 4.307 29.4553 4.27168 29.4537 4.22559C29.4478 4.11398 29.4434 4.00238 29.4356 3.89032C29.4343 3.84394 29.4695 3.80491 29.515 3.80211C29.5623 3.7977 29.6019 3.83507 29.6047 3.88057V3.8803Z" fill="#ECECEB"/>
    <path fill-rule="evenodd" clip-rule="evenodd" d="M29.5547 3.20601C29.565 3.3188 29.574 3.43143 29.5815 3.54348C29.5844 3.57676 29.5668 3.60649 29.54 3.62239C29.5297 3.62828 29.517 3.63273 29.503 3.63273C29.4572 3.63567 29.417 3.60118 29.413 3.55436C29.4071 3.44348 29.3964 3.33275 29.3871 3.22026C29.3827 3.17343 29.418 3.13312 29.4632 3.13002C29.5093 3.12561 29.5497 3.15977 29.5547 3.20556V3.20601Z" fill="#ECECEB"/>
    <path fill-rule="evenodd" clip-rule="evenodd" d="M29.6329 4.55551C29.6359 4.66874 29.6374 4.78039 29.6403 4.89348C29.6403 4.92469 29.6237 4.95237 29.5979 4.96753C29.5861 4.9749 29.572 4.97931 29.5572 4.97931C29.5102 4.9796 29.4714 4.94192 29.4723 4.89613C29.4708 4.78451 29.4678 4.67259 29.4649 4.56009C29.4634 4.514 29.5007 4.47555 29.5472 4.47363C29.5944 4.47349 29.6318 4.50956 29.6337 4.55609L29.6329 4.55551Z" fill="#ECECEB"/>
    <path fill-rule="evenodd" clip-rule="evenodd" d="M29.5236 2.87004C29.5266 2.90405 29.5089 2.93464 29.4815 2.95069C29.4712 2.95658 29.4603 2.96099 29.4486 2.96246C29.4019 2.96688 29.361 2.93393 29.3558 2.88769C29.3455 2.77594 29.331 2.66563 29.319 2.55447C29.3131 2.50838 29.3467 2.46526 29.3928 2.46011C29.4389 2.45569 29.4808 2.4891 29.4858 2.53474C29.4975 2.64605 29.5111 2.75872 29.5236 2.87004V2.87004Z" fill="#ECECEB"/>
    <path fill-rule="evenodd" clip-rule="evenodd" d="M29.5043 7.59205C29.4999 7.61943 29.485 7.64301 29.4632 7.65567C29.4483 7.6645 29.429 7.6689 29.4112 7.66596C29.3645 7.66007 29.3312 7.62004 29.3365 7.57322C29.3483 7.4625 29.3599 7.35205 29.3708 7.24001C29.3752 7.19393 29.4162 7.15893 29.4633 7.16408C29.5096 7.1685 29.5424 7.2091 29.5381 7.25533C29.5278 7.36826 29.5175 7.48032 29.5043 7.59178V7.59205Z" fill="#ECECEB"/>
    <path fill-rule="evenodd" clip-rule="evenodd" d="M29.5686 6.91898C29.5657 6.94813 29.5486 6.97229 29.5272 6.9848C29.512 6.99364 29.4948 6.99804 29.477 6.99509C29.4311 6.99067 29.3967 6.95121 29.4007 6.90527C29.4081 6.79366 29.4176 6.6825 29.4252 6.57074C29.4266 6.52407 29.4682 6.48919 29.5135 6.49184C29.5599 6.49479 29.5953 6.53484 29.5923 6.58225C29.585 6.69385 29.577 6.80562 29.5686 6.91826V6.91898Z" fill="#ECECEB"/>
    <path fill-rule="evenodd" clip-rule="evenodd" d="M29.3688 8.61865C29.3658 8.64427 29.3498 8.6665 29.3278 8.67931C29.3116 8.68815 29.2935 8.69259 29.2736 8.68965C29.2283 8.68376 29.1957 8.64045 29.2019 8.5951C29.2171 8.48453 29.2828 8.01835 29.2959 7.90689C29.3018 7.86125 29.3442 7.82756 29.3895 7.83374C29.4364 7.83963 29.4688 7.8817 29.4636 7.92882C29.4484 8.0394 29.3847 8.50617 29.3688 8.6191V8.61865Z" fill="#ECECEB"/>
    <path fill-rule="evenodd" clip-rule="evenodd" d="M29.6357 5.56916C29.636 5.60023 29.6188 5.62673 29.5945 5.64102C29.5827 5.64838 29.5662 5.65131 29.5499 5.65131C29.5033 5.64983 29.4669 5.61245 29.4668 5.56548C29.4697 5.45475 29.4698 5.34122 29.4712 5.23035C29.4727 5.18352 29.5107 5.14522 29.5566 5.14551C29.6022 5.14625 29.6409 5.18364 29.6409 5.2312C29.6402 5.34429 29.6379 5.45649 29.6365 5.5684L29.6357 5.56916Z" fill="#ECECEB"/>
    <path fill-rule="evenodd" clip-rule="evenodd" d="M29.6107 6.24575C29.6093 6.27417 29.5931 6.2998 29.5702 6.3132C29.5554 6.32204 29.5393 6.32645 29.5224 6.32498C29.477 6.32203 29.4415 6.28346 29.4434 6.23663C29.4493 6.12442 29.4537 6.01446 29.4567 5.90269C29.458 5.85484 29.4985 5.81815 29.5439 5.82095C29.5907 5.82242 29.6275 5.8613 29.6255 5.90768C29.621 6.02136 29.6166 6.13284 29.6106 6.24593L29.6107 6.24575Z" fill="#ECECEB"/>
    <path fill-rule="evenodd" clip-rule="evenodd" d="M175.042 3.16643L175.081 2.71069L174.756 3.03198C173.392 4.37605 172.701 6.23974 172.86 8.14731L173.138 11.5075L173.406 11.1146C173.893 10.4006 174.509 9.80371 175.239 9.34283L175.335 9.28216L175.315 9.17068C174.958 7.19611 174.866 5.17663 175.042 3.16643V3.16643Z" fill="#00AEEF"/>
    <path fill-rule="evenodd" clip-rule="evenodd" d="M197.115 6.13637C196.955 4.22881 195.967 2.50322 194.401 1.40167L194.027 1.13916L194.141 1.58236C194.646 3.53425 194.889 5.54178 194.862 7.54623L194.86 7.66019L194.965 7.70513C195.753 8.03525 196.472 8.53028 197.064 9.14945L197.394 9.4924L197.115 6.13637V6.13637Z" fill="#00AEEF"/>
    <path fill-rule="evenodd" clip-rule="evenodd" d="M193.016 0.727965L192.991 0.649912L192.913 0.620748C192.456 0.453329 191.982 0.335973 191.506 0.276044C186.75 -0.330168 182.014 0.0634445 177.424 1.44344C176.968 1.58244 176.518 1.77442 176.092 2.01767L176.021 2.05964L176.009 2.14197C175.709 4.30722 175.736 6.50015 176.089 8.66128L176.125 8.87463L176.322 8.78854C181.801 6.41817 188.009 5.9028 193.804 7.33949L194.012 7.3904L194.012 7.17322C194.005 4.98382 193.669 2.81577 193.016 0.727965H193.016Z" fill="#00AEEF"/>
    <path fill-rule="evenodd" clip-rule="evenodd" d="M195.028 7.54951L195.029 7.48251C195.051 5.39883 194.788 3.32679 194.247 1.31585C194.144 0.993674 193.81 0.774292 193.474 0.807128L193.436 0.814453C193.391 0.7317 193.321 0.665159 193.228 0.628642C193.153 0.600077 192.779 0.57373 192.779 0.57373L192.87 0.82699C193.504 2.87077 193.833 4.99276 193.845 7.13048L193.845 7.33822L193.844 7.34851L194.114 7.41524C194.138 7.42261 194.16 7.42847 194.181 7.43466L194.272 7.46045C194.454 7.51257 194.632 7.57279 194.8 7.63817L195.027 7.72562L195.028 7.6716V7.54951V7.54951Z" fill="#00376A"/>
    <path fill-rule="evenodd" clip-rule="evenodd" d="M176.169 2.23692L176.203 1.9585C176.203 1.9585 175.838 2.04333 175.784 2.07587C175.702 2.12372 175.642 2.20172 175.612 2.28963C175.254 2.29552 174.946 2.56057 174.891 2.92942C174.691 4.99764 174.774 7.08501 175.14 9.13717L175.182 9.37659L175.391 9.25274C175.528 9.17102 175.669 9.09417 175.812 9.02438L175.925 8.96884L175.924 8.96592L175.965 8.94826C175.979 8.9409 175.992 8.93499 176.004 8.9288L176.285 8.80366L176.263 8.67626C175.91 6.54577 175.879 4.38008 176.169 2.23633V2.23692Z" fill="#00376A"/>
    <path fill-rule="evenodd" clip-rule="evenodd" d="M180.615 58.0814C180.852 55.4086 180.979 52.6927 180.988 50.0081L180.989 49.9199L181 49.8492C181.04 49.6033 181.212 49.4 181.45 49.3206L181.772 49.2112L181.489 49.0198C180.845 48.59 180.286 48.0577 179.828 47.4382L179.513 47.01L179.525 47.5414C179.533 47.9269 179.541 48.3136 179.545 48.6977L179.546 48.7387L179.546 48.7402L179.549 49.0257C179.56 50.5975 179.534 52.168 179.471 53.6906L179.467 53.6994C179.081 54.0214 178.583 54.1573 178.091 54.0752L177.913 54.0455L177.894 54.2237C177.686 56.2553 178.681 58.2301 180.432 59.2545C180.549 59.323 180.668 59.387 180.79 59.4458L181.579 59.8292L180.987 59.1809C180.715 58.8811 180.579 58.4815 180.615 58.0817L180.615 58.0814Z" fill="#3C3D39"/>
    <path fill-rule="evenodd" clip-rule="evenodd" d="M186.814 58.9845C187.09 56.3465 187.256 53.6592 187.31 51.0023L187.307 50.9319L187.322 50.8417C187.362 50.5961 187.534 50.391 187.772 50.3122L188.096 50.2031L187.811 50.0126C186.957 49.4404 186.236 48.6691 185.725 47.7819L185.645 47.6423L185.501 47.7166C185.42 47.7584 185.334 47.7844 185.244 47.7919L185.041 47.8095L185.066 48.9886L185.226 48.9915C185.394 48.9945 185.555 49.0584 185.673 49.1672C185.81 49.2949 185.888 49.4751 185.89 49.6618L185.887 50.0401C185.863 52.7584 185.723 55.4971 185.467 58.1814C185.45 58.3642 185.397 58.5407 185.312 58.7079L185.267 58.7941L185.319 58.876C185.678 59.441 186.17 59.9163 186.742 60.2511C186.828 60.3012 186.916 60.3489 187.006 60.3923L187.848 60.8091L187.202 60.1251C186.912 59.8188 186.771 59.4033 186.814 58.9843L186.814 58.9845Z" fill="#3C3D39"/>
    <path fill-rule="evenodd" clip-rule="evenodd" d="M193.367 55.9238C193.547 53.6232 193.645 51.2795 193.658 48.9574L193.657 48.8711L193.669 48.7982C193.709 48.5526 193.881 48.349 194.117 48.269L194.441 48.1599L194.157 47.9702C193.521 47.5432 192.967 47.017 192.51 46.4055L192.195 45.9829L192.207 46.5102C192.217 46.898 192.223 47.2843 192.227 47.6703L192.227 47.7127L192.23 47.7157L192.233 48.0994C192.236 48.4523 191.962 48.7526 191.61 48.7814L191.365 48.8019L191.39 49.9756L191.551 49.9786C191.716 49.983 191.88 50.0486 192 50.1629C192.131 50.285 192.207 50.4533 192.215 50.6307L192.2 50.6562L192.214 50.7011C192.179 52.3931 192.095 54.1188 191.965 55.8332L191.961 55.8941L191.996 55.9436C192.344 56.437 192.786 56.8412 193.31 57.1477C193.389 57.1938 193.468 57.237 193.548 57.2781L194.378 57.6947L193.749 57.0135C193.475 56.7184 193.337 56.3207 193.37 55.9232L193.367 55.9238Z" fill="#3C3D39"/>
    <path fill-rule="evenodd" clip-rule="evenodd" d="M200.331 51.3071C200.081 51.0316 199.949 50.6759 199.958 50.306C200 48.5889 199.995 46.8428 199.944 45.1147L199.941 45.0296L199.95 44.9583C199.983 44.7027 200.163 44.4856 200.407 44.4045L200.84 44.2592L200.418 44.0885C200.243 44.0173 200.078 43.9375 199.928 43.8494C199.445 43.5669 199.039 43.1871 198.722 42.7193L198.382 42.217L198.416 42.8221C198.437 43.2207 198.456 43.618 198.474 44.0138L198.475 44.0692L198.477 44.0722L198.485 44.2831C198.509 44.8807 198.526 45.4756 198.539 46.0487C198.547 46.4071 198.273 46.7107 197.917 46.7405L197.709 46.7571L197.734 47.9364L197.895 47.9393C198.062 47.9437 198.223 48.0076 198.34 48.1157C198.481 48.2457 198.56 48.4283 198.558 48.6183C198.555 49.0884 198.546 49.5546 198.535 50.1083L198.538 50.1938L198.592 50.2379C198.939 50.7342 199.385 51.1423 199.913 51.4517C199.984 51.4929 200.056 51.5315 200.128 51.5699L200.943 51.985L200.33 51.3061L200.331 51.3071Z" fill="#3C3D39"/>
    <path fill-rule="evenodd" clip-rule="evenodd" d="M191.067 38.3765C191.381 38.6769 191.619 39.0541 191.758 39.4758C191.767 39.4935 191.772 39.5113 191.778 39.5353L191.794 39.6159C191.797 39.6247 191.799 39.633 191.799 39.642C191.959 41.3085 192.076 43.0184 192.148 44.7223L192.154 44.7624C192.376 45.5069 192.801 46.1761 193.384 46.7013L193.808 47.0842L193.659 46.5329C193.643 46.473 193.636 46.4208 193.634 46.373C193.584 44.112 193.45 41.8187 193.239 39.558L193.233 39.4999L193.226 39.4925L193.246 39.3661C193.267 39.2416 193.318 39.1297 193.392 39.0401C193.478 38.9377 193.598 38.8602 193.73 38.8231L193.997 38.7467L193.807 38.546C193.627 38.3531 193.457 38.1645 193.303 37.9818L193.248 37.915L191.995 38.0189L191.877 38.0277L191.798 38.0351L190.799 38.1184L191.068 38.3776L191.067 38.3765Z" fill="#3C3D39"/>
    <path fill-rule="evenodd" clip-rule="evenodd" d="M184.778 38.9021C185.119 39.2103 185.349 39.6104 185.442 40.0602L185.452 40.1284C185.455 40.1416 185.46 40.1544 185.461 40.168C185.673 42.3715 185.807 44.6306 185.863 46.8821L185.873 46.9336C186.113 47.6235 186.53 48.2462 187.077 48.7333L187.49 49.1029L187.351 48.5662C187.336 48.5049 187.329 48.4517 187.328 48.4037C187.307 45.6376 187.163 42.8396 186.901 40.0852L186.895 40.0271L186.888 40.0182L186.909 39.891C186.93 39.7664 186.981 39.6539 187.055 39.5647C187.141 39.4621 187.26 39.3848 187.393 39.3475L187.659 39.2724L187.47 39.0703C187.288 38.8781 187.118 38.6883 186.967 38.5066L186.911 38.4395L185.46 38.5606L184.492 38.6403L184.78 38.9015L184.778 38.9021Z" fill="#3C3D39"/>
    <path fill-rule="evenodd" clip-rule="evenodd" d="M181.128 48.1255L180.985 47.5779C180.971 47.5223 180.964 47.4724 180.963 47.4245C180.91 45.1618 180.774 42.8693 180.558 40.6103L180.552 40.5521L180.546 40.5447L180.567 40.419C180.587 40.2942 180.637 40.181 180.712 40.0927C180.798 39.9896 180.918 39.9129 181.05 39.8747L181.318 39.7989L181.126 39.5978C180.946 39.4048 180.776 39.2163 180.623 39.0338L180.567 38.9666L179.119 39.0872L178.156 39.1667L178.445 39.4282C178.806 39.7521 179.042 40.1907 179.115 40.6663L179.119 40.702C179.262 42.1869 179.37 43.728 179.443 45.2818L179.466 45.7718L179.473 45.8145C179.701 46.5516 180.129 47.2191 180.709 47.7461L181.127 48.1259L181.128 48.1255Z" fill="#3C3D39"/>
    <path fill-rule="evenodd" clip-rule="evenodd" d="M197.511 37.8318C197.809 38.1652 198.021 38.5711 198.12 39.0075L198.131 39.0725C198.134 39.0872 198.137 39.1018 198.139 39.1172C198.194 39.6952 198.244 40.2909 198.29 40.8836L198.292 40.9051C198.456 41.7251 198.946 42.4768 199.635 42.9648L200.114 43.3077L199.887 42.7633C199.854 42.6837 199.836 42.6114 199.831 42.5411C199.766 41.3761 199.675 40.1965 199.566 39.0336L199.56 38.9755L199.554 38.9681L199.574 38.8416C199.596 38.7161 199.646 38.6034 199.72 38.5138C199.807 38.4118 199.927 38.3348 200.058 38.2968L200.325 38.2214L200.135 38.0197C199.954 37.8284 199.785 37.6382 199.632 37.4557L199.575 37.3899L198.127 37.5105L197.283 37.5796L197.511 37.8322V37.8318Z" fill="#3C3D39"/>
    <path fill-rule="evenodd" clip-rule="evenodd" d="M181.084 39.7954L181.139 39.8536L184.728 39.5569C184.88 39.5437 185.036 39.5855 185.165 39.676L185.701 40.0442L185.411 39.4633C185.256 39.1524 185.03 38.8763 184.754 38.664L184.703 38.6228L180.361 38.9837L180.575 39.2343C180.752 39.4394 180.919 39.6243 181.084 39.7954V39.7954Z" fill="#797B76"/>
    <path fill-rule="evenodd" clip-rule="evenodd" d="M178.42 39.1891L178.369 39.1482L176.855 39.2746L176.933 40.2025L178.387 40.0817C178.541 40.07 178.698 40.1141 178.831 40.2069L179.365 40.5827L179.079 39.9951C178.925 39.6793 178.697 39.4 178.42 39.1891V39.1891Z" fill="#797B76"/>
    <path fill-rule="evenodd" clip-rule="evenodd" d="M193.762 38.7432L193.818 38.8014L197.407 38.5047C197.56 38.4914 197.718 38.5356 197.848 38.6268L198.357 38.9803L198.096 38.4183C197.96 38.122 197.774 37.8531 197.541 37.6187L197.485 37.562L193.041 37.9316L193.254 38.1816C193.43 38.3872 193.597 38.572 193.762 38.7432V38.7432Z" fill="#797B76"/>
    <path fill-rule="evenodd" clip-rule="evenodd" d="M187.423 39.27L187.479 39.3279L191.068 39.03C191.201 39.0182 191.333 39.0482 191.45 39.1115L191.982 39.4043L191.677 38.8799C191.516 38.6021 191.309 38.3554 191.064 38.1449L191.01 38.1001L186.703 38.4575L186.916 38.7075C187.091 38.9138 187.259 39.0973 187.423 39.27V39.27Z" fill="#797B76"/>
    <path fill-rule="evenodd" clip-rule="evenodd" d="M197.879 46.7435L194.361 47.0343L194.267 47.0373L194.199 47.0255C194.117 47.0102 194.043 46.9852 193.978 46.9488L193.95 46.931L193.938 46.9251C193.303 46.4966 192.803 45.8948 192.491 45.183L192.137 44.3711L192.17 45.2568C192.181 45.5751 192.191 45.8955 192.199 46.2137L192.201 46.2634L192.229 46.3055C192.729 47.0292 193.356 47.6422 194.092 48.1294L194.189 48.1932L194.19 48.2391L194.251 48.2347L194.36 48.3061L194.359 48.2251L197.904 47.9317L197.879 46.7434L197.879 46.7435Z" fill="#797B76"/>
    <path fill-rule="evenodd" clip-rule="evenodd" d="M191.531 48.7874L188.062 49.0743C188.044 49.0772 188.029 49.0751 188.012 49.0757L187.917 49.0728L187.859 49.061C187.751 49.0363 187.668 49.0021 187.559 48.9074L187.538 48.8941C186.944 48.4698 186.47 47.892 186.169 47.2244L185.958 46.7573L185.851 47.257C185.819 47.4092 185.734 47.5451 185.615 47.6426L185.504 47.7326L185.575 47.8562C186.104 48.7811 186.855 49.5811 187.746 50.1717L187.845 50.2363L187.844 50.2834L187.907 50.279L188.015 50.3507L188.013 50.2696L191.555 49.9761L191.531 48.7885L191.531 48.7874Z" fill="#797B76"/>
    <path fill-rule="evenodd" clip-rule="evenodd" d="M185.211 47.795L181.692 48.085C181.683 48.085 181.673 48.0852 181.663 48.0865L181.598 48.088L181.529 48.0748C181.443 48.0615 181.366 48.0337 181.313 48.0028C181.306 47.9969 181.297 47.9925 181.289 47.9874L181.28 47.9801L181.271 47.9771C180.63 47.5419 180.125 46.9311 179.806 46.2131L179.636 45.8262C179.631 45.6792 179.626 45.5304 179.618 45.3819L179.61 45.1977L179.426 45.223C178.76 45.3158 178.069 45.1367 177.537 44.7342C177.482 44.6935 177.433 44.648 177.382 44.6034L177.28 44.5132L177.171 44.5933C177.097 44.646 177.04 44.7 176.996 44.7527C176.972 44.782 176.953 44.811 176.931 44.848L176.921 44.8654C176.801 45.0827 176.806 45.3351 176.93 45.56L176.942 45.5832C177.051 45.7818 177.239 45.963 177.484 46.1064C177.682 46.2223 177.914 46.3106 178.157 46.363C178.485 46.4358 178.815 46.4392 179.108 46.3734C179.246 46.3433 179.371 46.2963 179.484 46.2374L179.495 46.5194C179.503 46.7615 179.512 47.003 179.519 47.2455L179.521 47.2957L179.548 47.3356C180.05 48.0677 180.68 48.6879 181.425 49.1797L181.522 49.244L181.522 49.2898L181.584 49.2839L181.693 49.3567L181.691 49.2754L185.235 48.9817L185.212 47.7937L185.211 47.795Z" fill="#797B76"/>
    <path fill-rule="evenodd" clip-rule="evenodd" d="M200.091 38.2193L200.147 38.277L203.737 37.9788C203.838 37.9715 203.941 37.9877 204.044 38.0295L204.556 38.2377L204.247 37.7787C204.084 37.5381 203.905 37.313 203.714 37.1102L203.659 37.051L199.369 37.4071L199.584 37.6562C199.756 37.8589 199.928 38.0483 200.091 38.2193V38.2193Z" fill="#797B76"/>
    <path fill-rule="evenodd" clip-rule="evenodd" d="M204.228 42.8743L200.58 43.1787L200.52 43.1778C200.399 43.1807 200.28 43.1502 200.177 43.0922L200.155 43.0804C199.492 42.7522 198.956 42.1859 198.66 41.5082L198.271 40.6223L198.354 41.8247C198.37 42.0411 198.384 42.259 198.397 42.4759L198.4 42.5156L198.419 42.5502C198.759 43.1461 199.251 43.6432 199.842 43.9893C200.06 44.1169 200.294 44.2244 200.534 44.3085L200.605 44.3336L200.608 44.3647L200.678 44.3603L200.779 44.3962L200.777 44.3519L204.117 44.0757C204.128 44.0764 204.139 44.0757 204.15 44.0764L204.327 44.0705L204.229 42.8735L204.228 42.8743Z" fill="#797B76"/>
    <path fill-rule="evenodd" clip-rule="evenodd" d="M178.986 21.793L179.602 29.21C179.621 29.4466 179.755 29.6503 179.968 29.7587C180.178 29.8655 180.425 29.8584 180.628 29.7375L197.019 19.9404C197.087 19.898 197.118 19.8166 197.093 19.7418C197.08 19.7014 197.053 19.6673 197.018 19.6466C196.988 19.6291 196.952 19.6212 196.916 19.6234L179.606 21.0602C179.427 21.0752 179.263 21.1594 179.145 21.2978C179.027 21.437 178.97 21.6112 178.986 21.793ZM202.408 24.6041L181.851 39.0293L180.508 39.1349C180.305 39.1 180.113 39.0311 179.937 38.9279C179.465 38.6518 179.158 38.1628 179.109 37.6174L179.106 37.5907L178.757 33.377C178.736 33.1392 178.605 32.9367 178.391 32.8294C178.18 32.7209 177.933 32.7291 177.731 32.8494L174.907 34.5385L174.781 34.5027C174.239 34.3562 173.655 34.4372 173.18 34.725C172.699 35.017 172.356 35.5004 172.237 36.0539L172.201 36.2218L172.033 36.1818C171.92 36.1554 171.81 36.1113 171.708 36.0513C171.568 35.9694 171.444 35.8572 171.35 35.7269C171.172 35.4794 171.096 35.1696 171.142 34.8685L171.149 34.8233L171.406 32.7089C171.439 32.5156 171.561 32.3597 171.737 32.286C171.907 32.2142 172.1 32.2347 172.255 32.3379L172.292 32.3728C172.437 32.5574 172.608 32.7176 172.799 32.8477C173.522 33.3453 174.434 33.3892 175.198 32.983L175.231 32.9622L178.195 31.191C178.415 31.0598 178.544 30.8095 178.523 30.5531L177.804 21.8913C177.788 21.7093 177.704 21.5451 177.566 21.4299C177.427 21.312 177.25 21.2562 177.071 21.2712L173.363 21.5766L173.573 21.2821C173.646 21.1781 173.683 21.0502 173.672 20.9259C173.662 20.7996 173.606 20.6812 173.514 20.5877L173.26 20.3318L198.636 18.2256L198.639 18.4077C198.644 18.9216 198.849 19.4018 199.218 19.7615L199.374 19.9133L180.165 31.3958C179.944 31.5283 179.816 31.7788 179.837 32.0353L180.286 37.4305C180.305 37.671 180.451 37.8858 180.674 37.9892C180.894 38.0922 181.154 38.0691 181.352 37.9304L201.906 23.5081L201.893 23.8477C201.884 24.0958 202 24.3273 202.205 24.4676L202.408 24.6041H202.408Z" fill="#00376A"/>
    <path fill-rule="evenodd" clip-rule="evenodd" d="M199.334 17.4873L198.958 12.957C198.785 10.867 197.599 8.98611 195.787 7.92536C195.277 7.62704 194.73 7.40159 194.158 7.25258C188.12 5.68132 181.658 6.21703 175.962 8.76246C173.467 9.878 171.942 12.4565 172.169 15.1791L172.543 19.71C172.567 19.9836 172.722 20.2314 172.961 20.3711C173.113 20.4598 173.285 20.4987 173.459 20.4841L198.561 18.4014C198.784 18.3833 198.99 18.2779 199.136 18.105C199.28 17.9347 199.352 17.7089 199.334 17.4873V17.4873Z" fill="#ECECEB"/>
    <path fill-rule="evenodd" clip-rule="evenodd" d="M179.279 37.6325L179.287 37.6193L179.272 37.5668L178.923 33.3621C178.899 33.0676 178.733 32.8182 178.465 32.6795C178.204 32.5448 177.896 32.5538 177.643 32.706L174.868 34.364L174.73 34.3906L175.092 38.7391C175.111 38.9648 175.216 39.1705 175.389 39.3172C175.427 39.3485 175.466 39.3769 175.508 39.4017C175.659 39.4897 175.831 39.5286 176.007 39.5146L180.745 39.1219L180.157 38.8532C179.667 38.6298 179.335 38.1625 179.279 37.633L179.279 37.6325Z" fill="#00AEEF"/>
    <path fill-rule="evenodd" clip-rule="evenodd" d="M178.69 30.5379L177.972 21.8764C177.953 21.651 177.847 21.4464 177.675 21.3004C177.503 21.1544 177.282 21.0832 177.057 21.1025L173.484 21.398C173.086 21.4311 172.761 21.7433 172.714 22.1392L171.645 30.6272C171.527 31.5532 171.934 32.4574 172.705 32.9869C172.754 33.0211 172.806 33.0535 172.858 33.0835C173.609 33.5232 174.517 33.5393 175.293 33.122L178.281 31.3362C178.556 31.1713 178.718 30.8579 178.69 30.5379V30.5379Z" fill="#00AEEF"/>
    <path fill-rule="evenodd" clip-rule="evenodd" d="M179.434 29.2241C179.456 29.4993 179.612 29.7454 179.849 29.8844C179.863 29.8918 179.877 29.9002 179.89 29.9082C180.152 30.0419 180.46 30.0327 180.712 29.8816L197.105 20.0839C197.24 20.0026 197.301 19.8396 197.252 19.6891C197.205 19.5418 197.056 19.4433 196.903 19.4559L179.591 20.8918C179.367 20.9114 179.162 21.0154 179.015 21.1881C178.869 21.361 178.799 21.5799 178.817 21.8058L179.434 29.2241V29.2241Z" fill="#00AEEF"/>
    <path fill-rule="evenodd" clip-rule="evenodd" d="M202.124 22.6016L200.558 19.996C200.445 19.8066 200.254 19.6638 200.039 19.6087C199.819 19.5547 199.591 19.5868 199.396 19.7043L180.079 31.2506C179.802 31.4159 179.643 31.7287 179.669 32.048L180.117 37.4449C180.14 37.7201 180.296 37.9658 180.535 38.1056C180.557 38.1188 180.578 38.1309 180.603 38.1421C180.877 38.2714 181.201 38.243 181.449 38.0676L201.884 23.7297C202.246 23.4754 202.35 22.9797 202.124 22.6016V22.6016Z" fill="#00AEEF"/>
    <path fill-rule="evenodd" clip-rule="evenodd" d="M204.448 36.3036L203.524 25.1741C203.498 24.8732 203.313 24.6045 203.038 24.4766C202.764 24.3487 202.44 24.3761 202.193 24.55L181.518 39.0564L203.672 37.2183C203.898 37.1998 204.104 37.0943 204.25 36.9213C204.397 36.7487 204.467 36.5296 204.448 36.3036Z" fill="#ECECEB"/>
    <path fill-rule="evenodd" clip-rule="evenodd" d="M176.723 48.9763C176.725 48.5262 176.723 48.0755 176.717 47.6258L176.711 47.1453L176.71 47.1468C176.708 47.0361 176.706 46.9239 176.703 46.813L176.7 46.6055L176.702 46.6026L176.699 46.541C176.679 45.9853 176.807 45.4323 177.072 44.9431L177.082 44.9277C177.097 44.9018 177.115 44.8777 177.134 44.8543C177.161 44.8209 177.2 44.7857 177.251 44.7458L177.4 44.6298L177.267 44.4936C176.858 44.0794 176.601 43.5391 176.542 42.9682L176.541 42.9509C176.5 42.2775 176.451 41.5958 176.396 40.9295C176.38 40.7477 176.436 40.5732 176.554 40.4348C176.653 40.3156 176.79 40.2376 176.949 40.2086L177.099 40.1818L177.024 39.2603L175.994 39.3454C175.814 39.3609 175.635 39.3032 175.499 39.1873C175.36 39.0695 175.276 38.9054 175.261 38.726L175.081 36.571L174.898 34.3584L174.781 34.3282C174.2 34.1849 173.6 34.2739 173.093 34.5813C172.543 34.9145 172.164 35.4685 172.052 36.1106L170.833 46.0576L170.832 46.0766C170.594 47.5027 171.246 48.8948 172.495 49.6254C172.55 49.6579 172.608 49.6899 172.665 49.7196C173.999 50.402 175.61 50.1506 176.675 49.0959L176.725 49.0461L176.723 48.9763V48.9763Z" fill="#00376A"/>
    <path fill-rule="evenodd" clip-rule="evenodd" d="M179.651 46.2341L179.641 45.9681L179.405 46.0904C179.3 46.1467 179.177 46.1881 179.042 46.2162C178.778 46.2692 178.482 46.2639 178.192 46.2011C177.708 46.0946 177.275 45.8251 177.098 45.5194L177.072 45.4712C177.055 45.4378 177.042 45.4008 177.03 45.3612L176.882 44.856L176.709 45.3532C176.574 45.7456 176.513 46.1523 176.531 46.563L176.523 46.5823L176.532 46.6039C176.549 47.3527 176.558 48.137 176.556 48.9984L176.556 49.0224C176.555 50.124 176.534 51.1991 176.499 52.2048L176.496 52.2377L176.496 52.2436C176.441 52.9665 176.792 53.6416 177.417 54.0073C177.45 54.0265 177.483 54.0444 177.517 54.0605C178.19 54.4031 179 54.3113 179.578 53.8236L179.635 53.7766L179.638 53.7024C179.739 51.2591 179.743 48.7461 179.649 46.2343L179.651 46.2341Z" fill="#ECECEB"/>
    <path fill-rule="evenodd" clip-rule="evenodd" d="M186.06 49.6696C186.063 49.4322 185.963 49.2047 185.789 49.0448C185.615 48.8836 185.379 48.8013 185.142 48.821L181.598 49.1153C181.156 49.1514 180.822 49.5145 180.821 49.9579C180.81 52.6514 180.684 55.3802 180.446 58.0669C180.403 58.5407 180.572 59.0073 180.908 59.3454C181.007 59.4437 181.118 59.5308 181.237 59.6004C181.525 59.7687 181.852 59.8417 182.184 59.8142L184.166 59.6509C184.944 59.5854 185.564 58.9744 185.636 58.1976C185.904 55.3734 186.047 52.5049 186.06 49.6696V49.6696Z" fill="#ECECEB"/>
    <path fill-rule="evenodd" clip-rule="evenodd" d="M192.382 50.6755C192.388 50.4364 192.29 50.2046 192.115 50.0403C191.941 49.877 191.701 49.7947 191.464 49.8144L187.921 50.1073C187.486 50.144 187.152 50.5 187.143 50.9348L187.143 50.951C187.092 53.6222 186.924 56.3182 186.647 58.9679C186.598 59.4466 186.763 59.9178 187.099 60.2624C187.2 60.3652 187.314 60.4532 187.437 60.5255C187.725 60.6937 188.051 60.7683 188.384 60.7408L190.357 60.576C191.124 60.5136 191.741 59.9124 191.824 59.1491C192.136 56.3446 192.322 53.4942 192.382 50.6755V50.6755Z" fill="#ECECEB"/>
    <path fill-rule="evenodd" clip-rule="evenodd" d="M198.727 48.6199C198.73 48.3825 198.63 48.1548 198.456 47.9935C198.282 47.8336 198.045 47.7508 197.81 47.7701L194.264 48.0646C193.824 48.1017 193.49 48.4632 193.488 48.9044C193.478 51.2333 193.379 53.5894 193.197 55.9101C193.159 56.3818 193.331 56.8443 193.666 57.1791C193.763 57.2757 193.872 57.3595 193.988 57.4277C194.276 57.596 194.604 57.6699 194.935 57.6415L196.924 57.4765C197.71 57.4122 198.328 56.7933 198.396 56.0066C198.601 53.5583 198.712 51.0736 198.727 48.6199V48.6199Z" fill="#ECECEB"/>
    <path fill-rule="evenodd" clip-rule="evenodd" d="M205.023 50.2207C205.074 48.4 205.073 46.5522 205.02 44.7257C205.012 44.4946 204.909 44.274 204.736 44.1194C204.566 43.9674 204.331 43.8879 204.101 43.9065L200.553 44.2017C200.103 44.2388 199.761 44.6212 199.776 45.0719C199.829 46.8102 199.834 48.5695 199.791 50.3021C199.78 50.758 199.964 51.2003 200.296 51.5132C200.385 51.5979 200.483 51.6697 200.588 51.7316C200.876 51.8999 201.203 51.9748 201.536 51.9477L203.546 51.7803C204.365 51.712 205 51.042 205.023 50.2207H205.023Z" fill="#ECECEB"/>
    <path fill-rule="evenodd" clip-rule="evenodd" d="M187.158 48.4052C187.16 48.6392 187.26 48.8654 187.435 49.024C187.477 49.0633 187.526 49.0992 187.576 49.1284C187.729 49.2182 187.901 49.2568 188.076 49.2422L191.623 48.9483C192.061 48.9119 192.402 48.5379 192.399 48.0975C192.382 45.2791 192.236 42.4291 191.967 39.6257C191.963 39.5798 191.954 39.5362 191.94 39.486C191.934 39.4679 191.928 39.4499 191.922 39.4333L191.914 39.4068C191.783 39.0646 191.42 38.8319 191.055 38.8623L187.504 39.1571C187.28 39.1755 187.068 39.285 186.924 39.457C186.779 39.6302 186.709 39.8575 186.73 40.0826C186.994 42.8358 187.138 45.6358 187.159 48.4052H187.158Z" fill="#ECECEB"/>
    <path fill-rule="evenodd" clip-rule="evenodd" d="M180.796 47.4294C180.8 47.6615 180.903 47.8838 181.076 48.0392C181.118 48.0764 181.165 48.1115 181.214 48.1401C181.366 48.229 181.539 48.2684 181.713 48.254L185.261 47.9588C185.707 47.9227 186.047 47.5433 186.038 47.0958C185.987 44.7852 185.848 42.4486 185.628 40.1526C185.602 39.8827 185.447 39.6384 185.211 39.5004C185.061 39.4124 184.888 39.3735 184.714 39.3884L181.164 39.6827C180.939 39.7015 180.729 39.8112 180.584 39.9837C180.44 40.1558 180.37 40.3837 180.39 40.6072C180.606 42.8663 180.742 45.1614 180.796 47.4294V47.4294Z" fill="#ECECEB"/>
    <path fill-rule="evenodd" clip-rule="evenodd" d="M177.7 45.0452C178.229 45.3548 178.856 45.4776 179.465 45.3884L179.617 45.366L179.609 45.2142C179.536 43.6694 179.428 42.1446 179.287 40.6755C179.286 40.6637 179.285 40.654 179.281 40.6427C179.245 40.3835 179.094 40.16 178.867 40.0275C178.717 39.9394 178.546 39.8999 178.374 39.9154L177.002 40.0285C176.776 40.0472 176.572 40.1535 176.426 40.3246C176.28 40.4973 176.209 40.7181 176.228 40.9439C176.285 41.614 176.333 42.2961 176.374 42.9766C176.449 43.7248 176.835 44.415 177.436 44.8688C177.521 44.9327 177.61 44.9922 177.7 45.0452H177.7Z" fill="#ECECEB"/>
    <path fill-rule="evenodd" clip-rule="evenodd" d="M193.466 46.3759C193.472 46.6086 193.574 46.8319 193.747 46.9877C193.79 47.0259 193.836 47.06 193.886 47.0895C194.036 47.1775 194.21 47.217 194.384 47.2024L197.932 46.9085C198.378 46.8714 198.72 46.4924 198.709 46.0463C198.66 43.737 198.527 41.3997 198.308 39.1009C198.283 38.8309 198.127 38.5869 197.891 38.4488C197.74 38.3607 197.568 38.3222 197.394 38.3367L193.843 38.63C193.619 38.6499 193.407 38.759 193.263 38.931C193.12 39.1043 193.049 39.3318 193.07 39.5556C193.284 41.8156 193.417 44.1101 193.466 46.3759V46.3759Z" fill="#ECECEB"/>
    <path fill-rule="evenodd" clip-rule="evenodd" d="M199.665 42.5508C199.679 42.7769 199.783 42.9931 199.955 43.1424C199.995 43.1762 200.037 43.2068 200.082 43.2331C200.232 43.3211 200.409 43.3606 200.581 43.3466L204.131 43.0524C204.592 43.0131 204.935 42.6219 204.908 42.1603C204.84 40.9707 204.75 39.7656 204.636 38.576C204.611 38.3064 204.455 38.0623 204.219 37.9243C204.068 37.8362 203.896 37.7973 203.722 37.8118L200.172 38.1061C199.949 38.1245 199.737 38.2336 199.592 38.4071C199.448 38.5792 199.377 38.8054 199.398 39.0307C199.509 40.1968 199.599 41.381 199.665 42.5508Z" fill="#ECECEB"/>
    <path fill-rule="evenodd" clip-rule="evenodd" d="M172.616 41.2636L172.657 40.9292C172.665 40.8832 172.631 40.8407 172.585 40.8354C172.538 40.8295 172.496 40.8621 172.49 40.9093L172.45 41.2426C172.446 41.2782 172.462 41.3096 172.49 41.3262C172.499 41.3321 172.511 41.3351 172.523 41.3365C172.57 41.3424 172.611 41.3098 172.616 41.264V41.2636Z" fill="#ECECEB"/>
    <path fill-rule="evenodd" clip-rule="evenodd" d="M172.535 41.9311L172.576 41.5968C172.583 41.5515 172.549 41.51 172.502 41.5046C172.457 41.4987 172.414 41.5314 172.409 41.5772L172.368 41.9118C172.363 41.9463 172.38 41.9772 172.409 41.9938C172.419 41.9997 172.43 42.0042 172.44 42.0056C172.488 42.0115 172.529 41.9779 172.535 41.9314V41.9311Z" fill="#ECECEB"/>
    <path fill-rule="evenodd" clip-rule="evenodd" d="M172.699 40.5944L172.739 40.26C172.747 40.2145 172.713 40.1728 172.667 40.1677C172.621 40.1618 172.578 40.1943 172.573 40.2404L172.532 40.5751C172.529 40.6093 172.545 40.6405 172.573 40.6571C172.583 40.663 172.594 40.6674 172.604 40.6689C172.652 40.6748 172.693 40.6405 172.699 40.5944V40.5944Z" fill="#ECECEB"/>
    <path fill-rule="evenodd" clip-rule="evenodd" d="M172.78 39.927L172.821 39.5924C172.829 39.5472 172.795 39.5039 172.748 39.4992C172.702 39.4948 172.66 39.5256 172.655 39.5715L172.614 39.9062C172.611 39.9404 172.627 39.9741 172.654 39.9898C172.664 39.9957 172.676 39.9987 172.686 40.0002C172.734 40.0061 172.775 39.9737 172.78 39.9273V39.927Z" fill="#ECECEB"/>
    <path fill-rule="evenodd" clip-rule="evenodd" d="M172.861 39.258L172.902 38.9231C172.909 38.8779 172.874 38.8361 172.829 38.83C172.783 38.8241 172.74 38.8577 172.735 38.9038L172.694 39.2382C172.69 39.2728 172.707 39.3048 172.735 39.3205C172.745 39.3264 172.756 39.3309 172.768 39.3323C172.814 39.3368 172.856 39.3037 172.861 39.2576V39.258Z" fill="#ECECEB"/>
    <path fill-rule="evenodd" clip-rule="evenodd" d="M172.207 44.6044L172.247 44.2712C172.254 44.2244 172.22 44.1827 172.175 44.1777C172.129 44.1718 172.086 44.2044 172.081 44.2504L172.04 44.5851C172.035 44.619 172.052 44.6505 172.081 44.6671C172.09 44.673 172.1 44.6774 172.112 44.6774C172.158 44.6833 172.201 44.6513 172.207 44.6037V44.6044Z" fill="#ECECEB"/>
    <path fill-rule="evenodd" clip-rule="evenodd" d="M172.083 45.6081C172.089 45.5605 172.056 45.5196 172.01 45.5144C171.965 45.5071 171.922 45.5412 171.917 45.587L171.875 45.9214C171.872 45.9562 171.889 45.9871 171.917 46.0037C171.927 46.0096 171.936 46.014 171.948 46.0155C171.994 46.0214 172.037 45.9888 172.043 45.9413L172.083 45.6083V45.6081Z" fill="#ECECEB"/>
    <path fill-rule="evenodd" clip-rule="evenodd" d="M172.944 38.5908L172.984 38.2564C172.99 38.2105 172.957 38.1672 172.911 38.162C172.864 38.1576 172.822 38.1887 172.817 38.2347L172.776 38.5696C172.773 38.6036 172.789 38.6372 172.816 38.6532C172.826 38.6591 172.838 38.662 172.85 38.6635C172.896 38.6679 172.937 38.6361 172.944 38.5906V38.5908Z" fill="#ECECEB"/>
    <path fill-rule="evenodd" clip-rule="evenodd" d="M172.124 45.2733L172.165 44.939C172.17 44.8924 172.138 44.852 172.092 44.8454C172.046 44.841 172.004 44.8721 171.998 44.9192L171.958 45.2525C171.953 45.2882 171.97 45.3195 171.998 45.3362C172.007 45.3421 172.019 45.345 172.03 45.3465C172.076 45.3523 172.119 45.3197 172.124 45.2736V45.2733Z" fill="#ECECEB"/>
    <path fill-rule="evenodd" clip-rule="evenodd" d="M172.288 43.9368L172.329 43.6023C172.334 43.5562 172.302 43.5153 172.256 43.509C172.21 43.5045 172.168 43.5353 172.162 43.5829L172.122 43.9161C172.117 43.9517 172.134 43.9831 172.162 43.9997C172.171 44.0056 172.183 44.0086 172.195 44.01C172.241 44.0174 172.283 43.9835 172.288 43.9372V43.9368Z" fill="#ECECEB"/>
    <path fill-rule="evenodd" clip-rule="evenodd" d="M172.452 42.6001L172.493 42.2657C172.499 42.2203 172.466 42.1787 172.421 42.172C172.375 42.1676 172.332 42.1987 172.327 42.2464L172.286 42.5795C172.281 42.6148 172.298 42.6465 172.326 42.6633C172.335 42.6692 172.348 42.6721 172.359 42.6721C172.406 42.6795 172.447 42.6453 172.452 42.5994V42.6001Z" fill="#ECECEB"/>
    <path fill-rule="evenodd" clip-rule="evenodd" d="M172.371 43.2679L172.411 42.9346C172.418 42.8879 172.385 42.8462 172.338 42.8411C172.293 42.8337 172.25 42.8678 172.245 42.9138L172.204 43.2483C172.199 43.2826 172.216 43.314 172.244 43.3306C172.253 43.3365 172.265 43.3409 172.276 43.3424C172.324 43.3483 172.365 43.3145 172.371 43.2685V43.2679Z" fill="#ECECEB"/>
    <path fill-rule="evenodd" clip-rule="evenodd" d="M173.189 36.5855L173.223 36.2998C173.24 36.2037 173.267 36.1106 173.309 36.0225C173.331 35.9804 173.309 35.9296 173.271 35.9108C173.229 35.89 173.178 35.9079 173.159 35.9493C173.12 36.0286 173.095 36.1121 173.074 36.1979C173.068 36.2068 173.063 36.219 173.062 36.2306L173.057 36.2768C173.057 36.2813 173.055 36.2872 173.055 36.2953C173.053 36.2982 173.056 36.2997 173.055 36.3011L173.022 36.5659C173.019 36.5999 173.035 36.632 173.063 36.6481C173.073 36.6539 173.085 36.6569 173.096 36.6598C173.142 36.6642 173.184 36.631 173.19 36.5856L173.189 36.5855Z" fill="#ECECEB"/>
    <path fill-rule="evenodd" clip-rule="evenodd" d="M173.108 37.2542L173.149 36.9201C173.155 36.8736 173.121 36.8308 173.075 36.8256C173.029 36.8212 172.988 36.853 172.981 36.8985L172.94 37.2326C172.936 37.2672 172.955 37.299 172.981 37.3147C172.992 37.3206 173.002 37.325 173.014 37.328C173.061 37.3324 173.101 37.3004 173.108 37.2549V37.2542Z" fill="#ECECEB"/>
    <path fill-rule="evenodd" clip-rule="evenodd" d="M173.026 37.922L173.067 37.5878C173.073 37.5415 173.039 37.5 172.993 37.4933C172.947 37.4875 172.904 37.5213 172.899 37.5671L172.858 37.9018C172.854 37.9364 172.871 37.9681 172.899 37.9838C172.909 37.9897 172.92 37.9956 172.932 37.9956C172.978 38 173.02 37.9671 173.026 37.9214V37.922Z" fill="#ECECEB"/>
    <path fill-rule="evenodd" clip-rule="evenodd" d="M173.967 35.4672C173.984 35.4775 174.004 35.4819 174.025 35.4774C174.128 35.4571 174.232 35.4545 174.335 35.4672C174.38 35.473 174.423 35.4404 174.428 35.3943C174.433 35.3482 174.402 35.3057 174.356 35.3009C174.236 35.285 174.113 35.2891 173.994 35.3112C173.948 35.3185 173.918 35.3632 173.927 35.41C173.932 35.4343 173.947 35.4542 173.967 35.4661V35.4672Z" fill="#ECECEB"/>
    <path fill-rule="evenodd" clip-rule="evenodd" d="M173.367 35.7706C173.373 35.7764 173.378 35.7809 173.384 35.7838C173.416 35.8028 173.46 35.797 173.487 35.7691C173.558 35.6931 173.641 35.6299 173.732 35.5797C173.774 35.5585 173.789 35.5076 173.766 35.4663C173.744 35.4264 173.692 35.411 173.652 35.4328C173.546 35.4906 173.448 35.5644 173.365 35.6525C173.333 35.6866 173.334 35.7401 173.367 35.7702L173.367 35.7706Z" fill="#ECECEB"/>
    <path fill-rule="evenodd" clip-rule="evenodd" d="M171.976 46.4894C171.979 46.4424 171.945 46.4034 171.897 46.3996C171.852 46.3966 171.812 46.4312 171.808 46.4782C171.801 46.5939 171.801 46.7109 171.809 46.8269C171.811 46.8549 171.828 46.8795 171.851 46.8929C171.866 46.9017 171.882 46.9061 171.901 46.9031C171.947 46.8987 171.981 46.8594 171.977 46.8135C171.97 46.7053 171.97 46.596 171.976 46.4888V46.4894Z" fill="#ECECEB"/>
    <path fill-rule="evenodd" clip-rule="evenodd" d="M172.889 48.467C172.803 48.4024 172.72 48.3323 172.643 48.2562C172.61 48.2219 172.556 48.2233 172.525 48.256C172.492 48.2896 172.492 48.3426 172.524 48.3756C172.607 48.457 172.696 48.5328 172.79 48.6022C172.793 48.6036 172.796 48.6051 172.799 48.6066C172.835 48.6281 172.882 48.6184 172.908 48.5851C172.936 48.5464 172.928 48.4946 172.889 48.4667L172.889 48.467Z" fill="#ECECEB"/>
    <path fill-rule="evenodd" clip-rule="evenodd" d="M172.024 47.1343C172.014 47.0889 171.969 47.0604 171.925 47.0707C171.879 47.081 171.851 47.1255 171.862 47.1699C171.886 47.2842 171.919 47.3946 171.96 47.5046C171.968 47.5234 171.981 47.5385 171.997 47.5481C172.017 47.5598 172.045 47.5629 172.068 47.5539C172.112 47.5374 172.134 47.4881 172.118 47.4445C172.08 47.344 172.048 47.2399 172.024 47.1347V47.1343Z" fill="#ECECEB"/>
    <path fill-rule="evenodd" clip-rule="evenodd" d="M172.43 48.011C172.365 47.9257 172.305 47.8347 172.254 47.7387C172.232 47.6983 172.179 47.6827 172.139 47.7058C172.098 47.7291 172.084 47.7799 172.106 47.8216C172.162 47.9212 172.225 48.0206 172.296 48.1128C172.303 48.1216 172.311 48.129 172.321 48.1346C172.349 48.1512 172.386 48.1508 172.413 48.1287C172.45 48.101 172.458 48.0495 172.43 48.0112V48.011Z" fill="#ECECEB"/>
    <path fill-rule="evenodd" clip-rule="evenodd" d="M175.457 48.6614C175.434 48.6201 175.384 48.6058 175.343 48.629C175.248 48.6804 175.15 48.7266 175.049 48.7646C175.005 48.7805 174.983 48.8298 174.999 48.8735C175.007 48.8927 175.021 48.9062 175.037 48.9158C175.057 48.9276 175.084 48.9323 175.108 48.9217C175.217 48.8818 175.323 48.8323 175.425 48.7756C175.465 48.7535 175.479 48.7016 175.457 48.6618V48.6614Z" fill="#ECECEB"/>
    <path fill-rule="evenodd" clip-rule="evenodd" d="M174.093 48.9079C173.984 48.9006 173.876 48.8863 173.772 48.8632C173.725 48.8543 173.681 48.8833 173.671 48.9285C173.665 48.9646 173.68 49.0008 173.711 49.019C173.718 49.0234 173.727 49.0263 173.737 49.0278C173.85 49.0521 173.966 49.0677 174.082 49.0754C174.128 49.0783 174.168 49.0437 174.172 48.9964C174.173 48.9502 174.139 48.9101 174.093 48.9072V48.9079Z" fill="#ECECEB"/>
    <path fill-rule="evenodd" clip-rule="evenodd" d="M174.739 48.8572C174.634 48.8815 174.524 48.8973 174.417 48.9059C174.371 48.9103 174.337 48.9498 174.34 48.9971C174.343 49.0243 174.359 49.0484 174.382 49.0618C174.395 49.0707 174.413 49.0751 174.43 49.0736C174.546 49.0648 174.662 49.0477 174.775 49.0225C174.82 49.0122 174.849 48.9674 174.84 48.9218C174.828 48.8756 174.784 48.8479 174.739 48.8573V48.8572Z" fill="#ECECEB"/>
    <path fill-rule="evenodd" clip-rule="evenodd" d="M173.459 48.7735C173.374 48.742 173.288 48.7049 173.205 48.6634L173.163 48.6409C173.122 48.6188 173.071 48.6335 173.049 48.6743C173.027 48.7142 173.042 48.7646 173.08 48.7865C173.081 48.7874 173.083 48.788 173.083 48.788L173.13 48.8139C173.217 48.8576 173.308 48.8979 173.401 48.9323C173.445 48.9471 173.492 48.9249 173.509 48.8812C173.525 48.8379 173.502 48.789 173.459 48.7734L173.459 48.7735Z" fill="#ECECEB"/>
    <path fill-rule="evenodd" clip-rule="evenodd" d="M194.132 5.20305C194.135 5.2322 194.151 5.25446 194.175 5.26816C194.189 5.27699 194.206 5.28139 194.224 5.27845C194.27 5.27403 194.305 5.23458 194.3 5.18629C194.29 5.07423 194.278 4.96264 194.267 4.85206C194.262 4.80479 194.219 4.77104 194.174 4.77738C194.128 4.78179 194.094 4.82361 194.098 4.8694C194.111 4.98087 194.123 5.09147 194.132 5.20264V5.20305Z" fill="#ECECEB"/>
    <path fill-rule="evenodd" clip-rule="evenodd" d="M194.185 5.87236C194.186 5.90107 194.203 5.92519 194.226 5.93859C194.241 5.94742 194.257 5.95188 194.274 5.95041C194.32 5.94893 194.355 5.90693 194.353 5.86202C194.347 5.7485 194.337 5.63631 194.329 5.52367C194.324 5.47803 194.285 5.44373 194.239 5.44756C194.192 5.4505 194.158 5.49129 194.162 5.53738C194.17 5.64913 194.177 5.76089 194.185 5.87249V5.87236Z" fill="#ECECEB"/>
    <path fill-rule="evenodd" clip-rule="evenodd" d="M193.567 1.9009C193.574 1.92313 193.588 1.94256 193.607 1.95361C193.625 1.96391 193.648 1.96834 193.67 1.96098C193.714 1.95067 193.743 1.9053 193.731 1.8601C193.704 1.74967 193.581 1.32445 193.552 1.21461C193.54 1.16955 193.493 1.14378 193.449 1.15453C193.404 1.16778 193.377 1.2143 193.39 1.25788C193.419 1.36434 193.541 1.7903 193.567 1.90058V1.9009Z" fill="#ECECEB"/>
    <path fill-rule="evenodd" clip-rule="evenodd" d="M194.06 4.53661C194.063 4.56459 194.08 4.58636 194.101 4.59903C194.117 4.60786 194.134 4.61079 194.154 4.60932C194.201 4.60343 194.233 4.56089 194.226 4.51554C194.213 4.40422 194.199 4.2916 194.183 4.18014C194.177 4.13479 194.133 4.10224 194.088 4.10842C194.042 4.11578 194.01 4.15757 194.016 4.20292C194.031 4.31394 194.046 4.42632 194.06 4.53616V4.53661Z" fill="#ECECEB"/>
    <path fill-rule="evenodd" clip-rule="evenodd" d="M194.224 6.95137C194.225 6.98126 194.241 7.00687 194.265 7.02116C194.279 7.02852 194.295 7.03293 194.31 7.03293C194.357 7.03146 194.393 6.99261 194.392 6.94593C194.389 6.83344 194.377 6.31157 194.372 6.19937C194.37 6.15255 194.329 6.11632 194.283 6.12015C194.237 6.1231 194.201 6.1611 194.203 6.20778C194.209 6.31895 194.22 6.84032 194.224 6.95164V6.95137Z" fill="#ECECEB"/>
    <path fill-rule="evenodd" clip-rule="evenodd" d="M193.967 3.87246C193.972 3.89837 193.986 3.91991 194.008 3.93272C194.024 3.94302 194.044 3.94595 194.064 3.94301C194.11 3.93564 194.141 3.89163 194.134 3.84554C194.116 3.73511 194.1 3.62362 194.08 3.51172C194.071 3.4671 194.029 3.43678 193.983 3.44458C193.936 3.45195 193.905 3.49551 193.913 3.54057C193.932 3.65144 193.95 3.76176 193.967 3.87219V3.87246Z" fill="#ECECEB"/>
    <path fill-rule="evenodd" clip-rule="evenodd" d="M193.722 2.55282C193.728 2.57785 193.741 2.59716 193.762 2.60894C193.78 2.61925 193.801 2.62365 193.822 2.61923C193.868 2.60893 193.896 2.56447 193.886 2.51853C193.863 2.40883 193.838 2.29927 193.811 2.18942C193.802 2.14363 193.756 2.11521 193.71 2.12611C193.665 2.13641 193.637 2.18192 193.649 2.22712C193.674 2.33638 193.698 2.44488 193.722 2.5534V2.55282Z" fill="#ECECEB"/>
    <path fill-rule="evenodd" clip-rule="evenodd" d="M193.855 3.21149C193.86 3.23549 193.874 3.25549 193.895 3.26757C193.913 3.27787 193.932 3.28232 193.953 3.2779C193.999 3.27054 194.029 3.22561 194.021 3.1807C194 3.06894 193.979 2.95968 193.957 2.84836C193.946 2.80301 193.902 2.77312 193.856 2.78284C193.811 2.79168 193.782 2.83555 193.791 2.88237C193.812 2.99193 193.834 3.1009 193.855 3.21149Z" fill="#ECECEB"/>
    <path fill-rule="evenodd" clip-rule="evenodd" d="M176.217 47.9187C176.179 47.8894 176.127 47.8976 176.099 47.9335L175.892 48.1999C175.887 48.2058 175.883 48.2147 175.88 48.2226C175.873 48.227 175.865 48.23 175.859 48.2375C175.783 48.3133 175.701 48.3854 175.615 48.4515C175.579 48.4795 175.571 48.5331 175.599 48.5694C175.606 48.5782 175.615 48.5858 175.623 48.5905C175.651 48.6073 175.689 48.6054 175.717 48.5861C175.809 48.5149 175.896 48.438 175.979 48.3556C175.986 48.3467 175.992 48.3361 175.997 48.3256C176.007 48.3197 176.017 48.3124 176.024 48.3034L176.231 48.0371C176.26 48.0011 176.253 47.948 176.216 47.9192L176.217 47.9187Z" fill="#ECECEB"/>
    <path fill-rule="evenodd" clip-rule="evenodd" d="M175.456 3.8803C175.45 3.99309 175.443 4.10617 175.44 4.21867C175.437 4.25018 175.456 4.27859 175.482 4.29375C175.493 4.30112 175.506 4.30406 175.52 4.30553C175.566 4.307 175.605 4.27168 175.607 4.22559C175.613 4.11398 175.617 4.00238 175.625 3.89032C175.627 3.84394 175.591 3.80491 175.546 3.80211C175.498 3.7977 175.459 3.83507 175.456 3.88057V3.8803Z" fill="#ECECEB"/>
    <path fill-rule="evenodd" clip-rule="evenodd" d="M175.504 3.20601C175.493 3.3188 175.485 3.43143 175.477 3.54348C175.474 3.57676 175.492 3.60649 175.519 3.62239C175.529 3.62828 175.542 3.63273 175.555 3.63273C175.601 3.63567 175.641 3.60118 175.646 3.55436C175.651 3.44348 175.662 3.33275 175.671 3.22026C175.676 3.17343 175.64 3.13312 175.595 3.13002C175.549 3.12561 175.509 3.15977 175.504 3.20556V3.20601Z" fill="#ECECEB"/>
    <path fill-rule="evenodd" clip-rule="evenodd" d="M175.427 4.55551C175.424 4.66874 175.423 4.78039 175.42 4.89348C175.42 4.92469 175.437 4.95237 175.462 4.96753C175.474 4.9749 175.488 4.97931 175.503 4.97931C175.55 4.9796 175.589 4.94192 175.588 4.89613C175.589 4.78451 175.592 4.67259 175.595 4.56009C175.597 4.514 175.559 4.47555 175.513 4.47363C175.466 4.47349 175.428 4.50956 175.426 4.55609L175.427 4.55551Z" fill="#ECECEB"/>
    <path fill-rule="evenodd" clip-rule="evenodd" d="M175.535 2.87004C175.533 2.90405 175.55 2.93464 175.578 2.95069C175.588 2.95658 175.599 2.96099 175.61 2.96246C175.657 2.96688 175.698 2.93393 175.703 2.88769C175.714 2.77594 175.728 2.66563 175.74 2.55447C175.745 2.50838 175.712 2.46526 175.666 2.46011C175.62 2.45569 175.578 2.4891 175.574 2.53474C175.56 2.64605 175.548 2.75872 175.535 2.87004V2.87004Z" fill="#ECECEB"/>
    <path fill-rule="evenodd" clip-rule="evenodd" d="M175.556 7.59205C175.56 7.61943 175.575 7.64301 175.597 7.65567C175.611 7.6645 175.631 7.6689 175.649 7.66596C175.695 7.66007 175.729 7.62004 175.723 7.57322C175.711 7.4625 175.7 7.35205 175.689 7.24001C175.685 7.19393 175.644 7.15893 175.596 7.16408C175.55 7.1685 175.518 7.2091 175.522 7.25533C175.532 7.36826 175.542 7.48032 175.556 7.59178V7.59205Z" fill="#ECECEB"/>
    <path fill-rule="evenodd" clip-rule="evenodd" d="M175.491 6.91898C175.494 6.94813 175.511 6.97229 175.532 6.9848C175.547 6.99364 175.564 6.99804 175.582 6.99509C175.628 6.99067 175.662 6.95121 175.659 6.90527C175.651 6.79366 175.642 6.6825 175.634 6.57074C175.633 6.52407 175.591 6.48919 175.546 6.49184C175.499 6.49479 175.464 6.53484 175.467 6.58225C175.474 6.69385 175.482 6.80562 175.491 6.91826V6.91898Z" fill="#ECECEB"/>
    <path fill-rule="evenodd" clip-rule="evenodd" d="M175.691 8.61865C175.694 8.64427 175.71 8.6665 175.732 8.67931C175.748 8.68815 175.766 8.69259 175.786 8.68965C175.831 8.68376 175.864 8.64045 175.858 8.5951C175.843 8.48453 175.777 8.01835 175.764 7.90689C175.758 7.86125 175.716 7.82756 175.67 7.83374C175.623 7.83963 175.591 7.8817 175.596 7.92882C175.611 8.0394 175.675 8.50617 175.691 8.6191V8.61865Z" fill="#ECECEB"/>
    <path fill-rule="evenodd" clip-rule="evenodd" d="M175.425 5.56916C175.425 5.60023 175.442 5.62673 175.466 5.64102C175.478 5.64838 175.495 5.65131 175.511 5.65131C175.558 5.64983 175.594 5.61245 175.594 5.56548C175.591 5.45475 175.591 5.34122 175.59 5.23035C175.588 5.18352 175.55 5.14522 175.504 5.14551C175.459 5.14625 175.42 5.18364 175.42 5.2312C175.421 5.34429 175.423 5.45649 175.424 5.5684L175.425 5.56916Z" fill="#ECECEB"/>
    <path fill-rule="evenodd" clip-rule="evenodd" d="M175.448 6.24575C175.45 6.27417 175.466 6.2998 175.489 6.3132C175.504 6.32204 175.52 6.32645 175.536 6.32498C175.582 6.32203 175.617 6.28346 175.616 6.23663C175.61 6.12442 175.605 6.01446 175.602 5.90269C175.601 5.85484 175.56 5.81815 175.515 5.82095C175.468 5.82242 175.431 5.8613 175.434 5.90768C175.438 6.02136 175.441 6.13284 175.449 6.24593L175.448 6.24575Z" fill="#ECECEB"/>
</g>
</svg>
