<svg width="80" height="422" viewBox="0 0 80 422" fill="none" xmlns="http://www.w3.org/2000/svg">
<g>
    <path fill-rule="evenodd" clip-rule="evenodd" d="M0.754709 133.66V133.03V49.0217V48.3903V39.9169V39.2869V30.7066L0.71875 30.8135V0.730225H10.8411V9.31966V9.94912V18.423V19.0536V103.063V103.693V112.166V112.797V121.9L0.754709 151.868V142.765V142.133V133.66V133.66Z" fill="#2A2B26"/>
    <path fill-rule="evenodd" clip-rule="evenodd" d="M0.755859 308.665V308.036V151.237L10.8423 121.269V278.066V278.698V287.801L0.755859 317.768V308.665V308.665ZM10.8423 297.771L0.755859 327.739V318.006L10.8423 288.039V297.771Z" fill="#2A2B26"/>
    <path fill-rule="evenodd" clip-rule="evenodd" d="M10.8424 324.657C10.8424 332.456 12.319 340.075 15.2366 347.309C18.1543 354.54 22.3697 361.056 27.7809 366.675C41.3726 380.787 57.0388 392.603 74.3454 401.79C76.803 403.094 78.52 405.409 79.0564 408.139C79.5981 410.863 78.8879 413.649 77.1149 415.788L77.0892 415.82C74.1869 419.305 69.8948 421.304 65.3165 421.304C62.823 421.304 60.35 420.688 58.1631 419.52C40.877 410.303 25.7881 397.978 13.3104 382.885C5.21661 373.1 0.755859 360.717 0.755859 348.018V317.139L10.8424 287.171V324.657V324.657Z" fill="#0B798F"/>
    <path fill-rule="evenodd" clip-rule="evenodd" d="M10.8425 121.9V131.633L0.755859 161.6V151.867L10.8425 121.9Z" fill="#2A2B26"/>
    <path fill-rule="evenodd" clip-rule="evenodd" d="M21.669 359.226V359.225C23.4983 361.853 25.5371 364.343 27.7803 366.676C40.299 379.675 54.5755 390.722 70.2775 399.565L58.1625 419.521C40.8764 410.304 25.7874 397.979 13.3097 382.886C9.91173 378.779 7.15759 374.214 5.10352 369.36L5.79842 369.141L21.669 359.227V359.226Z" fill="#2A2B26"/>
</g>
</svg>
