<svg width="98" height="100" viewBox="0 0 98 100" fill="none" xmlns="http://www.w3.org/2000/svg">
<g>
    <path fill-rule="evenodd" clip-rule="evenodd" d="M29.2071 34.278C29.5305 34.3587 30.604 34.299 30.6219 34.632C30.6219 34.632 30.6229 34.632 30.6229 34.6335C30.6771 35.1656 30.7231 35.6975 30.7651 36.2313C31.8641 33.8672 32.416 31.2518 32.3601 28.646V18.8704C32.4025 17.6435 31.6694 16.5043 30.5356 16.0338C29.4303 15.5747 28.1453 15.8373 27.3047 16.6822C29.6199 23.333 29.0246 34.2305 29.2071 34.2774V34.278Z" fill="#2A2B26"/>
    <path fill-rule="evenodd" clip-rule="evenodd" d="M1.59918 36.232C1.64101 35.6982 1.68653 35.1664 1.74117 34.6343C1.74117 34.6328 1.74176 34.6328 1.74176 34.6328C1.75958 34.2997 1.99568 34.0132 2.31912 33.9325C2.50147 33.8874 3.01255 34.2302 3.17398 34.3123C2.61296 32.6451 3.52954 20.8744 5.05942 16.6836C4.21885 15.8387 2.93375 15.5762 1.82806 16.0353C0.69424 16.5057 -0.0385089 17.645 0.00391 18.8718L0.00332567 18.8733L0.00391 18.8748V28.6446V28.6461C-0.0523539 31.2519 0.499532 33.8673 1.59918 36.2313V36.232Z" fill="#2A2B26"/>
    <path fill-rule="evenodd" clip-rule="evenodd" d="M25.7417 5.83188C25.2966 5.30165 24.8112 4.80717 24.2971 4.35924C23.4239 3.59857 22.4607 2.96366 21.4347 2.46906C20.4117 1.97829 19.3315 1.63137 18.2253 1.44039C17.1257 1.24926 15.9908 1.21406 14.8826 1.33569C13.7681 1.45717 12.6722 1.7346 11.6241 2.16161C10.5741 2.58862 9.57867 3.16228 8.66622 3.8667C7.92315 4.43993 7.23547 5.1014 6.62128 5.83188C5.25283 7.45586 4.72864 9.66306 5.21969 11.7314L6.15321 15.6601L6.40874 15.394C7.04738 14.7268 7.75038 14.1219 8.49389 13.5989L8.59154 13.53L8.48166 13.363L8.61143 13.5168L8.78981 13.3951L8.67786 13.228L8.81588 13.3778L8.83267 13.3674H8.83325C11.0574 11.8926 13.599 11.1133 16.1814 11.1133C18.7644 11.1133 21.305 11.8926 23.5358 13.371L23.567 13.3914C24.4259 13.9647 25.2298 14.6394 25.9537 15.3945L26.2092 15.6605L27.1427 11.7319C27.6338 9.66351 27.11 7.45832 25.7417 5.83229V5.83188Z" fill="#CDCCC9"/>
    <path fill-rule="evenodd" clip-rule="evenodd" d="M26.7097 5.01668C24.027 1.82822 20.1897 0 16.1807 0C12.1726 0 8.33483 1.82822 5.65214 5.01668C4.02682 6.94869 3.40497 9.56759 3.98794 12.0237L5.14532 16.8928L5.40233 16.5613C5.5642 16.3534 5.71548 16.1659 5.86571 15.9918L6.02627 15.8099C6.09873 15.7276 6.17178 15.6469 6.24586 15.5663L6.31906 15.4876L5.41517 11.6844C4.9384 9.67802 5.44683 7.53871 6.77419 5.95921C7.37925 5.24197 8.05721 4.58966 8.78849 4.02571C9.6868 3.33307 10.6658 2.76708 11.6999 2.34713C12.7306 1.92778 13.8088 1.65403 14.9037 1.53447C15.9937 1.41652 17.1086 1.45172 18.1909 1.63917C19.2792 1.82661 20.341 2.16732 21.3476 2.65058C22.3578 3.1359 23.3056 3.76168 24.165 4.51102C24.6709 4.95128 25.1496 5.44031 25.5875 5.95921C26.9156 7.53871 27.4235 9.67802 26.9467 11.6844L26.0434 15.4876L26.1322 15.5832C26.2007 15.6581 26.2698 15.7312 26.3366 15.8079L26.4302 15.9132L26.4297 15.9146L26.496 15.9932C26.6652 16.1904 26.8169 16.3758 26.96 16.5613L27.2171 16.8928L28.3739 12.0237C28.9569 9.56759 28.335 6.94869 26.7097 5.01668V5.01668Z" fill="#9F9F9B"/>
    <path fill-rule="evenodd" clip-rule="evenodd" d="M27.2747 16.6435L27.2282 16.5817C27.0403 16.3343 26.8414 16.0872 26.638 15.8512L26.5977 15.8026C26.4832 15.6714 26.3667 15.5417 26.2477 15.4128L26.2084 15.3694C25.4465 14.5582 24.5947 13.837 23.6755 13.2224L23.6577 13.2106L23.6397 13.1988C21.3828 11.7021 18.8035 10.9114 16.1806 10.9114C13.5579 10.9114 10.9784 11.7021 8.72313 13.1968L8.69088 13.2177C7.77004 13.8323 6.91622 14.5551 6.15239 15.3703L6.11306 15.4116C5.9939 15.5405 5.87798 15.6702 5.76354 15.8014L5.72259 15.85C5.51919 16.086 5.32109 16.3331 5.133 16.5805L5.08646 16.6423C3.10131 19.3006 3.31959 34.6967 3.31959 34.6967L7.89833 34.5127C8.4589 30.959 4.70424 19.5912 7.28781 17.3052C9.78021 15.1021 12.9385 13.8884 16.1806 13.8884C19.4227 13.8884 22.581 15.1021 25.0735 17.3052C27.6565 19.5912 23.8671 30.721 24.4277 34.2769L29.0417 34.6329C29.0417 34.6329 29.2599 19.3006 27.2747 16.6423V16.6435Z" fill="#797B76"/>
    <path fill-rule="evenodd" clip-rule="evenodd" d="M9.36102 36.6012C9.52407 36.9947 9.90466 37.2496 10.3308 37.2496H22.0304C22.4571 37.2496 22.8378 36.9947 23.0007 36.6012C24.2971 33.467 25.1739 30.1737 25.6072 26.8088C25.6526 26.4232 25.6758 26.0293 25.6758 25.6416C25.6766 22.3014 23.9844 19.1185 21.2583 17.3387C19.7454 16.3493 17.9887 15.8267 16.1804 15.8267C14.372 15.8267 12.6164 16.3493 11.1028 17.3387C8.37891 19.1185 6.68658 22.2972 6.68555 25.636C6.68555 26.0258 6.70851 26.4211 6.75461 26.8125C7.18734 30.1737 8.06415 33.467 9.36102 36.6012V36.6012Z" fill="#ECECEB"/>
    <path fill-rule="evenodd" clip-rule="evenodd" d="M30.6624 35.0702L30.6235 34.6585L30.2751 35.0162C30.058 35.5785 29.8147 36.1195 29.5316 36.6722L29.5158 36.6987C28.9695 37.5885 28.0232 38.1918 26.9671 38.3134L26.9481 38.3149C26.6681 38.343 26.4531 38.341 26.2149 38.3149L23.8604 38.3134L23.9248 38.5643C24.2676 39.9006 24.0162 41.3186 23.2309 42.4614C21.0818 45.8465 19.8187 49.7507 19.578 53.7545C19.0185 65.3829 18.7205 77.1819 18.6925 88.8271C18.6915 89.2261 18.4074 89.5745 18.0165 89.6571C16.8049 89.908 15.5582 89.908 14.3462 89.6571C13.9557 89.5745 13.6718 89.2261 13.6706 88.8271C13.642 77.1819 13.3442 65.383 12.7846 53.7526C12.544 49.7508 11.2814 45.8465 9.12809 42.4537C8.34687 41.3186 8.09544 39.9006 8.43833 38.5643L8.5027 38.3134H6.17024L6.14815 38.3149C5.91058 38.341 5.69554 38.3445 5.41436 38.3149L5.38328 38.3105C4.33621 38.1909 3.38636 37.5835 2.84317 36.6923L2.82033 36.6473L2.81887 36.6458C2.54182 36.1043 2.30276 35.5705 2.08816 35.0158L1.74013 34.6582L1.7008 35.0699C1.35025 38.7422 1.29812 42.4666 1.54748 46.1384L1.55336 46.2304L7.61602 50.8426C8.71154 51.6763 9.37728 52.9426 9.44327 54.3183C9.51986 55.9345 9.59232 57.5721 9.65934 59.1868C9.67259 59.5127 9.49379 59.8224 9.20349 59.974C8.92099 60.1217 8.55013 60.09 8.29665 59.8969L2.96469 55.8395L2.9448 56.2175C2.88028 57.4373 2.84347 58.6663 2.83433 59.8668L2.83388 59.968L9.32721 64.9086C9.6838 65.1803 9.89647 65.5926 9.91076 66.0401C9.97763 68.112 10.0364 70.2161 10.0865 72.2899C10.0953 72.6139 9.91283 72.9172 9.62414 73.0655C9.34312 73.2079 8.9752 73.1762 8.72319 72.9852L3.26058 68.8276L3.31052 69.2924C3.46031 70.6635 3.64986 72.0632 3.87359 73.453L3.88685 73.5318L9.63578 77.9065C10.0002 78.1839 10.2132 78.6053 10.2198 79.0625C10.251 81.0986 10.274 83.1711 10.2887 85.2204C10.2917 85.5463 10.1115 85.8385 9.81931 85.9847C9.52959 86.1291 9.18257 86.097 8.92555 85.9003L5.47136 83.2737L5.5179 83.7328C5.66814 85.2163 5.77433 86.6891 5.83266 88.1091L5.8356 88.2031L16.1817 96.0748L26.5273 88.2031L26.5318 88.1091C26.5901 86.687 26.6958 85.2147 26.8461 83.7328L26.8931 83.2737L23.4384 85.9003C23.1814 86.097 22.8344 86.1291 22.5447 85.9847C22.253 85.8385 22.0731 85.5463 22.0757 85.2204C22.0904 83.1711 22.1136 81.0986 22.1442 79.0625C22.1516 78.6053 22.3644 78.1839 22.7282 77.9065L28.4771 73.5318L28.4904 73.453C28.7153 72.0611 28.9043 70.662 29.0536 69.2924L29.1041 68.8276L23.6408 72.9852C23.3895 73.1762 23.0216 73.2079 22.74 73.0655C22.4519 72.9172 22.2698 72.6139 22.2776 72.2899C22.3276 70.2161 22.3869 68.114 22.4538 66.0401C22.4685 65.5926 22.6808 65.1803 23.0373 64.9086L29.5308 59.968L29.5297 59.8668C29.5208 58.6663 29.4838 57.4393 29.4199 56.2175L29.3999 55.8395L24.0675 59.8969C23.814 60.09 23.4436 60.1217 23.1611 59.974C22.8708 59.8224 22.6915 59.5127 22.7052 59.1868C22.7712 57.5814 22.8443 55.9442 22.9214 54.3183C22.9868 52.9426 23.6526 51.6763 24.7481 50.8426L30.8112 46.2304L30.8171 46.1384C31.066 42.4666 31.0143 38.7422 30.6633 35.0699L30.6624 35.0702Z" fill="#00AEEF"/>
    <path fill-rule="evenodd" clip-rule="evenodd" d="M23.2333 42.4572C23.2339 42.4572 23.2339 42.4557 23.2343 42.4557C24.03 41.2997 24.2742 39.8669 23.9119 38.5137H8.45103C8.0887 39.8669 8.33247 41.2997 9.12856 42.4557C9.12856 42.4557 9.12856 42.4572 9.12914 42.4572C9.12959 42.4572 9.13019 42.4572 9.13063 42.4587C11.2807 45.8439 12.5439 49.7501 12.7845 53.7519V53.7534C13.3441 65.3818 13.6419 77.1822 13.6705 88.826C13.6716 89.225 13.9556 89.5734 14.3461 89.656C15.5642 89.909 16.7987 89.909 18.0164 89.656C18.4073 89.5734 18.6914 89.225 18.6924 88.826C18.7204 77.1822 19.0184 65.3818 19.5779 53.7534V53.7519C19.8186 49.7501 21.0821 45.8439 23.2323 42.4587C23.2323 42.4572 23.2333 42.4572 23.2333 42.4572Z" fill="#ECECEB"/>
    <path fill-rule="evenodd" clip-rule="evenodd" d="M6.54097 36.9292C7.51837 36.5562 8.08868 35.5427 7.89912 34.5139C7.05663 32.0446 6.4607 29.4803 6.12753 26.8929C6.12709 26.8914 6.12753 26.8885 6.12753 26.8885C6.12753 26.887 6.1265 26.8856 6.1265 26.8826C6.05904 26.3166 6.03768 25.7379 6.06213 25.1663C6.10352 24.1886 6.27837 23.2216 6.58134 22.2924C6.88431 21.3652 7.31306 20.4846 7.85419 19.6791C8.39636 18.8735 9.04531 18.15 9.78307 17.53C10.5219 16.9104 11.3409 16.4006 12.2183 16.0165C13.0967 15.6307 14.022 15.3758 14.9694 15.2593C15.9167 15.142 16.8748 15.1623 17.8166 15.3212C18.7582 15.4805 19.6723 15.7748 20.5339 16.1963C21.3943 16.6197 22.1919 17.1632 22.9048 17.8151C23.6165 18.4668 24.2352 19.2163 24.7437 20.0463C25.2515 20.8743 25.6435 21.7713 25.9087 22.7123C26.1734 23.6526 26.3083 24.6247 26.3104 25.6045C26.3108 26.0301 26.2858 26.4612 26.2363 26.8826C26.2363 26.8841 26.2353 26.8856 26.2348 26.8885C26.2348 26.8885 26.2354 26.89 26.2354 26.8929C25.9022 29.4803 25.3059 32.0446 24.4634 34.5139C24.2743 35.5427 24.8446 36.5562 25.8209 36.9292C26.7985 37.3 27.9001 36.9218 28.4422 36.028C29.593 33.7702 30.1478 31.3085 30.1478 28.8694C30.1478 24.5157 28.3793 20.2308 25.0745 17.3064C19.9213 12.7504 12.4413 12.7504 7.28876 17.3064C3.98318 20.2308 2.21484 24.5157 2.21484 28.8694C2.21484 31.3085 2.77027 33.7702 3.92044 36.028C4.46246 36.9215 5.56461 37.3 6.54113 36.9292H6.54097Z" fill="#BDBCBA"/>
    <path fill-rule="evenodd" clip-rule="evenodd" d="M25.4074 92.4112C25.066 92.8851 24.6445 93.2862 24.154 93.6024C21.802 95.12 19.0785 95.9236 16.279 95.9236H16.0832C13.3214 95.9236 10.6277 95.1384 8.29449 93.6551L8.16578 93.5722C7.6921 93.2596 7.2844 92.8684 6.95477 92.4112L6.37695 91.607L6.59612 92.5721C7.18115 95.1481 8.90411 97.241 11.3419 98.3198C12.8718 98.8409 14.4819 99.1029 16.1273 99.1029H16.1664C16.1812 99.1044 16.1977 99.1044 16.2161 99.1044H16.2784C17.8941 99.1044 19.4898 98.8404 21.0371 98.3116C23.4575 97.2404 25.1815 95.1476 25.7661 92.5715L25.9852 91.6064L25.4074 92.4106V92.4112Z" fill="#797B76"/>
    <path fill-rule="evenodd" clip-rule="evenodd" d="M16.1806 95.8223L5.82422 87.9429L5.84011 88.3679C5.86102 88.9191 5.8743 89.3702 5.88196 89.7881C5.89521 90.543 6.0905 91.2979 6.44561 91.9688L6.47669 92.0269L6.49141 92.0343L6.49584 92.0624L6.51425 92.0941C6.89852 92.7704 7.44613 93.3492 8.0992 93.771C10.4043 95.2581 13.0612 96.0657 15.7944 96.1163L15.7826 96.1251L16.2399 96.1221L16.5787 96.1251L16.5684 96.1163C19.3052 96.0637 21.9628 95.2566 24.2636 93.771C24.9161 93.3492 25.4644 92.7683 25.8486 92.0941L25.9166 91.9685C26.2717 91.2976 26.4675 90.5427 26.4807 89.7877C26.4881 89.3699 26.5016 88.9189 26.5221 88.3676L26.5385 87.9426L16.1812 95.8221L16.1806 95.8223Z" fill="#0B798F"/>
    <path fill-rule="evenodd" clip-rule="evenodd" d="M21.9435 79.0588C21.9129 81.0974 21.8893 83.1693 21.875 85.2188C21.8721 85.6218 22.0948 85.9851 22.455 86.1649C22.6017 86.2379 22.7642 86.2772 22.9256 86.2772C23.1555 86.2772 23.3753 86.2027 23.5603 86.0622L26.8631 83.5479L26.8719 83.4616C27.1053 81.238 27.4406 79.0159 27.8683 76.8576C28.0707 75.8722 28.2642 74.8231 28.4426 73.7422L28.5249 73.2437L22.6063 77.7476C22.1929 78.0627 21.9512 78.5403 21.9431 79.0588H21.9435Z" fill="#00376A"/>
    <path fill-rule="evenodd" clip-rule="evenodd" d="M22.9144 64.7494C22.5097 65.0564 22.2686 65.5254 22.2522 66.0326C22.1848 68.1157 22.126 70.2183 22.0765 72.2846C22.0662 72.6855 22.2911 73.062 22.6483 73.2434C22.7944 73.3185 22.9589 73.3578 23.1245 73.3578C23.3544 73.3578 23.5802 73.2832 23.7621 73.1443L29.0737 69.1032L29.0825 69.0153C29.3927 66.0761 29.5429 63.0821 29.5301 60.1184L29.5286 59.7173L22.9147 64.7494H22.9144Z" fill="#00376A"/>
    <path fill-rule="evenodd" clip-rule="evenodd" d="M24.6254 50.6841C23.4818 51.553 22.7874 52.8741 22.7195 54.309C22.6417 55.9349 22.5692 57.5746 22.5028 59.1781C22.4865 59.5828 22.7071 59.9649 23.0663 60.1523C23.2145 60.2289 23.3821 60.2703 23.5508 60.2703C23.7802 60.2703 24.006 60.1951 24.1875 60.0567L29.3988 56.0907L29.4146 56.0197C30.1008 52.8664 30.5663 49.6329 30.7979 46.405L30.8295 45.9631L24.6254 50.6841V50.6841Z" fill="#00376A"/>
    <path fill-rule="evenodd" clip-rule="evenodd" d="M9.23823 73.3578C9.40378 73.3578 9.5683 73.3185 9.71396 73.2434C10.0717 73.062 10.296 72.6855 10.2863 72.2846C10.2367 70.2183 10.1775 68.1157 10.1105 66.0326C10.0941 65.5254 9.8524 65.0564 9.4478 64.7494L2.83432 59.7173L2.83283 60.1184C2.81958 63.0821 2.97041 66.074 3.28001 69.0153L3.28884 69.1032L8.60135 73.1443C8.78281 73.2832 9.00861 73.3578 9.23852 73.3578H9.23823Z" fill="#00376A"/>
    <path fill-rule="evenodd" clip-rule="evenodd" d="M2.96201 56.0907L8.17333 60.0567C8.35479 60.1951 8.58103 60.2703 8.80992 60.2703C8.97871 60.2703 9.14618 60.2289 9.29435 60.1523C9.65359 59.9649 9.87495 59.5828 9.85801 59.1781C9.79158 57.5629 9.71899 55.9258 9.64181 54.309C9.57391 52.8756 8.87899 51.553 7.73589 50.6841L1.53125 45.9631L1.56292 46.405C1.79489 49.6329 2.25988 52.8664 2.94668 56.0197L2.96201 56.0907V56.0907Z" fill="#00376A"/>
    <path fill-rule="evenodd" clip-rule="evenodd" d="M9.75605 77.7476L3.83789 73.2437L3.92024 73.7422C4.09801 74.8215 4.29126 75.8687 4.49407 76.8576C4.9218 79.0159 5.25687 81.238 5.49047 83.4616L5.4993 83.5479L8.80222 86.0622C8.98721 86.2027 9.20696 86.2772 9.43732 86.2772C9.59889 86.2772 9.76137 86.2379 9.90748 86.1649C10.2682 85.9851 10.4904 85.6218 10.4879 85.2188C10.473 83.1693 10.4501 81.0974 10.419 79.0588C10.4116 78.5403 10.1696 78.0627 9.75576 77.7476H9.75605Z" fill="#00376A"/>
    <path fill-rule="evenodd" clip-rule="evenodd" d="M25.4038 26.8124C24.9721 30.1489 24.1008 33.4162 22.8143 36.5245C22.6829 36.8427 22.3748 37.0492 22.0298 37.0492H10.3302C9.98581 37.0492 9.67769 36.8427 9.54586 36.5245C8.25665 33.4085 7.3844 30.1322 6.95329 26.7878V26.7863C6.90881 26.4077 6.88585 26.0215 6.88585 25.6415C6.88526 22.3666 8.54284 19.2495 11.2121 17.5051C12.693 16.5386 14.4109 16.0268 16.1803 16.0268C17.9498 16.0268 19.6676 16.5386 21.1479 17.5051C23.8173 19.2495 25.4753 22.3666 25.4743 25.6415C25.4743 26.018 25.4523 26.4001 25.4085 26.775L25.4011 26.801L25.4026 26.8128L25.4038 26.8124ZM30.6188 34.6151C30.5942 34.2857 30.3628 34.0124 30.0435 33.9317C29.725 33.8525 29.3751 33.997 29.2054 34.278L29.1886 34.3116C28.979 34.8854 28.7344 35.4488 28.4598 35.9922L28.4354 36.0371C28.0445 36.6757 27.3388 37.0717 26.5907 37.0717C26.3271 37.0717 26.068 37.0225 25.8197 36.9292C24.8483 36.5582 24.2786 35.552 24.459 34.5308L24.4649 34.5083C25.3039 32.0466 25.8982 29.4931 26.2303 26.921L26.2377 26.8629C26.2857 26.447 26.3097 26.0256 26.3093 25.6057C26.3078 24.6259 26.1723 23.6538 25.9076 22.7135C25.6423 21.7724 25.2504 20.8754 24.7426 20.0475C24.2341 19.2174 23.6154 18.468 22.9037 17.8163C22.1908 17.1644 21.3932 16.6209 20.5328 16.1974C19.6711 15.776 18.7571 15.4816 17.8155 15.3223C16.8768 15.1651 15.91 15.1431 14.9682 15.2605C14.0209 15.377 13.095 15.6318 12.2172 16.0176C11.3404 16.4018 10.5208 16.9116 9.78196 17.5312C9.04419 18.1512 8.39465 18.8747 7.85308 19.6802C7.31194 20.4858 6.88319 21.3663 6.58022 22.2935C6.27725 23.2228 6.1024 24.1898 6.06102 25.1675C6.03701 25.7314 6.05808 26.2989 6.12185 26.8552L6.12082 26.8626L6.12819 26.906C6.46136 29.4856 7.05566 32.0428 7.89461 34.5045L7.9005 34.527C8.08328 35.55 7.51314 36.5579 6.5403 36.9288C6.29242 37.0222 6.03333 37.0714 5.76968 37.0714C5.02102 37.0714 4.31551 36.6739 3.92402 36.0369L3.90723 36.0052C3.62974 35.4582 3.3829 34.8886 3.17199 34.3113L3.15459 34.2777C2.98536 33.9968 2.6338 33.8506 2.31713 33.9314C1.99722 34.0121 1.76582 34.2854 1.74123 34.6147L1.73828 34.6582L1.753 34.6975C2.00295 35.3978 2.29929 36.0784 2.66456 36.7864C3.24399 37.7436 4.25675 38.3882 5.37319 38.5134H26.9918C28.1068 38.3882 29.1179 37.7421 29.7035 36.775C30.0622 36.0763 30.3581 35.3978 30.6084 34.6975L30.6232 34.6582L30.6202 34.6147L30.6188 34.6151Z" fill="#00376A"/>
    <path fill-rule="evenodd" clip-rule="evenodd" d="M21.2277 2.07174C21.3488 2.12578 21.4694 2.18248 21.5889 2.2402C21.6022 2.24756 21.6176 2.25049 21.6323 2.25049C21.6698 2.25049 21.7054 2.2296 21.7234 2.19441C21.7468 2.14376 21.7263 2.08352 21.6764 2.05893C21.5547 2.00121 21.432 1.9451 21.3095 1.88885C21.2584 1.86633 21.1996 1.88889 21.1766 1.93954C21.1541 1.99004 21.1771 2.04979 21.2277 2.07232V2.07174Z" fill="#2A2B26"/>
    <path fill-rule="evenodd" clip-rule="evenodd" d="M22.6382 2.80961C22.7517 2.87911 22.864 2.95025 22.976 3.02167C22.9928 3.03345 23.0118 3.03802 23.0306 3.03802C23.0633 3.03802 23.0954 3.02166 23.1149 2.99354C23.1451 2.94657 23.1318 2.88281 23.0853 2.85307C22.9719 2.78003 22.8574 2.70863 22.7425 2.63957C22.695 2.60953 22.6331 2.6263 22.6045 2.67327C22.5753 2.7198 22.5913 2.78163 22.6382 2.80961V2.80961Z" fill="#2A2B26"/>
    <path fill-rule="evenodd" clip-rule="evenodd" d="M21.9445 2.42C22.0621 2.48022 22.179 2.54352 22.2945 2.60949C22.3104 2.61832 22.3273 2.62274 22.3441 2.62274C22.3793 2.62274 22.4131 2.60449 22.4315 2.57268C22.459 2.52365 22.4418 2.46196 22.3936 2.4359C22.2756 2.36847 22.1571 2.30457 22.0381 2.24273C21.9884 2.21667 21.9282 2.23538 21.9021 2.28411C21.8766 2.33476 21.8948 2.39437 21.9445 2.42058V2.42Z" fill="#2A2B26"/>
    <path fill-rule="evenodd" clip-rule="evenodd" d="M20.49 1.7704C20.5554 1.79441 20.6208 1.82092 20.6862 1.84492C20.7445 1.86746 20.8026 1.89188 20.8608 1.91648C20.8726 1.91942 20.8859 1.92236 20.8987 1.92236C20.938 1.92236 20.9759 1.89984 20.9916 1.86052C21.0127 1.81 20.9887 1.7496 20.9365 1.72928C20.8778 1.70468 20.8184 1.68233 20.7592 1.65817C20.6928 1.63372 20.6259 1.60762 20.5595 1.58302C20.5073 1.56417 20.4496 1.59041 20.4302 1.64078C20.4107 1.6935 20.4375 1.75182 20.49 1.77067V1.7704Z" fill="#2A2B26"/>
    <path fill-rule="evenodd" clip-rule="evenodd" d="M18.1837 1.15571C18.3145 1.17824 18.4453 1.20064 18.5757 1.22685C18.583 1.22832 18.5889 1.22833 18.595 1.22833C18.6421 1.22833 18.6839 1.19474 18.6937 1.14762C18.704 1.09358 18.6692 1.04085 18.6144 1.02965C18.4821 1.00359 18.3497 0.97901 18.2164 0.956627C18.1612 0.947791 18.11 0.984773 18.1009 1.03941C18.0921 1.09507 18.129 1.14613 18.1837 1.15526V1.15571Z" fill="#2A2B26"/>
    <path fill-rule="evenodd" clip-rule="evenodd" d="M19.7356 1.51544C19.8628 1.55475 19.9891 1.59409 20.1153 1.63694C20.1256 1.63988 20.1366 1.64282 20.1474 1.64282C20.1892 1.64282 20.2281 1.61661 20.2424 1.57376C20.2604 1.5212 20.2321 1.46496 20.1791 1.44818C20.0514 1.40474 19.9231 1.36379 19.7937 1.32448C19.7407 1.30769 19.6851 1.33774 19.6686 1.39192C19.6522 1.44463 19.6818 1.50031 19.7356 1.51562V1.51544Z" fill="#2A2B26"/>
    <path fill-rule="evenodd" clip-rule="evenodd" d="M18.9642 1.3111C19.094 1.34129 19.2227 1.37295 19.351 1.40859C19.3598 1.41154 19.3684 1.41156 19.3771 1.41156C19.4215 1.41156 19.4619 1.38341 19.4741 1.33834C19.4874 1.28369 19.4563 1.2295 19.4025 1.21477C19.2723 1.17898 19.1416 1.14734 19.0102 1.11714C18.955 1.10389 18.9024 1.1376 18.8896 1.1918C18.8763 1.24439 18.9106 1.29861 18.9642 1.31186V1.3111Z" fill="#2A2B26"/>
    <path fill-rule="evenodd" clip-rule="evenodd" d="M24.8553 4.49592C24.8747 4.51491 24.8993 4.52405 24.9244 4.52405C24.9509 4.52405 24.9775 4.51229 24.9974 4.49241C25.0353 4.4531 25.0336 4.3892 24.993 4.34988C24.8949 4.25801 24.7952 4.16657 24.6946 4.07808C24.6532 4.04083 24.5893 4.04437 24.553 4.08545C24.5158 4.12623 24.5193 4.19014 24.5619 4.22739C24.661 4.31574 24.7591 4.4057 24.8562 4.49551L24.8553 4.49592Z" fill="#2A2B26"/>
    <path fill-rule="evenodd" clip-rule="evenodd" d="M6.62323 5.35776C6.65019 5.35776 6.67788 5.34596 6.69776 5.32402C6.78673 5.22492 6.87658 5.12732 6.96864 5.03176C7.00635 4.99054 7.00532 4.92663 6.9657 4.88923C6.92593 4.85198 6.86199 4.85197 6.82369 4.89364C6.7306 4.99082 6.63929 5.0899 6.54929 5.18944C6.51202 5.23081 6.51554 5.29412 6.55664 5.33152C6.57549 5.34875 6.5995 5.35803 6.62366 5.35803L6.62323 5.35776Z" fill="#2A2B26"/>
    <path fill-rule="evenodd" clip-rule="evenodd" d="M25.9507 5.65359L25.9511 5.65507C25.9962 5.70778 26.0407 5.76185 26.084 5.8181C26.1038 5.84269 26.133 5.85535 26.1628 5.85535C26.1847 5.85535 26.2066 5.84795 26.225 5.83499C26.2685 5.79965 26.2762 5.7359 26.2414 5.69291C26.1969 5.63681 26.151 5.57997 26.1044 5.52593V5.52449C26.0175 5.42171 25.9292 5.32067 25.8393 5.21952C25.8025 5.17814 25.739 5.17445 25.6978 5.21215C25.6564 5.2494 25.6527 5.31124 25.6889 5.35468C25.7773 5.45171 25.8647 5.55289 25.9501 5.6539L25.9507 5.65359Z" fill="#2A2B26"/>
    <path fill-rule="evenodd" clip-rule="evenodd" d="M17.3931 1.05063C17.4825 1.06094 17.5726 1.06946 17.662 1.08065L17.7888 1.0976C17.7932 1.0976 17.7976 1.0976 17.802 1.0976C17.8515 1.0976 17.895 1.06182 17.9016 1.0113C17.909 0.955048 17.8699 0.904353 17.8153 0.897285L17.686 0.882004C17.5951 0.870222 17.5041 0.859456 17.4132 0.852387C17.3579 0.846496 17.3089 0.886118 17.3033 0.942228C17.2974 0.996422 17.338 1.04503 17.3931 1.05063V1.05063Z" fill="#2A2B26"/>
    <path fill-rule="evenodd" clip-rule="evenodd" d="M24.2586 3.96772C24.2776 3.98259 24.3006 3.99023 24.3229 3.99023C24.3521 3.99023 24.3802 3.97847 24.4002 3.95447C24.4359 3.91163 24.4303 3.84979 24.387 3.81402C24.2833 3.72774 24.1785 3.64187 24.0727 3.55912C24.0288 3.52541 23.9653 3.53308 23.9312 3.57593C23.8974 3.61936 23.9051 3.68267 23.9485 3.71638C24.0528 3.79868 24.1565 3.88145 24.2581 3.96772H24.2586Z" fill="#2A2B26"/>
    <path fill-rule="evenodd" clip-rule="evenodd" d="M23.6331 3.47482C23.651 3.48807 23.672 3.49585 23.6929 3.49585C23.7236 3.49585 23.7542 3.48057 23.7737 3.4545C23.8064 3.40944 23.7971 3.34774 23.7521 3.31402C23.6439 3.23317 23.534 3.15451 23.4231 3.07794C23.3776 3.04775 23.3153 3.05894 23.2836 3.104C23.2519 3.14892 23.2631 3.21283 23.3091 3.24449C23.4179 3.3196 23.5264 3.39618 23.6331 3.47482V3.47482Z" fill="#2A2B26"/>
    <path fill-rule="evenodd" clip-rule="evenodd" d="M25.4206 5.06014C25.4404 5.08061 25.467 5.08984 25.4935 5.08984C25.5185 5.08984 25.5431 5.08249 25.5625 5.06365C25.6029 5.02448 25.605 4.96267 25.567 4.92129C25.4739 4.82425 25.3799 4.72661 25.2849 4.63105C25.2454 4.59173 25.1821 4.59173 25.1428 4.63105C25.1034 4.67036 25.1034 4.73427 25.1428 4.77359C25.2369 4.86709 25.3298 4.96266 25.4209 5.06014H25.4206Z" fill="#2A2B26"/>
    <path fill-rule="evenodd" clip-rule="evenodd" d="M7.17803 4.77521C7.20366 4.77521 7.22913 4.76637 7.24917 4.74546C7.34314 4.6515 7.43917 4.56003 7.53623 4.47006C7.57674 4.43236 7.57881 4.36903 7.54066 4.3275C7.50296 4.28612 7.43947 4.28614 7.39912 4.3231C7.30058 4.41499 7.2035 4.50909 7.10791 4.60245C7.06859 4.64192 7.068 4.70569 7.10733 4.74501C7.12677 4.76548 7.15285 4.77476 7.17833 4.77476L7.17803 4.77521Z" fill="#2A2B26"/>
    <path fill-rule="evenodd" clip-rule="evenodd" d="M14.9984 1.04681C15.0014 1.04681 15.0058 1.04681 15.0087 1.04681C15.1406 1.03356 15.273 1.02441 15.4058 1.01513C15.4611 1.01071 15.5029 0.96461 15.4994 0.908359C15.4964 0.853727 15.4462 0.808842 15.393 0.814437C15.2581 0.824745 15.1238 0.835332 14.9889 0.846523C14.9336 0.852413 14.8939 0.902792 14.8989 0.956982C14.9048 1.00955 14.9475 1.04681 14.9986 1.04681H14.9984Z" fill="#2A2B26"/>
    <path fill-rule="evenodd" clip-rule="evenodd" d="M9.70571 2.80426C9.72353 2.80426 9.74151 2.80131 9.75727 2.791C9.87127 2.72209 9.98617 2.65467 10.1022 2.59076C10.1507 2.56278 10.1681 2.50281 10.1405 2.45392C10.1134 2.40533 10.0526 2.38855 10.0041 2.41447C9.88659 2.48044 9.7695 2.54934 9.65402 2.61885C9.60659 2.64697 9.59128 2.70884 9.61986 2.75582C9.63871 2.78748 9.67139 2.80426 9.70571 2.80426Z" fill="#2A2B26"/>
    <path fill-rule="evenodd" clip-rule="evenodd" d="M16.5997 0.998475C16.7325 1.00142 16.8649 1.01023 16.9978 1.01892C16.9992 1.01892 17.0022 1.01892 17.0051 1.01892C17.0577 1.01892 17.1017 0.977534 17.1053 0.925408C17.1082 0.869159 17.0674 0.822217 17.0118 0.818683C16.8774 0.808375 16.7425 0.80173 16.6076 0.797607C16.554 0.79908 16.5054 0.839 16.5039 0.893188C16.5025 0.949437 16.5453 0.996413 16.6004 0.998475H16.5997Z" fill="#2A2B26"/>
    <path fill-rule="evenodd" clip-rule="evenodd" d="M9.03057 3.23914C9.04943 3.23914 9.06946 3.23328 9.08669 3.22224C9.19657 3.14714 9.30703 3.07262 9.41882 3.00106C9.46537 2.97146 9.47864 2.90963 9.44903 2.86266C9.41884 2.81569 9.35712 2.80242 9.31014 2.83246C9.19658 2.90549 9.08479 2.98056 8.97329 3.05566C8.92733 3.08732 8.91614 3.1492 8.94722 3.19618C8.96666 3.2243 8.99832 3.23914 9.03057 3.23914V3.23914Z" fill="#2A2B26"/>
    <path fill-rule="evenodd" clip-rule="evenodd" d="M7.76432 4.22638C7.78788 4.22638 7.8113 4.21898 7.83074 4.20175C7.93044 4.11385 8.03161 4.0276 8.13382 3.94337C8.17608 3.90759 8.18227 3.84427 8.14708 3.80083C8.11129 3.75784 8.04796 3.75224 8.00555 3.78758C7.90187 3.87342 7.79965 3.96174 7.69789 4.04965C7.65651 4.0869 7.65254 4.15081 7.68906 4.19218C7.70909 4.21456 7.73603 4.22593 7.76416 4.22593L7.76432 4.22638Z" fill="#2A2B26"/>
    <path fill-rule="evenodd" clip-rule="evenodd" d="M11.1299 2.06415C11.1432 2.06415 11.157 2.06267 11.1703 2.05678C11.292 2.00259 11.4141 1.95002 11.5372 1.90143C11.5883 1.87905 11.6134 1.82072 11.5925 1.77022C11.5715 1.7175 11.5122 1.69309 11.4617 1.714C11.3365 1.76466 11.2123 1.8166 11.0886 1.87344C11.038 1.89538 11.0155 1.95355 11.038 2.0042C11.0544 2.0419 11.0912 2.06397 11.1299 2.06397V2.06415Z" fill="#2A2B26"/>
    <path fill-rule="evenodd" clip-rule="evenodd" d="M8.38192 3.71301C8.40342 3.71301 8.42477 3.70714 8.44318 3.69256L8.53216 3.62322C8.60771 3.56696 8.68443 3.50863 8.76161 3.45252C8.80594 3.4188 8.81523 3.35695 8.78253 3.31203C8.74984 3.26697 8.68738 3.25781 8.64246 3.28947C8.56425 3.34779 8.48723 3.40598 8.41006 3.46371L8.32005 3.53526C8.27616 3.56899 8.2685 3.63025 8.30223 3.67575C8.32211 3.69976 8.35173 3.71301 8.38192 3.71301V3.71301Z" fill="#2A2B26"/>
    <path fill-rule="evenodd" clip-rule="evenodd" d="M10.4054 2.4129C10.4209 2.4129 10.4366 2.40845 10.4515 2.40109C10.5695 2.33867 10.6885 2.27906 10.8077 2.22282C10.8577 2.19824 10.8786 2.13864 10.8551 2.088C10.8306 2.03942 10.7708 2.01702 10.7207 2.04146C10.5991 2.09917 10.4786 2.16099 10.359 2.22282C10.3094 2.24932 10.2905 2.30911 10.316 2.35769C10.334 2.39331 10.3692 2.41227 10.4054 2.41227V2.4129Z" fill="#2A2B26"/>
    <path fill-rule="evenodd" clip-rule="evenodd" d="M15.7996 0.99646C15.8006 0.99646 15.801 0.99646 15.8025 0.99646C15.9287 0.993515 16.055 0.990573 16.1781 0.990573H16.2011C16.2568 0.990573 16.2915 0.945629 16.2915 0.891439C16.2915 0.835188 16.2363 0.790283 16.1806 0.790283C16.0525 0.790283 15.9246 0.791753 15.7963 0.79617C15.7412 0.797643 15.6978 0.844762 15.6993 0.899393C15.7007 0.953583 15.7454 0.99646 15.7994 0.99646H15.7996Z" fill="#2A2B26"/>
    <path fill-rule="evenodd" clip-rule="evenodd" d="M14.2017 1.15009C14.2075 1.15009 14.2135 1.15009 14.218 1.15009C14.3314 1.13124 14.4453 1.1143 14.5588 1.09958L14.6124 1.09221C14.6675 1.08484 14.7064 1.03446 14.6987 0.979681C14.6914 0.92564 14.6416 0.886333 14.5864 0.893401L14.5322 0.90077C14.4167 0.915643 14.3012 0.93242 14.1858 0.951415C14.1311 0.96025 14.0937 1.0112 14.103 1.06583C14.1118 1.11633 14.1536 1.15009 14.2017 1.15009V1.15009Z" fill="#2A2B26"/>
    <path fill-rule="evenodd" clip-rule="evenodd" d="M12.6354 1.51002C12.6457 1.51002 12.6543 1.50706 12.664 1.50706C12.7913 1.46716 12.9195 1.43199 13.0478 1.39827C13.1014 1.38502 13.1335 1.3289 13.1193 1.27663C13.1045 1.22201 13.0493 1.19035 12.9967 1.20375C12.8659 1.23894 12.736 1.2747 12.6069 1.31402C12.5537 1.32889 12.5235 1.38502 12.5394 1.43759C12.5527 1.48264 12.5924 1.51074 12.6354 1.51074V1.51002Z" fill="#2A2B26"/>
    <path fill-rule="evenodd" clip-rule="evenodd" d="M11.8738 1.7627C11.8856 1.7627 11.8967 1.76123 11.9085 1.75681C12.0333 1.70983 12.1585 1.66681 12.2847 1.62396C12.3373 1.60702 12.3654 1.55079 12.348 1.49821C12.3307 1.44564 12.2734 1.41603 12.2208 1.43444C12.0931 1.47788 11.9658 1.52076 11.839 1.56774C11.787 1.58821 11.7604 1.64431 11.7798 1.69704C11.7947 1.73842 11.833 1.76243 11.8738 1.76243V1.7627Z" fill="#2A2B26"/>
    <path fill-rule="evenodd" clip-rule="evenodd" d="M13.4127 1.30551C13.42 1.30551 13.428 1.30401 13.4352 1.30254C13.565 1.27235 13.6947 1.24631 13.8251 1.2198C13.8797 1.2095 13.9149 1.1563 13.9043 1.1021C13.894 1.04747 13.8408 1.01186 13.7862 1.02305C13.6539 1.04956 13.5221 1.07767 13.3901 1.10786C13.3361 1.12111 13.3028 1.17325 13.315 1.22744C13.3253 1.27442 13.3672 1.30609 13.4127 1.30609V1.30551Z" fill="#2A2B26"/>
    <path fill-rule="evenodd" clip-rule="evenodd" d="M5.44801 14.7472L5.61725 15.4577C5.62756 15.5042 5.66924 15.5344 5.71475 15.5344C5.72212 15.5344 5.73009 15.5344 5.73775 15.5329C5.79195 15.5197 5.82523 15.4655 5.81241 15.4113L5.64332 14.7013C5.63007 14.6471 5.57631 14.6134 5.5227 14.6283C5.46849 14.6401 5.43534 14.6936 5.44801 14.7478V14.7472Z" fill="#2A2B26"/>
    <path fill-rule="evenodd" clip-rule="evenodd" d="M5.26446 13.9663L5.35696 14.3579C5.36726 14.4029 5.40909 14.4346 5.4546 14.4346C5.46196 14.4346 5.47035 14.4331 5.47801 14.4317C5.53162 14.4199 5.56533 14.3658 5.55266 14.3117L5.45958 13.9205C5.44633 13.8658 5.39274 13.8321 5.33914 13.8475C5.28494 13.8592 5.25165 13.9128 5.26446 13.967V13.9663Z" fill="#2A2B26"/>
    <path fill-rule="evenodd" clip-rule="evenodd" d="M5.10499 12.8685C5.15919 12.8553 5.19234 12.8011 5.17968 12.7485L5.08658 12.3573C5.0748 12.3025 5.02014 12.2689 4.96608 12.2822C4.91188 12.2954 4.8786 12.3495 4.89142 12.4036L4.98436 12.7934C4.99467 12.8404 5.0365 12.8722 5.08202 12.8722C5.08938 12.8722 5.09733 12.8707 5.10499 12.8693V12.8685Z" fill="#2A2B26"/>
    <path fill-rule="evenodd" clip-rule="evenodd" d="M5.29007 13.6497C5.34427 13.6364 5.37756 13.5843 5.36475 13.5301L5.27225 13.1383C5.25899 13.0842 5.20479 13.0505 5.15118 13.0633C5.09757 13.0765 5.06385 13.1307 5.07711 13.1853L5.16961 13.5765C5.17992 13.6215 5.22174 13.6536 5.2671 13.6536C5.27446 13.6536 5.28241 13.6522 5.29007 13.6492V13.6497Z" fill="#2A2B26"/>
    <path fill-rule="evenodd" clip-rule="evenodd" d="M4.9196 12.0869C4.97365 12.0737 5.00696 12.0201 4.99415 11.9673L4.95275 11.7932C4.93699 11.7259 4.92166 11.6564 4.90738 11.5889C4.8956 11.5347 4.84347 11.4969 4.78884 11.5103C4.73464 11.5221 4.69989 11.5741 4.71108 11.6282C4.72581 11.6998 4.74081 11.7687 4.7576 11.8403L4.79854 12.0124C4.81033 12.0594 4.85054 12.0911 4.89664 12.0911C4.904 12.0911 4.91195 12.0896 4.9196 12.0866V12.0869Z" fill="#2A2B26"/>
    <path fill-rule="evenodd" clip-rule="evenodd" d="M27.2106 13.0629C27.1574 13.0497 27.1023 13.0838 27.0895 13.138L26.997 13.5298C26.9838 13.584 27.0175 13.6366 27.0715 13.6494C27.0789 13.6509 27.0869 13.6538 27.0951 13.6538C27.14 13.6538 27.182 13.6217 27.1926 13.5767L27.2851 13.1854C27.2983 13.1308 27.2648 13.0766 27.2106 13.0634V13.0629Z" fill="#2A2B26"/>
    <path fill-rule="evenodd" clip-rule="evenodd" d="M27.3955 12.2822C27.3419 12.2689 27.2877 12.3025 27.2751 12.3573L27.1826 12.7485C27.1693 12.8011 27.2029 12.8552 27.2567 12.8685C27.264 12.87 27.2724 12.8715 27.2801 12.8715C27.3256 12.8715 27.3664 12.8397 27.3777 12.7927L27.4702 12.4029C27.4835 12.3487 27.4498 12.2947 27.3955 12.2815V12.2822Z" fill="#2A2B26"/>
    <path fill-rule="evenodd" clip-rule="evenodd" d="M27.025 13.8467C26.9713 13.8314 26.9172 13.8652 26.9044 13.9198L26.8115 14.311C26.7982 14.3652 26.8318 14.4198 26.886 14.431C26.8934 14.4325 26.9019 14.434 26.909 14.434C26.9545 14.434 26.9959 14.4023 27.0066 14.3573L27.0996 13.9656C27.1128 13.9114 27.0791 13.8572 27.025 13.846V13.8467Z" fill="#2A2B26"/>
    <path fill-rule="evenodd" clip-rule="evenodd" d="M26.8389 14.6278C26.7853 14.6129 26.7306 14.6467 26.7178 14.7009L26.5498 15.3904C26.5365 15.4446 26.5702 15.4987 26.6238 15.5099C26.6327 15.5114 26.6396 15.5143 26.6473 15.5143C26.6928 15.5143 26.7342 15.4821 26.7449 15.4372L26.9136 14.7477C26.9268 14.6935 26.8927 14.6393 26.8389 14.6281V14.6278Z" fill="#2A2B26"/>
    <path fill-rule="evenodd" clip-rule="evenodd" d="M5.23361 7.37904C5.24686 7.38493 5.26072 7.38641 5.27398 7.38641C5.31242 7.38641 5.3491 7.36593 5.36604 7.32808C5.41922 7.20645 5.47638 7.0885 5.53678 6.97055C5.56182 6.92137 5.54266 6.85969 5.49331 6.83569C5.44367 6.80904 5.38343 6.82978 5.35795 6.87852C5.29608 7.00015 5.23729 7.12225 5.18249 7.2458C5.1601 7.29646 5.18249 7.35621 5.23361 7.37859V7.37904Z" fill="#2A2B26"/>
    <path fill-rule="evenodd" clip-rule="evenodd" d="M5.58865 6.6599C5.60441 6.66874 5.62177 6.67316 5.63915 6.67316C5.6739 6.67316 5.70705 6.65579 5.72605 6.62413C5.79247 6.51016 5.86242 6.3978 5.93546 6.28693C5.9661 6.24202 5.95388 6.18018 5.90794 6.14852C5.8614 6.11848 5.7991 6.12968 5.76832 6.17665C5.69321 6.29106 5.62119 6.40503 5.55285 6.52298C5.52473 6.56995 5.54108 6.63178 5.58865 6.6599V6.6599Z" fill="#2A2B26"/>
    <path fill-rule="evenodd" clip-rule="evenodd" d="M6.08455 6.00409C6.11518 6.00409 6.1448 5.99083 6.16483 5.96477C6.24407 5.86006 6.32583 5.75477 6.4117 5.6536L6.43716 5.62403C6.47296 5.58265 6.46722 5.51889 6.42539 5.48355C6.38341 5.44776 6.32008 5.4535 6.28429 5.49532L6.25822 5.52489L6.25777 5.52637C6.16983 5.62946 6.08602 5.73637 6.00471 5.84505C5.97098 5.88805 5.98026 5.95199 6.02474 5.98571C6.04315 5.99896 6.06408 6.00395 6.085 6.00395L6.08455 6.00409Z" fill="#2A2B26"/>
    <path fill-rule="evenodd" clip-rule="evenodd" d="M4.9611 8.13431C4.97141 8.13873 4.981 8.1402 4.99131 8.1402C5.03357 8.1402 5.07347 8.11205 5.08672 8.0692C5.12619 7.94345 5.16949 7.81784 5.21603 7.6943C5.23591 7.64364 5.20868 7.58593 5.15787 7.56502C5.10574 7.54661 5.04801 7.57241 5.02857 7.62321C4.98055 7.75043 4.93607 7.87971 4.89512 8.00943C4.87878 8.06156 4.90838 8.11765 4.9611 8.13458V8.13431Z" fill="#2A2B26"/>
    <path fill-rule="evenodd" clip-rule="evenodd" d="M4.77483 8.91581C4.78072 8.91581 4.78809 8.9173 4.79368 8.9173C4.84125 8.9173 4.88322 8.88355 4.89235 8.83511C4.91739 8.70583 4.94654 8.57655 4.97864 8.44889C4.9919 8.3947 4.9598 8.3405 4.9062 8.32725C4.852 8.31238 4.7978 8.34613 4.78395 8.40032C4.75082 8.53166 4.72121 8.66447 4.69514 8.79772C4.68484 8.85191 4.72019 8.90448 4.77483 8.91581Z" fill="#2A2B26"/>
    <path fill-rule="evenodd" clip-rule="evenodd" d="M4.66764 10.5133C4.66882 10.5133 4.67058 10.5133 4.67058 10.5133C4.72625 10.5118 4.76971 10.4664 4.76779 10.4103C4.76485 10.3315 4.76337 10.2508 4.76337 10.1722C4.76337 10.1201 4.76396 10.0675 4.76485 10.0149C4.76573 9.95866 4.72183 9.91421 4.66661 9.91215C4.60284 9.91067 4.56501 9.95502 4.56398 10.0092C4.56251 10.0638 4.5625 10.118 4.5625 10.1722C4.5625 10.2529 4.56353 10.3356 4.56544 10.4179C4.56692 10.4719 4.61198 10.5133 4.66602 10.5133H4.66764Z" fill="#2A2B26"/>
    <path fill-rule="evenodd" clip-rule="evenodd" d="M4.67816 9.71167C4.68111 9.71167 4.68405 9.71167 4.68699 9.71167C4.73855 9.71167 4.78246 9.67221 4.78658 9.61965C4.79689 9.48684 4.81102 9.35773 4.82899 9.2264C4.83636 9.17015 4.79776 9.12006 4.74312 9.1124C4.68788 9.1021 4.63736 9.14409 4.6297 9.19827C4.61188 9.33314 4.59701 9.46843 4.58626 9.60329C4.58184 9.65954 4.62351 9.70799 4.67875 9.71167H4.67816Z" fill="#2A2B26"/>
    <path fill-rule="evenodd" clip-rule="evenodd" d="M4.7543 11.3121C4.80895 11.3047 4.84725 11.2533 4.839 11.1991C4.81955 11.0684 4.80422 10.937 4.79199 10.8059C4.78758 10.7496 4.7394 10.7103 4.68313 10.7144C4.62744 10.7203 4.58708 10.7686 4.59224 10.8247C4.60403 10.9596 4.62022 11.0924 4.64026 11.2273C4.64762 11.2778 4.6908 11.3135 4.73941 11.3135C4.74531 11.3135 4.74973 11.3135 4.7543 11.3121V11.3121Z" fill="#2A2B26"/>
    <path fill-rule="evenodd" clip-rule="evenodd" d="M27.5076 9.04309C27.5289 9.17221 27.5469 9.30353 27.5606 9.43471C27.5665 9.48476 27.6096 9.52466 27.6603 9.52466C27.6632 9.52466 27.6677 9.52466 27.6706 9.52466C27.7258 9.5173 27.7656 9.46844 27.76 9.41381C27.7453 9.27895 27.7273 9.14411 27.7058 9.00939C27.697 8.95462 27.645 8.91736 27.5903 8.92708C27.5357 8.93591 27.4984 8.98685 27.5071 9.04309H27.5076Z" fill="#2A2B26"/>
    <path fill-rule="evenodd" clip-rule="evenodd" d="M27.0778 7.52159C27.128 7.64322 27.1738 7.76676 27.2168 7.89251C27.2315 7.93389 27.27 7.95996 27.3118 7.95996C27.3221 7.95996 27.3337 7.95849 27.3445 7.95407C27.3966 7.93567 27.4248 7.87898 27.4069 7.82685C27.3629 7.69757 27.3155 7.56991 27.2633 7.44475C27.2423 7.39365 27.1841 7.36964 27.133 7.3901C27.0815 7.41101 27.0568 7.46875 27.0778 7.52132V7.52159Z" fill="#2A2B26"/>
    <path fill-rule="evenodd" clip-rule="evenodd" d="M27.3357 8.26921C27.3715 8.39685 27.4037 8.52406 27.4323 8.65317C27.4426 8.70028 27.4844 8.73193 27.5304 8.73193C27.5378 8.73193 27.5451 8.73192 27.5523 8.73045C27.6065 8.71867 27.6409 8.66467 27.6285 8.61049C27.5995 8.47725 27.5662 8.34638 27.5289 8.21521C27.5141 8.16265 27.4578 8.13098 27.4052 8.1457C27.3521 8.16101 27.321 8.21723 27.3357 8.26935V8.26921Z" fill="#2A2B26"/>
    <path fill-rule="evenodd" clip-rule="evenodd" d="M26.9192 7.15786C26.9359 7.1957 26.9723 7.21619 27.0096 7.21619C27.0245 7.21619 27.0388 7.21322 27.0525 7.20733C27.1031 7.18289 27.1241 7.12314 27.1006 7.07249C27.0423 6.95043 26.9804 6.83042 26.915 6.71087C26.8885 6.66243 26.8277 6.64343 26.7791 6.67155C26.7306 6.69761 26.7122 6.75785 26.7387 6.80644C26.8026 6.92232 26.8624 7.04038 26.9192 7.15831V7.15786Z" fill="#2A2B26"/>
    <path fill-rule="evenodd" clip-rule="evenodd" d="M26.5397 6.46534C26.5587 6.49494 26.5914 6.5119 26.6251 6.5119C26.643 6.5119 26.6614 6.50895 26.6783 6.49703C26.7253 6.4689 26.7396 6.40705 26.7104 6.3586C26.6384 6.24418 26.5637 6.13179 26.4851 6.01942C26.4534 5.97436 26.3911 5.96317 26.3456 5.99484C26.3002 6.0265 26.2889 6.09041 26.3211 6.13533C26.3977 6.24416 26.4703 6.35239 26.5397 6.46534V6.46534Z" fill="#2A2B26"/>
    <path fill-rule="evenodd" clip-rule="evenodd" d="M27.6907 10.5269C27.6365 10.521 27.5875 10.5641 27.584 10.6202C27.5751 10.7516 27.5635 10.8828 27.5478 11.0137C27.5404 11.0698 27.5803 11.1188 27.6351 11.126C27.6395 11.126 27.6424 11.126 27.6469 11.126C27.6969 11.126 27.7404 11.0888 27.7464 11.0381C27.7629 10.9033 27.7751 10.7685 27.7838 10.6335C27.7868 10.5774 27.7455 10.5304 27.6903 10.5269H27.6907Z" fill="#2A2B26"/>
    <path fill-rule="evenodd" clip-rule="evenodd" d="M27.6851 9.72475C27.6299 9.72622 27.5874 9.77334 27.5899 9.82944C27.5958 9.94385 27.5988 10.0582 27.5988 10.1722V10.2248C27.5982 10.281 27.6433 10.3259 27.6985 10.3259H27.6989C27.7542 10.3259 27.7991 10.281 27.7995 10.2248V10.1722C27.7995 10.0547 27.7966 9.9362 27.7907 9.81825C27.7878 9.76407 27.7392 9.71562 27.6855 9.72475H27.6851Z" fill="#2A2B26"/>
    <path fill-rule="evenodd" clip-rule="evenodd" d="M27.6063 11.3246C27.5511 11.3158 27.4994 11.3507 27.4898 11.4053C27.4668 11.5346 27.4397 11.6639 27.4091 11.793L27.3681 11.9672C27.3549 12.0199 27.3886 12.0741 27.4422 12.0868C27.4511 12.0883 27.458 12.0912 27.4656 12.0912C27.5111 12.0912 27.5525 12.0595 27.5633 12.0125L27.6042 11.8404C27.6359 11.707 27.6634 11.5742 27.6874 11.4409C27.6978 11.3868 27.6609 11.3342 27.6063 11.3249V11.3246Z" fill="#2A2B26"/>
    <path fill-rule="evenodd" clip-rule="evenodd" d="M94.5274 34.278C94.8514 34.3587 95.9255 34.299 95.9423 34.632C95.9423 34.632 95.9437 34.632 95.9437 34.6335C95.9983 35.1656 96.0433 35.6975 96.0842 36.2313C97.1843 33.8672 97.7372 31.2518 97.681 28.646V18.8704C97.7224 17.6435 96.9896 16.5043 95.8558 16.0338C94.7501 15.5747 93.4644 15.8373 92.625 16.6822C94.9411 23.333 94.3453 34.2305 94.5272 34.2774L94.5274 34.278Z" fill="#2A2B26"/>
    <path fill-rule="evenodd" clip-rule="evenodd" d="M66.9194 36.232C66.9612 35.6982 67.0073 35.1664 67.0614 34.6343C67.0614 34.6328 67.062 34.6328 67.0624 34.6328C67.0798 34.2997 67.3159 34.0132 67.6393 33.9325C67.8218 33.8874 68.3332 34.2302 68.4942 34.3123C67.9332 32.6451 68.8503 20.8744 70.3796 16.6836C69.5396 15.8387 68.254 15.5762 67.1487 16.0353C66.0151 16.5057 65.2817 17.645 65.3241 18.8718V18.8733V18.8748V28.6446V28.6461C65.2685 31.2519 65.8204 33.8673 66.9194 36.2313V36.232Z" fill="#2A2B26"/>
    <path fill-rule="evenodd" clip-rule="evenodd" d="M91.0632 5.83188C90.6191 5.30165 90.1338 4.80717 89.6208 4.35924C88.7454 3.59857 87.7838 2.96366 86.7568 2.46906C85.7339 1.97829 84.6541 1.63137 83.5474 1.44039C82.4477 1.24926 81.3128 1.21406 80.2047 1.33569C79.0901 1.45717 77.9942 1.7346 76.9462 2.16161C75.8967 2.58862 74.9013 3.16228 73.9883 3.8667C73.2458 4.43993 72.5575 5.1014 71.9433 5.83188C70.575 7.45586 70.0507 9.66306 70.5422 11.7314L71.4758 15.6601L71.7308 15.394C72.37 14.7268 73.073 14.1219 73.8161 13.5989L73.9142 13.53L73.8037 13.363L73.9341 13.5168L74.1118 13.3951L73.9999 13.228L74.1379 13.3778L74.1553 13.3674C76.3796 11.8926 78.9211 11.1133 81.5034 11.1133C84.0864 11.1133 86.6274 11.8926 88.8578 13.371L88.8895 13.3914C89.748 13.9647 90.5518 14.6394 91.2753 15.3945L91.5318 15.6605L92.4653 11.7319C92.9564 9.66351 92.4316 7.45832 91.0632 5.83229V5.83188Z" fill="#CDCCC9"/>
    <path fill-rule="evenodd" clip-rule="evenodd" d="M92.0323 5.01668C89.35 1.82822 85.5117 0 81.5031 0C77.4947 0 73.6573 1.82822 70.9747 5.01668C69.3488 6.94869 68.727 9.56759 69.3105 12.0237L70.4673 16.8928L70.7249 16.5613C70.8864 16.3534 71.0374 16.1659 71.1877 15.9918L71.3482 15.8099C71.4208 15.7276 71.4938 15.6469 71.5684 15.5663L71.641 15.4876L70.7376 11.6844C70.2609 9.67802 70.7688 7.53871 72.0968 5.95921C72.7018 5.24197 73.3793 4.58966 74.1105 4.02571C75.0088 3.33307 75.9882 2.76708 77.0221 2.34713C78.0526 1.92778 79.1308 1.65403 80.2263 1.53447C81.3157 1.41652 82.431 1.45172 83.5133 1.63917C84.6012 1.82661 85.663 2.16732 86.6696 2.65058C87.6798 3.1359 88.6272 3.76168 89.487 4.51102C89.993 4.95128 90.4707 5.44031 90.9097 5.95921C92.2381 7.53871 92.746 9.67802 92.2682 11.6844L91.3649 15.4876L91.4548 15.5832C91.5223 15.6581 91.5918 15.7312 91.6592 15.8079L91.7528 15.9132L91.7513 15.9146L91.8188 15.9932C91.9874 16.1904 92.1391 16.3758 92.2812 16.5613L92.5403 16.8928L93.6967 12.0237C94.279 9.56759 93.6567 6.94869 92.0324 5.01668H92.0323Z" fill="#9F9F9B"/>
    <path fill-rule="evenodd" clip-rule="evenodd" d="M92.5976 16.6435L92.5511 16.5817C92.3636 16.3343 92.1647 16.0872 91.9605 15.8512L91.9195 15.8026C91.8051 15.6714 91.6886 15.5417 91.5711 15.4128L91.5313 15.3694C90.7688 14.5582 89.9181 13.837 88.9978 13.2224L88.981 13.2106L88.962 13.1988C86.7051 11.7021 84.1262 10.9114 81.5029 10.9114C78.8801 10.9114 76.3008 11.7021 74.0458 13.1968L74.0138 13.2177C73.0925 13.8323 72.2386 14.5551 71.4746 15.3703L71.4358 15.4116C71.3168 15.5405 71.2002 15.6702 71.0858 15.8014L71.0455 15.85C70.8416 16.086 70.6433 16.3331 70.4553 16.5805L70.4087 16.6423C68.4237 19.3006 68.6418 34.6967 68.6418 34.6967L73.2206 34.5127C73.7812 30.959 70.0271 19.5912 72.6101 17.3052C75.1031 15.1021 78.2614 13.8884 81.5029 13.8884C84.745 13.8884 87.9033 15.1021 90.3958 17.3052C92.9782 19.5912 89.189 30.721 89.751 34.2769L94.3651 34.6329C94.3651 34.6329 94.5822 19.3006 92.5976 16.6423V16.6435Z" fill="#797B76"/>
    <path fill-rule="evenodd" clip-rule="evenodd" d="M74.6832 36.6012C74.8462 36.9947 75.2274 37.2496 75.6535 37.2496H87.3527C87.7798 37.2496 88.1604 36.9947 88.3235 36.6012C89.6203 33.467 90.4971 30.1737 90.9298 26.8088C90.9749 26.4232 90.9973 26.0293 90.9973 25.6416C90.9988 22.3014 89.3071 19.1185 86.5811 17.3387C85.0675 16.3493 83.3114 15.8267 81.503 15.8267C79.6943 15.8267 77.9385 16.3493 76.4251 17.3387C73.7016 19.1185 72.0087 22.2972 72.0078 25.636C72.0078 26.0258 72.0312 26.4211 72.0772 26.8125C72.5095 30.1737 73.3869 33.467 74.6832 36.6012V36.6012Z" fill="#ECECEB"/>
    <path fill-rule="evenodd" clip-rule="evenodd" d="M95.9844 35.0702L95.9451 34.6585L95.5966 35.0162C95.3793 35.5785 95.1372 36.1195 94.8547 36.6722L94.8378 36.6987C94.2925 37.5885 93.3463 38.1918 92.2891 38.3134L92.2707 38.3149C91.9911 38.343 91.7755 38.341 91.5379 38.3149L89.1819 38.3134L89.2477 38.5643C89.5906 39.9006 89.3377 41.3186 88.5524 42.4614C86.4037 45.8465 85.1406 49.7507 84.9004 53.7545C84.3404 65.3829 84.0426 77.1819 84.0144 88.8271C84.0138 89.2261 83.7293 89.5745 83.3384 89.6571C82.127 89.908 80.8802 89.908 79.6686 89.6571C79.2778 89.5745 78.9937 89.2261 78.9927 88.8271C78.9645 77.1819 78.6665 65.383 78.1066 53.7526C77.8665 49.7508 76.6034 45.8465 74.4502 42.4537C73.6689 41.3186 73.4175 39.9006 73.7608 38.5643L73.8248 38.3134H71.4922L71.4707 38.3149C71.2325 38.341 71.0175 38.3445 70.7365 38.3149L70.7058 38.3105C69.6583 38.1909 68.7089 37.5835 68.1653 36.6923L68.1422 36.6473L68.1408 36.6458C67.8638 36.1043 67.6247 35.5705 67.4105 35.0158L67.062 34.6582L67.0233 35.0699C66.6722 38.7422 66.6206 42.4666 66.8696 46.1384L66.8755 46.2304L72.9381 50.8426C74.0342 51.6763 74.6999 52.9426 74.7653 54.3183C74.8419 55.9345 74.9145 57.5721 74.9814 59.1868C74.9947 59.5127 74.8159 59.8224 74.5257 59.974C74.2431 60.1217 73.8726 60.09 73.6187 59.8969L68.2868 55.8395L68.2669 56.2175C68.203 57.4373 68.1657 58.6663 68.1564 59.8668L68.156 59.968L74.6493 64.9086C75.006 65.1803 75.2186 65.5926 75.2329 66.0401C75.2999 68.112 75.3591 70.2161 75.4091 72.2899C75.4165 72.6139 75.2353 72.9172 74.9462 73.0655C74.6652 73.2079 74.2977 73.1762 74.0458 72.9852L68.5826 68.8276L68.6332 69.2924C68.7824 70.6635 68.9719 72.0632 69.1958 73.453L69.2091 73.5318L74.9579 77.9065C75.3222 78.1839 75.5352 78.6053 75.5425 79.0625C75.5731 81.0986 75.596 83.1711 75.6109 85.2204C75.6139 85.5463 75.4336 85.8385 75.1418 85.9847C74.8517 86.1291 74.5052 86.097 74.2476 85.9003L70.794 83.2737L70.8404 83.7328C70.9902 85.2163 71.0964 86.6891 71.1547 88.1091L71.1592 88.2031L81.5047 96.0748L91.8498 88.2031L91.8543 88.1091C91.9141 86.687 92.0188 85.2147 92.169 83.7328L92.2156 83.2737L88.762 85.9003C88.5054 86.097 88.1584 86.1291 87.8682 85.9847C87.576 85.8385 87.3962 85.5463 87.3987 85.2204C87.4135 83.1711 87.4365 81.0986 87.4676 79.0625C87.4735 78.6053 87.6874 78.1839 88.0518 77.9065L93.8011 73.5318L93.8129 73.453C94.0378 72.0611 94.2274 70.662 94.377 69.2924L94.4276 68.8276L88.9633 72.9852C88.7119 73.1762 88.3446 73.2079 88.0635 73.0655C87.7749 72.9172 87.593 72.6139 87.6011 72.2899C87.6507 70.2161 87.7099 68.114 87.7769 66.0401C87.7916 65.5926 88.0038 65.1803 88.3599 64.9086L94.8532 59.968V59.8668C94.8429 58.6663 94.8062 57.4393 94.7424 56.2175L94.7235 55.8395L89.3904 59.8969C89.1375 60.09 88.7661 60.1217 88.4835 59.974C88.1929 59.8224 88.0149 59.5127 88.0284 59.1868C88.0958 57.5814 88.1668 55.9442 88.2455 54.3183C88.3092 52.9426 88.9761 51.6763 90.0706 50.8426L96.1348 46.2304L96.1406 46.1384C96.39 42.4666 96.3374 38.7422 95.9869 35.0699L95.9844 35.0702Z" fill="#00AEEF"/>
    <path fill-rule="evenodd" clip-rule="evenodd" d="M88.556 42.4572V42.4557C89.3527 41.2997 89.5963 39.8669 89.2346 38.5137H73.7732C73.4108 39.8669 73.6552 41.2997 74.4507 42.4557C74.4513 42.4557 74.4513 42.4572 74.4513 42.4572C74.4518 42.4572 74.4524 42.4572 74.4528 42.4587C76.6029 45.8439 77.8666 49.7501 78.1067 53.7519V53.7534C78.6667 65.3818 78.9647 77.1822 78.9928 88.826C78.9938 89.225 79.2779 89.5734 79.6687 89.656C80.8863 89.909 82.1213 89.909 83.3385 89.656C83.7294 89.5734 84.014 89.225 84.0146 88.826C84.0427 77.1822 84.3405 65.3818 84.9005 53.7534V53.7519C85.1407 49.7501 86.4043 45.8439 88.5546 42.4587C88.5546 42.4572 88.556 42.4572 88.556 42.4572V42.4572Z" fill="#ECECEB"/>
    <path fill-rule="evenodd" clip-rule="evenodd" d="M71.864 36.9292C72.841 36.5562 73.4111 35.5427 73.2215 34.5139C72.3795 32.0446 71.7833 29.4803 71.4501 26.8929C71.4495 26.8914 71.4506 26.8885 71.4501 26.8885C71.4501 26.887 71.4491 26.8856 71.4491 26.8826C71.3821 26.3166 71.3601 25.7379 71.3847 25.1663C71.4261 24.1886 71.6014 23.2216 71.9044 22.2924C72.2073 21.3652 72.6355 20.4846 73.1766 19.6791C73.7188 18.8735 74.3677 18.15 75.1055 17.53C75.8445 16.9104 76.6635 16.4006 77.5414 16.0165C78.4192 15.6307 79.345 15.3758 80.2919 15.2593C81.2392 15.142 82.1972 15.1623 83.1394 15.3212C84.0808 15.4805 84.9948 15.7748 85.8563 16.1963C86.7168 16.6197 87.5149 17.1632 88.2266 17.8151C88.9385 18.4668 89.5572 19.2163 90.0667 20.0463C90.5745 20.8743 90.9664 21.7713 91.2307 22.7123C91.4968 23.6526 91.6318 24.6247 91.6332 25.6045C91.6332 26.0301 91.6092 26.4612 91.5587 26.8826C91.5587 26.8841 91.5587 26.8856 91.5572 26.8885C91.5572 26.8885 91.5587 26.89 91.5587 26.8929C91.2251 29.4803 90.6291 32.0446 89.7856 34.5139C89.5965 35.5427 90.1663 36.5562 91.1442 36.9292C92.1208 37.3 93.2225 36.9218 93.7645 36.028C94.9148 33.7702 95.4696 31.3085 95.4696 28.8694C95.4711 24.5157 93.7022 20.2308 90.3968 17.3064C85.2436 12.7504 77.7636 12.7504 72.6115 17.3064C69.3061 20.2308 67.5371 24.5157 67.5371 28.8694C67.5376 31.3085 68.0926 33.7702 69.2432 36.028C69.7849 36.9215 70.887 37.3 71.864 36.9292Z" fill="#BDBCBA"/>
    <path fill-rule="evenodd" clip-rule="evenodd" d="M90.7298 92.4112C90.3884 92.8851 89.9668 93.2862 89.4758 93.6024C87.1237 95.12 84.4009 95.9236 81.6008 95.9236H81.4056C78.6432 95.9236 75.9499 95.1384 73.6165 93.6551L73.4876 93.5722C73.0139 93.2596 72.6066 92.8684 72.2767 92.4112L71.6992 91.607L71.9179 92.5721C72.503 95.1481 74.2265 97.241 76.6638 98.3198C78.1937 98.8409 79.8042 99.1029 81.4495 99.1029H81.4884C81.5031 99.1044 81.5195 99.1044 81.5379 99.1044H81.6003C83.2165 99.1044 84.8117 98.8404 86.3594 98.3116C88.7809 97.2404 90.5028 95.1476 91.0874 92.5715L91.3066 91.6064L90.7298 92.4106V92.4112Z" fill="#797B76"/>
    <path fill-rule="evenodd" clip-rule="evenodd" d="M81.5033 95.8223L71.1465 87.9429L71.1624 88.3679C71.1833 88.9191 71.1967 89.3702 71.2042 89.7881C71.2175 90.543 71.4127 91.2979 71.7684 91.9688L71.7991 92.0269L71.8138 92.0343L71.8182 92.0624L71.8367 92.0941C72.2209 92.7704 72.7691 93.3492 73.4216 93.771C75.7267 95.2581 78.3842 96.0657 81.1168 96.1163L81.105 96.1251L81.5623 96.1221L81.9007 96.1251L81.8904 96.1163C84.6276 96.0637 87.2846 95.2566 89.585 93.771C90.2391 93.3492 90.7862 92.7683 91.1701 92.0941L91.2395 91.9685C91.5935 91.2976 91.7887 90.5427 91.8036 89.7877C91.8109 89.3699 91.8241 88.9189 91.845 88.3676L91.8598 87.9426L81.5035 95.8221L81.5033 95.8223Z" fill="#0B798F"/>
    <path fill-rule="evenodd" clip-rule="evenodd" d="M87.2637 79.0588C87.233 81.0974 87.2101 83.1693 87.1953 85.2188C87.1924 85.6218 87.415 85.9851 87.7758 86.1649C87.9219 86.2379 88.0848 86.2772 88.2458 86.2772C88.4763 86.2772 88.6955 86.2027 88.8815 86.0622L92.1834 83.5479L92.1922 83.4616C92.4263 81.238 92.7619 79.0159 93.1891 76.8576C93.3914 75.8722 93.5847 74.8231 93.7629 73.7422L93.8452 73.2437L87.9272 77.7476C87.5138 78.0627 87.2716 78.5403 87.2634 79.0588H87.2637Z" fill="#00376A"/>
    <path fill-rule="evenodd" clip-rule="evenodd" d="M88.2363 64.7494C87.8315 65.0564 87.5908 65.5254 87.5745 66.0326C87.507 68.1157 87.4483 70.2183 87.3988 72.2846C87.3885 72.6855 87.6134 73.062 87.97 73.2434C88.1167 73.3185 88.2812 73.3578 88.4463 73.3578C88.6767 73.3578 88.9036 73.2832 89.0854 73.1443L94.3964 69.1032L94.4052 69.0153C94.715 66.0761 94.8667 63.0821 94.8534 60.1184L94.852 59.7173L88.2366 64.7494H88.2363Z" fill="#00376A"/>
    <path fill-rule="evenodd" clip-rule="evenodd" d="M89.9483 50.6841C88.8052 51.553 88.1097 52.8741 88.0423 54.309C87.9635 55.9349 87.8905 57.5746 87.8251 59.1781C87.8083 59.5828 88.0295 59.9649 88.3892 60.1523C88.5374 60.2289 88.7039 60.2703 88.8726 60.2703C89.1031 60.2703 89.3279 60.1951 89.5098 60.0567L94.7211 56.0907L94.7364 56.0197C95.4242 52.8664 95.8887 49.6329 96.1212 46.405L96.1512 45.9631L89.9483 50.6841V50.6841Z" fill="#00376A"/>
    <path fill-rule="evenodd" clip-rule="evenodd" d="M74.5606 73.3578C74.7262 73.3578 74.8907 73.3185 75.0368 73.2434C75.394 73.062 75.6183 72.6855 75.6091 72.2846C75.559 70.2183 75.4997 68.1157 75.4327 66.0326C75.4164 65.5254 75.1748 65.0564 74.7701 64.7494L68.1566 59.7173L68.1551 60.1184C68.1418 63.0821 68.2921 66.074 68.6021 69.0153L68.611 69.1032L73.923 73.1443C74.1044 73.2832 74.3308 73.3578 74.5602 73.3578H74.5606Z" fill="#00376A"/>
    <path fill-rule="evenodd" clip-rule="evenodd" d="M68.2861 56.0907L73.4976 60.0567C73.6785 60.1951 73.9048 60.2703 74.1341 60.2703C74.3028 60.2703 74.47 60.2289 74.6186 60.1523C74.9773 59.9649 75.1986 59.5828 75.1817 59.1781C75.1153 57.5629 75.0428 55.9258 74.9661 54.309C74.8976 52.8756 74.2026 51.553 73.0597 50.6841L66.8555 45.9631L66.8872 46.405C67.1187 49.6329 67.5835 52.8664 68.2703 56.0197L68.2861 56.0907V56.0907Z" fill="#00376A"/>
    <path fill-rule="evenodd" clip-rule="evenodd" d="M75.0786 77.7476L69.1602 73.2437L69.2424 73.7422C69.4207 74.8215 69.6134 75.8687 69.8168 76.8576C70.2445 79.0159 70.5796 81.238 70.8132 83.4616L70.822 83.5479L74.125 86.0622C74.3099 86.2027 74.5291 86.2772 74.7596 86.2772C74.921 86.2772 75.0841 86.2379 75.2296 86.1649C75.5903 85.9851 75.8131 85.6218 75.81 85.2188C75.7953 83.1693 75.7724 81.0974 75.7416 79.0588C75.7327 78.5403 75.4917 78.0627 75.0783 77.7476H75.0786Z" fill="#00376A"/>
    <path fill-rule="evenodd" clip-rule="evenodd" d="M90.7263 26.8124C90.2955 30.1489 89.4238 33.4162 88.1381 36.5245C88.0053 36.8427 87.6982 37.0492 87.3534 37.0492H75.6542C75.3094 37.0492 75.0011 36.8427 74.8694 36.5245C73.5802 33.4085 72.708 30.1322 72.2773 26.7878V26.7863C72.2323 26.4077 72.2097 26.0215 72.2097 25.6415C72.2089 22.3666 73.8665 19.2495 76.5356 17.5051C78.0164 16.5386 79.7348 16.0268 81.5037 16.0268C83.2732 16.0268 84.9912 16.5386 86.4719 17.5051C89.1412 19.2495 90.7994 22.3666 90.7977 25.6415C90.7977 26.018 90.7753 26.4001 90.7319 26.775L90.726 26.801V26.8128L90.7263 26.8124ZM95.9418 34.6151C95.9172 34.2857 95.6866 34.0124 95.3663 33.9317C95.0495 33.8525 94.6995 33.997 94.5288 34.278L94.512 34.3116C94.302 34.8854 94.0583 35.4488 93.7828 35.9922L93.7584 36.0371C93.3685 36.6757 92.6623 37.0717 91.9148 37.0717C91.6501 37.0717 91.3916 37.0225 91.1442 36.9292C90.1719 36.5582 89.6021 35.552 89.782 34.5308L89.7879 34.5083C90.6275 32.0466 91.2216 29.4931 91.5533 26.921L91.5607 26.8629C91.6097 26.447 91.6337 26.0256 91.6337 25.6057C91.6323 24.6259 91.4973 23.6538 91.2312 22.7135C90.967 21.7724 90.575 20.8754 90.0672 20.0475C89.5577 19.2174 88.939 18.468 88.2271 17.8163C87.5154 17.1644 86.7173 16.6209 85.8568 16.1974C84.9953 15.776 84.0813 15.4816 83.1399 15.3223C82.2013 15.1651 81.2346 15.1431 80.2924 15.2605C79.3451 15.377 78.4197 15.6318 77.5419 16.0176C76.6645 16.4018 75.845 16.9116 75.106 17.5312C74.3682 18.1512 73.7193 18.8747 73.1771 19.6802C72.636 20.4858 72.2078 21.3663 71.9043 22.2935C71.6019 23.2228 71.4266 24.1898 71.3852 25.1675C71.3612 25.7314 71.3823 26.2989 71.4465 26.8552L71.445 26.8626L71.4524 26.906C71.7856 29.4856 72.3803 32.0428 73.2188 34.5045L73.2247 34.527C73.4076 35.55 72.8379 36.5579 71.8645 36.9288C71.6166 37.0222 71.3575 37.0714 71.0939 37.0714C70.3454 37.0714 69.6397 36.6739 69.2488 36.0369L69.2315 36.0052C68.9545 35.4582 68.7072 34.8886 68.4962 34.3113L68.4794 34.2777C68.3097 33.9968 67.9586 33.8506 67.6413 33.9314C67.3214 34.0121 67.0905 34.2854 67.0654 34.6147L67.0625 34.6582L67.0772 34.6975C67.3274 35.3978 67.6233 36.0784 67.9888 36.7864C68.5682 37.7436 69.5814 38.3882 70.6979 38.5134H92.3164C93.4314 38.3882 94.4415 37.7421 95.0281 36.775C95.3863 36.0763 95.6821 35.3978 95.9335 34.6975L95.9467 34.6582L95.9438 34.6147L95.9418 34.6151Z" fill="#00376A"/>
    <path fill-rule="evenodd" clip-rule="evenodd" d="M86.5498 2.07174C86.6709 2.12578 86.7915 2.18248 86.9111 2.2402C86.9259 2.24756 86.9402 2.25049 86.9546 2.25049C86.9919 2.25049 87.0276 2.2296 87.0454 2.19441C87.0694 2.14376 87.0484 2.08352 86.9985 2.05893C86.8774 2.00121 86.7547 1.9451 86.6316 1.88885C86.5811 1.86633 86.5217 1.88889 86.4992 1.93954C86.4762 1.99004 86.4992 2.04979 86.5498 2.07232V2.07174Z" fill="#2A2B26"/>
    <path fill-rule="evenodd" clip-rule="evenodd" d="M87.9613 2.80961C88.0737 2.87911 88.1861 2.95025 88.2986 3.02167C88.3154 3.03345 88.3343 3.03802 88.3527 3.03802C88.385 3.03802 88.4187 3.02166 88.4371 2.99354C88.4671 2.94657 88.4539 2.88281 88.4073 2.85307C88.2949 2.78003 88.1805 2.70863 88.064 2.63957C88.0176 2.60953 87.9557 2.6263 87.9276 2.67327C87.8974 2.7198 87.9127 2.78163 87.9613 2.80961V2.80961Z" fill="#2A2B26"/>
    <path fill-rule="evenodd" clip-rule="evenodd" d="M87.2663 2.42C87.3838 2.48022 87.5009 2.54352 87.6168 2.60949C87.6321 2.61832 87.6495 2.62274 87.6659 2.62274C87.7012 2.62274 87.7349 2.60449 87.7538 2.57268C87.7798 2.52365 87.7626 2.46196 87.7159 2.4359C87.5974 2.36847 87.4788 2.30457 87.3598 2.24273C87.3103 2.21667 87.2499 2.23538 87.2245 2.28411C87.1988 2.33476 87.2171 2.39437 87.2663 2.42058V2.42Z" fill="#2A2B26"/>
    <path fill-rule="evenodd" clip-rule="evenodd" d="M85.812 1.7704C85.8774 1.79441 85.9432 1.82092 86.0082 1.84492C86.067 1.86746 86.1247 1.89188 86.1831 1.91648C86.1948 1.91942 86.2085 1.92236 86.2207 1.92236C86.2606 1.92236 86.2979 1.89984 86.3138 1.86052C86.3347 1.81 86.3109 1.7496 86.2586 1.72928C86.1999 1.70468 86.1406 1.68233 86.0812 1.65817C86.0148 1.63372 85.9484 1.60762 85.8815 1.58302C85.8294 1.56417 85.7716 1.59041 85.7522 1.64078C85.7333 1.6935 85.7595 1.75182 85.812 1.77067V1.7704Z" fill="#2A2B26"/>
    <path fill-rule="evenodd" clip-rule="evenodd" d="M83.506 1.15571C83.6368 1.17824 83.7675 1.20064 83.8979 1.22685C83.9052 1.22832 83.9112 1.22833 83.9178 1.22833C83.9643 1.22833 84.0061 1.19474 84.0159 1.14762C84.0262 1.09358 83.9914 1.04085 83.9372 1.02965C83.8049 1.00359 83.6721 0.97901 83.5387 0.956627C83.4836 0.947791 83.4325 0.984773 83.4232 1.03941C83.4143 1.09507 83.4513 1.14613 83.506 1.15526V1.15571Z" fill="#2A2B26"/>
    <path fill-rule="evenodd" clip-rule="evenodd" d="M85.0558 1.51544C85.183 1.55475 85.3097 1.59409 85.4355 1.63694C85.4458 1.63988 85.457 1.64282 85.4676 1.64282C85.5096 1.64282 85.5489 1.61661 85.5627 1.57376C85.5806 1.5212 85.5524 1.46496 85.4998 1.44818C85.3716 1.40474 85.2432 1.36379 85.1139 1.32448C85.0609 1.30769 85.0051 1.33774 84.9889 1.39192C84.9725 1.44463 85.0021 1.50031 85.0558 1.51562V1.51544Z" fill="#2A2B26"/>
    <path fill-rule="evenodd" clip-rule="evenodd" d="M84.2865 1.3111C84.4158 1.34129 84.5445 1.37295 84.6728 1.40859C84.6816 1.41154 84.6908 1.41156 84.6995 1.41156C84.7434 1.41156 84.7841 1.38341 84.7959 1.33834C84.8106 1.28369 84.7786 1.2295 84.7249 1.21477C84.5942 1.17898 84.4633 1.14734 84.332 1.11714C84.2769 1.10389 84.2242 1.1376 84.2114 1.1918C84.1996 1.24439 84.2324 1.29861 84.2865 1.31186V1.3111Z" fill="#2A2B26"/>
    <path fill-rule="evenodd" clip-rule="evenodd" d="M90.1795 4.49592C90.198 4.51491 90.2225 4.52405 90.2471 4.52405C90.2751 4.52405 90.3011 4.51229 90.3201 4.49241C90.3595 4.4531 90.3574 4.3892 90.3157 4.34988C90.2187 4.25801 90.1189 4.16657 90.0178 4.07808C89.9764 4.04083 89.9126 4.04437 89.8752 4.08545C89.8379 4.12623 89.8414 4.19014 89.8855 4.22739C89.9846 4.31574 90.0822 4.4057 90.1798 4.49551L90.1795 4.49592Z" fill="#2A2B26"/>
    <path fill-rule="evenodd" clip-rule="evenodd" d="M71.9457 5.35776C71.9732 5.35776 72.0003 5.34596 72.0208 5.32402C72.1092 5.22492 72.1996 5.12732 72.2911 5.03176C72.3294 4.99054 72.3279 4.92663 72.2881 4.88923C72.2482 4.85198 72.1843 4.85197 72.146 4.89364C72.053 4.99082 71.9615 5.0899 71.8715 5.18944C71.8343 5.23081 71.8378 5.29412 71.8789 5.33152C71.8979 5.34875 71.9219 5.35803 71.9459 5.35803L71.9457 5.35776Z" fill="#2A2B26"/>
    <path fill-rule="evenodd" clip-rule="evenodd" d="M91.2725 5.65359V5.65507C91.3174 5.70778 91.3625 5.76185 91.4059 5.8181C91.4263 5.84269 91.4544 5.85535 91.4846 5.85535C91.5071 5.85535 91.5295 5.84795 91.5463 5.83499C91.5913 5.79965 91.5986 5.7359 91.5632 5.69291C91.5183 5.63681 91.4734 5.57997 91.4263 5.52593V5.52449C91.34 5.42171 91.252 5.32067 91.1622 5.21952C91.1249 5.17814 91.061 5.17445 91.0196 5.21215C90.9786 5.2494 90.9747 5.31124 91.0123 5.35468C91.1002 5.45171 91.1865 5.55289 91.2723 5.6539L91.2725 5.65359Z" fill="#2A2B26"/>
    <path fill-rule="evenodd" clip-rule="evenodd" d="M82.7151 1.05063C82.8045 1.06094 82.8944 1.06946 82.9839 1.08065L83.1111 1.0976C83.1155 1.0976 83.1199 1.0976 83.1243 1.0976C83.1744 1.0976 83.2174 1.06182 83.2241 1.0113C83.2314 0.955048 83.1928 0.904353 83.1376 0.897285L83.0088 0.882004C82.9174 0.870222 82.8269 0.859456 82.7354 0.852387C82.6802 0.846496 82.6312 0.886118 82.6256 0.942228C82.6197 0.996422 82.6603 1.04503 82.7156 1.05063H82.7151Z" fill="#2A2B26"/>
    <path fill-rule="evenodd" clip-rule="evenodd" d="M89.5819 3.96772C89.6002 3.98259 89.6248 3.99023 89.6473 3.99023C89.6753 3.99023 89.7035 3.97847 89.7239 3.95447C89.7597 3.91163 89.7541 3.84979 89.7107 3.81402C89.608 3.72774 89.5027 3.64187 89.3959 3.55912C89.3531 3.52541 89.2891 3.53308 89.2554 3.57593C89.2217 3.61936 89.2293 3.68267 89.2727 3.71638C89.3775 3.79868 89.4807 3.88145 89.5819 3.96772V3.96772Z" fill="#2A2B26"/>
    <path fill-rule="evenodd" clip-rule="evenodd" d="M88.9546 3.47482C88.971 3.48807 88.9919 3.49585 89.0144 3.49585C89.044 3.49585 89.0742 3.48057 89.0951 3.4545C89.1268 3.40944 89.1175 3.34774 89.0726 3.31402C88.9638 3.23317 88.8549 3.15451 88.7445 3.07794C88.6975 3.04775 88.6357 3.05894 88.604 3.104C88.5723 3.14892 88.5831 3.21283 88.6301 3.24449C88.7389 3.3196 88.8478 3.39618 88.9546 3.47482Z" fill="#2A2B26"/>
    <path fill-rule="evenodd" clip-rule="evenodd" d="M90.7426 5.06014C90.7615 5.08061 90.7896 5.08984 90.8157 5.08984C90.8403 5.08984 90.8648 5.08249 90.8852 5.06365C90.9246 5.02448 90.9266 4.96267 90.8882 4.92129C90.7946 4.82425 90.7013 4.72661 90.6057 4.63105C90.5664 4.59173 90.5024 4.59173 90.4631 4.63105C90.4238 4.67036 90.4238 4.73427 90.4631 4.77359C90.5587 4.86709 90.6506 4.96266 90.7421 5.06014H90.7426Z" fill="#2A2B26"/>
    <path fill-rule="evenodd" clip-rule="evenodd" d="M72.4987 4.77521C72.5242 4.77521 72.5498 4.76637 72.5697 4.74546C72.6642 4.6515 72.7598 4.56003 72.8569 4.47006C72.8972 4.43236 72.8993 4.36903 72.8613 4.3275C72.8234 4.28612 72.7601 4.28614 72.7193 4.3231C72.6206 4.41499 72.524 4.50909 72.428 4.60245C72.3887 4.64192 72.3887 4.70569 72.4275 4.74501C72.4474 4.76548 72.4729 4.77476 72.4985 4.77476L72.4987 4.77521Z" fill="#2A2B26"/>
    <path fill-rule="evenodd" clip-rule="evenodd" d="M80.3188 1.04681C80.3217 1.04681 80.3247 1.04681 80.3291 1.04681C80.4609 1.03356 80.5932 1.02441 80.7261 1.01513C80.7813 1.01071 80.8232 0.96461 80.8196 0.908359C80.8167 0.853727 80.7664 0.808842 80.7134 0.814437C80.5785 0.824745 80.444 0.835332 80.3096 0.846523C80.2544 0.852413 80.214 0.902792 80.2192 0.956982C80.2236 1.00955 80.2683 1.04681 80.3194 1.04681H80.3188Z" fill="#2A2B26"/>
    <path fill-rule="evenodd" clip-rule="evenodd" d="M75.0284 2.80426C75.0458 2.80426 75.0638 2.80131 75.0801 2.791C75.1936 2.72209 75.3086 2.65467 75.4245 2.59076C75.4731 2.56278 75.4905 2.50281 75.4628 2.45392C75.4363 2.40533 75.375 2.38855 75.3264 2.41447C75.2089 2.48044 75.0919 2.54934 74.9764 2.61885C74.9288 2.64697 74.9135 2.70884 74.9421 2.75582C74.9611 2.78748 74.9943 2.80426 75.0284 2.80426Z" fill="#2A2B26"/>
    <path fill-rule="evenodd" clip-rule="evenodd" d="M81.9206 0.998475C82.053 1.00142 82.1858 1.01023 82.3181 1.01892C82.3196 1.01892 82.3225 1.01892 82.3255 1.01892C82.3782 1.01892 82.4221 0.977534 82.4262 0.925408C82.4291 0.869159 82.3879 0.822217 82.3326 0.818683C82.1977 0.808375 82.0629 0.80173 81.9279 0.797607C81.8743 0.79908 81.8263 0.839 81.8243 0.893188C81.8228 0.949437 81.8656 0.996413 81.9213 0.998475H81.9206Z" fill="#2A2B26"/>
    <path fill-rule="evenodd" clip-rule="evenodd" d="M74.3525 3.23914C74.3719 3.23914 74.3918 3.23328 74.4092 3.22224C74.5186 3.14714 74.6294 3.07262 74.7409 3.00106C74.7878 2.97146 74.8007 2.90963 74.7709 2.86266C74.7409 2.81569 74.679 2.80242 74.6321 2.83246C74.5191 2.90549 74.4067 2.98056 74.2954 3.05566C74.2499 3.08732 74.2381 3.1492 74.2698 3.19618C74.2892 3.2243 74.3204 3.23914 74.3525 3.23914V3.23914Z" fill="#2A2B26"/>
    <path fill-rule="evenodd" clip-rule="evenodd" d="M73.0867 4.22638C73.1101 4.22638 73.1341 4.21898 73.1531 4.20175C73.2533 4.11385 73.3539 4.0276 73.4561 3.94337C73.499 3.90759 73.5046 3.84427 73.4694 3.80083C73.4336 3.75784 73.3702 3.75224 73.3278 3.78758C73.2246 3.87342 73.1219 3.96174 73.0203 4.04965C72.9787 4.0869 72.9748 4.15081 73.0114 4.19218C73.0313 4.21456 73.0589 4.22593 73.0866 4.22593L73.0867 4.22638Z" fill="#2A2B26"/>
    <path fill-rule="evenodd" clip-rule="evenodd" d="M76.4522 2.06415C76.4655 2.06415 76.4793 2.06267 76.4927 2.05678C76.6142 2.00259 76.7369 1.95002 76.8594 1.90143C76.9111 1.87905 76.9356 1.82072 76.9147 1.77022C76.8943 1.7175 76.835 1.69309 76.7839 1.714C76.6593 1.76466 76.535 1.8166 76.4114 1.87344C76.3603 1.89538 76.3378 1.95355 76.3603 2.0042C76.3766 2.0419 76.4135 2.06397 76.4522 2.06397V2.06415Z" fill="#2A2B26"/>
    <path fill-rule="evenodd" clip-rule="evenodd" d="M73.7039 3.71301C73.7254 3.71301 73.7474 3.70714 73.7658 3.69256L73.8542 3.62322C73.9303 3.56696 74.0064 3.50863 74.0836 3.45252C74.1281 3.4188 74.1379 3.35695 74.1052 3.31203C74.0719 3.26697 74.0096 3.25781 73.9646 3.28947C73.8869 3.34779 73.8092 3.40598 73.7327 3.46371L73.642 3.53526C73.5987 3.56899 73.5905 3.63025 73.6247 3.67575C73.6441 3.69976 73.6743 3.71301 73.7039 3.71301V3.71301Z" fill="#2A2B26"/>
    <path fill-rule="evenodd" clip-rule="evenodd" d="M75.7277 2.4129C75.7434 2.4129 75.7587 2.40845 75.7741 2.40109C75.8922 2.33867 76.0107 2.27906 76.1302 2.22282C76.1803 2.19824 76.2013 2.13864 76.1773 2.088C76.1533 2.03942 76.0929 2.01702 76.0434 2.04146C75.9218 2.09917 75.8007 2.16099 75.6811 2.22282C75.6321 2.24932 75.6126 2.30911 75.6383 2.35769C75.6565 2.39331 75.6913 2.41227 75.7277 2.41227V2.4129Z" fill="#2A2B26"/>
    <path fill-rule="evenodd" clip-rule="evenodd" d="M81.1223 0.99646C81.1227 0.99646 81.1238 0.99646 81.1252 0.99646C81.2513 0.993515 81.3771 0.990573 81.5002 0.990573H81.5238C81.5789 0.990573 81.6137 0.945629 81.6137 0.891439C81.6137 0.835188 81.5584 0.790283 81.5027 0.790283C81.375 0.790283 81.2467 0.791753 81.119 0.79617C81.0634 0.797643 81.0199 0.844762 81.0215 0.899393C81.023 0.953583 81.0679 0.99646 81.1221 0.99646H81.1223Z" fill="#2A2B26"/>
    <path fill-rule="evenodd" clip-rule="evenodd" d="M79.5224 1.15009C79.5283 1.15009 79.5327 1.15009 79.5387 1.15009C79.6523 1.13124 79.7657 1.1143 79.8791 1.09958L79.9327 1.09221C79.9879 1.08484 80.0267 1.03446 80.0196 0.979681C80.0123 0.92564 79.9618 0.886333 79.9066 0.893401L79.853 0.90077C79.737 0.915643 79.6215 0.93242 79.506 0.951415C79.4514 0.96025 79.4141 1.0112 79.4233 1.06583C79.4321 1.11633 79.4739 1.15009 79.5224 1.15009V1.15009Z" fill="#2A2B26"/>
    <path fill-rule="evenodd" clip-rule="evenodd" d="M77.9582 1.51002C77.967 1.51002 77.9771 1.50706 77.9862 1.50706C78.1141 1.46716 78.2418 1.43199 78.37 1.39827C78.4237 1.38502 78.4559 1.3289 78.4417 1.27663C78.4269 1.22201 78.3715 1.19035 78.3189 1.20375C78.1886 1.23894 78.0588 1.2747 77.9295 1.31402C77.8759 1.32889 77.8459 1.38502 77.8616 1.43759C77.8749 1.48264 77.9148 1.51074 77.9582 1.51074V1.51002Z" fill="#2A2B26"/>
    <path fill-rule="evenodd" clip-rule="evenodd" d="M77.1958 1.7627C77.2076 1.7627 77.2189 1.76123 77.2311 1.75681C77.3553 1.70983 77.4811 1.66681 77.6067 1.62396C77.6593 1.60702 77.688 1.55079 77.67 1.49821C77.6526 1.44564 77.5959 1.41603 77.5434 1.43444C77.4151 1.47788 77.2878 1.52076 77.1612 1.56774C77.109 1.58821 77.083 1.64431 77.1018 1.69704C77.1167 1.73842 77.155 1.76243 77.1958 1.76243V1.7627Z" fill="#2A2B26"/>
    <path fill-rule="evenodd" clip-rule="evenodd" d="M78.7349 1.30551C78.7422 1.30551 78.7502 1.30401 78.7578 1.30254C78.8872 1.27235 79.0169 1.24631 79.1477 1.2198C79.2019 1.2095 79.2373 1.1563 79.2265 1.1021C79.2162 1.04747 79.1632 1.01186 79.109 1.02305C78.9761 1.04956 78.8443 1.07767 78.7124 1.10786C78.6587 1.12111 78.625 1.17325 78.6373 1.22744C78.6476 1.27442 78.6895 1.30609 78.7349 1.30609V1.30551Z" fill="#2A2B26"/>
    <path fill-rule="evenodd" clip-rule="evenodd" d="M70.7725 14.7472L70.9411 15.4577C70.9514 15.5042 70.9933 15.5344 71.0386 15.5344C71.046 15.5344 71.0541 15.5344 71.0622 15.5329C71.1158 15.5197 71.1496 15.4655 71.1369 15.4113L70.9676 14.7013C70.9544 14.6471 70.9003 14.6134 70.8465 14.6283C70.7923 14.6401 70.7592 14.6936 70.7725 14.7478V14.7472Z" fill="#2A2B26"/>
    <path fill-rule="evenodd" clip-rule="evenodd" d="M70.5848 13.9663L70.6777 14.3579C70.688 14.4029 70.7292 14.4346 70.7752 14.4346C70.7826 14.4346 70.7905 14.4331 70.7982 14.4317C70.8524 14.4199 70.8857 14.3658 70.8729 14.3117L70.7799 13.9205C70.7681 13.8658 70.7129 13.8321 70.6593 13.8475C70.6051 13.8592 70.572 13.9128 70.5848 13.967V13.9663Z" fill="#2A2B26"/>
    <path fill-rule="evenodd" clip-rule="evenodd" d="M70.4278 12.8685C70.4814 12.8553 70.5146 12.8011 70.5018 12.7485L70.4093 12.3573C70.3961 12.3025 70.3425 12.2689 70.2883 12.2822C70.2346 12.2954 70.2009 12.3495 70.2136 12.4036L70.3067 12.7934C70.317 12.8404 70.3587 12.8722 70.4042 12.8722C70.4115 12.8722 70.4195 12.8707 70.4278 12.8693V12.8685Z" fill="#2A2B26"/>
    <path fill-rule="evenodd" clip-rule="evenodd" d="M70.6128 13.6497C70.6666 13.6364 70.7001 13.5843 70.6875 13.5301L70.5944 13.1383C70.5811 13.0842 70.5269 13.0505 70.4738 13.0633C70.4197 13.0765 70.3864 13.1307 70.3992 13.1853L70.4917 13.5765C70.5035 13.6215 70.5439 13.6536 70.5894 13.6536C70.5968 13.6536 70.6052 13.6522 70.6128 13.6492V13.6497Z" fill="#2A2B26"/>
    <path fill-rule="evenodd" clip-rule="evenodd" d="M70.2418 12.0869C70.296 12.0737 70.3292 12.0201 70.3165 11.9673L70.2755 11.7932C70.2592 11.7259 70.2439 11.6564 70.23 11.5889C70.2183 11.5347 70.1663 11.4969 70.1116 11.5103C70.0568 11.5221 70.0221 11.5741 70.0334 11.6282C70.0481 11.6998 70.0635 11.7687 70.0804 11.8403L70.1214 12.0124C70.1331 12.0594 70.1733 12.0911 70.2189 12.0911C70.2262 12.0911 70.2342 12.0896 70.2418 12.0866V12.0869Z" fill="#2A2B26"/>
    <path fill-rule="evenodd" clip-rule="evenodd" d="M92.5328 13.0629C92.4786 13.0497 92.424 13.0838 92.4112 13.138L92.3193 13.5298C92.306 13.584 92.3396 13.6366 92.3938 13.6494C92.4012 13.6509 92.4091 13.6538 92.4163 13.6538C92.4613 13.6538 92.5026 13.6217 92.5138 13.5767L92.608 13.1854C92.6212 13.1308 92.5869 13.0766 92.5328 13.0634V13.0629Z" fill="#2A2B26"/>
    <path fill-rule="evenodd" clip-rule="evenodd" d="M92.7184 12.2822C92.6637 12.2689 92.6096 12.3025 92.5963 12.3573L92.5048 12.7485C92.4916 12.8011 92.5253 12.8552 92.5799 12.8685C92.5873 12.87 92.5947 12.8715 92.6019 12.8715C92.6474 12.8715 92.6882 12.8397 92.6995 12.7927L92.7935 12.4029C92.8068 12.3487 92.7726 12.2947 92.7184 12.2815V12.2822Z" fill="#2A2B26"/>
    <path fill-rule="evenodd" clip-rule="evenodd" d="M92.3473 13.8467C92.2927 13.8314 92.2385 13.8652 92.2252 13.9198L92.1337 14.311C92.1205 14.3652 92.1542 14.4198 92.2084 14.431C92.2158 14.4325 92.2237 14.434 92.2308 14.434C92.2759 14.434 92.3173 14.4023 92.3285 14.3573L92.422 13.9656C92.4338 13.9114 92.4015 13.8572 92.3473 13.846V13.8467Z" fill="#2A2B26"/>
    <path fill-rule="evenodd" clip-rule="evenodd" d="M92.1608 14.6278C92.1062 14.6129 92.052 14.6467 92.0387 14.7009L91.8721 15.3904C91.8589 15.4446 91.891 15.4987 91.9452 15.5099C91.9525 15.5114 91.962 15.5143 91.9692 15.5143C92.0147 15.5143 92.0556 15.4821 92.0668 15.4372L92.2359 14.7477C92.2462 14.6935 92.215 14.6393 92.1608 14.6281V14.6278Z" fill="#2A2B26"/>
    <path fill-rule="evenodd" clip-rule="evenodd" d="M70.5559 7.37904C70.5691 7.38493 70.5829 7.38641 70.5966 7.38641C70.6349 7.38641 70.6713 7.36593 70.6881 7.32808C70.7417 7.20645 70.7986 7.0885 70.8588 6.97055C70.8843 6.92137 70.8647 6.85969 70.8153 6.83569C70.7657 6.80904 70.7055 6.82978 70.68 6.87852C70.6181 7.00015 70.5598 7.12225 70.5048 7.2458C70.4822 7.29646 70.5052 7.35621 70.5559 7.37859V7.37904Z" fill="#2A2B26"/>
    <path fill-rule="evenodd" clip-rule="evenodd" d="M70.913 6.6599C70.9283 6.66874 70.9463 6.67316 70.9631 6.67316C70.9979 6.67316 71.0316 6.65579 71.05 6.62413C71.1164 6.51016 71.1864 6.3978 71.2595 6.28693C71.2907 6.24202 71.2779 6.18018 71.2319 6.14852C71.1859 6.11848 71.1231 6.12968 71.0924 6.17665C71.0173 6.29106 70.9453 6.40503 70.8768 6.52298C70.8493 6.56995 70.865 6.63178 70.913 6.6599V6.6599Z" fill="#2A2B26"/>
    <path fill-rule="evenodd" clip-rule="evenodd" d="M71.4067 6.00409C71.4374 6.00409 71.4676 5.99083 71.4874 5.96477C71.5662 5.86006 71.6484 5.75477 71.7338 5.6536L71.7593 5.62403C71.7951 5.58265 71.7899 5.51889 71.7475 5.48355C71.7051 5.44776 71.6418 5.4535 71.606 5.49532L71.5799 5.52489V5.52637C71.4922 5.62946 71.4078 5.73637 71.3266 5.84505C71.2934 5.88805 71.3026 5.95199 71.347 5.98571C71.3649 5.99896 71.3858 6.00395 71.4067 6.00395V6.00409Z" fill="#2A2B26"/>
    <path fill-rule="evenodd" clip-rule="evenodd" d="M70.2813 8.13431C70.2916 8.13873 70.3013 8.1402 70.3115 8.1402C70.3539 8.1402 70.3936 8.11205 70.407 8.0692C70.4468 7.94345 70.4898 7.81784 70.5368 7.6943C70.5563 7.64364 70.5309 7.58593 70.4781 7.56502C70.4259 7.54661 70.3682 7.57241 70.3488 7.62321C70.3007 7.75043 70.2562 7.87971 70.2154 8.00943C70.1991 8.06156 70.2287 8.11765 70.2813 8.13458V8.13431Z" fill="#2A2B26"/>
    <path fill-rule="evenodd" clip-rule="evenodd" d="M70.097 8.91581C70.1029 8.91581 70.1103 8.9173 70.1165 8.9173C70.1635 8.9173 70.2054 8.88355 70.2146 8.83511C70.2402 8.70583 70.2688 8.57655 70.3009 8.44889C70.3141 8.3947 70.282 8.3405 70.2284 8.32725C70.1742 8.31238 70.12 8.34613 70.1068 8.40032C70.0731 8.53166 70.0435 8.66447 70.0174 8.79772C70.0071 8.85191 70.043 8.90448 70.097 8.91581Z" fill="#2A2B26"/>
    <path fill-rule="evenodd" clip-rule="evenodd" d="M69.9899 10.5133C69.991 10.5133 69.9929 10.5133 69.9929 10.5133C70.0481 10.5118 70.0916 10.4664 70.09 10.4103C70.087 10.3315 70.0855 10.2508 70.0855 10.1722C70.0855 10.1201 70.0861 10.0675 70.087 10.0149C70.088 9.95866 70.044 9.91421 69.9889 9.91215C69.925 9.91067 69.8877 9.95502 69.8862 10.0092C69.8852 10.0638 69.8848 10.118 69.8848 10.1722C69.8848 10.2529 69.8858 10.3356 69.8892 10.4179C69.8906 10.4719 69.9356 10.5133 69.9894 10.5133H69.9899Z" fill="#2A2B26"/>
    <path fill-rule="evenodd" clip-rule="evenodd" d="M69.9999 9.71167C70.0028 9.71167 70.0057 9.71167 70.0087 9.71167C70.0608 9.71167 70.1042 9.67221 70.1089 9.61965C70.1192 9.48684 70.1329 9.35773 70.1513 9.2264C70.1587 9.17015 70.1201 9.12006 70.0648 9.1124C70.0097 9.1021 69.9597 9.14409 69.952 9.19827C69.9336 9.33314 69.9193 9.46843 69.9085 9.60329C69.9041 9.65954 69.9454 9.70799 70.0005 9.71167H69.9999Z" fill="#2A2B26"/>
    <path fill-rule="evenodd" clip-rule="evenodd" d="M70.0763 11.3121C70.1315 11.3047 70.1693 11.2533 70.1611 11.1991C70.1423 11.0684 70.1265 10.937 70.1147 10.8059C70.1103 10.7496 70.0616 10.7103 70.0053 10.7144C69.9502 10.7203 69.9093 10.7686 69.9145 10.8247C69.9263 10.9596 69.9431 11.0924 69.9625 11.2273C69.9699 11.2778 70.0131 11.3135 70.062 11.3135C70.0664 11.3135 70.0723 11.3135 70.0768 11.3121H70.0763Z" fill="#2A2B26"/>
    <path fill-rule="evenodd" clip-rule="evenodd" d="M92.8287 9.04309C92.8507 9.17221 92.8676 9.30353 92.8828 9.43471C92.8857 9.48476 92.9314 9.52466 92.9819 9.52466C92.9849 9.52466 92.9893 9.52466 92.9937 9.52466C93.0478 9.5173 93.0873 9.46844 93.0815 9.41381C93.0682 9.27895 93.0498 9.14411 93.0274 9.00939C93.0186 8.95462 92.9676 8.91736 92.913 8.92708C92.8567 8.93591 92.8215 8.98685 92.8292 9.04309H92.8287Z" fill="#2A2B26"/>
    <path fill-rule="evenodd" clip-rule="evenodd" d="M92.4018 7.52159C92.4504 7.64322 92.4973 7.76676 92.5408 7.89251C92.5555 7.93389 92.593 7.95996 92.6358 7.95996C92.6461 7.95996 92.6567 7.95849 92.6681 7.95407C92.7206 7.93567 92.7488 7.87898 92.7298 7.82685C92.6869 7.69757 92.6379 7.56991 92.5872 7.44475C92.5668 7.39365 92.5086 7.36964 92.456 7.3901C92.4059 7.41101 92.3813 7.46875 92.4018 7.52132V7.52159Z" fill="#2A2B26"/>
    <path fill-rule="evenodd" clip-rule="evenodd" d="M92.6581 8.26921C92.6935 8.39685 92.7256 8.52406 92.7552 8.65317C92.7655 8.70028 92.8058 8.73193 92.8528 8.73193C92.8602 8.73193 92.8677 8.73192 92.8731 8.73045C92.9279 8.71867 92.9631 8.66467 92.9504 8.61049C92.9223 8.47725 92.8886 8.34638 92.8508 8.21521C92.8359 8.16265 92.7798 8.13098 92.7271 8.1457C92.6749 8.16101 92.6428 8.21723 92.6581 8.26935V8.26921Z" fill="#2A2B26"/>
    <path fill-rule="evenodd" clip-rule="evenodd" d="M92.2419 7.15786C92.2587 7.1957 92.2944 7.21619 92.3317 7.21619C92.347 7.21619 92.3619 7.21322 92.3752 7.20733C92.4258 7.18289 92.4461 7.12314 92.4217 7.07249C92.3639 6.95043 92.3021 6.83042 92.2382 6.71087C92.2102 6.66243 92.1504 6.64343 92.1013 6.67155C92.0527 6.69761 92.0339 6.75785 92.0619 6.80644C92.1237 6.92232 92.1841 7.04038 92.2419 7.15831V7.15786Z" fill="#2A2B26"/>
    <path fill-rule="evenodd" clip-rule="evenodd" d="M91.8625 6.46534C91.8813 6.49494 91.9151 6.5119 91.9488 6.5119C91.9651 6.5119 91.984 6.50895 92.0009 6.49703C92.0479 6.4689 92.0627 6.40705 92.0332 6.3586C91.9616 6.24418 91.8869 6.13179 91.8083 6.01942C91.776 5.97436 91.7142 5.96317 91.6672 5.99484C91.6223 6.0265 91.6115 6.09041 91.6432 6.13533C91.7199 6.24416 91.793 6.35239 91.8625 6.46534V6.46534Z" fill="#2A2B26"/>
    <path fill-rule="evenodd" clip-rule="evenodd" d="M93.0139 10.5269C92.9597 10.521 92.9111 10.5641 92.907 10.6202C92.8981 10.7516 92.8867 10.8828 92.8697 11.0137C92.8638 11.0698 92.9034 11.1188 92.9576 11.126C92.9621 11.126 92.965 11.126 92.9709 11.126C93.0195 11.126 93.0629 11.0888 93.0706 11.0381C93.0853 10.9033 93.0981 10.7685 93.1079 10.6335C93.1108 10.5774 93.0686 10.5304 93.0139 10.5269V10.5269Z" fill="#2A2B26"/>
    <path fill-rule="evenodd" clip-rule="evenodd" d="M93.0079 9.72475C92.9517 9.72622 92.9088 9.77334 92.9123 9.82944C92.9182 9.94385 92.9197 10.0582 92.9197 10.1722V10.2248C92.9197 10.281 92.9646 10.3259 93.0209 10.3259C93.0751 10.3259 93.12 10.281 93.12 10.2248L93.1215 10.1722C93.1215 10.0547 93.1185 9.9362 93.1126 9.81825C93.1097 9.76407 93.0601 9.71562 93.0075 9.72475H93.0079Z" fill="#2A2B26"/>
    <path fill-rule="evenodd" clip-rule="evenodd" d="M92.9285 11.3246C92.8737 11.3158 92.8217 11.3507 92.812 11.4053C92.7895 11.5346 92.7613 11.6639 92.7313 11.793L92.6904 11.9672C92.6771 12.0199 92.7108 12.0741 92.7655 12.0868C92.7729 12.0883 92.7804 12.0912 92.788 12.0912C92.8329 12.0912 92.8737 12.0595 92.8851 12.0125L92.9265 11.8404C92.9581 11.707 92.9863 11.5742 93.0088 11.4409C93.0206 11.3868 92.9826 11.3342 92.9285 11.3249V11.3246Z" fill="#2A2B26"/>
</g>
</svg>
