<svg width="15" height="25" viewBox="0 0 15 25" fill="none" xmlns="http://www.w3.org/2000/svg">
<path fill-rule="evenodd" clip-rule="evenodd" d="M0.666211 19.0004C0.85651 18.9626 1.04331 19.0875 1.08121 19.2777L1.50512 21.4116C1.54312 21.6018 1.41821 21.7888 1.22781 21.8267C1.03731 21.8645 0.850695 21.7397 0.812695 21.5492L0.388828 19.4154C0.351028 19.225 0.475611 19.0383 0.666211 19.0004ZM7.43851 24.0872H9.53999C9.72899 24.0872 9.88382 24.2419 9.88382 24.431V24.4311C9.88382 24.6202 9.72899 24.7749 9.53999 24.7749H7.43851C7.24931 24.7749 7.09472 24.6202 7.09472 24.4311V24.431C7.09472 24.2419 7.24931 24.0872 7.43851 24.0872ZM8.04132 7.18531C8.04132 7.18531 8.41401 7.4184 8.23331 7.7632C8.05251 8.1078 7.924 8.15703 7.7071 8.34293C6.6858 8.86733 6.0669 9.89823 6.3264 11.2036C6.5855 12.509 7.99881 13.5607 9.42761 13.2767C10.8565 12.9927 11.7522 11.4405 11.5007 10.1753C11.2493 8.91021 10.4065 8.26991 9.36222 8.08941C9.29392 7.73771 9.02622 6.91311 8.04132 7.18531ZM0.357422 10.4467L4.17941 3.80071L2.18262 1.94434C1.82432 1.61124 2.99509 0.436114 3.40019 1.01641L5.11589 3.47344C5.22979 3.63634 5.2363 3.89214 5.1225 4.03364L5.1205 4.03743L2.06859 9.34973C2.25989 9.49113 2.4731 9.6883 2.6991 9.90141C6.6183 13.598 8.70689 16.0296 13.4816 12.1382C14.2006 11.5522 14.4573 12.0237 14.2389 12.7882C13.8152 14.2711 12.7316 14.6995 11.7746 15.669C10.0506 17.4158 9.4537 19.3604 9.1012 20.4134C8.7488 21.4664 8.87482 22.3016 9.18792 22.6232C9.57852 23.025 9.28509 23.4658 7.92749 23.7006C6.56989 23.9354 7.10551 21.4149 6.11761 20.3298C5.12961 19.2448 2.94152 21.0405 2.46172 21.2765C1.98182 21.5124 1.70032 19.9182 1.90402 19C2.10782 18.0816 4.343 18.0237 5.1816 17.1198C6.02 16.2159 5.53519 15.5927 3.89199 13.912C2.24919 12.2311 1.7519 11.3801 1.4009 10.5118L0.357422 12.3282V10.4467Z" fill="#00AEEF"/>
</svg>
