<svg width="34" height="39" viewBox="0 0 34 39" fill="none" xmlns="http://www.w3.org/2000/svg">
<path fill-rule="evenodd" clip-rule="evenodd" d="M17.0445 0C26.2164 0 33.6515 7.4351 33.6515 16.607C33.6515 25.7789 26.2164 33.214 17.0445 33.214C7.87259 33.214 0.4375 25.7789 0.4375 16.607C0.4375 7.4351 7.87259 0 17.0445 0Z" fill="#A8CF45" fill-opacity="0.301961"/>
<path fill-rule="evenodd" clip-rule="evenodd" d="M10.8077 6.13772H8.17932L6.713 7.85312L5.468 7.77001L4.99761 6.52501C4.99761 6.52501 4.83032 3.05671 7.23862 2.09831C9.64692 1.14001 12.1079 1.76641 12.9933 2.98371C13.8787 4.20101 14.4795 6.21662 14.0723 7.21672C13.6652 8.21692 12.4953 7.96371 12.2187 7.68701C11.942 7.41041 11.4993 6.33141 11.361 6.27611C11.2227 6.22071 10.8077 6.13772 10.8077 6.13772V6.13772Z" fill="#B0CB1F"/>
<path fill-rule="evenodd" clip-rule="evenodd" d="M19.7579 23.1665L17.1709 24.4668L17.6689 25.5043C17.6689 25.5043 20.2282 26.5142 20.3665 26.528C20.5048 26.5418 20.8092 26.777 20.823 26.3205C20.8368 25.864 20.74 25.0062 20.74 24.8956C20.74 24.785 19.7579 23.1665 19.7579 23.1665V23.1665Z" fill="#B0CB1F"/>
<path fill-rule="evenodd" clip-rule="evenodd" d="M6.96179 17.7158C6.96179 17.7158 7.81945 18.0064 7.93015 18.2138C8.04085 18.4213 8.38655 19.6248 8.44195 19.9291C8.49735 20.2335 7.47367 21.3125 7.47367 21.3125C7.47367 21.3125 7.58438 21.7136 6.90648 21.5891C6.22868 21.4647 5.7722 21.4369 5.62 21.2294C5.4679 21.022 5.30177 20.9529 4.98367 20.5517C4.66547 20.1505 4.2643 19.9015 4.3196 19.7632C4.375 19.6248 6.96179 17.7158 6.96179 17.7158V17.7158Z" fill="#B0CB1F"/>
<path fill-rule="evenodd" clip-rule="evenodd" d="M17.0976 16.5071C17.127 16.2898 17.3852 16.1059 17.5961 16.2093C17.9591 16.3874 17.8971 16.8594 17.5586 16.9694C17.2795 17.06 17.065 16.7485 17.0976 16.5071ZM3.08637 18.8451L4.05137 19.9638L4.09848 20.5432C3.60658 20.2736 1.33017 19.1828 1.15547 18.8403C1.11367 18.7583 1.04231 18.6523 1.09481 18.5098C1.27371 18.0248 1.55988 17.9574 1.93708 18.1693L3.08637 18.8451V18.8451ZM18.0627 23.5143C18.4236 23.3822 19.4613 23.1068 19.3613 22.6024C19.1443 21.5073 17.9853 19.3378 17.6409 18.2999C17.4366 17.684 18.0238 17.5423 18.2369 17.9193C19.3218 19.8383 20.1741 22.4576 21.1402 24.6098C21.1965 24.7452 21.2317 24.8908 21.254 25.0355C21.2996 25.3311 21.2946 25.6369 21.276 25.9348C21.2659 26.0952 21.2141 26.4493 21.2914 26.5872L21.3201 26.6384L21.3689 26.6713C21.5337 26.7819 21.718 26.8447 21.9155 26.8615C22.5014 26.9113 22.9888 26.5858 23.4801 26.3281C24.4891 25.7986 25.4342 25.1609 26.4112 24.5774C26.9699 24.2437 27.2609 23.956 27.9576 23.9439C29.2277 23.9219 30.073 24.6942 30.1039 25.9738C30.1354 27.2782 29.6405 28.035 28.5303 28.6519C27.5359 29.2047 26.5508 29.7842 25.6053 30.4176C24.5391 31.132 23.6501 31.5955 22.4106 30.9184C21.4128 30.3969 20.4232 29.843 19.4316 29.3084C18.7499 28.9411 18.0675 28.574 17.3812 28.2156C16.8395 27.9327 16.3007 27.712 15.7723 27.4253C15.966 27.8863 16.1502 28.3944 16.3236 28.8655C16.6623 29.7853 16.8147 30.707 16.9157 31.6789C16.9951 32.4422 16.9958 33.2453 16.9911 34.0128C16.9866 34.7453 16.9669 35.4773 16.9526 36.2098C16.9334 37.1919 16.0204 38.3152 15.0337 38.4572C14.4233 38.545 13.8412 38.4401 13.3356 38.0777C13.177 37.964 13.0386 37.8285 12.9208 37.673C12.2574 36.7966 12.2882 35.2984 12.3213 34.2498C12.3406 33.6357 12.377 33.0198 12.3715 32.4053C12.3546 30.4826 11.2816 28.9133 10.4969 27.2401C10.2575 26.7297 9.79476 26.0139 9.16356 25.9776C8.89896 25.9624 8.52039 26.0833 8.28379 26.3227C7.57679 27.0385 6.91622 28.0882 6.64622 28.7093C6.36912 29.3471 6.12606 30.0101 5.92356 30.6755C5.81576 31.03 5.64163 31.5983 5.62653 31.9668C5.59723 32.6839 5.63481 33.4327 5.64911 34.1518C5.65811 34.6099 5.6655 35.0696 5.6559 35.5277C5.6497 35.8251 5.64258 36.1939 5.57918 36.4842C5.35558 37.5098 4.52863 38.4557 3.42153 38.4694C2.41443 38.482 1.18979 37.7436 1.07989 36.6798C0.999488 35.9018 1.00947 35.0721 1.02137 34.2897C1.03267 33.5412 1.05959 32.793 1.07239 32.0447C1.11739 29.3892 2.17018 27.5027 3.31668 25.1981C3.56118 24.7067 3.84898 24.1749 3.99778 23.6459C4.20868 22.8963 4.15177 21.9839 4.11497 21.2136L4.1084 21.0765L1.232 19.4826C0.978797 19.3422 0.789305 19.2076 0.680005 19.0272C0.577005 18.8573 0.589883 18.6615 0.642583 18.3669C1.01878 17.3846 1.59251 17.5014 2.24411 17.8884C1.78821 17.3573 1.42131 16.7012 1.40481 15.9698C1.37051 14.4518 1.96937 14.0379 2.76637 12.8526C3.16557 12.2591 3.56818 11.675 4.18458 11.2839C4.54908 11.0526 4.95918 10.7958 5.39598 10.7401C5.53828 10.7219 5.68232 10.7138 5.82512 10.6964C6.05082 10.6689 6.27089 10.6237 6.49059 10.5653L6.73348 10.5006L6.66403 10.2592C6.60423 10.0515 6.32116 9.75015 6.18036 9.57125C5.98306 9.32045 5.85127 9.06955 5.74997 8.76835C5.68217 8.56675 5.62715 8.31205 5.47465 8.15725C5.30415 7.98405 5.10351 7.86705 4.94411 7.67485C4.45351 7.08325 4.6957 5.06065 4.9345 4.37335C6.6674 -0.614249 14.5383 0.294149 14.5525 6.22015C14.5535 6.60565 14.5388 7.21204 14.3693 7.56864C14.2796 7.75704 14.1745 7.82325 14.0058 7.93095C13.8753 8.01415 13.7642 8.09525 13.6654 8.21685C13.5634 8.34255 13.4218 8.81735 13.3316 8.99935C13.1885 9.28795 13.0144 9.54405 12.8243 9.80275C12.6919 9.98305 12.4271 10.2785 12.6447 10.4953L12.664 10.5146L12.6871 10.5292C12.9698 10.7077 14.0892 10.6452 14.7552 10.9143C15.8455 11.3553 16.7109 12.0344 17.2051 13.2536C17.3066 13.5041 17.6082 14.8797 17.6772 15.1785C17.68 15.574 17.2729 15.8375 17.0051 15.4111C16.8247 15.1238 16.4703 13.4861 16.3905 13.3096C16.0086 12.4651 15.1286 11.8746 14.5124 11.5992C13.6309 11.2052 12.9124 11.3426 11.7637 11.3426H7.10239C6.65809 11.3426 6.20926 11.4131 5.76786 11.4324L5.75161 11.4309L5.71926 11.4361C4.81936 11.5845 4.2011 12.149 3.7002 12.8746C2.7432 14.2609 1.33069 15.5908 2.71559 17.2605L4.2809 19.1736C4.3319 19.1541 6.74942 17.443 6.74942 17.443C6.72682 17.3758 6.22789 16.7254 5.95879 16.4223C5.73319 16.1681 5.3684 15.8124 5.6095 15.4568C5.8163 15.1517 5.9985 14.7818 6.2259 14.5002C6.4637 14.2056 7.14477 14.4612 6.77387 15.0113C6.60357 15.2637 6.36666 15.5544 6.51176 15.8863C6.54866 15.9706 6.73386 16.1895 6.79356 16.2668C6.97436 16.5007 7.15567 16.7341 7.33747 16.9672C7.59827 17.3018 7.86191 17.6559 8.13481 17.9796C8.38901 18.281 8.62562 18.6322 8.71442 19.0222C8.77802 19.3016 8.75569 19.5586 8.73309 19.8401C8.70989 20.1299 8.69878 20.3949 8.75848 20.6826L8.78262 20.799L8.88879 20.8526C9.49739 21.1594 10.1133 21.457 10.7274 21.7526C11.1477 21.9549 11.569 22.1561 11.993 22.3505C12.167 22.4302 12.5583 22.6253 12.7397 22.6569L13.0281 22.7072L13.0301 15.5422C13.0302 15.3773 12.983 14.6735 13.0819 14.5544C13.1537 14.4679 13.4309 14.4789 13.5989 14.4938C13.6933 14.6049 13.7242 14.6012 13.7397 14.818C13.7959 15.6058 13.6785 16.421 13.7409 17.2181C13.8121 18.1263 15.8002 22.1323 16.2636 23.2251C16.3626 23.4585 16.4832 23.7969 16.7359 23.9001C16.9225 23.9763 17.1202 23.9146 17.2981 23.8451C17.5544 23.7452 17.8086 23.6225 18.0627 23.5143V23.5143ZM8.28833 2.12885C7.22773 2.37805 6.49123 2.89724 5.99833 3.87404C5.64343 4.57734 5.20867 6.58675 5.58997 7.29705L5.65942 7.42625L6.65942 7.43045L6.73379 7.33534C7.00749 6.98514 7.12318 6.53745 7.40668 6.18925C7.80108 5.70495 8.4099 5.60585 9.0034 5.60665C9.5872 5.60745 10.443 5.49875 10.9874 5.68375C11.5533 5.87605 11.7572 6.07595 12.0109 6.59225C12.1245 6.82355 12.2315 7.02565 12.4126 7.21415C12.7355 7.55015 13.1717 7.61285 13.5521 7.31715L13.5629 7.30875L13.5726 7.29935C14.0203 6.86455 13.6668 5.14875 13.5104 4.63095C13.3172 3.99145 12.9799 3.26105 12.4205 2.86315C11.193 1.99005 9.74362 1.71665 8.28833 2.12885V2.12885ZM6.57903 8.56074C6.70463 9.25964 7.53079 10.0366 8.16559 10.3061C9.54139 10.8905 12.4106 10.405 12.6288 8.47205L12.6515 8.27135L12.4835 8.25275C12.0216 8.20155 11.5987 7.72215 11.4545 7.25945C11.2221 6.51415 11.1092 6.38935 10.2918 6.39255C9.75616 6.39475 9.22025 6.37675 8.68465 6.39225C8.35495 6.40175 8.11963 6.46195 7.92903 6.74755C7.65863 7.15265 7.57158 7.50985 7.23028 7.89835C7.02978 8.12655 6.9855 8.30015 6.692 8.30755L6.52528 8.31185L6.57903 8.56074ZM5.71715 20.8611C6.69195 21.4809 7.96489 20.8205 7.98809 19.6578C8.00339 18.887 7.15528 17.9728 7.15528 17.9728C6.44558 18.5619 5.49022 19.1309 4.72872 19.6397C4.98922 20.1383 5.11425 20.4778 5.71715 20.8611ZM27.6352 24.8176C27.3687 24.9069 26.831 25.245 26.6324 25.364C26.3321 25.544 26.0276 25.7415 25.722 25.9099C24.7495 26.4457 23.052 27.6857 21.9227 27.5548C21.4716 27.5024 20.3816 26.9696 19.9375 26.7582C19.2775 26.444 18.6052 26.1593 17.9409 25.8548C17.2854 25.5544 16.6578 25.1893 15.9939 24.9084C13.4952 23.851 11.0332 22.7068 8.6309 21.4449C8.0368 21.1327 7.41296 22.0133 7.81536 22.3626C8.08526 22.5968 8.43709 22.8137 8.74129 23.0013C9.23449 23.3056 9.74041 23.5934 10.2466 23.8755C11.5703 24.6131 12.9171 25.3168 14.265 26.0093C15.6708 26.7316 17.0839 27.4412 18.5029 28.1373C19.0245 28.3933 19.5471 28.6478 20.0717 28.8976C20.3698 29.0395 20.6726 29.1863 20.9763 29.3156C21.2807 29.4453 21.5768 29.6084 21.8665 29.7681C22.3825 30.0527 23.3904 30.684 23.99 30.4771C24.6331 30.2551 25.4332 29.696 26.0062 29.3163C26.5416 28.9615 27.1219 28.5517 27.6941 28.2642C28.1556 28.0324 28.695 27.7236 29.0379 27.3374C29.4659 26.8554 29.5212 26.1991 29.284 25.6157C29.0947 25.1501 28.6616 24.6498 28.1166 24.6565C27.9401 24.6586 27.777 24.7166 27.6352 24.8176ZM15.5166 23.4868C15.4896 23.3266 15.3808 23.0794 15.3184 22.9268C15.1995 22.6357 15.0731 22.3466 14.9441 22.0598C14.6398 21.384 14.1878 20.6528 13.8386 19.9659C13.8091 20.9178 13.6883 22.0792 13.7596 22.9827L13.7687 23.0972L13.8623 23.1639C14.1551 23.3723 14.9124 23.7583 15.2628 23.7738L15.5671 23.7872L15.5166 23.4868ZM20.4732 25.8698C20.5326 25.3009 20.2825 23.8847 19.5817 23.8013C19.4305 23.7832 18.7346 24.0409 18.5847 24.1011C18.2822 24.2228 17.7033 24.4667 17.6725 24.8446L17.6568 25.0382L17.8414 25.0986C18.1847 25.211 18.5777 25.4133 18.9082 25.5672C19.1681 25.6882 19.9581 26.0813 20.2198 26.0903L20.4494 26.0984L20.4732 25.8698V25.8698ZM11.3711 27.2473C12.3045 29.0057 13.0546 30.4963 13.0819 32.5343C13.0856 32.8071 13.0665 33.0887 13.0635 33.3632C13.0606 33.6183 13.0877 34.6705 13.0877 34.6705C13.1387 34.7154 15.6619 34.6532 16.2489 34.5813C16.4922 32.1427 16.0247 29.6623 14.8856 27.4913C14.5677 26.8857 14.497 26.869 13.9209 26.5269C12.6384 25.7653 11.3585 25.0008 10.0664 24.2556C9.25897 23.7899 8.44697 23.3296 7.62567 22.8888C7.01217 22.5597 6.365 22.215 5.7209 21.9509C5.3737 21.8084 5.01022 21.9331 4.95512 22.3284C4.92122 22.5709 4.90162 22.9198 4.88872 23.0538C4.86762 23.2736 4.84723 23.5663 4.79083 23.7776C4.67753 24.2018 4.40471 24.7403 4.21411 25.1409C4.01341 25.5628 3.79929 25.9851 3.61239 26.4128C3.42589 26.8392 3.16169 27.2182 2.95989 27.6377C2.71729 28.1421 2.47507 28.6559 2.31137 29.1922C2.17157 29.6502 2.07627 30.1332 1.97137 30.6005C1.84507 31.1628 1.81599 31.918 1.79399 32.4963C1.78439 32.748 1.66948 34.4169 1.73708 34.5213C1.76568 34.5655 1.89141 34.541 2.03071 34.5473C2.72991 34.579 3.97467 34.6852 4.50497 34.5913C4.64717 34.5661 4.69689 34.4987 4.77239 34.2656L4.78465 34.2274L4.78442 34.1872C4.77012 32.7912 4.68817 31.5905 5.20387 30.2592C5.63537 29.1452 6.00789 28.1599 6.62809 27.1257C7.27109 26.0535 7.7773 25.4916 8.4859 25.2914C8.8973 25.1752 9.42717 25.1896 9.82247 25.3684C10.377 25.6192 10.8211 26.211 11.3711 27.2473ZM15.6373 37.3592C16.2849 36.7218 16.195 35.4582 16.1868 35.198C16.1868 35.198 13.7737 35.3639 13.1441 35.3209C13.1879 35.9706 13.0933 37.1356 13.9091 37.5564C14.3472 37.7824 15.2656 37.7251 15.6373 37.3592ZM4.70028 35.3624C4.49228 35.2839 2.17909 35.0232 1.87329 35.3055C1.80609 36.1245 1.69908 37.1459 2.51618 37.5055C3.12248 37.7723 4.02221 37.7135 4.42801 37.1347C4.72191 36.7156 4.86979 35.9846 4.76739 35.4871L4.75262 35.4147L4.70028 35.3624V35.3624Z" fill="#373435"/>
</svg>
