<svg width="298" height="460" viewBox="0 0 298 460" fill="none" xmlns="http://www.w3.org/2000/svg">
<path d="M32.8141 395.328C36.9157 421.708 55.098 442.691 79.1678 452.68C100.131 461.38 116.861 460.111 144.185 454.959L242.123 439.732C265.548 436.091 285.178 423.325 297.489 405.957V400.151C285.964 418.876 265.927 432.861 241.642 436.636L128.76 454.186C114.289 456.436 98.2594 456.211 84.3581 451.28C59.368 442.417 40.1852 421.503 36.0379 394.827L0.478516 166.1V187.338L32.8141 395.328ZM297.489 268.257L265.154 60.2657C260.618 31.0905 238.857 8.51779 210.956 0.116699H194.933C228.632 3.5593 256.794 27.7534 261.926 60.7673L297.489 289.522V268.257ZM0.478516 55.4368C12.0041 36.7149 32.0385 22.7323 56.3198 18.9571L173.866 0.682714C175.353 0.451515 176.835 0.266299 178.314 0.116699H157.13L55.8389 15.8644C32.416 19.5059 12.7881 32.2696 0.478516 49.635V55.4368Z" fill="#FEFEFE" fill-opacity="0.478431"/>
<path d="M21.9102 318.062L297.464 275.222L297.489 275.388V279.68L22.5875 322.418L21.9102 318.062Z" fill="#FEFEFE" fill-opacity="0.478431"/>
<path d="M0.478516 175.917L275.38 133.179L276.058 137.534L0.504116 180.373L0.478516 180.209V175.917Z" fill="#FEFEFE" fill-opacity="0.478431"/>
<path d="M11.9764 250.6L145.263 229.878C145.023 229.447 144.848 228.97 144.768 228.453C144.688 227.937 144.709 227.429 144.807 226.945L11.5205 247.667L11.9764 250.6Z" fill="#FEFEFE" fill-opacity="0.478431"/>
<path d="M153.158 228.651L286.449 207.929L285.992 204.996L152.702 225.717C152.942 226.149 153.118 226.627 153.198 227.144C153.278 227.659 153.256 228.167 153.158 228.651Z" fill="#FEFEFE" fill-opacity="0.478431"/>
<path d="M145.845 229.553C146.558 230.827 148.009 231.59 149.536 231.353C151.065 231.115 152.214 229.948 152.507 228.518C152.59 228.11 152.608 227.681 152.54 227.244C152.473 226.81 152.326 226.406 152.121 226.042C151.409 224.767 149.958 224.006 148.431 224.243C146.904 224.48 145.754 225.647 145.461 227.077C145.378 227.485 145.359 227.915 145.427 228.35C145.495 228.786 145.642 229.19 145.845 229.553Z" fill="#FEFEFE" fill-opacity="0.478431"/>
<path d="M155.38 268.943C132.69 272.471 111.364 256.88 107.837 234.193C104.31 211.509 119.897 190.181 142.587 186.654C165.276 183.126 186.604 198.714 190.131 221.399C193.658 244.086 178.068 265.415 155.38 268.943ZM191.613 221.169C187.958 197.664 165.862 181.516 142.356 185.17C118.851 188.824 102.7 210.918 106.354 234.424C110.009 257.931 132.105 274.08 155.61 270.426C179.117 266.772 195.267 244.677 191.613 221.169Z" fill="#FEFEFE" fill-opacity="0.478431"/>
<path d="M233.717 340.817L233.696 340.684L233.56 340.705L226.856 341.747L226.899 342.018L233.466 340.996L234.853 349.922L235.125 349.879L233.717 340.817Z" fill="#FEFEFE" fill-opacity="0.478431"/>
<path d="M232.871 335.382L232.891 335.516L232.756 335.538L226.053 336.58L226.011 336.306L232.577 335.285L231.19 326.362L231.462 326.32L232.871 335.382Z" fill="#FEFEFE" fill-opacity="0.478431"/>
<path d="M237.206 340.275L237.186 340.141L237.32 340.12L244.023 339.078L244.065 339.349L237.497 340.369L238.884 349.294L238.615 349.336L237.206 340.275Z" fill="#FEFEFE" fill-opacity="0.478431"/>
<path d="M236.361 334.84L236.382 334.974L236.517 334.953L243.22 333.911L243.177 333.637L236.609 334.658L235.221 325.735L234.952 325.777L236.361 334.84Z" fill="#FEFEFE" fill-opacity="0.478431"/>
<path d="M238.661 361.133C225.809 363.131 213.73 354.303 211.732 341.452C209.735 328.602 218.563 316.521 231.415 314.523C244.264 312.525 256.344 321.356 258.342 334.205C260.338 347.057 251.51 359.135 238.661 361.133ZM259.181 334.075C257.112 320.762 244.595 311.616 231.284 313.685C217.97 315.755 208.824 328.27 210.894 341.582C212.964 354.897 225.478 364.043 238.792 361.972C252.103 359.903 261.252 347.39 259.181 334.075Z" fill="#FEFEFE" fill-opacity="0.478431"/>
<path d="M236.692 337.572C236.55 336.659 235.697 336.034 234.782 336.177C233.868 336.318 233.244 337.173 233.386 338.086C233.529 339.001 234.381 339.625 235.295 339.483C236.211 339.341 236.834 338.487 236.692 337.572Z" fill="#FEFEFE" fill-opacity="0.478431"/>
<path d="M203.064 345.165L211.674 343.827L211.772 344.457L203.162 345.795L203.064 345.165Z" fill="#FEFEFE" fill-opacity="0.478431"/>
<path d="M202.248 339.918L210.858 338.579L210.956 339.209L202.346 340.547L202.248 339.918Z" fill="#FEFEFE" fill-opacity="0.478431"/>
<path d="M259.121 336.45L267.729 335.112L267.827 335.742L259.219 337.08L259.121 336.45Z" fill="#FEFEFE" fill-opacity="0.478431"/>
<path d="M258.306 331.203L266.914 329.865L267.011 330.493L258.403 331.832L258.306 331.203Z" fill="#FEFEFE" fill-opacity="0.478431"/>
<path d="M99.075 361.75L99.0548 361.616L98.9186 361.637L92.2148 362.679L92.2571 362.95L98.823 361.93L100.21 370.854L100.484 370.811L99.075 361.75Z" fill="#FEFEFE" fill-opacity="0.478431"/>
<path d="M98.2305 356.315L98.2512 356.448L98.1156 356.47L91.4114 357.511L91.3691 357.238L97.9348 356.217L96.5474 347.295L96.822 347.252L98.2305 356.315Z" fill="#FEFEFE" fill-opacity="0.478431"/>
<path d="M102.565 361.207L102.544 361.073L102.679 361.052L109.383 360.01L109.425 360.281L102.856 361.302L104.243 370.226L103.973 370.269L102.565 361.207Z" fill="#FEFEFE" fill-opacity="0.478431"/>
<path d="M101.719 355.772L101.74 355.906L101.875 355.886L108.58 354.842L108.537 354.569L101.968 355.591L100.58 346.667L100.311 346.71L101.719 355.772Z" fill="#FEFEFE" fill-opacity="0.478431"/>
<path d="M104.021 382.065C91.1678 384.063 79.0902 375.235 77.092 362.384C75.0947 349.534 83.9218 337.453 96.7746 335.455C109.625 333.457 121.704 342.289 123.702 355.138C125.699 367.989 116.871 380.067 104.021 382.065ZM124.54 355.007C122.471 341.695 109.955 332.548 96.644 334.617C83.3306 336.687 74.1836 349.202 76.2531 362.514C78.3231 375.829 90.8381 384.975 104.151 382.905C117.462 380.835 126.61 368.322 124.54 355.007Z" fill="#FEFEFE" fill-opacity="0.478431"/>
<path d="M102.05 358.503C101.908 357.591 101.054 356.966 100.141 357.108C99.2245 357.251 98.6018 358.105 98.7438 359.017C98.8861 359.933 99.7389 360.557 100.655 360.414C101.569 360.273 102.192 359.419 102.05 358.503Z" fill="#FEFEFE" fill-opacity="0.478431"/>
<path d="M68.4258 366.097L77.0337 364.759L77.1315 365.388L68.5236 366.726L68.4258 366.097Z" fill="#FEFEFE" fill-opacity="0.478431"/>
<path d="M67.6094 360.849L76.2171 359.511L76.3149 360.14L67.7073 361.478L67.6094 360.849Z" fill="#FEFEFE" fill-opacity="0.478431"/>
<path d="M124.481 357.382L133.088 356.044L133.187 356.673L124.579 358.012L124.481 357.382Z" fill="#FEFEFE" fill-opacity="0.478431"/>
<path d="M123.665 352.135L132.273 350.797L132.37 351.427L123.763 352.764L123.665 352.135Z" fill="#FEFEFE" fill-opacity="0.478431"/>
<path d="M199.74 99.2792L199.719 99.1476L199.854 99.1267L206.556 98.0845L206.598 98.3535L200.03 99.3748L201.417 108.3L201.148 108.342L199.74 99.2792Z" fill="#FEFEFE" fill-opacity="0.478431"/>
<path d="M198.895 93.8451L198.916 93.9808L199.05 93.9599L205.754 92.9173L205.711 92.6431L199.143 93.6651L197.756 84.7417L197.486 84.7843L198.895 93.8451Z" fill="#FEFEFE" fill-opacity="0.478431"/>
<path d="M201.195 120.137C188.344 122.135 176.264 113.308 174.267 100.457C172.269 87.608 181.098 75.5263 193.949 73.5292C206.798 71.531 218.878 80.3618 220.876 93.2115C222.873 106.062 214.045 118.14 201.195 120.137ZM221.716 93.0803C219.646 79.7673 207.13 70.6216 193.819 72.6911C180.505 74.7615 171.358 87.2746 173.428 100.587C175.498 113.903 188.012 123.047 201.326 120.978C214.637 118.909 223.786 106.396 221.716 93.0803Z" fill="#FEFEFE" fill-opacity="0.478431"/>
<path d="M165.597 104.172L174.207 102.833L174.305 103.46L165.694 104.799L165.597 104.172Z" fill="#FEFEFE" fill-opacity="0.478431"/>
<path d="M164.781 98.9237L173.391 97.585L173.489 98.2141L164.879 99.553L164.781 98.9237Z" fill="#FEFEFE" fill-opacity="0.478431"/>
<path d="M221.654 95.4565L230.264 94.1177L230.361 94.7456L221.752 96.0836L221.654 95.4565Z" fill="#FEFEFE" fill-opacity="0.478431"/>
<path d="M220.839 90.2083L229.448 88.8696L229.545 89.4989L220.937 90.8378L220.839 90.2083Z" fill="#FEFEFE" fill-opacity="0.478431"/>
<path d="M66.5535 141.07C53.7006 143.068 41.6241 134.241 39.6265 121.389C37.6292 108.54 46.4551 96.4583 59.3076 94.4608C72.158 92.4638 84.2372 101.294 86.2348 114.143C88.2329 126.994 79.4039 139.071 66.5535 141.07ZM87.0738 114.013C85.0042 100.7 72.4884 91.5539 59.1778 93.6232C45.8638 95.6931 36.7167 108.207 38.7864 121.52C40.8562 134.835 53.371 143.98 66.6847 141.91C79.995 139.841 89.1441 127.328 87.0738 114.013Z" fill="#FEFEFE" fill-opacity="0.478431"/>
<path d="M61.609 120.754L61.5882 120.623L61.4526 120.643L54.751 121.686L54.7929 121.955L61.3553 120.934L62.7433 129.859L63.0179 129.817L61.609 120.754Z" fill="#FEFEFE" fill-opacity="0.478431"/>
<path d="M60.7644 115.32L60.7849 115.455L60.6492 115.476L53.9478 116.518L53.9053 116.244L60.4681 115.224L59.0806 106.301L59.3557 106.258L60.7644 115.32Z" fill="#FEFEFE" fill-opacity="0.478431"/>
<path d="M65.0978 120.212L65.0771 120.08L65.2124 120.059L71.9166 119.017L71.9586 119.286L65.3888 120.307L66.7764 129.232L66.5065 129.274L65.0978 120.212Z" fill="#FEFEFE" fill-opacity="0.478431"/>
<path d="M64.2532 114.778L64.2741 114.913L64.4093 114.892L71.114 113.85L71.0705 113.576L64.5015 114.597L63.1145 105.674L62.8447 105.717L64.2532 114.778Z" fill="#FEFEFE" fill-opacity="0.478431"/>
<path d="M64.5841 117.509C64.4421 116.596 63.5877 115.972 62.6744 116.114C61.7582 116.257 61.1362 117.11 61.2779 118.023C61.4201 118.937 62.2721 119.56 63.1881 119.418C64.1016 119.277 64.7255 118.423 64.5841 117.509Z" fill="#FEFEFE" fill-opacity="0.478431"/>
<path d="M30.957 125.103L39.567 123.765L39.6641 124.392L31.0547 125.731L30.957 125.103Z" fill="#FEFEFE" fill-opacity="0.478431"/>
<path d="M30.1416 119.855L38.7511 118.517L38.8494 119.146L30.2396 120.485L30.1416 119.855Z" fill="#FEFEFE" fill-opacity="0.478431"/>
<path d="M225.167 275.771C224.915 274.153 223.4 273.045 221.783 273.297C220.165 273.548 219.058 275.064 219.309 276.682C219.561 278.3 221.075 279.407 222.693 279.155C224.312 278.903 225.418 277.39 225.167 275.771Z" fill="#FEFEFE" fill-opacity="0.478431"/>
<path d="M96.8187 295.725C96.5676 294.107 95.054 292.999 93.4351 293.25C91.8179 293.502 90.7109 295.018 90.9624 296.635C91.2138 298.255 92.7286 299.36 94.3454 299.108C95.9648 298.857 97.0709 297.343 96.8187 295.725Z" fill="#FEFEFE" fill-opacity="0.478431"/>
<path d="M78.6589 178.916C78.4064 177.297 76.8933 176.189 75.275 176.441C73.6576 176.692 72.5509 178.207 72.8022 179.827C73.0537 181.444 74.5686 182.552 76.1851 182.3C77.8045 182.049 78.9096 180.534 78.6589 178.916Z" fill="#FEFEFE" fill-opacity="0.478431"/>
<path d="M0.478516 81.9415L259.366 41.6934L259.603 43.2148L0.478516 83.5004V81.9415Z" fill="#FEFEFE" fill-opacity="0.478431"/>
<path d="M38.3643 412.381L297.49 372.096V373.654L38.6005 413.902L38.3643 412.381Z" fill="#FEFEFE" fill-opacity="0.478431"/>
<path d="M101.562 88.8446C101.864 90.7867 111.678 99.0431 128.158 96.4807C141.867 94.3498 148.098 86.9226 149.678 84.6955C150.318 83.7944 151.363 82.1317 151.18 81.1102C151.103 80.6941 148.982 67.0142 147.873 59.8374L147.748 59.0376L146.948 59.1617L98.9269 66.6275L98.127 66.7517L98.2513 67.5508L101.562 88.8446ZM99.1752 68.2261L147.195 60.7605L146.273 60.0848C146.404 60.9337 149.489 80.8712 149.586 81.3997C149.583 81.3827 149.581 81.3709 149.581 81.3709C149.607 82.814 143.457 92.4651 127.91 94.8813C112.791 97.2323 103.724 89.9558 103.145 88.5325C103.145 88.5331 103.155 88.5558 103.161 88.5964L99.8506 67.3017L99.1752 68.2261Z" fill="#FEFEFE" fill-opacity="0.478431"/>
<path d="M195.959 367.078C195.658 365.137 185.842 356.88 169.362 359.443C155.65 361.574 149.424 369.003 147.841 371.228C147.201 372.128 146.155 373.792 146.341 374.815C146.417 375.229 148.536 388.91 149.649 396.087L149.771 396.887L150.571 396.762L198.593 389.296L199.394 389.172L199.269 388.373L195.959 367.078ZM198.344 387.697L150.322 395.163L151.247 395.838C151.115 394.99 148.03 375.054 147.932 374.525C147.937 374.542 147.937 374.553 147.937 374.553C147.912 373.11 154.064 363.458 169.611 361.041C184.73 358.691 193.797 365.967 194.374 367.392C194.374 367.39 194.366 367.368 194.359 367.327L197.67 388.621L198.344 387.697Z" fill="#FEFEFE" fill-opacity="0.478431"/>
<path d="M153.95 374.465L147.288 375.501L147.018 373.769L153.681 372.732L153.95 374.465Z" fill="#FEFEFE" fill-opacity="0.478431"/>
<path d="M195.268 368.041L188.605 369.077L188.336 367.345L194.999 366.309L195.268 368.041Z" fill="#FEFEFE" fill-opacity="0.478431"/>
<path d="M196.249 99.822L196.228 99.6904L196.092 99.7109L189.391 100.754L189.432 101.023L195.995 100.002L197.383 108.927L197.657 108.885L196.249 99.822Z" fill="#FEFEFE" fill-opacity="0.478431"/>
<path d="M195.404 94.3874L195.425 94.5227L195.289 94.5436L188.588 95.5861L188.545 95.312L195.108 94.2918L193.721 85.3691L193.996 85.3262L195.404 94.3874Z" fill="#FEFEFE" fill-opacity="0.478431"/>
<path d="M199.737 99.2793L199.717 99.1479L199.852 99.1266L206.556 98.085L206.598 98.3534L200.029 99.3745L201.416 108.3L201.146 108.342L199.737 99.2793Z" fill="#FEFEFE" fill-opacity="0.478431"/>
<path d="M198.893 93.8453L198.914 93.9808L199.048 93.9597L205.753 92.9173L205.71 92.6432L199.141 93.6649L197.753 84.7422L197.484 84.7843L198.893 93.8453Z" fill="#FEFEFE" fill-opacity="0.478431"/>
<path d="M199.224 96.5777C199.082 95.6641 198.227 95.0406 197.314 95.1828C196.398 95.3255 195.776 96.1779 195.918 97.0909C196.06 98.0047 196.912 98.629 197.828 98.4872C198.742 98.3454 199.365 97.4917 199.224 96.5777Z" fill="#FEFEFE" fill-opacity="0.478431"/>
<path d="M198.895 93.8451L198.916 93.9808L199.05 93.9599L205.754 92.9173L205.711 92.6431L199.143 93.6651L197.756 84.7417L197.486 84.7843L198.895 93.8451Z" fill="#FEFEFE" fill-opacity="0.478431"/>
<path d="M174.01 97.8854C173.472 86.033 181.959 75.3925 193.948 73.5292C206.798 71.531 218.877 80.3618 220.875 93.2115C221.12 94.7869 221.201 96.3505 221.133 97.8854H221.984C222.051 96.3076 221.967 94.6997 221.715 93.0803C219.645 79.7673 207.129 70.6216 193.818 72.6911C181.409 74.6203 172.623 85.6208 173.16 97.8854H174.01Z" fill="#FEFEFE" fill-opacity="0.478431"/>
<path d="M171.457 97.8857L173.392 97.585L173.439 97.8857H171.457Z" fill="#FEFEFE" fill-opacity="0.478431"/>
<path d="M221.654 95.4565L230.264 94.1177L230.361 94.7456L221.752 96.0836L221.654 95.4565Z" fill="#FEFEFE" fill-opacity="0.478431"/>
<path d="M220.839 90.2083L229.448 88.8696L229.545 89.4989L220.937 90.8378L220.839 90.2083Z" fill="#FEFEFE" fill-opacity="0.478431"/>
<path d="M50.2449 97.8853C52.9167 96.1751 55.9762 94.9782 59.3077 94.4606C65.1986 93.5449 70.9264 94.906 75.5965 97.8853H77.1109C72.0946 94.3065 65.7329 92.604 59.1779 93.623C55.2799 94.229 51.7401 95.7312 48.7334 97.8853H50.2449Z" fill="#FEFEFE" fill-opacity="0.478431"/>
<path d="M0.478516 81.9415L259.366 41.6934L259.603 43.2148L0.478516 83.5004V81.9415Z" fill="#FEFEFE" fill-opacity="0.478431"/>
<path d="M101.562 88.8446C101.864 90.7867 111.678 99.0431 128.158 96.4807C141.867 94.3498 148.098 86.9226 149.678 84.6955C150.318 83.7944 151.363 82.1317 151.18 81.1102C151.103 80.6941 148.982 67.0142 147.873 59.8374L147.748 59.0376L146.948 59.1617L98.9269 66.6275L98.127 66.7517L98.2513 67.5508L101.562 88.8446ZM99.1752 68.2261L147.195 60.7605L146.273 60.0848C146.404 60.9337 149.489 80.8712 149.586 81.3997C149.583 81.3827 149.581 81.3709 149.581 81.3709C149.607 82.814 143.457 92.4651 127.91 94.8813C112.791 97.2323 103.724 89.9558 103.145 88.5325C103.145 88.5331 103.155 88.5558 103.161 88.5964L99.8506 67.3017L99.1752 68.2261Z" fill="#FEFEFE" fill-opacity="0.478431"/>
<path d="M195.404 94.3874L195.425 94.5227L195.289 94.5436L188.588 95.5861L188.545 95.312L195.108 94.2918L193.721 85.3691L193.996 85.3262L195.404 94.3874Z" fill="#FEFEFE" fill-opacity="0.478431"/>
<path d="M198.893 93.8453L198.914 93.9808L199.048 93.9597L205.753 92.9173L205.71 92.6432L199.141 93.6649L197.753 84.7422L197.484 84.7843L198.893 93.8453Z" fill="#FEFEFE" fill-opacity="0.478431"/>
<path d="M199.224 96.5777C199.082 95.6641 198.227 95.0406 197.314 95.1828C196.398 95.3255 195.776 96.1779 195.918 97.0909C195.965 97.3935 196.09 97.664 196.269 97.8856H198.872C199.158 97.532 199.299 97.0629 199.224 96.5777Z" fill="#FEFEFE" fill-opacity="0.478431"/>
<path fill-rule="evenodd" clip-rule="evenodd" d="M98.4512 47.0302C99.1429 47.3963 99.5254 47.3214 99.7431 48.1372H100.297C100.297 45.1884 100.662 44.8154 99.0047 44.8154C98.8278 45.575 98.6142 46.33 98.4512 47.0302Z" fill="#FEFEFE" fill-opacity="0.478431"/>
<path fill-rule="evenodd" clip-rule="evenodd" d="M85.273 64.7463C85.256 65.4001 85.6492 64.9787 85.593 64.764C85.5054 64.4287 85.2846 64.2879 85.273 64.7463Z" fill="#FEFEFE" fill-opacity="0.478431"/>
<path fill-rule="evenodd" clip-rule="evenodd" d="M89.541 42.0477C89.5371 42.7735 89.9053 42.3358 89.8468 42.0964C89.7464 41.6866 89.5421 41.8795 89.541 42.0477Z" fill="#FEFEFE" fill-opacity="0.478431"/>
<path fill-rule="evenodd" clip-rule="evenodd" d="M97.5045 36.8806C97.5021 37.3857 97.9443 36.8844 97.7676 36.8265C97.7636 36.8252 97.7119 36.8149 97.7054 36.8149C97.3606 36.8063 97.5067 36.3993 97.5045 36.8806Z" fill="#FEFEFE" fill-opacity="0.478431"/>
</svg>
