<svg width="80" height="80" viewBox="0 0 80 80" fill="none" xmlns="http://www.w3.org/2000/svg">
<path d="M70.8434 17.3495H62.1688H60.6266C59.2978 17.3495 58.2169 16.2685 58.2169 14.9398C58.2169 9.89086 54.1091 5.7832 49.0603 5.7832H27.9519C22.903 5.7832 18.7953 9.89102 18.7953 14.9398C18.7953 16.2685 17.7144 17.3495 16.3856 17.3495H9.15656C4.10781 17.3495 0 21.4573 0 26.5062V65.0604C0 70.1093 4.10781 74.217 9.15656 74.217H53.4939H62.1686H70.8433C75.8922 74.217 79.9998 70.1091 79.9998 65.0604V26.5062C80 21.4573 75.8922 17.3495 70.8434 17.3495ZM21.6867 14.9398C21.6867 11.4852 24.4972 8.67477 27.9517 8.67477H49.0602C52.5148 8.67477 55.3252 11.4854 55.3252 14.9398C55.3252 15.8068 55.5345 16.6262 55.9052 17.3495H53.4937H52.4334V14.9398C52.4334 13.0798 50.92 11.5663 49.06 11.5663H27.9519C26.0919 11.5663 24.5784 13.0798 24.5784 14.9398V17.3495H21.1069C21.4773 16.6262 21.6867 15.807 21.6867 14.9398ZM49.5422 14.9398V17.3495H27.4698V14.9398C27.4698 14.6741 27.6859 14.4579 27.9517 14.4579H49.0602C49.3261 14.4579 49.5422 14.6741 49.5422 14.9398ZM68.4338 65.0604C68.4338 68.5149 65.6233 71.3254 62.1688 71.3254H60.1628C61.7038 69.686 62.6508 67.4823 62.6508 65.0604C62.6508 64.262 62.0036 63.6146 61.205 63.6146C60.4064 63.6146 59.7592 64.262 59.7592 65.0604C59.7592 68.5149 56.9487 71.3254 53.4942 71.3254H9.15656C5.70188 71.3254 2.89156 68.5148 2.89156 65.0604V26.5062C2.89156 23.0516 5.70203 20.2412 9.15656 20.2412H16.3855H26.0241H50.988H53.4941C56.9487 20.2412 59.7591 23.0518 59.7591 26.5062C59.7591 27.3046 60.4062 27.952 61.2048 27.952C62.0034 27.952 62.6506 27.3046 62.6506 26.5062C62.6506 24.0841 61.7037 21.8804 60.1627 20.2412H60.6264H62.1686C65.6233 20.2412 68.4336 23.0518 68.4336 26.5062V65.0604H68.4338ZM77.1084 65.0604C77.1084 68.5149 74.298 71.3254 70.8434 71.3254H68.8375C70.3784 69.686 71.3255 67.4823 71.3255 65.0604V26.5062C71.3255 24.0841 70.3786 21.8804 68.8375 20.2412H70.8434C74.2981 20.2412 77.1084 23.0518 77.1084 26.5062V65.0604Z" fill="#00509E"/>
<path d="M61.2048 28.9155C60.4062 28.9155 59.759 29.5629 59.759 30.3613V61.2048C59.759 62.0032 60.4062 62.6505 61.2048 62.6505C62.0034 62.6505 62.6506 62.0032 62.6506 61.2048V30.3613C62.6506 29.5629 62.0034 28.9155 61.2048 28.9155Z" fill="#00509E"/>
<path d="M38.0723 40.4819H36.6266V39.0361C36.6266 36.6444 34.6808 34.6987 32.2892 34.6987H30.3616C27.97 34.6987 26.0242 36.6444 26.0242 39.0361V40.4819H24.5784C22.1869 40.4819 20.2411 42.4275 20.2411 44.8192V46.7469C20.2411 49.1386 22.1869 51.0842 24.5784 51.0842H26.0242V52.53C26.0242 54.9217 27.97 56.8673 30.3616 56.8673H32.2892C34.6808 56.8673 36.6266 54.9217 36.6266 52.53C36.6266 51.7315 35.9794 51.0842 35.1808 51.0842C34.3822 51.0842 33.735 51.7315 33.735 52.53C33.735 53.3273 33.0866 53.9758 32.2892 53.9758H30.3616C29.5642 53.9758 28.9158 53.3273 28.9158 52.53V49.6384C28.9158 48.84 28.2686 48.1926 27.47 48.1926H24.5784C23.7811 48.1926 23.1327 47.5442 23.1327 46.7469V44.8192C23.1327 44.0219 23.7811 43.3734 24.5784 43.3734H27.47C28.2686 43.3734 28.9158 42.7261 28.9158 41.9276V39.0361C28.9158 38.2387 29.5642 37.5903 30.3616 37.5903H32.2892C33.0866 37.5903 33.735 38.2387 33.735 39.0361V41.9276C33.735 42.7261 34.3822 43.3734 35.1808 43.3734H38.0723C38.8697 43.3734 39.5181 44.0219 39.5181 44.8192V46.7469C39.5181 47.5442 38.8697 48.1926 38.0723 48.1926H35.1808C34.3822 48.1926 33.735 48.84 33.735 49.6384C33.735 50.4369 34.3822 51.0842 35.1808 51.0842H38.0723C40.4639 51.0842 42.4097 49.1386 42.4097 46.7469V44.8192C42.4097 42.4275 40.4637 40.4819 38.0723 40.4819Z" fill="#FFCB00"/>
</svg>
