<svg width="17" height="25" viewBox="0 0 17 25" fill="none" xmlns="http://www.w3.org/2000/svg">
<path fill-rule="evenodd" clip-rule="evenodd" d="M4.35723 9.16347C4.99093 8.87607 5.68167 8.87608 6.28316 9.10808C6.37926 9.04518 6.49541 9.01848 6.60941 9.03308C6.30301 6.87368 8.05926 6.97009 8.76746 8.81589C8.02706 8.83219 7.43647 9.11429 7.08457 9.33519C7.14707 9.43529 7.17119 9.55579 7.15129 9.67249C7.35649 9.87819 7.52927 10.1235 7.65637 10.4038C8.22487 11.6573 7.66935 13.1342 6.41606 13.7027C5.16256 14.2712 3.68565 13.7159 3.11715 12.4626C2.99995 12.2043 2.93078 11.9369 2.90528 11.6696C2.76658 11.6153 2.66233 11.4992 2.62043 11.3597C2.22223 11.4791 1.62098 11.7376 1.12098 12.2838C0.198883 10.535 1.28323 9.15049 2.70582 10.8034C2.78192 10.6905 2.90372 10.6132 3.04012 10.5943C3.25932 9.98089 3.71723 9.45387 4.35723 9.16347V9.16347ZM15.8192 16.5511C15.6301 16.5766 15.4962 16.7521 15.5217 16.9411L15.801 19.0157C15.8264 19.2047 16.0017 19.3387 16.1908 19.3132C16.3799 19.2878 16.5137 19.1124 16.4883 18.9232L16.2092 16.8486C16.1837 16.6595 16.0083 16.5257 15.8192 16.5511ZM2.22864 18.9135C2.43674 19.0856 3.00982 18.9579 4.09442 18.4585C7.32521 16.9705 8.86442 19.755 9.03972 22.8151C9.06502 23.2556 9.18802 23.4096 10.5247 23.1957C11.8615 22.9817 10.5778 20.6698 11.1508 19.3466C11.7238 18.0234 14.3298 18.9962 14.8508 19.0628C15.3719 19.1294 15.1264 17.5576 14.6446 16.7689C14.1628 15.9802 12.0658 16.6376 10.999 16.0646C8.98292 14.9817 11.6696 12.285 11.7385 9.45058L13.2353 10.762C13.8954 11.3399 14.4108 10.5655 13.8544 10.0785L11.4168 7.94499C11.3989 7.92449 11.3807 7.90858 11.3622 7.89718L6.34106 3.5025L7.60613 1.14121C7.83343 0.71701 6.37105 -0.00250617 6.17895 0.666093L5.36629 3.4964C5.31249 3.684 5.38768 3.92399 5.53848 4.01929L5.54168 4.02218L10.7189 8.55757C9.39584 10.9742 9.33885 12.391 7.09715 14.1334C6.40735 14.6696 1.04544 17.9331 2.22864 18.9135V18.9135ZM11.4932 24.1061C11.4678 23.917 11.2921 23.7831 11.1032 23.8086L9.05738 24.0839C8.86838 24.1093 8.73446 24.2848 8.75996 24.4739C8.78536 24.6629 8.96098 24.7968 9.14988 24.7714L11.1957 24.496C11.3847 24.4706 11.5186 24.2951 11.4932 24.1061Z" fill="#DB0B54"/>
</svg>
