<svg width="43" height="38" viewBox="0 0 43 38" fill="none" xmlns="http://www.w3.org/2000/svg">
<path fill-rule="evenodd" clip-rule="evenodd" d="M25.7487 0C34.9206 0 42.3557 7.4351 42.3557 16.607C42.3557 25.7789 34.9206 33.214 25.7487 33.214C16.5768 33.214 9.1416 25.7789 9.1416 16.607C9.1416 7.4351 16.5768 0 25.7487 0Z" fill="#00AEEF" fill-opacity="0.25098"/>
<path fill-rule="evenodd" clip-rule="evenodd" d="M16.5657 2.55291C16.5657 2.55291 13.1627 1.94422 11.392 3.49352C9.62128 5.04282 9.9948 6.88272 9.9948 6.88272C9.9948 6.88272 10.8249 6.14952 12.5402 6.81352C14.2555 7.47762 17.3265 7.06262 17.3265 7.06262C17.3265 7.06262 19.6645 6.46782 19.8304 6.56462C19.9964 6.66142 20.5498 6.38462 20.5636 6.17722C20.5774 5.96972 21.034 3.64571 16.5657 2.55291V2.55291Z" fill="#00AEEF"/>
<path fill-rule="evenodd" clip-rule="evenodd" d="M8.33594 20.4805C8.33594 20.4805 9.40105 19.8027 10.0789 20.0379C10.7567 20.273 14.9759 23.4271 14.9759 23.4271L15.1419 25.4744L13.7724 27.0929L12.1543 29.5552L8.58531 21.9607L8.33594 20.4805V20.4805Z" fill="#00AEEF"/>
<path fill-rule="evenodd" clip-rule="evenodd" d="M5.02443 25.3799L1.35244 30.6066C1.35244 30.6066 -0.0566712 32.4623 0.487129 33.6522C0.751829 34.2318 2.05504 35.3097 3.26514 36.0358C4.53954 36.8003 5.71725 37.1991 5.71725 37.1991C5.71725 37.1991 6.37913 37.2287 7.51443 36.0592C8.64983 34.8897 9.17443 33.8183 9.17443 33.8183L7.26443 29.5657L5.02443 25.3799V25.3799Z" fill="#00AEEF"/>
<path fill-rule="evenodd" clip-rule="evenodd" d="M17.92 21.2808C17.92 21.2808 15.513 23.1551 15.4093 23.5218C15.3056 23.8884 15.4024 25.0504 15.4024 25.0504L18.7985 30.4868C18.7985 30.4868 22.2707 31.0265 22.9623 31.4691C23.654 31.9117 24.2836 31.9138 24.3477 33.7124C24.4118 35.511 23.9723 36.7533 23.9723 36.7533C23.9723 36.7533 24.8024 37.5695 26.0751 36.7395C27.3477 35.9095 29.5334 34.2772 29.5334 34.2772C29.5334 34.2772 30.5598 33.5283 29.7547 31.5382C28.9496 29.5481 25.0514 24.5109 25.0514 24.5109C25.0514 24.5109 23.3842 24.2753 22.921 23.0722C22.4578 21.8691 22.921 21.1909 22.921 21.1909C22.921 21.1909 21.832 19.9141 20.2927 20.1395C18.7534 20.365 17.92 21.2808 17.92 21.2808V21.2808Z" fill="#00AEEF"/>
<path fill-rule="evenodd" clip-rule="evenodd" d="M1.36652 30.9384C1.58112 30.9191 1.7399 30.7067 1.7259 30.4966C1.7026 30.1486 1.16923 30.0879 1.02383 30.3329C0.856828 30.6147 1.03412 30.9683 1.36652 30.9384V30.9384ZM2.07652 14.4127C1.98262 14.7856 1.5866 15.196 1.3868 15.5468C0.997897 16.2296 0.923202 17.0075 0.961602 17.7799C0.988902 18.3277 1.36111 19.0832 1.63371 19.5516C2.40831 20.8826 3.29501 21.2631 3.58461 21.57C3.78021 22.0063 4.83541 24.5704 4.81141 24.7022C4.57221 25.251 3.83472 26.4762 3.52082 26.9852C3.21192 27.4861 2.7896 28.0896 2.5025 28.5731C2.3261 28.8701 2.7717 29.1262 3.0018 28.8199C3.2643 28.4706 3.67681 27.7621 3.79371 27.5828C4.01961 27.2283 4.24132 26.8708 4.47012 26.5183C4.54772 26.3988 4.6266 26.2774 4.7109 26.1625C4.8051 26.0344 4.9382 25.8784 5.1218 25.9784C5.226 26.035 5.32462 26.2952 5.37332 26.3988C5.50232 26.6727 5.62981 26.9472 5.75731 27.2217C6.14241 28.0508 6.52521 28.8809 6.90731 29.7114C7.27221 30.5047 7.6365 31.2983 7.9984 32.0931C8.1831 32.4987 8.39822 32.933 8.56012 33.3464C8.78912 33.9312 8.22523 34.6414 7.89473 35.0825C7.40303 35.7385 6.8933 36.4669 6.0541 36.691C4.8996 36.9993 1.1241 34.455 0.835196 33.3562C0.817696 33.2895 0.804196 33.2219 0.792696 33.1539C0.752796 32.9181 0.762821 32.4603 0.493321 32.371C0.391021 32.337 0.247722 32.3083 0.152422 32.3769C-0.104078 32.5611 0.0241269 33.2032 0.0997269 33.446C0.289527 34.0554 0.7007 34.6289 1.2275 34.9912C2.2601 35.7011 4.08083 37.193 5.27473 37.434C6.32373 37.6457 7.12652 37.1691 7.78832 36.395C8.06292 36.0738 8.29062 35.7293 8.53012 35.3828C8.67462 35.1738 8.91152 34.8035 9.18422 34.7681L9.25641 34.7588L9.3209 34.7922C9.4958 34.8827 9.66533 35.1354 9.77563 35.2958C9.95443 35.5557 10.1251 35.8184 10.3141 36.0716C10.7377 36.6393 11.2706 37.2014 11.9582 37.4337C12.1188 37.4855 12.6772 37.4875 12.8587 37.4918C13.4287 37.505 14.0002 37.5044 14.5704 37.502C15.4308 37.4982 16.2925 37.4788 17.1525 37.4788C18.0018 37.4788 18.8561 37.516 19.7057 37.5321C20.2203 37.5419 20.7359 37.5479 21.2503 37.5377C21.6346 37.5301 22.0479 37.5184 22.4279 37.4597C22.7795 37.4053 23.1707 37.1408 23.5443 37.2044C23.8007 37.248 24.0459 37.322 24.2979 37.383C25.1894 37.5985 25.7731 37.3476 26.5182 36.8332C27.2599 36.3212 28.0461 35.8684 28.7758 35.3423C29.3359 34.9385 29.9336 34.4365 30.2255 33.7948C30.643 32.8766 30.3195 31.8865 29.8798 31.0423C29.55 30.4091 29.1337 29.8016 28.7181 29.222C27.5869 27.6441 26.3186 25.6467 25.3371 24.3638C26.3404 23.9367 26.8694 22.8383 27.722 21.3859C28.4612 20.127 29.1855 18.8424 29.3876 18.0927C29.6627 17.0718 29.4327 16.2796 28.7375 15.2129C28.1697 14.342 25.6175 12.6769 24.6544 12.1117C23.9162 11.6785 23.1822 11.2098 22.458 10.7532C21.9703 10.4456 21.4829 10.1359 21.0019 9.81789C20.8318 9.70549 20.3296 9.39109 20.2105 9.23969L20.1379 9.14759L20.1689 9.03449C20.3365 8.42339 20.7687 7.94819 20.8762 7.29719C20.978 6.68069 21.0062 5.65498 20.8034 5.06528C20.6822 4.71278 20.5051 4.38639 20.2775 4.09119C19.169 2.65319 17.0611 2.14798 15.3315 2.14358C14.1788 2.14068 12.9469 2.34899 11.8912 2.82249C11.0339 3.20699 10.1856 3.82199 9.82301 4.72079C9.57541 5.33469 9.57632 5.52849 9.57652 6.19869C9.57672 6.80619 9.61629 7.54389 9.84359 8.11659C9.90149 8.26249 9.97123 8.39229 10.0522 8.52619C10.122 8.64149 10.1946 8.75459 10.2402 8.88219C10.2697 8.96439 10.2865 9.04819 10.2907 9.13539L10.2973 9.26999L5.07152 12.6065C4.43802 11.6144 4.1454 10.6788 3.7252 9.59799C3.3791 8.70829 2.8796 7.87229 1.7843 8.28219C1.4147 8.42049 1.08661 8.63818 0.92961 9.01358C0.68171 9.60628 0.92201 10.4692 1.22711 11.3406C1.40461 11.8476 2.19742 13.9325 2.07652 14.4127V14.4127ZM15.3707 7.00818C14.6856 7.05918 13.9806 6.86679 13.337 6.64909C12.7944 6.46539 12.2554 6.24119 11.7047 6.08669C11.3391 5.98419 10.8596 5.88279 10.4919 6.02389L9.9884 6.21699L10.1938 5.71839C10.501 4.97279 10.9924 4.35389 11.6458 3.88229C12.5505 3.22949 13.6751 2.92188 14.7783 2.85818C15.9284 2.79168 17.1848 2.98399 18.2403 3.45439C19.064 3.82159 19.9715 4.46519 20.1676 5.40479C20.1979 5.55009 20.2098 5.69819 20.2029 5.84659L20.1893 6.14019C18.0581 5.52839 17.709 6.83398 15.3707 7.00818V7.00818ZM13.0588 7.47349C13.2273 7.76649 13.0937 8.77879 13.0668 9.14869L13.0538 9.32679L12.8784 9.36009C12.4056 9.44989 11.9678 9.05239 11.5842 8.84079L11.464 8.77449L11.4656 7.07648L11.6697 7.05179C11.9869 7.01319 12.867 7.18529 13.0506 7.46039L13.0549 7.46679L13.0588 7.47349V7.47349ZM17.426 7.36559C17.7419 7.11339 18.4805 6.92809 18.7966 6.96749L19.0024 6.99318L18.9857 8.61559L18.9727 8.65199C18.9051 8.84289 18.2507 9.24739 18.0535 9.34879C17.9009 9.42709 17.7286 9.46219 17.5684 9.38269C17.1675 9.18379 17.1955 8.32809 17.1761 7.94299C17.1696 7.81069 17.1638 7.62349 17.2311 7.50459C17.277 7.42369 17.3469 7.37739 17.426 7.36559V7.36559ZM13.9062 9.74659C13.6445 9.50269 13.8488 8.55649 13.8684 8.20749C13.8999 7.65189 14.8238 7.60389 15.2251 7.61009C15.5691 7.61539 16.5063 7.67319 16.5618 8.13639C16.6026 8.47799 16.6389 8.86069 16.6067 9.20449C16.5919 9.36299 16.5551 9.47699 16.5259 9.62579C16.5212 9.64959 16.5185 9.67279 16.5183 9.69709L16.5163 9.94009L13.9679 9.80419L13.9062 9.74659V9.74659ZM4.18082 13.0843C4.01692 13.2489 3.21233 13.8519 3.00723 13.851C2.73433 13.8498 2.5839 13.3206 2.5098 13.1186C2.3539 12.6941 2.21511 12.2598 2.07961 11.8282C1.88441 11.2059 1.6744 10.5532 1.5109 9.92239C1.2995 9.10709 2.0972 8.55139 2.7093 9.08679C2.932 9.28159 4.21312 12.5181 4.24762 12.8994L4.25742 13.0074L4.18082 13.0843ZM12.4726 10.0918C12.9301 10.2408 13.0373 10.2518 13.1092 10.7843C13.146 11.0574 13.1946 11.3305 13.2346 11.6035C13.2736 11.8688 13.3383 12.256 13.3181 12.5197L13.2823 12.9865L12.9322 12.6758C12.6331 12.4103 12.3277 12.0523 12.0817 11.7377C11.8315 11.4176 11.1923 10.596 11.4862 10.1749C11.6992 9.87019 12.1838 9.99779 12.4726 10.0918V10.0918ZM17.193 12.2971C17.193 11.8481 17.1807 10.9022 17.3406 10.5102C17.4867 10.1523 18.272 9.92949 18.6249 9.82639L18.8825 9.75108L18.92 10.0168C18.9824 10.4572 18.6876 11.1219 18.4564 11.4922C18.2261 11.8611 17.9353 12.4069 17.4828 12.5222L17.1932 12.596L17.193 12.2971V12.2971ZM16.5271 10.8028C16.5865 11.4607 16.385 12.0645 16.2529 12.6972C16.1116 13.3748 16.0674 14.076 15.1924 14.1229C14.0995 14.1813 13.828 11.5753 13.9069 10.8091L13.9282 10.6014L16.508 10.5905L16.5271 10.8028ZM3.0502 20.2817C2.7671 20.0486 2.3137 19.351 2.2109 19.1719C1.7767 18.4155 1.50722 17.5234 1.71852 16.6531C2.08732 15.1346 3.04139 14.7317 4.23359 13.9608C4.68079 13.6716 5.12272 13.3738 5.56832 13.082C6.11582 12.7234 6.69941 12.3366 7.28281 12.0416C7.46501 11.9495 7.6633 11.813 7.8357 11.7019C8.1333 11.5099 8.42913 11.3151 8.72633 11.1226C9.06883 10.9007 9.41451 10.6771 9.76711 10.4718C9.94811 10.3664 10.346 10.1013 10.5557 10.235L10.6377 10.2872L10.6581 10.3821C10.9995 11.9725 13.4386 14.8728 15.1813 14.8733C16.4662 14.8735 17.7484 13.5605 18.4621 12.6098C18.9906 11.9059 19.4729 11.0734 19.7676 10.2419L19.8663 9.96369L25.3858 13.5652C28.9116 15.8656 29.5702 16.8454 27.4297 20.4542C27.166 20.8837 26.9132 21.3202 26.6542 21.7526C26.3585 22.2458 26.0081 22.8158 25.663 23.2757C25.2307 23.8521 24.4662 24.0001 23.8231 23.6629C23.5724 23.5313 23.3749 23.2611 23.2524 23.0118C23.0704 22.6413 23.1244 22.1882 23.3047 21.7073C23.8067 20.3698 25.0532 19.297 25.4396 18.1623C25.8206 17.0429 24.8722 16.4992 23.8924 15.8726C22.8663 15.2165 21.7451 14.4133 20.8521 15.7493C20.5434 16.2112 19.7976 19.1094 19.7642 19.7128L19.7551 19.8758L19.5986 19.9226C18.6152 20.2161 15.2945 22.9718 15.2809 22.9742L15.2489 22.9799L15.2166 22.9765C15.2122 22.9761 11.3489 20.2352 11.0355 20.0188C10.6284 19.7376 10.4445 18.6652 10.2988 18.1924C10.1577 17.735 10.0787 17.2735 9.97621 16.8079C9.89871 16.4559 9.8 16.0697 9.5959 15.7676C9.0855 15.0124 8.17211 14.9886 7.41031 15.362C6.79071 15.6655 5.01373 16.6657 4.83703 17.3508C4.70293 17.8707 5.0335 18.2185 5.2627 18.6393C6.0934 20.1652 3.7191 21.3662 3.0502 20.2817V20.2817ZM9.76102 19.5724L8.08402 20.0584C8.05222 19.9528 6.93202 17.5243 6.72262 16.7701C6.68872 16.6478 8.11501 15.7646 8.55141 15.8548C8.98291 15.9439 9.20411 16.6397 9.31211 17.0313C9.42681 17.4476 9.92943 19.1526 9.80313 19.4673L9.76102 19.5724ZM22.8345 20.6479C22.5052 20.4654 22.258 20.1812 21.9275 20.0045C21.8009 19.9367 21.6426 19.8891 21.5046 19.85C21.3141 19.7958 20.8697 19.7079 20.7212 19.6035L20.6781 19.5732L20.6523 19.5273C20.4985 19.2534 20.7783 18.3232 20.8596 18.0252C20.9695 17.6227 21.1113 17.2027 21.2041 16.7998C21.2969 16.3975 21.48 15.8796 21.9377 15.7793C22.4307 15.6712 23.0133 16.1494 23.3949 16.4145C23.7779 16.6807 24.4328 16.9555 24.6302 17.3864C24.8103 17.7795 24.6217 18.2011 24.4088 18.5379C23.9898 19.2008 23.6445 20.0233 23.1189 20.6011L22.9953 20.7369L22.8345 20.6479V20.6479ZM13.446 22.4998C13.7337 22.725 14.0711 22.9252 14.3124 23.2004C14.6731 23.6115 14.7366 24.1109 14.7062 24.6395C14.6778 25.1327 13.9124 26.3093 13.6336 26.7353C13.3776 27.1264 13.1108 27.5132 12.8333 27.8897C12.6749 28.1047 12.4641 28.4018 12.271 28.5842L12.0427 28.8C11.2402 27.1814 10.5435 25.6201 9.78102 23.9847C9.48772 23.3557 9.1921 22.7205 8.93 22.0779C8.8321 21.8378 8.53391 21.1707 8.63641 20.8877C8.83151 20.3442 9.94641 20.3574 10.3896 20.5339C11.1852 20.851 12.7821 21.9799 13.446 22.4998V22.4998ZM5.73191 17.7475C5.69191 17.625 5.7481 17.5455 5.9052 17.4253L6.01832 17.3456C6.32522 18.2606 6.73572 19.0023 7.12492 19.8864C7.35032 20.3982 7.58142 20.9075 7.81082 21.4173C9.19802 24.4993 10.3096 27.1095 11.9607 29.9773C12.5912 31.0723 12.7167 30.8955 13.9611 30.9024L15.8212 30.9126C17.786 30.9234 21.0882 31.0309 22.8564 31.8336C24.2144 32.4502 24.102 33.6784 23.8854 34.9395C23.6389 36.3749 22.8494 36.8282 21.4416 36.8282L13.56 36.8273C12.9885 36.8273 12.1463 36.935 11.6676 36.5936C10.3937 35.6848 8.33581 31.3488 7.67641 29.8044C7.24401 28.7919 6.70692 27.8436 6.33352 26.802C5.74892 25.1707 5.09861 23.5635 4.50461 21.9356C4.43091 21.7626 4.37311 21.5471 4.47441 21.3787C4.65571 21.0773 5.54673 21.0041 6.00793 19.968C6.36383 19.1684 5.98031 18.5071 5.73191 17.7475V17.7475ZM19.4966 20.755C20.4367 20.1582 21.4084 20.3374 22.1698 21.1183C22.3119 21.2641 22.4117 21.4245 22.4454 21.6275C22.4722 21.7885 22.4529 21.9499 22.4405 22.1112C22.2641 24.4244 24.6127 24.6177 24.6709 24.6456C25.5227 25.7804 29.609 31.5559 29.6508 32.5489C29.6721 33.0504 29.6328 33.5611 29.295 33.9596C29.0692 34.2262 28.7283 34.4257 28.4494 34.6363C27.8946 35.0549 27.3019 35.4292 26.7312 35.8264C26.4014 36.056 26.1077 36.2807 25.744 36.4635C25.336 36.6688 24.832 36.8254 24.3909 36.6274L24.309 36.5906L24.2731 36.5084C24.1546 36.2368 24.5871 34.9492 24.6535 34.5762C24.7884 33.8181 24.6518 33.2552 24.5462 32.5233C23.97 30.8351 21.3095 30.6122 19.7973 30.4685C19.2116 30.4127 19.1705 30.0646 18.8864 29.676C18.4777 29.117 18.0513 28.5524 17.6814 27.9676C17.5218 27.7154 17.3298 27.4706 17.1507 27.2314C16.9187 26.9214 16.6892 26.6095 16.4802 26.2834C16.0537 25.618 15.6061 24.7376 15.8093 23.9257C16.0724 22.8744 18.5167 21.3773 19.4966 20.755V20.755ZM12.8578 30.1165C12.8004 30.0947 12.7492 30.0601 12.7082 30.012C12.426 29.6807 12.8915 28.967 13.0756 28.6758C13.2743 28.3618 13.4886 28.0738 13.7042 27.7732C13.9236 27.4675 14.1843 27.1778 14.3815 26.8591C14.5653 26.5622 14.948 25.7395 15.3999 25.9786C15.6085 26.089 16.6703 27.691 16.8457 27.9502C17.143 28.3893 17.438 28.8305 17.7276 29.2749C17.8085 29.3987 18.1592 29.895 18.1615 30.0374L18.1645 30.2343L17.9709 30.2696C17.6915 30.3207 17.3125 30.3227 17.0264 30.3319C16.5108 30.3485 15.9938 30.3543 15.478 30.3523C14.9059 30.3501 14.3252 30.3415 13.7547 30.3006C13.5606 30.2868 13.0802 30.2798 12.8578 30.1165V30.1165Z" fill="#373435"/>
</svg>
