<svg width="165" height="93" viewBox="0 0 165 93" fill="none" xmlns="http://www.w3.org/2000/svg">
<path d="M126.819 34.6382C126.819 34.6382 132.42 2.26077 103.713 0.341372C93.4586 0.314972 89.3359 8.50776 87.6862 11.9901C86.0366 15.4723 75.9669 23.4448 68.1954 15.0163C60.4237 6.58787 40.7388 5.30687 34.56 15.5453C28.3811 25.7836 35.5495 37.0701 34.92 42.6058C34.2905 48.1414 28.4997 64.7335 38.3201 73.9876C48.1404 83.2417 61.0911 71.38 68.062 72.2182C72.8246 72.7908 80.8041 86.527 97.8526 86.7692C116.677 87.0366 137.806 74.8906 133.013 53.9643C132.015 43.2972 125.565 43.8639 126.819 34.6382Z" fill="#DCF0FA"/>
<path d="M23.3841 14.4776C23.3841 20.9214 18.1603 26.1453 11.7165 26.1453C5.27262 26.1453 0.0488281 20.9214 0.0488281 14.4776C0.0488281 8.03385 5.27262 2.81006 11.7165 2.81006C18.1603 2.81006 23.3841 8.03385 23.3841 14.4776Z" fill="#DCF0FA"/>
<path d="M22.6335 79.9692C22.6335 84.1144 19.2731 87.4748 15.1278 87.4748C10.9825 87.4748 7.62207 84.1144 7.62207 79.9692C7.62207 75.8238 10.9825 72.4634 15.1278 72.4634C19.2731 72.4634 22.6335 75.8238 22.6335 79.9692Z" fill="#DCF0FA"/>
<path d="M164.232 83.6487C164.232 88.7689 160.081 92.9197 154.961 92.9197C149.841 92.9197 145.69 88.7689 145.69 83.6487C145.69 78.5286 149.841 74.3779 154.961 74.3779C160.081 74.3779 164.232 78.5286 164.232 83.6487Z" fill="#DCF0FA"/>
<path d="M156.84 16.1155C156.84 18.917 154.568 21.1881 151.767 21.1881C148.965 21.1881 146.694 18.917 146.694 16.1155C146.694 13.3141 148.965 11.043 151.767 11.043C154.568 11.043 156.84 13.3141 156.84 16.1155Z" fill="#DCF0FA"/>
<path d="M55.1888 43.4035H44.4691V42.3315C44.4691 40.5076 44.6759 39.0266 45.0898 37.8886C45.5033 36.7508 46.1195 35.712 46.9375 34.7713C47.7555 33.8311 49.5937 32.176 52.4525 29.8063C53.9759 28.5651 54.7375 27.4275 54.7375 26.393C54.7375 25.3589 54.4317 24.555 53.8207 23.9811C53.2093 23.4076 52.2832 23.1207 51.042 23.1207C49.7065 23.1207 48.6019 23.5628 47.7275 24.4466C46.8528 25.3308 46.2932 26.8726 46.049 29.073L35.1035 27.7189C35.4795 23.6945 36.9416 20.4549 39.4902 18.0006C42.0382 15.5465 45.9453 14.3193 51.2112 14.3193C55.311 14.3193 58.6209 15.1753 61.1411 16.8862C64.5638 19.1995 66.2752 22.2841 66.2752 26.1391C66.2752 27.7379 65.8331 29.2801 64.9495 30.7655C64.0653 32.2515 62.2598 34.0662 59.5332 36.2099C57.6334 37.7149 56.4345 38.9231 55.9364 39.835C55.4379 40.7474 55.1888 41.9366 55.1888 43.4035ZM49.166 46.2527H50.5202C53.3168 46.2527 55.5839 48.5197 55.5839 51.3162C55.5839 54.1128 53.3168 56.3799 50.5202 56.3799H49.166C46.3694 56.3799 44.1024 54.1128 44.1024 51.3162C44.1024 48.5197 46.3694 46.2527 49.166 46.2527Z" fill="#CC0256"/>
<path d="M51.0395 23.1216C49.7038 23.1216 48.5991 23.5638 47.7246 24.4478C46.8498 25.332 46.2902 26.874 46.0459 29.0747" stroke="#00376A" stroke-width="1.0583" stroke-miterlimit="10" stroke-linecap="round" stroke-linejoin="round"/>
<path d="M46.0463 29.0749L42.4907 28.635L38.8546 28.1852L35.0996 27.7207" stroke="#00376A" stroke-width="1.0583" stroke-miterlimit="10" stroke-linecap="round" stroke-linejoin="round"/>
<path d="M35.0996 27.7205C35.4756 23.6956 36.9379 20.4556 39.4868 18.001" stroke="#00376A" stroke-width="1.0583" stroke-miterlimit="10" stroke-linecap="round" stroke-linejoin="round"/>
<path d="M55.9352 39.8379C55.4366 40.7504 55.1875 41.9398 55.1875 43.4068" stroke="#00376A" stroke-width="1.0583" stroke-miterlimit="10" stroke-linecap="round" stroke-linejoin="round"/>
<path d="M55.1876 43.4066H44.4668V42.3345" stroke="#00376A" stroke-width="1.0583" stroke-miterlimit="10" stroke-linecap="round" stroke-linejoin="round"/>
<path d="M44.4668 42.3348C44.4668 40.5107 44.6735 39.0295 45.0876 37.8913C45.5011 36.7535 46.1173 35.7145 46.9354 34.7738C47.7536 33.8334 49.5919 32.1781 52.451 29.8082C53.9746 28.5668 54.7364 27.4291 54.7364 26.3945" stroke="#00376A" stroke-width="1.0583" stroke-miterlimit="10" stroke-linecap="round" stroke-linejoin="round"/>
<path d="M42.7734 15.8248C45.0297 14.8212 47.8417 14.3193 51.2093 14.3193C55.3096 14.3193 58.6199 15.1753 61.1405 16.8865C64.5634 19.2 66.275 22.285 66.275 26.1404C66.275 27.7394 65.8329 29.2818 64.9492 30.7674C64.0648 32.2535 62.2592 34.0684 59.5322 36.2124" stroke="#00376A" stroke-width="1.0583" stroke-miterlimit="10" stroke-linecap="round" stroke-linejoin="round"/>
<path d="M49.1637 56.3845C46.3669 56.3845 44.0996 54.1172 44.0996 51.3203" stroke="#00376A" stroke-width="1.0583" stroke-miterlimit="10" stroke-linecap="round" stroke-linejoin="round"/>
<path d="M44.0996 51.3206C44.0996 50.1288 44.5113 49.0331 45.2004 48.168" stroke="#00376A" stroke-width="1.0583" stroke-miterlimit="10" stroke-linecap="round" stroke-linejoin="round"/>
<path d="M49.1641 46.2563H50.5186" stroke="#00376A" stroke-width="1.0583" stroke-miterlimit="10" stroke-linecap="round" stroke-linejoin="round"/>
<path d="M50.5186 46.2563C53.3154 46.2563 55.5827 48.5236 55.5827 51.3205" stroke="#00376A" stroke-width="1.0583" stroke-miterlimit="10" stroke-linecap="round" stroke-linejoin="round"/>
<path d="M55.5827 51.3203C55.5827 54.1172 53.3154 56.3845 50.5186 56.3845" stroke="#00376A" stroke-width="1.0583" stroke-miterlimit="10" stroke-linecap="round" stroke-linejoin="round"/>
<path d="M63.255 66.3134L57.865 62.713L58.225 62.174C58.8376 61.2569 59.4389 60.5816 60.0293 60.1484C60.6193 59.7152 61.278 59.3998 62.0053 59.2016C62.7324 59.0036 64.2126 58.7886 66.4459 58.5573C67.6289 58.4448 68.394 58.1286 68.7414 57.6084C69.0887 57.0884 69.205 56.5815 69.0905 56.0877C68.9758 55.594 68.6064 55.1387 67.9823 54.7218C67.3108 54.2733 66.6068 54.1245 65.8702 54.2753C65.1335 54.4261 64.3343 55.0134 63.4725 56.0379L58.4236 51.6808C59.9643 49.7834 61.7875 48.6456 63.8934 48.2674C65.9989 47.8892 68.3756 48.5844 71.0234 50.353C73.0849 51.73 74.4617 53.2721 75.1543 54.9789C76.0984 57.2916 75.923 59.4175 74.6282 61.3559C74.0912 62.1598 73.3509 62.7868 72.4077 63.2369C71.464 63.6871 69.9467 63.9932 67.8557 64.1554C66.395 64.274 65.3863 64.4789 64.8295 64.7702C64.2724 65.0615 63.7477 65.5758 63.255 66.3134ZM59.2698 65.7233L59.9507 66.1781C61.3569 67.1173 61.7354 69.0187 60.7961 70.4249C59.8568 71.8311 57.9555 72.2096 56.5493 71.2704L55.8684 70.8155C54.4621 69.8763 54.0837 67.9749 55.023 66.5687C55.9622 65.1625 57.8636 64.784 59.2698 65.7233Z" fill="#00AEEF"/>
<path d="M67.981 54.7217C67.3094 54.2731 66.6054 54.1244 65.8688 54.2751C65.132 54.426 64.3326 55.0134 63.4707 56.0379" stroke="#00376A" stroke-width="1.0583" stroke-miterlimit="10" stroke-linecap="round" stroke-linejoin="round"/>
<path d="M63.4704 56.0377L61.8302 54.6223L60.153 53.1749L58.4209 51.6802" stroke="#00376A" stroke-width="1.0583" stroke-miterlimit="10" stroke-linecap="round" stroke-linejoin="round"/>
<path d="M58.4209 51.6804C59.9618 49.7828 61.7853 48.6448 63.8913 48.2666" stroke="#00376A" stroke-width="1.0583" stroke-miterlimit="10" stroke-linecap="round" stroke-linejoin="round"/>
<path d="M64.8275 64.771C64.2704 65.0623 63.7457 65.5768 63.2529 66.3144" stroke="#00376A" stroke-width="1.0583" stroke-miterlimit="10" stroke-linecap="round" stroke-linejoin="round"/>
<path d="M63.253 66.3146L57.8623 62.7139L58.2224 62.1748" stroke="#00376A" stroke-width="1.0583" stroke-miterlimit="10" stroke-linecap="round" stroke-linejoin="round"/>
<path d="M58.2227 62.175C58.8353 61.2578 59.4367 60.5824 60.0272 60.1492C60.6172 59.7159 61.2761 59.4005 62.0034 59.2022C62.7307 59.0042 64.211 58.7892 66.4446 58.5578C67.6277 58.4454 68.3928 58.1291 68.7403 57.6089" stroke="#00376A" stroke-width="1.0583" stroke-miterlimit="10" stroke-linecap="round" stroke-linejoin="round"/>
<path d="M66.2744 48.2759C67.7461 48.5291 69.3285 49.2212 71.0219 50.3523C73.0837 51.7294 74.4606 53.2717 75.1533 54.9787C76.0975 57.2916 75.9221 59.4177 74.6272 61.3563C74.0901 62.1604 73.3497 62.7874 72.4064 63.2376C71.4626 63.6879 69.9451 63.994 67.8538 64.1561" stroke="#00376A" stroke-width="1.0583" stroke-miterlimit="10" stroke-linecap="round" stroke-linejoin="round"/>
<path d="M55.8656 70.8172C54.4593 69.8778 54.0807 67.9762 55.02 66.5698" stroke="#00376A" stroke-width="1.0583" stroke-miterlimit="10" stroke-linecap="round" stroke-linejoin="round"/>
<path d="M55.0195 66.57C55.4199 65.9707 55.9949 65.5581 56.6319 65.3545" stroke="#00376A" stroke-width="1.0583" stroke-miterlimit="10" stroke-linecap="round" stroke-linejoin="round"/>
<path d="M59.2676 65.7246L59.9486 66.1795" stroke="#00376A" stroke-width="1.0583" stroke-miterlimit="10" stroke-linecap="round" stroke-linejoin="round"/>
<path d="M59.9482 66.1792C61.3546 67.1186 61.7331 69.0201 60.7938 70.4265" stroke="#00376A" stroke-width="1.0583" stroke-miterlimit="10" stroke-linecap="round" stroke-linejoin="round"/>
<path d="M60.7943 70.4268C59.8549 71.8332 57.9533 72.2118 56.5469 71.2723" stroke="#00376A" stroke-width="1.0583" stroke-miterlimit="10" stroke-linecap="round" stroke-linejoin="round"/>
<path d="M40.6923 63.4066L35.2184 66.8784L34.8712 66.331C34.2805 65.3997 33.9064 64.5763 33.7493 63.8612C33.5919 63.1463 33.5701 62.4163 33.6832 61.671C33.7964 60.926 34.199 59.4855 34.8914 57.3495C35.2673 56.2223 35.2878 55.3948 34.9528 54.8665C34.6178 54.3384 34.2013 54.027 33.7034 53.9318C33.2055 53.837 32.6397 53.9904 32.0059 54.3924C31.3239 54.8249 30.903 55.4084 30.7427 56.1429C30.5824 56.8777 30.7961 57.8462 31.384 59.0489L25.3563 61.9024C24.2448 59.7256 23.9422 57.5978 24.4488 55.5191C24.9551 53.4407 26.5528 51.5487 29.2418 49.8432C31.3353 48.5154 33.3027 47.8807 35.1438 47.9382C37.6407 48.0109 39.5137 49.0317 40.7622 51.0002C41.2799 51.8166 41.5537 52.7473 41.5835 53.7919C41.6133 54.8372 41.279 56.3486 40.581 58.3263C40.0982 59.7101 39.8774 60.7153 39.9183 61.3423C39.9593 61.9696 40.2172 62.6576 40.6923 63.4066ZM38.5396 66.8122L39.2311 66.3735C40.6591 65.4678 42.5511 65.8913 43.4567 67.3193C44.3625 68.7473 43.939 70.6393 42.511 71.5449L41.8194 71.9835C40.3914 72.8892 38.4995 72.4658 37.5938 71.0378C36.6881 69.6097 37.1115 67.7178 38.5396 66.8122Z" fill="#CCE290"/>
<path d="M32.0062 54.3936C31.3241 54.8262 30.9032 55.4098 30.743 56.1444C30.5826 56.8793 30.7962 57.8479 31.3842 59.0506" stroke="#00376A" stroke-width="1.0583" stroke-miterlimit="10" stroke-linecap="round" stroke-linejoin="round"/>
<path d="M31.3839 59.0508L29.4258 59.9777L27.4234 60.9257L25.3555 61.9046" stroke="#00376A" stroke-width="1.0583" stroke-miterlimit="10" stroke-linecap="round" stroke-linejoin="round"/>
<path d="M25.3553 61.9045C24.2438 59.7275 23.9412 57.5994 24.4478 55.5205" stroke="#00376A" stroke-width="1.0583" stroke-miterlimit="10" stroke-linecap="round" stroke-linejoin="round"/>
<path d="M39.9189 61.3442C39.9598 61.9717 40.2178 62.6597 40.6929 63.4088" stroke="#00376A" stroke-width="1.0583" stroke-miterlimit="10" stroke-linecap="round" stroke-linejoin="round"/>
<path d="M40.6928 63.4087L35.2183 66.8808L34.8711 66.3333" stroke="#00376A" stroke-width="1.0583" stroke-miterlimit="10" stroke-linecap="round" stroke-linejoin="round"/>
<path d="M34.8715 66.3334C34.2808 65.402 33.9065 64.5787 33.7494 63.8634C33.592 63.1485 33.5703 62.4183 33.6834 61.673C33.7966 60.9279 34.1992 59.4872 34.8916 57.3511C35.2676 56.2237 35.2881 55.396 34.953 54.8677" stroke="#00376A" stroke-width="1.0583" stroke-miterlimit="10" stroke-linecap="round" stroke-linejoin="round"/>
<path d="M25.4209 53.3448C26.2481 52.1016 27.5215 50.9347 29.2411 49.844C31.3349 48.5161 33.3025 47.8811 35.1438 47.9386C37.641 48.0113 39.5142 49.0323 40.7628 51.0011C41.2806 51.8176 41.5544 52.7484 41.5842 53.7932C41.614 54.8384 41.2797 56.35 40.5816 58.328" stroke="#00376A" stroke-width="1.0583" stroke-miterlimit="10" stroke-linecap="round" stroke-linejoin="round"/>
<path d="M41.8208 71.9869C40.3926 72.8927 38.5005 72.4692 37.5947 71.041" stroke="#00376A" stroke-width="1.0583" stroke-miterlimit="10" stroke-linecap="round" stroke-linejoin="round"/>
<path d="M37.5939 71.041C37.2079 70.4324 37.0633 69.7395 37.1349 69.0747" stroke="#00376A" stroke-width="1.0583" stroke-miterlimit="10" stroke-linecap="round" stroke-linejoin="round"/>
<path d="M38.54 66.8147L39.2316 66.376" stroke="#451D99" stroke-width="1.0583" stroke-miterlimit="10" stroke-linecap="round" stroke-linejoin="round"/>
<path d="M39.2314 66.376C40.6596 65.4703 42.5517 65.8937 43.4574 67.3219" stroke="#00376A" stroke-width="1.0583" stroke-miterlimit="10" stroke-linecap="round" stroke-linejoin="round"/>
<path d="M43.4575 67.3223C44.3634 68.7506 43.9399 70.6426 42.5117 71.5484" stroke="#00376A" stroke-width="1.0583" stroke-miterlimit="10" stroke-linecap="round" stroke-linejoin="round"/>
<path d="M29.8916 34.9004C29.8916 35.6207 29.3077 36.2046 28.5875 36.2046C27.8671 36.2046 27.2832 35.6207 27.2832 34.9004C27.2832 34.1801 27.8671 33.5962 28.5875 33.5962C29.3077 33.5962 29.8916 34.1801 29.8916 34.9004Z" stroke="#00376A" stroke-width="0.759999" stroke-miterlimit="10" stroke-linecap="round" stroke-linejoin="round"/>
<path d="M87.6553 6.2041C87.6553 6.9244 87.0714 7.5082 86.3511 7.5082C85.6308 7.5082 85.0469 6.9244 85.0469 6.2041C85.0469 5.4838 85.6308 4.8999 86.3511 4.8999C87.0714 4.8999 87.6553 5.4838 87.6553 6.2041Z" stroke="#00376A" stroke-width="0.759999" stroke-miterlimit="10" stroke-linecap="round" stroke-linejoin="round"/>
<path d="M50.8895 61.3181C50.8895 61.709 50.5725 62.0261 50.1815 62.0261C49.7906 62.0261 49.4736 61.709 49.4736 61.3181C49.4736 60.9272 49.7906 60.6104 50.1815 60.6104C50.5725 60.6104 50.8895 60.9272 50.8895 61.3181" stroke="#00376A" stroke-width="0.759999" stroke-miterlimit="10" stroke-linecap="round" stroke-linejoin="round"/>
<path d="M92.0505 88.183C92.0505 88.574 91.7336 88.8909 91.3427 88.8909C90.9517 88.8909 90.6348 88.574 90.6348 88.183C90.6348 87.7921 90.9517 87.4751 91.3427 87.4751C91.7336 87.4751 92.0505 87.7921 92.0505 88.183Z" stroke="#00376A" stroke-width="0.759999" stroke-miterlimit="10" stroke-linecap="round" stroke-linejoin="round"/>
<path d="M43.6069 3.95C43.6069 4.4747 43.1816 4.9 42.6569 4.9C42.1323 4.9 41.707 4.4747 41.707 3.95C41.707 3.4253 42.1323 3 42.6569 3C43.1816 3 43.6069 3.4253 43.6069 3.95Z" stroke="#00376A" stroke-width="0.759999" stroke-miterlimit="10" stroke-linecap="round" stroke-linejoin="round"/>
<path d="M132.538 35.7875C132.538 35.5777 132.708 35.4075 132.918 35.4075C133.127 35.4075 133.298 35.5777 133.298 35.7875H132.538ZM131.968 37.1175V36.3575L131.997 36.3568L132.026 36.3545L132.055 36.351L132.083 36.346L132.111 36.3396L132.137 36.332L132.164 36.323L132.19 36.3128L132.215 36.3015L132.239 36.289L132.263 36.2751L132.286 36.2603L132.308 36.2445L132.33 36.2272L132.351 36.2094L132.371 36.1907L132.39 36.1705L132.408 36.1497L132.425 36.1284L132.441 36.1059L132.455 36.083L132.469 36.0592L132.482 36.0343L132.493 36.0091L132.503 35.9833L132.512 35.9573L132.52 35.9304L132.526 35.9026L132.531 35.8748L132.535 35.8463L132.537 35.8172L132.538 35.7875H133.298L133.296 35.8556L133.291 35.9229L133.282 35.9896L133.271 36.0552L133.256 36.1194L133.238 36.1827L133.217 36.2449L133.193 36.3055L133.166 36.3643L133.137 36.4214L133.105 36.4772L133.07 36.5313L133.033 36.5834L132.994 36.6339L132.952 36.6819L132.908 36.7277L132.862 36.772L132.814 36.8138L132.764 36.8529L132.712 36.8901L132.657 36.9247L132.602 36.9566L132.545 36.9861L132.485 37.0128L132.425 37.0366L132.363 37.0576L132.3 37.0756L132.236 37.0904L132.17 37.1022L132.103 37.1107L132.036 37.1158L131.968 37.1175ZM131.968 37.1175C131.758 37.1175 131.588 36.9473 131.588 36.7375C131.588 36.5277 131.758 36.3575 131.968 36.3575V37.1175ZM130.638 35.7875H131.398L131.398 35.8172L131.401 35.8463L131.404 35.8748L131.409 35.9026L131.416 35.9304L131.423 35.9569L131.432 35.9833L131.442 36.0094L131.454 36.0343L131.466 36.0589L131.48 36.0827L131.495 36.1059L131.511 36.1284L131.528 36.15L131.546 36.1705L131.565 36.1905L131.585 36.2096L131.605 36.2274L131.627 36.2443L131.649 36.2603L131.672 36.2752L131.696 36.2889L131.721 36.3015L131.746 36.3128L131.772 36.323L131.798 36.332L131.825 36.3396L131.853 36.346L131.88 36.351L131.909 36.3545L131.938 36.3568L131.968 36.3575V37.1175L131.9 37.1158L131.832 37.1107L131.766 37.1022L131.7 37.0904L131.636 37.0756L131.572 37.0576L131.51 37.0366L131.45 37.0128L131.391 36.9861L131.334 36.9567L131.278 36.9246L131.224 36.8901L131.172 36.8531L131.122 36.8136L131.073 36.7718L131.027 36.7279L130.983 36.6819L130.942 36.6336L130.902 36.5834L130.865 36.5313L130.831 36.4775L130.799 36.4217L130.769 36.3643L130.742 36.3052L130.719 36.2449L130.698 36.1831L130.68 36.1194L130.665 36.0552L130.653 35.9896L130.644 35.9229L130.639 35.8556L130.638 35.7875ZM130.638 35.7875C130.638 35.5777 130.808 35.4075 131.018 35.4075C131.227 35.4075 131.398 35.5777 131.398 35.7875H130.638ZM131.968 34.4575V35.2175L131.938 35.2182L131.909 35.2205L131.88 35.224L131.853 35.229L131.825 35.2354L131.798 35.2431L131.772 35.2519L131.746 35.2621L131.721 35.2735L131.696 35.2863L131.672 35.2999L131.649 35.3146L131.627 35.3306L131.606 35.3473L131.585 35.3654L131.564 35.3846L131.546 35.4042L131.528 35.4248L131.511 35.4468L131.495 35.469L131.48 35.4921L131.466 35.5163L131.454 35.5406L131.442 35.5656L131.432 35.5916L131.423 35.6179L131.416 35.6447L131.409 35.6723L131.404 35.7001L131.401 35.7287L131.398 35.7578L131.398 35.7875H130.638L130.639 35.7194L130.644 35.6521L130.653 35.5855L130.665 35.5197L130.68 35.4555L130.698 35.3921L130.719 35.33L130.742 35.2698L130.769 35.2106L130.799 35.1531L130.831 35.0977L130.865 35.0436L130.902 34.9914L130.941 34.9416L130.983 34.8932L131.027 34.8468L131.073 34.8032L131.121 34.7615L131.172 34.7218L131.224 34.6848L131.278 34.6501L131.334 34.6181L131.391 34.5889L131.45 34.5623L131.51 34.5383L131.572 34.5173L131.636 34.4994L131.7 34.4846L131.766 34.4728L131.832 34.4643L131.9 34.4592L131.968 34.4575ZM131.968 34.4575C132.177 34.4575 132.348 34.6277 132.348 34.8375C132.348 35.0473 132.177 35.2175 131.968 35.2175V34.4575ZM133.298 35.7875H132.538L132.537 35.7578L132.535 35.7287L132.531 35.7001L132.526 35.6723L132.52 35.6447L132.512 35.6176L132.503 35.5916L132.493 35.5659L132.482 35.5406L132.469 35.516L132.455 35.4918L132.441 35.469L132.425 35.4468L132.408 35.4251L132.39 35.4042L132.371 35.3844L132.351 35.3656L132.33 35.3475L132.308 35.3304L132.286 35.3146L132.263 35.3L132.239 35.2862L132.215 35.2735L132.189 35.2621L132.164 35.2519L132.138 35.2431L132.111 35.2354L132.083 35.229L132.055 35.224L132.026 35.2205L131.997 35.2182L131.968 35.2175V34.4575L132.036 34.4592L132.103 34.4643L132.17 34.4728L132.236 34.4846L132.3 34.4994L132.363 34.5173L132.425 34.5383L132.486 34.5623L132.545 34.5889L132.602 34.6182L132.657 34.65L132.712 34.6848L132.764 34.722L132.814 34.7613L132.862 34.803L132.908 34.847L132.952 34.8932L132.994 34.9413L133.033 34.9914L133.07 35.0436L133.105 35.098L133.137 35.1534L133.166 35.2106L133.193 35.2695L133.217 35.33L133.238 35.3924L133.256 35.4555L133.271 35.5197L133.282 35.5855L133.291 35.6521L133.296 35.7194L133.298 35.7875ZM133.298 35.7875C133.298 35.9973 133.127 36.1675 132.918 36.1675C132.708 36.1675 132.538 35.9973 132.538 35.7875H133.298Z" fill="#00376A"/>
<path d="M32.3536 79.0029C32.3536 79.475 31.9708 79.8579 31.4986 79.8579C31.0264 79.8579 30.6436 79.475 30.6436 79.0029C30.6436 78.5307 31.0264 78.1479 31.4986 78.1479C31.9708 78.1479 32.3536 78.5307 32.3536 79.0029Z" stroke="#00376A" stroke-width="0.759999" stroke-miterlimit="10" stroke-linecap="round" stroke-linejoin="round"/>
<path d="M29.8916 13.355L31.7917 15.6668" stroke="#00376A" stroke-width="0.759999" stroke-miterlimit="10" stroke-linecap="round" stroke-linejoin="round"/>
<path d="M31.7917 13.355L29.8916 15.6668" stroke="#00376A" stroke-width="0.759999" stroke-miterlimit="10" stroke-linecap="round" stroke-linejoin="round"/>
<path d="M63.6709 79.0029L65.571 81.3146" stroke="#00376A" stroke-width="0.759999" stroke-miterlimit="10" stroke-linecap="round" stroke-linejoin="round"/>
<path d="M65.571 79.0029L63.6709 81.3146" stroke="#00376A" stroke-width="0.759999" stroke-miterlimit="10" stroke-linecap="round" stroke-linejoin="round"/>
<path d="M129.831 78.7021L131.731 81.0138" stroke="#00376A" stroke-width="0.759999" stroke-miterlimit="10" stroke-linecap="round" stroke-linejoin="round"/>
<path d="M131.731 78.7021L129.831 81.0138" stroke="#00376A" stroke-width="0.759999" stroke-miterlimit="10" stroke-linecap="round" stroke-linejoin="round"/>
<path d="M66.5234 40.0977L68.4233 42.4095" stroke="#00376A" stroke-width="0.759999" stroke-miterlimit="10" stroke-linecap="round" stroke-linejoin="round"/>
<path d="M68.4233 40.0977L66.5234 42.4095" stroke="#00376A" stroke-width="0.759999" stroke-miterlimit="10" stroke-linecap="round" stroke-linejoin="round"/>
<path d="M62.7207 11.0435L64.6207 13.3553" stroke="#00376A" stroke-width="0.759999" stroke-miterlimit="10" stroke-linecap="round" stroke-linejoin="round"/>
<path d="M64.6207 11.0435L62.7207 13.3553" stroke="#00376A" stroke-width="0.759999" stroke-miterlimit="10" stroke-linecap="round" stroke-linejoin="round"/>
<path d="M129.831 11.0435L131.731 13.3553" stroke="#00376A" stroke-width="0.759999" stroke-miterlimit="10" stroke-linecap="round" stroke-linejoin="round"/>
<path d="M131.731 11.0435L129.831 13.3553" stroke="#00376A" stroke-width="0.759999" stroke-miterlimit="10" stroke-linecap="round" stroke-linejoin="round"/>
<path d="M85.9066 45.7144C86.7873 45.7144 87.5494 45.562 88.2608 45.291V42.3949C87.6341 42.6659 86.9397 42.8352 86.2623 42.8352C84.6364 42.8352 83.6033 41.7683 83.6033 39.6343C83.6033 37.4156 84.738 36.2809 86.3469 36.2809C87.1091 36.2809 87.7018 36.4164 88.176 36.6704V33.8421C87.4477 33.5541 86.7026 33.3848 85.9235 33.3848C82.9258 33.3848 80.5717 35.5865 80.5547 39.6343C80.5547 43.7837 83.0274 45.7144 85.9066 45.7144ZM96.0281 45.4773H98.8056V37.3479H96.0281V40.7521C95.8079 40.8876 95.5539 40.9722 95.2321 40.9722C94.8595 40.9722 94.5546 40.7859 94.5546 40.3287V37.3479H91.7771V40.769C91.7771 42.632 93.0472 43.3603 94.3174 43.3603C95.0796 43.3603 95.4692 43.2586 96.0281 43.0385V45.4773ZM104.253 45.7144C105.286 45.7144 106.065 45.562 106.725 45.2741V43.3264C106.048 43.5804 105.438 43.6821 104.676 43.6821C103.677 43.6821 103.05 43.3264 102.83 42.4118H107.2C107.471 38.923 105.98 37.1108 103.694 37.1108C101.34 37.1108 99.9508 38.7197 99.9508 41.4126C99.9508 44.1224 101.509 45.7144 104.253 45.7144ZM102.711 40.7351C102.779 39.8036 103.101 39.2956 103.762 39.2956C104.388 39.2956 104.642 39.8036 104.659 40.7351H102.711ZM108.328 45.4773H111.105V39.7359H113.883V37.3479H108.328V45.4773ZM118.212 37.1108C115.773 37.1108 114.402 38.7536 114.402 41.4126C114.402 44.0716 115.773 45.7144 118.212 45.7144C120.651 45.7144 122.006 44.0716 122.006 41.4126C122.006 38.7367 120.651 37.1108 118.212 37.1108ZM118.212 39.4818C118.957 39.4818 119.228 40.1085 119.228 41.4126C119.228 42.7167 118.957 43.3264 118.212 43.3264C117.467 43.3264 117.196 42.7167 117.196 41.4126C117.196 40.1085 117.467 39.4818 118.212 39.4818Z" fill="#00376A"/>
<path d="M101.206 48.3011V60.1565H98.2934V55.6176H95.5667V60.1565H92.6367V48.3011H95.5667V52.84H98.2934V48.3011H101.206ZM102.098 60.1565L105.858 48.3011H108.804L112.564 60.1565H109.516L109.025 58.3782H105.654L105.163 60.1565H102.098ZM106.247 55.9732H108.415L107.856 53.9409C107.619 53.0376 107.444 52.1851 107.331 51.3835C107.207 52.2868 107.037 53.1392 106.823 53.9409L106.247 55.9732ZM117.808 60.1565V56.1426C117.086 56.4136 116.352 56.5491 115.606 56.5491C114.602 56.5378 113.783 56.247 113.151 55.6768C112.518 55.1067 112.202 54.2627 112.202 53.1449V48.3011H115.115V52.6198C115.115 53.3876 115.527 53.7715 116.352 53.7715C116.86 53.7715 117.345 53.6417 117.808 53.382V48.3011H120.721V60.1565H117.808ZM121.595 60.1565L125.355 48.3011H128.302L132.062 60.1565H129.013L128.522 58.3782H125.152L124.661 60.1565H121.595ZM125.745 55.9732H127.913L127.354 53.9409C127.117 53.0376 126.942 52.1851 126.829 51.3835C126.705 52.2868 126.535 53.1392 126.321 53.9409L125.745 55.9732ZM133.885 60.1565V51.0786H131.175V48.3011H139.507V51.0786H136.798V60.1565H133.885ZM140.636 60.1565V48.3011H143.566V52.2642H144.887C146.084 52.2642 147.063 52.6001 147.825 53.2719C148.587 53.9437 148.968 54.9232 148.968 56.2103C148.968 57.4975 148.587 58.477 147.825 59.1488C147.063 59.8206 146.084 60.1565 144.887 60.1565H140.636ZM143.566 57.4975H144.65C145.079 57.4975 145.417 57.3874 145.666 57.1672C145.914 56.9471 146.038 56.6281 146.038 56.2103C146.038 55.8039 145.911 55.4877 145.657 55.2619C145.403 55.0361 145.067 54.9232 144.65 54.9232H143.566V57.4975ZM150.842 56.2273C150.842 55.7079 150.935 55.2139 151.121 54.7454C151.308 54.2768 151.511 53.8985 151.731 53.6106C151.951 53.3227 152.154 53.0037 152.341 52.6537C152.527 52.3037 152.62 51.9763 152.62 51.6714C152.62 51.1182 152.253 50.8415 151.519 50.8415C150.774 50.8415 150.006 51.1238 149.216 51.6883V48.8939C150.198 48.3406 151.186 48.064 152.18 48.064C153.117 48.064 153.933 48.3096 154.627 48.8007C155.322 49.2919 155.669 50.0173 155.669 50.977C155.669 51.519 155.55 52.0497 155.313 52.569C155.076 53.0884 154.813 53.5203 154.526 53.8647C154.238 54.209 153.975 54.5957 153.738 55.0248C153.501 55.4539 153.382 55.8547 153.382 56.2273H150.842ZM152.112 60.3767C151.694 60.3767 151.336 60.2468 151.037 59.9871C150.737 59.7274 150.588 59.3492 150.588 58.8524C150.588 58.3556 150.737 57.9802 151.037 57.7261C151.336 57.4721 151.694 57.3451 152.112 57.3451C152.541 57.3451 152.905 57.4721 153.205 57.7261C153.504 57.9802 153.653 58.3556 153.653 58.8524C153.653 59.3492 153.504 59.7274 153.205 59.9871C152.905 60.2468 152.541 60.3767 152.112 60.3767Z" fill="#00376A"/>
</svg>
