<svg width="165" height="93" viewBox="0 0 165 93" fill="none" xmlns="http://www.w3.org/2000/svg">
<path d="M126.77 34.2969C126.77 34.2969 132.371 1.91946 103.664 6.3651e-05C93.4098 -0.0263363 89.2871 8.16646 87.6374 11.6488C85.9878 15.1309 75.9181 23.1034 68.1465 14.675C60.3748 6.24656 40.69 4.96556 34.5112 15.2039C28.3323 25.4423 35.5007 36.7288 34.8712 42.2645C34.2417 47.8001 28.4508 64.3922 38.2712 73.6463C48.0915 82.9004 61.0423 71.0387 68.0132 71.8769C72.7758 72.4495 80.7553 86.1857 97.8038 86.4279C116.628 86.6953 137.757 74.5493 132.964 53.623C131.966 42.9559 125.516 43.5226 126.77 34.2969V34.2969Z" fill="#DCF0FA"/>
<path d="M23.3353 14.1363C23.3353 20.5801 18.1115 25.804 11.6677 25.804C5.22379 25.804 0 20.5801 0 14.1363C0 7.69255 5.22379 2.46875 11.6677 2.46875C18.1115 2.46875 23.3353 7.69255 23.3353 14.1363V14.1363Z" fill="#DCF0FA"/>
<path d="M22.5846 79.6279C22.5846 83.7731 19.2242 87.1335 15.0789 87.1335C10.9336 87.1335 7.57324 83.7731 7.57324 79.6279C7.57324 75.4825 10.9336 72.1221 15.0789 72.1221C19.2242 72.1221 22.5846 75.4825 22.5846 79.6279Z" fill="#DCF0FA"/>
<path d="M164.183 83.3074C164.183 88.4276 160.033 92.5784 154.912 92.5784C149.792 92.5784 145.642 88.4276 145.642 83.3074C145.642 78.1873 149.792 74.0366 154.912 74.0366C160.033 74.0366 164.183 78.1873 164.183 83.3074Z" fill="#DCF0FA"/>
<path d="M156.791 15.7742C156.791 18.5757 154.52 20.8467 151.718 20.8467C148.917 20.8467 146.646 18.5757 146.646 15.7742C146.646 12.9728 148.917 10.7017 151.718 10.7017C154.52 10.7017 156.791 12.9728 156.791 15.7742V15.7742Z" fill="#DCF0FA"/>
<path d="M55.1399 43.0622H44.4203V41.9902C44.4203 40.1663 44.6271 38.6853 45.041 37.5473C45.4545 36.4095 46.0707 35.3707 46.8887 34.43C47.7067 33.4898 49.5449 31.8347 52.4037 29.465C53.9271 28.2238 54.6887 27.0862 54.6887 26.0517C54.6887 25.0176 54.3829 24.2137 53.7719 23.6398C53.1605 23.0663 52.2343 22.7794 50.9931 22.7794C49.6577 22.7794 48.5531 23.2215 47.6787 24.1053C46.804 24.9895 46.2444 26.5313 46.0002 28.7317L35.0547 27.3776C35.4307 23.3532 36.8928 20.1136 39.4414 17.6593C41.9894 15.2052 45.8965 13.978 51.1624 13.978C55.2622 13.978 58.572 14.834 61.0922 16.5449C64.5149 18.8582 66.2263 21.9428 66.2263 25.7978C66.2263 27.3966 65.7842 28.9388 64.9006 30.4242C64.0164 31.9102 62.2109 33.7249 59.4844 35.8686C57.5846 37.3736 56.3857 38.5818 55.8876 39.4937C55.3891 40.4061 55.1399 41.5953 55.1399 43.0622V43.0622ZM49.1172 45.9114H50.4714C53.2679 45.9114 55.5351 48.1784 55.5351 50.9749C55.5351 53.7715 53.2679 56.0386 50.4714 56.0386H49.1172C46.3206 56.0386 44.0536 53.7715 44.0536 50.9749C44.0536 48.1784 46.3206 45.9114 49.1172 45.9114Z" fill="#CC0256"/>
<path d="M50.9907 22.7803C49.655 22.7803 48.5502 23.2225 47.6757 24.1065C46.8009 24.9907 46.2414 26.5327 45.9971 28.7334" stroke="#00376A" stroke-width="1.0583" stroke-miterlimit="10" stroke-linecap="round" stroke-linejoin="round"/>
<path d="M45.9975 28.7336L42.4419 28.2937L38.8058 27.8439L35.0508 27.3794" stroke="#00376A" stroke-width="1.0583" stroke-miterlimit="10" stroke-linecap="round" stroke-linejoin="round"/>
<path d="M35.0508 27.3792C35.4268 23.3543 36.8891 20.1143 39.438 17.6597" stroke="#00376A" stroke-width="1.0583" stroke-miterlimit="10" stroke-linecap="round" stroke-linejoin="round"/>
<path d="M55.8864 39.4966C55.3878 40.4091 55.1387 41.5985 55.1387 43.0655" stroke="#00376A" stroke-width="1.0583" stroke-miterlimit="10" stroke-linecap="round" stroke-linejoin="round"/>
<path d="M55.1387 43.0653H44.418V41.9932" stroke="#00376A" stroke-width="1.0583" stroke-miterlimit="10" stroke-linecap="round" stroke-linejoin="round"/>
<path d="M44.418 41.9935C44.418 40.1694 44.6246 38.6882 45.0387 37.55C45.4522 36.4122 46.0685 35.3732 46.8866 34.4325C47.7048 33.4921 49.543 31.8368 52.4021 29.4669C53.9257 28.2255 54.6875 27.0878 54.6875 26.0532" stroke="#00376A" stroke-width="1.0583" stroke-miterlimit="10" stroke-linecap="round" stroke-linejoin="round"/>
<path d="M42.7246 15.4835C44.9809 14.4799 47.7929 13.978 51.1605 13.978C55.2608 13.978 58.571 14.834 61.0916 16.5452C64.5146 18.8587 66.2262 21.9437 66.2262 25.7991C66.2262 27.3981 65.7841 28.9405 64.9004 30.4261C64.016 31.9122 62.2104 33.7271 59.4834 35.8711" stroke="#00376A" stroke-width="1.0583" stroke-miterlimit="10" stroke-linecap="round" stroke-linejoin="round"/>
<path d="M49.1149 56.0432C46.3181 56.0432 44.0508 53.7759 44.0508 50.979" stroke="#00376A" stroke-width="1.0583" stroke-miterlimit="10" stroke-linecap="round" stroke-linejoin="round"/>
<path d="M44.0508 50.9793C44.0508 49.7875 44.4625 48.6918 45.1516 47.8267" stroke="#00376A" stroke-width="1.0583" stroke-miterlimit="10" stroke-linecap="round" stroke-linejoin="round"/>
<path d="M49.1152 45.915H50.4697" stroke="#00376A" stroke-width="1.0583" stroke-miterlimit="10" stroke-linecap="round" stroke-linejoin="round"/>
<path d="M50.4697 45.915C53.2665 45.915 55.5339 48.1823 55.5339 50.9792" stroke="#00376A" stroke-width="1.0583" stroke-miterlimit="10" stroke-linecap="round" stroke-linejoin="round"/>
<path d="M55.5339 50.979C55.5339 53.7759 53.2665 56.0432 50.4697 56.0432" stroke="#00376A" stroke-width="1.0583" stroke-miterlimit="10" stroke-linecap="round" stroke-linejoin="round"/>
<path d="M63.2062 65.9721L57.8161 62.3717L58.1761 61.8327C58.7887 60.9156 59.3901 60.2403 59.9805 59.8071C60.5705 59.3739 61.2292 59.0585 61.9565 58.8603C62.6836 58.6623 64.1638 58.4473 66.3971 58.216C67.5801 58.1035 68.3452 57.7873 68.6926 57.2671C69.0399 56.7471 69.1561 56.2402 69.0416 55.7464C68.9269 55.2527 68.5575 54.7974 67.9334 54.3805C67.2619 53.932 66.558 53.7832 65.8214 53.934C65.0847 54.0848 64.2854 54.6721 63.4236 55.6966L58.3747 51.3395C59.9154 49.4421 61.7386 48.3043 63.8445 47.9261C65.95 47.5479 68.3268 48.2431 70.9746 50.0117C73.0361 51.3887 74.4129 52.9308 75.1055 54.6376C76.0496 56.9503 75.8742 59.0762 74.5794 61.0146C74.0424 61.8185 73.3021 62.4455 72.3589 62.8956C71.4152 63.3458 69.8978 63.6519 67.8068 63.8141C66.3461 63.9327 65.3375 64.1376 64.7807 64.4289C64.2236 64.7202 63.6989 65.2345 63.2062 65.9721V65.9721ZM59.2209 65.382L59.9018 65.8368C61.308 66.776 61.6866 68.6774 60.7473 70.0836C59.808 71.4898 57.9066 71.8683 56.5004 70.9291L55.8195 70.4742C54.4132 69.535 54.0348 67.6336 54.9741 66.2274C55.9133 64.8212 57.8147 64.4427 59.2209 65.382V65.382Z" fill="#00AEEF"/>
<path d="M67.9322 54.3804C67.2606 53.9318 66.5566 53.7831 65.82 53.9338C65.0832 54.0847 64.2838 54.6721 63.4219 55.6966" stroke="#00376A" stroke-width="1.0583" stroke-miterlimit="10" stroke-linecap="round" stroke-linejoin="round"/>
<path d="M63.4216 55.6964L61.7814 54.281L60.1042 52.8336L58.3721 51.3389" stroke="#00376A" stroke-width="1.0583" stroke-miterlimit="10" stroke-linecap="round" stroke-linejoin="round"/>
<path d="M58.3721 51.3391C59.913 49.4415 61.7365 48.3035 63.8425 47.9253" stroke="#00376A" stroke-width="1.0583" stroke-miterlimit="10" stroke-linecap="round" stroke-linejoin="round"/>
<path d="M64.7787 64.4297C64.2216 64.721 63.6969 65.2355 63.2041 65.9731" stroke="#00376A" stroke-width="1.0583" stroke-miterlimit="10" stroke-linecap="round" stroke-linejoin="round"/>
<path d="M63.2042 65.9733L57.8135 62.3726L58.1736 61.8335" stroke="#00376A" stroke-width="1.0583" stroke-miterlimit="10" stroke-linecap="round" stroke-linejoin="round"/>
<path d="M58.1738 61.8337C58.7864 60.9165 59.3879 60.2411 59.9784 59.8079C60.5684 59.3746 61.2272 59.0592 61.9545 58.8609C62.6818 58.6629 64.1621 58.4479 66.3957 58.2165C67.5788 58.1041 68.3439 57.7878 68.6914 57.2676" stroke="#00376A" stroke-width="1.0583" stroke-miterlimit="10" stroke-linecap="round" stroke-linejoin="round"/>
<path d="M66.2256 47.9346C67.6973 48.1878 69.2797 48.8799 70.9731 50.011C73.0349 51.3881 74.4118 52.9304 75.1045 54.6374C76.0487 56.9503 75.8733 59.0764 74.5784 61.015C74.0413 61.8191 73.3009 62.4461 72.3576 62.8963C71.4138 63.3466 69.8963 63.6527 67.805 63.8148" stroke="#00376A" stroke-width="1.0583" stroke-miterlimit="10" stroke-linecap="round" stroke-linejoin="round"/>
<path d="M55.8167 70.4759C54.4104 69.5365 54.0319 67.6349 54.9712 66.2285" stroke="#00376A" stroke-width="1.0583" stroke-miterlimit="10" stroke-linecap="round" stroke-linejoin="round"/>
<path d="M54.9707 66.2287C55.3711 65.6294 55.9461 65.2168 56.5831 65.0132" stroke="#00376A" stroke-width="1.0583" stroke-miterlimit="10" stroke-linecap="round" stroke-linejoin="round"/>
<path d="M59.2188 65.3833L59.8998 65.8382" stroke="#00376A" stroke-width="1.0583" stroke-miterlimit="10" stroke-linecap="round" stroke-linejoin="round"/>
<path d="M59.8994 65.8379C61.3058 66.7773 61.6843 68.6788 60.745 70.0852" stroke="#00376A" stroke-width="1.0583" stroke-miterlimit="10" stroke-linecap="round" stroke-linejoin="round"/>
<path d="M60.7454 70.0854C59.806 71.4918 57.9044 71.8704 56.498 70.9309" stroke="#00376A" stroke-width="1.0583" stroke-miterlimit="10" stroke-linecap="round" stroke-linejoin="round"/>
<path d="M40.6435 63.0653L35.1696 66.5371L34.8224 65.9897C34.2317 65.0584 33.8576 64.235 33.7005 63.5199C33.5431 62.805 33.5213 62.075 33.6344 61.3297C33.7476 60.5847 34.1502 59.1442 34.8426 57.0082C35.2185 55.881 35.239 55.0535 34.904 54.5252C34.569 53.9971 34.1525 53.6857 33.6546 53.5905C33.1567 53.4957 32.5909 53.6491 31.9571 54.0511C31.2751 54.4836 30.8542 55.0671 30.6939 55.8016C30.5336 56.5364 30.7473 57.5049 31.3352 58.7076L25.3075 61.5611C24.196 59.3843 23.8934 57.2565 24.4 55.1778C24.9063 53.0994 26.504 51.2074 29.193 49.5019C31.2865 48.1741 33.2539 47.5393 35.095 47.5968C37.5919 47.6695 39.4649 48.6903 40.7134 50.6589C41.2311 51.4753 41.5049 52.406 41.5347 53.4506C41.5645 54.4959 41.2302 56.0073 40.5322 57.985C40.0494 59.3688 39.8286 60.374 39.8695 61.001C39.9105 61.6283 40.1684 62.3163 40.6435 63.0653V63.0653ZM38.4908 66.4709L39.1823 66.0322C40.6103 65.1265 42.5023 65.55 43.4079 66.978C44.3137 68.406 43.8902 70.298 42.4622 71.2036L41.7706 71.6422C40.3426 72.5479 38.4507 72.1245 37.545 70.6965C36.6393 69.2684 37.0627 67.3765 38.4908 66.4709Z" fill="#CCE290"/>
<path d="M31.9574 54.0522C31.2753 54.4848 30.8544 55.0684 30.6942 55.803C30.5338 56.5379 30.7473 57.5065 31.3353 58.7093" stroke="#00376A" stroke-width="1.0583" stroke-miterlimit="10" stroke-linecap="round" stroke-linejoin="round"/>
<path d="M31.335 58.7095L29.3769 59.6364L27.3746 60.5844L25.3066 61.5633" stroke="#00376A" stroke-width="1.0583" stroke-miterlimit="10" stroke-linecap="round" stroke-linejoin="round"/>
<path d="M25.3065 61.5632C24.195 59.3862 23.8924 57.2581 24.399 55.1792" stroke="#00376A" stroke-width="1.0583" stroke-miterlimit="10" stroke-linecap="round" stroke-linejoin="round"/>
<path d="M39.8701 61.0029C39.911 61.6304 40.169 62.3184 40.6441 63.0675" stroke="#00376A" stroke-width="1.0583" stroke-miterlimit="10" stroke-linecap="round" stroke-linejoin="round"/>
<path d="M40.6439 63.0674L35.1695 66.5395L34.8223 65.992" stroke="#00376A" stroke-width="1.0583" stroke-miterlimit="10" stroke-linecap="round" stroke-linejoin="round"/>
<path d="M34.8227 65.9921C34.232 65.0607 33.8577 64.2374 33.7006 63.5221C33.5432 62.8072 33.5215 62.077 33.6346 61.3317C33.7478 60.5866 34.1504 59.1459 34.8428 57.0098C35.2188 55.8824 35.2393 55.0547 34.9042 54.5264" stroke="#00376A" stroke-width="1.0583" stroke-miterlimit="10" stroke-linecap="round" stroke-linejoin="round"/>
<path d="M25.3721 53.0035C26.1993 51.7603 27.4727 50.5934 29.1923 49.5027C31.2861 48.1748 33.2537 47.5398 35.095 47.5973C37.5921 47.67 39.4654 48.691 40.714 50.6598C41.2318 51.4763 41.5055 52.4071 41.5353 53.4519C41.5651 54.4971 41.2309 56.0087 40.5328 57.9867" stroke="#00376A" stroke-width="1.0583" stroke-miterlimit="10" stroke-linecap="round" stroke-linejoin="round"/>
<path d="M41.772 71.6456C40.3438 72.5514 38.4517 72.1279 37.5459 70.6997" stroke="#00376A" stroke-width="1.0583" stroke-miterlimit="10" stroke-linecap="round" stroke-linejoin="round"/>
<path d="M37.5451 70.6997C37.1591 70.0911 37.0144 69.3982 37.086 68.7334" stroke="#00376A" stroke-width="1.0583" stroke-miterlimit="10" stroke-linecap="round" stroke-linejoin="round"/>
<path d="M38.4912 66.4734L39.1828 66.0347" stroke="#451D99" stroke-width="1.0583" stroke-miterlimit="10" stroke-linecap="round" stroke-linejoin="round"/>
<path d="M39.1826 66.0347C40.6108 65.129 42.5029 65.5524 43.4086 66.9806" stroke="#00376A" stroke-width="1.0583" stroke-miterlimit="10" stroke-linecap="round" stroke-linejoin="round"/>
<path d="M43.4087 66.981C44.3146 68.4093 43.8911 70.3012 42.4629 71.207" stroke="#00376A" stroke-width="1.0583" stroke-miterlimit="10" stroke-linecap="round" stroke-linejoin="round"/>
<path d="M29.8428 34.5591C29.8428 35.2794 29.2589 35.8633 28.5387 35.8633C27.8183 35.8633 27.2344 35.2794 27.2344 34.5591C27.2344 33.8388 27.8183 33.2549 28.5387 33.2549C29.2589 33.2549 29.8428 33.8388 29.8428 34.5591Z" stroke="#00376A" stroke-width="0.759999" stroke-miterlimit="10" stroke-linecap="round" stroke-linejoin="round"/>
<path d="M87.6065 5.86279C87.6065 6.58309 87.0226 7.16689 86.3023 7.16689C85.582 7.16689 84.998 6.58309 84.998 5.86279C84.998 5.14249 85.582 4.55859 86.3023 4.55859C87.0226 4.55859 87.6065 5.14249 87.6065 5.86279Z" stroke="#00376A" stroke-width="0.759999" stroke-miterlimit="10" stroke-linecap="round" stroke-linejoin="round"/>
<path d="M50.8406 60.9768C50.8406 61.3677 50.5237 61.6847 50.1327 61.6847C49.7418 61.6847 49.4248 61.3677 49.4248 60.9768C49.4248 60.5859 49.7418 60.269 50.1327 60.269C50.5237 60.269 50.8406 60.5859 50.8406 60.9768" stroke="#00376A" stroke-width="0.759999" stroke-miterlimit="10" stroke-linecap="round" stroke-linejoin="round"/>
<path d="M92.0016 87.8417C92.0016 88.2327 91.6848 88.5496 91.2939 88.5496C90.9029 88.5496 90.5859 88.2327 90.5859 87.8417C90.5859 87.4508 90.9029 87.1338 91.2939 87.1338C91.6848 87.1338 92.0016 87.4508 92.0016 87.8417Z" stroke="#00376A" stroke-width="0.759999" stroke-miterlimit="10" stroke-linecap="round" stroke-linejoin="round"/>
<path d="M43.5581 3.60869C43.5581 4.13339 43.1328 4.55869 42.6081 4.55869C42.0835 4.55869 41.6582 4.13339 41.6582 3.60869C41.6582 3.08399 42.0835 2.65869 42.6081 2.65869C43.1328 2.65869 43.5581 3.08399 43.5581 3.60869Z" stroke="#00376A" stroke-width="0.759999" stroke-miterlimit="10" stroke-linecap="round" stroke-linejoin="round"/>
<path d="M132.489 35.4462C132.489 35.2364 132.659 35.0662 132.869 35.0662C133.079 35.0662 133.249 35.2364 133.249 35.4462H132.489ZM131.919 36.7762V36.0162L131.949 36.0155L131.978 36.0132L132.006 36.0097L132.034 36.0047L132.062 35.9983L132.088 35.9907L132.115 35.9817L132.141 35.9715L132.166 35.9602L132.19 35.9477L132.214 35.9338L132.237 35.919L132.26 35.9032L132.282 35.8859L132.302 35.8681L132.322 35.8494L132.341 35.8292L132.359 35.8084L132.376 35.7871L132.392 35.7646L132.406 35.7417L132.42 35.7179L132.433 35.693L132.444 35.6678L132.454 35.642L132.463 35.616L132.471 35.5891L132.477 35.5613L132.482 35.5335L132.486 35.505L132.488 35.4759L132.489 35.4462H133.249L133.247 35.5143L133.242 35.5816L133.234 35.6483L133.222 35.7139L133.207 35.7781L133.189 35.8414L133.168 35.9036L133.144 35.9642L133.117 36.023L133.088 36.0801L133.056 36.1359L133.022 36.19L132.985 36.2421L132.945 36.2926L132.903 36.3406L132.86 36.3864L132.813 36.4307L132.765 36.4725L132.715 36.5116L132.663 36.5488L132.609 36.5834L132.553 36.6153L132.496 36.6448L132.437 36.6715L132.376 36.6953L132.314 36.7163L132.251 36.7343L132.187 36.7491L132.121 36.7609L132.054 36.7694L131.987 36.7745L131.919 36.7762V36.7762ZM131.919 36.7762C131.709 36.7762 131.539 36.606 131.539 36.3962C131.539 36.1864 131.709 36.0162 131.919 36.0162V36.7762ZM130.589 35.4462H131.349L131.35 35.4759L131.352 35.505L131.355 35.5335L131.36 35.5613L131.367 35.5891L131.374 35.6156L131.383 35.642L131.394 35.6681L131.405 35.693L131.417 35.7176L131.431 35.7414L131.446 35.7646L131.462 35.7871L131.479 35.8087L131.497 35.8292L131.516 35.8492L131.536 35.8683L131.556 35.8861L131.578 35.903L131.6 35.919L131.624 35.9339L131.647 35.9476L131.672 35.9602L131.697 35.9715L131.723 35.9817L131.749 35.9907L131.776 35.9983L131.804 36.0047L131.832 36.0097L131.86 36.0132L131.889 36.0155L131.919 36.0162V36.7762L131.851 36.7745L131.783 36.7694L131.717 36.7609L131.651 36.7491L131.587 36.7343L131.523 36.7163L131.461 36.6953L131.401 36.6715L131.342 36.6448L131.285 36.6154L131.229 36.5833L131.175 36.5488L131.123 36.5118L131.073 36.4723L131.024 36.4305L130.978 36.3866L130.935 36.3406L130.893 36.2923L130.853 36.2421L130.816 36.19L130.782 36.1362L130.75 36.0804L130.72 36.023L130.694 35.9639L130.67 35.9036L130.649 35.8418L130.631 35.7781L130.616 35.7139L130.604 35.6483L130.596 35.5816L130.591 35.5143L130.589 35.4462V35.4462ZM130.589 35.4462C130.589 35.2364 130.759 35.0662 130.969 35.0662C131.179 35.0662 131.349 35.2364 131.349 35.4462H130.589ZM131.919 34.1162V34.8762L131.889 34.8769L131.86 34.8792L131.832 34.8827L131.804 34.8877L131.776 34.8941L131.749 34.9018L131.723 34.9106L131.697 34.9208L131.672 34.9322L131.647 34.945L131.623 34.9586L131.6 34.9733L131.578 34.9893L131.557 35.006L131.536 35.0241L131.516 35.0433L131.497 35.0629L131.479 35.0835L131.462 35.1055L131.446 35.1277L131.431 35.1508L131.417 35.175L131.405 35.1993L131.394 35.2243L131.383 35.2503L131.374 35.2766L131.367 35.3034L131.36 35.331L131.355 35.3588L131.352 35.3874L131.35 35.4165L131.349 35.4462H130.589L130.591 35.3781L130.596 35.3108L130.604 35.2442L130.616 35.1784L130.631 35.1142L130.649 35.0508L130.67 34.9887L130.694 34.9285L130.72 34.8693L130.75 34.8118L130.782 34.7564L130.816 34.7023L130.853 34.6501L130.893 34.6003L130.934 34.5519L130.979 34.5055L131.024 34.4619L131.072 34.4202L131.123 34.3805L131.175 34.3435L131.229 34.3088L131.285 34.2768L131.342 34.2476L131.401 34.221L131.461 34.197L131.524 34.176L131.587 34.1581L131.651 34.1433L131.717 34.1315L131.783 34.123L131.851 34.1179L131.919 34.1162V34.1162ZM131.919 34.1162C132.129 34.1162 132.299 34.2864 132.299 34.4962C132.299 34.706 132.129 34.8762 131.919 34.8762V34.1162ZM133.249 35.4462H132.489L132.488 35.4165L132.486 35.3874L132.482 35.3588L132.477 35.331L132.471 35.3034L132.463 35.2763L132.454 35.2503L132.444 35.2246L132.433 35.1993L132.42 35.1747L132.406 35.1505L132.392 35.1277L132.376 35.1055L132.359 35.0838L132.341 35.0629L132.322 35.0431L132.302 35.0243L132.281 35.0062L132.26 34.9891L132.237 34.9733L132.215 34.9587L132.19 34.9449L132.166 34.9322L132.14 34.9208L132.115 34.9106L132.089 34.9018L132.062 34.8941L132.034 34.8877L132.006 34.8827L131.978 34.8792L131.949 34.8769L131.919 34.8762V34.1162L131.987 34.1179L132.054 34.123L132.121 34.1315L132.187 34.1433L132.251 34.1581L132.314 34.176L132.376 34.197L132.437 34.221L132.496 34.2476L132.553 34.2769L132.608 34.3087L132.663 34.3435L132.715 34.3807L132.765 34.42L132.813 34.4617L132.859 34.5057L132.903 34.5519L132.945 34.6L132.984 34.6501L133.022 34.7023L133.056 34.7567L133.088 34.8121L133.117 34.8693L133.144 34.9282L133.168 34.9887L133.189 35.0511L133.207 35.1142L133.222 35.1784L133.234 35.2442L133.242 35.3108L133.247 35.3781L133.249 35.4462V35.4462ZM133.249 35.4462C133.249 35.656 133.079 35.8262 132.869 35.8262C132.659 35.8262 132.489 35.656 132.489 35.4462H133.249Z" fill="#00376A"/>
<path d="M32.3047 78.6616C32.3047 79.1337 31.9219 79.5166 31.4497 79.5166C30.9775 79.5166 30.5947 79.1337 30.5947 78.6616C30.5947 78.1894 30.9775 77.8066 31.4497 77.8066C31.9219 77.8066 32.3047 78.1894 32.3047 78.6616Z" stroke="#00376A" stroke-width="0.759999" stroke-miterlimit="10" stroke-linecap="round" stroke-linejoin="round"/>
<path d="M29.8428 13.0137L31.7429 15.3255" stroke="#00376A" stroke-width="0.759999" stroke-miterlimit="10" stroke-linecap="round" stroke-linejoin="round"/>
<path d="M31.7429 13.0137L29.8428 15.3255" stroke="#00376A" stroke-width="0.759999" stroke-miterlimit="10" stroke-linecap="round" stroke-linejoin="round"/>
<path d="M63.6221 78.6616L65.5221 80.9733" stroke="#00376A" stroke-width="0.759999" stroke-miterlimit="10" stroke-linecap="round" stroke-linejoin="round"/>
<path d="M65.5221 78.6616L63.6221 80.9733" stroke="#00376A" stroke-width="0.759999" stroke-miterlimit="10" stroke-linecap="round" stroke-linejoin="round"/>
<path d="M129.782 78.3608L131.682 80.6725" stroke="#00376A" stroke-width="0.759999" stroke-miterlimit="10" stroke-linecap="round" stroke-linejoin="round"/>
<path d="M131.682 78.3608L129.782 80.6725" stroke="#00376A" stroke-width="0.759999" stroke-miterlimit="10" stroke-linecap="round" stroke-linejoin="round"/>
<path d="M66.4746 39.7563L68.3745 42.0681" stroke="#00376A" stroke-width="0.759999" stroke-miterlimit="10" stroke-linecap="round" stroke-linejoin="round"/>
<path d="M68.3745 39.7563L66.4746 42.0681" stroke="#00376A" stroke-width="0.759999" stroke-miterlimit="10" stroke-linecap="round" stroke-linejoin="round"/>
<path d="M62.6719 10.7021L64.5719 13.0139" stroke="#00376A" stroke-width="0.759999" stroke-miterlimit="10" stroke-linecap="round" stroke-linejoin="round"/>
<path d="M64.5719 10.7021L62.6719 13.0139" stroke="#00376A" stroke-width="0.759999" stroke-miterlimit="10" stroke-linecap="round" stroke-linejoin="round"/>
<path d="M129.782 10.7021L131.682 13.0139" stroke="#00376A" stroke-width="0.759999" stroke-miterlimit="10" stroke-linecap="round" stroke-linejoin="round"/>
<path d="M131.682 10.7021L129.782 13.0139" stroke="#00376A" stroke-width="0.759999" stroke-miterlimit="10" stroke-linecap="round" stroke-linejoin="round"/>
<path d="M84.8038 29.1582V39.0002H82.3855V35.2321H80.1218V39.0002H77.6895V29.1582H80.1218V32.9263H82.3855V29.1582H84.8038Z" fill="#00376A"/>
<path d="M89.339 39.197C88.2049 39.197 87.3238 38.883 86.6958 38.255C86.0771 37.627 85.7678 36.7506 85.7678 35.6258C85.7678 34.5104 86.0396 33.6387 86.5833 33.0106C87.1363 32.3733 87.9002 32.0546 88.8751 32.0546C89.8499 32.0546 90.6044 32.4389 91.1387 33.2075C91.6824 33.9667 91.898 35.0493 91.7855 36.4553H88.158C88.3267 37.1583 88.8376 37.5098 89.6905 37.5098C90.2998 37.5098 90.8669 37.4114 91.3918 37.2146V38.8315C90.8294 39.0752 90.1451 39.197 89.339 39.197ZM88.0596 35.0634H89.6765C89.6577 34.2667 89.4093 33.8683 88.9313 33.8683C88.4064 33.8683 88.1158 34.2667 88.0596 35.0634Z" fill="#00376A"/>
<path d="M92.1475 40.7858V37.1162H92.9068C93.2817 35.8414 93.4692 34.2198 93.4692 32.2514H98.7135V37.1162H99.5009V40.7858H97.3075V39.0002H94.3409V40.7858H92.1475ZM95.1423 37.1162H96.5624V34.0792H95.536C95.4891 35.1665 95.3579 36.1788 95.1423 37.1162Z" fill="#00376A"/>
<path d="M103.536 39.197C102.402 39.197 101.521 38.883 100.893 38.255C100.274 37.627 99.9651 36.7506 99.9651 35.6258C99.9651 34.5104 100.237 33.6387 100.781 33.0106C101.334 32.3733 102.098 32.0546 103.072 32.0546C104.047 32.0546 104.802 32.4389 105.336 33.2075C105.88 33.9667 106.095 35.0493 105.983 36.4553H102.355C102.524 37.1583 103.035 37.5098 103.888 37.5098C104.497 37.5098 105.064 37.4114 105.589 37.2146V38.8315C105.027 39.0752 104.342 39.197 103.536 39.197ZM102.257 35.0634H103.874C103.855 34.2667 103.607 33.8683 103.129 33.8683C102.604 33.8683 102.313 34.2667 102.257 35.0634Z" fill="#00376A"/>
<path d="M106.822 39.0002V32.2514H109.128V34.6416H110.478V32.2514H112.784V39.0002H110.478V36.61H109.128V39.0002H106.822Z" fill="#00376A"/>
<path d="M86.3671 53.0002V43.1582H92.68V45.4078H88.7995V46.7857H90.2898C91.1897 46.7857 91.9208 47.0622 92.4832 47.6152C93.055 48.1589 93.3409 48.9181 93.3409 49.8929C93.3409 50.8678 93.055 51.6317 92.4832 52.1847C91.9208 52.7284 91.1897 53.0002 90.2898 53.0002H86.3671ZM88.7995 50.8912H89.9383C90.257 50.8912 90.5007 50.8022 90.6695 50.6241C90.8382 50.446 90.9226 50.2023 90.9226 49.8929C90.9226 49.5836 90.8335 49.3399 90.6554 49.1618C90.4867 48.9837 90.2477 48.8947 89.9383 48.8947H88.7995V50.8912Z" fill="#00376A"/>
<path d="M93.2698 53.0002L96.3911 43.1582H98.8376L101.959 53.0002H99.4281L99.0203 51.5239H96.2224L95.8147 53.0002H93.2698ZM96.7145 49.5274H98.5142L98.0502 47.8402C97.8534 47.0903 97.7081 46.3826 97.6143 45.7171C97.5112 46.467 97.3706 47.1747 97.1925 47.8402L96.7145 49.5274Z" fill="#00376A"/>
<path d="M106.303 53.197C105.028 53.197 103.969 52.7659 103.126 51.9035C102.282 51.0412 101.86 49.7898 101.86 48.1495C101.87 46.5185 102.291 45.2485 103.126 44.3392C103.96 43.4207 105.024 42.9614 106.317 42.9614C106.927 42.9614 107.55 43.0879 108.187 43.341V45.689C107.784 45.4734 107.278 45.3656 106.669 45.3656C105.975 45.3656 105.422 45.6046 105.01 46.0827C104.597 46.5607 104.391 47.2497 104.391 48.1495C104.391 49.0212 104.583 49.682 104.968 50.132C105.361 50.5819 105.905 50.8068 106.598 50.8068C107.142 50.8068 107.695 50.685 108.258 50.4413V52.8455C107.639 53.0799 106.987 53.197 106.303 53.197Z" fill="#00376A"/>
<path d="M111.012 53.0002V45.464H108.763V43.1582H115.68V45.464H113.431V53.0002H111.012Z" fill="#00376A"/>
<path d="M114.84 53.0002L117.962 43.1582H120.408L123.529 53.0002H120.999L120.591 51.5239H117.793L117.385 53.0002H114.84ZM118.285 49.5274H120.085L119.621 47.8402C119.424 47.0903 119.279 46.3826 119.185 45.7171C119.082 46.467 118.941 47.1747 118.763 47.8402L118.285 49.5274Z" fill="#00376A"/>
<path d="M128.468 43.1582H131.055L128.398 50.5819C128.042 51.5661 127.611 52.2503 127.104 52.6346C126.608 53.0096 126.041 53.197 125.403 53.197C124.944 53.197 124.503 53.1314 124.082 53.0002V50.849C124.475 50.9428 124.827 50.9615 125.136 50.9053C125.464 50.8678 125.755 50.6428 126.008 50.2304L122.886 43.1582H125.459L127.161 47.573L128.468 43.1582Z" fill="#00376A"/>
<path d="M110.31 62.4395C110.366 62.4395 110.441 62.4302 110.535 62.4114V63.958C110.169 64.0611 109.804 64.1127 109.438 64.1127C108.838 64.1127 108.388 63.9486 108.088 63.6206C107.629 64.0049 107.034 64.197 106.303 64.197C105.684 64.197 105.169 64.0143 104.756 63.6487C104.344 63.2831 104.138 62.7582 104.138 62.074C104.138 61.3897 104.362 60.8648 104.812 60.4993C105.272 60.1243 105.886 59.9369 106.654 59.9369C106.992 59.9369 107.329 59.979 107.667 60.0634V59.7681C107.667 59.2245 107.32 58.9527 106.626 58.9527C105.923 58.9527 105.234 59.0886 104.559 59.3604V57.4623C105.347 57.1905 106.115 57.0546 106.865 57.0546C107.868 57.0546 108.627 57.2748 109.143 57.7154C109.668 58.1466 109.93 58.8777 109.93 59.9087V62.0177C109.93 62.2989 110.057 62.4395 110.31 62.4395ZM106.964 62.7489C107.254 62.7489 107.488 62.6645 107.667 62.4958V61.3288C107.479 61.2819 107.315 61.2585 107.174 61.2585C106.612 61.2585 106.331 61.5163 106.331 62.0318C106.331 62.5098 106.542 62.7489 106.964 62.7489Z" fill="#00376A"/>
<path d="M119.007 60.6539L120.554 64.0002H118.051L117.179 61.6381H116.729V64.0002H114.494V61.6381H114.044L113.186 64.0002H110.684L112.23 60.6539L110.726 57.2514H113.2L114.03 59.6557H114.494V57.2514H116.729V59.6557H117.193L118.037 57.2514H120.498L119.007 60.6539Z" fill="#00376A"/>
<path d="M124.256 64.197C123.121 64.197 122.24 63.883 121.612 63.255C120.994 62.627 120.684 61.7506 120.684 60.6258C120.684 59.5104 120.956 58.6387 121.5 58.0106C122.053 57.3733 122.817 57.0546 123.792 57.0546C124.766 57.0546 125.521 57.4389 126.055 58.2075C126.599 58.9667 126.815 60.0493 126.702 61.4553H123.075C123.243 62.1583 123.754 62.5098 124.607 62.5098C125.216 62.5098 125.783 62.4114 126.308 62.2146V63.8315C125.746 64.0752 125.062 64.197 124.256 64.197ZM122.976 60.0634H124.593C124.574 59.2667 124.326 58.8683 123.848 58.8683C123.323 58.8683 123.032 59.2667 122.976 60.0634Z" fill="#00376A"/>
<path d="M128.543 64.0002V59.2339H127.066V57.2514H132.339V59.2339H130.849V64.0002H128.543Z" fill="#00376A"/>
<path d="M134.145 60.7383C134.145 60.3071 134.22 59.8994 134.37 59.5151C134.529 59.1214 134.698 58.8074 134.876 58.573C135.064 58.3293 135.232 58.0622 135.382 57.7716C135.542 57.4811 135.621 57.2092 135.621 56.9561C135.621 56.4968 135.317 56.2672 134.707 56.2672C134.089 56.2672 133.451 56.5015 132.795 56.9702V54.6503C133.611 54.191 134.431 53.9614 135.256 53.9614C136.034 53.9614 136.709 54.1676 137.28 54.58C137.862 54.9831 138.152 55.583 138.152 56.3797C138.152 56.8296 138.054 57.2702 137.857 57.7013C137.66 58.1325 137.44 58.4934 137.196 58.7839C136.962 59.0651 136.746 59.3838 136.549 59.74C136.352 60.0962 136.254 60.429 136.254 60.7383H134.145ZM135.2 64.183C134.853 64.183 134.553 64.0752 134.3 63.8596C134.056 63.644 133.934 63.33 133.934 62.9176C133.934 62.5052 134.056 62.1958 134.3 61.9896C134.553 61.774 134.853 61.6662 135.2 61.6662C135.556 61.6662 135.856 61.774 136.099 61.9896C136.352 62.1958 136.479 62.5052 136.479 62.9176C136.479 63.33 136.352 63.644 136.099 63.8596C135.856 64.0752 135.556 64.183 135.2 64.183Z" fill="#00376A"/>
<path d="M99.5397 61.8957H98.9554V64.5243H97V57H98.9554V59.7051H99.5165L100.512 57H103.011L101.183 60.4771H101.188L103.196 64.5243H100.552L99.5397 61.8957ZM104 67H102.05V62.9736H104V67Z" fill="#00376A"/>
</svg>
