<svg width="28" height="26" viewBox="0 0 28 26" fill="none" xmlns="http://www.w3.org/2000/svg">
<path fill-rule="evenodd" clip-rule="evenodd" d="M22.9385 23.8752C22.7867 23.6266 22.8659 23.2994 23.1142 23.1478L25.8026 21.5066C26.0508 21.3552 26.3782 21.4343 26.5299 21.6828C26.6816 21.9311 26.6023 22.2585 26.3539 22.4101L23.6657 24.0511C23.4173 24.2028 23.09 24.1236 22.9385 23.8752Z" fill="#00AEEF" fill-opacity="0.690196"/>
<path fill-rule="evenodd" clip-rule="evenodd" d="M14.531 25.0372C14.6641 24.7782 14.5611 24.4576 14.3023 24.3246L11.5005 22.8857C11.2418 22.7528 10.921 22.8557 10.7882 23.1149C10.6551 23.3738 10.7583 23.6942 11.0171 23.8272L13.8187 25.2662C14.0776 25.3991 14.3981 25.296 14.531 25.0372Z" fill="#00AEEF" fill-opacity="0.690196"/>
<path fill-rule="evenodd" clip-rule="evenodd" d="M14.1685 0.746541C13.6414 0.982341 13.1943 1.32345 12.841 1.73384C12.6278 2.02904 12.48 2.23085 12.4737 2.23945C12.348 2.44655 12.2421 2.66475 12.1578 2.89105L12.1494 2.89336C12.0232 3.27956 11.9144 3.85225 11.9425 4.65195C11.986 5.02865 12.0867 5.40555 12.2498 5.77025C13.1071 7.68724 15.3563 8.54584 17.2732 7.68864C19.1901 6.83144 20.049 4.58234 19.1919 2.66554C19.0151 2.27054 18.7797 1.92106 18.5001 1.62166C17.8942 1.08416 17.346 0.77405 16.886 0.598651C16.4225 0.449151 15.9296 0.387852 15.4342 0.425252C15.0084 0.457352 14.5808 0.562341 14.1685 0.746541Z" fill="#00AEEF" fill-opacity="0.690196"/>
<path fill-rule="evenodd" clip-rule="evenodd" d="M11.4643 15.1554H11.4641L12.4016 17.2029L12.402 17.2036L12.5912 17.6167L12.6418 17.7273L12.6841 17.8198L12.7057 17.8668L12.7283 17.9162C13.2852 19.1334 11.9281 19.5491 11.4588 18.5231L9.40341 14.0282C9.38121 13.9931 9.36602 13.9596 9.35732 13.9276L9.05271 13.2614C8.40181 13.3604 7.87862 13.3579 7.71572 13.005C7.52012 12.5798 7.76171 12.0916 8.29681 11.6084L5.12334 4.66878L1.11903 5.48789C0.399626 5.63509 -0.0140723 3.18298 1.04733 3.19388L5.53982 3.2409C5.83752 3.2441 6.15554 3.4588 6.22924 3.7208L6.23193 3.72689L9.4704 10.8003C10.4371 10.2657 11.6965 9.79158 13.0176 9.48858C14.8181 9.07558 15.9184 8.87358 17.7795 8.71068C20.6256 8.46148 22.0659 8.86158 24.7444 7.80298C25.2225 7.61408 26.5317 6.88959 26.7969 6.85189C27.9848 6.68339 28.1328 8.09139 26.8358 9.59919C24.7441 12.0308 21.9863 11.4357 21.9698 13.7775C22.0238 14.1269 22.1124 14.5001 22.2257 14.8825L22.2558 14.9461L22.2454 14.9478C22.7794 16.7132 24.103 19.4708 24.6034 20.165C24.997 20.711 24.9994 21.0117 23.2103 22.0436C21.5149 23.0214 20.7951 19.5067 19.0647 18.27C17.1821 18.5537 16.0258 24.1315 14.1123 23.2083C12.2521 22.3107 12.2325 22.0105 12.5848 21.437C15.4921 13.9664 13.6597 12.965 11.56 12.8981C11.2307 12.8877 10.8579 12.9337 10.4768 12.9986L10.6035 13.2753H10.6036L11.4643 15.1554Z" fill="#00AEEF" fill-opacity="0.690196"/>
</svg>
