<svg width="778" height="1536" viewBox="0 0 778 1536" fill="none" xmlns="http://www.w3.org/2000/svg">
<g clip-path="url(#clip0)">
<path d="M46 1418L46 1424L732 1424L732 1418L46 1418Z" fill="#CC0053"/>
<path d="M389 1366C419.186 1366 443.732 1390.55 443.998 1421L334.002 1421C334.268 1390.55 358.814 1366 389 1366Z" fill="#A1DBF4" stroke="#CC0053" stroke-width="6"/>
<path d="M732 118L732 112L46 112L46 118L732 118Z" fill="#CC0053"/>
<path d="M389 170C358.814 170 334.268 145.445 334.002 115L443.998 115C443.732 145.445 419.186 170 389 170Z" fill="#A1DBF4" stroke="#CC0053" stroke-width="6"/>
<path fill-rule="evenodd" clip-rule="evenodd" d="M447 324.5C447 383.871 495.129 432 554.5 432C613.871 432 662 383.871 662 324.5C662 265.129 613.871 217 554.5 217C495.129 217 447 265.129 447 324.5ZM441 324.5C441 387.184 491.816 438 554.5 438C617.184 438 668 387.184 668 324.5C668 261.816 617.184 211 554.5 211C491.816 211 441 261.816 441 324.5Z" fill="#CC0053"/>
<path d="M554.5 331C550.91 331 548 328.09 548 324.5C548 320.91 550.91 318 554.5 318C558.09 318 561 320.91 561 324.5C561 328.09 558.09 331 554.5 331Z" fill="#CC0053"/>
<path d="M689 309L689 315L665 315L665 309L689 309Z" fill="#CC0053"/>
<path d="M689 334L689 340L665 340L665 334L689 334Z" fill="#CC0053"/>
<path d="M444 309L444 315L420 315L420 309L444 309Z" fill="#CC0053"/>
<path d="M444 334L444 340L420 340L420 334L444 334Z" fill="#CC0053"/>
<path d="M606 311L606 314L565 314L565 311L606 311Z" fill="#CC0053"/>
<path d="M565 273L568 273L568 314L565 314L565 273Z" fill="#CC0053"/>
<path d="M568 376L565 376L565 335L568 335L568 376Z" fill="#CC0053"/>
<path d="M606 335L606 338L565 338L565 335L606 335Z" fill="#CC0053"/>
<path d="M503 338L503 335L544 335L544 338L503 338Z" fill="#CC0053"/>
<path d="M544 376L541 376L541 335L544 335L544 376Z" fill="#CC0053"/>
<path d="M541 273L544 273L544 314L541 314L541 273Z" fill="#CC0053"/>
<path d="M503 314L503 311L544 311L544 314L503 314Z" fill="#CC0053"/>
<path fill-rule="evenodd" clip-rule="evenodd" d="M116 324.5C116 383.871 164.129 432 223.5 432C282.871 432 331 383.871 331 324.5C331 265.129 282.871 217 223.5 217C164.129 217 116 265.129 116 324.5ZM110 324.5C110 387.184 160.816 438 223.5 438C286.184 438 337 387.184 337 324.5C337 261.816 286.184 211 223.5 211C160.816 211 110 261.816 110 324.5Z" fill="#CC0053"/>
<path d="M223.5 331C219.91 331 217 328.09 217 324.5C217 320.91 219.91 318 223.5 318C227.09 318 230 320.91 230 324.5C230 328.09 227.09 331 223.5 331Z" fill="#CC0053"/>
<path d="M358 309L358 315L334 315L334 309L358 309Z" fill="#CC0053"/>
<path d="M358 334L358 340L334 340L334 334L358 334Z" fill="#CC0053"/>
<path d="M113 309L113 315L89 315L89 309L113 309Z" fill="#CC0053"/>
<path d="M113 334L113 340L89 340L89 334L113 334Z" fill="#CC0053"/>
<path d="M275 311L275 314L234 314L234 311L275 311Z" fill="#CC0053"/>
<path d="M234 273L237 273L237 314L234 314L234 273Z" fill="#CC0053"/>
<path d="M237 376L234 376L234 335L237 335L237 376Z" fill="#CC0053"/>
<path d="M275 335L275 338L234 338L234 335L275 335Z" fill="#CC0053"/>
<path d="M172 338L172 335L213 335L213 338L172 338Z" fill="#CC0053"/>
<path d="M213 376L210 376L210 335L213 335L213 376Z" fill="#CC0053"/>
<path d="M210 273L213 273L213 314L210 314L210 273Z" fill="#CC0053"/>
<path d="M172 314L172 311L213 311L213 314L172 314Z" fill="#CC0053"/>
<path fill-rule="evenodd" clip-rule="evenodd" d="M447 1212.5C447 1271.87 495.129 1320 554.5 1320C613.871 1320 662 1271.87 662 1212.5C662 1153.13 613.871 1105 554.5 1105C495.129 1105 447 1153.13 447 1212.5ZM441 1212.5C441 1275.18 491.816 1326 554.5 1326C617.184 1326 668 1275.18 668 1212.5C668 1149.82 617.184 1099 554.5 1099C491.816 1099 441 1149.82 441 1212.5Z" fill="#CC0053"/>
<path d="M554.5 1219C550.91 1219 548 1216.09 548 1212.5C548 1208.91 550.91 1206 554.5 1206C558.09 1206 561 1208.91 561 1212.5C561 1216.09 558.09 1219 554.5 1219Z" fill="#CC0053"/>
<path d="M689 1197L689 1203L665 1203L665 1197L689 1197Z" fill="#CC0053"/>
<path d="M689 1222L689 1228L665 1228L665 1222L689 1222Z" fill="#CC0053"/>
<path d="M444 1197L444 1203L420 1203L420 1197L444 1197Z" fill="#CC0053"/>
<path d="M444 1222L444 1228L420 1228L420 1222L444 1222Z" fill="#CC0053"/>
<path d="M606 1199L606 1202L565 1202L565 1199L606 1199Z" fill="#CC0053"/>
<path d="M565 1161L568 1161L568 1202L565 1202L565 1161Z" fill="#CC0053"/>
<path d="M568 1264L565 1264L565 1223L568 1223L568 1264Z" fill="#CC0053"/>
<path d="M606 1223L606 1226L565 1226L565 1223L606 1223Z" fill="#CC0053"/>
<path d="M503 1226L503 1223L544 1223L544 1226L503 1226Z" fill="#CC0053"/>
<path d="M544 1264L541 1264L541 1223L544 1223L544 1264Z" fill="#CC0053"/>
<path d="M541 1161L544 1161L544 1202L541 1202L541 1161Z" fill="#CC0053"/>
<path d="M503 1202L503 1199L544 1199L544 1202L503 1202Z" fill="#CC0053"/>
<path fill-rule="evenodd" clip-rule="evenodd" d="M116 1212.5C116 1271.87 164.129 1320 223.5 1320C282.871 1320 331 1271.87 331 1212.5C331 1153.13 282.871 1105 223.5 1105C164.129 1105 116 1153.13 116 1212.5ZM110 1212.5C110 1275.18 160.816 1326 223.5 1326C286.184 1326 337 1275.18 337 1212.5C337 1149.82 286.184 1099 223.5 1099C160.816 1099 110 1149.82 110 1212.5Z" fill="#CC0053"/>
<path d="M223.5 1219C219.91 1219 217 1216.09 217 1212.5C217 1208.91 219.91 1206 223.5 1206C227.09 1206 230 1208.91 230 1212.5C230 1216.09 227.09 1219 223.5 1219Z" fill="#CC0053"/>
<path d="M358 1197L358 1203L334 1203L334 1197L358 1197Z" fill="#CC0053"/>
<path d="M358 1222L358 1228L334 1228L334 1222L358 1222Z" fill="#CC0053"/>
<path d="M113 1197L113 1203L89 1203L89 1197L113 1197Z" fill="#CC0053"/>
<path d="M113 1222L113 1228L89 1228L89 1222L113 1222Z" fill="#CC0053"/>
<path d="M275 1199L275 1202L234 1202L234 1199L275 1199Z" fill="#CC0053"/>
<path d="M234 1161L237 1161L237 1202L234 1202L234 1161Z" fill="#CC0053"/>
<path d="M237 1264L234 1264L234 1223L237 1223L237 1264Z" fill="#CC0053"/>
<path d="M275 1223L275 1226L234 1226L234 1223L275 1223Z" fill="#CC0053"/>
<path d="M172 1226L172 1223L213 1223L213 1226L172 1226Z" fill="#CC0053"/>
<path d="M213 1264L210 1264L210 1223L213 1223L213 1264Z" fill="#CC0053"/>
<path d="M210 1161L213 1161L213 1202L210 1202L210 1161Z" fill="#CC0053"/>
<path d="M172 1202L172 1199L213 1199L213 1202L172 1202Z" fill="#CC0053"/>
<path d="M762 543L762 538L15 538L15 543L762 543Z" fill="#009EE0"/>
<path fill-rule="evenodd" clip-rule="evenodd" d="M154 769.5C154 846.377 91.814 908.73 15 908.999L15 902.999C88.5 902.73 148 843.063 148 769.5C148 695.937 88.5 636.271 15 636.001L15 630.001C91.814 630.27 154 692.623 154 769.5Z" fill="#CC0053"/>
<path d="M762 999L762 994L15 994L15 999L762 999Z" fill="#009EE0"/>
<path d="M549 594.5C549 598.09 551.91 601 555.5 601C559.09 601 562 598.09 562 594.5C562 590.91 559.09 588 555.5 588C551.91 588 549 590.91 549 594.5Z" fill="#CC0053"/>
<path d="M549 942.5C549 946.09 551.91 949 555.5 949C559.09 949 562 946.09 562 942.5C562 938.91 559.09 936 555.5 936C551.91 936 549 938.91 549 942.5Z" fill="#CC0053"/>
<path d="M217 942.5C217 946.09 219.91 949 223.5 949C227.09 949 230 946.09 230 942.5C230 938.91 227.09 936 223.5 936C219.91 936 217 938.91 217 942.5Z" fill="#CC0053"/>
<path d="M217 594.5C217 598.09 219.91 601 223.5 601C227.09 601 230 598.09 230 594.5C230 590.91 227.09 588 223.5 588C219.91 588 217 590.91 217 594.5Z" fill="#CC0053"/>
<path fill-rule="evenodd" clip-rule="evenodd" d="M20.452 773L32.935 773L32.935 763L20.452 763L20.452 773ZM45.419 763L45.419 773L57.903 773L57.903 763L45.419 763ZM70.387 763L70.387 773L82.871 773L82.871 763L70.387 763ZM95.355 763L95.355 773L107.839 773L107.839 763L95.355 763ZM120.323 763L120.323 773L132.807 773L132.806 763L120.323 763ZM145.29 763L145.29 773L157.774 773L157.774 763L145.29 763ZM170.258 763L170.258 773L182.742 773L182.742 763L170.258 763ZM195.226 763L195.226 773L207.71 773L207.71 763L195.226 763ZM220.193 763L220.194 773L232.678 773L232.677 763L220.193 763ZM245.161 763L245.162 773L257.645 773L257.645 763L245.161 763ZM270.129 763L270.129 773L282.613 773L282.613 763L270.129 763ZM295.097 763L295.097 773L307.581 773L307.581 763L295.097 763ZM320.064 763L320.064 773L332.548 773L332.549 763L320.064 763ZM345.032 763L345.032 773L357.516 773L357.516 763L345.032 763ZM370 763L370 773L382.484 773L382.484 763L370 763ZM394.968 763L394.968 773L407.451 773L407.452 763L394.968 763ZM419.935 763L419.935 773L432.419 773L432.419 763L419.935 763ZM444.903 763L444.903 773L457.387 773L457.387 763L444.903 763ZM469.871 763L469.871 773L482.355 773L482.355 763L469.871 763ZM494.838 763L494.838 773L507.322 773L507.323 763L494.838 763ZM519.806 763L519.806 773L532.29 773L532.29 763L519.806 763ZM544.774 763L544.774 773L557.258 773L557.258 763L544.774 763ZM569.742 763L569.742 773L582.226 773L582.226 763L569.742 763ZM594.71 763L594.71 773L607.193 773L607.194 763L594.71 763ZM619.677 763L619.677 773L632.161 773L632.161 763L619.677 763ZM644.645 763L644.645 773L657.129 773L657.129 763L644.645 763ZM669.613 763L669.613 773L682.097 773L682.097 763L669.613 763ZM694.581 763L694.581 773L707.064 773L707.064 763L694.581 763ZM719.548 763L719.548 773L732.032 773L732.032 763L719.548 763ZM744.516 763L744.516 773L757 773L757 763L744.516 763Z" fill="#CC0053"/>
<path fill-rule="evenodd" clip-rule="evenodd" d="M282.726 768.5C282.726 827.871 330.855 876 390.226 876C449.596 876 497.726 827.871 497.726 768.5C497.726 709.129 449.596 661 390.226 661C330.855 661 282.726 709.129 282.726 768.5ZM276.726 768.5C276.726 831.184 327.542 882 390.226 882C452.91 882 503.726 831.184 503.726 768.5C503.726 705.816 452.91 655 390.226 655C327.542 655 276.726 705.816 276.726 768.5Z" fill="#009EE0"/>
<path d="M375.726 768C375.726 775.18 381.546 781 388.726 781C395.906 781 401.726 775.18 401.726 768C401.726 760.82 395.906 755 388.726 755C381.546 755 375.726 760.82 375.726 768Z" fill="#CC0053"/>
<path fill-rule="evenodd" clip-rule="evenodd" d="M759 1315L759 221C759 109.438 668.562 19 557 19L221 19C109.438 19 19 109.438 19 221L18.9999 1315C18.9999 1426.56 109.438 1517 221 1517L557 1517C668.562 1517 759 1426.56 759 1315ZM778 221C778 98.9451 679.055 -4.32503e-06 557 -9.66022e-06L221 -2.43472e-05C98.945 -2.96824e-05 -4.32502e-06 98.945 -9.66022e-06 221L-5.74805e-05 1315C-6.28155e-05 1437.05 98.9449 1536 221 1536L557 1536C679.055 1536 778 1437.05 778 1315L778 221Z" fill="#6E6E71"/>
</g>
<defs>
<clipPath id="clip0">
<rect x="778" width="1536" height="778" transform="rotate(90 778 0)" fill="white"/>
</clipPath>
</defs>
</svg>
