<svg width="81" height="104" viewBox="0 0 81 104" fill="none" xmlns="http://www.w3.org/2000/svg">
<path fill-rule="evenodd" clip-rule="evenodd" d="M20.7278 64.9284C20.4701 64.5468 20.4696 64.0915 20.7268 63.9161L24.9201 61.0533C25.1772 60.878 25.598 61.0464 25.8557 61.4278C26.1134 61.8094 26.3397 62.807 26.0652 62.9533L21.6635 65.3028C21.3892 65.4491 20.9856 65.3098 20.7279 64.9284H20.7278Z" fill="#A1DBF4"/>
<path fill-rule="evenodd" clip-rule="evenodd" d="M4.09097 77.0827C4.59598 77.6545 5.18997 78.2222 5.85364 78.6048C6.34041 78.8855 6.87146 79.0696 7.43875 79.0696C7.82268 79.0696 8.19809 78.9861 8.49743 78.7361C8.7356 78.537 8.85068 78.3073 8.85068 77.995C8.85068 77.7009 8.79052 77.4075 8.56293 77.2059C8.20087 76.8855 7.07326 76.5679 6.61067 76.4441C5.38919 76.1166 3.9298 75.5796 3.03552 74.6464C2.20699 73.7819 1.90699 72.6518 1.90699 71.4761C1.90699 69.8613 2.43644 68.4452 3.61595 67.332C4.81919 66.1966 6.33466 65.7352 7.97302 65.7352C8.87537 65.7352 9.7701 65.8536 10.6346 66.1121C11.4894 66.3677 12.2919 66.7586 13.0298 67.2596C13.2608 67.4162 13.3455 67.7119 13.2341 67.9672L11.8727 71.0838C11.7979 71.2549 11.6577 71.3725 11.4744 71.4145C11.2911 71.4565 11.1142 71.4135 10.9715 71.2921C10.5617 70.944 10.1065 70.6412 9.60796 70.4359C9.18896 70.2636 8.74739 70.1605 8.29196 70.1605C7.97075 70.1605 7.63314 70.2193 7.3726 70.4174C7.19963 70.5491 7.11014 70.7002 7.11014 70.9198C7.11014 71.1315 7.16713 71.2985 7.33037 71.4351C7.63294 71.6885 8.38467 71.9028 8.77228 72.005L8.96162 72.059C10.1123 72.3701 11.8658 72.9138 12.7157 73.7909C13.1617 74.2513 13.4884 74.8007 13.7045 75.4032C13.9365 76.0504 14.0315 76.7331 14.0315 77.4197C14.0315 79.1662 13.4765 80.7183 12.1849 81.9131C10.8502 83.1475 9.14725 83.606 7.35737 83.606C6.2415 83.606 5.14018 83.4254 4.10664 82.9983C3.05581 82.5642 2.12259 81.8927 1.30535 81.1081C1.1091 80.9196 1.07015 80.6269 1.21153 80.3935L3.16626 77.1655C3.26426 77.0037 3.4197 76.9063 3.60763 76.8902C3.79532 76.874 3.96576 76.9407 4.09097 77.0827V77.0827ZM26.2021 80.3335H20.9097L20.2031 82.7674C20.1305 83.0174 19.9101 83.183 19.6497 83.183H15.3323C15.14 83.183 14.9746 83.0976 14.863 82.9411C14.7514 82.7844 14.7249 82.6004 14.7876 82.4186L20.2811 66.5022C20.3627 66.2655 20.5756 66.1138 20.8257 66.1138H26.2597C26.51 66.1138 26.7228 66.2655 26.8044 66.5019L32.3014 82.4184C32.3641 82.6002 32.3376 82.7844 32.226 82.9411C32.1144 83.0976 31.949 83.183 31.7567 83.183H27.4429C27.1812 83.183 26.9597 83.0153 26.8884 82.7632L26.2021 80.3335V80.3335ZM22.1895 76.0866H24.9447L23.5577 71.591L22.1895 76.0866V76.0866ZM39.5105 78.3126H44.32C44.6373 78.3126 44.8963 78.5716 44.8963 78.889V82.6066C44.8963 82.924 44.6373 83.183 44.32 83.183H34.5944C34.2771 83.183 34.0182 82.924 34.0182 82.6066V66.6901C34.0182 66.3727 34.2771 66.1138 34.5944 66.1138H38.9343C39.2515 66.1138 39.5105 66.3727 39.5105 66.6901V78.3126V78.3126ZM52.5634 70.7616V72.369H57.1912C57.5085 72.369 57.7675 72.628 57.7675 72.9454V76.3514C57.7675 76.6687 57.5085 76.9278 57.1912 76.9278H52.5634V78.4685H57.5067C57.824 78.4685 58.0829 78.7275 58.0829 79.0449V82.6066C58.0829 82.924 57.824 83.183 57.5067 83.183H47.7587C47.4414 83.183 47.1824 82.924 47.1824 82.6066V66.6901C47.1824 66.3727 47.4414 66.1138 47.7587 66.1138H57.5067C57.824 66.1138 58.0829 66.3727 58.0829 66.6901V70.1851C58.0829 70.5025 57.824 70.7616 57.5067 70.7616H52.5634V70.7616ZM74.3607 75.5971L72.2851 82.7669C72.2127 83.0171 71.992 83.183 71.7317 83.183H68.8386C68.5783 83.183 68.3576 83.0171 68.2852 82.7669L66.1969 75.5538C66.1863 75.6364 66.1752 75.7192 66.1639 75.8017L65.2291 82.6841C65.1902 82.9717 64.9483 83.183 64.6581 83.183H60.6262C60.4521 83.183 60.3022 83.114 60.1888 82.9819C60.0753 82.8495 60.0301 82.6908 60.0566 82.5187L62.5122 66.6023C62.556 66.319 62.7954 66.1138 63.0818 66.1138H67.3734C67.6333 66.1138 67.8535 66.2789 67.9266 66.5282L70.2709 74.5468L72.6444 66.5266C72.7179 66.2779 72.9377 66.1138 73.1969 66.1138H77.4996C77.7862 66.1138 78.0255 66.3192 78.0691 66.6027L80.5137 82.5192C80.5402 82.6912 80.4948 82.8497 80.3813 82.9819C80.2681 83.114 80.1182 83.183 79.9441 83.183H75.8898C75.5995 83.183 75.3576 82.9715 75.3188 82.6839L74.3879 75.8015C74.3787 75.7335 74.3697 75.6652 74.3607 75.5971V75.5971Z" fill="#E9F1F7"/>
<path fill-rule="evenodd" clip-rule="evenodd" d="M6.9934 91.5645H12.0859V85.457C12.0859 85.1371 12.3469 84.8761 12.6667 84.8761H17.357C17.6768 84.8761 17.9377 85.1371 17.9377 85.457V102.659C17.9377 102.979 17.6768 103.24 17.357 103.24H12.6667C12.3469 103.24 12.0859 102.979 12.0859 102.659V96.2388H6.9934V102.659C6.9934 102.979 6.73246 103.24 6.41271 103.24H1.72233C1.40259 103.24 1.1416 102.979 1.1416 102.659V85.457C1.1416 85.1371 1.40259 84.8761 1.72233 84.8761H6.41271C6.73246 84.8761 6.9934 85.1371 6.9934 85.457V91.5645V91.5645ZM39.8827 94.0942C39.8827 95.3716 39.6499 96.6169 39.1561 97.7953C38.6648 98.9674 37.9524 100.004 37.0409 100.89C36.1159 101.79 35.0426 102.482 33.8485 102.969C32.6571 103.454 31.408 103.697 30.1216 103.697C28.8271 103.697 27.5679 103.458 26.3699 102.968C25.1843 102.483 24.1367 101.784 23.2214 100.889C22.3059 99.9947 21.5733 98.9648 21.0756 97.7843C20.5805 96.6096 20.3444 95.3694 20.3444 94.0942C20.3444 92.8152 20.5778 91.5731 21.076 90.3953C21.5735 89.2192 22.3093 88.1904 23.2214 87.299C24.1365 86.4047 25.1843 85.7047 26.3699 85.22C27.5679 84.7302 28.8269 84.4911 30.1216 84.4911C31.4129 84.4911 32.6713 84.7337 33.8678 85.2196C35.0611 85.7039 36.1239 86.398 37.0428 87.3C37.9493 88.1899 38.6584 89.2218 39.1516 90.3919C39.6482 91.5702 39.8827 92.8154 39.8827 94.0942V94.0942ZM47.6331 91.4202L52.012 85.1252C52.1239 84.9643 52.2926 84.8761 52.4886 84.8761H57.9486C58.1744 84.8761 58.368 84.996 58.4686 85.1983C58.5692 85.4007 58.5479 85.6274 58.4115 85.8076L52.3314 93.8394L58.959 102.301C59.0993 102.48 59.1235 102.709 59.0239 102.913C58.9243 103.118 58.7295 103.24 58.5019 103.24H52.653C52.4609 103.24 52.2957 103.156 52.183 103L47.6331 96.7294V102.659C47.6331 102.979 47.3722 103.24 47.0524 103.24H42.4102C42.0904 103.24 41.5107 102.979 41.5107 102.659L41.8295 85.457C41.8295 85.1371 42.0904 84.8761 42.4102 84.8761H47.0524C47.3722 84.8761 47.6331 85.1371 47.6331 85.457V91.4202V91.4202ZM66.1052 89.815V91.6367H71.149C71.4687 91.6367 71.7297 91.8977 71.7297 92.2175V95.8986C71.7297 96.2184 71.4687 96.4794 71.149 96.4794H66.1052V98.2289H71.4898C71.8095 98.2289 72.0705 98.4899 72.0705 98.8097V102.659C72.0705 102.979 71.8095 103.24 71.4898 103.24H60.9543C60.6346 103.24 60.3736 102.979 60.3736 102.659V85.457C60.3736 85.1371 60.6346 84.8761 60.9543 84.8761H71.4898C71.8095 84.8761 72.0705 85.1371 72.0705 85.457V89.2342C72.0705 89.554 71.8095 89.815 71.4898 89.815H66.1052V89.815ZM74.6063 102.659V85.457C74.6063 85.1371 74.8673 84.8761 75.187 84.8761H79.9257C80.2455 84.8761 80.5064 85.1401 80.5064 85.457V102.659C80.5064 102.976 80.2424 103.24 79.9257 103.24H75.187C74.8703 103.24 74.6063 102.979 74.6063 102.659V102.659ZM30.1136 98.5656C31.2349 98.5656 32.1569 98.1682 32.9026 97.3291C33.714 96.4161 34.0309 95.3046 34.0309 94.0942C34.0309 92.884 33.7031 91.7848 32.8877 90.8725C32.1433 90.0393 31.2317 89.6226 30.1136 89.6226C28.9906 89.6226 28.0703 90.026 27.3248 90.8666C26.5166 91.7779 26.1962 92.8861 26.1962 94.0942C26.1962 95.2992 26.4981 96.4246 27.3055 97.3385C28.053 98.1845 28.9886 98.5656 30.1136 98.5656Z" fill="#E9F1F7"/>
<path fill-rule="evenodd" clip-rule="evenodd" d="M4.09119 77.0827C4.59615 77.6546 5.19014 78.2221 5.85391 78.6048C5.98743 78.6818 6.12428 78.7516 6.26435 78.8121C4.63072 79.1593 3.04168 79.5318 1.49512 79.9254L3.16654 77.1655C3.26454 77.0037 3.41997 76.9063 3.60786 76.8902C3.79554 76.8741 3.96589 76.9406 4.09119 77.0827V77.0827ZM8.80696 78.2992C8.83634 78.2066 8.85095 78.1059 8.85095 77.9949C8.85095 77.7009 8.79064 77.4075 8.56305 77.2059C8.20103 76.8855 7.07348 76.568 6.61094 76.4441C5.38946 76.1165 3.92997 75.5797 3.03574 74.6464C2.20731 73.782 1.90722 72.6518 1.90722 71.4761C1.90722 69.8613 2.43671 68.4452 3.61622 67.3321C4.81946 66.1966 6.33484 65.7352 7.97331 65.7352C8.8756 65.7352 9.77027 65.8536 10.6348 66.1121C11.4896 66.3678 12.292 66.7586 13.0301 67.2596C13.261 67.4163 13.3457 67.7118 13.2344 67.9672L11.8729 71.0837C11.7982 71.2549 11.658 71.3725 11.4747 71.4146C11.2912 71.4564 11.1145 71.4136 10.9717 71.292C10.5619 70.9441 10.1067 70.6412 9.60814 70.436C9.18919 70.2636 8.74757 70.1605 8.29224 70.1605C7.97104 70.1605 7.63335 70.2193 7.37276 70.4174C7.19979 70.5491 7.11046 70.7002 7.11046 70.9197C7.11046 71.1315 7.1674 71.2986 7.3306 71.435C7.63306 71.6885 8.38494 71.9028 8.77255 72.0049L8.96175 72.059C10.1125 72.3701 11.8659 72.9137 12.7159 73.7909C13.1619 74.2512 13.4886 74.8008 13.7048 75.4032C13.9339 76.0421 14.0294 76.7155 14.0318 77.3933C12.2511 77.6689 10.5088 77.9716 8.80696 78.2992V78.2992ZM16.6543 77.011L20.2813 66.5022C20.3629 66.2655 20.5757 66.1138 20.826 66.1138H26.26C26.5101 66.1138 26.7231 66.2655 26.8047 66.5019L29.9894 75.7235C25.3781 75.9909 20.9172 76.4255 16.6543 77.011V77.011ZM22.1897 76.0865H24.9448L23.5578 71.5909L22.1897 76.0865V76.0865ZM34.0185 75.5347V66.6901C34.0185 66.3728 34.2774 66.1138 34.5947 66.1138H38.9344C39.2518 66.1138 39.5108 66.3728 39.5108 66.6901V75.4179C37.6618 75.4309 35.8296 75.4694 34.0185 75.5347V75.5347ZM52.5636 70.7615V72.369H57.1914C57.5087 72.369 57.7678 72.628 57.7678 72.9454V76.1829C54.3336 75.8645 50.7977 75.6419 47.1826 75.5201V66.6901C47.1826 66.3728 47.4416 66.1138 47.759 66.1138H57.5068C57.8243 66.1138 58.0832 66.3728 58.0832 66.6901V70.1851C58.0832 70.5025 57.8243 70.7615 57.5068 70.7615H52.5636V70.7615ZM74.3609 75.5971L73.5392 78.4351C71.3248 77.9971 69.0387 77.6021 66.6892 77.2532L66.1971 75.5538C66.1865 75.6362 66.1755 75.7191 66.1641 75.8018L65.9811 77.1495C64.3448 76.9144 62.6776 76.7017 60.9836 76.512L62.5125 66.6023C62.5563 66.319 62.7956 66.1138 63.082 66.1138H67.3736C67.6335 66.1138 67.8538 66.2789 67.9268 66.5283L70.2711 74.5468L72.6446 66.5266C72.7181 66.2779 72.9379 66.1138 73.1972 66.1138H77.4998C77.7864 66.1138 78.0258 66.3192 78.0694 66.6027L80.114 79.9154C78.39 79.4771 76.6099 79.0672 74.7784 78.6869L74.3881 75.8015C74.379 75.7334 74.37 75.6652 74.3609 75.5971V75.5971Z" fill="#A1DBF4"/>
<path fill-rule="evenodd" clip-rule="evenodd" d="M6.9933 91.5645H12.0859V85.4569C12.0859 85.1372 12.3468 84.876 12.6666 84.876H17.357C17.6767 84.876 17.9378 85.1372 17.9378 85.4569V94.2883C11.9177 95.065 6.27642 96.1391 1.1416 97.4635V85.4569C1.1416 85.1372 1.4025 84.876 1.72235 84.876H6.41271C6.73241 84.876 6.9933 85.1372 6.9933 85.4569V91.5645ZM20.3449 93.9947C20.3567 92.7508 20.5907 91.5424 21.0759 90.3952C21.5734 89.2192 22.3091 88.1905 23.2214 87.2989C24.1364 86.4047 25.1842 85.7046 26.3699 85.22C27.568 84.7301 28.8269 84.4911 30.1215 84.4911C31.4129 84.4911 32.6713 84.7336 33.8677 85.2195C35.061 85.7039 36.1238 86.398 37.0428 87.3C37.9492 88.1897 38.6584 89.2216 39.1516 90.3918C39.4874 91.1886 39.7031 92.0163 39.8079 92.8641C37.8269 92.8746 35.8655 92.9149 33.928 92.9853C33.7756 92.2098 33.4462 91.4972 32.8877 90.8724C32.1434 90.0394 31.2316 89.6226 30.1136 89.6226C28.9906 89.6226 28.0703 90.0259 27.3248 90.8665C26.6673 91.6078 26.3327 92.4795 26.2307 93.429C24.236 93.5868 22.272 93.7751 20.3449 93.9947ZM47.633 91.4201L52.0119 85.1251C52.1238 84.9642 52.2925 84.876 52.4886 84.876H57.9486C58.1743 84.876 58.368 84.996 58.4685 85.1984C58.5691 85.4006 58.5479 85.6273 58.4113 85.8076L52.7851 93.24C49.1755 93.0084 45.4698 92.8808 41.6921 92.8635L41.8294 85.4569C41.8294 85.1372 42.0903 84.876 42.4102 84.876H47.0524C47.3721 84.876 47.633 85.1372 47.633 85.4569V91.4201V91.4201ZM66.1052 89.815V91.6366H71.149C71.4687 91.6366 71.7296 91.8976 71.7296 92.2174V95.5378C68.112 94.8719 64.3153 94.3195 60.3735 93.8925V85.4569C60.3735 85.1372 60.6344 84.876 60.9543 84.876H71.4897C71.8095 84.876 72.0704 85.1372 72.0704 85.4569V89.2341C72.0704 89.554 71.8095 89.815 71.4897 89.815H66.1052V89.815ZM74.6062 96.0989V85.4569C74.6062 85.1372 74.8673 84.876 75.187 84.876H79.9256C80.2454 84.876 80.5064 85.14 80.5064 85.4569V97.4634C78.6068 96.9735 76.6381 96.5179 74.6062 96.0989Z" fill="#A1DBF4"/>
<path fill-rule="evenodd" clip-rule="evenodd" d="M3.74592 46.4714C4.24105 46.4405 4.67196 46.8211 4.70289 47.3157L5.04964 52.8681C5.08058 53.3629 4.70072 53.7943 4.20533 53.8253C3.70975 53.8563 3.27952 53.4763 3.24838 52.9806L2.90163 47.4284C2.87069 46.9329 3.25034 46.5023 3.74592 46.4714ZM26.4606 19.0443C26.4606 19.0443 27.3252 19.7621 26.7498 20.5742C26.1745 21.386 25.8321 21.4666 25.2193 21.864C22.4528 22.8445 20.5329 25.2461 20.7452 28.6428C20.9572 32.0394 24.179 35.1865 27.8962 34.9541C31.6134 34.7217 34.4117 31.0935 34.206 27.8016C34.0005 24.5096 32.083 22.5997 29.4991 21.7862C29.4458 20.8713 29.0487 18.6905 26.4606 19.0443V19.0443ZM1.99173 29.7452L17.8298 9.14972L13.4039 3.76428C12.6095 2.79772 15.9765 0.219079 16.8051 1.82789L20.3143 8.63965C20.5471 9.09151 20.4765 9.74178 20.14 10.0616L20.1335 10.0707L10.5897 22.4923C11.0262 22.9158 11.4994 23.4885 11.9993 24.1056C20.6687 34.8102 25.1314 41.6848 38.5554 33.4515C40.5775 32.2114 41.0667 33.494 40.2527 35.3567C38.6735 38.9706 35.7819 39.6867 33.0265 41.8175C28.0632 45.6561 25.8877 50.3806 24.6358 52.9289C23.3838 55.4772 23.4182 57.6369 24.1017 58.559C24.9545 59.7102 24.0607 60.7273 20.5412 60.8594C17.0215 60.9913 19.2382 54.7864 17.105 51.6997C14.9718 48.613 8.8152 52.4177 7.5193 52.852C6.223 53.286 6.05326 49.1498 6.88249 46.8924C7.71198 44.6346 13.395 45.2502 15.8276 43.2456C18.2602 41.2409 17.2442 39.4962 13.6543 34.6762C10.0646 29.8562 9.09524 27.5298 8.50181 25.21L3.91809 31.1757C2.52676 32.9857 0.818766 31.2705 1.99173 29.7452Z" fill="#009EE0"/>
<path fill-rule="evenodd" clip-rule="evenodd" d="M47.6442 22.4244C49.3779 21.9032 51.1589 22.143 52.6291 22.95C52.8987 22.8212 53.2075 22.7926 53.4967 22.8698C53.456 17.1942 57.9505 18.0524 59.1361 23.0586C57.2215 22.8438 55.6009 23.3661 54.6167 23.8137C54.7431 24.0936 54.7634 24.4129 54.6716 24.707C55.1295 25.3087 55.4898 26.0012 55.7202 26.7683C56.7512 30.1984 54.8066 33.8146 51.3775 34.8459C47.9482 35.8771 44.3328 33.9322 43.302 30.5025C43.0895 29.7958 43.0036 29.0821 43.0304 28.3838C42.6917 28.1957 42.4634 27.86 42.4036 27.4857C41.3357 27.6556 39.6953 28.1136 38.2166 29.3487C36.446 24.5182 39.7226 21.324 42.8173 26.0808C43.0524 25.8159 43.3933 25.6587 43.7516 25.6574C44.5296 24.1516 45.8933 22.9513 47.6442 22.4244V22.4244ZM74.6347 45.4557C74.1382 45.4557 73.7324 45.8621 73.7324 46.3583V51.8058C73.7324 52.302 74.1382 52.7083 74.6347 52.7083C75.1311 52.7083 75.5369 52.3024 75.5369 51.8058V46.3583C75.5369 45.8616 75.1311 45.4557 74.6347 45.4557ZM38.7726 46.8315C39.2494 47.3477 40.7715 47.2174 43.7411 46.3057C52.5881 43.5893 55.5907 51.3049 54.9807 59.258C54.8928 60.4027 55.1568 60.8429 58.6778 60.755C62.199 60.6671 59.691 54.2591 61.6278 51.0452C63.5645 47.8314 69.9462 51.2449 71.2666 51.5974C72.5871 51.9499 72.4991 47.8111 71.5304 45.6099C70.5618 43.4084 64.9268 44.3761 62.3754 42.5282C57.5523 39.0355 65.4156 33.0129 66.5766 25.7268L69.9814 29.6284C71.4828 31.3481 73.0805 29.5299 71.815 28.0806L66.2699 21.7321C66.2309 21.673 66.1895 21.6257 66.1457 21.59L54.7237 8.51294L58.8053 2.86196C59.5385 1.84682 56.017 -0.516427 55.29 1.14137L52.2122 8.15895C52.0084 8.62412 52.1191 9.26894 52.4748 9.56714L52.482 9.57586L64.2579 23.0699C60.0076 28.8432 59.3691 32.4772 52.9844 36.1931C51.0196 37.3365 36.0621 43.8923 38.7726 46.8315V46.8315ZM60.8589 63.4391C60.8589 62.9425 60.4527 62.5364 59.9565 62.5364H54.586C54.0899 62.5364 53.6838 62.9425 53.6838 63.4391C53.6838 63.9354 54.0897 64.3416 54.586 64.3416H59.9565C60.4529 64.3416 60.8589 63.9354 60.8589 63.4391Z" fill="#CC0053"/>
<path fill-rule="evenodd" clip-rule="evenodd" d="M39.8138 78.0094H44.3204C44.8049 78.0094 45.1995 78.4042 45.1995 78.8888V82.6065C45.1995 83.0911 44.8049 83.4859 44.3204 83.4859H34.5947C34.1102 83.4859 33.7155 83.0911 33.7155 82.6065V66.69C33.7155 66.2055 34.1103 65.8107 34.5947 65.8107H38.9345C39.419 65.8107 39.8138 66.2054 39.8138 66.69V78.0094V78.0094ZM39.2041 78.6192V66.69C39.2041 66.5419 39.0824 66.4206 38.9345 66.4206H34.5947C34.4469 66.4206 34.3252 66.5422 34.3252 66.69V82.6065C34.3252 82.7544 34.4468 82.876 34.5947 82.876H44.3204C44.4683 82.876 44.5898 82.7544 44.5898 82.6065V78.8888C44.5898 78.7409 44.4683 78.6192 44.3204 78.6192H39.2041V78.6192ZM54.7113 62.5996C54.3917 62.5996 54.1294 62.8621 54.1294 63.1818C54.1294 63.5014 54.3918 63.7639 54.7113 63.7639H60.0957C60.4153 63.7639 60.6776 63.5014 60.6776 63.1817C60.6776 62.8621 60.4152 62.5996 60.0957 62.5996H54.7113ZM54.4576 8.26021L58.6821 2.41143C58.7016 2.38436 58.7151 2.35644 58.7209 2.32343C58.8005 1.87289 57.9242 1.20246 57.5967 1.01096C57.2046 0.781802 56.393 0.443287 55.9497 0.697538C55.8308 0.765775 55.7508 0.869289 55.6963 0.993819L52.6185 8.0114C52.4841 8.31786 52.5258 8.82223 52.7882 9.05335L52.8183 9.07981L64.7748 22.781L64.4886 23.1745C63.5591 24.452 62.702 25.7792 61.8656 27.119C61.1205 28.3125 60.3864 29.5142 59.5521 30.6487C57.8 33.0307 55.8111 34.7052 53.264 36.1873C52.8982 36.4003 52.5169 36.584 52.1386 36.773C51.5294 37.0771 50.9183 37.3775 50.3089 37.6814C48.7021 38.4828 47.104 39.303 45.538 40.182C43.8758 41.115 42.1711 42.1235 40.6964 43.3362C40.0936 43.8318 38.72 45.0325 38.892 45.9197C38.9242 46.0865 39.0092 46.2287 39.1234 46.3525C39.46 46.7174 40.9491 46.4695 41.3767 46.3852C42.1956 46.2237 42.9806 45.9859 43.7767 45.7414C46.4185 44.9305 49.3039 44.8206 51.6112 46.5636C55.1461 49.2341 55.7257 54.9134 55.4118 59.0106C55.3965 59.2101 55.3771 59.5094 55.4737 59.692C55.6023 59.9351 55.9927 60.0273 56.2399 60.0739C57.0454 60.2262 57.9764 60.1979 58.7955 60.1775C59.1695 60.1681 59.529 60.0789 59.8114 59.8216C60.3139 59.3638 60.4493 58.4706 60.5092 57.8278C60.6066 56.7835 60.5699 55.727 60.604 54.6792C60.6477 53.3316 60.7808 51.7938 61.4905 50.616C62.6503 48.6916 65.1781 48.974 67.0342 49.4551C67.9689 49.6972 68.8782 50.0251 69.7758 50.3785C70.3268 50.5956 70.9012 50.878 71.471 51.0301C71.5136 51.0414 71.5599 51.0463 71.6023 51.0316C71.9846 50.8992 72.0618 49.7229 72.0706 49.4015C72.0873 48.7875 72.039 48.1248 71.9423 47.5171C71.8322 46.8252 71.6578 46.1053 71.3749 45.4627C71.345 45.3945 71.3089 45.3291 71.2674 45.2673C70.8898 44.7056 70.0495 44.4408 69.4244 44.289C68.424 44.046 67.3879 43.9421 66.3708 43.7902C65.038 43.5913 63.4305 43.3092 62.3208 42.5057C61.5632 41.9571 60.9751 41.2567 60.7472 40.3328C60.321 38.6045 61.3284 36.5626 62.1229 35.0671C63.2313 32.9808 64.5024 30.9704 65.4064 28.7815C65.7779 27.8823 66.0881 26.9542 66.289 26.0013L66.5413 24.8051L70.3381 29.1556C70.6653 29.5307 71.2693 29.9752 71.762 29.6233C72.3128 29.2301 72.0874 28.4445 71.7094 28.0115L66.1533 21.6504L66.1331 21.6212C66.1185 21.5997 66.1011 21.5778 66.0816 21.5605L66.0516 21.5341L54.4576 8.26016V8.26021ZM38.4928 28.5678C39.5811 27.7544 40.8599 27.2157 42.1944 26.9618L42.7001 26.8656L42.8797 27.3482C42.9443 27.5215 43.0583 27.6735 43.2078 27.7828L43.4635 27.9696L43.4577 28.2864C43.4174 30.4978 44.3019 32.452 46.2243 33.6216C47.7023 34.5208 49.7484 34.8667 51.4012 34.2856C53.0634 33.7015 54.6617 32.3606 55.4511 30.777C56.5013 28.6702 55.9848 26.5606 54.6356 24.7322L54.4752 24.5148L54.5283 24.25C54.555 24.1172 54.5528 23.9789 54.5225 23.8468L54.4072 23.3458L54.8814 23.1473C56.1333 22.6235 57.4992 22.3671 58.8547 22.4453C58.5747 21.4756 58.1064 20.4923 57.4012 19.7854C56.9259 19.3091 56.2173 18.865 55.5159 19.0142C54.2302 19.2879 53.9657 21.1975 53.9328 22.2724L53.9143 22.8732L53.3134 22.8634C53.1988 22.8614 53.084 22.8803 52.976 22.9188L52.7253 23.0082L52.4894 22.8852C51.0629 22.1416 49.3987 21.9839 47.8579 22.4474C46.3027 22.9153 45.0045 23.9653 44.2231 25.389L44.0735 25.6615L43.7653 25.7006C43.6151 25.7196 43.471 25.7747 43.3461 25.8603L42.8501 26.1998L42.5036 25.7087C41.8843 24.8312 40.6081 23.384 39.3864 23.864C38.7159 24.1275 38.3735 24.8836 38.2388 25.5471C38.0402 26.5258 38.1919 27.6044 38.4928 28.5678V28.5678ZM74.1646 46.0873V51.5349C74.1646 51.8619 74.4332 52.1306 74.7601 52.1306C75.0866 52.1306 75.3557 51.8615 75.3557 51.5349V46.0873C75.3557 45.7607 75.0866 45.4917 74.7601 45.4917C74.4332 45.4917 74.1646 45.7604 74.1646 46.0873ZM27.0718 19.3155C27.3098 19.7611 27.3239 20.2949 27.0002 20.7519C26.4685 21.5022 26.1417 21.6353 25.4142 22.1036L25.3558 22.1412L25.2904 22.1646C24.2753 22.5293 23.345 23.1077 22.6129 23.9047C21.4147 25.2091 20.9422 26.8755 21.0514 28.6242C21.1545 30.2745 22.0022 31.829 23.2129 32.9328C24.4776 34.0859 26.1568 34.7557 27.8772 34.6482C31.215 34.4395 34.1083 31.1589 33.8999 27.821C33.7254 25.0268 32.2438 23.041 29.5894 22.1389L29.2165 22.012L29.1787 21.6199C29.0436 20.2192 28.3556 19.3532 27.0718 19.3155ZM8.95575 25.7086C9.27575 26.8093 9.69848 27.847 10.2267 28.8644C11.2554 30.8462 12.5688 32.7053 13.9004 34.4932C14.8905 35.8227 15.9337 37.1736 16.7255 38.6329C17.1954 39.4986 17.6257 40.5283 17.3998 41.5298C17.2169 42.3416 16.6461 42.9689 16.0225 43.4828C14.9655 44.3539 13.3804 44.7359 12.0628 45.0175C11.0569 45.2324 10.029 45.4006 9.04543 45.7053C8.43084 45.8957 7.60815 46.2121 7.26609 46.7962C7.22835 46.8607 7.19631 46.9283 7.17056 46.9984C6.92836 47.6576 6.79903 48.3871 6.73232 49.0846C6.67372 49.6971 6.66702 50.3617 6.72199 50.9734C6.75086 51.2937 6.90146 52.4628 7.29119 52.5711C7.33442 52.5831 7.38026 52.5752 7.42213 52.5614C7.98125 52.3741 8.5369 52.0564 9.07335 51.8054C9.94713 51.3966 10.8344 51.0127 11.7521 50.7127C13.1328 50.2612 14.947 49.8804 16.3007 50.5863C16.7298 50.8099 17.0826 51.1278 17.3574 51.5255C18.099 52.5987 18.3314 53.9905 18.4508 55.2645C18.5462 56.2817 18.5605 57.3096 18.6976 58.3222C18.7818 58.9442 18.9459 59.8106 19.4483 60.2401C19.7518 60.4994 20.1409 60.5678 20.5298 60.5532C21.2529 60.526 23.9253 60.3638 24.0883 59.4116C24.1283 59.1777 23.9896 58.9233 23.8552 58.7419C23.3734 58.0915 23.2866 57.1205 23.3369 56.3344C23.4152 55.1153 23.8244 53.8854 24.3606 52.7939C25.2228 51.039 26.0968 49.317 27.1843 47.6871C28.7407 45.3544 30.619 43.292 32.8389 41.575C35.6291 39.4171 38.4434 38.7322 39.9718 35.2344C40.1368 34.8564 40.5545 33.6922 40.1589 33.3516C39.8363 33.0737 38.9991 33.5396 38.7158 33.7134C34.7414 36.151 29.8318 38.4213 25.1096 36.8945C22.5127 36.0549 20.3577 34.2288 18.4896 32.2965C16.0675 29.7907 13.9517 27.004 11.7609 24.299C11.3728 23.8196 10.9844 23.3342 10.5544 22.8914L10.1871 22.5129L19.91 9.85849L19.9378 9.83057C20.1846 9.58322 20.1949 9.07809 20.0417 8.7806L16.5324 1.96879C16.4682 1.84411 16.3821 1.74256 16.2529 1.6837C15.7852 1.47057 15.0227 1.8423 14.6395 2.10023C14.3247 2.31189 13.4865 3.04446 13.5985 3.48906C13.6063 3.51985 13.6207 3.5455 13.6408 3.56989L18.2216 9.14376L2.23491 29.9327C1.88449 30.3884 1.70785 31.1861 2.28213 31.5447C2.79601 31.8654 3.37155 31.3839 3.67502 30.989L8.61988 24.5532L8.95575 25.7086V25.7086ZM3.76505 46.7781C3.44238 46.7982 3.18769 47.0869 3.20784 47.4097L3.55464 52.9618C3.57474 53.2847 3.86356 53.5395 4.18632 53.5195C4.50864 53.4995 4.76368 53.2098 4.74353 52.8875L4.39673 47.335C4.37658 47.0129 4.08696 46.758 3.76505 46.7781ZM21.1073 63.8704C20.8365 64.0432 20.7539 64.4172 20.9267 64.6882C21.1147 64.9825 21.4979 64.973 21.7861 64.8463L25.6735 63.137C25.8225 63.0715 26.0402 62.9561 26.079 62.7791C26.1471 62.4693 25.819 61.9213 25.6572 61.6679C25.4844 61.3969 25.1103 61.3147 24.8396 61.4875L21.1073 63.8704V63.8704ZM26.4344 80.0265L27.1838 82.6798C27.2177 82.7996 27.3189 82.876 27.4433 82.876H31.7569C31.8501 82.876 31.9223 82.8386 31.9764 82.7627C32.0294 82.6884 32.0414 82.6047 32.0116 82.5185L26.5148 66.6021C26.4758 66.4893 26.3794 66.4206 26.2601 66.4206H20.826C20.7065 66.4206 20.6103 66.4893 20.5714 66.6023L15.0779 82.5187C15.048 82.605 15.0602 82.6884 15.1131 82.7628C15.1671 82.8385 15.2394 82.876 15.3324 82.876H19.65C19.7739 82.876 19.8744 82.8008 19.9088 82.6817L20.6794 80.0265H26.4344ZM21.7801 76.4073L23.5602 70.5578L25.365 76.4073H21.7801ZM12.3928 95.932V102.659C12.3928 102.809 12.5164 102.933 12.6668 102.933H17.3573C17.5076 102.933 17.6313 102.809 17.6313 102.659V85.4569C17.6313 85.3065 17.5076 85.1828 17.3573 85.1828H12.6668C12.5165 85.1828 12.3928 85.3065 12.3928 85.4569V91.8712H6.68682V85.4569C6.68682 85.3065 6.56327 85.1828 6.41293 85.1828H1.72261C1.57216 85.1828 1.44866 85.3063 1.44866 85.4569V102.659C1.44866 102.809 1.57216 102.933 1.72261 102.933H6.41293C6.56353 102.933 6.68682 102.809 6.68682 102.659V95.932H12.3928ZM52.2569 70.4546H57.5069C57.6549 70.4546 57.7765 70.3331 57.7765 70.1851V66.69C57.7765 66.5419 57.6548 66.4206 57.5069 66.4206H47.759C47.611 66.4206 47.4895 66.542 47.4895 66.69V82.6065C47.4895 82.7544 47.611 82.876 47.759 82.876H57.5069C57.6549 82.876 57.7765 82.7545 57.7765 82.6065V79.0448C57.7765 78.8967 57.6549 78.7752 57.5069 78.7752H52.2569V76.6209H57.1914C57.3393 76.6209 57.461 76.4992 57.461 76.3512V72.9452C57.461 72.7972 57.3393 72.6758 57.1914 72.6758H52.2569V70.4546ZM30.1217 84.7978C28.8701 84.7978 27.6454 85.0301 26.4861 85.5039C25.3411 85.9721 24.3201 86.6543 23.436 87.5183C22.5551 88.3792 21.8393 89.378 21.3586 90.5147C20.8901 91.6223 20.6636 92.7964 20.6519 93.9976C20.6515 94.0298 20.6514 94.0619 20.6514 94.0941C20.6514 95.3251 20.88 96.5295 21.3585 97.665C21.8394 98.8059 22.5521 99.8061 23.4358 100.67C24.3203 101.534 25.341 102.216 26.4862 102.684C27.6452 103.158 28.8702 103.39 30.1217 103.39C31.3645 103.39 32.582 103.153 33.733 102.684C34.8876 102.214 35.9331 101.54 36.8274 100.67C37.7066 99.8148 38.399 98.8083 38.8734 97.6764C39.3508 96.5374 39.5761 95.3277 39.5761 94.0941C39.5761 93.6956 39.5527 93.2972 39.5038 92.9017C39.4021 92.0791 39.1911 91.2748 38.8692 90.5109C38.3928 89.3803 37.7032 88.3778 36.8282 87.519C35.9408 86.6478 34.9045 85.9715 33.7526 85.5037C32.5954 85.0339 31.3703 84.7978 30.1217 84.7978ZM30.1403 89.3157C32.6981 89.3157 34.391 91.7091 34.391 94.1067C34.391 96.5044 32.6981 98.8977 30.1403 98.8977C27.5825 98.8977 25.8897 96.5043 25.8897 94.1067C25.8897 91.7092 27.5825 89.3157 30.1403 89.3157ZM74.4699 74.1173L75.6232 82.6427C75.6415 82.7782 75.7534 82.876 75.8901 82.876H79.9444C80.0289 82.876 80.0938 82.8461 80.1488 82.782C80.2037 82.718 80.2236 82.6491 80.2107 82.5657L77.7662 66.6492C77.7457 66.5155 77.6351 66.4206 77.4998 66.4206H73.1972C73.0738 66.4206 72.9738 66.4952 72.9387 66.6136L70.2694 75.6337L67.6325 66.6143C67.5978 66.4956 67.4972 66.4206 67.3736 66.4206H63.082C62.9468 66.4206 62.8363 66.5153 62.8157 66.6489L60.36 82.5654C60.3471 82.6489 60.3668 82.7179 60.4217 82.782C60.4768 82.8462 60.542 82.876 60.6265 82.876H64.6584C64.7952 82.876 64.9069 82.7783 64.9254 82.6427L66.089 74.0768L68.5801 82.6814C68.6145 82.8005 68.715 82.876 68.8389 82.876H71.7319C71.8558 82.876 71.9561 82.8005 71.9906 82.6814L74.4699 74.1173V74.1173ZM51.9446 93.8425L58.1671 85.6223C58.233 85.5352 58.2427 85.4327 58.194 85.335C58.1454 85.2369 58.0582 85.1828 57.9488 85.1828H52.4888C52.3932 85.1828 52.3184 85.2218 52.2639 85.3003L47.3265 92.3983V85.4569C47.3265 85.3065 47.203 85.1828 47.0526 85.1828H42.4104C42.2599 85.1828 42.1364 85.3063 42.1363 85.4681L41.8167 102.646C41.8636 102.794 42.2695 102.933 42.4104 102.933H47.0526C47.2032 102.933 47.3265 102.809 47.3265 102.659V95.7843L52.4316 102.82C52.4866 102.896 52.5594 102.933 52.6533 102.933H58.502C58.6122 102.933 58.7 102.878 58.7482 102.779C58.7965 102.68 58.7858 102.577 58.7177 102.49L51.9446 93.8425V93.8425ZM65.7986 89.5081H71.49C71.6404 89.5081 71.7639 89.3846 71.7639 89.2341V85.4569C71.7639 85.3063 71.6404 85.1828 71.49 85.1828H60.9546C60.8041 85.1828 60.6806 85.3063 60.6806 85.4569V102.659C60.6806 102.809 60.8041 102.933 60.9546 102.933H71.49C71.6404 102.933 71.7639 102.809 71.7639 102.659V98.8096C71.7639 98.659 71.6404 98.5356 71.49 98.5356H65.7986V96.1725H71.1492C71.2996 96.1725 71.4231 96.0489 71.4231 95.8985V92.2174C71.4231 92.067 71.2996 91.9434 71.1492 91.9434H65.7986V89.5081ZM79.9258 85.1828H75.1872C75.0369 85.1828 74.9132 85.3065 74.9132 85.4569V102.659C74.9132 102.808 75.0382 102.933 75.1872 102.933H79.9258C80.0732 102.933 80.1998 102.806 80.1998 102.659V85.4569C80.1998 85.3078 80.0748 85.1828 79.9258 85.1828ZM8.87362 72.3527L8.70009 72.3032C8.23691 72.181 7.49444 71.9722 7.13369 71.6702C6.89844 71.4731 6.80376 71.2198 6.80376 70.9196C6.80376 70.6028 6.93884 70.3618 7.18709 70.1729C7.50416 69.9318 7.90165 69.8536 8.29229 69.8536C8.78686 69.8536 9.26879 69.9643 9.72492 70.1521C10.2539 70.3698 10.7354 70.6888 11.1702 71.0581C11.2378 71.1154 11.3199 71.1353 11.4062 71.1155C11.4941 71.0953 11.5559 71.0433 11.5919 70.9608L12.9533 67.8443C13.0059 67.7242 12.9664 67.5871 12.858 67.5134C12.147 67.0309 11.3705 66.6524 10.5469 66.406C9.71208 66.1564 8.844 66.042 7.9734 66.042C6.41817 66.042 4.97434 66.4722 3.82667 67.5553C2.70672 68.6122 2.21406 69.95 2.21406 71.4761C2.21406 72.569 2.48451 73.6277 3.25722 74.434C4.10832 75.3221 5.52495 75.8352 6.69045 76.1476C7.25612 76.2993 8.34357 76.6018 8.76635 76.9761C9.06473 77.2401 9.1578 77.6113 9.1578 77.9948C9.1578 78.1296 9.1402 78.2633 9.09929 78.3921C9.02457 78.6269 8.88174 78.8147 8.69441 78.9712C8.33763 79.2693 7.89545 79.3763 7.43901 79.3763C6.98908 79.3763 6.55405 79.2721 6.14246 79.0937C5.9909 79.0281 5.84358 78.953 5.70068 78.8705C5.00139 78.4672 4.39295 77.888 3.86124 77.2856C3.80058 77.2169 3.72534 77.188 3.63419 77.1958C3.5437 77.2036 3.4759 77.2467 3.42894 77.3243L1.47411 80.5523C1.40725 80.6628 1.42507 80.7973 1.51813 80.8867C2.30686 81.6441 3.20976 82.2954 4.22421 82.7146C5.21906 83.1257 6.2843 83.299 7.3576 83.299C9.06579 83.299 10.6991 82.8695 11.9769 81.6876C13.2081 80.5489 13.7251 79.0751 13.7251 77.4195C13.7251 77.4111 13.7251 77.4027 13.7251 77.3943C13.7226 76.7531 13.6331 76.1118 13.416 75.5067C13.2151 74.9463 12.9108 74.4327 12.4956 74.0043C11.6927 73.1756 9.97876 72.6515 8.87362 72.3527V72.3527ZM54.7113 61.9897H60.0957C60.7518 61.9897 61.2874 62.5255 61.2874 63.1817C61.2874 63.8381 60.7519 64.3738 60.0957 64.3738H54.7113C54.0552 64.3738 53.5196 63.8381 53.5196 63.1818C53.5196 62.5255 54.0551 61.9897 54.7113 61.9897V61.9897ZM55.2357 8.22412L66.4844 21.1027C66.5421 21.1536 66.5923 21.2126 66.6359 21.2761L72.1685 27.6103C72.7955 28.3281 72.9749 29.5066 72.1163 30.1197C71.3353 30.6774 70.4298 30.1883 69.8787 29.5567L66.8857 26.1272C66.6771 27.1165 66.3557 28.0803 65.9699 29.0144C65.0505 31.2405 63.7853 33.2376 62.6613 35.3533C61.9591 36.6749 60.9599 38.6487 61.3392 40.1869C61.5315 40.9667 62.0398 41.5493 62.6784 42.0117C63.6857 42.7412 65.2521 43.0068 66.4609 43.1871C67.4902 43.3407 68.5575 43.4508 69.5683 43.6963C70.3661 43.8902 71.2937 44.2135 71.7734 44.927C71.8351 45.0188 71.8884 45.1158 71.933 45.217C72.2351 45.9035 72.4269 46.682 72.5445 47.4213C72.6899 48.3343 72.9735 51.2021 71.8018 51.608C71.6426 51.663 71.4759 51.6625 71.3139 51.6194C70.7577 51.4709 70.0965 51.1603 69.5524 50.946C68.6789 50.602 67.7908 50.2811 66.8813 50.0454C65.3261 49.6423 63.0012 49.2905 62.0127 50.9308C61.368 52.0007 61.253 53.4762 61.2133 54.699C61.179 55.7552 61.2144 56.8335 61.1163 57.8844C61.0396 58.706 60.8614 59.6898 60.222 60.2725C59.8283 60.6313 59.335 60.774 58.8107 60.7871C57.969 60.8081 56.9558 60.8299 56.1266 60.6732C55.6655 60.5861 55.1688 60.4196 54.9348 59.9773C54.7712 59.6683 54.7779 59.3031 54.8039 58.964C55.0987 55.1156 54.592 49.5798 51.2436 47.0503C49.0986 45.4297 46.4074 45.5718 43.9555 46.3245C42.9403 46.6362 39.5697 47.7358 38.6753 46.7661C38.4835 46.5583 38.3475 46.3149 38.2934 46.0359C38.0593 44.8284 39.4856 43.5422 40.3092 42.865C41.7903 41.6472 43.5687 40.588 45.2396 39.6502C46.814 38.7663 48.4214 37.9413 50.0369 37.1356C50.6461 36.8317 51.2571 36.5315 51.8663 36.2273C52.228 36.0466 52.6081 35.8634 52.9573 35.6602C55.4481 34.2109 57.3527 32.6099 59.0609 30.2873C59.8848 29.1672 60.6125 27.9747 61.3484 26.7959C62.1955 25.4391 63.055 24.1086 63.9956 22.8157L52.3852 9.511C51.9212 9.10223 51.8181 8.31831 52.0601 7.76632L55.1378 0.748791C55.2452 0.503964 55.4134 0.302278 55.6464 0.168526C57.0214 -0.620131 60.058 1.54798 59.1763 2.76859L55.2357 8.22412V8.22412ZM43.0017 25.357C43.2059 25.2172 43.4416 25.1268 43.6886 25.0956C44.5456 23.5342 45.9711 22.3781 47.6823 21.8634C49.3787 21.353 51.2039 21.5274 52.7712 22.3444C52.9485 22.2811 53.1358 22.2507 53.3233 22.2537C53.3678 20.7976 53.7755 18.7612 55.389 18.4177C56.3083 18.222 57.2025 18.7228 57.8328 19.3546C58.7215 20.2453 59.2701 21.5086 59.5564 22.7178L59.6557 23.1369L59.2279 23.0889C57.8326 22.9324 56.4087 23.1694 55.1167 23.71C55.1665 23.9263 55.17 24.1517 55.1262 24.37C56.6117 26.3832 57.1553 28.7251 55.9968 31.0491C55.1369 32.7742 53.4157 34.224 51.6034 34.8611C49.7761 35.5033 47.5415 35.1368 45.9074 34.1427C43.7917 32.8554 42.8039 30.6984 42.8481 28.2752C42.6016 28.0951 42.4142 27.8455 42.3083 27.561C40.9312 27.823 39.6154 28.4088 38.5362 29.3105L38.2057 29.5864L38.0575 29.1822C37.6298 28.0153 37.391 26.6589 37.6413 25.4257C37.8196 24.548 38.2855 23.6414 39.1635 23.2964C40.6988 22.693 42.1618 24.1669 43.0017 25.357V25.357ZM73.5548 46.0873C73.5548 45.4237 74.0966 44.8818 74.7601 44.8818C75.4232 44.8818 75.9654 45.424 75.9654 46.0873V51.5349C75.9654 52.1982 75.4232 52.7404 74.7601 52.7404C74.0966 52.7404 73.5548 52.1985 73.5548 51.5349V46.0873ZM25.0842 21.5907C25.7401 21.1686 26.0119 21.0918 26.5027 20.3992C26.7791 20.0091 26.6046 19.5619 26.2679 19.2783L25.7305 18.8385L26.4197 18.7443C28.4776 18.4631 29.6048 19.6858 29.7856 21.5614C32.641 22.5319 34.3164 24.7061 34.5084 27.7831C34.7375 31.4515 31.5946 35.0268 27.9151 35.2568C26.024 35.375 24.1928 34.6515 22.8022 33.3836C21.474 32.1725 20.5558 30.4713 20.4428 28.6622C20.3232 26.7463 20.8527 24.9196 22.1639 23.492C22.9633 22.6218 23.976 21.9889 25.0842 21.5907ZM8.37027 25.8789L4.1584 31.3607C3.64755 32.0255 2.77377 32.5704 1.95935 32.062C1.06437 31.5034 1.17078 30.3161 1.75162 29.5608L17.4427 9.15636L13.1698 3.95719C12.0786 2.62929 16.0445 -0.309587 17.0744 1.68939L20.5837 8.50126C20.8594 9.03647 20.8058 9.82417 20.3694 10.2615L10.9918 22.4665C11.4322 22.92 11.8404 23.4282 12.2347 23.9151C14.3944 26.5816 16.5449 29.4073 18.928 31.8726C20.7196 33.726 22.8051 35.5085 25.2972 36.3142C29.8225 37.7773 34.5961 35.5247 38.397 33.1934C38.9664 32.8442 39.9472 32.3646 40.5567 32.8893C41.2441 33.4811 40.8299 34.7931 40.5305 35.4786C38.9092 39.1888 36.1173 39.8107 33.2119 42.0575C31.0403 43.7372 29.2134 45.7446 27.6915 48.0256C26.6028 49.6573 25.7685 51.3111 24.9078 53.0629C24.4091 54.078 24.0183 55.2381 23.9455 56.3735C23.9055 56.996 23.9586 57.8571 24.345 58.3787C24.586 58.704 24.7599 59.1021 24.6893 59.5145C24.4434 60.9507 21.6245 61.1224 20.5527 61.1626C20.0055 61.1831 19.4762 61.0663 19.0522 60.7037C18.4105 60.1554 18.2014 59.2025 18.0933 58.404C17.9556 57.387 17.9397 56.3448 17.8437 55.3215C17.7356 54.1674 17.5282 52.8453 16.8558 51.8723C16.6371 51.5558 16.3602 51.305 16.0189 51.1271C14.8377 50.5112 13.1371 50.9014 11.9415 51.2924C11.0485 51.5843 10.182 51.96 9.33167 52.3579C8.80203 52.6057 8.16159 52.9568 7.61567 53.1397C7.45671 53.1929 7.29032 53.2039 7.12798 53.1588C5.93326 52.8268 6.03736 49.9469 6.12533 49.0265C6.19672 48.2812 6.33951 47.4922 6.59824 46.7881C6.63643 46.684 6.68389 46.5837 6.73992 46.488C7.17444 45.746 8.08067 45.3657 8.86511 45.1227C9.8589 44.8149 10.9173 44.6387 11.9354 44.421C13.1305 44.1657 14.6753 43.8029 15.6348 43.0121C16.1451 42.5915 16.6549 42.0616 16.805 41.3957C16.9928 40.563 16.5778 39.6389 16.1897 38.9239C15.4334 37.5302 14.3591 36.1299 13.4114 34.8575C12.0718 33.059 10.7206 31.1395 9.68546 29.1455C9.12695 28.0695 8.70155 27.0185 8.37027 25.8789V25.8789ZM3.72716 46.1694C4.38604 46.1283 4.96411 46.638 5.00528 47.297L5.35207 52.8495C5.39319 53.5088 4.88345 54.0871 4.22421 54.1281C3.56447 54.1692 2.98736 53.6596 2.94609 52.9998L2.5993 47.4477C2.55803 46.7879 3.06757 46.2104 3.72716 46.1694ZM20.7792 63.3562L24.5115 60.9734C25.0668 60.6189 25.8167 60.7842 26.1712 61.3397C26.7119 62.187 27.1147 63.1695 25.9188 63.6953L22.0314 65.4046C21.4587 65.6563 20.7691 65.5743 20.4129 65.0163C20.0583 64.4608 20.2238 63.7109 20.7792 63.3562V63.3562ZM25.9731 80.6364H21.1374L20.4944 82.8518C20.3842 83.2313 20.0451 83.4859 19.65 83.4859H15.3324C15.0422 83.4859 14.785 83.3531 14.6165 83.1167C14.4489 82.8815 14.4072 82.5928 14.5015 82.3197L19.995 66.4032C20.1188 66.0443 20.4465 65.8107 20.826 65.8107H26.2601C26.6394 65.8107 26.9672 66.0443 27.0911 66.4029L32.5879 82.3193C32.6824 82.5924 32.6406 82.8815 32.4729 83.1167C32.3044 83.3532 32.0473 83.4859 31.7569 83.4859H27.4433C27.046 83.4859 26.705 83.228 26.597 82.8456L25.9731 80.6364V80.6364ZM11.7831 96.5418H7.29652V102.659C7.29652 103.146 6.9 103.543 6.41293 103.543H1.72261C1.23559 103.543 0.838903 103.146 0.838903 102.659V85.4569C0.838903 84.9697 1.23559 84.5729 1.72261 84.5729H6.41293C6.8999 84.5729 7.29652 84.9698 7.29652 85.4569V91.2613H11.7831V85.4569C11.7831 84.9698 12.1799 84.5729 12.6668 84.5729H17.3573C17.8442 84.5729 18.241 84.9698 18.241 85.4569V102.659C18.241 103.146 17.8442 103.543 17.3573 103.543H12.6668C12.1798 103.543 11.7831 103.146 11.7831 102.659V96.5418ZM52.8667 71.0645V72.0659H57.1914C57.6759 72.0659 58.0707 72.4606 58.0707 72.9452V76.3512C58.0707 76.8359 57.6759 77.2308 57.1914 77.2308H52.8667V78.1653H57.5069C57.9915 78.1653 58.3862 78.56 58.3862 79.0448V82.6065C58.3862 83.0912 57.9915 83.4859 57.5069 83.4859H47.759C47.2745 83.4859 46.8797 83.0911 46.8797 82.6065V66.69C46.8797 66.2054 47.2745 65.8107 47.759 65.8107H57.5069C57.9914 65.8107 58.3862 66.2054 58.3862 66.69V70.1851C58.3862 70.6698 57.9915 71.0645 57.5069 71.0645H52.8667ZM30.1217 84.1879C31.4507 84.1879 32.7503 84.4385 33.9819 84.9386C35.2094 85.437 36.3096 86.1553 37.2554 87.0837C38.1889 88 38.9228 89.0678 39.4311 90.274C39.7751 91.0905 40.0003 91.9478 40.1089 92.8269C40.1608 93.2472 40.1858 93.6706 40.1858 94.0941C40.1858 95.4098 39.9448 96.6975 39.4357 97.9122C38.9289 99.1214 38.1917 100.194 37.2524 101.107C36.3011 102.033 35.1913 102.749 33.9631 103.249C32.7373 103.749 31.4452 104 30.1217 104C28.7899 104 27.489 103.753 26.2554 103.249C25.0362 102.75 23.9514 102.026 23.0098 101.106C22.0669 100.185 21.3096 99.119 20.7967 97.9019C20.2861 96.6903 20.0417 95.4077 20.0417 94.0941C20.0417 94.06 20.0418 94.0258 20.0422 93.9916C20.0546 92.7095 20.297 91.4593 20.797 90.277C21.31 89.0645 22.0702 88.0004 23.0098 87.0821C23.9513 86.162 25.0363 85.4378 26.2554 84.9394C27.4891 84.435 28.7897 84.1879 30.1217 84.1879ZM74.2528 77.0603L72.5763 82.8511C72.4665 83.2308 72.1271 83.4859 71.7319 83.4859H68.8389C68.4437 83.4859 68.1042 83.2308 67.9944 82.8511L66.3051 77.0159L65.5296 82.7248C65.4701 83.1627 65.1001 83.4859 64.6584 83.4859H60.6265C60.364 83.4859 60.13 83.3784 59.9592 83.1793C59.788 82.98 59.7174 82.732 59.7574 82.4724L62.2131 66.5559C62.2796 66.125 62.6461 65.8107 63.082 65.8107H67.3736C67.7681 65.8107 68.107 66.0645 68.2177 66.4431L70.2729 73.473L72.3541 66.4405C72.4658 66.0631 72.8037 65.8107 73.1972 65.8107H77.4998C77.9361 65.8107 78.3026 66.1254 78.3689 66.5566L80.8134 82.4731C80.8532 82.7325 80.7824 82.9802 80.6115 83.1792C80.4406 83.3784 80.2067 83.4859 79.9444 83.4859H75.8901C75.4483 83.4859 75.0781 83.1623 75.0189 82.7244L74.2528 77.0603V77.0603ZM52.7142 93.8362L59.1977 102.114C59.4096 102.384 59.4468 102.737 59.2964 103.046C59.1461 103.355 58.8454 103.543 58.502 103.543H52.6533C52.3641 103.543 52.1078 103.412 51.938 103.178L47.9362 97.6629V102.659C47.9362 103.146 47.5397 103.543 47.0526 103.543H42.4104C41.9479 103.543 41.2079 103.19 41.2079 102.653L41.5267 85.4569C41.5267 84.9697 41.9233 84.5729 42.4104 84.5729H47.0526C47.5396 84.5729 47.9362 84.9698 47.9362 85.4569V90.4538L51.7634 84.9519C51.932 84.7096 52.1936 84.5729 52.4888 84.5729H57.9488C58.2898 84.5729 58.5884 84.7581 58.74 85.0635C58.8918 85.3686 58.8588 85.7188 58.6532 85.9904L52.7142 93.8362V93.8362ZM66.4083 90.118V91.3336H71.1492C71.6362 91.3336 72.0328 91.7303 72.0328 92.2174V95.8985C72.0328 96.3855 71.6362 96.7824 71.1492 96.7824H66.4083V97.9257H71.49C71.977 97.9257 72.3737 98.3224 72.3737 98.8096V102.659C72.3737 103.146 71.977 103.543 71.49 103.543H60.9546C60.4675 103.543 60.0708 103.146 60.0708 102.659V85.4569C60.0708 84.9697 60.4675 84.5729 60.9546 84.5729H71.49C71.977 84.5729 72.3737 84.9697 72.3737 85.4569V89.2341C72.3737 89.7213 71.977 90.118 71.49 90.118H66.4083ZM79.9258 84.5729C80.4115 84.5729 80.8095 84.9712 80.8095 85.4569V102.659C80.8095 103.143 80.4099 103.543 79.9258 103.543H75.1872C74.7017 103.543 74.3035 103.145 74.3035 102.659V85.4569C74.3035 84.9698 74.7002 84.5729 75.1872 84.5729H79.9258ZM9.0408 71.7663C10.2706 72.0987 12.0348 72.6524 12.9334 73.5799C13.4093 74.0711 13.7595 74.6581 13.9899 75.3008C14.2308 75.9722 14.3323 76.6805 14.3348 77.3921C14.3348 77.4012 14.3348 77.4104 14.3348 77.4195C14.3348 79.2463 13.748 80.8802 12.3909 82.1353C10.9977 83.424 9.22244 83.9089 7.3576 83.9089C6.20313 83.9089 5.06119 83.7203 3.99132 83.2783C2.90543 82.8296 1.94032 82.1376 1.09592 81.3267C0.797034 81.0397 0.737925 80.5909 0.952564 80.2364L2.90741 77.0083C3.05534 76.7641 3.29727 76.6126 3.58195 76.5882C3.86561 76.5638 4.12969 76.6682 4.31833 76.882C4.80238 77.4304 5.36865 77.975 6.00521 78.3422C6.12815 78.4131 6.25471 78.4776 6.38476 78.5341C6.71967 78.6791 7.07256 78.7664 7.43901 78.7664C7.74802 78.7664 8.06051 78.7063 8.30342 78.5032C8.40051 78.4221 8.47951 78.3291 8.51821 78.2072C8.54003 78.1387 8.54804 78.0665 8.54804 77.9948C8.54804 77.797 8.51916 77.5716 8.36226 77.4328C8.05164 77.1577 6.95546 76.8501 6.53258 76.7367C5.24671 76.392 3.75482 75.8346 2.81701 74.856C1.93255 73.933 1.6043 72.7299 1.6043 71.4761C1.6043 69.7814 2.16553 68.2845 3.40827 67.1116C4.67061 65.9204 6.26077 65.4322 7.9734 65.4322C8.9038 65.4322 9.82942 65.5548 10.7216 65.8217C11.6055 66.0861 12.4374 66.4909 13.2003 67.0087C13.5517 67.2472 13.6821 67.6993 13.5121 68.0886L12.1506 71.2049C12.0372 71.4645 11.8188 71.6466 11.5424 71.71C11.2683 71.7727 10.99 71.7049 10.7756 71.5229C10.3901 71.1956 9.96179 70.9091 9.49295 70.716C9.11058 70.5587 8.707 70.4635 8.29229 70.4635C8.04253 70.4635 7.76032 70.5032 7.55621 70.6584C7.45952 70.732 7.41352 70.7963 7.41352 70.9196C7.41352 71.0381 7.43206 71.1246 7.52512 71.2025C7.78359 71.419 8.51494 71.6235 8.85564 71.7135L9.0408 71.7663V71.7663ZM22.6031 75.7974H24.5387L23.5642 72.639L22.6031 75.7974ZM30.1403 89.9255C27.9333 89.9255 26.4995 92.0393 26.4995 94.1067C26.4995 96.1741 27.9333 98.2879 30.1403 98.2879C32.3472 98.2879 33.7812 96.1743 33.7812 94.1067C33.7812 92.0392 32.3472 89.9255 30.1403 89.9255Z" fill="#003467"/>
</svg>
