<svg width="94" height="85" viewBox="0 0 94 85" fill="none" xmlns="http://www.w3.org/2000/svg">
<path fill-rule="evenodd" clip-rule="evenodd" d="M70.2747 84.8815C70.2905 84.7548 70.307 84.6314 70.3235 84.5123C70.3258 84.4958 70.3397 84.4837 70.3564 84.4838C70.8984 84.486 71.4331 84.4869 71.9729 84.4236C72.7535 84.3321 73.9513 84.063 73.8005 83.0279C73.5837 81.5398 66.4981 81.124 66.5304 83.0363C66.5374 83.4453 66.5886 83.9786 66.9354 84.2534C67.4336 84.6483 68.9524 84.485 69.5827 84.485C69.5995 84.485 69.6134 84.4972 69.6155 84.5138C69.631 84.6361 69.643 84.7588 69.6523 84.8815H70.2747ZM68.6978 82.5524L68.6686 83.8392C68.6683 83.8555 68.6532 83.8712 68.6363 83.8715C68.1145 83.8839 66.9826 83.9938 67.0624 83.1719C67.1409 82.3629 68.0813 82.5652 68.6622 82.5188C68.6709 82.5181 68.6809 82.5216 68.6874 82.5276C68.6941 82.5337 68.6981 82.5427 68.6978 82.5524ZM71.2945 83.8399L71.2794 82.5828C71.2794 82.5737 71.2825 82.5658 71.2888 82.5593C71.2951 82.5529 71.3041 82.5494 71.3123 82.5494C72.061 82.5465 72.5986 82.679 73.1943 83.1386C73.2074 83.1487 73.2114 83.1686 73.2015 83.1831C72.8619 83.6924 71.9015 83.8726 71.3275 83.8726C71.3098 83.8726 71.2948 83.858 71.2945 83.8399ZM69.2844 82.4937L70.5649 82.4686C70.5742 82.4685 70.5827 82.4722 70.5888 82.478C70.5948 82.4839 70.5986 82.4933 70.5986 82.5015L70.6035 83.8471C70.6035 83.8553 70.6003 83.8641 70.5939 83.8705C70.5874 83.877 70.5783 83.8804 70.5701 83.8802L69.2708 83.865C69.2526 83.8647 69.2382 83.8497 69.2383 83.8315L69.2522 82.5262C69.2522 82.5086 69.2667 82.4941 69.2844 82.4937Z" fill="#BBE5FB"/>
<path fill-rule="evenodd" clip-rule="evenodd" d="M44.2774 84.8814L44.2759 82.5325C44.2759 82.5234 44.2791 82.5156 44.2855 82.509C44.2921 82.5028 44.2997 82.4995 44.309 82.4995L57.2665 82.5114C57.2758 82.5114 57.2835 82.5148 57.2899 82.5213C57.2965 82.5279 57.2996 82.5358 57.2995 82.5449C57.2891 83.1272 57.1961 84.0675 57.2346 84.8814H57.9681C58.0796 83.8811 57.9261 82.5511 57.8152 82.0926C57.0911 81.7463 44.5783 81.728 43.7533 82.0795L43.7383 84.8814H44.2774ZM47.5621 84.2103C47.4253 84.3712 47.2698 84.6148 47.1203 84.8814H47.773L47.7966 84.8331C47.7989 84.8285 47.8015 84.8252 47.8056 84.822C48.5567 84.2243 49.1303 84.646 49.9143 84.8427C49.9645 84.1053 49.5434 83.7345 50.7648 83.8234C51.9412 83.9092 51.5716 84.4129 51.9321 84.8814H52.2755C52.3343 84.8229 52.3815 84.7604 52.3837 84.7079C52.397 84.3926 52.4217 84.3424 52.6132 84.0561C52.6228 84.0418 52.6412 84.0371 52.6562 84.0452C52.7457 84.093 53.1309 84.2747 53.0845 84.4205C53.0751 84.4504 53.0494 84.4752 53.061 84.5065C53.0871 84.5767 53.2529 84.6845 53.3121 84.7227C53.4172 84.7902 53.4946 84.8386 53.6182 84.8119C53.7106 84.7921 53.8086 84.8262 53.9021 84.8814H54.6292C54.2807 84.2921 53.8401 83.8115 53.0539 83.5237C52.8712 83.4569 52.7162 83.4168 52.5251 83.4662C52.1645 83.5589 52.0194 83.5596 51.64 83.4698C50.8982 83.2943 51.0086 83.0642 50.1413 83.2972C49.7246 83.4093 49.4401 83.6963 49.0367 83.8073C48.5008 83.955 48.0412 83.8543 47.5621 84.2103Z" fill="#BBE5FB"/>
<path fill-rule="evenodd" clip-rule="evenodd" d="M0.793945 6.21827C0.876345 6.26807 0.964046 6.32077 1.05765 6.37817C1.07125 6.38657 1.07685 6.40327 1.07125 6.41827C1.02655 6.53647 0.916045 6.69777 0.793945 6.86197V8.58007C1.43215 8.30097 2.28384 8.33617 2.87404 8.63707C2.88574 8.64287 2.89265 8.65447 2.89205 8.66777L2.85604 9.52717C2.85554 9.54347 2.84335 9.55647 2.82745 9.55857C2.34755 9.61977 1.35495 9.76797 0.793945 9.62077V11.0417C0.898045 11.1843 1.00114 11.3359 1.09734 11.5038C1.10414 11.5159 1.10304 11.53 1.09444 11.5409C1.00584 11.6522 0.902245 11.7579 0.793945 11.8622V13.4042C1.11575 13.411 1.43735 13.4168 1.75915 13.4222C2.34575 13.4323 2.97544 13.4614 3.56084 13.4434C3.69794 12.4815 2.96464 12.1732 2.41714 11.5418C2.40674 11.53 2.40624 11.5129 2.41564 11.5004C3.96224 9.44277 4.18154 8.34697 2.37524 6.38007C2.36774 6.37187 2.36484 6.36137 2.36734 6.35047C2.36994 6.33957 2.37674 6.33127 2.38714 6.32697C3.08204 6.04737 3.66725 5.39067 3.56285 4.60267C2.93705 4.58627 2.28934 4.60347 1.66294 4.60787C1.37344 4.60987 1.08365 4.61207 0.793945 4.61497V5.03067H2.77314C2.78374 5.03067 2.79294 5.03527 2.79944 5.04367C2.80584 5.05207 2.80794 5.06227 2.80504 5.07257C2.72714 5.35697 2.53114 5.74187 2.25634 5.87937C2.07244 5.97127 1.88774 6.06147 1.70044 6.14577C1.69164 6.14987 1.68274 6.14987 1.67384 6.14617C1.51624 6.08057 1.09315 5.88877 0.793945 5.65647V6.21827ZM1.84084 11.931L2.58015 12.6538C2.59025 12.6637 2.59285 12.6779 2.58705 12.6907C2.58145 12.7034 2.56904 12.7112 2.55504 12.7105L0.933545 12.6168C0.919345 12.616 0.907645 12.6067 0.903745 12.5931C0.899945 12.5794 0.904743 12.5652 0.916343 12.5569L1.79875 11.9277C1.81165 11.9183 1.82924 11.9198 1.84084 11.931ZM1.78944 11.1174C1.24324 10.7776 1.22845 10.7075 0.927246 10.1598C0.921546 10.1492 0.921745 10.1369 0.928345 10.1266C0.934845 10.1161 0.945647 10.1105 0.957847 10.111L2.61875 10.1901C2.63165 10.1908 2.64264 10.1986 2.64754 10.2106C2.65254 10.2229 2.65025 10.2361 2.64125 10.2458L1.83114 11.1119C1.82014 11.1235 1.80304 11.1257 1.78944 11.1174ZM0.926045 7.88947C1.25814 7.28627 1.25485 7.30297 1.82015 6.90327C1.83485 6.89297 1.85504 6.89617 1.86564 6.91047L2.58464 7.87267C2.59224 7.88287 2.59334 7.89577 2.58794 7.90717C2.58204 7.91867 2.57114 7.92547 2.55844 7.92547L0.955244 7.93837C0.943044 7.93857 0.932743 7.93267 0.926543 7.92237C0.920443 7.91197 0.920245 7.90007 0.926045 7.88947ZM0.793945 1.94587C0.927245 1.99487 1.06594 2.06047 1.21234 2.14497C1.53344 2.33047 1.76774 2.51217 2.04364 2.75127C2.25764 2.93657 2.87614 3.44917 2.78774 2.79057C2.67324 1.93837 1.68205 1.45087 0.793945 1.32617V1.94587ZM0.793945 16.8362C1.19095 16.781 1.63224 16.4469 2.57384 15.7706C3.24424 15.289 3.74274 15.5521 4.36574 14.8046C4.63454 14.4822 4.85905 14.0488 4.91745 13.6291C4.98275 13.1597 4.76414 12.5088 4.38944 13.2003C4.37144 13.2336 4.35764 13.2685 4.34714 13.3047C4.30234 13.4592 4.30624 13.6361 4.26614 13.7987C4.20014 14.0675 4.04685 14.2811 3.85205 14.4737C3.57225 14.7501 3.37165 14.8863 2.97895 14.8936C2.57985 14.9008 2.38834 15.0396 2.10464 15.3231C1.68044 15.747 1.23315 16.0107 0.793945 16.0991V16.8362Z" fill="#BBE5FB"/>
<path fill-rule="evenodd" clip-rule="evenodd" d="M27.4298 19.1286L27.5669 18.7658C27.586 18.7155 27.7734 18.2225 27.7086 18.1808C27.5998 18.1111 26.4648 19.2466 25.6416 19.1035C25.625 19.1007 25.6134 19.086 25.6143 19.0692C25.6348 18.7098 25.7464 18.3329 25.7552 17.9852C24.7877 17.6613 24.9685 18.0915 24.1132 17.2215C23.8581 16.9621 23.3374 17.4934 23.7648 17.8359C24.1894 18.1763 24.373 18.3179 24.8973 18.4824C24.9083 18.4858 24.916 18.4937 24.9191 18.5048C24.9223 18.5158 24.92 18.5266 24.9124 18.5354C23.4421 20.2369 22.4514 19.1341 21.4011 17.7998C21.3938 17.7903 21.392 17.7784 21.3965 17.7672C21.5236 17.444 21.7637 17.063 21.8496 16.7488C21.9829 16.2607 21.705 15.8603 21.2931 16.4275C21.0725 16.7316 20.9505 17.2241 20.7906 17.5767C20.7846 17.5902 20.7711 17.5976 20.7565 17.5958C20.4148 17.5523 19.963 17.6512 19.614 17.6846C18.3001 17.8108 17.8452 17.1611 17.7267 15.8653C17.7253 15.85 17.7347 15.836 17.7494 15.8311C18.2518 15.6658 18.8971 16.0182 19.3354 15.7735C19.9719 15.4181 19.4303 15.1418 18.9173 15.2606C18.0684 15.4575 17.6198 14.1463 18.0365 13.6772C18.1863 13.5085 18.3408 13.5568 18.4388 13.2835C18.5957 12.8465 18.3439 12.7711 17.9727 12.9049C17.2009 13.1833 17.3832 14.8468 17.095 15.464C17.0909 15.4727 17.0841 15.4787 17.0748 15.4816C17.0655 15.4845 17.0564 15.4834 17.0481 15.4783C16.4785 15.1352 16.273 14.3033 16.3998 13.6846C16.4296 13.5394 16.4846 13.403 16.5602 13.2758C16.9382 12.6395 17.9715 12.2125 18.1733 11.8583C17.5124 11.1964 17.0778 11.9879 16.4221 12.2338C16.4126 12.2375 16.4026 12.2365 16.3936 12.2312C16.3849 12.226 16.3793 12.2177 16.3777 12.2075C16.1812 10.8136 17.1036 9.86226 18.4973 9.89796C18.5135 9.89836 18.5267 9.91036 18.529 9.92636C18.5876 10.3437 18.7524 11.0229 19.1731 11.2078C19.643 11.4146 19.8968 11.2002 19.5952 10.7413C19.3251 10.3305 19.0396 10.2695 19.3096 9.66796C19.4202 9.42136 19.5833 9.15076 19.8902 9.17176C20.0375 9.18176 20.216 9.26646 20.3536 9.23576C20.7436 9.14826 20.7415 8.80276 20.3979 8.62376C19.7371 8.27956 19.2704 8.94656 18.7808 9.21176C18.5815 9.31976 18.3187 9.20466 18.1392 9.10626C18.1267 9.09946 18.1204 9.08626 18.1225 9.07236C18.2767 8.04976 18.7583 7.12196 19.6904 6.61336C21.4882 5.63236 20.7901 7.03886 21.7213 7.14846C21.8763 6.70406 21.735 6.36696 21.8106 5.94726C21.9765 5.02806 22.7074 4.99396 23.3657 5.48336C23.8311 5.82946 23.439 6.19866 24.0898 6.30386C24.6842 5.32066 23.678 5.20596 23.2304 4.60046C23.2236 4.59136 23.2221 4.58026 23.2259 4.56966C23.2298 4.55886 23.2382 4.55136 23.2492 4.54876C24.4494 4.26346 24.9607 4.56706 25.7703 5.43516C25.7768 5.44206 25.7798 5.45036 25.7791 5.45996C25.737 6.03186 25.5154 6.26786 25.3769 6.75106C25.2301 7.26406 25.5975 7.59366 25.9597 6.98756C26.1936 6.59576 26.2326 6.22756 26.5527 5.83556C26.5583 5.82886 26.5653 5.82496 26.5739 5.82376C27.6968 5.67736 28.4034 6.00776 29.0444 6.93456C29.0515 6.94496 29.0522 6.95736 29.0466 6.96856C29.0406 6.97946 29.0302 6.98626 29.0176 6.98626L28.4369 6.99346C28.1084 6.98716 27.51 6.89946 27.3206 7.23466C27.0861 7.64966 27.1854 7.85676 27.6727 7.71446C27.7282 7.69836 27.7787 7.67436 27.8311 7.65026C28.2729 7.44796 28.7929 7.74466 29.1819 7.94786C29.1911 7.95266 29.197 7.96066 29.1989 7.97086C29.3032 8.51596 29.2778 8.73456 29.0412 9.21006C28.9856 9.32166 28.9493 9.42166 28.9373 9.54566C29.0333 9.65706 29.1825 9.69666 29.3074 9.60076C29.3697 9.55276 29.4718 9.35876 29.5385 9.28386C30.014 8.22896 30.0033 7.22276 29.2977 6.27426C28.8872 5.72256 28.4129 5.38956 27.7283 5.29106C27.3204 5.23226 26.7512 5.28196 26.3872 5.11476C26.2512 5.05216 25.8696 4.69776 25.7266 4.58756C25.3549 4.30046 24.9433 4.04506 24.4937 3.90156C22.9824 3.42036 21.9047 4.50366 21.1844 5.71156C21.1784 5.72166 21.1684 5.72746 21.1567 5.72786C19.9494 5.75826 18.8527 6.00436 18.2667 7.15276C17.8093 8.04916 17.7545 9.04276 16.8696 9.69266C15.7257 10.5332 15.6034 11.3718 15.8384 12.7002C16.0685 13.3677 15.7465 13.5016 15.7936 14.1539C15.8381 14.7695 15.943 15.2724 16.4104 15.6994C16.6628 15.93 16.8937 16.092 17.1061 16.373C17.1687 16.4559 17.2142 16.5455 17.2515 16.6422C17.4801 17.2361 17.458 17.4436 18.0386 17.87C18.6156 18.2937 19.0684 18.4572 19.7698 18.306C20.1404 18.2262 20.442 18.134 20.8306 18.1732C20.8377 18.1739 20.8437 18.1763 20.849 18.1811C20.91 18.234 20.9682 18.2905 21.024 18.3487C21.1286 18.4585 21.2248 18.5758 21.3177 18.6956C22.101 19.707 22.4936 20.3129 23.9602 19.9371C24.1919 19.8777 24.4281 19.8146 24.6539 19.7356C24.7131 19.7149 24.8037 19.6737 24.8639 19.664C24.9263 19.6539 25.0318 19.6714 25.0956 19.6777C25.3488 19.7023 25.6037 19.7158 25.8578 19.7262C26.6114 19.757 26.8232 19.4533 27.4298 19.1286ZM24.1208 7.89436C24.0906 7.72726 24.0575 7.57836 23.9077 7.47156C23.6412 7.28126 23.1186 7.33336 22.8175 7.37606C21.0298 7.63006 21.0019 10.5196 22.2838 10.9223C22.8539 11.1013 22.9487 10.8501 22.6061 10.4129C22.1631 9.84766 21.6899 9.68546 22.0281 8.80636C22.5518 7.44526 23.414 8.30976 24.1208 7.89436ZM20.0442 13.0028C19.9055 13.5247 19.8862 14.3132 20.5792 14.4083C20.8763 14.4491 21.1683 14.2614 20.9031 14.0157C20.6959 13.8238 20.5167 13.7828 20.5317 13.4408C20.5477 13.0683 20.6177 12.6749 21.0548 12.6161C21.274 12.5867 21.3966 12.7247 21.4961 12.6985C21.6868 12.6483 21.689 12.2812 21.5627 12.184C21.5168 12.1488 21.4663 12.1201 21.4127 12.098C20.802 11.8481 20.1941 12.4396 20.0442 13.0028ZM24.5402 8.74166C24.3284 9.02176 24.1703 9.46216 24.047 9.79036C23.82 10.3939 23.6003 10.9916 23.3446 11.5846L22.1021 14.4682C22.0646 14.6006 21.9433 15.0641 22.1379 15.1418C22.2734 15.1961 22.4873 15.0435 22.5506 14.9284C23.0648 13.9939 23.5165 12.9346 23.932 11.9517C24.3408 10.9845 24.7786 9.93986 25.0835 8.93536C25.1284 8.78716 25.1862 8.42986 24.9624 8.38266C24.8147 8.35136 24.6151 8.64256 24.5402 8.74166ZM29.531 15.4841C29.3166 15.1802 28.9367 15.1804 28.6285 14.9404C28.5135 14.851 28.3801 14.7091 28.4566 14.5534C28.4592 14.5484 28.4621 14.5448 28.4666 14.5416C29.3161 13.9043 29.7677 12.7217 29.574 11.68C29.2749 10.0703 27.6191 9.43526 26.1474 9.90486C25.6723 10.0565 25.2753 10.3579 24.9933 10.7681C24.5779 11.3722 24.4511 12.1543 24.6402 12.8613C24.8628 13.6949 25.4724 14.2868 26.2661 14.5952C26.714 14.7692 27.2945 14.8842 27.771 14.9151C27.9305 14.8658 28.1039 15.2332 28.0227 15.4254C27.9372 15.628 27.8236 15.7428 27.7689 15.9793C27.6823 16.3542 27.814 16.7614 27.9706 17.0994C28.2156 17.6278 28.6383 17.9511 29.2339 17.8813C29.3246 17.8706 29.4122 17.8447 29.4941 17.8042C29.8182 17.6431 29.9797 17.2957 30.0095 16.9487C30.0545 16.4269 29.8261 15.9017 29.531 15.4841ZM27.2712 10.2395C28.2399 10.2785 29.0287 11.1388 29.126 12.0772C29.2506 13.278 28.3461 14.2468 27.1352 14.2542C24.7002 14.2688 24.379 10.1776 27.2712 10.2395ZM28.759 15.7379C29.1047 15.7651 29.2922 15.9818 29.4164 16.2928C29.5025 16.5084 29.5772 16.8817 29.4882 17.1059C29.4197 17.2788 29.142 17.4268 28.9614 17.4081C28.5931 17.3698 28.1539 16.4795 28.2201 16.1557C28.268 15.9207 28.5168 15.7187 28.759 15.7379Z" fill="#BBE5FB"/>
<path fill-rule="evenodd" clip-rule="evenodd" d="M57.4437 1.34814C57.7473 1.20994 57.8969 0.717552 57.9564 0.118652H57.2136C57.2323 0.600552 57.2945 1.04314 57.4437 1.34814ZM43.7202 0.118652L43.6729 8.95975C44.4151 9.34595 48.0896 9.21605 48.991 9.19555C49.9814 9.17305 50.9724 9.14335 51.9628 9.13375C52.6195 9.12765 53.3888 9.10935 54.0381 9.19755C54.0559 9.20005 54.0686 9.21645 54.0662 9.23445C53.958 10.1087 53.9287 12.2147 54.8372 12.7005C54.9092 12.6158 54.9609 12.5208 54.9904 12.4125C55.0797 12.0816 54.9378 11.6538 54.8417 11.3355C54.7041 10.8795 54.5764 10.4381 54.5989 9.95524C54.6269 9.35904 54.728 7.01354 54.9935 6.60314C55.0024 6.58954 55.0192 6.58434 55.0341 6.59064C55.0988 6.61744 55.1587 6.65415 55.2125 6.69905C55.8629 7.24545 55.515 9.09735 56.3369 10.0734C56.4304 10.0376 56.6744 9.95855 56.704 9.91625C56.7628 9.83265 56.5921 9.36865 56.564 9.27945C56.5612 9.27055 56.5621 9.26175 56.5668 9.25325C56.5714 9.24525 56.5785 9.23965 56.5878 9.23745C58.0954 8.87165 57.6653 9.55905 57.8803 7.91875C57.9298 7.54005 57.8594 7.43775 58.1575 7.08945C58.1654 7.08045 58.1764 7.07635 58.1883 7.07835C58.2 7.08045 58.2092 7.08805 58.2133 7.09925C58.6232 8.17975 58.6219 8.85715 58.4416 9.98505C58.4099 10.1822 58.3674 10.3778 58.3232 10.5726C58.1699 11.2454 57.8065 12.3471 58.5707 12.7683C58.8782 11.3903 59.2782 9.42665 59.0987 8.02005C59.0027 7.26575 58.7981 6.94535 58.3758 6.35365C58.1741 6.07055 58.032 5.81815 57.947 5.47665C57.8609 5.13145 57.877 4.79475 57.8935 4.44365C57.9047 4.20365 57.9256 3.88025 57.8033 3.66445C57.7303 3.53595 57.6161 3.45625 57.4819 3.40365C56.9932 4.03645 57.2704 7.60525 57.2694 8.49905C57.2694 8.51695 57.255 8.53155 57.237 8.53195C55.2219 8.56835 56.9359 6.56615 55.4358 6.03005C53.9092 5.48415 54.1802 7.67125 54.1802 8.51985C54.1802 8.52885 54.1769 8.53665 54.1704 8.54325C54.1641 8.54955 54.1562 8.55285 54.1471 8.55285L44.2971 8.53265C44.2791 8.53265 44.2643 8.51775 44.2643 8.49965L44.2591 0.118652H43.7202ZM57.5779 2.65645C57.6487 2.58455 57.8834 2.35145 57.8836 2.35115C57.8821 2.34715 57.6529 2.13755 57.5798 2.06705C57.0915 2.39065 57.1105 2.37735 57.5779 2.65645ZM45.3051 6.94375C45.3154 6.98355 45.2893 7.04115 45.3772 7.10375C45.5726 7.24305 46.1128 7.23344 46.3373 7.22604C46.4082 7.22364 47.001 7.23905 47.0412 7.20395C47.068 7.18094 47.1337 6.92995 47.1562 6.85695C47.1454 6.81705 47.1697 6.76015 47.0802 6.69615C46.8844 6.55625 46.3598 6.56344 46.1344 6.57064C46.0615 6.57304 45.4654 6.55525 45.4239 6.58995C45.3935 6.61545 45.3279 6.86925 45.3051 6.94375ZM45.3073 5.64165C45.4096 5.77085 45.3465 5.82554 45.3683 5.87814C45.3905 5.93164 46.8122 5.90915 46.8831 5.90905C46.9772 5.90885 48.37 5.94765 48.4098 5.88145C48.4127 5.87685 48.4274 5.65705 48.4508 5.56545C48.3888 5.48955 48.3412 5.41335 48.3786 5.32655C48.2456 5.30645 47.9427 5.30025 47.8297 5.28865L45.9328 5.29085C45.7842 5.30545 45.6311 5.31545 45.4816 5.30885C45.4579 5.30775 45.3887 5.29895 45.354 5.29795C45.3463 5.44645 45.3632 5.47365 45.3073 5.64165ZM51.0857 4.66475C51.317 6.35325 52.7771 6.36074 53.051 4.67274C53.0534 4.65814 53.0646 4.64704 53.0796 4.64524C53.1912 4.63134 53.8663 4.57395 53.9468 4.49675C53.9936 4.45185 54.0542 4.34284 54.1068 4.28274C54.2814 4.08334 54.5332 3.90025 54.7501 3.75115C55.451 3.26845 55.7878 2.81075 55.496 1.89935C55.4127 1.63915 55.2763 1.51845 55.1654 1.28455C54.9677 0.867051 54.7894 0.472152 54.5733 0.118652H53.7422C53.906 0.163352 54.0715 0.318345 54.1858 0.418145C54.7071 1.37084 54.203 1.17365 53.9689 1.96625C54.7012 2.40795 54.2976 1.82255 54.8352 1.97295C54.8451 1.97565 54.8527 1.98255 54.8567 1.99235C55.2232 2.88565 54.7954 2.95965 54.1451 3.36235C53.9884 3.45945 53.8144 3.57315 53.6812 3.70195C53.6305 3.75095 53.5854 3.81695 53.5363 3.86015C53.4202 3.96205 52.6827 4.04435 52.4798 4.07205C52.4092 4.63165 52.586 4.88385 52.0821 5.27735C52.07 5.28695 52.0532 5.28695 52.0413 5.27705C51.5496 4.88465 51.7226 4.62555 51.645 4.07405C51.4035 4.03925 51.1734 4.04634 50.9308 4.01774L50.2185 3.83795C49.5696 3.52445 48.9433 3.40395 48.2348 3.32865C47.8977 3.29285 47.2686 3.27165 47.0258 3.00915C46.7765 2.73965 46.8912 2.24125 46.9768 1.92905C46.9809 1.91435 46.994 1.90445 47.0092 1.90475C47.7423 1.91255 46.9613 2.32184 47.8587 2.02274C47.8995 1.22984 47.2335 1.22865 47.7785 0.133252C47.7805 0.128752 47.7832 0.125351 47.7873 0.122051L47.7917 0.118652H47.1378C46.894 0.544152 46.6622 1.04165 46.5465 1.36085C46.0315 2.78155 46.3325 3.81295 48.0024 3.96075C48.3867 3.99465 49.4462 4.04245 49.7429 4.34945C49.9658 4.57995 50.767 4.61295 51.0556 4.63625C51.0713 4.63765 51.0834 4.64925 51.0857 4.66475ZM49.8053 0.118652C49.8352 0.126952 49.8653 0.134946 49.8958 0.142646L49.8974 0.118652H49.8053ZM51.8696 0.118652C51.9173 0.193552 51.9805 0.267944 52.0691 0.340244C52.1336 0.290644 52.2473 0.203452 52.3136 0.118652H51.8696ZM53.5147 0.118652C53.5267 0.119452 53.5393 0.119552 53.5521 0.118652H53.5147ZM48.7343 0.50875C48.6447 0.57935 48.3629 0.258247 48.6369 0.973047C48.6836 1.09525 48.8986 1.28895 49.0171 1.34265C49.5676 1.59255 49.7171 1.51135 50.0416 1.07045C49.7948 0.777449 49.109 0.47105 48.7343 0.50875ZM49.2 2.36314C49.7753 3.14884 50.567 2.67814 50.6947 1.84814C50.5819 1.83844 50.251 1.80905 50.2331 1.81485C50.1272 1.94195 49.9659 1.98535 49.8103 2.03585C49.7292 2.06215 49.4762 2.14765 49.3615 2.10215C49.3147 2.19675 49.2621 2.27604 49.2 2.36314ZM52.9246 3.23735L52.6246 2.18905C52.5847 2.08525 52.5448 1.98195 52.5139 1.87515C52.4846 1.85485 52.4526 1.80955 52.4314 1.77805C51.6083 2.34645 51.9409 3.21585 52.9246 3.23735ZM52.0065 1.42795C51.9794 1.36015 51.9403 1.26084 51.9287 1.18854C51.8359 1.15724 51.6687 0.990346 51.6289 0.951846C51.5035 0.831346 51.4027 0.734053 51.3202 0.581953C51.2089 0.551153 51.0932 0.539245 50.9711 0.506445C50.6483 1.28855 51.2669 2.00735 52.0065 1.42795Z" fill="#BBE5FB"/>
<path fill-rule="evenodd" clip-rule="evenodd" d="M71.1895 10.8658C71.1722 10.2371 70.5663 10.473 70.6379 10.8942C70.6817 11.0644 70.7731 11.1045 70.9361 11.0996C71.0981 11.0949 71.1609 11.0208 71.1895 10.8658ZM71.0653 11.9784C70.8084 11.8737 70.4718 11.9664 70.2066 11.9492C70.0513 11.9392 69.7018 11.9926 69.5843 11.93C69.3872 11.8252 69.3904 11.3548 69.3857 11.1689C69.3633 10.3223 69.4132 9.43475 69.4401 8.58705C69.4708 7.61905 69.1165 4.44545 69.9745 3.88495C69.9868 3.87705 70.002 3.87805 70.0135 3.88715C70.9755 4.67275 70.1179 8.15045 70.5462 9.48365C70.6835 9.91125 71.0436 9.89515 71.1336 9.44465C71.2377 8.92435 71.0831 7.98225 71.0585 7.42425C71.0178 6.50235 71.02 5.57865 70.9676 4.65725C70.9461 4.27575 70.8656 4.01075 70.682 3.67985C70.4549 3.26975 70.3156 3.01705 70.2327 2.53865C70.1053 1.80315 70.1731 0.902952 70.2695 0.118652H69.6564C69.6973 0.704152 69.6782 1.29285 69.6841 1.87965C69.6864 2.09495 69.7347 2.86465 69.6475 3.05555C69.574 3.21675 69.322 3.51674 69.2133 3.69604C68.7956 4.38694 68.9133 6.72485 68.8662 7.60955C68.8544 8.12935 68.7941 8.65285 68.7455 9.17055C68.6419 10.271 68.3844 12.2361 69.8525 12.5317C70.3784 12.6374 70.8813 12.5214 71.0653 11.9784Z" fill="#BBE5FB"/>
<path fill-rule="evenodd" clip-rule="evenodd" d="M89.5562 8.15037C89.5185 8.11717 89.0343 8.03437 88.8928 7.96557C88.4281 7.74017 88.2888 7.23357 88.2558 6.75497C88.2251 6.31037 88.358 5.94387 88.7469 5.70627C89.0012 5.55097 89.2821 5.52337 89.4969 5.40117C89.6658 5.30487 89.6253 5.24237 89.5942 5.09327C89.5591 4.92497 89.4775 4.89267 89.3054 4.86977C88.3632 4.74387 87.55 6.05027 87.6049 6.89197C87.6257 7.20697 87.7498 7.51697 87.9189 7.78077C88.2116 8.23707 88.9321 8.89597 89.5228 8.59207C89.7573 8.47147 89.7277 8.30167 89.5562 8.15037ZM89.2462 12.0595C89.0947 12.0186 88.9988 12.103 88.8153 11.9668C88.1212 11.451 88.307 10.9749 88.9126 10.5464C89.0246 10.4672 89.4155 10.2223 89.2615 10.0615C88.8325 9.61307 87.9054 10.6088 87.8644 11.1527C87.8034 11.9614 88.3423 12.5271 89.1743 12.5083C89.5205 12.5005 89.6667 12.1735 89.2462 12.0595ZM92.0298 4.62847C92.0983 5.65737 92.4328 5.82658 93.2071 6.29468V5.74787C92.8938 5.53637 92.6468 5.27637 92.8133 5.04447C92.8196 5.03547 92.8291 5.03057 92.8401 5.03057H93.2071V4.61357L92.6368 4.61957C92.4786 4.62147 92.1949 4.60947 92.0298 4.62847ZM93.2071 6.68477C93.0459 6.92217 92.8125 7.19987 92.6937 7.37777C92.3751 7.85467 92.1546 8.36227 92.1416 8.94417C92.1173 10.0208 92.7039 10.4775 93.2071 11.2215V9.64777C93.0744 9.62477 92.9583 9.58957 92.8686 9.53817C92.8596 9.53327 92.854 9.52487 92.8523 9.51477L92.7386 8.79877C92.7365 8.78617 92.7413 8.77447 92.7515 8.76697C92.8871 8.66787 93.0414 8.58907 93.2071 8.52947V6.68477ZM93.2071 11.7362C92.7358 12.2225 92.0815 12.6444 92.2203 13.3824C92.3766 13.4032 92.6487 13.3946 92.8024 13.398L93.2071 13.4066V12.6133C93.1989 12.6093 93.1928 12.6022 93.1902 12.593C93.1864 12.5793 93.1911 12.5651 93.2027 12.5568L93.2071 12.5537V11.7362ZM87.0685 5.59377C87.1863 5.44977 87.4041 5.17437 87.3257 4.98457C87.283 4.88097 87.1386 4.76477 87.0612 4.67807C86.8577 4.44977 86.7916 4.09847 86.8819 3.80827C87.0038 3.41557 87.357 3.23527 87.7536 3.20607C87.9785 3.23707 88.2835 3.29587 88.4671 3.44097C88.5659 3.51887 88.5885 3.60107 88.6602 3.66737C88.7549 3.75527 89.0345 3.68077 89.1631 3.64657C89.0985 2.88697 88.674 2.67237 87.9489 2.61457C87.8432 2.58087 87.6048 2.49727 87.6094 2.35447C87.6168 2.12787 88.1939 2.03597 88.3527 2.01587C88.8316 1.95577 89.3672 1.99367 89.8304 2.12907C89.9997 2.17857 90.1651 2.24258 90.3214 2.32428C90.3295 2.32838 90.3351 2.33507 90.3378 2.34377C90.3752 2.46437 90.398 2.58967 90.413 2.71517C90.4561 3.07377 90.3737 3.86777 90.7722 4.02597C90.9003 3.90887 90.9953 3.77737 91.0452 3.60847C91.1453 3.27047 91.07 2.65257 91.1137 2.25787C91.1149 2.24617 91.1216 2.23667 91.1322 2.23167C91.9045 1.86147 92.4677 1.67457 93.2071 1.99667V1.34627C92.8878 1.28957 92.5757 1.27897 92.3153 1.31437C91.7008 1.39817 91.148 1.77337 90.5376 1.59917C88.2165 0.937768 86.2098 1.75457 86.2527 4.41647C86.2529 4.43427 86.2393 4.44897 86.2216 4.45007C84.827 4.52667 84.0373 5.81007 83.8931 7.07777C83.8283 7.64837 83.9369 8.41367 84.1731 8.94567C84.1753 8.95057 84.1763 8.95517 84.176 8.96077C84.1645 9.18047 84.0966 9.36967 83.986 9.55777C83.7543 9.95257 83.46 10.2042 83.37 10.6847C83.2284 11.4438 83.7369 12.4 84.1103 13.0238C84.5267 13.7192 84.4064 14.2052 85.0367 14.8569C85.7168 15.5602 86.1967 15.3132 86.8419 15.8167C87.6669 16.4604 87.485 16.8003 88.7425 16.7601C89.8951 16.7233 89.9821 16.0297 90.9798 15.8995C90.9871 15.8986 90.9936 15.8998 91.0002 15.9034C92.2795 16.6107 92.6626 16.9609 93.2071 16.8096V16.0687C92.443 16.2801 91.6939 15.9679 91.1212 15.0506C91.1183 15.046 91.1168 15.0413 91.1161 15.036L91.0302 14.0905C90.9753 13.6885 90.6856 13.5029 90.5595 14.0573C90.4652 14.4713 90.5015 14.8255 90.4573 15.223C90.4563 15.2323 90.4523 15.2396 90.445 15.2455C89.187 16.2324 87.8053 16.7597 86.9648 14.9873C86.9591 14.9756 86.9607 14.9626 86.9689 14.9525C86.9771 14.9424 86.9895 14.9382 87.0022 14.9412C87.4085 15.0394 88.2077 14.6766 88.4421 14.3273C88.6652 13.9951 88.5791 13.605 88.131 13.8045C87.6809 14.0047 87.489 14.6317 86.8058 14.2553C86.1336 13.8848 86.3543 13.117 86.5101 12.525C86.5342 12.4334 86.6465 12.1221 86.5392 12.0572C86.3983 11.9719 86.2839 12.0026 86.1633 12.1115C85.4253 12.7764 85.694 14.1296 86.3068 14.7943C86.3165 14.8048 86.3184 14.8199 86.3116 14.8324C86.3044 14.8452 86.2909 14.8517 86.2767 14.8491C85.4298 14.6979 84.984 14.0123 84.9477 13.1863C84.9207 12.5636 84.969 12.1502 85.4546 11.7422C85.5145 11.6918 85.575 11.6421 85.6311 11.5873C85.809 11.4142 86.0464 11.0533 85.6621 10.9559C84.9064 10.7644 84.7583 11.7537 84.3891 12.1813C84.3822 12.1894 84.3727 12.1933 84.3622 12.1926C84.3515 12.1921 84.3427 12.1872 84.3367 12.1783C83.5093 10.9503 84.0895 9.68897 85.4025 9.17817C85.415 9.17327 85.4283 9.17597 85.4377 9.18557C85.7496 9.49517 86.0805 10.0019 86.5358 10.0847C86.8716 10.1458 87.1972 10.0637 86.9434 9.67247C86.8736 9.56487 86.5547 9.56677 86.4 9.46747C86.044 9.23877 86.0089 8.33808 86.3109 8.05888C86.4897 7.89348 86.6769 7.87807 86.8478 7.64957C86.9513 7.51097 86.8389 7.33037 86.701 7.28787C86.342 7.17707 86.0725 7.44827 85.8645 7.70657C85.2947 8.41407 85.8866 8.44138 84.875 8.64718C84.8609 8.64988 84.8471 8.64377 84.84 8.63137C84.1798 7.49977 84.495 6.26087 85.4639 5.44617C86.4996 4.57497 86.3252 5.32407 87.0685 5.59377ZM90.9389 12.5368C91.2971 11.6766 91.1063 7.13237 91.1152 5.95807C91.0783 5.39627 90.8469 4.62137 90.5342 5.65407C90.4514 5.92757 90.4701 6.62327 90.4718 6.91957C90.4758 7.63377 90.4967 8.34877 90.5109 9.06297C90.5196 9.49917 90.5038 12.2694 90.9389 12.5368Z" fill="#BBE5FB"/>
<path fill-rule="evenodd" clip-rule="evenodd" d="M7.86349 41.1877C7.84589 40.559 7.24029 40.795 7.31169 41.2162C7.35579 41.3864 7.44709 41.4265 7.60999 41.4216C7.77209 41.4168 7.83499 41.3425 7.86349 41.1877ZM7.73919 42.3003C7.48249 42.1955 7.14589 42.2883 6.88059 42.2711C6.72519 42.2611 6.37589 42.3145 6.25829 42.252C6.06119 42.1471 6.06449 41.6768 6.05969 41.4909C6.03719 40.6443 6.08719 39.7567 6.11399 38.909C6.14469 37.9411 5.79049 34.7674 6.64859 34.2071C6.66069 34.199 6.67599 34.1998 6.68739 34.2091C7.64959 34.9945 6.79189 38.4724 7.22039 39.8054C7.35769 40.2332 7.71749 40.2171 7.80779 39.7664C7.91159 39.2464 7.75699 38.3041 7.73239 37.7462C7.69189 36.8243 7.69389 35.9006 7.64169 34.9792C7.61999 34.5977 7.53939 34.3325 7.35609 34.0018C7.12909 33.5916 6.98969 33.3391 6.90679 32.8607C6.75589 31.9907 6.87869 30.8904 6.99829 30.024C7.00059 30.0073 7.01469 29.9953 7.03119 29.9955C7.57319 29.9978 8.10789 29.9987 8.64779 29.9356C9.42839 29.8438 10.626 29.5747 10.4752 28.5398C10.2585 27.0516 3.17269 26.6357 3.20519 28.5481C3.21199 28.9571 3.26339 29.4905 3.60999 29.7652C4.10859 30.1601 5.62709 29.9968 6.25739 29.9968C6.27419 29.9968 6.28809 30.009 6.29009 30.0256C6.38189 30.7476 6.35079 31.4759 6.35819 32.2016C6.36039 32.4167 6.40889 33.1865 6.32159 33.3775C6.24799 33.5388 5.99599 33.8386 5.88749 34.018C5.46979 34.7087 5.58739 37.0467 5.54009 37.9313C5.52819 38.4512 5.46799 38.9749 5.41929 39.4925C5.31579 40.5932 5.05819 42.5579 6.52659 42.8535C7.05259 42.9592 7.55539 42.8431 7.73919 42.3003ZM5.37239 28.0642L5.34339 29.351C5.34299 29.3684 5.32859 29.3828 5.31099 29.3833C4.78899 29.3964 3.65669 29.5062 3.73709 28.6837C3.81629 27.8742 4.75579 28.0781 5.33679 28.0305C5.34649 28.0298 5.35519 28.0328 5.36209 28.0394C5.36929 28.0462 5.37279 28.0545 5.37239 28.0642ZM9.87599 28.6949C9.53639 29.2042 8.57619 29.384 8.00219 29.3844C7.98419 29.3844 7.96959 29.3698 7.96919 29.3518L7.95399 28.0946C7.95389 28.0855 7.95719 28.0777 7.96359 28.0712C7.96989 28.0646 7.97779 28.0613 7.98689 28.0613C8.73589 28.0574 9.27259 28.1902 9.86869 28.6504C9.88259 28.6609 9.88589 28.6804 9.87599 28.6949ZM5.95939 28.0055L7.23969 27.9803C7.24899 27.9802 7.25689 27.9833 7.26349 27.9896C7.26999 27.9963 7.27339 28.0039 7.27339 28.0132L7.27849 29.3589C7.27849 29.3682 7.27519 29.3761 7.26859 29.3825C7.26209 29.3889 7.25419 29.3922 7.24499 29.392L5.94559 29.3768C5.92739 29.3765 5.91279 29.3615 5.91299 29.3433L5.92679 28.0381C5.92699 28.0203 5.94149 28.006 5.95939 28.0055Z" fill="#BBE5FB"/>
<path fill-rule="evenodd" clip-rule="evenodd" d="M36.1762 49.0332C36.0159 47.6304 35.7513 45.6441 35.1217 44.3734C34.7841 43.6921 34.4858 43.4563 33.8933 43.0354C33.6098 42.8339 33.3931 42.6419 33.201 42.3471C33.0068 42.0489 32.9119 41.7254 32.8127 41.3883C32.7448 41.158 32.6588 40.8453 32.4725 40.6815C32.3618 40.5841 32.2278 40.5461 32.0837 40.5404C31.8285 41.2981 33.2582 44.5799 33.5495 45.4247C33.5554 45.4417 33.5465 45.4603 33.5296 45.4664C31.6439 46.1577 32.5942 43.7073 31.0092 43.6914C29.3936 43.6751 30.36 45.6546 30.6373 46.4553C30.6401 46.4637 30.6397 46.4722 30.6356 46.4805C30.6318 46.4887 30.6254 46.4943 30.6168 46.4972L21.3023 49.7006C21.2851 49.7066 21.2663 49.6974 21.2603 49.6802L17.7642 39.6025C17.7611 39.5939 17.7616 39.5854 17.7657 39.5772C17.7697 39.5691 17.776 39.5635 17.7847 39.5605L30.033 35.3322C30.0418 35.3292 30.0504 35.3297 30.0585 35.3339C30.0667 35.338 30.0725 35.3444 30.0752 35.3531C30.3574 36.218 30.7349 37.9742 31.3749 38.6105C32.017 37.9997 30.8145 35.3803 30.4145 34.7573C29.6166 34.6668 17.7865 38.7433 17.1221 39.3454L20.852 50.3086C21.6798 50.4305 25.1096 49.1058 25.9547 48.7915C26.8832 48.4462 27.8097 48.0939 28.7426 47.7608C29.3613 47.5399 30.0823 47.2711 30.7248 47.1421C30.7424 47.1387 30.7598 47.15 30.7634 47.1676C30.9472 48.0291 31.6084 50.0289 32.626 50.1907C32.6661 50.0875 32.6841 49.98 32.6763 49.8687C32.6526 49.5266 32.3785 49.1687 32.1836 48.8997C31.9044 48.5137 31.6393 48.1383 31.5025 47.6746C31.3339 47.102 30.6622 44.8526 30.7787 44.3775C30.7827 44.362 30.7967 44.3516 30.8128 44.3526C30.8831 44.3569 30.9514 44.3718 31.0172 44.3969C31.8107 44.7004 32.0876 46.5641 33.1834 47.2178C33.2602 47.1532 33.465 46.9988 33.4791 46.9491C33.5074 46.8507 33.1941 46.4681 33.1383 46.3932C33.1327 46.3855 33.1306 46.3767 33.1323 46.3673C33.1341 46.3582 33.139 46.3507 33.147 46.3455C34.4521 45.5066 34.2704 46.2969 33.9369 44.6765C33.86 44.3024 33.7599 44.2287 33.9276 43.8021C33.932 43.7909 33.9411 43.7835 33.953 43.7816C33.9647 43.7798 33.9759 43.7838 33.9837 43.7929C34.7246 44.6802 34.9446 45.3207 35.1436 46.4455C35.1784 46.6423 35.2021 46.8412 35.2238 47.0399C35.2991 47.7257 35.3163 48.8854 36.1762 49.0332ZM31.7386 39.2455C31.3831 39.7108 31.3967 39.692 31.9298 39.8027C31.9732 39.7116 32.1187 39.4148 32.1187 39.4145C32.1158 39.411 31.8308 39.2881 31.7386 39.2455ZM21.7349 47.8695C21.7577 47.9038 21.7517 47.9666 21.8555 47.997C22.0856 48.0649 22.593 47.8792 22.8028 47.7985C22.869 47.7732 23.4341 47.5937 23.4608 47.5476C23.4783 47.5169 23.4583 47.2581 23.456 47.1818C23.4326 47.1478 23.4365 47.0859 23.3315 47.0546C23.1004 46.9864 22.6075 47.165 22.3967 47.2455C22.3284 47.2716 21.7595 47.4498 21.7315 47.4963C21.7112 47.5304 21.7321 47.7919 21.7349 47.8695ZM21.311 46.6383C21.4501 46.7267 21.408 46.7993 21.4462 46.842C21.4845 46.8852 22.8207 46.3987 22.8878 46.3755C22.9766 46.3445 24.3051 45.9255 24.3213 45.8498C24.3224 45.8446 24.2645 45.6323 24.2565 45.5379C24.1732 45.4865 24.103 45.4298 24.1103 45.3356C23.978 45.3599 23.6895 45.4533 23.5792 45.4795L21.7873 46.1022C21.6516 46.1645 21.5103 46.224 21.3669 46.2667C21.3442 46.2735 21.2758 46.2878 21.2425 46.298C21.2839 46.441 21.3088 46.4609 21.311 46.6383ZM26.4516 43.8247C27.2244 45.3479 28.6041 44.869 28.3114 43.1894C28.309 43.1745 28.3162 43.1606 28.3295 43.1539C28.4305 43.1042 29.0497 42.8291 29.1007 42.7297C29.1301 42.6721 29.1516 42.5491 29.1818 42.4752C29.2815 42.2298 29.4595 41.9743 29.6155 41.7624C30.1199 41.0771 30.2886 40.5342 29.7148 39.7686C29.551 39.55 29.3824 39.4804 29.2014 39.2956C28.3643 38.4424 27.6995 37.6903 26.3835 37.6671C26.1888 37.6638 26.0295 37.6765 25.865 37.7856C25.5547 37.9915 25.4176 38.0396 25.0298 38.0789C24.2713 38.1557 24.3005 37.902 23.5571 38.4061C23.1999 38.6481 23.0249 39.0127 22.6803 39.2495C22.222 39.5643 21.7547 39.6195 21.4185 40.1126C21.2233 40.6181 21.0891 41.6561 21.0815 42.1875C21.0598 43.6939 21.6882 44.5731 23.3079 44.168C23.682 44.0745 24.699 43.7727 25.0797 43.9659C25.3659 44.111 26.1337 43.8799 26.4141 43.8077C26.4291 43.8038 26.4445 43.8108 26.4516 43.8247ZM27.5754 42.8083C27.6916 43.3604 27.9414 43.5407 27.5939 44.0776C27.5858 44.0905 27.5698 44.0959 27.5553 44.0905C26.9623 43.8806 27.041 43.5793 26.7869 43.0834C26.5476 43.1296 26.3325 43.2116 26.0938 43.264L25.3616 43.327C24.6461 43.243 24.0148 43.3339 23.3207 43.4948C22.9905 43.5711 22.3888 43.7571 22.0735 43.5885C21.7501 43.4154 21.6954 42.9067 21.6742 42.5836C21.6733 42.5686 21.6823 42.5551 21.6966 42.5502C22.392 42.3178 21.788 42.9601 22.5382 42.3837C22.3172 41.6212 21.6875 41.8379 21.8438 40.6245C21.8445 40.6195 21.846 40.6154 21.8487 40.611C22.3633 39.7994 23.0423 40.0113 23.8482 39.9406C23.6543 39.2277 23.1349 39.0149 24.3183 38.6994C25.5885 38.3606 25.2139 39.1406 25.9664 39.4163C26.0314 39.3175 26.1687 39.1098 26.1375 39.0055C26.0466 38.7032 26.0537 38.6476 26.141 38.3143C26.1455 38.298 26.1612 38.2875 26.1783 38.2902C26.2784 38.3061 26.7019 38.3517 26.7059 38.5047C26.7067 38.5358 26.6904 38.5678 26.7117 38.5935C26.7593 38.6514 26.9512 38.699 27.0198 38.7156C27.141 38.7452 27.2302 38.7654 27.3383 38.6998C27.5172 38.5912 27.8097 38.7239 27.9918 38.7976C28.7955 39.5266 28.2553 39.5066 28.2933 40.3313C29.1301 40.5093 28.5571 40.0877 29.1143 40.0542C29.1246 40.0537 29.134 40.0575 29.1411 40.0654C29.7821 40.7926 29.3999 40.9996 28.9166 41.5929C28.8004 41.7359 28.6734 41.9001 28.5897 42.0656C28.5577 42.1283 28.5366 42.2055 28.5043 42.2625C28.4282 42.3969 27.7579 42.7158 27.5754 42.8083ZM24.2893 40.7696C23.9601 40.5738 23.2117 40.5083 22.8702 40.6665C22.8084 40.7627 22.4373 40.5513 22.9301 41.1372C23.0142 41.2372 23.2807 41.3502 23.4103 41.3622C24.0136 41.4182 24.1268 41.2929 24.2893 40.7696ZM23.9169 42.2666C24.7178 42.8209 25.3117 42.1169 25.1607 41.291C25.0509 41.3185 24.7288 41.3991 24.7138 41.4104C24.6554 41.5653 24.5169 41.6592 24.3865 41.7576C24.3186 41.8089 24.1076 41.9724 23.9843 41.9671C23.9711 42.0717 23.9472 42.164 23.9169 42.2666ZM27.7227 41.8742L27.0961 40.9816C27.0246 40.8966 26.9531 40.8119 26.8888 40.7212C26.8544 40.7117 26.8094 40.6793 26.7791 40.6564C26.1869 41.4628 26.7859 42.1755 27.7227 41.8742ZM26.263 40.4647C26.2151 40.4094 26.1458 40.3284 26.1112 40.2639C26.0134 40.2648 25.8006 40.1616 25.7502 40.1385C25.5926 40.0656 25.4652 40.0066 25.3376 39.8897C25.2225 39.8972 25.1092 39.9236 24.983 39.9326C24.9353 40.7639 25.7497 41.2603 26.263 40.4647Z" fill="#BBE5FB"/>
<path fill-rule="evenodd" clip-rule="evenodd" d="M46.4929 35.4766C46.7711 34.9158 46.1279 34.8348 45.9926 35.2432C45.9519 35.413 46.0137 35.4926 46.1595 35.5645C46.3049 35.6363 46.3951 35.6001 46.4929 35.4766ZM45.8615 36.4011C45.6841 36.1883 45.3431 36.112 45.1169 35.9728C44.9843 35.8911 44.651 35.7744 44.5764 35.6638C44.4516 35.479 44.6748 35.0652 44.7576 34.8986C45.1349 34.1403 45.5951 33.3796 46.0166 32.6437C46.4975 31.8028 47.6729 28.8339 48.6934 28.7415C48.7081 28.7402 48.7212 28.7481 48.727 28.7616C49.2083 29.9063 46.8201 32.576 46.5732 33.9543C46.4941 34.3965 46.8196 34.5509 47.1102 34.1952C47.4459 33.7847 47.7512 32.8799 47.9911 32.3755C48.3875 31.5424 48.8226 30.7274 49.2085 29.8892C49.3683 29.5421 49.4212 29.2703 49.4147 28.8919C49.4064 28.4234 49.4017 28.1349 49.5529 27.6733C49.8276 26.8342 50.4519 25.92 50.9639 25.2109C50.9737 25.1974 50.9917 25.1933 51.0063 25.2011C51.843 25.6498 54.2073 26.9945 54.731 25.5302C55.0592 24.6127 52.7873 23.0985 52.1646 22.7335C51.471 22.327 48.8819 20.9973 48.3058 22.1284C48.12 22.493 47.9153 22.9881 48.0927 23.3934C48.3478 23.9759 49.7656 24.5438 50.3223 24.8395C50.3372 24.8474 50.3437 24.8647 50.3378 24.8804C50.0802 25.5608 49.7112 26.1898 49.3775 26.8341C49.2783 27.025 48.9604 27.7276 48.7938 27.8554C48.6532 27.9634 48.2898 28.1101 48.1099 28.2177C47.417 28.6319 46.4246 30.752 45.9679 31.511C45.7136 31.9648 45.4149 32.3993 45.129 32.8336C44.5217 33.7571 43.3728 35.3715 44.5311 36.3213C44.9459 36.6613 45.4445 36.7946 45.8615 36.4011ZM50.447 22.7175L49.8179 23.8404C49.8092 23.8556 49.7901 23.8616 49.7744 23.8537C49.3069 23.6206 48.2553 23.1865 48.7121 22.4979C49.1615 21.82 49.8959 22.4405 50.4311 22.671C50.4403 22.675 50.4464 22.6815 50.4496 22.6907C50.4527 22.6999 50.4517 22.7091 50.447 22.7175ZM54.1292 25.3866C53.5904 25.6771 52.6576 25.3854 52.1506 25.1167C52.1346 25.1082 52.1285 25.0884 52.1367 25.0726L52.7127 23.9552C52.7169 23.9469 52.7233 23.9414 52.7321 23.9387C52.7408 23.936 52.7494 23.9367 52.7574 23.9409C53.4207 24.2884 53.8328 24.6577 54.1435 25.3439C54.1507 25.3597 54.1445 25.3783 54.1292 25.3866ZM50.9928 22.9407L52.1356 23.519C52.1438 23.5232 52.1492 23.5297 52.1522 23.5385C52.1549 23.5472 52.1543 23.5557 52.1499 23.5639L51.5231 24.7545C51.5189 24.7628 51.5122 24.7682 51.5035 24.7707C51.4948 24.7735 51.4862 24.7727 51.4781 24.7682L50.3378 24.1455C50.3219 24.1368 50.3159 24.1167 50.3246 24.1008L50.9488 22.9546C50.9574 22.9388 50.9769 22.9328 50.9928 22.9407Z" fill="#BBE5FB"/>
<path fill-rule="evenodd" clip-rule="evenodd" d="M72.9181 37.3236C71.9219 37.1043 72.1475 37.5127 71.2044 36.7388C70.924 36.5089 70.4605 37.0909 70.9232 37.3868C71.3819 37.68 71.5793 37.8013 72.1182 37.9091C72.1295 37.9112 72.1382 37.9183 72.1424 37.929C72.1468 37.9396 72.1454 37.9508 72.1389 37.9602C70.8471 39.8242 69.7557 38.8177 68.5693 37.6022C68.5609 37.5937 68.558 37.5821 68.5612 37.5705C68.6532 37.2357 68.8514 36.8314 68.9034 36.5097C68.984 36.0102 68.665 35.6414 68.3158 36.2495C68.1288 36.5752 68.0598 37.078 67.9385 37.4456C67.9339 37.4595 67.9212 37.4685 67.9066 37.4682C67.562 37.4613 67.1234 37.6077 66.7799 37.6781C65.4869 37.9434 64.9656 37.3459 64.7098 36.0701C64.7068 36.055 64.7144 36.04 64.7286 36.0336C65.2107 35.8157 65.8898 36.0974 66.2995 35.8076C66.8948 35.3864 66.3269 35.1695 65.8292 35.3423C65.0062 35.6281 64.4206 34.3721 64.785 33.8614C64.916 33.6777 65.0749 33.7091 65.1433 33.4271C65.2527 32.9758 64.9943 32.9275 64.6396 33.1002C63.9015 33.4592 64.2601 35.0936 64.039 35.7381C64.0359 35.7473 64.0297 35.754 64.0209 35.7578C64.0119 35.7616 64.0027 35.7615 63.9938 35.7572C63.391 35.4771 63.0981 34.6715 63.1581 34.043C63.1725 33.8955 63.2127 33.7541 63.2743 33.6193C63.5825 32.9465 64.5643 32.4118 64.7275 32.0382C64 31.4506 63.6519 32.2836 63.0264 32.598C63.0171 32.6026 63.0073 32.6027 62.9977 32.5985C62.9885 32.5941 62.9819 32.5865 62.9796 32.5765C62.6353 31.2116 63.4514 30.1673 64.8409 30.0547C64.8571 30.0533 64.8716 30.0637 64.8755 30.0795C64.9781 30.4884 65.2146 31.1461 65.6526 31.2853C66.1412 31.4405 66.3761 31.2063 66.0225 30.7762C65.71 30.3965 65.4199 30.3662 65.6244 29.7393C65.708 29.4826 65.8412 29.196 66.1487 29.1842C66.296 29.1786 66.4826 29.2439 66.616 29.1985C66.9946 29.0703 66.9563 28.7268 66.5952 28.5851C65.9015 28.3131 65.5088 29.0264 65.0501 29.3421C64.8634 29.4707 64.5896 29.3843 64.4006 29.3056C64.3876 29.3001 64.3799 29.2878 64.3803 29.2736C64.425 28.2404 64.8051 27.2665 65.6778 26.6615C67.3611 25.4949 66.8166 26.9677 67.7541 26.9775C67.861 26.5191 67.6848 26.1991 67.7154 25.7738C67.7822 24.8431 68.5062 24.7309 69.2118 25.1469C69.7114 25.4417 69.3611 25.8502 70.0193 25.8858C70.5055 24.8449 69.493 24.8381 68.9835 24.2836C68.9757 24.275 68.9728 24.2643 68.9758 24.2532C68.9785 24.242 68.986 24.2338 68.9967 24.2302C70.1621 23.818 70.6991 24.0648 71.5979 24.8431C71.6052 24.8493 71.6089 24.8573 71.6093 24.867C71.6281 25.44 71.4329 25.6982 71.3467 26.1935C71.2553 26.719 71.6558 27.0079 71.9512 26.3668C72.1422 25.9523 72.1418 25.5817 72.4184 25.1581C72.4232 25.1509 72.4298 25.1462 72.4384 25.144C73.539 24.879 74.2768 25.1322 75.0127 25.9855C75.0209 25.995 75.0232 26.0073 75.0186 26.0189C75.0141 26.0308 75.0041 26.0384 74.9917 26.0398L74.4151 26.1086C74.0879 26.1376 73.4834 26.1141 73.3308 26.4674C73.1418 26.9049 73.2626 27.1004 73.7319 26.9071C73.7856 26.8852 73.8332 26.8558 73.8829 26.8264C74.3004 26.5783 74.8491 26.8178 75.2574 26.9783C75.2672 26.9821 75.2738 26.9894 75.2769 26.9993C75.4384 27.5302 75.4368 27.7505 75.2519 28.2486C75.2086 28.3656 75.1831 28.4688 75.1844 28.5931C75.2919 28.6935 75.444 28.7177 75.5581 28.6086C75.615 28.5544 75.6956 28.3508 75.754 28.2691C76.1134 27.1735 75.9942 26.1668 75.1946 25.302C74.7276 24.797 74.2206 24.5165 73.5295 24.4915C73.1178 24.4765 72.5568 24.5864 72.1768 24.4589C72.0351 24.4112 71.618 24.0994 71.4643 24.0048C71.0641 23.759 70.6276 23.5488 70.1652 23.4543C68.6114 23.1365 67.6549 24.3281 67.0673 25.606C67.0624 25.6167 67.0531 25.6233 67.0414 25.625C65.8445 25.7837 64.78 26.1451 64.3196 27.3495C63.9602 28.2894 64.0113 29.2831 63.2007 30.0236C62.1533 30.9804 62.1205 31.8285 62.4955 33.1236C62.7953 33.7629 62.4891 33.9303 62.6054 34.574C62.7151 35.1811 62.8729 35.6701 63.3832 36.0452C63.6586 36.2473 63.9056 36.3838 64.1465 36.6408C64.2177 36.7168 64.2726 36.8008 64.3198 36.893C64.6105 37.4592 64.6106 37.6676 65.2334 38.0299C65.8521 38.39 66.3196 38.5042 67.0012 38.2794C67.3611 38.1606 67.6512 38.037 68.0418 38.0345C68.049 38.0345 68.0553 38.0363 68.0611 38.0404C68.127 38.0868 68.1908 38.1362 68.2522 38.1883C68.3683 38.2865 68.4769 38.393 68.582 38.5025C68.8674 38.7995 69.1418 39.1371 69.4857 39.3681C70.0759 39.765 70.7013 39.6944 71.3414 39.4553C71.5655 39.3718 71.7935 39.2838 72.0093 39.1812C72.0662 39.1544 72.1519 39.1036 72.2106 39.0877C72.2718 39.071 72.3784 39.077 72.4427 39.0765C72.697 39.0742 72.952 39.0605 73.2057 39.0438C73.9617 38.994 74.1343 38.6708 74.705 38.2821L74.8029 37.9069C74.8164 37.8548 74.9504 37.3448 74.8813 37.3101C74.7657 37.2523 73.7584 38.5021 72.9243 38.4476C72.9075 38.4465 72.8946 38.4331 72.8936 38.4162C72.8756 38.057 72.9464 37.6701 72.9181 37.3236ZM70.2194 27.4639C70.1715 27.301 70.1229 27.1565 69.9625 27.066C69.6772 26.9052 69.1631 27.0127 68.8682 27.0873C67.1178 27.5301 67.3977 30.4062 68.715 30.6701C69.2996 30.7871 69.3677 30.5267 68.9814 30.1293C68.4807 29.6144 67.9928 29.5036 68.2356 28.5936C68.6115 27.1841 69.561 27.9522 70.2194 27.4639ZM66.7095 32.9773C66.6273 33.5107 66.6918 34.2972 67.3911 34.3178C67.6908 34.3267 67.9609 34.109 67.6714 33.8931C67.445 33.7241 67.2625 33.7022 67.2407 33.3608C67.217 32.9889 67.2453 32.5899 67.6735 32.485C67.8882 32.4324 68.0247 32.5569 68.1209 32.5202C68.3051 32.45 68.2682 32.0847 68.1325 32.0018C68.0828 31.9713 68.0298 31.9482 67.974 31.9319C67.34 31.7483 66.7986 32.4014 66.7095 32.9773ZM70.7266 28.2616C70.5459 28.5626 70.4356 29.0175 70.3477 29.357C70.1862 29.9813 70.0314 30.5988 69.8406 31.2156L68.9117 34.2154C68.8884 34.3511 68.817 34.8244 69.0188 34.8811C69.1593 34.9207 69.356 34.7461 69.4068 34.625C69.8183 33.6411 70.155 32.5398 70.4635 31.5184C70.7671 30.5131 71.0912 29.4278 71.2874 28.3969C71.3163 28.2445 71.3358 27.8829 71.1083 27.8599C70.9581 27.8446 70.7907 28.1552 70.7266 28.2616ZM76.4065 34.4347C76.1608 34.1554 75.7833 34.196 75.4512 33.9902C75.3272 33.9135 75.1796 33.7868 75.2392 33.6237C75.2413 33.6185 75.2437 33.6145 75.2478 33.6109C76.0248 32.8871 76.3479 31.6629 76.0447 30.648C75.5757 29.0789 73.8619 28.6237 72.4485 29.2475C71.9927 29.4486 71.63 29.7902 71.3932 30.2275C71.0443 30.8721 71.0015 31.6643 71.2642 32.3468C71.5743 33.1526 72.2435 33.6762 73.0656 33.8984C73.5328 34.0247 74.1157 34.0752 74.5959 34.0563C74.7493 33.9902 74.9607 34.337 74.9004 34.5369C74.837 34.7475 74.7362 34.8738 74.7069 35.1148C74.6606 35.4967 74.835 35.8875 75.0269 36.2068C75.3263 36.7059 75.7817 36.983 76.3663 36.8499C76.4551 36.8299 76.5397 36.7948 76.6167 36.7457C76.9219 36.5511 77.0456 36.1885 77.0383 35.8402C77.0274 35.3165 76.7445 34.8187 76.4065 34.4347ZM73.6016 29.4604C74.5665 29.3963 75.4447 30.168 75.6411 31.0905C75.8929 32.271 75.0964 33.3306 73.8934 33.4667C73.3391 33.5294 72.818 33.3668 72.4124 32.9811C72.1373 32.7196 71.9413 32.379 71.8343 32.0161C71.446 30.6983 72.2124 29.579 73.6016 29.4604ZM75.6659 34.7693C76.0124 34.7595 76.222 34.9553 76.3786 35.2512C76.4872 35.4563 76.6011 35.8196 76.5367 36.0518C76.4868 36.2312 76.2265 36.4078 76.045 36.4084C75.6746 36.4096 75.1431 35.571 75.1743 35.242C75.197 35.0039 75.4226 34.7761 75.6659 34.7693Z" fill="#BBE5FB"/>
<path fill-rule="evenodd" clip-rule="evenodd" d="M3.77154 52.1309C3.22804 51.8199 2.64994 51.5284 2.09594 51.2351C1.70924 51.0303 1.32225 50.8261 0.934746 50.6234C0.894646 50.6024 0.846345 50.5757 0.793945 50.5468V51.1543C0.817845 51.1251 0.848943 51.1004 0.888643 51.0811C0.898443 51.0763 0.909145 51.0763 0.918745 51.0815L2.87314 52.1336C2.88254 52.1386 2.88835 52.1469 2.89015 52.1575C2.89185 52.1679 2.88865 52.1777 2.88145 52.1855C2.67825 52.3989 2.32304 52.645 2.01574 52.6359C1.81774 52.6299 1.59544 52.6275 1.39864 52.607C1.38974 52.6059 1.38224 52.6019 1.37654 52.5951C1.25744 52.4508 0.931645 52.021 0.793945 51.6486V53.3754C0.888645 53.3619 1.00194 53.3486 1.14634 53.331C1.16414 53.3286 1.18054 53.3412 1.18294 53.3589L1.36004 54.547C1.36204 54.5594 1.35704 54.5711 1.34654 54.5786C1.33614 54.586 1.32325 54.5866 1.31205 54.5809L0.793945 54.3074V54.8762C0.974745 55.0193 1.13215 55.1823 1.25285 55.3566C1.26035 55.3675 1.26074 55.381 1.25404 55.3925L0.815146 56.1325C0.810346 56.1405 0.802545 56.146 0.793945 56.1477V56.9639C2.07275 56.1226 2.39664 55.1523 1.88324 53.1332C1.88054 53.1223 1.88294 53.1118 1.89024 53.1033C1.89754 53.095 1.90785 53.091 1.91875 53.0923C2.66315 53.1752 3.48964 52.8743 3.77154 52.1309ZM0.793945 47.8101C1.72915 47.8575 2.33525 47.9923 2.86645 48.8528C3.06125 49.1682 3.18155 49.4394 3.31124 49.7808C3.41184 50.0452 3.71335 50.7898 3.94785 50.1677C4.34475 49.1145 3.12204 47.8991 2.21794 47.5606C1.74634 47.3841 1.21915 47.396 0.793945 47.1694V47.8101Z" fill="#BBE5FB"/>
<path fill-rule="evenodd" clip-rule="evenodd" d="M34.6976 73.646C33.6804 73.7253 34.0148 74.0507 32.888 73.5838C32.5529 73.4451 32.2782 74.1362 32.8066 74.2853C33.3305 74.4329 33.5548 74.4916 34.1017 74.4385C34.113 74.4375 34.1235 74.4418 34.1308 74.4508C34.1379 74.4596 34.14 74.4707 34.1364 74.4816C33.4407 76.64 32.1046 75.9934 30.6167 75.1744C30.6061 75.1686 30.6001 75.1584 30.5997 75.1464C30.5904 74.799 30.6628 74.3549 30.6192 74.0318C30.5517 73.5305 30.1391 73.2698 29.9812 73.9531C29.8968 74.3192 29.9769 74.8201 29.9675 75.2072C29.9671 75.222 29.9576 75.2344 29.9435 75.2383C29.6117 75.3315 29.2346 75.599 28.9262 75.7659C27.7656 76.3947 27.0933 75.9742 26.4785 74.8274C26.4713 74.8137 26.4742 74.7972 26.4857 74.787C26.884 74.4389 27.6161 74.5113 27.9237 74.1151C28.3712 73.5392 27.7648 73.4965 27.3388 73.8062C26.6339 74.3185 25.7092 73.2863 25.9097 72.6919C25.9819 72.4782 26.1431 72.4622 26.1266 72.1725C26.1004 71.7088 25.8391 71.7377 25.5498 72.0058C24.9474 72.5633 25.7647 74.0237 25.7403 74.7045C25.7399 74.7142 25.736 74.7225 25.7285 74.7286C25.721 74.7349 25.7122 74.7374 25.7027 74.7359C25.0441 74.6424 24.5305 73.9565 24.4055 73.3374C24.3763 73.1922 24.3739 73.0451 24.3938 72.8984C24.4935 72.1651 25.2782 71.3686 25.3258 70.9639C24.4591 70.6124 24.3676 71.5106 23.8602 71.9929C23.8526 72.0001 23.8433 72.0031 23.8331 72.0017C23.8228 72.0004 23.8144 71.9949 23.8092 71.9861C23.0841 70.7799 23.5642 69.5427 24.8592 69.0326C24.8742 69.0266 24.8911 69.0323 24.8994 69.0462C25.1162 69.4078 25.5331 69.9686 25.9925 69.9747C26.5054 69.9817 26.6625 69.6898 26.1992 69.3806C25.7902 69.1076 25.5034 69.1629 25.5172 68.5038C25.5228 68.2337 25.5672 67.9208 25.858 67.8204C25.9976 67.7723 26.1952 67.7806 26.3098 67.6984C26.6347 67.4659 26.4983 67.1484 26.1117 67.1176C25.369 67.0586 25.1999 67.8547 24.8525 68.2901C24.7112 68.4671 24.4241 68.4638 24.2206 68.4434C24.2065 68.442 24.1953 68.4325 24.1919 68.4188C23.9359 67.4205 24.0184 66.3717 24.6759 65.5426C25.9482 63.9381 25.8544 65.5052 26.7546 65.2428C26.7238 64.7731 26.4624 64.5178 26.368 64.1019C26.1621 63.1917 26.8227 62.8745 27.6187 63.068C28.1823 63.2051 27.9654 63.6979 28.6055 63.5411C28.7691 62.4038 27.798 62.6909 27.1496 62.3079C27.1396 62.3021 27.134 62.2926 27.1332 62.2811C27.1328 62.2698 27.1376 62.2597 27.1469 62.2529C28.1431 61.5198 28.7271 61.6006 29.8137 62.0853C29.8225 62.0891 29.8286 62.0956 29.8317 62.1048C30.016 62.6478 29.9039 62.9513 29.9653 63.4502C30.0302 63.9801 30.4972 64.1403 30.5938 63.4407C30.6564 62.9885 30.5487 62.6344 30.6905 62.1486C30.693 62.1402 30.698 62.1338 30.7055 62.1293C31.6884 61.5529 32.4556 61.5811 33.4134 62.188C33.4239 62.1947 33.4297 62.2058 33.4287 62.2183C33.4278 62.2308 33.4204 62.241 33.4089 62.2461L32.8773 62.4792C32.5724 62.6017 31.9871 62.7543 31.9435 63.1369C31.8897 63.6103 32.0615 63.7627 32.4548 63.4415C32.4997 63.4048 32.5369 63.3631 32.5761 63.3202C32.9036 62.9619 33.4984 63.032 33.9353 63.0672C33.9457 63.068 33.9543 63.0731 33.9601 63.0819C34.2687 63.5428 34.331 63.7542 34.2987 64.2842C34.2909 64.4088 34.2966 64.5149 34.3339 64.6337C34.466 64.6987 34.6184 64.6775 34.696 64.5399C34.7346 64.4717 34.753 64.2533 34.7853 64.1583C34.8114 63.0015 34.4089 62.079 33.389 61.4812C32.7957 61.1332 32.2292 61.0118 31.5605 61.1884C31.1619 61.2935 30.6571 61.5614 30.2565 61.5495C30.1071 61.545 29.6173 61.3675 29.4429 61.3217C28.9885 61.2025 28.5099 61.1279 28.04 61.1717C26.4581 61.3186 25.8915 62.7338 25.6994 64.1296C25.6978 64.1411 25.6909 64.1502 25.6803 64.155C24.5807 64.6542 23.6667 65.3088 23.5755 66.5949C23.5043 67.5986 23.8414 68.5348 23.2804 69.4786C22.5554 70.6982 22.7701 71.5193 23.5047 72.6499C23.9771 73.1748 23.7325 73.4237 24.0306 74.006C24.3118 74.5555 24.6047 74.9775 25.2018 75.1884C25.524 75.302 25.8001 75.3611 26.1051 75.5371C26.1952 75.589 26.2723 75.6537 26.3444 75.7284C26.7864 76.1858 26.8475 76.3853 27.5482 76.5512C28.2447 76.7164 28.7253 76.6899 29.3121 76.2772C29.6222 76.0591 29.8639 75.8564 30.237 75.7407C30.2438 75.7385 30.2502 75.7387 30.257 75.741C30.334 75.7661 30.4095 75.7953 30.484 75.8275C30.6229 75.8875 30.7568 75.9577 30.8884 76.0315C32.005 76.657 32.6026 77.0621 33.807 76.1433C33.997 75.9984 34.1898 75.8482 34.3669 75.6874C34.4131 75.6451 34.4806 75.572 34.532 75.5396C34.5858 75.5061 34.6897 75.4809 34.7508 75.4616C34.9936 75.3858 35.2338 75.2986 35.4717 75.2089C36.1808 74.9418 36.2522 74.5828 36.6858 74.0453L36.6704 73.6576C36.6683 73.6039 36.6481 73.0768 36.5722 73.0639C36.4445 73.0419 35.8435 74.5304 35.0295 74.7199C35.013 74.7238 34.9966 74.7148 34.9909 74.699C34.8695 74.3602 34.8249 73.9696 34.6976 73.646ZM29.2548 64.9933C29.1618 64.8513 29.0734 64.7269 28.8937 64.6869C28.574 64.6157 28.1131 64.8679 27.8526 65.0248C26.3133 65.9515 27.3987 68.6283 28.7451 68.4979C29.3406 68.4402 29.3298 68.1721 28.8433 67.9031C28.2149 67.5554 27.7158 67.591 27.684 66.6496C27.635 65.1919 28.7663 65.6516 29.2548 64.9933ZM27.4951 71.2874C27.5709 71.822 27.8611 72.5557 28.5362 72.3729C28.8258 72.2944 29.021 72.0075 28.6812 71.8848C28.4154 71.789 28.2345 71.821 28.1148 71.5006C27.9846 71.1525 27.8967 70.7608 28.2749 70.5369C28.4652 70.4243 28.6317 70.5038 28.7133 70.4407C28.869 70.3199 28.7279 69.9811 28.5737 69.941C28.5177 69.9266 28.4598 69.9197 28.402 69.9204C27.742 69.9287 27.4131 70.7104 27.4951 71.2874ZM29.9716 65.6095C29.8859 65.95 29.9124 66.4173 29.9267 66.7676C29.9534 67.4118 29.9841 68.0478 29.9804 68.6937L29.9617 71.8336C29.9789 71.9701 30.0479 72.4441 30.2574 72.4397C30.4035 72.437 30.5409 72.2127 30.5542 72.0821C30.6628 71.0212 30.6653 69.8696 30.6646 68.8025C30.6636 67.7524 30.6589 66.6196 30.5476 65.5761C30.5311 65.422 30.4447 65.0705 30.2205 65.1143C30.0722 65.1433 30.002 65.4888 29.9716 65.6095ZM37.198 69.8696C36.8819 69.6735 36.5325 69.8219 36.1548 69.7213C36.0142 69.6839 35.836 69.6052 35.8456 69.432C35.846 69.4267 35.8473 69.4219 35.8501 69.4174C36.3812 68.4931 36.3414 67.2394 35.7532 66.3506C34.8496 64.9851 33.0771 65.0466 31.9054 66.0535C31.5275 66.3781 31.2793 66.8105 31.1796 67.2979C31.0329 68.0153 31.2221 68.7868 31.6712 69.3632C32.2003 70.0425 32.9961 70.3512 33.8451 70.3254C34.3214 70.3109 34.9086 70.1905 35.3555 70.0328C35.483 69.9249 35.7862 70.1957 35.7865 70.4045C35.7866 70.6242 35.7269 70.7744 35.7688 71.0134C35.8352 71.3924 36.1155 71.716 36.3916 71.966C36.8222 72.3557 37.3401 72.489 37.8599 72.1928C37.9393 72.1475 38.0101 72.0894 38.0697 72.02C38.3047 71.7457 38.3179 71.3618 38.2102 71.0311C38.0479 70.5333 37.6328 70.1391 37.198 69.8696ZM33.0707 65.9229C33.9777 65.5808 35.0397 66.0648 35.4954 66.891C36.0787 67.9478 35.6242 69.193 34.5124 69.6722C32.2746 70.6365 30.385 66.9941 33.0707 65.9229ZM37.4247 71.8634C37.0704 71.972 36.3185 71.3236 36.253 70.9998C36.2057 70.7651 36.3553 70.4817 36.5862 70.4045C36.9151 70.2948 37.1722 70.4211 37.408 70.659C37.5714 70.8237 37.786 71.1386 37.7917 71.3796C37.7959 71.5657 37.5982 71.8101 37.4247 71.8634Z" fill="#BBE5FB"/>
<path fill-rule="evenodd" clip-rule="evenodd" d="M53.9864 59.8234C53.9692 59.1946 53.3636 59.4307 53.4351 59.8519C53.4789 60.0222 53.5701 60.0623 53.733 60.0575C53.8953 60.0526 53.958 59.9784 53.9864 59.8234ZM53.8623 60.936C53.6056 60.8313 53.2689 60.924 53.0036 60.9068C52.8483 60.8968 52.4991 60.9501 52.3815 60.8876C52.1844 60.7827 52.1877 60.3124 52.1827 60.1265C52.1604 59.2799 52.2102 58.3923 52.2371 57.5446C52.2678 56.5765 51.9135 53.4031 52.7716 52.8428C52.7839 52.8349 52.7993 52.8357 52.8106 52.8449C53.7727 53.6304 52.915 57.1081 53.3434 58.4413C53.4808 58.8689 53.8407 58.8527 53.9308 58.4023C54.0347 57.8819 53.8801 56.9401 53.8555 56.3821C53.8148 55.46 53.817 54.5363 53.7646 53.6148C53.7431 53.2333 53.6625 52.9684 53.4793 52.6377C53.2522 52.2275 53.1129 51.9749 53.0297 51.4964C52.8788 50.6265 53.0017 49.5261 53.1215 48.6599C53.1238 48.6432 53.1376 48.6312 53.1542 48.6314C53.6963 48.6335 54.231 48.6346 54.7707 48.5712C55.5513 48.4797 56.7489 48.2104 56.5983 47.1754C56.3814 45.6873 49.2958 45.2715 49.3282 47.1838C49.3351 47.5928 49.3864 48.1261 49.7331 48.4008C50.2315 48.7959 51.7501 48.6326 52.3804 48.6326C52.3972 48.6326 52.4111 48.6449 52.4132 48.6615C52.5051 49.3833 52.4739 50.1117 52.4811 50.8373C52.4833 51.0524 52.5318 51.8223 52.4447 52.0132C52.371 52.1743 52.1191 52.4745 52.0105 52.6538C51.5927 53.3446 51.7103 55.6825 51.6631 56.567C51.6513 57.0871 51.5911 57.6108 51.5424 58.1287C51.4389 59.2291 51.1815 61.1938 52.6497 61.4893C53.1755 61.5951 53.6784 61.4789 53.8623 60.936ZM51.4956 46.7001L51.4664 47.9869C51.4659 48.0043 51.4518 48.0185 51.4341 48.0189C50.912 48.0322 49.7796 48.1418 49.8601 47.3193C49.9393 46.5101 50.879 46.7137 51.4598 46.6664C51.4696 46.6657 51.4782 46.6686 51.4853 46.6753C51.4922 46.6818 51.4959 46.6903 51.4956 46.7001ZM54.0924 47.9876L54.0771 46.7305C54.0768 46.7214 54.0801 46.7135 54.0867 46.707C54.0931 46.7005 54.1007 46.6971 54.1098 46.6971C54.8589 46.6929 55.3958 46.8259 55.992 47.2862C56.0058 47.2968 56.0089 47.3162 55.9992 47.3307C55.6596 47.8398 54.6992 48.0196 54.1253 48.0202C54.1073 48.0202 54.0925 48.0057 54.0924 47.9876ZM52.0823 46.6412L53.3628 46.6161C53.3721 46.6159 53.3798 46.6191 53.3865 46.6255C53.3931 46.6319 53.3965 46.6397 53.3965 46.6489L53.4014 47.9947C53.4014 48.0038 53.3981 48.0118 53.3916 48.0181C53.3852 48.0247 53.3772 48.0278 53.368 48.0278L52.0686 48.0124C52.0505 48.0121 52.0359 47.9971 52.036 47.979L52.0498 46.6738C52.0501 46.656 52.0644 46.6416 52.0823 46.6412Z" fill="#BBE5FB"/>
<path fill-rule="evenodd" clip-rule="evenodd" d="M72.5492 69.21C71.5322 69.2891 71.8665 69.6146 70.7393 69.1476C70.4045 69.0088 70.1296 69.7003 70.6582 69.8493C71.1822 69.9968 71.4063 70.0554 71.9533 70.0023C71.9649 70.0012 71.9751 70.0054 71.9823 70.0144C71.9894 70.0233 71.9916 70.0343 71.988 70.0453C71.2923 72.204 69.9564 71.5571 68.4683 70.7383C68.4576 70.7324 68.4515 70.7222 68.4511 70.7102C68.4421 70.3631 68.5144 69.9187 68.4707 69.5957C68.4031 69.0946 67.9907 68.8338 67.8329 69.517C67.7485 69.8832 67.8284 70.3841 67.8189 70.771C67.8185 70.7859 67.8091 70.7982 67.7949 70.8021C67.4632 70.8953 67.0859 71.1628 66.7776 71.3299C65.6171 71.9587 64.9447 71.5379 64.3299 70.3912C64.3227 70.3775 64.3256 70.3612 64.3373 70.3508C64.7354 70.0027 65.4675 70.0754 65.7752 69.679C66.2227 69.1032 65.6164 69.0603 65.1903 69.3699C64.4854 69.8824 63.5606 68.8503 63.7613 68.256C63.8336 68.0422 63.9945 68.026 63.9783 67.7364C63.9521 67.2727 63.6908 67.3015 63.4013 67.5696C62.7991 68.1272 63.6162 69.5875 63.5919 70.2683C63.5916 70.2781 63.5875 70.2863 63.5801 70.2924C63.5728 70.2987 63.5639 70.3011 63.5542 70.2996C62.8957 70.2065 62.3819 69.5205 62.2574 68.9013C62.228 68.756 62.2256 68.6088 62.2455 68.4624C62.3451 67.7289 63.1298 66.9325 63.1775 66.5277C62.3107 66.1762 62.2193 67.0745 61.7119 67.5568C61.7043 67.5639 61.6948 67.5669 61.6846 67.5657C61.6744 67.5642 61.6659 67.5588 61.6607 67.55C60.9358 66.3439 61.4156 65.1065 62.7106 64.5964C62.7257 64.5904 62.7425 64.5963 62.7511 64.61C62.9677 64.9718 63.3847 65.5325 63.8441 65.5386C64.3569 65.5457 64.5139 65.2533 64.0506 64.9442C63.6418 64.6714 63.355 64.7268 63.3689 64.0676C63.3745 63.7975 63.4189 63.4849 63.7097 63.3844C63.849 63.3361 64.0465 63.3444 64.1612 63.2623C64.4861 63.0297 64.3498 62.7122 63.9634 62.6814C63.2206 62.6223 63.0515 63.4185 62.7042 63.854C62.5629 64.031 62.2756 64.0276 62.072 64.0072C62.0581 64.0058 62.0469 63.9962 62.0433 63.9826C61.7875 62.9846 61.87 61.9355 62.5276 61.1064C63.7999 59.5016 63.7059 61.0691 64.606 60.8067C64.5753 60.3371 64.3138 60.0816 64.2196 59.6657C64.0136 58.7557 64.6743 58.4383 65.4702 58.632C66.0338 58.7689 65.8171 59.2617 66.4571 59.105C66.6208 57.9676 65.6496 58.2548 65.0012 57.8718C64.9912 57.8659 64.9855 57.8565 64.9849 57.8451C64.9844 57.8336 64.9891 57.8235 64.9983 57.8167C65.9948 57.0837 66.5786 57.1647 67.6653 57.6491C67.6742 57.6529 67.6803 57.6594 67.6833 57.6686C67.8676 58.2116 67.7556 58.5153 67.8167 59.014C67.8819 59.5436 68.3488 59.704 68.4454 59.0046C68.508 58.5526 68.4003 58.1982 68.5421 57.7125C68.5445 57.704 68.5496 57.6976 68.5571 57.6931C69.54 57.1167 70.3072 57.1451 71.265 57.7518C71.2755 57.7585 71.2812 57.7696 71.2803 57.7822C71.2792 57.7946 71.2721 57.8048 71.2606 57.8099L70.7288 58.043C70.4238 58.1653 69.8385 58.3182 69.795 58.7007C69.7413 59.1744 69.9133 59.3266 70.3064 59.0053C70.3515 58.9686 70.3885 58.9267 70.4276 58.8842C70.7553 58.5257 71.35 58.5959 71.7869 58.6311C71.7972 58.632 71.8058 58.637 71.8115 58.6457C72.1202 59.1066 72.1825 59.318 72.1501 59.8481C72.1424 59.9728 72.148 60.0789 72.1854 60.1977C72.3174 60.2623 72.4699 60.2413 72.5477 60.104C72.5863 60.0355 72.6043 59.8171 72.6368 59.7221C72.6628 58.5654 72.2603 57.6429 71.2406 57.045C70.6472 56.6973 70.0806 56.5757 69.412 56.7522C69.0135 56.8574 68.5086 57.1252 68.108 57.1134C67.9587 57.1089 67.4689 56.9316 67.2944 56.8856C66.8401 56.7664 66.3615 56.6918 65.8914 56.7355C64.3095 56.8824 63.743 58.2978 63.5508 59.6934C63.5492 59.7051 63.5424 59.7141 63.5317 59.7189C62.4324 60.218 61.5183 60.8726 61.427 62.1587C61.3559 63.1624 61.6929 64.0985 61.1319 65.0424C60.407 66.2621 60.6218 67.0832 61.3563 68.214C61.8287 68.7388 61.5842 68.9876 61.8821 69.5698C62.1635 70.1193 62.4562 70.5413 63.0535 70.7524C63.3757 70.8661 63.6516 70.925 63.9566 71.101C64.0468 71.153 64.1238 71.2176 64.196 71.2922C64.6379 71.7497 64.6989 71.9491 65.3996 72.115C66.0963 72.2802 66.5768 72.2538 67.1639 71.8409C67.4738 71.6228 67.7155 71.4204 68.0884 71.3045C68.0952 71.3024 68.1018 71.3026 68.1085 71.3048C68.1854 71.3299 68.2611 71.3592 68.3353 71.3912C68.4741 71.4513 68.6085 71.5215 68.7401 71.5953C69.8564 72.221 70.4541 72.6259 71.6584 71.7074C71.8485 71.5624 72.0411 71.4122 72.2183 71.2512C72.2648 71.2092 72.332 71.1358 72.3836 71.1034C72.4373 71.0699 72.5411 71.0447 72.6024 71.0256C72.8452 70.9494 73.0851 70.8624 73.3233 70.7727C74.0325 70.5056 74.1037 70.1467 74.5372 69.6091L74.5219 69.2215C74.5197 69.1677 74.4997 68.6408 74.4236 68.6277C74.2959 68.6058 73.6951 70.0942 72.881 70.2837C72.8645 70.2876 72.8482 70.2788 72.8424 70.2628C72.7212 69.9241 72.6764 69.5334 72.5492 69.21ZM67.1065 60.5572C67.0134 60.4151 66.9248 60.2908 66.7451 60.2507C66.4256 60.1795 65.9648 60.4317 65.7043 60.5887C64.1652 61.5153 65.2502 64.1921 66.5966 64.0617C67.1921 64.004 67.1812 63.7359 66.6948 63.4667C66.0664 63.1193 65.5671 63.1548 65.5356 62.2134C65.4867 60.756 66.6179 61.2153 67.1065 60.5572ZM65.3468 66.8515C65.4226 67.3859 65.7126 68.1196 66.3878 67.9368C66.6771 67.8582 66.8727 67.5715 66.5329 67.4486C66.2671 67.3526 66.0861 67.3851 65.9663 67.0644C65.8362 66.7163 65.7481 66.3248 66.1263 66.1009C66.3164 65.9883 66.4834 66.0675 66.5647 66.0046C66.7206 65.8839 66.5794 65.5449 66.4253 65.505C66.3694 65.4904 66.3115 65.4835 66.2537 65.4842C65.5935 65.4924 65.2648 66.2744 65.3468 66.8515ZM67.8232 61.1733C67.7376 61.5136 67.7639 61.9811 67.7784 62.3314C67.8051 62.9758 67.8359 63.6117 67.832 64.2576L67.8133 67.3973C67.8305 67.534 67.8994 68.008 68.109 68.0038C68.2549 68.0008 68.3924 67.7765 68.4058 67.6459C68.5144 66.585 68.5168 65.4335 68.5159 64.3664C68.5149 63.3163 68.5103 62.1835 68.399 61.1399C68.3826 60.9859 68.2963 60.6341 68.0719 60.6781C67.9239 60.7073 67.8535 61.0526 67.8232 61.1733ZM75.0498 65.4335C74.7332 65.2373 74.384 65.3859 74.0065 65.2852C73.8657 65.2477 73.6874 65.1691 73.6971 64.9959C73.6975 64.9905 73.6988 64.986 73.7016 64.9813C74.2326 64.0572 74.1931 62.8033 73.6048 61.9145C72.7011 60.549 70.9288 60.6104 69.7571 61.6173C69.3789 61.9422 69.1309 62.3745 69.0312 62.8621C68.8846 63.5795 69.0737 64.3509 69.5229 64.9273C70.052 65.6063 70.8478 65.915 71.6966 65.8893C72.173 65.8749 72.7602 65.7543 73.207 65.5966C73.3346 65.4887 73.6375 65.7596 73.6379 65.9683C73.6382 66.188 73.5785 66.3382 73.6203 66.5772C73.6868 66.9562 73.9672 67.2798 74.2431 67.5298C74.6737 67.9195 75.1915 68.0527 75.7113 67.7566C75.7908 67.7113 75.8615 67.6535 75.921 67.5839C76.1561 67.3096 76.1694 66.9255 76.0617 66.5949C75.8994 66.0971 75.4842 65.7029 75.0498 65.4335ZM70.9222 61.4866C71.8291 61.1446 72.8913 61.6286 73.347 62.4547C73.9301 63.5118 73.4757 64.7568 72.3638 65.2361C70.1262 66.2004 68.2364 62.5579 70.9222 61.4866ZM74.4376 65.9683C74.7666 65.8586 75.0239 65.9851 75.2596 66.223C75.4228 66.3879 75.6374 66.7023 75.6431 66.9434C75.6475 67.1293 75.4496 67.374 75.2759 67.4274C74.9218 67.5359 74.17 66.8874 74.1044 66.5635C74.0571 66.3291 74.2068 66.0455 74.4376 65.9683Z" fill="#BBE5FB"/>
<path fill-rule="evenodd" clip-rule="evenodd" d="M88.835 52.2723C88.8175 52.225 88.4304 51.9227 88.3383 51.7952C88.0373 51.378 88.1542 50.8628 88.3514 50.4273C88.5354 50.0205 88.8249 49.7615 89.2807 49.7367C89.5782 49.7204 89.8387 49.8293 90.0859 49.8234C90.2801 49.8188 90.2741 49.7446 90.3172 49.5986C90.3663 49.4337 90.3097 49.3665 90.1692 49.2647C89.399 48.707 88.0638 49.4722 87.7132 50.2399C87.5823 50.5267 87.5445 50.8587 87.5686 51.171C87.6101 51.7119 87.9321 52.6331 88.5961 52.6455C88.8598 52.6504 88.9144 52.4866 88.835 52.2723ZM86.7089 55.5676C86.5949 55.4597 86.4706 55.4888 86.3735 55.2816C86.008 54.5008 86.3975 54.1669 87.1327 54.0772C87.2687 54.0605 87.7288 54.0301 87.6696 53.8157C87.5045 53.2174 86.2161 53.6543 85.9223 54.1141C85.4854 54.7973 85.6915 55.5508 86.4334 55.9288C86.7417 56.0858 87.0252 55.8673 86.7089 55.5676ZM93.2071 50.6162C93.0648 50.5406 92.8319 50.4031 92.6825 50.3435C92.2308 51.3349 92.4959 51.6231 93.0101 52.5071C93.0182 52.5211 93.0152 52.5382 93.0032 52.5487C92.7979 52.7269 92.2318 52.9367 91.9638 53.079C91.4572 53.348 91.0224 53.6906 90.7353 54.1966C90.14 55.2456 90.5877 55.9731 90.6159 57.0393C90.6163 57.0532 90.6087 57.0651 90.596 57.0707C89.9177 57.3603 88.9584 57.3329 88.7008 58.1421C88.8288 58.2345 89.0722 58.3557 89.2061 58.4317C89.5665 58.6364 89.9278 58.8395 90.2894 59.0423C90.801 59.3291 91.3421 59.6534 91.8659 59.9146C92.4423 59.1325 91.943 58.5138 91.7599 57.6984C91.7566 57.6829 91.7641 57.6677 91.7783 57.661C92.3509 57.3968 92.8257 57.1453 93.2071 56.8778V55.9546L93.1015 56.1326C93.0933 56.1463 93.0764 56.1523 93.0614 56.1463C92.5452 55.948 91.3844 55.5317 91.0937 55.0644C91.0883 55.0557 91.0872 55.0457 91.0906 55.036L91.3297 54.3516C91.3338 54.3396 91.3438 54.3315 91.3563 54.3298C91.9841 54.2433 92.711 54.5359 93.2071 54.9834V54.3744L92.1806 53.8325C92.1698 53.8269 92.1635 53.8168 92.163 53.8048C92.1624 53.7928 92.1679 53.782 92.178 53.7754C92.6848 53.448 92.7394 53.4175 93.2071 53.3586V51.923C93.0202 51.5771 92.9103 51.2105 93.175 51.0812C93.1849 51.0764 93.1955 51.0764 93.2052 51.0816L93.2071 51.0827V50.6162ZM91.068 57.7676L91.3764 58.7545C91.3807 58.7679 91.3762 58.7818 91.3652 58.7904C91.3543 58.799 91.3397 58.8 91.3277 58.7925L89.944 57.9417C89.9319 57.9342 89.926 57.9206 89.9292 57.9066C89.9322 57.8926 89.9431 57.8827 89.9571 57.8808L91.0322 57.7448C91.0485 57.7427 91.0632 57.7523 91.068 57.7676ZM91.4084 57.0269C91.0886 56.4689 91.1086 56.4 91.1031 55.7752C91.103 55.7629 91.1091 55.7523 91.1198 55.7461C91.1304 55.7403 91.1427 55.7403 91.1532 55.7467L92.578 56.6034C92.5893 56.6104 92.5951 56.6222 92.5939 56.6352C92.5925 56.6484 92.5839 56.6588 92.5715 56.663L91.4476 57.0419C91.4326 57.047 91.4165 57.0408 91.4084 57.0269ZM87.8559 48.8419C88.028 48.771 88.3503 48.6317 88.3714 48.4277C88.3828 48.3161 88.3107 48.1452 88.2836 48.0325C88.2126 47.7349 88.321 47.394 88.5379 47.1812C88.8316 46.8934 89.2278 46.902 89.591 47.0645C89.7744 47.1983 90.0151 47.3946 90.108 47.6093C90.158 47.7248 90.1391 47.8077 90.1706 47.9003C90.2123 48.0224 90.4939 48.0894 90.6234 48.1202C90.9264 47.4206 90.6545 47.0309 90.0436 46.6361C89.9663 46.5564 89.7959 46.3697 89.8678 46.2461C89.9817 46.0502 90.5334 46.2425 90.6826 46.3002C91.1329 46.4743 91.5867 46.7617 91.9303 47.1004C92.0558 47.2242 92.1712 47.3591 92.27 47.5049C92.2752 47.5126 92.277 47.5209 92.2751 47.5297C92.2509 47.6541 92.2115 47.7753 92.1653 47.893C92.0333 48.2291 91.5846 48.8891 91.8604 49.217C92.0289 49.1744 92.1747 49.1038 92.2987 48.9788C92.5471 48.7284 92.7736 48.1489 92.9992 47.8219C93.0059 47.8121 93.0163 47.8072 93.028 47.8076C93.0891 47.8105 93.1487 47.8136 93.2071 47.8173V47.2293C93.0616 47.1687 92.9254 47.0871 92.8042 46.9691C91.0738 45.2864 88.9197 45.0546 87.6958 47.419C87.6874 47.4345 87.6684 47.4412 87.6524 47.4334C86.3936 46.8427 85.0821 47.5993 84.3569 48.6438C84.0223 49.1255 83.768 49.8312 83.7181 50.4214C83.7177 50.4267 83.7161 50.4312 83.7133 50.4357C83.5993 50.6238 83.4497 50.7583 83.2631 50.8717C82.872 51.1093 82.4934 51.1914 82.1866 51.5721C82.1146 51.6614 82.0534 51.7614 82.001 51.8693V56.7095C82.267 57.0598 82.5876 57.2276 82.8113 57.7362C83.2324 58.6941 82.9113 58.9074 84.0376 59.4679C85.0701 59.9819 85.4755 59.4123 86.4157 59.7707C86.4225 59.7734 86.4277 59.7775 86.4318 59.7838C87.758 61.8438 87.3421 61.8273 89.8936 61.4962C90.7122 61.3899 91.0266 61.8578 91.9292 61.4948C92.3189 61.3382 92.7219 61.0631 92.9724 60.7214C93.2527 60.3388 93.3683 59.6619 92.7106 60.0934C92.6791 60.114 92.6505 60.1383 92.6241 60.1649C92.5111 60.2796 92.4309 60.4376 92.3187 60.5618C92.1328 60.7672 91.8966 60.8829 91.6339 60.96C91.2566 61.0707 91.0153 61.0958 90.666 60.9158C90.3111 60.733 90.0769 60.7645 89.6926 60.8796C88.1752 61.3344 87.0483 60.7336 86.9426 59.0898C86.9422 59.0846 86.943 59.0799 86.945 59.0748L87.3174 58.2013C87.4595 57.8214 87.2923 57.5207 86.9184 57.9492C86.6395 58.269 86.5034 58.5977 86.2764 58.9274C86.2711 58.9349 86.2639 58.9395 86.2547 58.941C84.6842 59.2131 83.213 59.0144 83.3123 57.0643C83.3131 57.0512 83.3208 57.0406 83.3328 57.0354C83.3448 57.0305 83.3577 57.0326 83.3676 57.0414C83.6786 57.3206 84.5542 57.3798 84.9262 57.1834C85.2803 56.9966 85.3891 56.6123 84.9003 56.5754C84.4088 56.5389 83.9426 56.9998 83.5198 56.3444C83.1068 55.7045 83.6627 55.1266 84.0792 54.6807C84.1439 54.6114 84.3904 54.3905 84.3269 54.2824C84.2432 54.1407 84.1276 54.1136 83.9699 54.152C83.0049 54.3877 82.6 55.7069 82.8247 56.5825C82.8284 56.5963 82.8228 56.6105 82.8106 56.6183C82.7986 56.6262 82.7836 56.6255 82.7723 56.6165C82.098 56.0819 82.0303 55.2668 82.3901 54.5224C82.6614 53.9611 82.9 53.6202 83.521 53.4911C83.5975 53.4751 83.6742 53.46 83.7495 53.4384C83.988 53.3702 84.3686 53.1649 84.0762 52.8968C83.5018 52.3701 82.9023 53.1712 82.3746 53.3727C82.3645 53.3765 82.3544 53.3755 82.3453 53.3699C82.3363 53.3642 82.3308 53.3557 82.3298 53.3451C82.1838 51.8755 83.295 51.0364 84.6904 51.2088C84.7036 51.2105 84.714 51.2193 84.7179 51.232C84.8457 51.6525 84.8966 52.2553 85.2585 52.5443C85.5248 52.7568 85.8504 52.8367 85.8126 52.3742C85.8021 52.2464 85.5206 52.0969 85.4315 51.9362C85.2267 51.5662 85.6218 50.7567 86.0205 50.6535C86.2564 50.5926 86.4285 50.6677 86.6874 50.5477C86.8444 50.4747 86.8309 50.2624 86.7298 50.1594C86.4663 49.8918 86.1002 50.0029 85.7948 50.1318C84.9576 50.4847 85.4658 50.7894 84.4776 50.4908C84.4638 50.4867 84.4547 50.4747 84.454 50.4604C84.4091 49.1504 85.274 48.2098 86.5131 47.9514C87.838 47.6751 87.3294 48.2522 87.8559 48.8419ZM87.9733 56.7901C88.6967 56.2024 90.6822 52.1108 91.2469 51.081C91.4806 50.5686 91.6438 49.7765 90.8792 50.5379C90.6766 50.7395 90.3635 51.361 90.2246 51.6225C89.8895 52.2532 89.5691 52.8928 89.2431 53.5286C89.0439 53.9168 87.717 56.3485 87.9733 56.7901Z" fill="#BBE5FB"/>
<path fill-rule="evenodd" clip-rule="evenodd" d="M8.21613 80.0829C8.19883 79.4541 7.59303 79.6901 7.66453 80.1113C7.70853 80.2815 7.79973 80.3217 7.96273 80.3167C8.12483 80.3119 8.18763 80.2376 8.21613 80.0829ZM8.09183 81.1955C7.83513 81.0905 7.49863 81.1833 7.23333 81.1662C7.07813 81.1562 6.72873 81.2095 6.61093 81.1471C6.41403 81.0423 6.41733 80.5719 6.41223 80.386C6.38983 79.5395 6.43983 78.6518 6.46663 77.8041C6.49723 76.8359 6.14313 73.6623 7.00123 73.1021C7.01353 73.0942 7.02873 73.095 7.04023 73.1042C8.00193 73.8894 7.14453 77.3673 7.57303 78.7006C7.71023 79.1282 8.07043 79.112 8.16033 78.6615C8.26413 78.1412 8.10973 77.1993 8.08503 76.6413C8.04443 75.7193 8.04673 74.7957 7.99423 73.8741C7.97263 73.4926 7.89203 73.2276 7.70873 72.8968C7.48173 72.4868 7.34233 72.2344 7.25933 71.7559C7.10853 70.8858 7.23133 69.7855 7.35103 68.9191C7.35323 68.9025 7.36733 68.8904 7.38393 68.8907C7.92583 68.8927 8.46053 68.8938 9.00023 68.8305C9.78093 68.7389 10.9786 68.4696 10.8279 67.4348C10.611 65.9466 3.52533 65.5306 3.55773 67.4432C3.56463 67.8523 3.61593 68.3855 3.96263 68.6602C4.46103 69.055 5.97983 68.8918 6.61003 68.8918C6.62683 68.8918 6.64073 68.9039 6.64273 68.9207C6.73473 69.6426 6.70363 70.371 6.71083 71.0967C6.71313 71.3118 6.76153 72.0815 6.67443 72.2726C6.60093 72.4338 6.34873 72.7337 6.24023 72.9132C5.82243 73.6039 5.94003 75.942 5.89283 76.8265C5.88113 77.3465 5.82083 77.8699 5.77213 78.388C5.66863 79.4885 5.41093 81.4531 6.87943 81.7486C7.40523 81.8543 7.90783 81.7384 8.09183 81.1955ZM5.72523 66.9594L5.69583 68.2461C5.69543 68.2637 5.68133 68.2777 5.66373 68.2782C5.14153 68.2916 4.00933 68.401 4.08983 67.5787C4.16893 66.7695 5.10853 66.9729 5.68943 66.9257C5.69933 66.9249 5.70773 66.9279 5.71473 66.9344C5.72193 66.9411 5.72543 66.9496 5.72523 66.9594ZM8.32183 68.2467L8.30673 66.9897C8.30653 66.9807 8.30983 66.9726 8.31613 66.9662C8.32253 66.9597 8.33033 66.9563 8.33953 66.9563C9.08843 66.9522 9.62543 67.0852 10.2216 67.5454C10.2353 67.5562 10.2386 67.5755 10.2288 67.59C9.88923 68.0992 8.92883 68.2789 8.35483 68.2795C8.33683 68.2795 8.32213 68.2649 8.32183 68.2467ZM6.31183 66.9005L7.59233 66.8754C7.60163 66.8753 7.60953 66.8784 7.61593 66.8848C7.62263 66.8912 7.62593 66.8991 7.62593 66.9083L7.63113 68.2538C7.63113 68.2631 7.62783 68.271 7.62133 68.2773C7.61473 68.2838 7.60693 68.2871 7.59773 68.287L6.29823 68.2717C6.28003 68.2714 6.26543 68.2564 6.26563 68.2384L6.27953 66.9331C6.27963 66.9152 6.29413 66.9009 6.31183 66.9005Z" fill="#BBE5FB"/>
</svg>
