<svg width="20" height="27" viewBox="0 0 20 27" fill="none" xmlns="http://www.w3.org/2000/svg">
<path d="M10 0C4.48597 0 0 4.38656 0 9.77834C0 16.4697 8.94902 26.293 9.33003 26.7079C9.68791 27.0977 10.3127 27.097 10.67 26.7079C11.051 26.293 20 16.4697 20 9.77834C19.9999 4.38656 15.514 0 10 0ZM10 14.6981C7.22575 14.6981 4.9688 12.4911 4.9688 9.77834C4.9688 7.06557 7.22581 4.85863 10 4.85863C12.7742 4.85863 15.0311 7.06562 15.0311 9.77839C15.0311 12.4912 12.7742 14.6981 10 14.6981Z" fill="#CC0053"/>
<circle cx="10" cy="10.2736" r="6" fill="white"/>
</svg>
