<svg width="31" height="31" viewBox="0 0 31 31" fill="none" xmlns="http://www.w3.org/2000/svg">
<path fill-rule="evenodd" clip-rule="evenodd" d="M15.6652 0.821777C23.9594 0.821777 30.683 7.54536 30.683 15.8396C30.683 24.1337 23.9594 30.8574 15.6652 30.8574C7.37105 30.8574 0.647461 24.1337 0.647461 15.8396C0.647461 7.54536 7.37105 0.821777 15.6652 0.821777Z" fill="#CC0256" fill-opacity="0.180392"/>
<path fill-rule="evenodd" clip-rule="evenodd" d="M7.67037 7.30566H10.8031C10.9473 7.30566 11.0645 7.42277 11.0645 7.56697C11.0644 7.71147 10.9474 7.82857 10.8031 7.82857H7.67037C7.52597 7.82857 7.40918 7.71137 7.40918 7.56697C7.40918 7.42277 7.52597 7.30566 7.67037 7.30566Z" fill="#CC0256"/>
<path fill-rule="evenodd" clip-rule="evenodd" d="M9.23592 5.73926C9.38002 5.73926 9.49732 5.85635 9.49732 6.00045L9.49723 9.13316C9.49723 9.27776 9.38012 9.39486 9.23602 9.39486C9.09142 9.39486 8.97461 9.27766 8.97461 9.13316V6.00045C8.97461 5.85635 9.09142 5.73926 9.23592 5.73926Z" fill="#CC0256"/>
<path fill-rule="evenodd" clip-rule="evenodd" d="M22.4586 9.46094C22.603 9.46094 22.7202 9.57775 22.7202 9.72225L22.7201 12.0384C22.7201 12.1825 22.6031 12.2996 22.4586 12.2996C22.3144 12.2997 22.1973 12.1825 22.1973 12.0384V9.72225C22.1973 9.57775 22.3144 9.46084 22.4586 9.46094Z" fill="#CC0256"/>
<path fill-rule="evenodd" clip-rule="evenodd" d="M21.3003 10.6191H23.6165C23.761 10.6191 23.8783 10.7359 23.8783 10.8803C23.8782 11.0246 23.761 11.1417 23.6166 11.1417H21.3003C21.1562 11.1417 21.0391 11.0245 21.0391 10.8803C21.0391 10.7359 21.1562 10.6191 21.3003 10.6191Z" fill="#CC0256"/>
<path fill-rule="evenodd" clip-rule="evenodd" d="M6.51797 10.9263C6.60347 10.9263 6.67297 10.9954 6.67297 11.081L6.67287 12.4524C6.67287 12.5377 6.60357 12.6071 6.51797 12.6071C6.43267 12.6071 6.36328 12.5377 6.36328 12.4524V11.081C6.36328 10.9954 6.43267 10.9262 6.51797 10.9263Z" fill="#CC0256"/>
<path fill-rule="evenodd" clip-rule="evenodd" d="M5.83242 11.6118H7.20383C7.28943 11.6118 7.35883 11.681 7.35883 11.7665C7.35873 11.852 7.28943 11.9213 7.20383 11.9213H5.83242C5.74702 11.9213 5.67773 11.8519 5.67773 11.7665C5.67773 11.681 5.74702 11.6118 5.83242 11.6118Z" fill="#CC0256"/>
<g clip-path="url(#clip0)">
<path d="M13.3281 15.8153C13.4334 15.8153 13.5186 15.73 13.5186 15.6249V15.1963C13.5186 15.0912 13.4334 15.0059 13.3281 15.0059C13.223 15.0059 13.1377 15.0912 13.1377 15.1963V15.6249C13.1377 15.73 13.223 15.8153 13.3281 15.8153Z" fill="black"/>
<path d="M13.6208 16.0645H13.0371C12.9319 16.0645 12.8467 16.1497 12.8467 16.2549C12.8467 16.36 12.9319 16.4453 13.0371 16.4453H13.6208C13.7259 16.4453 13.8112 16.36 13.8112 16.2549C13.8112 16.1497 13.7259 16.0645 13.6208 16.0645Z" fill="black"/>
<path d="M17.7373 15.8153C17.8424 15.8153 17.9277 15.73 17.9277 15.6249V15.1963C17.9277 15.0912 17.8424 15.0059 17.7373 15.0059C17.6321 15.0059 17.5469 15.0912 17.5469 15.1963V15.6249C17.5469 15.73 17.6321 15.8153 17.7373 15.8153Z" fill="black"/>
<path d="M17.4443 16.4453H18.028C18.1332 16.4453 18.2185 16.36 18.2185 16.2549C18.2185 16.1497 18.1332 16.0645 18.028 16.0645H17.4443C17.3392 16.0645 17.2539 16.1497 17.2539 16.2549C17.2539 16.36 17.3392 16.4453 17.4443 16.4453Z" fill="black"/>
<path d="M16.0515 15.9123C15.9723 15.8431 15.852 15.8511 15.7828 15.9304C15.7221 15.9998 15.6306 16.0397 15.532 16.0397C15.4333 16.0397 15.3418 15.9998 15.2811 15.9304C15.2119 15.8511 15.0916 15.8431 15.0124 15.9123C14.9332 15.9815 14.9251 16.1019 14.9944 16.181C15.1274 16.3332 15.3234 16.4205 15.532 16.4205C15.7405 16.4205 15.9364 16.3332 16.0695 16.181C16.1388 16.1019 16.1307 15.9815 16.0515 15.9123Z" fill="black"/>
<path d="M14.2143 12.0391H12.4434C12.3381 12.0391 12.2529 12.1243 12.2529 12.2295C12.2529 12.3346 12.3381 12.4199 12.4434 12.4199H14.2143C14.3194 12.4199 14.4047 12.3346 14.4047 12.2295C14.4047 12.1243 14.3195 12.0391 14.2143 12.0391Z" fill="black"/>
<path d="M13.8589 12.9053H12.0879C11.9828 12.9053 11.8975 12.9906 11.8975 13.0957C11.8975 13.2009 11.9828 13.2861 12.0879 13.2861H13.8589C13.964 13.2861 14.0493 13.2009 14.0493 13.0957C14.0493 12.9906 13.964 12.9053 13.8589 12.9053Z" fill="black"/>
<path d="M18.8129 12.2295C18.8129 12.1243 18.7277 12.0391 18.6225 12.0391H16.8516C16.7463 12.0391 16.6611 12.1243 16.6611 12.2295C16.6611 12.3346 16.7463 12.4199 16.8516 12.4199H18.6225C18.7277 12.4199 18.8129 12.3346 18.8129 12.2295Z" fill="black"/>
<path d="M18.9771 12.9053H17.2061C17.1009 12.9053 17.0156 12.9906 17.0156 13.0957C17.0156 13.2009 17.1009 13.2861 17.2061 13.2861H18.9771C19.0822 13.2861 19.1675 13.2009 19.1675 13.0957C19.1675 12.9906 19.0822 12.9053 18.9771 12.9053Z" fill="black"/>
<path d="M11.274 18.2236C11.2847 18.2236 11.2953 18.2232 11.3059 18.2227C11.7281 18.697 12.2215 19.0923 12.7672 19.3971C12.442 19.6034 11.9611 20.0039 11.6858 20.683C11.5464 21.0262 11.4757 21.4051 11.4757 21.8096C11.4757 21.9147 11.561 22 11.6662 22H19.3855C19.4906 22 19.5759 21.9147 19.5759 21.8096C19.5759 21.4051 19.5052 21.0262 19.3658 20.6828C19.0912 20.0057 18.6121 19.6054 18.2869 19.3986C18.8336 19.0936 19.3285 18.6976 19.7525 18.2224C19.7654 18.2231 19.7783 18.2235 19.7914 18.2235H20.5955C20.9908 18.2235 21.3123 17.9019 21.3123 17.5067V14.2181C21.4591 14.1791 21.5917 14.0957 21.6912 13.9761C21.832 13.8067 21.8899 13.5855 21.8498 13.3691C21.7379 12.7651 21.5332 12.1856 21.2411 11.6469C21.1114 11.4075 20.8618 11.2588 20.59 11.2588H20.1976C19.4518 10.1726 18.3518 9.37879 17.0893 9.01816C16.9476 8.9777 16.7987 9.00557 16.6807 9.09453C16.6554 9.11368 16.6325 9.135 16.612 9.15811C16.2587 9.08967 15.8963 9.05476 15.5327 9.05476C15.0292 9.05476 14.8076 9.08333 14.4522 9.15712C14.432 9.1347 14.4096 9.11378 14.3848 9.09513C14.2666 9.00587 14.1172 8.9779 13.9747 9.01846C13.4971 9.15504 13.0382 9.35528 12.611 9.61356C12.521 9.66801 12.4921 9.78504 12.5465 9.875C12.6009 9.96506 12.718 9.99392 12.8079 9.93947C13.2064 9.69865 13.6341 9.51199 14.0792 9.38474C14.1327 9.36937 14.1904 9.41093 14.1904 9.46934V10.2491C14.1904 10.3512 14.2789 10.4395 14.3809 10.4395H16.6845C16.7853 10.4395 16.8749 10.3501 16.8749 10.2491C16.8749 10.2491 16.8749 9.46915 16.8749 9.46905C16.8749 9.41271 16.9299 9.36877 16.9847 9.38435C18.077 9.69627 19.0389 10.356 19.7278 11.2588H11.3377C11.5884 10.9304 11.8768 10.6323 12.1985 10.3695C12.2799 10.303 12.292 10.1831 12.2254 10.1016C12.1589 10.0202 12.039 10.0081 11.9576 10.0746C11.5388 10.4166 11.1726 10.8147 10.8675 11.2588H10.4754C10.2035 11.2588 9.95397 11.4075 9.82424 11.6469C9.53225 12.1856 9.32743 12.7651 9.21556 13.3691C9.17549 13.5855 9.23331 13.8068 9.37415 13.9761C9.47363 14.0957 9.60624 14.1791 9.75303 14.2181V17.5068C9.75303 17.9019 10.0746 18.2236 10.4698 18.2236H11.274ZM16.494 10.0587H14.5713V9.52141C14.8855 9.45734 15.0787 9.43562 15.5327 9.43562C15.8563 9.43562 16.179 9.46498 16.494 9.5231V10.0587ZM11.6965 18.0852C11.8032 18.007 11.8875 17.9002 11.9381 17.7761C12.4813 18.3657 13.1536 18.8092 13.9101 19.0751C13.8894 19.158 13.8782 19.2444 13.8782 19.3335V19.4692C13.8653 19.4649 13.4446 19.3104 13.2547 19.22C12.672 18.9427 12.1446 18.5596 11.6965 18.0852ZM16.2561 18.2766C16.2115 18.271 16.1664 18.2678 16.1214 18.2678H14.9439C14.899 18.2678 14.8538 18.2709 14.8092 18.2766C14.5492 18.3096 14.3182 18.4364 14.1513 18.6221C14.1268 18.6494 14.0724 18.7203 14.0679 18.7268C13.2477 18.4452 12.5331 17.9381 11.9908 17.2518V14.2431H19.0746V17.2518C18.5323 17.938 17.8176 18.4452 16.9975 18.7268C16.9929 18.7203 16.9386 18.6493 16.9141 18.6221C16.7473 18.4364 16.5162 18.3096 16.2561 18.2766ZM16.8063 19.3335V19.5768C16.803 19.5777 16.7997 19.5785 16.7966 19.5793C16.3817 19.6817 15.9532 19.7323 15.526 19.7318C15.1033 19.7313 14.6797 19.6814 14.269 19.5808C14.2657 19.58 14.2624 19.5791 14.2591 19.5783C14.2591 19.5783 14.2591 19.3336 14.2591 19.3335C14.2591 18.9669 14.5772 18.6486 14.944 18.6486H16.1214C16.4926 18.6487 16.8063 18.963 16.8063 19.3335ZM18.8869 20.5643H17.7451C17.64 20.5643 17.5547 20.6496 17.5547 20.7547C17.5547 20.8598 17.64 20.9451 17.7451 20.9451H19.0575C19.1298 21.1556 19.1739 21.3812 19.189 21.6192H11.8626C11.8778 21.3812 11.9218 21.1556 11.9941 20.9451H16.9871C17.0922 20.9451 17.1775 20.8598 17.1775 20.7547C17.1775 20.6496 17.0922 20.5643 16.9871 20.5643H12.1649C12.4934 19.9817 12.9956 19.6929 13.1761 19.6037C13.379 19.6961 13.5879 19.7769 13.8021 19.845C13.8028 19.8453 13.8035 19.8455 13.8043 19.8457C14.4004 20.0385 15.0327 20.1246 15.6584 20.1111C16.1663 20.1002 16.6741 20.0211 17.1606 19.8746C17.4069 19.8009 17.6465 19.7106 17.8785 19.6049C18.0617 19.695 18.5593 19.9812 18.8869 20.5643ZM17.8043 19.2194C17.6041 19.3149 17.3978 19.3974 17.1871 19.4668V19.3335C17.1871 19.2444 17.176 19.158 17.1553 19.0751C17.9118 18.8092 18.584 18.3657 19.1272 17.7761C19.1771 17.8985 19.2597 18.0042 19.3644 18.082C18.9151 18.5573 18.3871 18.9413 17.8043 19.2194ZM20.9315 17.5068C20.9315 17.6919 20.7808 17.8427 20.5955 17.8427C20.5955 17.8427 19.7918 17.8427 19.7914 17.8427C19.6122 17.8427 19.4554 17.6857 19.4554 17.5068V14.2431H20.9315V17.5068ZM9.94346 13.8622C9.83634 13.8622 9.73557 13.8149 9.66694 13.7325C9.5987 13.6504 9.57063 13.5433 9.59007 13.4384C9.69461 12.8737 9.88603 12.332 10.1591 11.8284C10.2222 11.712 10.3434 11.6396 10.4754 11.6396H20.59C20.7219 11.6396 20.8432 11.712 20.9063 11.8284C21.1792 12.332 21.3706 12.8737 21.4753 13.4384C21.4946 13.5433 21.4667 13.6504 21.3983 13.7325C21.3298 13.8149 21.229 13.8622 21.1219 13.8622H9.94346ZM10.1339 17.5068V14.2431H11.6099V17.3172C11.6099 17.5506 11.5795 17.8426 11.274 17.8426H10.4698C10.2845 17.8427 10.1339 17.6919 10.1339 17.5068Z" fill="black"/>
</g>
<defs>
<clipPath id="clip0">
<rect x="9" y="9" width="13" height="13" fill="white"/>
</clipPath>
</defs>
</svg>
