<svg width="31" height="31" viewBox="0 0 31 31" fill="none" xmlns="http://www.w3.org/2000/svg">
<path fill-rule="evenodd" clip-rule="evenodd" d="M15.8303 0.253906C24.1244 0.253906 30.848 6.97749 30.848 15.2717C30.848 23.5659 24.1244 30.2895 15.8303 30.2895C7.53609 30.2895 0.8125 23.5659 0.8125 15.2717C0.8125 6.97749 7.53609 0.253906 15.8303 0.253906Z" fill="#00AEEF" fill-opacity="0.180392"/>
<path fill-rule="evenodd" clip-rule="evenodd" d="M15.6203 10.6338C14.612 10.7529 13.871 11.6708 13.9913 12.6896C14.1101 13.6958 15.0331 14.4295 16.0469 14.3093C17.0587 14.1894 17.7869 13.2692 17.667 12.2542C17.5488 11.2524 16.6316 10.5142 15.6203 10.6338Z" fill="#00AEEF"/>
<path fill-rule="evenodd" clip-rule="evenodd" d="M17.4223 12.6708C17.4338 12.5897 17.4526 12.4366 17.39 12.3738C17.3383 12.3222 17.2466 12.3212 17.196 12.3719C17.1473 12.4335 17.0837 12.9345 16.9884 13.1046C16.5591 13.8714 15.8692 13.699 15.7318 13.8361C15.6799 13.888 15.681 13.9798 15.7325 14.0314C15.8732 14.172 16.4193 13.9727 16.563 13.8971C17.0432 13.6445 17.3461 13.2084 17.4223 12.6708Z" fill="#373435"/>
<path fill-rule="evenodd" clip-rule="evenodd" d="M15.9543 11.0783C16.1039 10.8395 15.6368 10.8749 15.5437 10.8916C15.3162 10.9327 15.0824 11.0278 14.8944 11.163C14.7162 11.2912 14.5722 11.4603 14.4556 11.6451C14.3235 11.8544 14.1985 12.1392 14.2307 12.3934C14.2397 12.4642 14.2849 12.6251 14.3781 12.6294C14.4268 12.6317 14.4674 12.5769 14.4883 12.5398C14.5848 12.367 14.5161 12.0724 14.7095 11.7761C15.1623 11.0821 15.8657 11.22 15.9543 11.0783Z" fill="#373435"/>
<path fill-rule="evenodd" clip-rule="evenodd" d="M16.6937 12.6056C16.7802 12.14 16.4352 11.6894 15.9786 11.6095C15.5082 11.5271 15.0507 11.8503 14.9696 12.319C14.7747 13.4468 16.4764 13.7751 16.6937 12.6056ZM15.6809 11.9082C15.9817 11.8185 16.3105 12.0124 16.3944 12.3114C16.4806 12.6187 16.2961 12.9489 15.9903 13.0354C15.2675 13.2397 14.9053 12.1395 15.6809 11.9082Z" fill="#373435"/>
<path fill-rule="evenodd" clip-rule="evenodd" d="M13.5069 13.7096C13.7647 15.9843 16.8141 16.5603 17.8906 14.5427C18.2281 13.9103 18.2283 12.915 18.152 12.2153C17.9957 10.7833 16.5928 9.82576 15.1881 10.2225C14.5835 10.3932 14.0621 10.8208 13.7681 11.375C13.4327 12.0072 13.4278 13.011 13.5069 13.7096ZM15.5971 10.4358C16.718 10.3033 17.7341 11.1201 17.8652 12.2307C17.9977 13.3536 17.1926 14.3741 16.0705 14.5072C14.947 14.6403 13.9252 13.828 13.7936 12.7129C13.6604 11.5844 14.48 10.5679 15.5971 10.4358ZM14.2791 14.7792C14.1087 14.5641 13.9755 14.3997 13.9063 14.1247L13.8401 13.8616L14.0609 14.0193C14.2155 14.1299 14.2401 14.2065 14.4234 14.3226L14.4721 14.3535L14.4456 14.9891L14.2791 14.7792ZM17.7526 14.1246C17.6828 14.3994 17.5452 14.5663 17.373 14.7797L17.2001 14.9939L17.1902 14.3521L17.2365 14.3222C17.4097 14.2099 17.4498 14.1258 17.5978 14.0192L17.82 13.8591L17.7526 14.1246ZM14.8832 14.6163C15.138 14.6943 15.3243 14.7607 15.594 14.7961L15.6798 14.8075L15.6868 15.4921L15.5743 15.4788C15.3541 15.4527 14.8635 15.3509 14.7636 15.1335L14.7544 15.1136V14.577L14.8832 14.6163ZM16.0766 14.7959C16.3403 14.7618 16.5258 14.6943 16.7748 14.6162L16.9042 14.5756V15.1124L16.8961 15.1313C16.8008 15.3525 16.302 15.4532 16.0822 15.4784L15.9668 15.4917L15.9931 14.8067L16.0766 14.7959Z" fill="#373435"/>
<path fill-rule="evenodd" clip-rule="evenodd" d="M23.5297 20.7634C23.4937 20.5645 23.1938 20.1936 23.0834 20.028C22.9251 19.7904 22.7665 19.5528 22.608 19.3152L21.0759 17.0183C20.9732 16.8917 20.4951 16.9587 20.3389 16.9587C19.5468 16.9587 18.7547 16.9587 17.9626 16.9587H17.7765L18.4767 15.9077C19.0361 15.0679 19.63 13.6745 19.63 12.6545C19.63 11.8962 19.5809 11.5329 19.2725 10.8367C18.9486 10.1055 18.1958 9.35268 17.4647 9.02898C16.3706 8.54438 15.2888 8.54438 14.1947 9.02898C13.8439 9.18438 13.4064 9.50598 13.1352 9.77708C12.5058 10.4066 12.0296 11.3877 12.0296 12.2888C12.0296 13.3084 12.2049 14.0509 12.6588 14.9557C12.8222 15.2815 12.9829 15.6031 13.1833 15.9083C13.2801 16.0556 13.3708 16.2066 13.4689 16.3529C13.5724 16.5076 13.6978 16.647 13.7851 16.8125L13.8624 16.9588L10.7412 16.9561C10.5673 16.9595 10.5728 17.0328 10.4772 17.1761L8.57609 20.028C8.46579 20.1936 8.16578 20.5644 8.12988 20.7632V21.7337C8.12988 21.8259 8.18158 21.8778 8.27398 21.8778H23.3857C23.478 21.8778 23.5297 21.8259 23.5297 21.7337V20.7634ZM8.4176 20.9026H23.2415L23.242 21.59H8.41818L8.4176 20.9026ZM20.999 19.9303L22.5818 19.9276L22.5994 19.9345C22.7413 19.99 22.9361 20.3228 23.009 20.4605L23.0861 20.6059L21.3113 20.6153L20.999 19.9303ZM13.5143 18.4654C13.9813 18.4654 14.4483 18.4679 14.9153 18.4651C15.3617 18.4625 15.2141 18.4285 15.4838 18.6971C15.793 19.005 15.8621 19.0345 16.1716 18.6988C16.4241 18.4249 16.3413 18.4627 16.7443 18.4651C17.1132 18.4674 17.479 18.4565 17.8471 18.4537C17.9736 18.4526 18.1748 18.4415 18.2686 18.5429C18.3378 18.6176 18.3568 18.7829 18.3852 18.8822C18.4229 19.0145 18.4676 19.1426 18.4926 19.2785L18.5143 19.3961H13.1556L13.172 19.2823C13.1919 19.1441 13.2366 19.0155 13.2745 18.8821C13.3141 18.7434 13.3238 18.5581 13.4652 18.4782L13.488 18.4654H13.5143ZM9.76769 18.7765C9.86399 18.6312 10.0673 18.2204 10.2549 18.2217L11.4764 18.2299L10.3472 20.6134L8.55439 20.6053L9.76769 18.7765ZM18.7873 19.2042C18.7033 19.0069 18.5377 18.2197 18.4366 18.1884C18.2002 18.1154 17.2565 18.1906 16.9229 18.1729L16.7209 18.1623L17.2015 17.601C17.2624 17.5298 17.3223 17.4576 17.3836 17.3868C17.5112 17.2394 17.5584 17.2437 17.748 17.2448C18.2786 17.248 18.8093 17.2466 19.3399 17.2466H19.4125L19.4347 17.3157C19.4875 17.4793 19.5875 17.6421 19.6601 17.7993C19.7363 17.9644 19.8166 18.1272 19.8964 18.2906C19.9347 18.369 20.1611 18.9025 20.2231 18.9387C20.2729 18.9677 20.4975 18.9525 20.559 18.9513L22.0196 18.9533L22.4587 19.6345L21.0142 19.6415C20.8062 19.6375 20.5317 19.5945 20.6405 19.8744C20.7221 20.0846 20.8578 20.2647 20.9299 20.484L20.9729 20.6145L19.6879 20.6174L13.8977 20.6126L11.9933 20.6143L10.6852 20.6147L10.7297 20.4832C10.7974 20.2828 10.9092 20.0976 10.9977 19.906C11.1004 19.6838 11.6383 18.4965 11.818 18.2383C11.8447 17.9554 11.9125 17.9306 11.5043 17.9335C11.1779 17.9358 10.8513 17.9395 10.5248 17.9317L10.3471 17.9274L10.7827 17.2521L14.0117 17.245C14.2469 17.263 14.4094 17.5382 14.5421 17.7067C14.6304 17.8188 14.7339 17.8949 14.8143 18.0187L14.9075 18.1625L14.7366 18.1725C14.3525 18.1948 13.9856 18.1918 13.6024 18.1718C13.5204 18.1674 13.2833 18.1453 13.213 18.1937C13.1153 18.2611 12.8922 19.1901 12.8501 19.3273C12.7286 19.7235 12.8276 19.675 13.1961 19.6864L18.787 19.6716C18.934 19.6118 18.8145 19.342 18.7873 19.2042ZM20.4419 18.6518C20.3026 18.5722 19.8638 17.5847 19.7862 17.3819L19.734 17.2458L20.8771 17.2521L21.8054 18.6647L20.4648 18.665L20.4419 18.6518ZM15.7665 18.54C15.5799 18.3865 15.4114 18.1959 15.2428 18.0222C15.155 17.9316 15.0629 17.8534 14.9815 17.7555C14.9077 17.6667 14.8225 17.5887 14.7496 17.4985C13.7409 16.2491 12.8993 15.2212 12.4743 13.6226C12.1648 12.4584 12.299 11.3137 13.0416 10.3424C14.4843 8.45538 17.152 8.52598 18.6302 10.3566C19.3529 11.2517 19.4765 12.5664 19.1768 13.6475C18.708 15.3399 17.7519 16.4887 16.6442 17.7964L15.836 18.5972L15.7665 18.54Z" fill="#373435"/>
</svg>
