<svg width="31" height="31" viewBox="0 0 31 31" fill="none" xmlns="http://www.w3.org/2000/svg">
<path fill-rule="evenodd" clip-rule="evenodd" d="M15.1817 0.0229492C23.4759 0.0229492 30.1995 6.74654 30.1995 15.0407C30.1995 23.3349 23.4759 30.0585 15.1817 30.0585C6.88765 30.0585 0.164062 23.3349 0.164062 15.0407C0.164062 6.74654 6.88765 0.0229492 15.1817 0.0229492Z" fill="#A8CF45" fill-opacity="0.180392"/>
<path fill-rule="evenodd" clip-rule="evenodd" d="M11.8207 21.0153C11.9484 20.901 12.5497 19.0819 12.5538 18.8726L10.3877 18.8727C10.443 19.0466 11.701 20.8843 11.8207 21.0153Z" fill="#B0CB1F"/>
<path fill-rule="evenodd" clip-rule="evenodd" d="M18.4163 20.8677L18.4636 20.9346C18.5033 21.0161 18.4787 20.9516 18.5101 21.0507C18.5309 21.0266 18.6042 20.998 18.6317 20.9814C18.7157 20.7798 19.1428 20.1748 19.2962 19.9504C19.4485 19.7274 19.9143 19.1107 19.9657 18.8748L17.7881 18.8726L18.4163 20.8677Z" fill="#B0CB1F"/>
<path d="M15.1844 12.5263C16.7305 12.5263 17.984 11.6634 17.984 10.5991C17.984 9.5347 16.7305 8.67188 15.1844 8.67188C13.6382 8.67188 12.3848 9.5347 12.3848 10.5991C12.3848 11.6634 13.6382 12.5263 15.1844 12.5263Z" fill="#B0CB1F"/>
<path fill-rule="evenodd" clip-rule="evenodd" d="M12.4138 9.88265C12.3722 10.2404 12.3798 10.7697 12.4091 11.131C12.46 11.76 13.0931 12.1042 13.6209 12.2961C14.1808 12.4996 14.8676 12.556 15.4594 12.5261C16.3012 12.4837 17.8495 12.1791 17.9583 11.1226C17.9904 10.8099 17.9967 10.2057 17.9537 9.89855C17.6958 8.05645 12.6187 8.12315 12.4138 9.88265ZM16.065 8.89625C16.5293 8.98385 16.9715 9.12125 17.345 9.42175C18.4466 10.3078 16.6544 10.9834 15.9622 11.1063C15.8775 11.1213 15.7923 11.1336 15.7068 11.1433C15.0529 11.2172 14.3179 11.1435 13.6983 10.9172C13.3233 10.7803 12.7234 10.4776 12.6915 10.0176C12.672 9.73585 12.8826 9.51085 13.0964 9.35925C13.8787 8.80445 15.1464 8.72285 16.065 8.89625ZM12.8573 10.785C13.5161 11.5394 15.621 11.5129 16.5244 11.2702C16.7563 11.2079 16.9728 11.1088 17.1821 10.9925C17.2703 10.9434 17.4787 10.8067 17.5688 10.7871L17.6568 10.7678L17.6619 10.8578C17.6796 11.1678 17.656 11.3567 17.4248 11.5798C16.8944 12.0919 15.9034 12.251 15.1899 12.252C14.4508 12.253 12.3809 11.9444 12.7257 10.813L12.7662 10.6805L12.8573 10.785ZM15.0726 10.513C15.4529 10.6861 16.8653 10.4414 16.8613 9.99685C16.8597 9.81945 16.6929 9.82274 16.5947 9.92794C16.1314 10.4246 15.5006 10.1154 15.0647 10.3366L15.0726 10.513ZM13.5887 10.1235C13.8699 10.1277 13.6799 9.98774 13.9857 9.85984C14.083 9.81914 14.1855 9.79075 14.2888 9.77035C14.4759 9.73325 14.666 9.72215 14.8562 9.71455C14.9469 9.71095 15.1317 9.71116 15.2147 9.68246C15.318 9.64676 15.3693 9.47006 15.2357 9.42326C14.9282 9.31516 13.1531 9.54625 13.5887 10.1235ZM16.4109 18.543C16.407 18.2724 17.52 16.4245 17.7354 16.0466C18.1964 15.238 18.6473 14.4236 19.1045 13.6128L20.6356 10.8978C20.6896 10.7937 20.757 10.6836 20.884 10.6685C20.951 10.6606 20.981 10.674 21.0429 10.633C21.1658 10.5515 21.302 10.3236 21.3737 10.1993C21.6686 9.68755 21.9396 9.47654 21.3222 9.12384C21.1238 9.01054 20.9285 8.89195 20.7291 8.78025C20.1499 8.45595 20.0748 8.35875 19.7161 8.97925C19.6471 9.09865 19.4069 9.48335 19.3952 9.60115C19.3824 9.72995 19.3945 9.71635 19.4304 9.81705C19.4769 9.94735 19.2845 10.2219 19.2218 10.3252L15.995 15.6409C15.8051 15.9537 15.4787 16.6071 15.2441 16.8411L15.1947 16.8902L15.141 16.8461C14.9861 16.7191 14.7943 16.3408 14.6833 16.1583L11.2227 10.466C11.1454 10.3415 10.8253 9.89695 10.9603 9.74505C11.0613 9.63135 10.6459 8.97856 10.5924 8.88576C10.5189 8.75866 10.3895 8.54804 10.2286 8.52304C10.0141 8.48964 9.47693 8.87455 9.28773 8.98525C8.52543 9.43145 8.52751 9.41006 8.99691 10.2108C9.19411 10.5472 9.15563 10.6257 9.57863 10.6804L9.62261 10.6861L9.63972 10.727C9.73072 10.9453 9.90094 11.2196 10.0182 11.4288C10.2574 11.856 10.5 12.2816 10.7425 12.707C11.0991 13.3327 11.469 13.9603 11.8108 14.5936C12.1227 15.1715 13.9586 18.2104 13.9644 18.5387L13.9656 18.6136L13.8909 18.6169C12.5823 18.6756 11.268 18.6256 9.95843 18.6234C9.41373 18.6225 8.97294 18.7099 8.75394 19.2564C8.61054 19.6144 8.61471 20.6599 8.79351 21.0018C9.07891 21.5475 9.56713 21.547 10.1218 21.5465C10.7509 21.5461 11.3804 21.5595 12.0098 21.56C12.412 21.5605 12.8152 21.5587 13.2172 21.5456C13.4437 21.5383 13.7641 21.5342 13.9837 21.4838C14.2153 21.4308 14.433 21.3262 14.6234 21.1843C14.7473 21.0919 14.8532 20.9928 14.9548 20.8767C15.0103 20.8132 15.079 20.7214 15.1527 20.6808L15.2018 20.6539L15.2426 20.6923C15.6735 21.0995 15.7088 21.2977 16.3632 21.4799C16.5521 21.5325 16.9012 21.5368 17.1002 21.5437C17.5076 21.5578 17.9166 21.5597 18.3241 21.5597C18.9551 21.5595 19.5861 21.5461 20.2167 21.5465C20.7673 21.5469 21.3037 21.5521 21.5753 20.9933C21.7358 20.6632 21.7584 19.6318 21.6257 19.2883C21.4171 18.7485 21.0035 18.623 20.462 18.6234C19.1368 18.6244 17.8101 18.6612 16.4853 18.6188L16.412 18.6164L16.4109 18.543ZM20.6203 10.3552C20.2178 10.9892 19.8832 11.6715 19.5069 12.3209L16.7054 17.2865C16.5937 17.4845 16.2457 18.1949 16.086 18.2858L16.0359 18.3142L15.9945 18.274C15.8518 18.1356 15.7452 17.9067 15.6407 17.7357C15.5658 17.6129 15.4264 17.4241 15.4147 17.2798C15.3953 17.0376 15.9771 16.2261 16.1074 16.0119L19.3539 10.6723C19.4215 10.561 19.8068 9.99846 19.7988 9.87746C19.7946 9.81446 19.732 9.71744 19.7004 9.66394L19.6772 9.62484L20.1337 8.85416L20.1805 8.85685C20.3653 8.86775 21.1957 9.35364 21.3421 9.49144L21.3722 9.51984L21.3652 9.56054C21.3291 9.76974 21.0928 10.1207 20.977 10.3098L20.9554 10.3453L20.6203 10.3552ZM9.01742 9.48915C9.17382 9.35506 9.40264 9.24865 9.58234 9.14275C9.76594 9.03445 9.98823 8.85064 10.2125 8.86224L10.2553 8.86435L10.676 9.63105L10.653 9.66894C10.5538 9.83254 10.5054 9.80675 10.5989 9.99425L11.1884 10.9613C11.4461 11.3841 11.6994 11.8093 11.9611 12.2296C12.6165 13.2829 13.2473 14.362 13.8905 15.4239C14.321 16.1348 14.7523 16.8456 15.1899 17.5524C15.3408 17.7964 15.4924 18.0404 15.6478 18.2816C15.6977 18.3591 15.803 18.5368 15.865 18.5996C16.3161 19.0561 16.8723 18.8631 17.4455 18.9178L17.4956 18.9225L18.2609 21.2556L18.158 21.2587C17.1105 21.29 16.0024 21.4431 15.4041 20.3808L9.80921 10.4476C9.69901 10.2668 9.65332 10.3592 9.43632 10.345L9.38972 10.3419L9.37082 10.2992C9.26692 10.063 9.04223 9.81315 8.99203 9.56255L8.98324 9.51845L9.01742 9.48915ZM11.7403 20.9077C11.5668 20.7134 10.5595 19.2003 10.4997 19.0084L10.4687 18.9086H12.5027L12.5011 18.9869C12.4968 19.2018 11.9786 20.795 11.8496 20.9132L11.7921 20.9657L11.7403 20.9077ZM18.3848 20.6997L17.8207 18.9083L19.8729 18.9104L19.8526 19.0035C19.8026 19.2332 19.4179 19.7312 19.2717 19.9453C19.1139 20.1765 18.815 20.5662 18.7105 20.8157L18.6015 21.0158L18.5306 20.9636C18.3952 20.8643 18.4096 20.8643 18.3848 20.6997ZM12.9338 18.9131C13.3471 18.8948 13.7599 18.9001 14.1721 18.8585L14.2325 18.8525L14.2524 18.9097C14.3835 19.2865 15.0944 20.1128 14.9273 20.4454C14.4457 21.404 13.1179 21.2981 12.2141 21.2585L12.1371 21.2553L12.1408 21.1783C12.151 20.9576 12.743 19.2062 12.8685 18.9555L12.8887 18.9151L12.9338 18.9131ZM8.95261 19.7648C8.95261 19.0328 9.38012 18.9016 10.0097 18.9093L10.0495 18.9097L10.072 18.9425C10.2973 19.2692 11.4737 20.9422 11.5043 21.1754L11.5157 21.2612L11.4292 21.2623C10.9229 21.269 10.3868 21.2959 9.88281 21.2675C9.64071 21.2538 9.32463 21.2242 9.15003 21.0342C8.90883 20.7718 8.95261 20.0996 8.95261 19.7648ZM20.339 18.9173C20.9833 18.8784 21.4043 19.0362 21.4043 19.7648C21.4043 20.4838 21.5308 21.2681 20.541 21.2644L18.8276 21.2582L18.8459 21.1666C18.8991 20.9013 20.0406 19.339 20.2782 18.9537L20.2992 18.9197L20.339 18.9173Z" fill="#1A1A1A"/>
</svg>
