<svg width="15" height="17" viewBox="0 0 15 17" fill="none" xmlns="http://www.w3.org/2000/svg">
<path fill-rule="evenodd" clip-rule="evenodd" d="M14.5473 16.454H1.2373L3.14137 12.7695H12.6433L14.5473 16.454Z" fill="#FEFEFE"/>
<path fill-rule="evenodd" clip-rule="evenodd" d="M1.6871 16.1799H14.0981L12.4769 13.0428H3.3082L1.6871 16.1799ZM14.5476 16.7271H1.23765C1.14205 16.7271 1.05342 16.6776 1.00382 16.5961C0.954123 16.5145 0.950548 16.4128 0.994448 16.3279L2.89851 12.6436C2.94541 12.5525 3.03921 12.4956 3.14171 12.4956H12.6437C12.7461 12.4956 12.8396 12.5525 12.8867 12.6436L14.7906 16.3279C14.8348 16.4128 14.8311 16.5145 14.7816 16.5961C14.7319 16.6775 14.6431 16.7271 14.5476 16.7271Z" fill="#363435"/>
<path fill-rule="evenodd" clip-rule="evenodd" d="M12.5001 5.28044C12.5001 2.73595 10.4368 0.67334 7.89235 0.67334C5.34795 0.67334 3.2854 2.73604 3.2854 5.28054C3.2854 5.28044 3.17076 9.91483 7.89235 14.6365C12.6141 9.91483 12.4999 5.28054 12.5001 5.28044Z" fill="#00AEEF"/>
<path fill-rule="evenodd" clip-rule="evenodd" d="M7.89256 0.947011C5.50306 0.947011 3.55928 2.8911 3.55928 5.2807C3.55928 5.2829 3.55915 5.2851 3.55905 5.2873C3.55895 5.2983 3.54044 6.43959 4.08764 8.13099C4.40874 9.12359 4.8591 10.1089 5.426 11.0596C6.0914 12.1756 6.92056 13.2468 7.89256 14.2468C8.86506 13.2467 9.69387 12.1756 10.3597 11.0596C10.9267 10.1089 11.3769 9.12359 11.6978 8.13099C12.245 6.43959 12.2265 5.29831 12.2265 5.28691C12.2261 5.28511 12.2261 5.2825 12.2261 5.2807C12.2261 2.8911 10.2821 0.947011 7.89256 0.947011ZM7.89256 14.9104C7.82036 14.9104 7.75044 14.8816 7.69904 14.8302C6.60614 13.737 5.67979 12.5572 4.94569 11.3225C4.35729 10.3332 3.89025 9.30649 3.55795 8.27159C2.99915 6.5314 3.01032 5.36629 3.01202 5.27769C3.01352 2.58779 5.20236 0.399902 7.89256 0.399902C10.5834 0.399902 12.7718 2.58749 12.7736 5.27769C12.7752 5.36509 12.7865 6.5307 12.2276 8.27159C11.8953 9.30639 11.4283 10.3332 10.8399 11.3225C10.1059 12.5572 9.17935 13.737 8.08615 14.8302C8.03505 14.8816 7.96536 14.9104 7.89256 14.9104Z" fill="#363435"/>
<path fill-rule="evenodd" clip-rule="evenodd" d="M10.303 5.56078C10.303 6.89198 9.2237 7.97087 7.8925 7.97087C6.5618 7.97087 5.48242 6.89198 5.48242 5.56078C5.48242 4.22968 6.5618 3.15039 7.8925 3.15039C9.2237 3.15039 10.303 4.22968 10.303 5.56078Z" fill="#FEFEFE"/>
<path fill-rule="evenodd" clip-rule="evenodd" d="M7.89258 3.42445C6.71458 3.42445 5.75617 4.38296 5.75617 5.56095C5.75617 6.73895 6.71458 7.69746 7.89258 7.69746C9.07107 7.69746 10.0296 6.73895 10.0296 5.56095C10.0296 4.38296 9.07107 3.42455 7.89258 3.42445ZM7.89258 8.24466C6.41268 8.24466 5.20898 7.04085 5.20898 5.56095C5.20898 4.08106 6.41268 2.87695 7.89258 2.87695C9.37247 2.87695 10.5767 4.08106 10.5767 5.56095C10.5767 7.04085 9.37247 8.24466 7.89258 8.24466Z" fill="#363435"/>
<path fill-rule="evenodd" clip-rule="evenodd" d="M7.89281 6.27946C7.82311 6.27946 7.75555 6.25296 7.70445 6.20456L6.64172 5.19495C6.53232 5.09105 6.5278 4.91775 6.6318 4.80835C6.7358 4.69855 6.90911 4.69415 7.01851 4.79845L7.8532 5.59055L10.0805 2.46726C10.1682 2.34436 10.3389 2.31565 10.462 2.40335C10.5853 2.49115 10.6135 2.66236 10.5259 2.78526L8.11586 6.16495C8.06996 6.22945 7.99829 6.27055 7.91929 6.27835C7.91049 6.27905 7.90171 6.27946 7.89281 6.27946Z" fill="#363435"/>
</svg>
