<svg width="30" height="20" viewBox="0 0 30 20" fill="none" xmlns="http://www.w3.org/2000/svg">
<path fill-rule="evenodd" clip-rule="evenodd" d="M29.1316 6.82225H25.019C24.8297 6.82225 24.6758 6.66856 24.6758 6.47926C24.676 6.28956 24.8296 6.13574 25.019 6.13574H29.1316C29.3213 6.13574 29.4746 6.28966 29.4746 6.47926C29.4746 6.66856 29.3213 6.82225 29.1316 6.82225Z" fill="#363435"/>
<path fill-rule="evenodd" clip-rule="evenodd" d="M27.0755 8.87888C26.8863 8.87888 26.7324 8.72517 26.7324 8.53587L26.7326 4.42318C26.7326 4.23338 26.8863 4.07959 27.0755 4.07959C27.2653 4.07959 27.4187 4.23348 27.4187 4.42318V8.53587C27.4187 8.72517 27.2652 8.87888 27.0755 8.87888Z" fill="#363435"/>
<path fill-rule="evenodd" clip-rule="evenodd" d="M2.73414 14.7805C2.54454 14.7805 2.39062 14.6272 2.39062 14.4374L2.3907 11.3967C2.3907 11.2074 2.54434 11.0537 2.73414 11.0537C2.92344 11.0535 3.07711 11.2074 3.07711 11.3967V14.4374C3.07711 14.6272 2.92344 14.7806 2.73414 14.7805Z" fill="#363435"/>
<path fill-rule="evenodd" clip-rule="evenodd" d="M4.25465 13.2603H1.21387C1.02407 13.2603 0.870117 13.107 0.870117 12.9173C0.870317 12.7279 1.02409 12.5742 1.21379 12.5742H4.25465C4.44385 12.5742 4.59761 12.7281 4.59761 12.9173C4.59761 13.107 4.44385 13.2603 4.25465 13.2603Z" fill="#363435"/>
<path fill-rule="evenodd" clip-rule="evenodd" d="M22.6624 2.95709C22.5501 2.95709 22.459 2.86638 22.459 2.75398L22.4591 0.953594C22.4591 0.841494 22.55 0.750488 22.6624 0.750488C22.7745 0.750388 22.8655 0.841494 22.8655 0.953594V2.75398C22.8655 2.86638 22.7745 2.95719 22.6624 2.95709Z" fill="#363435"/>
<path fill-rule="evenodd" clip-rule="evenodd" d="M23.5625 2.05709H21.762C21.6497 2.05709 21.5586 1.96628 21.5586 1.85398C21.5586 1.74188 21.6497 1.65088 21.762 1.65088H23.5625C23.6745 1.65088 23.7655 1.74198 23.7655 1.85398C23.7655 1.96628 23.6745 2.05709 23.5625 2.05709Z" fill="#363435"/>
<g clip-path="url(#clip0)">
<path d="M19.5 9.5H9.5V14.5L9 15C13.8 19 18.3333 16.6667 20 15L19.5 14V9.5Z" fill="white"/>
<path d="M11.6602 11.9125C11.7978 11.9125 11.9092 11.8009 11.9092 11.6635V11.103C11.9092 10.9655 11.7978 10.854 11.6602 10.854C11.5227 10.854 11.4111 10.9655 11.4111 11.103V11.6635C11.4111 11.8009 11.5227 11.9125 11.6602 11.9125Z" fill="black"/>
<path d="M12.0426 12.2378H11.2793C11.1417 12.2378 11.0303 12.3492 11.0303 12.4868C11.0303 12.6243 11.1417 12.7358 11.2793 12.7358H12.0426C12.1801 12.7358 12.2916 12.6243 12.2916 12.4868C12.2916 12.3492 12.1801 12.2378 12.0426 12.2378Z" fill="black"/>
<path d="M17.4248 11.9125C17.5623 11.9125 17.6738 11.8009 17.6738 11.6635V11.103C17.6738 10.9655 17.5623 10.854 17.4248 10.854C17.2872 10.854 17.1758 10.9655 17.1758 11.103V11.6635C17.1758 11.8009 17.2872 11.9125 17.4248 11.9125Z" fill="black"/>
<path d="M17.043 12.7358H17.8063C17.9437 12.7358 18.0553 12.6243 18.0553 12.4868C18.0553 12.3492 17.9437 12.2378 17.8063 12.2378H17.043C16.9055 12.2378 16.7939 12.3492 16.7939 12.4868C16.7939 12.6243 16.9055 12.7358 17.043 12.7358Z" fill="black"/>
<path d="M15.2213 12.0396C15.1178 11.9491 14.9605 11.9596 14.87 12.0632C14.7906 12.154 14.671 12.2061 14.5419 12.2061C14.4129 12.2061 14.2933 12.154 14.2139 12.0632C14.1234 11.9596 13.9661 11.9491 13.8626 12.0396C13.7589 12.1301 13.7483 12.2875 13.839 12.391C14.0129 12.59 14.2692 12.7042 14.5419 12.7042C14.8147 12.7042 15.0709 12.59 15.2449 12.391C15.3354 12.2875 15.3249 12.1301 15.2213 12.0396Z" fill="black"/>
<path d="M12.8187 6.97412H10.5029C10.3653 6.97412 10.2539 7.08553 10.2539 7.22315C10.2539 7.36063 10.3653 7.47217 10.5029 7.47217H12.8187C12.9562 7.47217 13.0677 7.36063 13.0677 7.22315C13.0677 7.08553 12.9563 6.97412 12.8187 6.97412Z" fill="black"/>
<path d="M12.354 8.10693H10.0381C9.9006 8.10693 9.78906 8.21848 9.78906 8.35596C9.78906 8.49357 9.9006 8.60498 10.0381 8.60498H12.354C12.4915 8.60498 12.603 8.49357 12.603 8.35596C12.603 8.21848 12.4915 8.10693 12.354 8.10693Z" fill="black"/>
<path d="M18.8324 7.22315C18.8324 7.08553 18.721 6.97412 18.5834 6.97412H16.2676C16.13 6.97412 16.0186 7.08553 16.0186 7.22315C16.0186 7.36063 16.13 7.47217 16.2676 7.47217H18.5834C18.721 7.47217 18.8324 7.36063 18.8324 7.22315Z" fill="black"/>
<path d="M19.0474 8.10693H16.7314C16.594 8.10693 16.4824 8.21848 16.4824 8.35596C16.4824 8.49357 16.594 8.60498 16.7314 8.60498H19.0474C19.1849 8.60498 19.2964 8.49357 19.2964 8.35596C19.2964 8.21848 19.1849 8.10693 19.0474 8.10693Z" fill="black"/>
<path d="M11 4.00016L12.5 3.50016C12.9 3.10028 13 3.33344 13 3.5H14H15L16 3.50016C16.4 3.10016 16.8333 3.33349 17 3.50016L18 4.00016L19 4.50016L20 5.50016L20.5 6.00016H21L21.5 6.50016L22.5 8.00016V9.00016L22 9.50016V14.0002L21 15.0002H20L19.5 14.5002V9.50016H9.5V14.5002L9 15.0002H8L7.5 14.5002L7 10.0002V9.50016L6.5 9.00016V8.50016L7 7.50016L7.5 6.50016L8.5 6.00016L9 5.50016L11 4.00016Z" fill="#B0CB1F"/>
<path d="M10 18L11.5 16.5L13 17C14.2 17.4 15.5 17.1667 16 17L17.5 16.5L18.5 17L19 18L19.5 19.5C17.1 19.9 12 20 9.5 19.5L10 18Z" fill="white"/>
<path d="M12.5 16V17C13.7 17.4 15.6667 17.1667 16.5 17V16L16 15.5H15H14H13L12.5 16Z" fill="#B0CB1F"/>
<path d="M8.97367 15.0616C8.98768 15.0616 9.00156 15.0611 9.01544 15.0604C9.56757 15.6806 10.2127 16.1976 10.9263 16.5962C10.501 16.866 9.87223 17.3897 9.51219 18.2777C9.32996 18.7265 9.23748 19.2221 9.23748 19.751C9.23748 19.8885 9.34903 20 9.48651 20H19.5811C19.7185 20 19.8301 19.8885 19.8301 19.751C19.8301 19.2221 19.7376 18.7265 19.5552 18.2775C19.1962 17.392 18.5697 16.8686 18.1444 16.5981C18.8593 16.1993 19.5065 15.6814 20.0609 15.06C20.0778 15.0609 20.0947 15.0615 20.1118 15.0615H21.1634C21.6802 15.0615 22.1007 14.641 22.1007 14.1241V9.82365C22.2927 9.77268 22.4661 9.66361 22.5962 9.50719C22.7804 9.28566 22.856 8.99643 22.8036 8.71342C22.6573 7.92355 22.3896 7.16585 22.0076 6.46132C21.838 6.14822 21.5116 5.9538 21.1561 5.9538H20.643C19.6677 4.53346 18.2293 3.49534 16.5784 3.02375C16.393 2.97084 16.1983 3.00728 16.044 3.12362C16.0109 3.14865 15.981 3.17654 15.9541 3.20676C15.4921 3.11727 15.0182 3.07161 14.5427 3.07161C13.8844 3.07161 13.5945 3.10897 13.1298 3.20546C13.1034 3.17615 13.0741 3.14878 13.0417 3.1244C12.8871 3.00767 12.6918 2.9711 12.5054 3.02414C11.8808 3.20274 11.2808 3.4646 10.722 3.80234C10.6044 3.87355 10.5666 4.02659 10.6377 4.14423C10.7089 4.262 10.862 4.29974 10.9796 4.22854C11.5006 3.91362 12.06 3.66953 12.642 3.50312C12.712 3.48302 12.7875 3.53736 12.7875 3.61376V4.63346C12.7875 4.76692 12.9032 4.88248 13.0365 4.88248H16.0489C16.1808 4.88248 16.298 4.76549 16.298 4.63346C16.298 4.63346 16.298 3.6135 16.298 3.61337C16.298 3.5397 16.3698 3.48224 16.4415 3.50261C17.8699 3.91051 19.1278 4.77327 20.0286 5.9538H9.05694C9.38482 5.52437 9.76199 5.13449 10.1826 4.79091C10.2891 4.70388 10.3049 4.54708 10.2179 4.44059C10.1309 4.33411 9.97405 4.31829 9.86757 4.40519C9.31997 4.85252 8.84112 5.37301 8.44216 5.9538H7.92933C7.57382 5.9538 7.2475 6.14822 7.07785 6.46132C6.69601 7.16585 6.42818 7.92355 6.28188 8.71342C6.22948 8.99643 6.3051 9.28579 6.48927 9.50719C6.61936 9.66361 6.79277 9.77268 6.98473 9.82365V14.1242C6.98473 14.641 7.40521 15.0616 7.92207 15.0616H8.97367ZM15.7999 4.38443H13.2855V3.68185C13.6964 3.59806 13.9491 3.56966 14.5427 3.56966C14.9659 3.56966 15.388 3.60805 15.7999 3.68406V4.38443ZM9.5262 14.8807C9.66575 14.7784 9.776 14.6388 9.84214 14.4764C10.5525 15.2474 11.4316 15.8275 12.4208 16.1752C12.3939 16.2835 12.3792 16.3966 12.3792 16.5131V16.6905C12.3623 16.6849 11.8122 16.4828 11.5638 16.3647C10.8018 16.002 10.1122 15.501 9.5262 14.8807ZM15.4888 15.131C15.4304 15.1236 15.3715 15.1194 15.3126 15.1194H13.7728C13.7141 15.1194 13.6549 15.1234 13.5967 15.131C13.2566 15.174 12.9546 15.3399 12.7363 15.5827C12.7042 15.6184 12.6332 15.7111 12.6272 15.7197C11.5547 15.3515 10.6202 14.6883 9.91102 13.7908V9.85634H19.1744V13.7908C18.4654 14.6882 17.5308 15.3515 16.4583 15.7197C16.4523 15.7111 16.3812 15.6183 16.3492 15.5827C16.131 15.3399 15.8288 15.174 15.4888 15.131ZM16.2082 16.5131V16.8312C16.2039 16.8324 16.1996 16.8334 16.1955 16.8344C15.653 16.9684 15.0927 17.0346 14.534 17.0339C13.9813 17.0333 13.4273 16.968 12.8902 16.8364C12.8859 16.8354 12.8817 16.8342 12.8773 16.8332C12.8773 16.8332 12.8773 16.5132 12.8773 16.5131C12.8773 16.0337 13.2932 15.6173 13.773 15.6173H15.3126C15.798 15.6175 16.2082 16.0285 16.2082 16.5131ZM18.9291 18.1225H17.4359C17.2985 18.1225 17.1869 18.234 17.1869 18.3715C17.1869 18.509 17.2985 18.6205 17.4359 18.6205H19.1521C19.2467 18.8958 19.3043 19.1908 19.3241 19.502H9.74344C9.76329 19.1908 9.82087 18.8958 9.91542 18.6205H16.4446C16.5821 18.6205 16.6937 18.509 16.6937 18.3715C16.6937 18.234 16.5821 18.1225 16.4446 18.1225H10.1388C10.5683 17.3606 11.225 16.9831 11.4611 16.8664C11.7264 16.9872 11.9996 17.0928 12.2797 17.1819C12.2806 17.1823 12.2815 17.1826 12.2826 17.1828C13.0621 17.435 13.8889 17.5475 14.7072 17.5299C15.3713 17.5156 16.0353 17.4123 16.6715 17.2207C16.9937 17.1242 17.307 17.0062 17.6104 16.8679C17.8499 16.9858 18.5007 17.36 18.9291 18.1225ZM17.5134 16.3638C17.2515 16.4887 16.9817 16.5966 16.7063 16.6874V16.5131C16.7063 16.3966 16.6917 16.2835 16.6646 16.1752C17.6538 15.8275 18.5329 15.2474 19.2433 14.4764C19.3086 14.6366 19.4166 14.7747 19.5534 14.8765C18.9659 15.498 18.2755 16.0002 17.5134 16.3638ZM21.6027 14.1242C21.6027 14.3664 21.4057 14.5635 21.1634 14.5635C21.1634 14.5635 20.1123 14.5635 20.1118 14.5635C19.8775 14.5635 19.6725 14.3582 19.6725 14.1242V9.85634H21.6027V14.1242ZM7.23375 9.35829C7.09367 9.35829 6.9619 9.29643 6.87215 9.18864C6.78291 9.08125 6.74621 8.94118 6.77163 8.80408C6.90833 8.06557 7.15865 7.35728 7.51572 6.69867C7.59821 6.5464 7.7567 6.45185 7.92933 6.45185H21.1561C21.3286 6.45185 21.4873 6.5464 21.5697 6.69867C21.9267 7.35728 22.177 8.06557 22.3138 8.80408C22.3391 8.94118 22.3025 9.08125 22.2132 9.18864C22.1236 9.29643 21.9918 9.35829 21.8517 9.35829H7.23375ZM7.48277 14.1242V9.85634H9.41297V13.8764C9.41297 14.1816 9.37315 14.5634 8.97367 14.5634H7.92207C7.67979 14.5635 7.48277 14.3664 7.48277 14.1242Z" fill="black"/>
</g>
<defs>
<clipPath id="clip0">
<rect x="6" y="3" width="17" height="17" fill="white"/>
</clipPath>
</defs>
</svg>
