<svg width="21" height="19" viewBox="0 0 21 19" fill="none" xmlns="http://www.w3.org/2000/svg">
<path fill-rule="evenodd" clip-rule="evenodd" d="M16.1973 3.64654C16.1226 3.64654 16.0478 3.61855 15.9899 3.56265C14.6327 2.24735 12.8437 1.52314 10.9534 1.52314C10.5469 1.52314 10.1393 1.55675 9.74197 1.62385C9.57967 1.65105 9.42619 1.54195 9.39869 1.37975C9.37149 1.21745 9.48055 1.06405 9.64275 1.03635C10.0729 0.963948 10.5137 0.927246 10.9534 0.927246C12.9993 0.927246 14.9352 1.71144 16.4043 3.13504C16.5227 3.24924 16.5254 3.43794 16.4111 3.55584C16.3528 3.61624 16.2748 3.64654 16.1973 3.64654Z" fill="#363435"/>
<path fill-rule="evenodd" clip-rule="evenodd" d="M11.0631 2.07226L9.86449 1.29486L10.6421 0.097168L9.80379 0.275371L9.02637 1.47357L10.2242 2.25097L11.0631 2.07226Z" fill="#363435"/>
<path fill-rule="evenodd" clip-rule="evenodd" d="M5.16508 13.8862C5.07998 13.8862 4.9952 13.8498 4.9364 13.779C3.76421 12.3755 3.11914 10.5933 3.11914 8.76166C3.11914 8.59736 3.25225 8.46387 3.41695 8.46387C3.58125 8.46387 3.71469 8.59746 3.71469 8.76166C3.71469 10.4542 4.31097 12.1005 5.39367 13.3973C5.49877 13.5236 5.482 13.7115 5.3557 13.817C5.3002 13.8633 5.23208 13.8862 5.16508 13.8862Z" fill="#363435"/>
<path fill-rule="evenodd" clip-rule="evenodd" d="M5.11441 12.0298L5.0473 13.4566L3.62012 13.3882L4.19723 14.023L5.62363 14.0905L5.69152 12.664L5.11441 12.0298Z" fill="#363435"/>
<path fill-rule="evenodd" clip-rule="evenodd" d="M16.2821 14.3884C16.2059 14.3884 16.1294 14.3596 16.0715 14.3013C15.9553 14.185 15.9553 13.9963 16.0715 13.8801C17.2693 12.6823 18.0118 11.0964 18.1625 9.41542C18.177 9.25152 18.3225 9.13081 18.4855 9.14521C18.6493 9.16011 18.7704 9.30473 18.7556 9.46863C18.593 11.2882 17.7893 13.0048 16.4927 14.3013C16.4344 14.3596 16.3581 14.3884 16.2821 14.3884Z" fill="#363435"/>
<path fill-rule="evenodd" clip-rule="evenodd" d="M17.3896 10.5774L18.4476 9.61742L19.4073 10.6753L19.4487 9.81883L18.4892 8.76123L17.4313 9.72094L17.3896 10.5774Z" fill="#363435"/>
<path fill-rule="evenodd" clip-rule="evenodd" d="M7.38672 18.2824L10.0272 15.7305L7.38672 18.2824Z" fill="#9FDCF8"/>
<path fill-rule="evenodd" clip-rule="evenodd" d="M14.5194 18.2824L11.8789 15.7305L14.5194 18.2824Z" fill="#9FDCF8"/>
<path fill-rule="evenodd" clip-rule="evenodd" d="M8.23624 6.99615H1.10352V2.07715H8.23624V6.99615Z" fill="white"/>
<path fill-rule="evenodd" clip-rule="evenodd" d="M1.4016 6.6983H7.93847V2.37469H1.4016V6.6983ZM8.23613 7.29388H1.1034C0.939198 7.29378 0.805664 7.16029 0.805664 6.99599V2.07699C0.805664 1.91239 0.939198 1.7793 1.1034 1.7793H8.23613C8.40083 1.7793 8.53386 1.91239 8.53386 2.07699L8.53394 6.99599C8.53394 7.16029 8.40073 7.29388 8.23613 7.29388Z" fill="#363435"/>
<path fill-rule="evenodd" clip-rule="evenodd" d="M1.88195 2.37469L4.66992 4.8742L7.45804 2.37469H1.88195ZM4.66992 5.57209C4.59882 5.57209 4.52763 5.54699 4.47093 5.49619L0.904843 2.29879C0.812843 2.21609 0.781355 2.08579 0.825155 1.97039C0.869555 1.85529 0.980258 1.7793 1.10336 1.7793H8.23609C8.35959 1.7793 8.47039 1.85529 8.51429 1.97039C8.55829 2.08579 8.52675 2.21609 8.43515 2.29879L4.86851 5.49609C4.81221 5.54679 4.74112 5.57209 4.66992 5.57209Z" fill="#363435"/>
<path fill-rule="evenodd" clip-rule="evenodd" d="M1.10313 7.29404C1.02523 7.29394 0.9476 7.26354 0.8893 7.20324C0.7751 7.08494 0.778188 6.89625 0.896488 6.78195L3.53656 4.23016C3.65496 4.11586 3.84359 4.11905 3.95789 4.23735C4.07229 4.35565 4.069 4.54426 3.9507 4.65856L1.31008 7.21045C1.25258 7.26635 1.17783 7.29404 1.10313 7.29404Z" fill="#363435"/>
<path fill-rule="evenodd" clip-rule="evenodd" d="M8.23625 7.29399C8.16195 7.29389 8.0872 7.2663 8.0293 7.2104L5.38868 4.65851C5.27048 4.54421 5.26719 4.3556 5.38149 4.2373C5.49629 4.119 5.68442 4.11591 5.80282 4.23021L8.44328 6.7819C8.56158 6.8962 8.56477 7.08489 8.45047 7.20319C8.39217 7.26349 8.31415 7.29399 8.23625 7.29399Z" fill="#363435"/>
<path fill-rule="evenodd" clip-rule="evenodd" d="M19.9853 1.94994L19.0789 1.04395L17.4982 2.62455L18.4043 3.53105C18.4043 3.53105 19.2635 4.39034 18.1325 5.52134C17.1057 6.54814 16.3027 5.93504 16.1634 5.81314L15.2579 4.90664L13.6963 6.46814L14.5611 7.37413C14.5611 7.37413 16.9562 8.76305 19.1069 6.57775C21.4637 4.18255 19.9852 1.95004 19.9853 1.94994Z" fill="white"/>
<path fill-rule="evenodd" clip-rule="evenodd" d="M14.7439 7.13431C14.8765 7.20261 15.3905 7.44641 16.0767 7.50031C17.1262 7.58301 18.0746 7.20221 18.8947 6.36851C19.7995 5.44931 20.2172 4.4569 20.1357 3.4198C20.0813 2.7308 19.8139 2.2437 19.75 2.1357L19.079 1.46471L17.9192 2.62441L18.615 3.32031C18.6434 3.34871 18.8955 3.61052 18.9843 4.04172C19.0658 4.43852 19.021 5.05361 18.3432 5.73191C17.4048 6.66981 16.4767 6.48241 15.9676 6.03681C15.9624 6.03281 15.9575 6.028 15.9528 6.0232L15.2579 5.32771L14.1124 6.4729L14.7439 7.13431ZM16.343 8.10661C16.2234 8.10661 16.1095 8.1014 16.0024 8.0922C15.0788 8.0131 14.4384 7.647 14.4117 7.6315C14.3873 7.6174 14.365 7.59991 14.3453 7.5795L13.4809 6.67341C13.369 6.55641 13.3714 6.3717 13.4857 6.2574L15.0473 4.69591C15.1028 4.64001 15.1787 4.60841 15.2579 4.60841C15.3366 4.60841 15.4125 4.64001 15.4684 4.69591L16.3664 5.5948C16.5368 5.7398 17.1194 6.1132 17.9219 5.3106C18.8041 4.4286 18.2569 3.80712 18.1917 3.73922L17.2877 2.83502C17.2317 2.77922 17.2002 2.70361 17.2002 2.62451C17.2002 2.54571 17.2317 2.46981 17.2877 2.41381L18.8684 0.833203C18.9244 0.777203 19.0002 0.745605 19.0789 0.745605H19.079C19.1581 0.745605 19.2337 0.777203 19.2896 0.833203L20.1956 1.73932C20.2468 1.78992 20.6457 2.41511 20.7267 3.33951C20.8007 4.18431 20.6165 5.46812 19.3192 6.78662C18.2769 7.84561 17.1754 8.10661 16.343 8.10661Z" fill="#363435"/>
<path fill-rule="evenodd" clip-rule="evenodd" d="M14.6641 7.374L15.548 6.48682L14.6641 7.374Z" fill="#FEFEFE"/>
<path fill-rule="evenodd" clip-rule="evenodd" d="M14.6639 7.67212C14.588 7.67212 14.512 7.64343 14.4537 7.58533C14.3373 7.46913 14.337 7.28052 14.4529 7.16412L15.337 6.27693C15.4532 6.16063 15.6419 6.16023 15.7582 6.27613C15.8749 6.39243 15.8753 6.58102 15.759 6.69742L14.875 7.58462C14.817 7.64292 14.7406 7.67212 14.6639 7.67212Z" fill="#363435"/>
<path fill-rule="evenodd" clip-rule="evenodd" d="M18.4404 3.56684L19.341 2.65674L18.4404 3.56684Z" fill="#FEFEFE"/>
<path fill-rule="evenodd" clip-rule="evenodd" d="M18.4404 3.8655C18.3645 3.8655 18.289 3.83669 18.231 3.77909C18.1139 3.66359 18.1131 3.475 18.2286 3.3579L19.1291 2.44778C19.245 2.33068 19.4332 2.3299 19.5502 2.4455C19.6674 2.5609 19.6682 2.74959 19.5527 2.86669L18.6523 3.7771C18.5939 3.8358 18.5171 3.8655 18.4404 3.8655Z" fill="#363435"/>
<path fill-rule="evenodd" clip-rule="evenodd" d="M12.9907 11.0446C12.9907 12.335 11.9444 13.3813 10.6539 13.3813C9.36394 13.3813 8.31738 12.3351 8.31738 11.0446C8.31748 9.75411 9.36374 8.70801 10.6539 8.70801C11.9444 8.70791 12.9907 9.75411 12.9907 11.0446Z" fill="#DB0B54"/>
<path fill-rule="evenodd" clip-rule="evenodd" d="M13.0453 16.5041H8.2627V15.7999C8.2627 14.4794 9.33329 13.4087 10.6538 13.4087C11.9747 13.4087 13.0453 14.4794 13.0453 15.7999V16.5041Z" fill="#DB0B54"/>
<path fill-rule="evenodd" clip-rule="evenodd" d="M8.56031 16.2066H12.747V15.8001C12.747 14.6459 11.8083 13.7067 10.6536 13.7067C9.49939 13.7066 8.56031 14.6459 8.56031 15.8001V16.2066ZM10.6536 9.00586C9.52979 9.00586 8.61516 9.92047 8.61516 11.0447C8.61516 12.1688 9.52979 13.0834 10.6536 13.0834C11.7779 13.0833 12.6927 12.1688 12.6927 11.0447C12.6927 9.92047 11.7779 9.00586 10.6536 9.00586ZM9.45836 13.3919C8.60506 12.9555 8.01961 12.0672 8.01961 11.0447C8.01961 9.59207 9.20129 8.41016 10.6536 8.41016C12.1065 8.41016 13.2882 9.59207 13.2882 11.0447C13.2882 12.067 12.7027 12.9554 11.8493 13.3918C12.734 13.8326 13.343 14.7465 13.343 15.8001V16.5043C13.343 16.6688 13.2095 16.8021 13.0452 16.8021H8.26266C8.09846 16.8021 7.96484 16.6688 7.96484 16.5043V15.8001C7.96484 14.7465 8.57396 13.8327 9.45836 13.3919Z" fill="#363435"/>
</svg>
