<svg width="80" height="80" viewBox="0 0 80 80" fill="none" xmlns="http://www.w3.org/2000/svg">
<g clip-path="url(#clip0)">
<path d="M47.6498 44.5636C46.8822 44.8411 46.4851 45.6883 46.7626 46.4561C47.0403 47.2238 47.888 47.6208 48.6551 47.3432C53.0436 45.7561 56.8183 42.6922 59.2837 38.7163C59.7223 38.0094 59.8462 37.1461 59.6244 36.3477C59.4075 35.5676 58.8734 34.9083 58.1581 34.5307C61.1069 28.2879 62.6609 21.389 62.6609 14.4832C62.6609 12.1505 61.4461 9.97052 59.1322 8.1213L59.2875 7.8174C59.6451 7.11802 59.7056 6.32334 59.4578 5.57912C59.2073 4.82771 58.6745 4.22068 57.957 3.8699L56.0139 2.92005C55.0641 1.08224 53.1166 -0.0719777 50.9803 0.00349101H50.9801C48.1969 0.0994285 45.8981 2.31646 45.747 5.05068C45.6661 6.51802 46.1803 7.91709 47.1953 8.98943C48.2201 10.0726 49.6706 10.6936 51.1741 10.6936C51.3906 10.6936 51.6097 10.6801 51.8298 10.653L54.0045 11.7163C54.4233 11.9208 54.8687 12.0179 55.3084 12.0179C56.2459 12.0179 57.1561 11.5765 57.7212 10.8001C58.79 11.7569 59.7051 13.0057 59.7051 14.483C59.7051 20.9218 58.2623 27.3536 55.5258 33.1805L55.4886 33.1615C54.1214 32.4611 52.4737 32.9055 51.6564 34.1933C49.4223 37.7116 45.7125 39.7297 41.4784 39.7297C37.2445 39.7297 33.5347 37.7118 31.3008 34.1935C30.483 32.9047 28.8351 32.461 27.4686 33.1613L27.4311 33.1804C24.6945 27.3535 23.2516 20.9216 23.2516 14.4829C23.2516 13.0054 24.1669 11.7568 25.2355 10.7999C25.8008 11.5763 26.7108 12.0177 27.6483 12.0177C28.0877 12.0177 28.5334 11.9208 28.9522 11.7163L31.1269 10.653C31.347 10.6801 31.5661 10.6936 31.7826 10.6936C33.2862 10.6936 34.7366 10.0726 35.7614 8.98943C36.7762 7.91709 37.2906 6.51802 37.2097 5.05052C37.0586 2.31646 34.7598 0.0994285 31.9766 0.00349101H31.9764C29.8372 -0.0719777 27.8928 1.08177 26.9428 2.92021L24.9994 3.87021C24.2822 4.22083 23.7494 4.82771 23.4991 5.57927C23.2512 6.32349 23.3117 7.11849 23.6691 7.8174L23.8245 8.12146C21.5105 9.97083 20.2958 12.1507 20.2958 14.4832C20.2958 21.389 21.8497 28.2877 24.7986 34.5307C24.0833 34.9085 23.5494 35.5677 23.3323 36.3477C23.1103 37.1463 23.2344 38.0101 23.673 38.7171C26.71 43.6135 31.5992 47.0096 37.2105 48.1627C38.2573 55.0544 44.248 60.2971 51.3305 60.2971C54.318 60.2971 56.7489 62.7276 56.7492 65.7149C56.7494 67.1241 56.1792 68.4669 55.1439 69.4957C54.0942 70.5385 52.6628 71.1343 51.2114 71.1343C51.1994 71.1343 51.1873 71.1343 51.1753 71.1341C46.618 71.1032 42.2605 69.7093 38.5736 67.1033C37.9066 66.6324 36.9848 66.7908 36.5136 67.4572C36.0425 68.1238 36.2011 69.046 36.8675 69.5172C41.0505 72.4735 45.9909 74.0546 51.1555 74.0899C51.1741 74.0899 51.1923 74.09 51.2108 74.09C53.4373 74.09 55.6273 73.1816 57.2269 71.5926C58.8251 70.0047 59.7053 67.9174 59.705 65.7146C59.7042 61.0976 55.9475 57.3415 51.3305 57.3415C45.4025 57.3415 40.4392 52.7108 40.0311 46.7993C39.9834 46.1074 39.4608 45.5418 38.7748 45.4394C33.5539 44.6599 28.9648 41.6421 26.1845 37.1593C26.182 37.1554 26.1764 37.1463 26.1764 37.1436L28.815 35.7944C31.6036 40.1746 36.2177 42.686 41.4778 42.686C46.738 42.686 51.3528 40.1738 54.1414 35.7933L55.4961 36.4852C55.5037 36.4893 55.5105 36.4941 55.5184 36.498C55.5251 36.5016 55.5322 36.5038 55.5389 36.5071L56.7759 37.1388C56.7795 37.1463 56.7739 37.1549 56.7719 37.1586C54.655 40.5718 51.4155 43.2018 47.6498 44.5636ZM55.9361 7.8813C55.9353 7.88287 55.9344 7.88458 55.9336 7.8863L55.3348 9.05958C55.3344 9.05974 55.3189 9.06927 55.3025 9.06115L52.7012 7.78959C52.4978 7.69021 52.2758 7.63943 52.0522 7.63943C51.9451 7.63943 51.838 7.65099 51.7322 7.67443C51.5411 7.71677 51.3533 7.73834 51.1739 7.73834C50.4687 7.73834 49.8178 7.4613 49.3417 6.95818C48.8909 6.48146 48.662 5.86193 48.6978 5.21365C48.7655 3.9924 49.8125 3.00115 51.0817 2.95724C52.16 2.92755 53.1331 3.55396 53.5019 4.53396C53.6347 4.88693 53.8973 5.17568 54.2362 5.34146L56.6344 6.51365L55.9361 7.8813ZM28.7198 5.34162C29.0587 5.17584 29.3214 4.88708 29.4542 4.53412C29.8228 3.5538 30.7916 2.92146 31.8744 2.9574C33.1434 3.00146 34.1906 3.99255 34.2583 5.21365C34.2941 5.86208 34.0653 6.48162 33.6144 6.95833C33.1383 7.46146 32.4875 7.73849 31.7822 7.73849C31.6028 7.73849 31.4151 7.71708 31.2239 7.67458C30.8969 7.60193 30.5555 7.64271 30.2548 7.78974L27.6536 9.0613C27.6425 9.06677 27.6319 9.06443 27.6278 9.06443C27.6269 9.06443 27.6262 9.06443 27.6261 9.0649L26.3216 6.51412L28.7198 5.34162Z" fill="#00509E"/>
<path d="M61.4703 55.6608C58.7647 52.9322 55.1635 51.4295 51.3303 51.4295C48.6108 51.4295 46.3011 49.3965 45.9572 46.7003C45.8541 45.8906 45.1111 45.3167 44.3044 45.4212C43.4947 45.5244 42.9219 46.2643 43.0253 47.074C43.5566 51.242 47.1269 54.3853 51.3302 54.3853C54.3691 54.3853 57.2249 55.5775 59.3714 57.742C61.5177 59.9059 62.6853 62.772 62.66 65.812C62.6352 68.774 61.4264 71.5754 59.2568 73.7003C57.0816 75.8301 54.1188 77.0442 51.1072 77.0442C51.0602 77.0442 51.0128 77.044 50.966 77.0434C43.9194 76.9545 37.2169 74.2476 32.0935 69.4214C32.0874 69.4154 32.0811 69.4095 32.0746 69.4039L31.7758 69.1322C31.293 68.6931 30.5796 68.6226 30.0202 68.9586C28.7244 69.7373 27.2354 70.1489 25.7139 70.1489C21.0961 70.1489 17.3394 66.3922 17.3394 61.7743C17.3394 57.1565 21.0961 53.3998 25.7139 53.3998C30.3318 53.3998 34.0885 57.1565 34.0885 61.7743C34.0885 62.8042 33.9041 63.8089 33.5405 64.7611C33.2493 65.5236 33.6316 66.3776 34.3939 66.669C35.1571 66.9598 36.0107 66.5778 36.3019 65.8156C36.7946 64.5256 37.0444 63.1659 37.0444 61.7743C37.0444 55.5267 31.9618 50.444 25.7141 50.444C19.4664 50.444 14.3838 55.5267 14.3838 61.7743C14.3838 68.022 19.4664 73.1047 25.7141 73.1047C27.3949 73.1047 29.0475 72.7326 30.5533 72.0212C36.1516 77.0754 43.3608 79.9032 50.9286 79.9986C50.988 79.9993 51.0471 79.9998 51.1061 79.9998C54.8853 79.9998 58.6007 78.4793 61.3244 75.8121C64.0602 73.1332 65.5839 69.5907 65.6155 65.8367C65.6478 62.0025 64.1758 58.3887 61.4703 55.6608Z" fill="#00509E"/>
<path d="M25.7141 56.3557C22.7263 56.3557 20.2953 58.7867 20.2953 61.7745C20.2953 64.7623 22.7263 67.1932 25.7141 67.1932C26.8868 67.1932 28.0038 66.8232 28.9446 66.1231C29.5994 65.6356 29.7352 64.7098 29.2479 64.0553C28.7604 63.4004 27.8346 63.2646 27.18 63.752C26.7532 64.0696 26.2464 64.2374 25.7144 64.2374C24.3561 64.2374 23.2513 63.1326 23.2513 61.7743C23.2513 60.416 24.3561 59.3112 25.7143 59.3112C27.0725 59.3112 28.1774 60.416 28.1774 61.7743C28.1774 62.5907 28.8389 63.2521 29.6552 63.2521C30.4714 63.2521 31.133 62.5906 31.133 61.7743C31.1329 58.7867 28.7019 56.3557 25.7141 56.3557Z" fill="#FFCB00"/>
</g>
<defs>
<clipPath id="clip0">
<rect width="80" height="80" fill="white"/>
</clipPath>
</defs>
</svg>
