<svg width="47" height="38" viewBox="0 0 47 38" fill="none" xmlns="http://www.w3.org/2000/svg">
<path fill-rule="evenodd" clip-rule="evenodd" d="M29.6773 0C38.8492 0 46.2844 7.4351 46.2844 16.607C46.2844 25.7789 38.8492 33.214 29.6773 33.214C20.5054 33.214 13.0703 25.7789 13.0703 16.607C13.0703 7.4351 20.5054 0 29.6773 0Z" fill="#CC0256" fill-opacity="0.25098"/>
<path fill-rule="evenodd" clip-rule="evenodd" d="M20.7458 7.75401L22.5994 7.61571L23.3741 6.48131L27.2711 6.50781C27.2711 6.50781 29.383 4.94691 27.4964 3.21671C25.6098 1.48651 22.2121 0.643613 20.3308 2.55261C18.4494 4.46171 18.809 6.31541 20.7458 7.75401V7.75401Z" fill="#CC0256"/>
<path fill-rule="evenodd" clip-rule="evenodd" d="M16.5584 16.2051L14.1514 18.5983C14.1514 18.5983 14.5802 19.9816 15.8944 20.0647C17.2085 20.1477 17.6789 19.5114 17.6789 19.5114C17.6789 19.5114 18.0662 19.0964 18.08 18.9442C18.0939 18.792 18.0801 18.294 18.0248 18.1695C17.9694 18.045 17.4021 16.551 17.4021 16.551L16.5584 16.2051V16.2051Z" fill="#CC0256"/>
<path fill-rule="evenodd" clip-rule="evenodd" d="M26.6982 28.3784L28.8839 26.9121C28.8839 26.9121 30.715 28.2317 29.4372 29.5128C28.1594 30.7938 27.7772 29.9001 27.7772 29.9001L26.6982 28.3784Z" fill="#CC0256"/>
<path fill-rule="evenodd" clip-rule="evenodd" d="M9.3994 1.13916C9.1978 1.13916 9.03209 1.30486 9.03209 1.50646C9.03209 1.70806 9.1978 1.87376 9.3994 1.87376H16.2816C16.4832 1.87376 16.649 1.70806 16.649 1.50646C16.649 1.30486 16.4832 1.13916 16.2816 1.13916H9.3994ZM5.03951 18.2917C4.83791 18.2917 4.67233 18.4574 4.67233 18.659C4.67233 18.8606 4.83791 19.0262 5.03951 19.0262H9.4851C9.6867 19.0262 9.85233 18.8606 9.85233 18.659C9.85233 18.4574 9.6867 18.2917 9.4851 18.2917H5.03951ZM7.6728 20.8999C7.4712 20.8999 7.30541 21.0655 7.30541 21.2671C7.30541 21.4686 7.4712 21.6343 7.6728 21.6343H9.47752C9.67902 21.6343 9.84471 21.4686 9.84471 21.2671C9.84471 21.0655 9.67902 20.8999 9.47752 20.8999H7.6728ZM13.1638 3.74717C12.9622 3.74717 12.7965 3.91296 12.7965 4.11446C12.7965 4.31606 12.9622 4.48177 13.1638 4.48177H16.2708C16.4724 4.48177 16.6381 4.31606 16.6381 4.11446C16.6381 3.91296 16.4724 3.74717 16.2708 3.74717H13.1638ZM8.4494 28.6063C8.5411 28.407 8.41001 28.151 8.22041 28.0648C7.90381 27.9209 7.65441 28.2506 7.71491 28.5489C7.79521 28.944 8.2847 28.9642 8.4494 28.6063V28.6063ZM18.8333 29.8931L19.8456 28.039C19.8699 27.9573 19.8947 27.8352 19.838 27.7674C19.7284 27.6361 19.3403 27.6109 19.1738 27.5986C17.5784 27.4802 15.9351 27.4982 14.3356 27.5377C12.5261 27.5823 12.4351 28.9031 11.4634 30.0693C10.1898 31.5979 8.75291 33.1865 7.12451 34.3406C6.72061 34.627 5.984 35.4373 5.4483 35.1005C5.2843 34.9974 4.71761 34.1882 4.58811 34.0057C4.42961 33.7825 3.83012 32.9853 3.87252 32.7154C3.90592 32.5018 4.3357 32.258 4.5033 32.1469C4.8659 31.9068 5.2299 31.6706 5.5828 31.4161C5.927 31.168 7.18211 30.1854 7.38241 29.8097C7.52911 29.5346 7.16321 29.2713 6.94561 29.4048C6.60031 29.6167 5.5983 30.4107 5.2674 30.6464C4.66961 31.072 4.07523 31.5028 3.48323 31.9365C2.75803 32.4679 2.02981 33.0036 1.32151 33.5574C0.953507 33.845 0.707418 34.2441 0.592718 34.6951C0.548318 34.8697 0.524318 35.0495 0.520218 35.2296C0.509418 35.6863 0.626105 36.1504 0.867405 36.5395C1.21781 37.1046 1.77301 37.4287 2.43291 37.4856C3.44851 37.5732 4.51991 37.0324 5.33131 36.4756C6.91141 35.3914 8.4906 34.2648 9.8419 32.8982C11.0891 31.6365 12.1849 30.1608 13.2597 28.7519C13.5922 28.3161 15.3442 28.2809 15.8615 28.2667C16.2697 28.2554 18.1055 28.2267 18.4268 28.404L18.4866 28.437L18.5209 28.4962C18.6616 28.7393 18.297 29.3327 18.1812 29.5462C17.8958 30.0729 17.586 30.5913 17.2764 31.1041C16.8294 31.8444 16.3625 32.5725 15.9159 33.3116C15.3669 34.2205 15.0278 34.942 15.3743 36.0234C15.6207 36.7925 16.4872 37.3302 17.246 37.4902C19.2668 37.9161 20.0887 35.6598 20.9324 34.3105C21.532 33.3518 23.8806 29.4689 23.8806 29.4689L24.0948 29.7654C24.7273 30.5938 25.4491 31.3834 26.1545 32.1506C26.7404 32.7879 27.3341 33.4183 27.9137 34.0612C28.185 34.3624 28.5049 34.704 28.8775 34.8781C29.3976 35.121 30.0679 35.0368 30.6143 34.9464C31.7708 34.7554 32.9251 34.5437 34.073 34.3063C35.1507 34.0838 35.9858 34.0099 36.5497 32.9599C37.0099 32.1031 36.9747 30.8375 36.2422 30.1369C35.4566 29.3855 33.6901 29.8325 32.7627 30.0544C31.8706 30.2678 30.5431 30.6672 29.6405 30.5702L29.1548 30.5179L29.4857 30.1584C30.7589 28.7753 29.948 27.3232 29.0788 25.9995C28.6622 25.3652 28.2666 24.6956 27.8944 24.0347C27.6665 23.6301 27.4436 23.2189 27.2423 22.8005C27.1041 22.5131 26.932 22.146 26.8669 21.8338C26.6718 20.8975 26.4963 19.9651 26.4285 19.0098C26.3604 18.0527 26.3606 17.0751 26.3208 16.1144C26.283 15.2021 26.2398 14.0621 25.8139 13.2352C25.536 12.6954 25.0991 12.264 24.6429 11.8728L24.3488 11.6208L24.7018 11.4613C25.7634 10.9823 26.4037 10.9156 27.175 9.96517C27.7702 9.23167 28.3324 7.98796 28.0788 7.02506C27.9982 6.71896 28.016 6.44006 28.1563 6.15546C28.2901 5.88416 28.4988 5.67066 28.5762 5.37026C28.6978 4.89796 28.4667 4.30166 28.2711 3.88146C27.8677 3.01436 27.1892 2.25176 26.3447 1.79486C25.3116 1.23586 23.8485 1.10316 22.6991 1.24526C20.5164 1.51506 18.8035 2.74246 18.8497 5.11566C18.8633 5.80976 19.045 6.37706 19.3649 6.98506C19.5647 7.36476 19.909 7.86867 19.895 8.30677L19.8877 8.53896L19.6555 8.54517C19.5305 8.54857 19.4088 8.53466 19.2871 8.50656C18.9942 8.43866 18.72 8.30226 18.4213 8.23106C17.9331 8.11466 17.4189 8.14036 16.926 8.21256C15.9699 8.35246 15.0302 8.59177 14.0749 8.73677C12.8859 8.91727 11.28 9.09266 10.3089 9.85276C10.021 10.0783 9.78983 10.3496 9.61233 10.6695C8.68643 12.3387 8.91193 13.9061 10.1832 15.2972C11.2443 16.4585 12.283 17.6373 13.391 18.7551L13.506 18.8711L13.4438 19.0223C12.9758 20.1585 12.3948 21.1961 11.7345 22.2296C11.1418 23.1572 10.5126 24.06 9.9294 24.9943C9.7093 25.3469 8.75261 26.6226 8.62221 27.0063C8.41581 27.6138 9.00992 27.7038 9.29932 27.2072C9.90432 26.1692 11.3097 24.3844 11.9115 23.3425C12.2714 22.7192 12.6323 22.0967 12.9971 21.4763C13.3228 20.9227 13.5565 20.4218 13.8839 19.8716C14.0108 19.6583 14.1643 19.528 14.4713 19.7515C16.6403 21.7186 19.1839 24.4828 21.459 26.9292C22.0135 27.5254 22.573 28.1225 23.1139 28.7309L23.232 28.8637L20.2666 34.0034L19.4482 33.7119L17.3026 32.6563L17.4198 32.4326C17.8714 31.5707 18.3135 30.7174 18.8333 29.8931V29.8931ZM22.9241 6.30456C22.6574 6.62476 22.6137 7.17026 22.1703 7.26666C21.7633 7.35516 20.6376 7.41446 20.3345 7.10456C19.8514 6.61066 19.5949 5.87497 19.5823 5.19187C19.529 2.32237 22.4201 1.56316 24.7598 1.96896C25.6183 2.11796 26.4122 2.62767 26.9886 3.27017C27.4074 3.73687 27.8937 4.50446 27.8023 5.16246C27.7652 5.42976 27.7415 5.45146 27.5626 5.64696C27.0781 6.17656 27.0604 6.08986 26.3692 6.13646L26.3614 6.13706L23.528 6.14687C23.1089 6.14837 23.2385 6.20536 22.9241 6.30456V6.30456ZM22.9389 7.89126C23.0682 7.70826 23.2296 7.48637 23.3098 7.28097C23.3472 7.18547 23.3905 7.10536 23.4449 7.01826L23.5176 6.90177L27.2949 6.91826L27.3058 7.15187C27.3469 8.01827 27.2273 8.71236 26.6753 9.39446C25.7237 10.5704 24.0518 11.085 22.635 10.4945C21.6086 10.0668 21.24 9.42176 20.7214 8.50666L20.5815 8.25986L20.9173 8.12776C21.5932 7.86206 22.3674 8.30506 22.9389 7.89126ZM13.5361 12.8611C13.6603 13.248 15.6089 15.1699 16.0301 15.6285L16.1882 15.8006L13.9534 18.0824L13.7888 17.9896C13.5749 17.8691 13.2907 17.5679 13.1184 17.3897C12.8078 17.0682 12.5073 16.7347 12.2091 16.4015C11.937 16.0973 11.6671 15.7913 11.3951 15.487C11.2138 15.2841 11.0275 15.0698 10.8337 14.8792C9.78229 13.8451 9.6885 12.3835 10.1576 11.3097C10.5352 10.4453 11.227 9.85967 12.4687 9.73677C14.1593 9.56947 17.1011 8.45737 18.657 8.99387C19.1015 9.14707 19.6085 9.47087 20.0043 9.72687C20.3677 9.96197 20.7225 10.2084 21.0805 10.4514C22.3657 11.3238 24.8883 12.4272 25.3467 14.0057C25.5421 14.6785 25.5895 15.4187 25.6088 16.1164C25.6312 16.928 25.6152 17.7402 25.6409 18.5521C25.6995 20.4088 25.9682 22.1463 26.9216 23.7757C27.1522 24.1699 27.3847 24.5626 27.6119 24.9589C27.7475 25.1954 28.2714 26.0744 28.3016 26.3133L28.3205 26.462L27.2966 27.1674L26.3427 27.8749L26.1926 27.7288C25.6982 27.2478 25.2041 26.7672 24.7161 26.2796C24.4 25.9637 24.0848 25.6454 23.7789 25.3199C23.4881 25.0103 23.3228 24.8254 23.1066 24.4621C23.117 24.2993 23.2717 24.3715 23.1798 23.9567C23.1113 23.6483 22.9865 23.313 22.8854 23.0118C22.7986 22.7531 22.7091 22.4914 22.637 22.2282C22.434 21.4892 22.421 20.7589 22.4031 20.0004C22.3974 19.7589 22.4005 19.0106 22.193 18.8458C22.1398 18.8035 22.0676 18.7948 22.0017 18.7959C21.7231 18.8001 21.2437 19.6464 21.1207 19.8601C20.9141 20.219 20.4517 21.1875 20.0204 21.2705L19.8958 21.2944L18.0935 19.5784L18.2526 19.4004C18.3363 19.3068 18.4173 19.0914 18.4507 18.9733C18.5902 18.4797 18.5356 17.9173 18.4171 17.426C18.3128 16.994 18.0113 16.6162 17.7111 16.3005C17.4133 15.9874 17.0835 15.7069 16.7865 15.3944C16.5349 15.1295 16.2618 14.7931 16.2568 14.409C16.2556 14.3156 16.2705 14.2228 16.3003 14.1344C16.425 13.7643 17.0685 12.6687 16.9347 12.319C16.8719 12.2269 16.4816 12.1724 16.3798 12.1625C15.9912 12.1245 15.5692 12.1482 15.1826 12.1992C14.7955 12.2504 14.3665 12.3391 14.0059 12.4916C13.8853 12.5426 13.5634 12.6972 13.5393 12.8481C13.5379 12.8568 13.5377 12.8656 13.5361 12.8611V12.8611ZM15.9678 13.0522L15.5579 14.057C15.2931 13.8497 14.8573 13.4237 14.8155 13.2215C14.7858 13.0781 15.7061 12.9905 15.9678 13.0522V13.0522ZM16.8063 16.6061C17.6306 17.0193 18.1008 18.262 17.5484 19.0711C16.8407 20.1077 15.2704 19.9053 14.6127 18.8921L14.5084 18.7312L14.6386 18.5906C14.9646 18.2387 15.2962 17.89 15.6287 17.5444C15.9183 17.2434 16.2208 16.921 16.5316 16.6428L16.6565 16.531L16.8063 16.6061ZM30.6075 31.2335C31.601 31.0496 34.9606 30.0921 35.6947 30.7104C36.2501 31.1781 36.1487 32.088 35.8332 32.6632C35.4354 33.3885 33.1788 33.8481 32.4208 33.982C31.6752 34.1137 29.3389 34.4672 28.7428 33.8977C28.4409 33.6095 28.1488 33.3021 27.8601 33.0007C27.3916 32.5114 26.9275 32.0176 26.4649 31.5227C25.2435 30.2167 24.0317 28.9009 22.8243 27.5818C21.5305 26.1685 20.2409 24.7507 18.9626 23.3232C18.5076 22.8152 18.0533 22.3058 17.6051 21.7918C17.3802 21.5338 17.1176 21.2486 16.9173 20.9722C16.7105 20.6868 17.0769 20.1844 17.4327 20.2729C18.217 20.3579 20.0646 22.6641 20.6799 23.236C22.1157 24.5699 23.4508 26.0405 24.8048 27.458C25.4143 28.0959 26.0291 28.7296 26.6604 29.3459C26.9489 29.6276 27.2202 29.9218 27.5005 30.2109C27.7037 30.4202 27.9166 30.6301 28.1591 30.7937C28.849 31.259 29.8062 31.2604 30.6075 31.2335V31.2335ZM21.7137 20.361C21.7699 20.4341 21.7867 22.2473 22.4881 24.0361C22.0426 23.5679 20.9342 22.6809 20.6921 22.2285L20.6531 22.1555L20.666 22.0737C20.7054 21.8256 21.5691 20.1731 21.7137 20.361ZM28.8426 27.2779C29.2833 27.6531 29.3887 28.4465 29.236 28.9766C29.1724 29.1977 28.9453 29.5848 28.745 29.6997C28.1951 30.0146 26.7099 28.5722 27.4479 28.0096C27.7047 27.8141 28.3353 27.3161 28.6094 27.2303L28.7391 27.1898L28.8426 27.2779ZM16.9191 33.3883C17.3802 33.4104 19.1403 34.3606 19.5068 34.6849L19.6007 34.7679L19.5889 34.8926C19.5566 35.233 18.9706 36.0512 18.7249 36.3103C18.366 36.6886 17.4398 36.8812 16.978 36.6244C15.7028 35.9153 15.907 34.4744 16.716 33.4789L16.7946 33.3822L16.9191 33.3883V33.3883ZM4.6799 35.9145C3.69921 36.7604 2.37691 37.3573 1.50631 35.9678L1.50182 35.9606L1.49772 35.9531C0.853518 34.7475 1.97081 33.5353 3.11971 33.301L3.2835 33.2675L3.37502 33.4075C3.67412 33.8646 4.78522 35.2611 4.76502 35.7384L4.76061 35.8448L4.6799 35.9145V35.9145Z" fill="#373435"/>
</svg>
