<?xml version="1.0" encoding="UTF-8" standalone="no"?>
<!-- Created with Inkscape (http://www.inkscape.org/) -->

<svg
   xmlns:dc="http://purl.org/dc/elements/1.1/"
   xmlns:cc="http://creativecommons.org/ns#"
   xmlns:rdf="http://www.w3.org/1999/02/22-rdf-syntax-ns#"
   xmlns:svg="http://www.w3.org/2000/svg"
   xmlns="http://www.w3.org/2000/svg"
   xmlns:sodipodi="http://sodipodi.sourceforge.net/DTD/sodipodi-0.dtd"
   xmlns:inkscape="http://www.inkscape.org/namespaces/inkscape"
   width="60mm"
   height="20mm"
   viewBox="0 0 60 20"
   version="1.1"
   id="svg410"
   inkscape:version="0.92.2 (5c3e80d, 2017-08-06)"
   sodipodi:docname="btnru.svg">
  <defs
     id="defs404" />
  <sodipodi:namedview
     id="base"
     pagecolor="#ffffff"
     bordercolor="#666666"
     borderopacity="1.0"
     inkscape:pageopacity="0.0"
     inkscape:pageshadow="2"
     inkscape:zoom="1.979899"
     inkscape:cx="165.45808"
     inkscape:cy="25.666861"
     inkscape:document-units="mm"
     inkscape:current-layer="layer1"
     showgrid="false"
     inkscape:window-width="1366"
     inkscape:window-height="705"
     inkscape:window-x="-8"
     inkscape:window-y="-8"
     inkscape:window-maximized="1" />
  <metadata
     id="metadata407">
    <rdf:RDF>
      <cc:Work
         rdf:about="">
        <dc:format>image/svg+xml</dc:format>
        <dc:type
           rdf:resource="http://purl.org/dc/dcmitype/StillImage" />
        <dc:title></dc:title>
      </cc:Work>
    </rdf:RDF>
  </metadata>
  <g
     inkscape:label="Layer 1"
     inkscape:groupmode="layer"
     id="layer1"
     transform="translate(0,-277)">
    <path
       inkscape:connector-curvature="0"
       d="m 49.641973,296.3102 h -39.49965 a 9.2604167,9.2604167 0 0 1 -9.26041017,-9.26042 v 0 a 9.2604167,9.2604167 0 0 1 9.26041017,-9.26041 h 39.49965 a 9.2604167,9.2604167 0 0 1 9.260418,9.26041 v 0 a 9.2604167,9.2604167 0 0 1 -9.260418,9.26042 z"
       style="fill:#73aad5;fill-rule:evenodd;stroke-width:0.26458332"
       id="path6" />
    <path
       inkscape:connector-curvature="0"
       d="m 6.3164528,283.59433 a 4.2333333,4.2333333 0 0 1 1.69333,0.26458 1.7145,1.7145 0 0 1 0.88371,0.96044 6.8606458,6.8606458 0 0 1 0,3.91848 1.7145,1.7145 0 0 1 -0.88371,0.96043 5.413375,5.413375 0 0 1 -3.37608,0 1.7145,1.7145 0 0 1 -0.88371,-0.96043 6.8606458,6.8606458 0 0 1 0,-3.91848 1.7145,1.7145 0 0 1 0.88371,-0.96044 4.206875,4.206875 0 0 1 1.68275,-0.26458 z m 0.66146,1.78064 a 0.79375,0.79375 0 0 0 -1.32292,0 6.1330417,6.1330417 0 0 0 -0.0106,2.8284 0.79375,0.79375 0 0 0 1.32291,0 6.0377917,6.0377917 0 0 0 0,-2.81782 z"
       style="fill:#ffffff;fill-rule:evenodd;stroke-width:0.26458332"
       id="path12" />
    <polygon
       transform="matrix(0.26458333,0,0,0.26458333,-60.766007,70.980441)"
       points="285.85,804.05 285.85,809.49 279.37,809.49 279.37,827.22 272.08,827.22 272.08,809.49 265.6,809.49 265.6,804.05 "
       style="fill:#ffffff;fill-rule:evenodd"
       id="polygon14" />
    <polygon
       transform="matrix(0.26458333,0,0,0.26458333,-60.766007,70.980441)"
       points="288.1,804.05 308.38,804.05 308.38,827.22 301.1,827.22 301.1,808.82 295.39,808.82 295.39,827.22 288.1,827.22 "
       style="fill:#ffffff;fill-rule:evenodd"
       id="polygon16" />
    <path
       inkscape:connector-curvature="0"
       d="m 21.831613,289.84908 v -6.1304 q 0.90488,-0.09 2.59557,-0.09 c 0.97631,0 1.64571,0.14552 2.00289,0.43656 0.35719,0.29104 0.52917,0.84138 0.52917,1.651 0,0.80963 -0.16404,1.34673 -0.49742,1.63513 -0.33337,0.28839 -0.92339,0.43656 -1.778,0.43656 a 8.2364792,8.2364792 0 0 1 -0.93133,-0.0529 v 2.11667 z m 1.92882,-3.42107 h 0.62177 a 0.7223125,0.7223125 0 0 0 0.52916,-0.14287 0.85195833,0.85195833 0 0 0 0.1323,-0.56886 0.89958333,0.89958333 0 0 0 -0.1323,-0.58208 0.71966667,0.71966667 0 0 0 -0.52916,-0.14552 h -0.62177 z"
       style="fill:#ffffff;fill-rule:evenodd;stroke-width:0.26458332"
       id="path18" />
    <path
       inkscape:connector-curvature="0"
       d="m 30.716323,288.52616 h -1.67746 l -0.3122,1.32292 h -1.96321 l 1.5875,-5.63298 a 0.67733333,0.67733333 0 0 1 0.24077,-0.35984 0.6429375,0.6429375 0 0 1 0.40746,-0.13758 h 1.75154 a 0.63764583,0.63764583 0 0 1 0.40746,0.13758 0.67733333,0.67733333 0 0 1 0.24077,0.35984 l 1.5875,5.63298 h -1.96321 l -0.31221,-1.32292 z m -0.30956,-1.35202 -0.30162,-1.32292 c -0.0529,-0.26458 -0.09,-0.51064 -0.10848,-0.70114 h -0.23813 c -0.037,0.26458 -0.0714,0.51329 -0.10848,0.70114 l -0.30162,1.32292 z"
       style="fill:#ffffff;fill-rule:evenodd;stroke-width:0.26458332"
       id="path20" />
    <path
       inkscape:connector-curvature="0"
       d="m 37.248893,286.64233 v 0.0529 a 1.3599583,1.3599583 0 0 1 1.016,0.46302 1.8520833,1.8520833 0 0 1 0.30691,1.16152 c 0,0.61118 -0.16933,1.02923 -0.51064,1.25941 -0.34132,0.23019 -0.91017,0.34132 -1.70921,0.34132 -1.29911,0 -2.27806,-0.0238 -2.94217,-0.0714 v -6.1304 q 0.90488,-0.0714 2.64583,-0.0714 1.30705,0 1.80711,0.33338 0.50006,0.33337 0.50271,1.26471 a 1.6245417,1.6245417 0 0 1 -0.26459,1.00541 1.1641667,1.1641667 0 0 1 -0.85725,0.39159 z m -1.95528,-0.52917 h 0.68528 a 0.619125,0.619125 0 0 0 0.4445,-0.11377 0.75141667,0.75141667 0 0 0 0.10583,-0.47096 0.66939583,0.66939583 0 0 0 -0.11113,-0.46302 0.6905625,0.6905625 0 0 0 -0.45773,-0.10583 h -0.66675 z m 0,2.5056 h 0.71173 a 0.74877083,0.74877083 0 0 0 0.52917,-0.13229 0.85725,0.85725 0 0 0 0.12435,-0.55033 0.87841667,0.87841667 0 0 0 -0.12435,-0.56092 0.76729167,0.76729167 0 0 0 -0.52917,-0.13229 h -0.70114 z"
       style="fill:#ffffff;fill-rule:evenodd;stroke-width:0.26458332"
       id="path22" />
    <path
       inkscape:connector-curvature="0"
       d="m 44.829203,289.84908 h -1.83092 v -2.81517 a 5.9557708,5.9557708 0 0 1 0.0979,-0.9525 h -0.0635 a 4.9186042,4.9186042 0 0 1 -0.37307,0.94192 l -1.50018,2.82575 h -1.85209 v -6.1304 h 1.83092 v 2.71727 a 6.6145833,6.6145833 0 0 1 -0.0979,0.99748 h 0.0635 a 5.2017083,5.2017083 0 0 1 0.39158,-0.94192 l 1.49225,-2.77283 h 1.83092 z"
       style="fill:#ffffff;fill-rule:evenodd;stroke-width:0.26458332"
       id="path24" />
    <polygon
       transform="matrix(0.26458333,0,0,0.26458333,-60.766007,70.980441)"
       points="421.6,804.05 421.6,809.49 415.12,809.49 415.12,827.22 407.83,827.22 407.83,809.49 401.35,809.49 401.35,804.05 "
       style="fill:#ffffff;fill-rule:evenodd"
       id="polygon26" />
    <path
       inkscape:connector-curvature="0"
       d="m 53.306453,285.82212 h 0.52916 c 0.941918,0 1.587498,0.14287 1.947338,0.43127 0.35983,0.28839 0.52916,0.82285 0.52916,1.61131 0,0.78846 -0.16404,1.32292 -0.49212,1.60867 -0.32808,0.28575 -0.87577,0.4445 -1.640418,0.4445 q -1.83091,0 -2.76225,-0.0714 h -0.0529 v -6.12775 h 1.92881 v 2.11667 z m 0,2.76225 h 0.52916 c 0.23284,0 0.381,-0.0503 0.4498,-0.15082 a 1.2938125,1.2938125 0 0 0 0.103178,-0.64029 1.3467292,1.3467292 0 0 0 -0.103178,-0.64823 c -0.0688,-0.10583 -0.21696,-0.15875 -0.4498,-0.15875 h -0.52916 z"
       style="fill:#ffffff;fill-rule:evenodd;stroke-width:0.26458332"
       id="path28" />
    <path
       inkscape:connector-curvature="0"
       d="M 41.143556,296.30226 H 10.142327 a 9.2604167,9.2604167 0 0 1 -9.26041717,-9.26041 v 0 a 9.2604167,9.2604167 0 0 1 6.25739597,-8.75771"
       style="fill:none;fill-rule:evenodd;stroke:#232765;stroke-width:0.61716712px;stroke-linecap:round;stroke-linejoin:round"
       id="path8" />
    <path
       inkscape:connector-curvature="0"
       d="m 10.142327,277.78937 h 39.499646 a 9.2604167,9.2604167 0 0 1 9.260418,9.26041 v 0 a 9.2604167,9.2604167 0 0 1 -9.260418,9.26042"
       style="fill:none;fill-rule:evenodd;stroke:#232765;stroke-width:0.61748463px;stroke-linecap:round;stroke-linejoin:round"
       id="path10" />
  </g>
</svg>
