<?xml version="1.0" encoding="UTF-8" standalone="no"?>
<svg
   xmlns:dc="http://purl.org/dc/elements/1.1/"
   xmlns:cc="http://creativecommons.org/ns#"
   xmlns:rdf="http://www.w3.org/1999/02/22-rdf-syntax-ns#"
   xmlns:svg="http://www.w3.org/2000/svg"
   xmlns="http://www.w3.org/2000/svg"
   xmlns:sodipodi="http://sodipodi.sourceforge.net/DTD/sodipodi-0.dtd"
   xmlns:inkscape="http://www.inkscape.org/namespaces/inkscape"
   viewBox="0 0 640.3 886.91"
   version="1.1"
   id="svg378"
   sodipodi:docname="frkk.svg"
   inkscape:version="0.92.2 (5c3e80d, 2017-08-06)">
  <metadata
     id="metadata384">
    <rdf:RDF>
      <cc:Work
         rdf:about="">
        <dc:format>image/svg+xml</dc:format>
        <dc:type
           rdf:resource="http://purl.org/dc/dcmitype/StillImage" />
      </cc:Work>
    </rdf:RDF>
  </metadata>
  <defs
     id="defs382" />
  <sodipodi:namedview
     pagecolor="#ffffff"
     bordercolor="#666666"
     borderopacity="1"
     objecttolerance="10"
     gridtolerance="10"
     guidetolerance="10"
     inkscape:pageopacity="0"
     inkscape:pageshadow="2"
     inkscape:window-width="1366"
     inkscape:window-height="705"
     id="namedview380"
     showgrid="false"
     inkscape:zoom="0.5321848"
     inkscape:cx="385.01179"
     inkscape:cy="495.3387"
     inkscape:window-x="-8"
     inkscape:window-y="-8"
     inkscape:window-maximized="1"
     inkscape:current-layer="svg378" />
  <title
     id="title2">Ресурс 1</title>
  <g
     id="Слой_2"
     data-name="Слой 2"
     transform="matrix(1.0726012,0,0,1.0513346,-46.486579,-45.529154)">
    <g
       id="Слой_1-2"
       data-name="Слой 1">
      <rect
         x="45.02"
         y="45.02"
         width="595.28003"
         height="841.89001"
         style="fill:#e5a821"
         id="rect4" />
      <polygon
         points="116.11,108.06 110.71,120.19 101.71,120.19 108.87,105.46 102.3,91.32 111.25,91.32 116.11,102.74 120.92,91.32 129.88,91.32 123.31,105.46 130.46,120.19 121.47,120.19 "
         style="fill:none;fill-rule:evenodd;stroke:#ffffff;stroke-width:4px;stroke-linecap:round;stroke-linejoin:round"
         id="polygon30" />
      <path
         d="m 142.35,98.68 q 6.41,0 9,2.49 2.59,2.49 2.64,8.6 0,6 -2.64,8.48 -2.64,2.48 -9,2.45 c -4.3,0 -7.32,-0.82 -9.08,-2.45 -1.76,-1.63 -2.64,-4.46 -2.64,-8.48 0,-4.02 0.88,-6.94 2.64,-8.6 1.76,-1.66 4.78,-2.49 9.08,-2.49 z m 0,5.95 a 2,2 0 0 0 -2,1 11.32,11.32 0 0 0 -0.48,4.18 10.67,10.67 0 0 0 0.48,4 2.05,2.05 0 0 0 2,0.94 2,2 0 0 0 2,-0.94 10.67,10.67 0 0 0 0.48,-4 11.32,11.32 0 0 0 -0.48,-4.18 2,2 0 0 0 -2,-1 z"
         style="fill:none;fill-rule:evenodd;stroke:#ffffff;stroke-width:4px;stroke-linecap:round;stroke-linejoin:round"
         id="path32"
         inkscape:connector-curvature="0" />
      <path
         d="m 178.51,99.27 v 20.92 h -8.75 v -6.94 a 18.82,18.82 0 0 1 -6.15,1 9.87,9.87 0 0 1 -5.46,-1.19 4.28,4.28 0 0 1 -1.74,-3.79 v -10 h 8.75 v 7.49 c 0,0.84 0.49,1.26 1.46,1.26 a 8.82,8.82 0 0 0 3.14,-0.59 v -8.16 z"
         style="fill:none;fill-rule:evenodd;stroke:#ffffff;stroke-width:4px;stroke-linecap:round;stroke-linejoin:round"
         id="path34"
         inkscape:connector-curvature="0" />
      <path
         d="m 196.13,111.66 h -5.23 a 2.62,2.62 0 0 0 1,1.8 4.67,4.67 0 0 0 2.45,0.5 83.67,83.67 0 0 0 8.5,-0.46 l 0.79,5.27 q -3.81,1.92 -10.25,1.93 -6.44,0.01 -9.15,-2.7 c -1.84,-1.77 -2.76,-4.49 -2.76,-8.14 q 0,-6.15 2.68,-8.69 c 1.78,-1.68 4.85,-2.53 9.21,-2.53 3.85,0 6.62,0.62 8.3,1.84 a 6.59,6.59 0 0 1 2.58,5.61 4.74,4.74 0 0 1 -1.78,4.25 q -1.83,1.28 -6.34,1.28 z m -5.4,-4.15 h 2.93 a 3.68,3.68 0 0 0 1.8,-0.27 c 0.25,-0.18 0.38,-0.62 0.38,-1.32 a 1.42,1.42 0 0 0 -0.49,-1.27 3.37,3.37 0 0 0 -1.73,-0.32 3,3 0 0 0 -2.24,0.55 4.36,4.36 0 0 0 -0.65,2.63 z"
         style="fill:none;fill-rule:evenodd;stroke:#ffffff;stroke-width:4px;stroke-linecap:round;stroke-linejoin:round"
         id="path36"
         inkscape:connector-curvature="0" />
      <polygon
         points="239.61,120.19 207.05,120.19 207.05,99.27 215.5,99.27 215.5,114.5 219.48,114.5 219.48,99.27 227.18,99.27 227.18,114.5 231.16,114.5 231.16,99.27 239.61,99.27 "
         style="fill:none;fill-rule:evenodd;stroke:#ffffff;stroke-width:4px;stroke-linecap:round;stroke-linejoin:round"
         id="polygon38" />
      <path
         d="m 251.87,105.84 h 1.64 q 6.27,0 8.6,1.51 c 1.54,1 2.32,2.92 2.32,5.77 0,2.85 -0.73,4.67 -2.2,5.73 -1.47,1.06 -3.87,1.59 -7.22,1.59 q -7.32,0 -11.3,-0.25 h -0.25 V 99.27 h 8.41 z m 0,9 h 1.64 a 2.68,2.68 0 0 0 1.73,-0.38 2.38,2.38 0 0 0 0.4,-1.67 2.47,2.47 0 0 0 -0.4,-1.72 2.68,2.68 0 0 0 -1.73,-0.38 h -1.64 z"
         style="fill:none;fill-rule:evenodd;stroke:#ffffff;stroke-width:4px;stroke-linecap:round;stroke-linejoin:round"
         id="path40"
         inkscape:connector-curvature="0" />
      <polygon
         points="116.11,108.06 110.71,120.19 101.71,120.19 108.87,105.46 102.3,91.32 111.25,91.32 116.11,102.74 120.92,91.32 129.88,91.32 123.31,105.46 130.46,120.19 121.47,120.19 "
         style="fill:#232765;fill-rule:evenodd"
         id="polygon42" />
      <path
         d="m 142.35,98.68 q 6.41,0 9,2.49 2.59,2.49 2.64,8.6 0,6 -2.64,8.48 -2.64,2.48 -9,2.45 c -4.3,0 -7.32,-0.82 -9.08,-2.45 -1.76,-1.63 -2.64,-4.46 -2.64,-8.48 0,-4.02 0.88,-6.94 2.64,-8.6 1.76,-1.66 4.78,-2.49 9.08,-2.49 z m 0,5.95 a 2,2 0 0 0 -2,1 11.32,11.32 0 0 0 -0.48,4.18 10.67,10.67 0 0 0 0.48,4 2.05,2.05 0 0 0 2,0.94 2,2 0 0 0 2,-0.94 10.67,10.67 0 0 0 0.48,-4 11.32,11.32 0 0 0 -0.48,-4.18 2,2 0 0 0 -2,-1 z"
         style="fill:#232765;fill-rule:evenodd"
         id="path44"
         inkscape:connector-curvature="0" />
      <path
         d="m 178.51,99.27 v 20.92 h -8.75 v -6.94 a 18.82,18.82 0 0 1 -6.15,1 9.87,9.87 0 0 1 -5.46,-1.19 4.28,4.28 0 0 1 -1.74,-3.79 v -10 h 8.75 v 7.49 c 0,0.84 0.49,1.26 1.46,1.26 a 8.82,8.82 0 0 0 3.14,-0.59 v -8.16 z"
         style="fill:#232765;fill-rule:evenodd"
         id="path46"
         inkscape:connector-curvature="0" />
      <path
         d="m 196.13,111.66 h -5.23 a 2.62,2.62 0 0 0 1,1.8 4.67,4.67 0 0 0 2.45,0.5 83.67,83.67 0 0 0 8.5,-0.46 l 0.79,5.27 q -3.81,1.92 -10.25,1.93 -6.44,0.01 -9.15,-2.7 c -1.84,-1.77 -2.76,-4.49 -2.76,-8.14 q 0,-6.15 2.68,-8.69 c 1.78,-1.68 4.85,-2.53 9.21,-2.53 3.85,0 6.62,0.62 8.3,1.84 a 6.59,6.59 0 0 1 2.58,5.61 4.74,4.74 0 0 1 -1.78,4.25 q -1.83,1.28 -6.34,1.28 z m -5.4,-4.15 h 2.93 a 3.68,3.68 0 0 0 1.8,-0.27 c 0.25,-0.18 0.38,-0.62 0.38,-1.32 a 1.42,1.42 0 0 0 -0.49,-1.27 3.37,3.37 0 0 0 -1.73,-0.32 3,3 0 0 0 -2.24,0.55 4.36,4.36 0 0 0 -0.65,2.63 z"
         style="fill:#232765;fill-rule:evenodd"
         id="path48"
         inkscape:connector-curvature="0" />
      <polygon
         points="239.61,120.19 207.05,120.19 207.05,99.27 215.5,99.27 215.5,114.5 219.48,114.5 219.48,99.27 227.18,99.27 227.18,114.5 231.16,114.5 231.16,99.27 239.61,99.27 "
         style="fill:#232765;fill-rule:evenodd"
         id="polygon50" />
      <path
         d="m 251.87,105.84 h 1.64 q 6.27,0 8.6,1.51 c 1.54,1 2.32,2.92 2.32,5.77 0,2.85 -0.73,4.67 -2.2,5.73 -1.47,1.06 -3.87,1.59 -7.22,1.59 q -7.32,0 -11.3,-0.25 h -0.25 V 99.27 h 8.41 z m 0,9 h 1.64 a 2.68,2.68 0 0 0 1.73,-0.38 2.38,2.38 0 0 0 0.4,-1.67 2.47,2.47 0 0 0 -0.4,-1.72 2.68,2.68 0 0 0 -1.73,-0.38 h -1.64 z"
         style="fill:#232765;fill-rule:evenodd"
         id="path52"
         inkscape:connector-curvature="0" />
      <polygon
         points="223.56,162.13 213.74,162.13 213.74,137.33 206.05,137.33 206.05,162.13 196.23,162.13 196.23,130.91 223.56,130.91 "
         style="fill:none;fill-rule:evenodd;stroke:#ffffff;stroke-width:4px;stroke-linecap:round;stroke-linejoin:round"
         id="polygon54" />
      <path
         d="m 242.11,130.27 a 21.5,21.5 0 0 1 8.62,1.38 8.75,8.75 0 0 1 4.51,4.89 c 1,2.34 1.44,5.66 1.44,10 0,4.34 -0.48,7.64 -1.44,10 a 8.75,8.75 0 0 1 -4.51,4.89 27.46,27.46 0 0 1 -17.19,0 8.7,8.7 0 0 1 -4.5,-4.89 c -1,-2.33 -1.45,-5.66 -1.45,-10 0,-4.34 0.48,-7.64 1.45,-10 a 8.7,8.7 0 0 1 4.5,-4.89 21.36,21.36 0 0 1 8.57,-1.38 z m 3.37,9.07 c -0.55,-1.19 -1.68,-1.78 -3.37,-1.78 -1.69,0 -2.81,0.59 -3.37,1.78 -0.56,1.19 -0.83,3.59 -0.83,7.18 0,3.59 0.28,6 0.83,7.17 a 3.35,3.35 0 0 0 3.37,1.79 c 1.69,0 2.82,-0.6 3.37,-1.79 0.55,-1.19 0.84,-3.58 0.84,-7.17 0,-3.59 -0.32,-5.98 -0.84,-7.18 z"
         style="fill:none;fill-rule:evenodd;stroke:#ffffff;stroke-width:4px;stroke-linecap:round;stroke-linejoin:round"
         id="path56"
         inkscape:connector-curvature="0" />
      <polygon
         points="288.04,162.13 278.22,162.13 278.22,137.33 270.53,137.33 270.53,162.13 260.71,162.13 260.71,130.91 288.04,130.91 "
         style="fill:none;fill-rule:evenodd;stroke:#ffffff;stroke-width:4px;stroke-linecap:round;stroke-linejoin:round"
         id="polygon58" />
      <path
         d="m 293.15,162.13 v -31.22 q 4.62,-0.47 13.22,-0.46 7.45,0 10.2,2.22 c 1.82,1.48 2.74,4.28 2.74,8.42 0,4.14 -0.85,6.84 -2.54,8.32 -1.69,1.48 -4.7,2.22 -9,2.22 a 40.85,40.85 0 0 1 -4.75,-0.27 v 10.77 z M 303,144.71 h 3.17 a 3.63,3.63 0 0 0 2.67,-0.73 4.4,4.4 0 0 0 0.68,-2.89 4.63,4.63 0 0 0 -0.68,-3 3.62,3.62 0 0 0 -2.67,-0.74 H 303 Z"
         style="fill:none;fill-rule:evenodd;stroke:#ffffff;stroke-width:4px;stroke-linecap:round;stroke-linejoin:round"
         id="path60"
         inkscape:connector-curvature="0" />
      <path
         d="m 336,130.27 a 21.5,21.5 0 0 1 8.62,1.38 8.75,8.75 0 0 1 4.51,4.89 c 1,2.34 1.44,5.66 1.44,10 0,4.34 -0.48,7.64 -1.44,10 a 8.75,8.75 0 0 1 -4.51,4.89 27.46,27.46 0 0 1 -17.19,0 8.7,8.7 0 0 1 -4.5,-4.89 c -1,-2.33 -1.45,-5.66 -1.45,-10 0,-4.34 0.48,-7.64 1.45,-10 a 8.7,8.7 0 0 1 4.5,-4.89 21.36,21.36 0 0 1 8.57,-1.38 z m 3.37,9.07 c -0.55,-1.19 -1.68,-1.78 -3.37,-1.78 -1.69,0 -2.81,0.59 -3.37,1.78 -0.56,1.19 -0.83,3.59 -0.83,7.18 0,3.59 0.27,6 0.83,7.17 a 3.35,3.35 0 0 0 3.37,1.79 c 1.69,0 2.82,-0.6 3.37,-1.79 0.55,-1.19 0.84,-3.58 0.84,-7.17 0,-3.59 -0.28,-5.98 -0.84,-7.18 z"
         style="fill:none;fill-rule:evenodd;stroke:#ffffff;stroke-width:4px;stroke-linecap:round;stroke-linejoin:round"
         id="path62"
         inkscape:connector-curvature="0" />
      <path
         d="m 364.37,143 h 3.13 q 7.32,0 10.13,2 c 1.87,1.36 2.81,3.89 2.81,7.61 0,3.72 -0.91,6.28 -2.72,7.71 -1.81,1.43 -4.78,2.15 -8.91,2.15 q -9.15,0 -14,-0.36 h -0.27 v -31.2 c 3.52,-0.25 7.4,-0.37 11.62,-0.37 q 5.79,0 12,0.37 l -0.72,7 h -13.07 z m 0,12.71 h 3.13 a 3.51,3.51 0 0 0 2.53,-0.65 6.66,6.66 0 0 0 0,-5.48 3.46,3.46 0 0 0 -2.53,-0.66 h -3.13 z"
         style="fill:none;fill-rule:evenodd;stroke:#ffffff;stroke-width:4px;stroke-linecap:round;stroke-linejoin:round"
         id="path64"
         inkscape:connector-curvature="0" />
      <path
         d="m 397.31,130.27 a 21.5,21.5 0 0 1 8.62,1.38 8.75,8.75 0 0 1 4.51,4.89 c 1,2.34 1.44,5.66 1.44,10 0,4.34 -0.48,7.64 -1.44,10 a 8.75,8.75 0 0 1 -4.51,4.89 27.46,27.46 0 0 1 -17.19,0 8.7,8.7 0 0 1 -4.5,-4.89 c -1,-2.33 -1.45,-5.66 -1.45,-10 0,-4.34 0.48,-7.64 1.45,-10 a 8.7,8.7 0 0 1 4.5,-4.89 21.36,21.36 0 0 1 8.57,-1.38 z m 3.38,9.07 c -0.56,-1.19 -1.69,-1.78 -3.38,-1.78 -1.69,0 -2.81,0.59 -3.37,1.78 -0.56,1.19 -0.83,3.59 -0.83,7.18 0,3.59 0.28,6 0.83,7.17 a 4.08,4.08 0 0 0 6.75,0 q 0.82,-1.78 0.83,-7.17 0.01,-5.39 -0.83,-7.18 z"
         style="fill:none;fill-rule:evenodd;stroke:#ffffff;stroke-width:4px;stroke-linecap:round;stroke-linejoin:round"
         id="path66"
         inkscape:connector-curvature="0" />
      <path
         d="m 435.41,145.79 v 0.27 c 2.42,0.22 4.14,1 5.18,2.36 a 9.58,9.58 0 0 1 1.56,5.92 c 0,3.11 -0.86,5.25 -2.6,6.41 -1.74,1.16 -4.63,1.74 -8.71,1.74 -6.6,0 -11.6,-0.12 -15,-0.36 v -31.22 q 4.61,-0.37 13.48,-0.37 6.64,0 9.21,1.7 2.57,1.7 2.55,6.45 a 8.23,8.23 0 0 1 -1.33,5.11 5.89,5.89 0 0 1 -4.37,2 z m -10,-2.71 h 3.48 a 3.13,3.13 0 0 0 2.26,-0.59 3.65,3.65 0 0 0 0.55,-2.4 3.36,3.36 0 0 0 -0.57,-2.35 3.51,3.51 0 0 0 -2.33,-0.54 h -3.39 z m 0,12.76 h 3.62 a 3.75,3.75 0 0 0 2.67,-0.68 4.35,4.35 0 0 0 0.63,-2.81 4.47,4.47 0 0 0 -0.63,-2.85 3.85,3.85 0 0 0 -2.72,-0.68 h -3.57 z"
         style="fill:none;fill-rule:evenodd;stroke:#ffffff;stroke-width:4px;stroke-linecap:round;stroke-linejoin:round"
         id="path68"
         inkscape:connector-curvature="0" />
      <path
         d="m 463.1,155.39 h -8.55 l -1.55,6.74 h -10 l 8.1,-28.69 a 3.41,3.41 0 0 1 1.22,-1.83 3.29,3.29 0 0 1 2.08,-0.7 h 8.92 a 3.31,3.31 0 0 1 2.08,0.7 3.41,3.41 0 0 1 1.22,1.83 l 8.1,28.69 h -10 l -1.59,-6.74 z m -1.58,-6.88 -1.54,-6.7 q -0.41,-2.13 -0.54,-3.57 h -1.22 c -0.18,1.41 -0.36,2.61 -0.55,3.57 l -1.53,6.7 z"
         style="fill:none;fill-rule:evenodd;stroke:#ffffff;stroke-width:4px;stroke-linecap:round;stroke-linejoin:round"
         id="path70"
         inkscape:connector-curvature="0" />
      <polygon
         points="490.75,138.24 490.75,162.13 480.93,162.13 480.93,138.24 472.2,138.24 472.2,130.91 499.48,130.91 499.48,138.24 "
         style="fill:none;fill-rule:evenodd;stroke:#ffffff;stroke-width:4px;stroke-linecap:round;stroke-linejoin:round"
         id="polygon72" />
      <path
         d="m 512.33,141.63 h 2.76 q 7.2,0 9.91,2.19 c 1.81,1.47 2.72,4.2 2.72,8.22 0,4.02 -0.84,6.68 -2.51,8.19 -1.67,1.51 -4.46,2.26 -8.35,2.26 q -9.33,0 -14.07,-0.36 h -0.27 v -31.22 h 9.81 z m 0,14.07 h 2.76 c 1.18,0 1.94,-0.25 2.29,-0.77 a 6.59,6.59 0 0 0 0.52,-3.26 6.89,6.89 0 0 0 -0.52,-3.3 c -0.35,-0.54 -1.11,-0.81 -2.29,-0.81 h -2.76 z"
         style="fill:none;fill-rule:evenodd;stroke:#ffffff;stroke-width:4px;stroke-linecap:round;stroke-linejoin:round"
         id="path74"
         inkscape:connector-curvature="0" />
      <polygon
         points="223.56,162.13 213.74,162.13 213.74,137.33 206.05,137.33 206.05,162.13 196.23,162.13 196.23,130.91 223.56,130.91 "
         style="fill:#232765;fill-rule:evenodd"
         id="polygon76" />
      <path
         d="m 242.11,130.27 a 21.5,21.5 0 0 1 8.62,1.38 8.75,8.75 0 0 1 4.51,4.89 c 1,2.34 1.44,5.66 1.44,10 0,4.34 -0.48,7.64 -1.44,10 a 8.75,8.75 0 0 1 -4.51,4.89 27.46,27.46 0 0 1 -17.19,0 8.7,8.7 0 0 1 -4.5,-4.89 c -1,-2.33 -1.45,-5.66 -1.45,-10 0,-4.34 0.48,-7.64 1.45,-10 a 8.7,8.7 0 0 1 4.5,-4.89 21.36,21.36 0 0 1 8.57,-1.38 z m 3.37,9.07 c -0.55,-1.19 -1.68,-1.78 -3.37,-1.78 -1.69,0 -2.81,0.59 -3.37,1.78 -0.56,1.19 -0.83,3.59 -0.83,7.18 0,3.59 0.28,6 0.83,7.17 a 3.35,3.35 0 0 0 3.37,1.79 c 1.69,0 2.82,-0.6 3.37,-1.79 0.55,-1.19 0.84,-3.58 0.84,-7.17 0,-3.59 -0.32,-5.98 -0.84,-7.18 z"
         style="fill:#232765;fill-rule:evenodd"
         id="path78"
         inkscape:connector-curvature="0" />
      <polygon
         points="288.04,162.13 278.22,162.13 278.22,137.33 270.53,137.33 270.53,162.13 260.71,162.13 260.71,130.91 288.04,130.91 "
         style="fill:#232765;fill-rule:evenodd"
         id="polygon80" />
      <path
         d="m 293.15,162.13 v -31.22 q 4.62,-0.47 13.22,-0.46 7.45,0 10.2,2.22 c 1.82,1.48 2.74,4.28 2.74,8.42 0,4.14 -0.85,6.84 -2.54,8.32 -1.69,1.48 -4.7,2.22 -9,2.22 a 40.85,40.85 0 0 1 -4.75,-0.27 v 10.77 z M 303,144.71 h 3.17 a 3.63,3.63 0 0 0 2.67,-0.73 4.4,4.4 0 0 0 0.68,-2.89 4.63,4.63 0 0 0 -0.68,-3 3.62,3.62 0 0 0 -2.67,-0.74 H 303 Z"
         style="fill:#232765;fill-rule:evenodd"
         id="path82"
         inkscape:connector-curvature="0" />
      <path
         d="m 336,130.27 a 21.5,21.5 0 0 1 8.62,1.38 8.75,8.75 0 0 1 4.51,4.89 c 1,2.34 1.44,5.66 1.44,10 0,4.34 -0.48,7.64 -1.44,10 a 8.75,8.75 0 0 1 -4.51,4.89 27.46,27.46 0 0 1 -17.19,0 8.7,8.7 0 0 1 -4.5,-4.89 c -1,-2.33 -1.45,-5.66 -1.45,-10 0,-4.34 0.48,-7.64 1.45,-10 a 8.7,8.7 0 0 1 4.5,-4.89 21.36,21.36 0 0 1 8.57,-1.38 z m 3.37,9.07 c -0.55,-1.19 -1.68,-1.78 -3.37,-1.78 -1.69,0 -2.81,0.59 -3.37,1.78 -0.56,1.19 -0.83,3.59 -0.83,7.18 0,3.59 0.27,6 0.83,7.17 a 3.35,3.35 0 0 0 3.37,1.79 c 1.69,0 2.82,-0.6 3.37,-1.79 0.55,-1.19 0.84,-3.58 0.84,-7.17 0,-3.59 -0.28,-5.98 -0.84,-7.18 z"
         style="fill:#232765;fill-rule:evenodd"
         id="path84"
         inkscape:connector-curvature="0" />
      <path
         d="m 364.37,143 h 3.13 q 7.32,0 10.13,2 c 1.87,1.36 2.81,3.89 2.81,7.61 0,3.72 -0.91,6.28 -2.72,7.71 -1.81,1.43 -4.78,2.15 -8.91,2.15 q -9.15,0 -14,-0.36 h -0.27 v -31.2 c 3.52,-0.25 7.4,-0.37 11.62,-0.37 q 5.79,0 12,0.37 l -0.72,7 h -13.07 z m 0,12.71 h 3.13 a 3.51,3.51 0 0 0 2.53,-0.65 6.66,6.66 0 0 0 0,-5.48 3.46,3.46 0 0 0 -2.53,-0.66 h -3.13 z"
         style="fill:#232765;fill-rule:evenodd"
         id="path86"
         inkscape:connector-curvature="0" />
      <path
         d="m 397.31,130.27 a 21.5,21.5 0 0 1 8.62,1.38 8.75,8.75 0 0 1 4.51,4.89 c 1,2.34 1.44,5.66 1.44,10 0,4.34 -0.48,7.64 -1.44,10 a 8.75,8.75 0 0 1 -4.51,4.89 27.46,27.46 0 0 1 -17.19,0 8.7,8.7 0 0 1 -4.5,-4.89 c -1,-2.33 -1.45,-5.66 -1.45,-10 0,-4.34 0.48,-7.64 1.45,-10 a 8.7,8.7 0 0 1 4.5,-4.89 21.36,21.36 0 0 1 8.57,-1.38 z m 3.38,9.07 c -0.56,-1.19 -1.69,-1.78 -3.38,-1.78 -1.69,0 -2.81,0.59 -3.37,1.78 -0.56,1.19 -0.83,3.59 -0.83,7.18 0,3.59 0.28,6 0.83,7.17 a 4.08,4.08 0 0 0 6.75,0 q 0.82,-1.78 0.83,-7.17 0.01,-5.39 -0.83,-7.18 z"
         style="fill:#232765;fill-rule:evenodd"
         id="path88"
         inkscape:connector-curvature="0" />
      <path
         d="m 435.41,145.79 v 0.27 c 2.42,0.22 4.14,1 5.18,2.36 a 9.58,9.58 0 0 1 1.56,5.92 c 0,3.11 -0.86,5.25 -2.6,6.41 -1.74,1.16 -4.63,1.74 -8.71,1.74 -6.6,0 -11.6,-0.12 -15,-0.36 v -31.22 q 4.61,-0.37 13.48,-0.37 6.64,0 9.21,1.7 2.57,1.7 2.55,6.45 a 8.23,8.23 0 0 1 -1.33,5.11 5.89,5.89 0 0 1 -4.37,2 z m -10,-2.71 h 3.48 a 3.13,3.13 0 0 0 2.26,-0.59 3.65,3.65 0 0 0 0.55,-2.4 3.36,3.36 0 0 0 -0.57,-2.35 3.51,3.51 0 0 0 -2.33,-0.54 h -3.39 z m 0,12.76 h 3.62 a 3.75,3.75 0 0 0 2.67,-0.68 4.35,4.35 0 0 0 0.63,-2.81 4.47,4.47 0 0 0 -0.63,-2.85 3.85,3.85 0 0 0 -2.72,-0.68 h -3.57 z"
         style="fill:#232765;fill-rule:evenodd"
         id="path90"
         inkscape:connector-curvature="0" />
      <path
         d="m 463.1,155.39 h -8.55 l -1.55,6.74 h -10 l 8.1,-28.69 a 3.41,3.41 0 0 1 1.22,-1.83 3.29,3.29 0 0 1 2.08,-0.7 h 8.92 a 3.31,3.31 0 0 1 2.08,0.7 3.41,3.41 0 0 1 1.22,1.83 l 8.1,28.69 h -10 l -1.59,-6.74 z m -1.58,-6.88 -1.54,-6.7 q -0.41,-2.13 -0.54,-3.57 h -1.22 c -0.18,1.41 -0.36,2.61 -0.55,3.57 l -1.53,6.7 z"
         style="fill:#232765;fill-rule:evenodd"
         id="path92"
         inkscape:connector-curvature="0" />
      <polygon
         points="490.75,138.24 490.75,162.13 480.93,162.13 480.93,138.24 472.2,138.24 472.2,130.91 499.48,130.91 499.48,138.24 "
         style="fill:#232765;fill-rule:evenodd"
         id="polygon94" />
      <path
         d="m 512.33,141.63 h 2.76 q 7.2,0 9.91,2.19 c 1.81,1.47 2.72,4.2 2.72,8.22 0,4.02 -0.84,6.68 -2.51,8.19 -1.67,1.51 -4.46,2.26 -8.35,2.26 q -9.33,0 -14.07,-0.36 h -0.27 v -31.22 h 9.81 z m 0,14.07 h 2.76 c 1.18,0 1.94,-0.25 2.29,-0.77 a 6.59,6.59 0 0 0 0.52,-3.26 6.89,6.89 0 0 0 -0.52,-3.3 c -0.35,-0.54 -1.11,-0.81 -2.29,-0.81 h -2.76 z"
         style="fill:#232765;fill-rule:evenodd"
         id="path96"
         inkscape:connector-curvature="0" />
      <path
         d="m 197.22,200 -0.7,-6.47 a 49.84,49.84 0 0 1 11,-1 q 6.21,0 8.59,1.64 2.38,1.64 2.39,6.23 a 8.24,8.24 0 0 1 -1.23,5 5.35,5.35 0 0 1 -4,1.9 v 0.26 a 6.3,6.3 0 0 1 4.76,2.28 9.53,9.53 0 0 1 1.45,5.72 q 0,4.51 -2.43,6.19 -2.43,1.68 -8.11,1.68 A 42.27,42.27 0 0 1 196,221.71 l 0.7,-6.16 a 67.85,67.85 0 0 0 10.31,1 3,3 0 0 0 2.17,-0.59 3.67,3.67 0 0 0 0.54,-2.38 3.89,3.89 0 0 0 -0.54,-2.47 3.19,3.19 0 0 0 -2.21,-0.63 l -6.65,-0.13 v -5.91 l 6.56,-0.13 a 2.51,2.51 0 0 0 1.79,-0.54 3.33,3.33 0 0 0 0.44,-2 2.85,2.85 0 0 0 -0.46,-1.92 2.52,2.52 0 0 0 -1.81,-0.48 86.47,86.47 0 0 0 -9.62,0.63 z"
         style="fill:none;fill-rule:evenodd;stroke:#ffffff;stroke-width:4px;stroke-linecap:round;stroke-linejoin:round"
         id="path98"
         inkscape:connector-curvature="0" />
      <path
         d="m 239.84,216.51 h -8.26 l -1.53,6.49 h -9.67 l 7.83,-27.71 a 3.29,3.29 0 0 1 1.18,-1.77 3.19,3.19 0 0 1 2,-0.68 H 240 a 3.19,3.19 0 0 1 2,0.68 3.23,3.23 0 0 1 1.18,1.77 L 251,223 h -9.66 l -1.53,-6.51 z m -1.53,-6.64 -1.49,-6.47 c -0.26,-1.37 -0.44,-2.52 -0.52,-3.46 h -1.18 c -0.18,1.37 -0.35,2.52 -0.53,3.46 l -1.48,6.47 z"
         style="fill:none;fill-rule:evenodd;stroke:#ffffff;stroke-width:4px;stroke-linecap:round;stroke-linejoin:round"
         id="path100"
         inkscape:connector-curvature="0" />
      <polygon
         points="279.53,223.02 270.04,223.02 270.04,199.07 262.61,199.07 262.61,223.02 253.13,223.02 253.13,192.86 279.53,192.86 "
         style="fill:none;fill-rule:evenodd;stroke:#ffffff;stroke-width:4px;stroke-linecap:round;stroke-linejoin:round"
         id="polygon102" />
      <path
         d="m 297.45,192.25 a 20.78,20.78 0 0 1 8.33,1.33 8.42,8.42 0 0 1 4.35,4.72 26.22,26.22 0 0 1 1.4,9.64 26.22,26.22 0 0 1 -1.4,9.64 8.42,8.42 0 0 1 -4.35,4.72 26.41,26.41 0 0 1 -16.61,0 8.42,8.42 0 0 1 -4.35,-4.72 26.22,26.22 0 0 1 -1.4,-9.64 26.22,26.22 0 0 1 1.4,-9.64 8.42,8.42 0 0 1 4.35,-4.72 20.64,20.64 0 0 1 8.28,-1.33 z m 3.26,8.76 a 3.94,3.94 0 0 0 -6.51,0 q -0.81,1.73 -0.81,6.93 0,5.2 0.81,6.93 a 3.93,3.93 0 0 0 6.51,0 q 0.81,-1.73 0.81,-6.93 0,-5.2 -0.81,-6.94 z"
         style="fill:none;fill-rule:evenodd;stroke:#ffffff;stroke-width:4px;stroke-linecap:round;stroke-linejoin:round"
         id="path104"
         inkscape:connector-curvature="0" />
      <path
         d="M 341.12,192.86 V 223 h -9.48 v -24 h -1.84 c -1.46,0 -2.23,0.67 -2.32,2 q -0.78,10.44 -2.1,14.77 -1.44,5 -4.54,6.6 a 12,12 0 0 1 -7.78,0.79 l -0.66,-7.34 a 13.6,13.6 0 0 0 1.9,-0.31 3.53,3.53 0 0 0 1.36,-0.72 3.39,3.39 0 0 0 1,-1.55 q 1.17,-3.49 1.83,-12.9 0.48,-7.56 8,-7.56 z"
         style="fill:none;fill-rule:evenodd;stroke:#ffffff;stroke-width:4px;stroke-linecap:round;stroke-linejoin:round"
         id="path106"
         inkscape:connector-curvature="0" />
      <polygon
         points="372.68,223.02 363.2,223.02 363.2,210.35 355.59,210.35 355.59,223.02 346.11,223.02 346.11,192.86 355.59,192.86 355.59,203.7 363.2,203.7 363.2,192.86 372.68,192.86 "
         style="fill:none;fill-rule:evenodd;stroke:#ffffff;stroke-width:4px;stroke-linecap:round;stroke-linejoin:round"
         id="polygon108" />
      <path
         d="m 404.77,223 h -9 v -13.83 a 28.78,28.78 0 0 1 0.49,-4.68 h -0.31 a 24.94,24.94 0 0 1 -1.84,4.63 L 386.72,223 h -9.05 v -30.14 h 9 v 13.38 a 33.24,33.24 0 0 1 -0.48,4.89 h 0.31 a 25.91,25.91 0 0 1 1.92,-4.63 l 7.34,-13.64 h 9 z"
         style="fill:none;fill-rule:evenodd;stroke:#ffffff;stroke-width:4px;stroke-linecap:round;stroke-linejoin:round"
         id="path110"
         inkscape:connector-curvature="0" />
      <path
         d="m 440.35,190.94 v 3.63 q 7.65,0.52 10.65,3.43 3,2.91 3.06,9.55 0,6.44 -3.06,9.21 -3.06,2.77 -10.65,3.24 v 3.63 h -9.48 V 220 q -7.61,-0.48 -10.67,-3.28 -3.06,-2.8 -3.06,-9.23 0,-6.67 3.06,-9.55 3.06,-2.88 10.67,-3.38 v -3.63 z m -9.05,22.42 v -12.15 c -1.92,0.2 -3.18,0.74 -3.78,1.6 -0.6,0.86 -0.89,2.42 -0.89,4.69 0,2.1 0.29,3.55 0.89,4.35 0.6,0.8 1.86,1.31 3.78,1.51 z m 8.62,-12.15 v 12.15 c 1.92,-0.2 3.18,-0.7 3.78,-1.51 0.6,-0.81 0.89,-2.25 0.89,-4.35 0,-2.1 -0.3,-3.8 -0.89,-4.67 -0.59,-0.87 -1.86,-1.42 -3.78,-1.62 z"
         style="fill:none;fill-rule:evenodd;stroke:#ffffff;stroke-width:4px;stroke-linecap:round;stroke-linejoin:round"
         id="path112"
         inkscape:connector-curvature="0" />
      <path
         d="m 470.21,192.25 a 20.81,20.81 0 0 1 8.33,1.33 8.49,8.49 0 0 1 4.35,4.72 q 1.39,3.39 1.39,9.64 0,6.25 -1.39,9.64 a 8.49,8.49 0 0 1 -4.35,4.72 20.79,20.79 0 0 1 -8.33,1.34 20.56,20.56 0 0 1 -8.28,-1.34 8.42,8.42 0 0 1 -4.35,-4.72 c -0.94,-2.26 -1.4,-5.47 -1.4,-9.64 0,-4.17 0.46,-7.38 1.4,-9.64 a 8.42,8.42 0 0 1 4.35,-4.72 20.58,20.58 0 0 1 8.28,-1.33 z m 3.26,8.76 a 3.95,3.95 0 0 0 -6.52,0 q -0.81,1.73 -0.81,6.93 0,5.2 0.81,6.93 a 3.94,3.94 0 0 0 6.52,0 c 0.54,-1.15 0.8,-3.46 0.8,-6.93 0,-3.47 -0.27,-5.78 -0.8,-6.94 z"
         style="fill:none;fill-rule:evenodd;stroke:#ffffff;stroke-width:4px;stroke-linecap:round;stroke-linejoin:round"
         id="path114"
         inkscape:connector-curvature="0" />
      <path
         d="m 488.13,223 v -30.14 q 4.46,-0.44 12.77,-0.44 c 4.8,0 8.09,0.72 9.85,2.15 1.76,1.43 2.65,4.13 2.65,8.13 0,4 -0.82,6.61 -2.45,8 -1.63,1.39 -4.55,2.14 -8.74,2.14 a 40.19,40.19 0 0 1 -4.59,-0.26 V 223 Z m 9.49,-16.83 h 3.06 a 3.54,3.54 0 0 0 2.58,-0.7 4.26,4.26 0 0 0 0.65,-2.79 4.51,4.51 0 0 0 -0.65,-2.87 3.49,3.49 0 0 0 -2.58,-0.72 h -3.06 z"
         style="fill:none;fill-rule:evenodd;stroke:#ffffff;stroke-width:4px;stroke-linecap:round;stroke-linejoin:round"
         id="path116"
         inkscape:connector-curvature="0" />
      <path
         d="m 541.42,192.86 h 8.35 c 2.13,0 3.23,1.09 3.32,3.28 l 1,26.88 h -8.52 l -0.92,-23.08 H 544 l -3,15.39 q -0.48,2.88 -3.59,2.88 h -4.89 a 3.26,3.26 0 0 1 -3.63,-2.88 l -3,-15.39 h -0.65 L 524.55,223 H 516 l 1.05,-26.88 q 0.13,-3.28 3.32,-3.28 h 8.18 a 3.25,3.25 0 0 1 3.58,2.93 l 2.19,12 q 0.21,1.39 0.48,4.5 h 0.39 c 0,-0.09 0.07,-0.71 0.2,-1.88 0.13,-1.17 0.24,-2 0.33,-2.62 l 2,-12 a 3.28,3.28 0 0 1 3.7,-2.91 z"
         style="fill:none;fill-rule:evenodd;stroke:#ffffff;stroke-width:4px;stroke-linecap:round;stroke-linejoin:round"
         id="path118"
         inkscape:connector-curvature="0" />
      <path
         d="m 583.6,192.86 -6.55,22 a 17.31,17.31 0 0 1 -3.06,6.47 7.81,7.81 0 0 1 -5.25,2.32 38,38 0 0 1 -9.31,-0.62 l 1,-6.47 a 35,35 0 0 0 5.1,0 c 1.09,-0.11 1.75,-0.52 2,-1.22 l 0.17,-0.7 h -1.8 a 4.24,4.24 0 0 1 -3.06,-1 6.66,6.66 0 0 1 -1.66,-3.06 l -5.42,-17.66 h 9.7 l 3.41,14.64 c 0.06,0.33 0.29,0.49 0.7,0.49 H 570 l 3.94,-15.13 z"
         style="fill:none;fill-rule:evenodd;stroke:#ffffff;stroke-width:4px;stroke-linecap:round;stroke-linejoin:round"
         id="path120"
         inkscape:connector-curvature="0" />
      <path
         d="m 197.22,200 -0.7,-6.47 a 49.84,49.84 0 0 1 11,-1 q 6.21,0 8.59,1.64 2.38,1.64 2.39,6.23 a 8.24,8.24 0 0 1 -1.23,5 5.35,5.35 0 0 1 -4,1.9 v 0.26 a 6.3,6.3 0 0 1 4.76,2.28 9.53,9.53 0 0 1 1.45,5.72 q 0,4.51 -2.43,6.19 -2.43,1.68 -8.11,1.68 A 42.27,42.27 0 0 1 196,221.71 l 0.7,-6.16 a 67.85,67.85 0 0 0 10.31,1 3,3 0 0 0 2.17,-0.59 3.67,3.67 0 0 0 0.54,-2.38 3.89,3.89 0 0 0 -0.54,-2.47 3.19,3.19 0 0 0 -2.21,-0.63 l -6.65,-0.13 v -5.91 l 6.56,-0.13 a 2.51,2.51 0 0 0 1.79,-0.54 3.33,3.33 0 0 0 0.44,-2 2.85,2.85 0 0 0 -0.46,-1.92 2.52,2.52 0 0 0 -1.81,-0.48 86.47,86.47 0 0 0 -9.62,0.63 z"
         style="fill:#b4005a;fill-rule:evenodd"
         id="path122"
         inkscape:connector-curvature="0" />
      <path
         d="m 239.84,216.51 h -8.26 l -1.53,6.49 h -9.67 l 7.83,-27.71 a 3.29,3.29 0 0 1 1.18,-1.77 3.19,3.19 0 0 1 2,-0.68 H 240 a 3.19,3.19 0 0 1 2,0.68 3.23,3.23 0 0 1 1.18,1.77 L 251,223 h -9.66 l -1.53,-6.51 z m -1.53,-6.64 -1.49,-6.47 c -0.26,-1.37 -0.44,-2.52 -0.52,-3.46 h -1.18 c -0.18,1.37 -0.35,2.52 -0.53,3.46 l -1.48,6.47 z"
         style="fill:#b4005a;fill-rule:evenodd"
         id="path124"
         inkscape:connector-curvature="0" />
      <polygon
         points="279.53,223.02 270.04,223.02 270.04,199.07 262.61,199.07 262.61,223.02 253.13,223.02 253.13,192.86 279.53,192.86 "
         style="fill:#b4005a;fill-rule:evenodd"
         id="polygon126" />
      <path
         d="m 297.45,192.25 a 20.78,20.78 0 0 1 8.33,1.33 8.42,8.42 0 0 1 4.35,4.72 26.22,26.22 0 0 1 1.4,9.64 26.22,26.22 0 0 1 -1.4,9.64 8.42,8.42 0 0 1 -4.35,4.72 26.41,26.41 0 0 1 -16.61,0 8.42,8.42 0 0 1 -4.35,-4.72 26.22,26.22 0 0 1 -1.4,-9.64 26.22,26.22 0 0 1 1.4,-9.64 8.42,8.42 0 0 1 4.35,-4.72 20.64,20.64 0 0 1 8.28,-1.33 z m 3.26,8.76 a 3.94,3.94 0 0 0 -6.51,0 q -0.81,1.73 -0.81,6.93 0,5.2 0.81,6.93 a 3.93,3.93 0 0 0 6.51,0 q 0.81,-1.73 0.81,-6.93 0,-5.2 -0.81,-6.94 z"
         style="fill:#b4005a;fill-rule:evenodd"
         id="path128"
         inkscape:connector-curvature="0" />
      <path
         d="M 341.12,192.86 V 223 h -9.48 v -24 h -1.84 c -1.46,0 -2.23,0.67 -2.32,2 q -0.78,10.44 -2.1,14.77 -1.44,5 -4.54,6.6 a 12,12 0 0 1 -7.78,0.79 l -0.66,-7.34 a 13.6,13.6 0 0 0 1.9,-0.31 3.53,3.53 0 0 0 1.36,-0.72 3.39,3.39 0 0 0 1,-1.55 q 1.17,-3.49 1.83,-12.9 0.48,-7.56 8,-7.56 z"
         style="fill:#b4005a;fill-rule:evenodd"
         id="path130"
         inkscape:connector-curvature="0" />
      <polygon
         points="372.68,223.02 363.2,223.02 363.2,210.35 355.59,210.35 355.59,223.02 346.11,223.02 346.11,192.86 355.59,192.86 355.59,203.7 363.2,203.7 363.2,192.86 372.68,192.86 "
         style="fill:#b4005a;fill-rule:evenodd"
         id="polygon132" />
      <path
         d="m 404.77,223 h -9 v -13.83 a 28.78,28.78 0 0 1 0.49,-4.68 h -0.31 a 24.94,24.94 0 0 1 -1.84,4.63 L 386.72,223 h -9.05 v -30.14 h 9 v 13.38 a 33.24,33.24 0 0 1 -0.48,4.89 h 0.31 a 25.91,25.91 0 0 1 1.92,-4.63 l 7.34,-13.64 h 9 z"
         style="fill:#b4005a;fill-rule:evenodd"
         id="path134"
         inkscape:connector-curvature="0" />
      <path
         d="m 440.35,190.94 v 3.63 q 7.65,0.52 10.65,3.43 3,2.91 3.06,9.55 0,6.44 -3.06,9.21 -3.06,2.77 -10.65,3.24 v 3.63 h -9.48 V 220 q -7.61,-0.48 -10.67,-3.28 -3.06,-2.8 -3.06,-9.23 0,-6.67 3.06,-9.55 3.06,-2.88 10.67,-3.38 v -3.63 z m -9.05,22.42 v -12.15 c -1.92,0.2 -3.18,0.74 -3.78,1.6 -0.6,0.86 -0.89,2.42 -0.89,4.69 0,2.1 0.29,3.55 0.89,4.35 0.6,0.8 1.86,1.31 3.78,1.51 z m 8.62,-12.15 v 12.15 c 1.92,-0.2 3.18,-0.7 3.78,-1.51 0.6,-0.81 0.89,-2.25 0.89,-4.35 0,-2.1 -0.3,-3.8 -0.89,-4.67 -0.59,-0.87 -1.86,-1.42 -3.78,-1.62 z"
         style="fill:#b4005a;fill-rule:evenodd"
         id="path136"
         inkscape:connector-curvature="0" />
      <path
         d="m 470.21,192.25 a 20.81,20.81 0 0 1 8.33,1.33 8.49,8.49 0 0 1 4.35,4.72 q 1.39,3.39 1.39,9.64 0,6.25 -1.39,9.64 a 8.49,8.49 0 0 1 -4.35,4.72 20.79,20.79 0 0 1 -8.33,1.34 20.56,20.56 0 0 1 -8.28,-1.34 8.42,8.42 0 0 1 -4.35,-4.72 c -0.94,-2.26 -1.4,-5.47 -1.4,-9.64 0,-4.17 0.46,-7.38 1.4,-9.64 a 8.42,8.42 0 0 1 4.35,-4.72 20.58,20.58 0 0 1 8.28,-1.33 z m 3.26,8.76 a 3.95,3.95 0 0 0 -6.52,0 q -0.81,1.73 -0.81,6.93 0,5.2 0.81,6.93 a 3.94,3.94 0 0 0 6.52,0 c 0.54,-1.15 0.8,-3.46 0.8,-6.93 0,-3.47 -0.27,-5.78 -0.8,-6.94 z"
         style="fill:#b4005a;fill-rule:evenodd"
         id="path138"
         inkscape:connector-curvature="0" />
      <path
         d="m 488.13,223 v -30.14 q 4.46,-0.44 12.77,-0.44 c 4.8,0 8.09,0.72 9.85,2.15 1.76,1.43 2.65,4.13 2.65,8.13 0,4 -0.82,6.61 -2.45,8 -1.63,1.39 -4.55,2.14 -8.74,2.14 a 40.19,40.19 0 0 1 -4.59,-0.26 V 223 Z m 9.49,-16.83 h 3.06 a 3.54,3.54 0 0 0 2.58,-0.7 4.26,4.26 0 0 0 0.65,-2.79 4.51,4.51 0 0 0 -0.65,-2.87 3.49,3.49 0 0 0 -2.58,-0.72 h -3.06 z"
         style="fill:#b4005a;fill-rule:evenodd"
         id="path140"
         inkscape:connector-curvature="0" />
      <path
         d="m 541.42,192.86 h 8.35 c 2.13,0 3.23,1.09 3.32,3.28 l 1,26.88 h -8.52 l -0.92,-23.08 H 544 l -3,15.39 q -0.48,2.88 -3.59,2.88 h -4.89 a 3.26,3.26 0 0 1 -3.63,-2.88 l -3,-15.39 h -0.65 L 524.55,223 H 516 l 1.05,-26.88 q 0.13,-3.28 3.32,-3.28 h 8.18 a 3.25,3.25 0 0 1 3.58,2.93 l 2.19,12 q 0.21,1.39 0.48,4.5 h 0.39 c 0,-0.09 0.07,-0.71 0.2,-1.88 0.13,-1.17 0.24,-2 0.33,-2.62 l 2,-12 a 3.28,3.28 0 0 1 3.7,-2.91 z"
         style="fill:#b4005a;fill-rule:evenodd"
         id="path142"
         inkscape:connector-curvature="0" />
      <path
         d="m 583.6,192.86 -6.55,22 a 17.31,17.31 0 0 1 -3.06,6.47 7.81,7.81 0 0 1 -5.25,2.32 38,38 0 0 1 -9.31,-0.62 l 1,-6.47 a 35,35 0 0 0 5.1,0 c 1.09,-0.11 1.75,-0.52 2,-1.22 l 0.17,-0.7 h -1.8 a 4.24,4.24 0 0 1 -3.06,-1 6.66,6.66 0 0 1 -1.66,-3.06 l -5.42,-17.66 h 9.7 l 3.41,14.64 c 0.06,0.33 0.29,0.49 0.7,0.49 H 570 l 3.94,-15.13 z"
         style="fill:#b4005a;fill-rule:evenodd"
         id="path144"
         inkscape:connector-curvature="0" />
      <path
         d="M 127.49,262.44 H 120 V 251 a 24.18,24.18 0 0 1 0.4,-3.88 h -0.26 a 20.35,20.35 0 0 1 -1.52,3.84 l -6.12,11.52 H 105 v -25 h 7.46 v 11.08 a 28.06,28.06 0 0 1 -0.39,4.05 h 0.25 a 22.41,22.41 0 0 1 1.59,-3.83 l 6.09,-11.3 h 7.46 z"
         style="fill:none;fill-rule:evenodd;stroke:#232765;stroke-width:4px;stroke-linecap:round;stroke-linejoin:round"
         id="path146"
         inkscape:connector-curvature="0" />
      <path
         d="m 159.79,237.45 h 6.92 a 2.47,2.47 0 0 1 2.75,2.71 l 0.87,22.28 h -7.06 l -0.76,-19.13 H 162 l -2.47,12.75 a 2.65,2.65 0 0 1 -3,2.39 h -4.05 a 2.7,2.7 0 0 1 -3,-2.39 L 147,243.31 h -0.54 l -0.62,19.13 h -7.06 l 0.87,-22.28 a 2.47,2.47 0 0 1 2.75,-2.71 h 6.78 a 2.69,2.69 0 0 1 3,2.42 l 1.81,9.93 c 0.12,0.77 0.25,2 0.4,3.73 h 0.32 c 0,-0.08 0.06,-0.6 0.16,-1.56 0.1,-0.96 0.2,-1.69 0.28,-2.17 l 1.7,-9.93 a 2.7,2.7 0 0 1 2.94,-2.42 z"
         style="fill:none;fill-rule:evenodd;stroke:#232765;stroke-width:4px;stroke-linecap:round;stroke-linejoin:round"
         id="path148"
         inkscape:connector-curvature="0" />
      <path
         d="m 181.89,246 h 2 q 5.69,0 7.84,1.76 2.15,1.76 2.15,6.57 c 0,3.16 -0.66,5.35 -2,6.55 -1.34,1.2 -3.53,1.82 -6.59,1.82 q -7.35,0 -11.12,-0.29 H 174 v -25 h 7.9 V 246 Z m 22.56,-8.58 v 25 h -7.9 v -25 z m -22.56,19.84 h 2 a 1.92,1.92 0 0 0 1.7,-0.61 5.59,5.59 0 0 0 0.4,-2.61 5.82,5.82 0 0 0 -0.4,-2.66 1.9,1.9 0 0 0 -1.7,-0.64 h -2 z"
         style="fill:none;fill-rule:evenodd;stroke:#232765;stroke-width:4px;stroke-linecap:round;stroke-linejoin:round"
         id="path150"
         inkscape:connector-curvature="0" />
      <path
         d="m 234.8,256 0.58,5.73 a 27.53,27.53 0 0 1 -8.76,1.19 c -4.16,0 -7.08,-1 -8.79,-2.9 -1.71,-1.9 -2.55,-5.27 -2.55,-10 0,-4.73 0.85,-8.1 2.55,-10 1.7,-1.9 4.63,-2.9 8.79,-2.9 a 31.19,31.19 0 0 1 8.22,1 l -0.58,5.72 q -5.07,-0.08 -7.64,-0.07 a 2.48,2.48 0 0 0 -2.47,1.25 21.21,21.21 0 0 0 0,10.1 2.46,2.46 0 0 0 2.47,1.25 c 3.59,-0.13 6.32,-0.22 8.18,-0.37 z"
         style="fill:none;fill-rule:evenodd;stroke:#232765;stroke-width:4px;stroke-linecap:round;stroke-linejoin:round"
         id="path152"
         inkscape:connector-curvature="0" />
      <path
         d="m 253.71,249.36 v 0.22 a 5.56,5.56 0 0 1 4.14,1.88 7.66,7.66 0 0 1 1.25,4.75 q 0,3.72 -2.08,5.12 -2.08,1.4 -7,1.4 -7.94,0 -12,-0.29 v -25 c 2.46,-0.2 6.06,-0.29 10.79,-0.29 q 5.33,0 7.37,1.35 2.04,1.35 2,5.17 a 6.61,6.61 0 0 1 -1.07,4.09 4.69,4.69 0 0 1 -3.49,1.59 z m -8,-2.17 h 2.79 a 2.52,2.52 0 0 0 1.81,-0.47 3,3 0 0 0 0.43,-1.92 2.75,2.75 0 0 0 -0.45,-1.89 2.86,2.86 0 0 0 -1.86,-0.43 h -2.72 z m 0,10.21 h 2.9 a 3,3 0 0 0 2.13,-0.54 3.45,3.45 0 0 0 0.51,-2.25 3.51,3.51 0 0 0 -0.51,-2.28 3.05,3.05 0 0 0 -2.17,-0.54 h -2.86 z"
         style="fill:none;fill-rule:evenodd;stroke:#232765;stroke-width:4px;stroke-linecap:round;stroke-linejoin:round"
         id="path154"
         inkscape:connector-curvature="0" />
      <path
         d="m 266.42,250.85 v -0.22 c -3.24,-0.34 -4.85,-2.32 -4.85,-5.94 q 0,-4.27 2.37,-5.94 2.37,-1.67 7.88,-1.67 6.69,0 10.28,0.37 v 25 h -7.86 v -9.13 h -1.95 a 2.13,2.13 0 0 0 -1.38,0.34 2.34,2.34 0 0 0 -0.58,1.36 l -1.56,7.43 h -8.22 l 1.89,-7.68 a 4.38,4.38 0 0 1 4,-3.91 z m 7.82,-3.08 v -5.14 H 272 a 2.94,2.94 0 0 0 -2.05,0.5 4.6,4.6 0 0 0 0,4.13 2.93,2.93 0 0 0 2.05,0.51 z"
         style="fill:none;fill-rule:evenodd;stroke:#232765;stroke-width:4px;stroke-linecap:round;stroke-linejoin:round"
         id="path156"
         inkscape:connector-curvature="0" />
      <path
         d="m 310.75,249.29 v 0.22 c 0.87,0.14 1.56,0.28 2.08,0.41 a 4.39,4.39 0 0 1 1.51,0.76 5.46,5.46 0 0 1 1.14,1.18 10.81,10.81 0 0 1 0.94,2 c 0.35,0.92 0.66,1.86 0.92,2.81 0.26,0.95 0.64,2.3 1.12,4 0.2,0.75 0.35,1.33 0.47,1.74 h -8.22 q -2.28,-7.86 -2.64,-8.7 c -0.39,-1 -0.86,-1.52 -1.41,-1.66 a 2.75,2.75 0 0 0 -0.73,-0.07 h -0.83 a 10.46,10.46 0 0 1 0.29,2.28 v 8.15 h -7.5 v -8.15 a 10.84,10.84 0 0 1 0.33,-2.28 h -0.87 a 1.72,1.72 0 0 0 -1.36,0.5 6.36,6.36 0 0 0 -1,1.9 c -0.34,0.93 -0.86,2.61 -1.56,5 -0.36,1.26 -0.65,2.26 -0.87,3 h -8.22 c 1.38,-5.05 2.28,-8.08 2.72,-9.09 a 5.56,5.56 0 0 1 2.57,-3.08 9.86,9.86 0 0 1 2.9,-0.76 v -0.22 c -0.58,-0.07 -1.08,-0.16 -1.49,-0.25 a 4.46,4.46 0 0 1 -1.16,-0.46 c -0.36,-0.2 -0.65,-0.38 -0.88,-0.52 a 2.84,2.84 0 0 1 -0.75,-0.87 c -0.26,-0.44 -0.46,-0.79 -0.59,-1.05 a 11.53,11.53 0 0 1 -0.56,-1.52 c -0.25,-0.75 -0.43,-1.37 -0.57,-1.85 -0.14,-0.48 -0.35,-1.29 -0.67,-2.43 -0.32,-1.14 -0.58,-2.1 -0.79,-2.89 h 8 c 1.28,4.58 2,7.14 2.24,7.67 0.41,1 0.93,1.63 1.56,1.78 a 3.68,3.68 0 0 0 0.51,0 h 0.9 a 13.47,13.47 0 0 1 -0.36,-3.18 v -6.3 h 7.46 v 6.3 a 15.61,15.61 0 0 1 -0.33,3.18 h 0.8 a 1.91,1.91 0 0 0 1.81,-1.14 38.79,38.79 0 0 0 1.81,-5.63 c 0.32,-1.13 0.57,-2 0.76,-2.71 h 8 c -0.22,0.79 -0.48,1.76 -0.8,2.89 -0.32,1.13 -0.53,1.95 -0.67,2.43 -0.14,0.48 -0.32,1.1 -0.56,1.85 a 13.25,13.25 0 0 1 -0.56,1.52 q -0.19,0.39 -0.6,1.05 a 2.71,2.71 0 0 1 -0.74,0.87 c -0.23,0.14 -0.52,0.32 -0.89,0.52 a 4.2,4.2 0 0 1 -1.16,0.46 c -0.43,0.18 -0.92,0.27 -1.5,0.34 z"
         style="fill:none;fill-rule:evenodd;stroke:#232765;stroke-width:4px;stroke-linecap:round;stroke-linejoin:round"
         id="path158"
         inkscape:connector-curvature="0" />
      <path
         d="m 339.47,256.57 0.36,5.54 a 119.73,119.73 0 0 1 -13,0.47 5.86,5.86 0 0 1 -4.22,-1.57 5.43,5.43 0 0 1 -1.65,-4.12 V 243 a 5.42,5.42 0 0 1 1.65,-4.11 5.87,5.87 0 0 1 4.22,-1.58 119.73,119.73 0 0 1 13,0.47 l -0.36,5.54 h -9.16 a 1.53,1.53 0 0 0 -1.09,0.37 1.22,1.22 0 0 0 -0.4,0.94 V 247 h 9.35 v 5.22 h -9.35 v 3 a 1.24,1.24 0 0 0 0.4,0.94 1.58,1.58 0 0 0 1.09,0.36 z"
         style="fill:none;fill-rule:evenodd;stroke:#232765;stroke-width:4px;stroke-linecap:round;stroke-linejoin:round"
         id="path160"
         inkscape:connector-curvature="0" />
      <path
         d="m 363.48,237.45 h 6.92 a 2.47,2.47 0 0 1 2.75,2.71 l 0.87,22.28 H 367 l -0.76,-19.13 h -0.54 l -2.47,12.75 a 2.65,2.65 0 0 1 -3,2.39 h -4.05 a 2.7,2.7 0 0 1 -3,-2.39 l -2.5,-12.75 h -0.54 l -0.62,19.13 h -7.06 l 0.87,-22.28 a 2.47,2.47 0 0 1 2.75,-2.71 h 6.77 a 2.69,2.69 0 0 1 3,2.42 l 1.82,9.93 c 0.12,0.77 0.25,2 0.39,3.73 h 0.33 c 0,-0.08 0.05,-0.6 0.16,-1.56 0.11,-0.96 0.2,-1.69 0.27,-2.17 l 1.71,-9.93 a 2.7,2.7 0 0 1 2.95,-2.42 z"
         style="fill:none;fill-rule:evenodd;stroke:#232765;stroke-width:4px;stroke-linecap:round;stroke-linejoin:round"
         id="path162"
         inkscape:connector-curvature="0" />
      <path
         d="m 396.3,256 0.58,5.73 a 27.56,27.56 0 0 1 -8.77,1.19 q -6.23,0 -8.78,-2.9 -2.55,-2.9 -2.56,-10 0,-7.14 2.56,-10 2.56,-2.86 8.78,-2.9 a 31.08,31.08 0 0 1 8.22,1 l -0.58,5.72 c -3.38,-0.05 -5.92,-0.07 -7.64,-0.07 a 2.47,2.47 0 0 0 -2.46,1.25 20.88,20.88 0 0 0 0,10.1 2.46,2.46 0 0 0 2.46,1.25 c 3.6,-0.13 6.33,-0.22 8.19,-0.37 z"
         style="fill:none;fill-rule:evenodd;stroke:#232765;stroke-width:4px;stroke-linecap:round;stroke-linejoin:round"
         id="path164"
         inkscape:connector-curvature="0" />
      <path
         d="m 403.87,250.85 v -0.22 q -4.86,-0.51 -4.86,-5.94 0,-4.27 2.37,-5.94 c 1.59,-1.11 4.21,-1.67 7.88,-1.67 q 6.71,0 10.29,0.37 v 25 h -7.86 v -9.13 h -2 a 2.1,2.1 0 0 0 -1.37,0.34 2.34,2.34 0 0 0 -0.58,1.36 l -1.56,7.43 H 398 l 1.88,-7.68 a 4.39,4.39 0 0 1 4,-3.91 z m 7.82,-3.08 v -5.14 h -2.25 a 2.89,2.89 0 0 0 -2,0.5 4.6,4.6 0 0 0 0,4.13 2.88,2.88 0 0 0 2,0.51 z"
         style="fill:none;fill-rule:evenodd;stroke:#232765;stroke-width:4px;stroke-linecap:round;stroke-linejoin:round"
         id="path166"
         inkscape:connector-curvature="0" />
      <path
         d="m 449.86,256 0.58,5.73 a 27.53,27.53 0 0 1 -8.76,1.19 c -4.16,0 -7.08,-1 -8.79,-2.9 -1.71,-1.9 -2.55,-5.27 -2.55,-10 0,-4.73 0.85,-8.1 2.55,-10 1.7,-1.9 4.63,-2.9 8.79,-2.9 a 31.19,31.19 0 0 1 8.22,1 l -0.58,5.72 q -5.07,-0.08 -7.64,-0.07 a 2.49,2.49 0 0 0 -2.47,1.25 21.21,21.21 0 0 0 0,10.1 2.47,2.47 0 0 0 2.47,1.25 c 3.59,-0.13 6.32,-0.22 8.18,-0.37 z"
         style="fill:none;fill-rule:evenodd;stroke:#232765;stroke-width:4px;stroke-linecap:round;stroke-linejoin:round"
         id="path168"
         inkscape:connector-curvature="0" />
      <polygon
         points="473.91,243.31 473.91,262.44 466.05,262.44 466.05,243.31 459.06,243.31 459.06,237.45 480.9,237.45 480.9,243.31 "
         style="fill:none;fill-rule:evenodd;stroke:#232765;stroke-width:4px;stroke-linecap:round;stroke-linejoin:round"
         id="polygon170" />
      <path
         d="m 493.87,236.94 a 17.35,17.35 0 0 1 6.9,1.1 7,7 0 0 1 3.6,3.91 28.1,28.1 0 0 1 0,16 7,7 0 0 1 -3.6,3.91 22.1,22.1 0 0 1 -13.77,0 7,7 0 0 1 -3.6,-3.91 28.1,28.1 0 0 1 0,-16 7,7 0 0 1 3.6,-3.95 17.25,17.25 0 0 1 6.87,-1.1 z m 2.7,7.26 a 3.26,3.26 0 0 0 -5.4,0 c -0.45,1 -0.67,2.87 -0.67,5.74 0,2.87 0.22,4.79 0.67,5.74 a 3.26,3.26 0 0 0 5.4,0 c 0.44,-1 0.67,-2.87 0.67,-5.74 0,-2.87 -0.24,-4.79 -0.67,-5.74 z"
         style="fill:none;fill-rule:evenodd;stroke:#232765;stroke-width:4px;stroke-linecap:round;stroke-linejoin:round"
         id="path172"
         inkscape:connector-curvature="0" />
      <path
         d="m 516.58,247.12 h 2.49 c 3.92,0 6.62,0.54 8.12,1.63 1.5,1.09 2.24,3.11 2.24,6.08 0,2.97 -0.72,5 -2.17,6.18 -1.45,1.18 -3.83,1.72 -7.14,1.72 q -7.3,0 -11.19,-0.29 h -0.21 v -25 c 2.82,-0.2 5.92,-0.29 9.3,-0.29 3.09,0 6.31,0.09 9.64,0.29 l -0.58,5.61 h -10.5 v 4.06 z m 0,10.17 h 2.49 a 2.78,2.78 0 0 0 2,-0.52 5.34,5.34 0 0 0 0,-4.38 2.78,2.78 0 0 0 -2,-0.53 h -2.49 z"
         style="fill:none;fill-rule:evenodd;stroke:#232765;stroke-width:4px;stroke-linecap:round;stroke-linejoin:round"
         id="path174"
         inkscape:connector-curvature="0" />
      <path
         d="m 542.94,236.94 a 17.35,17.35 0 0 1 6.9,1.1 7,7 0 0 1 3.61,3.91 28.33,28.33 0 0 1 0,16 7,7 0 0 1 -3.61,3.91 22.07,22.07 0 0 1 -13.76,0 7,7 0 0 1 -3.61,-3.91 28.33,28.33 0 0 1 0,-16 7,7 0 0 1 3.61,-3.91 17.23,17.23 0 0 1 6.86,-1.1 z m 2.7,7.26 a 3.26,3.26 0 0 0 -5.4,0 c -0.44,1 -0.67,2.87 -0.67,5.74 0,2.87 0.23,4.79 0.67,5.74 a 3.26,3.26 0 0 0 5.4,0 c 0.45,-1 0.67,-2.87 0.67,-5.74 0,-2.87 -0.22,-4.79 -0.67,-5.74 z"
         style="fill:none;fill-rule:evenodd;stroke:#232765;stroke-width:4px;stroke-linecap:round;stroke-linejoin:round"
         id="path176"
         inkscape:connector-curvature="0" />
      <path
         d="m 571.23,229.48 h 4.6 a 4.69,4.69 0 0 1 -1.38,4.34 7.65,7.65 0 0 1 -10.14,0 4.76,4.76 0 0 1 -1.41,-4.34 h 4.6 a 3,3 0 0 0 0.25,2.19 2,2 0 0 0 1.63,0.6 1.89,1.89 0 0 0 1.59,-0.6 3,3 0 0 0 0.26,-2.19 z m 9,33 h -7.46 V 251 a 24.18,24.18 0 0 1 0.4,-3.88 H 573 a 21.79,21.79 0 0 1 -1.52,3.84 l -6.13,11.52 h -7.49 v -25 h 7.46 v 11.08 a 26.93,26.93 0 0 1 -0.4,4.05 h 0.25 a 21.63,21.63 0 0 1 1.6,-3.83 l 6.08,-11.3 h 7.46 z"
         style="fill:none;fill-rule:evenodd;stroke:#232765;stroke-width:4px;stroke-linecap:round;stroke-linejoin:round"
         id="path178"
         inkscape:connector-curvature="0" />
      <path
         d="M 127.49,262.44 H 120 V 251 a 24.18,24.18 0 0 1 0.4,-3.88 h -0.26 a 20.35,20.35 0 0 1 -1.52,3.84 l -6.12,11.52 H 105 v -25 h 7.46 v 11.08 a 28.06,28.06 0 0 1 -0.39,4.05 h 0.25 a 22.41,22.41 0 0 1 1.59,-3.83 l 6.09,-11.3 h 7.46 z"
         style="fill:#73aad5;fill-rule:evenodd"
         id="path180"
         inkscape:connector-curvature="0" />
      <path
         d="m 159.79,237.45 h 6.92 a 2.47,2.47 0 0 1 2.75,2.71 l 0.87,22.28 h -7.06 l -0.76,-19.13 H 162 l -2.47,12.75 a 2.65,2.65 0 0 1 -3,2.39 h -4.05 a 2.7,2.7 0 0 1 -3,-2.39 L 147,243.31 h -0.54 l -0.62,19.13 h -7.06 l 0.87,-22.28 a 2.47,2.47 0 0 1 2.75,-2.71 h 6.78 a 2.69,2.69 0 0 1 3,2.42 l 1.81,9.93 c 0.12,0.77 0.25,2 0.4,3.73 h 0.32 c 0,-0.08 0.06,-0.6 0.16,-1.56 0.1,-0.96 0.2,-1.69 0.28,-2.17 l 1.7,-9.93 a 2.7,2.7 0 0 1 2.94,-2.42 z"
         style="fill:#73aad5;fill-rule:evenodd"
         id="path182"
         inkscape:connector-curvature="0" />
      <path
         d="m 181.89,246 h 2 q 5.69,0 7.84,1.76 2.15,1.76 2.15,6.57 c 0,3.16 -0.66,5.35 -2,6.55 -1.34,1.2 -3.53,1.82 -6.59,1.82 q -7.35,0 -11.12,-0.29 H 174 v -25 h 7.9 V 246 Z m 22.56,-8.58 v 25 h -7.9 v -25 z m -22.56,19.84 h 2 a 1.92,1.92 0 0 0 1.7,-0.61 5.59,5.59 0 0 0 0.4,-2.61 5.82,5.82 0 0 0 -0.4,-2.66 1.9,1.9 0 0 0 -1.7,-0.64 h -2 z"
         style="fill:#73aad5;fill-rule:evenodd"
         id="path184"
         inkscape:connector-curvature="0" />
      <path
         d="m 234.8,256 0.58,5.73 a 27.53,27.53 0 0 1 -8.76,1.19 c -4.16,0 -7.08,-1 -8.79,-2.9 -1.71,-1.9 -2.55,-5.27 -2.55,-10 0,-4.73 0.85,-8.1 2.55,-10 1.7,-1.9 4.63,-2.9 8.79,-2.9 a 31.19,31.19 0 0 1 8.22,1 l -0.58,5.72 q -5.07,-0.08 -7.64,-0.07 a 2.48,2.48 0 0 0 -2.47,1.25 21.21,21.21 0 0 0 0,10.1 2.46,2.46 0 0 0 2.47,1.25 c 3.59,-0.13 6.32,-0.22 8.18,-0.37 z"
         style="fill:#73aad5;fill-rule:evenodd"
         id="path186"
         inkscape:connector-curvature="0" />
      <path
         d="m 253.71,249.36 v 0.22 a 5.56,5.56 0 0 1 4.14,1.88 7.66,7.66 0 0 1 1.25,4.75 q 0,3.72 -2.08,5.12 -2.08,1.4 -7,1.4 -7.94,0 -12,-0.29 v -25 c 2.46,-0.2 6.06,-0.29 10.79,-0.29 q 5.33,0 7.37,1.35 2.04,1.35 2,5.17 a 6.61,6.61 0 0 1 -1.07,4.09 4.69,4.69 0 0 1 -3.49,1.59 z m -8,-2.17 h 2.79 a 2.52,2.52 0 0 0 1.81,-0.47 3,3 0 0 0 0.43,-1.92 2.75,2.75 0 0 0 -0.45,-1.89 2.86,2.86 0 0 0 -1.86,-0.43 h -2.72 z m 0,10.21 h 2.9 a 3,3 0 0 0 2.13,-0.54 3.45,3.45 0 0 0 0.51,-2.25 3.51,3.51 0 0 0 -0.51,-2.28 3.05,3.05 0 0 0 -2.17,-0.54 h -2.86 z"
         style="fill:#73aad5;fill-rule:evenodd"
         id="path188"
         inkscape:connector-curvature="0" />
      <path
         d="m 266.42,250.85 v -0.22 c -3.24,-0.34 -4.85,-2.32 -4.85,-5.94 q 0,-4.27 2.37,-5.94 2.37,-1.67 7.88,-1.67 6.69,0 10.28,0.37 v 25 h -7.86 v -9.13 h -1.95 a 2.13,2.13 0 0 0 -1.38,0.34 2.34,2.34 0 0 0 -0.58,1.36 l -1.56,7.43 h -8.22 l 1.89,-7.68 a 4.38,4.38 0 0 1 4,-3.91 z m 7.82,-3.08 v -5.14 H 272 a 2.94,2.94 0 0 0 -2.05,0.5 4.6,4.6 0 0 0 0,4.13 2.93,2.93 0 0 0 2.05,0.51 z"
         style="fill:#73aad5;fill-rule:evenodd"
         id="path190"
         inkscape:connector-curvature="0" />
      <path
         d="m 310.75,249.29 v 0.22 c 0.87,0.14 1.56,0.28 2.08,0.41 a 4.39,4.39 0 0 1 1.51,0.76 5.46,5.46 0 0 1 1.14,1.18 10.81,10.81 0 0 1 0.94,2 c 0.35,0.92 0.66,1.86 0.92,2.81 0.26,0.95 0.64,2.3 1.12,4 0.2,0.75 0.35,1.33 0.47,1.74 h -8.22 q -2.28,-7.86 -2.64,-8.7 c -0.39,-1 -0.86,-1.52 -1.41,-1.66 a 2.75,2.75 0 0 0 -0.73,-0.07 h -0.83 a 10.46,10.46 0 0 1 0.29,2.28 v 8.15 h -7.5 v -8.15 a 10.84,10.84 0 0 1 0.33,-2.28 h -0.87 a 1.72,1.72 0 0 0 -1.36,0.5 6.36,6.36 0 0 0 -1,1.9 c -0.34,0.93 -0.86,2.61 -1.56,5 -0.36,1.26 -0.65,2.26 -0.87,3 h -8.22 c 1.38,-5.05 2.28,-8.08 2.72,-9.09 a 5.56,5.56 0 0 1 2.57,-3.08 9.86,9.86 0 0 1 2.9,-0.76 v -0.22 c -0.58,-0.07 -1.08,-0.16 -1.49,-0.25 a 4.46,4.46 0 0 1 -1.16,-0.46 c -0.36,-0.2 -0.65,-0.38 -0.88,-0.52 a 2.84,2.84 0 0 1 -0.75,-0.87 c -0.26,-0.44 -0.46,-0.79 -0.59,-1.05 a 11.53,11.53 0 0 1 -0.56,-1.52 c -0.25,-0.75 -0.43,-1.37 -0.57,-1.85 -0.14,-0.48 -0.35,-1.29 -0.67,-2.43 -0.32,-1.14 -0.58,-2.1 -0.79,-2.89 h 8 c 1.28,4.58 2,7.14 2.24,7.67 0.41,1 0.93,1.63 1.56,1.78 a 3.68,3.68 0 0 0 0.51,0 h 0.9 a 13.47,13.47 0 0 1 -0.36,-3.18 v -6.3 h 7.46 v 6.3 a 15.61,15.61 0 0 1 -0.33,3.18 h 0.8 a 1.91,1.91 0 0 0 1.81,-1.14 38.79,38.79 0 0 0 1.81,-5.63 c 0.32,-1.13 0.57,-2 0.76,-2.71 h 8 c -0.22,0.79 -0.48,1.76 -0.8,2.89 -0.32,1.13 -0.53,1.95 -0.67,2.43 -0.14,0.48 -0.32,1.1 -0.56,1.85 a 13.25,13.25 0 0 1 -0.56,1.52 q -0.19,0.39 -0.6,1.05 a 2.71,2.71 0 0 1 -0.74,0.87 c -0.23,0.14 -0.52,0.32 -0.89,0.52 a 4.2,4.2 0 0 1 -1.16,0.46 c -0.43,0.18 -0.92,0.27 -1.5,0.34 z"
         style="fill:#73aad5;fill-rule:evenodd"
         id="path192"
         inkscape:connector-curvature="0" />
      <path
         d="m 339.47,256.57 0.36,5.54 a 119.73,119.73 0 0 1 -13,0.47 5.86,5.86 0 0 1 -4.22,-1.57 5.43,5.43 0 0 1 -1.65,-4.12 V 243 a 5.42,5.42 0 0 1 1.65,-4.11 5.87,5.87 0 0 1 4.22,-1.58 119.73,119.73 0 0 1 13,0.47 l -0.36,5.54 h -9.16 a 1.53,1.53 0 0 0 -1.09,0.37 1.22,1.22 0 0 0 -0.4,0.94 V 247 h 9.35 v 5.22 h -9.35 v 3 a 1.24,1.24 0 0 0 0.4,0.94 1.58,1.58 0 0 0 1.09,0.36 z"
         style="fill:#73aad5;fill-rule:evenodd"
         id="path194"
         inkscape:connector-curvature="0" />
      <path
         d="m 363.48,237.45 h 6.92 a 2.47,2.47 0 0 1 2.75,2.71 l 0.87,22.28 H 367 l -0.76,-19.13 h -0.54 l -2.47,12.75 a 2.65,2.65 0 0 1 -3,2.39 h -4.05 a 2.7,2.7 0 0 1 -3,-2.39 l -2.5,-12.75 h -0.54 l -0.62,19.13 h -7.06 l 0.87,-22.28 a 2.47,2.47 0 0 1 2.75,-2.71 h 6.77 a 2.69,2.69 0 0 1 3,2.42 l 1.82,9.93 c 0.12,0.77 0.25,2 0.39,3.73 h 0.33 c 0,-0.08 0.05,-0.6 0.16,-1.56 0.11,-0.96 0.2,-1.69 0.27,-2.17 l 1.71,-9.93 a 2.7,2.7 0 0 1 2.95,-2.42 z"
         style="fill:#73aad5;fill-rule:evenodd"
         id="path196"
         inkscape:connector-curvature="0" />
      <path
         d="m 396.3,256 0.58,5.73 a 27.56,27.56 0 0 1 -8.77,1.19 q -6.23,0 -8.78,-2.9 -2.55,-2.9 -2.56,-10 0,-7.14 2.56,-10 2.56,-2.86 8.78,-2.9 a 31.08,31.08 0 0 1 8.22,1 l -0.58,5.72 c -3.38,-0.05 -5.92,-0.07 -7.64,-0.07 a 2.47,2.47 0 0 0 -2.46,1.25 20.88,20.88 0 0 0 0,10.1 2.46,2.46 0 0 0 2.46,1.25 c 3.6,-0.13 6.33,-0.22 8.19,-0.37 z"
         style="fill:#73aad5;fill-rule:evenodd"
         id="path198"
         inkscape:connector-curvature="0" />
      <path
         d="m 403.87,250.85 v -0.22 q -4.86,-0.51 -4.86,-5.94 0,-4.27 2.37,-5.94 c 1.59,-1.11 4.21,-1.67 7.88,-1.67 q 6.71,0 10.29,0.37 v 25 h -7.86 v -9.13 h -2 a 2.1,2.1 0 0 0 -1.37,0.34 2.34,2.34 0 0 0 -0.58,1.36 l -1.56,7.43 H 398 l 1.88,-7.68 a 4.39,4.39 0 0 1 4,-3.91 z m 7.82,-3.08 v -5.14 h -2.25 a 2.89,2.89 0 0 0 -2,0.5 4.6,4.6 0 0 0 0,4.13 2.88,2.88 0 0 0 2,0.51 z"
         style="fill:#73aad5;fill-rule:evenodd"
         id="path200"
         inkscape:connector-curvature="0" />
      <path
         d="m 449.86,256 0.58,5.73 a 27.53,27.53 0 0 1 -8.76,1.19 c -4.16,0 -7.08,-1 -8.79,-2.9 -1.71,-1.9 -2.55,-5.27 -2.55,-10 0,-4.73 0.85,-8.1 2.55,-10 1.7,-1.9 4.63,-2.9 8.79,-2.9 a 31.19,31.19 0 0 1 8.22,1 l -0.58,5.72 q -5.07,-0.08 -7.64,-0.07 a 2.49,2.49 0 0 0 -2.47,1.25 21.21,21.21 0 0 0 0,10.1 2.47,2.47 0 0 0 2.47,1.25 c 3.59,-0.13 6.32,-0.22 8.18,-0.37 z"
         style="fill:#73aad5;fill-rule:evenodd"
         id="path202"
         inkscape:connector-curvature="0" />
      <polygon
         points="473.91,243.31 473.91,262.44 466.05,262.44 466.05,243.31 459.06,243.31 459.06,237.45 480.9,237.45 480.9,243.31 "
         style="fill:#73aad5;fill-rule:evenodd"
         id="polygon204" />
      <path
         d="m 493.87,236.94 a 17.35,17.35 0 0 1 6.9,1.1 7,7 0 0 1 3.6,3.91 28.1,28.1 0 0 1 0,16 7,7 0 0 1 -3.6,3.91 22.1,22.1 0 0 1 -13.77,0 7,7 0 0 1 -3.6,-3.91 28.1,28.1 0 0 1 0,-16 7,7 0 0 1 3.6,-3.95 17.25,17.25 0 0 1 6.87,-1.1 z m 2.7,7.26 a 3.26,3.26 0 0 0 -5.4,0 c -0.45,1 -0.67,2.87 -0.67,5.74 0,2.87 0.22,4.79 0.67,5.74 a 3.26,3.26 0 0 0 5.4,0 c 0.44,-1 0.67,-2.87 0.67,-5.74 0,-2.87 -0.24,-4.79 -0.67,-5.74 z"
         style="fill:#73aad5;fill-rule:evenodd"
         id="path206"
         inkscape:connector-curvature="0" />
      <path
         d="m 516.58,247.12 h 2.49 c 3.92,0 6.62,0.54 8.12,1.63 1.5,1.09 2.24,3.11 2.24,6.08 0,2.97 -0.72,5 -2.17,6.18 -1.45,1.18 -3.83,1.72 -7.14,1.72 q -7.3,0 -11.19,-0.29 h -0.21 v -25 c 2.82,-0.2 5.92,-0.29 9.3,-0.29 3.09,0 6.31,0.09 9.64,0.29 l -0.58,5.61 h -10.5 v 4.06 z m 0,10.17 h 2.49 a 2.78,2.78 0 0 0 2,-0.52 5.34,5.34 0 0 0 0,-4.38 2.78,2.78 0 0 0 -2,-0.53 h -2.49 z"
         style="fill:#73aad5;fill-rule:evenodd"
         id="path208"
         inkscape:connector-curvature="0" />
      <path
         d="m 542.94,236.94 a 17.35,17.35 0 0 1 6.9,1.1 7,7 0 0 1 3.61,3.91 28.33,28.33 0 0 1 0,16 7,7 0 0 1 -3.61,3.91 22.07,22.07 0 0 1 -13.76,0 7,7 0 0 1 -3.61,-3.91 28.33,28.33 0 0 1 0,-16 7,7 0 0 1 3.61,-3.91 17.23,17.23 0 0 1 6.86,-1.1 z m 2.7,7.26 a 3.26,3.26 0 0 0 -5.4,0 c -0.44,1 -0.67,2.87 -0.67,5.74 0,2.87 0.23,4.79 0.67,5.74 a 3.26,3.26 0 0 0 5.4,0 c 0.45,-1 0.67,-2.87 0.67,-5.74 0,-2.87 -0.22,-4.79 -0.67,-5.74 z"
         style="fill:#73aad5;fill-rule:evenodd"
         id="path210"
         inkscape:connector-curvature="0" />
      <path
         d="m 571.23,229.48 h 4.6 a 4.69,4.69 0 0 1 -1.38,4.34 7.65,7.65 0 0 1 -10.14,0 4.76,4.76 0 0 1 -1.41,-4.34 h 4.6 a 3,3 0 0 0 0.25,2.19 2,2 0 0 0 1.63,0.6 1.89,1.89 0 0 0 1.59,-0.6 3,3 0 0 0 0.26,-2.19 z m 9,33 h -7.46 V 251 a 24.18,24.18 0 0 1 0.4,-3.88 H 573 a 21.79,21.79 0 0 1 -1.52,3.84 l -6.13,11.52 h -7.49 v -25 h 7.46 v 11.08 a 26.93,26.93 0 0 1 -0.4,4.05 h 0.25 a 21.63,21.63 0 0 1 1.6,-3.83 l 6.08,-11.3 h 7.46 z"
         style="fill:#73aad5;fill-rule:evenodd"
         id="path212"
         inkscape:connector-curvature="0" />
      <path
         d="m 549.53,159.65 a 10.13,10.13 0 0 1 -3.27,-7.59 9.76,9.76 0 0 1 3.23,-7.54 11.79,11.79 0 0 1 8.3,-3 12,12 0 0 1 8.37,3 9.69,9.69 0 0 1 3.27,7.54 10.1,10.1 0 0 1 -3.27,7.59 11.61,11.61 0 0 1 -8.37,3.11 11.46,11.46 0 0 1 -8.26,-3.11 z M 551,127.44 a 43,43 0 0 1 6.54,-7.3 38.63,38.63 0 0 0 4.37,-4.63 6.6,6.6 0 0 0 1.43,-4 5.58,5.58 0 0 0 -2.49,-4.75 10.9,10.9 0 0 0 -6.49,-1.79 14.35,14.35 0 0 0 -7.39,2 14.79,14.79 0 0 0 -5.35,5.39 l -15.2,-8.15 A 28.74,28.74 0 0 1 538.23,93 c 5.08,-2.64 11.23,-4 18.44,-4 q 12.12,0 19.52,5.06 a 16.12,16.12 0 0 1 7.41,14.13 18.19,18.19 0 0 1 -1.43,7.38 20.1,20.1 0 0 1 -3.42,5.42 65.24,65.24 0 0 1 -5.15,4.93 38.25,38.25 0 0 0 -5.09,5.06 7.6,7.6 0 0 0 -1.63,4.83 h -18.16 a 14.58,14.58 0 0 1 2.28,-8.37 z"
         style="fill:#73aad5;fill-rule:evenodd"
         id="path214"
         inkscape:connector-curvature="0" />
      <path
         d="m 569.43,152.06 a 10.1,10.1 0 0 1 -3.27,7.59 11.61,11.61 0 0 1 -8.37,3.11 11.46,11.46 0 0 1 -8.26,-3.11 10.13,10.13 0 0 1 -3.27,-7.59 9.76,9.76 0 0 1 3.23,-7.54 11.79,11.79 0 0 1 8.3,-3 13.22,13.22 0 0 1 5.51,1.1 M 535.69,94.47 a 28.47,28.47 0 0 1 2.54,-1.47 33.37,33.37 0 0 1 8,-2.9 m 0,0 A 47.25,47.25 0 0 1 556.67,89 q 12.12,0 19.52,5.06 a 16.12,16.12 0 0 1 7.41,14.13 18.19,18.19 0 0 1 -1.43,7.38 20.1,20.1 0 0 1 -3.42,5.42 c -0.6,0.65 -1.27,1.34 -2,2.06 m -6.91,6.4 c -0.51,0.55 -1,1.05 -1.32,1.53 a 7.6,7.6 0 0 0 -1.63,4.83 h -18.17 a 14.58,14.58 0 0 1 2.24,-8.39 43,43 0 0 1 6.54,-7.3 m 0,0 a 38.63,38.63 0 0 0 4.37,-4.63 m 0,0 a 6.6,6.6 0 0 0 1.43,-4 m -9,-6.54 a 14.35,14.35 0 0 0 -7.39,2 14.79,14.79 0 0 0 -5.35,5.39 l -15.2,-8.15 a 28.48,28.48 0 0 1 9.31,-9.66"
         style="fill:none;fill-rule:evenodd;stroke:#232765;stroke-width:2.1566px;stroke-linecap:round;stroke-linejoin:round"
         id="path216"
         inkscape:connector-curvature="0" />
      <polygon
         points="390.57,64.28 386.96,66.4 387.48,62.25 384.35,59.47 388.46,58.67 390.14,54.84 392.16,58.51 396.32,58.92 393.46,61.97 394.36,66.06 "
         style="fill:none;fill-rule:evenodd;stroke:#203669;stroke-width:1.99979997px;stroke-linecap:round;stroke-linejoin:round"
         id="polygon218" />
      <polygon
         points="118.97,195.01 127.35,197.66 123.43,190.83 127.79,183.59 119.6,183.65 114.54,175.84 111.71,185.98 103.58,189.57 111.56,192.73 112.63,201.24 "
         style="fill:none;fill-rule:evenodd;stroke:#203669;stroke-width:2.0000999px;stroke-linecap:round;stroke-linejoin:round"
         id="polygon220" />
      <polygon
         points="514.46,89.1 519.46,89.83 516.15,86.38 519.32,80.07 513.46,82.83 508.35,79.58 509.25,84.65 504.95,87.52 509.83,88.77 511.29,93.65 "
         style="fill:none;fill-rule:evenodd;stroke:#ffffff;stroke-width:2.0000999px;stroke-linecap:round;stroke-linejoin:round"
         id="polygon222" />
      <polygon
         points="461.26,103.37 467.78,101.3 464.73,106.62 468.13,112.25 461.75,112.21 457.81,118.28 455.62,110.39 449.29,107.6 455.5,105.14 456.32,98.52 "
         style="fill:none;fill-rule:evenodd;stroke:#203669;stroke-width:1.99979997px;stroke-linecap:round;stroke-linejoin:round"
         id="polygon224" />
      <polygon
         points="164.21,134.44 166.9,133.29 165.82,135.68 167.51,137.93 164.8,138.19 163.38,140.94 162.11,137.67 159.3,136.76 161.83,135.44 161.9,132.59 "
         style="fill:none;fill-rule:evenodd;stroke:#ffffff;stroke-width:2.0000999px;stroke-linecap:round;stroke-linejoin:round"
         id="polygon226" />
      <polygon
         points="163.87,78.27 168.83,80.61 166.49,75.98 171.79,70.44 164.82,71.44 160.56,66.44 159.88,71.99 154.51,73.6 159.17,76.45 159.13,81.98 "
         style="fill:none;fill-rule:evenodd;stroke:#203669;stroke-width:2.0000999px;stroke-linecap:round;stroke-linejoin:round"
         id="polygon228" />
      <polygon
         points="600.82,223.44 604.59,225.65 604.05,221.31 607.32,218.41 603.03,217.59 601.27,213.58 599.16,217.41 594.81,217.84 597.8,221.03 596.86,225.3 "
         style="fill:none;fill-rule:evenodd;stroke:#203669;stroke-width:2.0000999px;stroke-linecap:round;stroke-linejoin:round"
         id="polygon230" />
      <polygon
         points="465.99,279.2 460.21,280.04 464.04,276.05 460.37,268.76 467.15,271.95 473.06,268.19 472.02,274.06 476.98,277.37 471.35,278.81 469.66,284.46 "
         style="fill:none;fill-rule:evenodd;stroke:#ffffff;stroke-width:2.0000999px;stroke-linecap:round;stroke-linejoin:round"
         id="polygon232" />
      <polygon
         points="578.79,287.95 568.2,284.6 573.15,293.23 567.63,302.38 577.98,302.32 584.39,312.18 587.96,299.37 598.24,294.83 588.15,290.83 586.81,280.07 "
         style="fill:none;fill-rule:evenodd;stroke:#203669;stroke-width:2.0000999px;stroke-linecap:round;stroke-linejoin:round"
         id="polygon234" />
      <polygon
         points="144.63,275.46 148.52,273.78 146.97,277.25 149.41,280.52 145.48,280.89 143.42,284.88 141.58,280.15 137.5,278.81 141.18,276.91 141.28,272.77 "
         style="fill:none;fill-rule:evenodd;stroke:#ffffff;stroke-width:1.99979997px;stroke-linecap:round;stroke-linejoin:round"
         id="polygon236" />
      <path
         d="M 162.29,164.47 H 181 l -3.13,36.74 h -12.52 z m 2.55,56 a 8.18,8.18 0 0 1 -2.63,-6.14 7.86,7.86 0 0 1 2.63,-6.11 9.7,9.7 0 0 1 6.78,-2.41 9.53,9.53 0 0 1 6.72,2.41 7.91,7.91 0 0 1 2.61,6.11 8.22,8.22 0 0 1 -2.64,6.14 9.26,9.26 0 0 1 -6.69,2.52 9.38,9.38 0 0 1 -6.78,-2.5 z"
         style="fill:#ffffff;fill-rule:evenodd"
         id="path238"
         inkscape:connector-curvature="0" />
      <path
         d="m 176.55,165.33 a 0.86,0.86 0 0 1 0,-1.72 H 181 a 0.86,0.86 0 0 1 0.86,0.86 c -0.48,7.69 -1.32,15.51 -2,23.19 a 0.86284413,0.86284413 0 0 1 -1.72,-0.14 l 1.9,-22.19 z m 0.82,31 -0.34,4 h -10.89 l -2.92,-35 h 6.61 a 0.86,0.86 0 0 0 0,-1.72 h -7.62 a 0.85,0.85 0 0 0 -0.78,0.92 l 3.06,36.71 a 0.87,0.87 0 0 0 0.86,0.82 h 12.47 a 0.86,0.86 0 0 0 0.85,-0.79 l 0.41,-4.8 a 0.86,0.86 0 1 0 -1.71,-0.14 z M 177,208.27 h -0.05 a 8.12,8.12 0 0 0 -2.37,-1.14 11.26,11.26 0 0 0 -6.45,0.15 8.18,8.18 0 0 0 -2.74,1.63 0.85,0.85 0 1 1 -1.14,-1.26 9.79,9.79 0 0 1 3.31,-2 12.84,12.84 0 0 1 7.51,-0.17 9.65,9.65 0 0 1 2.87,1.38 H 178 l 0.46,0.36 c 0.14,0.11 0.28,0.24 0.44,0.38 a 0.85,0.85 0 0 1 0.05,1.21 0.86,0.86 0 0 1 -1.21,0.05 c -0.1,-0.1 -0.23,-0.2 -0.36,-0.31 A 4.65,4.65 0 0 0 177,208.26 Z m 3.07,6.08 a 0.86,0.86 0 1 1 1.72,0 9.11,9.11 0 0 1 -0.73,3.67 9.8,9.8 0 0 1 -5.46,5.16 11.24,11.24 0 0 1 -4,0.69 11.59,11.59 0 0 1 -4.07,-0.69 9.49,9.49 0 0 1 -3.3,-2.07 l -0.26,-0.26 a 9,9 0 0 1 -2,-3 9.17,9.17 0 0 1 -0.67,-3.53 0.86,0.86 0 0 1 1.72,0 7.53,7.53 0 0 0 0.54,2.88 7.41,7.41 0 0 0 1.61,2.43 l 0.21,0.21 a 7.92,7.92 0 0 0 2.72,1.71 9.94,9.94 0 0 0 3.47,0.57 9.57,9.57 0 0 0 3.39,-0.57 7.84,7.84 0 0 0 2.7,-1.71 7.31,7.31 0 0 0 2.38,-5.52 z"
         style="fill:#b4005a;fill-rule:evenodd"
         id="path240"
         inkscape:connector-curvature="0" />
      <polygon
         points="291.41,100.8 296.86,103.15 294.69,98.29 298.11,93.72 292.61,93.21 289.73,87.62 287.14,94.24 281.44,96.11 286.59,98.77 286.73,104.56 "
         style="fill:none;fill-rule:evenodd;stroke:#ffffff;stroke-width:2.0000999px;stroke-linecap:round;stroke-linejoin:round"
         id="polygon242" />
      <polygon
         points="299.43,276.81 295.82,278.92 296.34,274.77 293.21,271.99 297.32,271.2 299,267.37 301.02,271.03 305.18,271.44 302.32,274.5 303.22,278.58 "
         style="fill:none;fill-rule:evenodd;stroke:#203669;stroke-width:1.99979997px;stroke-linecap:round;stroke-linejoin:round"
         id="polygon244" />
      <polygon
         points="231.73,284.39 238.25,282.32 235.2,287.64 238.59,293.27 232.22,293.23 228.28,299.3 226.08,291.41 219.75,288.62 225.97,286.16 226.79,279.54 "
         style="fill:none;fill-rule:evenodd;stroke:#203669;stroke-width:1.99979997px;stroke-linecap:round;stroke-linejoin:round"
         id="polygon246" />
      <polygon
         points="165.81,791.69 174.39,788.97 170.38,795.97 174.85,803.38 166.46,803.32 161.28,811.31 158.39,800.93 150.06,797.26 158.23,794.02 159.32,785.31 "
         style="fill:none;fill-rule:evenodd;stroke:#203669;stroke-width:1.99979997px;stroke-linecap:round;stroke-linejoin:round"
         id="polygon248" />
      <polygon
         points="224.01,774.78 229.46,777.13 227.28,772.27 230.71,767.7 225.2,767.19 222.32,761.6 219.74,768.23 214.03,770.09 219.18,772.75 219.32,778.54 "
         style="fill:none;fill-rule:evenodd;stroke:#ffffff;stroke-width:2.0000999px;stroke-linecap:round;stroke-linejoin:round"
         id="polygon250" />
      <polygon
         points="489.41,801.71 483.63,802.55 487.46,798.56 483.79,791.27 490.57,794.46 496.48,790.7 495.44,796.57 500.4,799.89 494.77,801.33 493.08,806.97 "
         style="fill:none;fill-rule:evenodd;stroke:#ffffff;stroke-width:2.0000999px;stroke-linecap:round;stroke-linejoin:round"
         id="polygon252" />
      <polygon
         points="462.83,773.43 470.12,776.88 466.69,770.07 474.47,761.93 464.24,763.39 457.96,756.03 456.96,764.2 449.06,766.57 455.92,770.75 455.86,778.89 "
         style="fill:none;fill-rule:evenodd;stroke:#203669;stroke-width:2.0000999px;stroke-linecap:round;stroke-linejoin:round"
         id="polygon254" />
      <polygon
         points="241.35,863.66 237.74,865.77 238.26,861.62 235.13,858.84 239.24,858.05 240.92,854.22 242.94,857.88 247.1,858.29 244.24,861.35 245.14,865.43 "
         style="fill:none;fill-rule:evenodd;stroke:#203669;stroke-width:1.99979997px;stroke-linecap:round;stroke-linejoin:round"
         id="polygon256" />
      <polygon
         points="535.43,824.11 524.17,822.47 531.63,830.24 524.49,844.44 537.69,838.23 549.2,845.55 547.17,834.12 556.84,827.66 545.87,824.85 542.58,813.86 "
         style="fill:none;fill-rule:evenodd;stroke:#203669;stroke-width:2.0000999px;stroke-linecap:round;stroke-linejoin:round"
         id="polygon258" />
      <polygon
         points="139.32,836.98 142,835.82 140.93,838.21 142.62,840.46 139.91,840.72 138.49,843.47 137.22,840.21 134.4,839.29 136.94,837.98 137.01,835.12 "
         style="fill:none;fill-rule:evenodd;stroke:#ffffff;stroke-width:2.0000999px;stroke-linecap:round;stroke-linejoin:round"
         id="polygon260" />
      <polygon
         points="550.99,775.11 547.38,777.23 547.89,773.08 544.77,770.3 548.88,769.5 550.55,765.67 552.57,769.34 556.74,769.75 553.88,772.8 554.78,776.89 "
         style="fill:none;fill-rule:evenodd;stroke:#203669;stroke-width:1.99979997px;stroke-linecap:round;stroke-linejoin:round"
         id="polygon262" />
      <path
         d="m 109.59,379.77 v 1.94 q 3.48,0.12 4.89,1.44 c 0.94,0.88 1.42,2.38 1.43,4.5 0.01,2.12 -0.49,3.55 -1.43,4.42 -0.94,0.87 -2.57,1.34 -4.89,1.42 v 1.94 h -1.76 v -1.94 c -2.32,-0.08 -4,-0.56 -4.9,-1.42 -0.9,-0.86 -1.42,-2.34 -1.42,-4.42 0,-2.08 0.47,-3.62 1.41,-4.5 0.94,-0.88 2.58,-1.36 4.91,-1.44 v -1.94 z m -1.7,12.23 v -8.82 a 5.42,5.42 0 0 0 -3.6,1.05 4.69,4.69 0 0 0 -1,3.41 4.52,4.52 0 0 0 1,3.33 5.6,5.6 0 0 0 3.6,1 z m 1.62,-8.82 V 392 a 5.6,5.6 0 0 0 3.6,-1 4.56,4.56 0 0 0 1,-3.33 4.73,4.73 0 0 0 -1,-3.41 5.42,5.42 0 0 0 -3.6,-1.07 z"
         style="fill:#232765;fill-rule:evenodd"
         id="path264"
         inkscape:connector-curvature="0" />
      <path
         d="m 125.81,390.37 h -5.68 l -1.36,4.32 H 117 l 4.44,-13.32 a 0.6,0.6 0 0 1 0.66,-0.48 h 1.84 a 0.6,0.6 0 0 1 0.66,0.48 l 4.4,13.32 h -1.82 l -1.36,-4.32 z m -0.48,-1.52 -1.74,-5.48 c -0.12,-0.35 -0.23,-0.72 -0.34,-1.12 h -0.56 l -0.34,1.12 -1.74,5.48 z"
         style="fill:#232765;fill-rule:evenodd"
         id="path266"
         inkscape:connector-curvature="0" />
      <path
         d="m 142,380.89 h 2 a 0.64,0.64 0 0 1 0.72,0.74 l 0.58,13.06 h -1.76 l -0.5,-12.34 h -0.42 l -3.08,10.18 a 0.73,0.73 0 0 1 -0.76,0.6 h -1.58 a 0.77,0.77 0 0 1 -0.8,-0.6 l -3.08,-10.18 h -0.4 l -0.48,12.34 h -1.76 l 0.54,-13.06 c 0,-0.5 0.27,-0.74 0.74,-0.74 h 2 a 0.73,0.73 0 0 1 0.74,0.6 l 2.58,8.42 c 0.08,0.24 0.18,0.59 0.31,1.07 0.13,0.48 0.2,0.73 0.21,0.79 h 0.36 c 0,-0.15 0.12,-0.44 0.23,-0.87 0.11,-0.43 0.21,-0.78 0.29,-1 l 2.58,-8.38 a 0.73,0.73 0 0 1 0.74,-0.63 z"
         style="fill:#232765;fill-rule:evenodd"
         id="path268"
         inkscape:connector-curvature="0" />
      <path
         d="m 158.81,394.69 h -1.7 v -10.06 a 10,10 0 0 1 0.1,-1.58 h -0.1 a 11.09,11.09 0 0 1 -0.72,1.5 l -6.12,10.14 h -1.8 v -13.8 h 1.7 v 10 a 14.22,14.22 0 0 1 -0.1,1.64 h 0.08 q 0.3,-0.66 0.78,-1.5 l 6.06,-10.1 h 1.82 z"
         style="fill:#232765;fill-rule:evenodd"
         id="path270"
         inkscape:connector-curvature="0" />
      <path
         d="m 171.83,380.89 v 13.8 h -1.76 v -12.36 h -2.76 a 1.34,1.34 0 0 0 -1.48,1.4 c -0.17,2 -0.3,3.31 -0.38,4 -0.08,0.69 -0.21,1.46 -0.38,2.26 a 9.4,9.4 0 0 1 -0.68,2.08 c -0.8,1.74 -2,2.62 -3.48,2.62 l -0.16,-1.36 a 3.07,3.07 0 0 0 2,-1.74 11.65,11.65 0 0 0 0.82,-2.79 c 0.17,-1 0.36,-2.83 0.56,-5.41 a 2.47,2.47 0 0 1 2.74,-2.52 z"
         style="fill:#232765;fill-rule:evenodd"
         id="path272"
         inkscape:connector-curvature="0" />
      <path
         d="M 185.65,394.69 H 184 v -10.06 a 10,10 0 0 1 0.1,-1.58 H 184 a 11.09,11.09 0 0 1 -0.72,1.5 l -6.12,10.14 h -1.8 v -13.8 H 177 v 10 a 14.22,14.22 0 0 1 -0.1,1.64 h 0.1 q 0.3,-0.66 0.78,-1.5 l 6.06,-10.1 h 1.82 z"
         style="fill:#232765;fill-rule:evenodd"
         id="path274"
         inkscape:connector-curvature="0" />
      <path
         d="m 191.41,388.53 v -0.1 c -1.73,-0.24 -2.59,-1.47 -2.56,-3.68 a 4,4 0 0 1 1,-3.11 4.93,4.93 0 0 1 3.36,-0.93 46.56,46.56 0 0 1 4.7,0.18 v 13.8 h -1.76 v -5.62 h -3 a 1.78,1.78 0 0 0 -1.82,1.46 l -1.2,4.14 h -1.88 l 1.28,-4.22 a 2.55,2.55 0 0 1 1.88,-1.94 z m 4.74,-1 v -5.32 c -0.51,0 -1.48,0 -2.92,0 a 2.9,2.9 0 0 0 -2,0.56 2.86,2.86 0 0 0 -0.6,2.06 3.06,3.06 0 0 0 0.58,2 2.54,2.54 0 0 0 2,0.67 z"
         style="fill:#232765;fill-rule:evenodd"
         id="path276"
         inkscape:connector-curvature="0" />
      <path
         d="m 201.67,385.89 h 0.56 a 0.67,0.67 0 0 1 0.49,0.14 0.63,0.63 0 0 1 0.15,0.48 v 1.1 a 0.68,0.68 0 0 1 -0.15,0.5 0.72,0.72 0 0 1 -0.49,0.14 h -0.56 a 0.72,0.72 0 0 1 -0.49,-0.14 0.68,0.68 0 0 1 -0.15,-0.5 v -1.1 a 0.63,0.63 0 0 1 0.15,-0.48 0.67,0.67 0 0 1 0.49,-0.14 z m 0,6.44 h 0.56 a 0.54,0.54 0 0 1 0.64,0.64 v 1.08 a 0.68,0.68 0 0 1 -0.15,0.5 0.72,0.72 0 0 1 -0.49,0.14 h -0.56 a 0.72,0.72 0 0 1 -0.49,-0.14 0.68,0.68 0 0 1 -0.15,-0.5 V 393 a 0.54,0.54 0 0 1 0.64,-0.64 z"
         style="fill:#232765;fill-rule:evenodd"
         id="path278"
         inkscape:connector-curvature="0" />
      <polygon
         points="106.35,534.2 106.35,546.44 104.59,546.44 104.59,534.2 100.15,534.2 100.15,532.64 110.81,532.64 110.81,534.2 "
         style="fill:#232765;fill-rule:evenodd"
         id="polygon280" />
      <path
         d="m 121.39,545 0.08,1.36 q -1.83,0.12 -5.9,0.12 a 2.82,2.82 0 0 1 -1.95,-0.65 2.28,2.28 0 0 1 -0.71,-1.75 v -9 a 2.23,2.23 0 0 1 0.72,-1.75 2.76,2.76 0 0 1 1.94,-0.65 q 4.07,0 5.9,0.12 l -0.08,1.38 h -5.54 a 1.12,1.12 0 0 0 -0.9,0.32 1.51,1.51 0 0 0 -0.28,1 v 3 h 5.94 v 1.42 h -5.94 v 3.78 a 1.59,1.59 0 0 0 0.28,1 1.16,1.16 0 0 0 0.9,0.32 z"
         style="fill:#232765;fill-rule:evenodd"
         id="path282"
         inkscape:connector-curvature="0" />
      <path
         d="m 133.77,532.64 v 13.8 H 132 v -12.36 h -2.76 a 1.34,1.34 0 0 0 -1.48,1.4 c -0.17,2 -0.3,3.31 -0.38,4 a 21.33,21.33 0 0 1 -0.38,2.26 9.4,9.4 0 0 1 -0.68,2.08 c -0.8,1.74 -2,2.62 -3.48,2.62 l -0.16,-1.36 a 3.07,3.07 0 0 0 2,-1.74 11.21,11.21 0 0 0 0.82,-2.79 c 0.18,-1 0.36,-2.83 0.56,-5.41 a 2.47,2.47 0 0 1 2.74,-2.52 z"
         style="fill:#232765;fill-rule:evenodd"
         id="path284"
         inkscape:connector-curvature="0" />
      <path
         d="m 145.61,545 0.08,1.36 q -1.83,0.12 -5.9,0.12 a 2.82,2.82 0 0 1 -1.95,-0.65 2.28,2.28 0 0 1 -0.71,-1.75 v -9 a 2.23,2.23 0 0 1 0.72,-1.75 2.76,2.76 0 0 1 1.94,-0.65 q 4.07,0 5.9,0.12 l -0.08,1.38 h -5.54 a 1.12,1.12 0 0 0 -0.9,0.32 1.51,1.51 0 0 0 -0.28,1 v 3 h 5.94 v 1.42 h -5.94 v 3.78 a 1.59,1.59 0 0 0 0.28,1 1.16,1.16 0 0 0 0.9,0.32 z"
         style="fill:#232765;fill-rule:evenodd"
         id="path286"
         inkscape:connector-curvature="0" />
      <path
         d="m 155.61,531.52 v 1.94 q 3.48,0.12 4.89,1.44 c 0.94,0.88 1.42,2.38 1.43,4.5 0.01,2.12 -0.49,3.55 -1.43,4.42 -0.94,0.87 -2.57,1.34 -4.89,1.42 v 1.94 h -1.76 v -1.94 c -2.32,-0.08 -3.95,-0.56 -4.9,-1.42 -0.95,-0.86 -1.42,-2.34 -1.42,-4.42 0,-2.08 0.47,-3.62 1.41,-4.5 0.94,-0.88 2.58,-1.36 4.91,-1.44 v -1.94 z m -1.7,12.24 v -8.82 a 5.46,5.46 0 0 0 -3.6,1 4.69,4.69 0 0 0 -1,3.41 4.52,4.52 0 0 0 1,3.33 5.65,5.65 0 0 0 3.6,1 z m 1.62,-8.82 v 8.82 a 5.6,5.6 0 0 0 3.6,-1 4.52,4.52 0 0 0 1,-3.33 4.69,4.69 0 0 0 -1,-3.41 5.42,5.42 0 0 0 -3.6,-1.08 z"
         style="fill:#232765;fill-rule:evenodd"
         id="path288"
         inkscape:connector-curvature="0" />
      <path
         d="m 165.38,534 c 0.81,-1.05 2.23,-1.57 4.25,-1.57 2.02,0 3.44,0.52 4.24,1.57 0.8,1.05 1.2,2.91 1.2,5.59 0,2.68 -0.4,4.54 -1.2,5.59 -0.8,1.05 -2.21,1.57 -4.24,1.57 -2.03,0 -3.44,-0.53 -4.25,-1.57 -0.81,-1.04 -1.21,-2.91 -1.21,-5.59 0,-2.68 0.41,-4.55 1.21,-5.59 z m 7.07,1.22 a 3.89,3.89 0 0 0 -5.64,0 12.63,12.63 0 0 0 0,8.74 3.89,3.89 0 0 0 5.64,0 12.63,12.63 0 0 0 0,-8.74 z"
         style="fill:#232765;fill-rule:evenodd"
         id="path290"
         inkscape:connector-curvature="0" />
      <polygon
         points="187.93,546.44 186.17,546.44 186.17,539.82 179.81,539.82 179.81,546.44 178.05,546.44 178.05,532.64 179.81,532.64 179.81,538.3 186.17,538.3 186.17,532.64 187.93,532.64 "
         style="fill:#232765;fill-rule:evenodd"
         id="polygon292" />
      <path
         d="m 191.69,537.64 h 0.56 a 0.67,0.67 0 0 1 0.49,0.14 0.63,0.63 0 0 1 0.15,0.48 v 1.1 a 0.68,0.68 0 0 1 -0.15,0.5 0.72,0.72 0 0 1 -0.49,0.14 h -0.56 a 0.73,0.73 0 0 1 -0.49,-0.14 0.68,0.68 0 0 1 -0.15,-0.5 v -1.1 a 0.63,0.63 0 0 1 0.15,-0.48 0.68,0.68 0 0 1 0.49,-0.14 z m 0,6.44 h 0.56 a 0.54,0.54 0 0 1 0.64,0.64 v 1.08 a 0.68,0.68 0 0 1 -0.15,0.5 0.72,0.72 0 0 1 -0.49,0.14 h -0.56 a 0.73,0.73 0 0 1 -0.49,-0.14 0.68,0.68 0 0 1 -0.15,-0.5 v -1.08 a 0.66,0.66 0 0 1 0.15,-0.5 0.68,0.68 0 0 1 0.49,-0.14 z"
         style="fill:#232765;fill-rule:evenodd"
         id="path294"
         inkscape:connector-curvature="0" />
      <rect
         x="101.71"
         y="322.92001"
         width="481.89001"
         height="42.52"
         style="fill:#ffffff;stroke:#232765;stroke-width:0.21600001px;stroke-miterlimit:22.92560005"
         id="rect296" />
      <rect
         x="101.71"
         y="399.45999"
         width="481.89001"
         height="42.52"
         style="fill:#ffffff;stroke:#232765;stroke-width:0.21600001px;stroke-miterlimit:22.92560005"
         id="rect298" />
      <rect
         x="101.71"
         y="475.98999"
         width="481.89001"
         height="42.52"
         style="fill:#ffffff;stroke:#232765;stroke-width:0.21600001px;stroke-miterlimit:22.92560005"
         id="rect300" />
      <rect
         x="101.71"
         y="552.53003"
         width="481.89001"
         height="42.52"
         style="fill:#ffffff;stroke:#232765;stroke-width:0.21600001px;stroke-miterlimit:22.92560005"
         id="rect302" />
      <rect
         x="101.71"
         y="629.07001"
         width="481.89001"
         height="42.52"
         style="fill:#ffffff;stroke:#232765;stroke-width:0.21600001px;stroke-miterlimit:22.92560005"
         id="rect304" />
      <path
         d="M 111.7,316.81 H 110 v -10.06 a 11.52,11.52 0 0 1 0.09,-1.58 H 110 a 14.17,14.17 0 0 1 -0.72,1.5 l -6.13,10.14 h -1.8 V 303 h 1.7 v 10 c 0,0.49 0,1 -0.09,1.64 H 103 c 0.2,-0.44 0.47,-0.94 0.78,-1.5 l 6.06,-10.1 h 1.82 z"
         style="fill:#232765;fill-rule:evenodd"
         id="path306"
         inkscape:connector-curvature="0" />
      <path
         d="m 126.25,303 h 2 a 0.65,0.65 0 0 1 0.72,0.74 l 0.57,13.06 h -1.75 l -0.5,-12.34 h -0.42 l -3.08,10.18 a 0.73,0.73 0 0 1 -0.76,0.6 h -1.58 a 0.75,0.75 0 0 1 -0.8,-0.6 l -3.08,-10.18 h -0.41 l -0.47,12.34 h -1.76 l 0.54,-13.06 c 0,-0.5 0.27,-0.74 0.73,-0.74 h 2 a 0.72,0.72 0 0 1 0.73,0.6 l 2.59,8.42 c 0.07,0.24 0.18,0.59 0.31,1.07 0.13,0.48 0.19,0.73 0.21,0.79 h 0.36 l 0.22,-0.87 c 0.12,-0.44 0.22,-0.78 0.29,-1 l 2.59,-8.38 a 0.72,0.72 0 0 1 0.75,-0.63 z"
         style="fill:#232765;fill-rule:evenodd"
         id="path308"
         inkscape:connector-curvature="0" />
      <path
         d="m 135,310.65 v -0.1 q -2.61,-0.36 -2.56,-3.68 a 4,4 0 0 1 1,-3.11 4.93,4.93 0 0 1 3.36,-0.93 46.69,46.69 0 0 1 4.7,0.18 v 13.8 h -1.76 v -5.62 h -3 a 1.78,1.78 0 0 0 -1.82,1.46 l -1.2,4.14 h -1.88 l 1.28,-4.22 a 2.54,2.54 0 0 1 1.88,-1.94 z m 4.74,-1 v -5.32 c -0.51,0 -1.48,0 -2.92,0 a 2.18,2.18 0 0 0 -2.64,2.62 3.06,3.06 0 0 0 0.58,2 2.51,2.51 0 0 0 2,0.67 z"
         style="fill:#232765;fill-rule:evenodd"
         id="path310"
         inkscape:connector-curvature="0" />
      <path
         d="m 145.27,308 h 0.56 a 0.68,0.68 0 0 1 0.49,0.14 0.63,0.63 0 0 1 0.15,0.48 v 1.1 a 0.68,0.68 0 0 1 -0.15,0.5 0.73,0.73 0 0 1 -0.49,0.14 h -0.56 a 0.72,0.72 0 0 1 -0.49,-0.14 0.68,0.68 0 0 1 -0.15,-0.5 v -1.1 a 0.63,0.63 0 0 1 0.15,-0.48 0.67,0.67 0 0 1 0.49,-0.14 z m 0,6.44 h 0.56 a 0.68,0.68 0 0 1 0.49,0.14 0.66,0.66 0 0 1 0.15,0.5 v 1.08 a 0.68,0.68 0 0 1 -0.15,0.5 0.73,0.73 0 0 1 -0.49,0.14 h -0.56 a 0.72,0.72 0 0 1 -0.49,-0.14 0.68,0.68 0 0 1 -0.15,-0.5 v -1.08 a 0.54,0.54 0 0 1 0.64,-0.64 z"
         style="fill:#232765;fill-rule:evenodd"
         id="path312"
         inkscape:connector-curvature="0" />
      <path
         d="m 109.74,468.42 0.09,1.36 c -1.23,0.08 -3.2,0.12 -5.93,0.12 a 2.78,2.78 0 0 1 -1.93,-0.65 2.37,2.37 0 0 1 -0.73,-1.75 v -9 a 2.34,2.34 0 0 1 0.73,-1.75 2.73,2.73 0 0 1 1.93,-0.65 c 2.73,0 4.7,0 5.93,0.12 l -0.09,1.38 h -5.54 q -1.2,0 -1.2,1.32 v 3 h 6 v 1.42 h -6 v 3.78 c 0,0.89 0.4,1.34 1.2,1.34 z"
         style="fill:#232765;fill-rule:evenodd"
         id="path314"
         inkscape:connector-curvature="0" />
      <rect
         x="112.18"
         y="464.17999"
         width="6.0999999"
         height="1.3"
         style="fill:#232765"
         id="rect316" />
      <path
         d="m 132.53,456.08 h 2 a 0.64,0.64 0 0 1 0.72,0.74 l 0.58,13.06 h -1.76 l -0.5,-12.34 h -0.42 l -3.08,10.18 a 0.73,0.73 0 0 1 -0.76,0.6 h -1.58 a 0.76,0.76 0 0 1 -0.8,-0.6 l -3.08,-10.18 h -0.4 L 123,469.88 h -1.76 l 0.54,-13.06 a 0.67,0.67 0 0 1 0.74,-0.74 h 2 a 0.72,0.72 0 0 1 0.73,0.6 l 2.59,8.42 c 0.08,0.24 0.18,0.59 0.31,1.07 0.13,0.48 0.19,0.73 0.21,0.79 h 0.36 c 0,-0.15 0.11,-0.44 0.23,-0.87 0.12,-0.43 0.21,-0.78 0.29,-1 l 2.58,-8.38 a 0.72,0.72 0 0 1 0.71,-0.63 z"
         style="fill:#232765;fill-rule:evenodd"
         id="path318"
         inkscape:connector-curvature="0" />
      <path
         d="m 146.33,465.56 h -5.68 l -1.36,4.32 h -1.82 l 4.44,-13.32 a 0.6,0.6 0 0 1 0.66,-0.48 h 1.84 a 0.6,0.6 0 0 1 0.66,0.48 l 4.44,13.32 h -1.82 z m -0.48,-1.52 -1.74,-5.48 c -0.12,-0.35 -0.24,-0.72 -0.34,-1.12 h -0.56 l -0.34,1.12 -1.74,5.44 z"
         style="fill:#232765;fill-rule:evenodd"
         id="path320"
         inkscape:connector-curvature="0" />
      <rect
         x="151.45"
         y="456.07999"
         width="1.76"
         height="13.8"
         style="fill:#232765"
         id="rect322" />
      <path
         d="m 158.39,456.08 v 11 a 1.17,1.17 0 0 0 1.34,1.32 h 5 l 0.08,1.36 c -1.16,0.09 -2.94,0.14 -5.34,0.14 -1.87,0 -2.8,-0.87 -2.8,-2.6 v -11.22 z"
         style="fill:#232765;fill-rule:evenodd"
         id="path324"
         inkscape:connector-curvature="0" />
      <path
         d="m 167.25,461.08 h 0.56 a 0.68,0.68 0 0 1 0.49,0.14 0.63,0.63 0 0 1 0.15,0.48 v 1.1 a 0.68,0.68 0 0 1 -0.15,0.5 0.73,0.73 0 0 1 -0.49,0.14 h -0.56 a 0.72,0.72 0 0 1 -0.49,-0.14 0.68,0.68 0 0 1 -0.15,-0.5 v -1.1 a 0.63,0.63 0 0 1 0.15,-0.48 0.67,0.67 0 0 1 0.49,-0.14 z m 0,6.44 h 0.56 a 0.68,0.68 0 0 1 0.49,0.14 0.66,0.66 0 0 1 0.15,0.5 v 1.08 a 0.68,0.68 0 0 1 -0.15,0.5 0.73,0.73 0 0 1 -0.49,0.14 h -0.56 a 0.72,0.72 0 0 1 -0.49,-0.14 0.68,0.68 0 0 1 -0.15,-0.5 v -1.08 a 0.54,0.54 0 0 1 0.64,-0.64 z"
         style="fill:#232765;fill-rule:evenodd"
         id="path326"
         inkscape:connector-curvature="0" />
      <path
         d="m 101.37,622.66 v -11.22 a 2.59,2.59 0 0 1 0.71,-1.87 2.42,2.42 0 0 1 1.81,-0.73 c 2.62,0 4.52,0 5.72,0.14 l -0.08,1.36 h -5.06 a 1.41,1.41 0 0 0 -1,0.33 1.54,1.54 0 0 0 -0.32,1.09 v 10.9 z"
         style="fill:#232765;fill-rule:evenodd"
         id="path328"
         inkscape:connector-curvature="0" />
      <path
         d="m 112.16,610.17 c 0.81,-1 2.23,-1.57 4.25,-1.57 2.02,0 3.44,0.52 4.24,1.57 0.8,1.05 1.2,2.91 1.2,5.59 0,2.68 -0.4,4.54 -1.2,5.59 -0.8,1.05 -2.21,1.57 -4.24,1.57 -2.03,0 -3.44,-0.52 -4.25,-1.57 -0.81,-1.05 -1.21,-2.91 -1.21,-5.59 0,-2.68 0.41,-4.54 1.21,-5.59 z m 7.07,1.22 a 3.89,3.89 0 0 0 -5.64,0 12.63,12.63 0 0 0 0,8.74 3.89,3.89 0 0 0 5.64,0 12.63,12.63 0 0 0 0,-8.74 z"
         style="fill:#232765;fill-rule:evenodd"
         id="path330"
         inkscape:connector-curvature="0" />
      <path
         d="m 124.83,622.66 v -13.8 c 1.12,-0.12 2.71,-0.18 4.76,-0.18 a 5,5 0 0 1 3.46,0.91 c 0.64,0.61 1,1.74 1,3.41 0,1.67 -0.31,2.8 -0.93,3.41 a 4.68,4.68 0 0 1 -3.31,0.91 28.25,28.25 0 0 1 -3.18,-0.18 v 5.52 z m 1.76,-6.86 h 3 a 3,3 0 0 0 2.11,-0.59 4.55,4.55 0 0 0 0,-4.43 2.91,2.91 0 0 0 -2.1,-0.58 h -3 z"
         style="fill:#232765;fill-rule:evenodd"
         id="path332"
         inkscape:connector-curvature="0" />
      <path
         d="m 137.32,610.17 c 0.81,-1 2.23,-1.57 4.25,-1.57 2.02,0 3.44,0.52 4.24,1.57 0.8,1.05 1.2,2.91 1.2,5.59 0,2.68 -0.4,4.54 -1.2,5.59 -0.8,1.05 -2.21,1.57 -4.24,1.57 -2.03,0 -3.44,-0.52 -4.25,-1.57 -0.81,-1.05 -1.21,-2.91 -1.21,-5.59 0,-2.68 0.41,-4.54 1.21,-5.59 z m 7.07,1.22 a 3.89,3.89 0 0 0 -5.64,0 12.63,12.63 0 0 0 0,8.74 3.89,3.89 0 0 0 5.64,0 12.63,12.63 0 0 0 0,-8.74 z"
         style="fill:#232765;fill-rule:evenodd"
         id="path334"
         inkscape:connector-curvature="0" />
      <path
         d="m 161.09,621.22 v 4.46 h -1.22 l -0.16,-3 h -10 l -0.18,3 h -1.22 v -4.46 h 1.34 a 26.41,26.41 0 0 0 2,-9.78 2.6,2.6 0 0 1 0.78,-1.9 2.9,2.9 0 0 1 2,-0.68 h 4.92 v 12.36 z m -3.46,0 V 610.3 h -2.84 a 1.52,1.52 0 0 0 -1.07,0.32 1.59,1.59 0 0 0 -0.37,1.08 39.3,39.3 0 0 1 -0.62,5.38 16.26,16.26 0 0 1 -1.38,4.14 z"
         style="fill:#232765;fill-rule:evenodd"
         id="path336"
         inkscape:connector-curvature="0" />
      <path
         d="m 163.75,613.86 h 0.56 a 0.72,0.72 0 0 1 0.49,0.14 0.63,0.63 0 0 1 0.15,0.48 v 1.1 a 0.66,0.66 0 0 1 -0.15,0.5 0.72,0.72 0 0 1 -0.49,0.14 h -0.56 a 0.73,0.73 0 0 1 -0.49,-0.14 0.66,0.66 0 0 1 -0.15,-0.5 v -1.1 a 0.63,0.63 0 0 1 0.15,-0.48 0.73,0.73 0 0 1 0.49,-0.14 z m 0,6.44 h 0.56 a 0.72,0.72 0 0 1 0.49,0.14 0.66,0.66 0 0 1 0.15,0.5 V 622 a 0.66,0.66 0 0 1 -0.15,0.5 0.72,0.72 0 0 1 -0.49,0.14 h -0.56 a 0.73,0.73 0 0 1 -0.49,-0.14 0.66,0.66 0 0 1 -0.15,-0.5 v -1.08 a 0.66,0.66 0 0 1 0.15,-0.5 0.73,0.73 0 0 1 0.49,-0.12 z"
         style="fill:#232765;fill-rule:evenodd"
         id="path338"
         inkscape:connector-curvature="0" />
      <rect
         x="101.71"
         y="705.28998"
         width="481.89001"
         height="42.52"
         style="fill:#ffffff;stroke:#232765;stroke-width:0.21600001px;stroke-miterlimit:22.92560005"
         id="rect340" />
      <polygon
         points="106.95,692.69 103.51,699.17 101.61,699.17 105.49,692.03 101.87,685.37 103.77,685.37 106.93,691.33 107.49,691.33 110.67,685.37 112.57,685.37 108.93,692.03 112.83,699.17 110.91,699.17 107.47,692.69 "
         style="fill:#232765;fill-rule:evenodd"
         id="polygon342" />
      <path
         d="m 115.44,686.68 c 0.81,-1 2.22,-1.57 4.25,-1.57 2.03,0 3.44,0.52 4.24,1.57 0.8,1.05 1.2,2.91 1.2,5.59 0,2.68 -0.4,4.54 -1.2,5.59 -0.8,1.05 -2.21,1.57 -4.24,1.57 -2.03,0 -3.44,-0.52 -4.25,-1.57 -0.81,-1.05 -1.21,-2.91 -1.21,-5.59 0,-2.68 0.4,-4.54 1.21,-5.59 z m 7.07,1.22 a 3.89,3.89 0 0 0 -5.64,0 12.63,12.63 0 0 0 0,8.74 3.89,3.89 0 0 0 5.64,0 12.63,12.63 0 0 0 0,-8.74 z"
         style="fill:#232765;fill-rule:evenodd"
         id="path344"
         inkscape:connector-curvature="0" />
      <path
         d="M 132.87,691.93 V 692 a 3.51,3.51 0 0 1 0.73,0.16 c 0.23,0.08 0.44,0.17 0.63,0.25 a 1.91,1.91 0 0 1 0.56,0.43 c 0.19,0.2 0.34,0.37 0.47,0.52 a 4,4 0 0 1 0.44,0.7 c 0.17,0.32 0.3,0.58 0.39,0.76 0.09,0.18 0.23,0.5 0.4,0.93 0.17,0.43 0.3,0.77 0.39,1 0.09,0.23 0.23,0.63 0.42,1.17 0.19,0.54 0.34,0.95 0.45,1.23 h -1.86 c -0.07,-0.19 -0.17,-0.46 -0.3,-0.84 l -0.53,-1.47 c -0.11,-0.31 -0.27,-0.71 -0.47,-1.21 a 7.35,7.35 0 0 0 -0.51,-1.07 q -0.21,-0.33 -0.54,-0.78 a 2.43,2.43 0 0 0 -0.65,-0.64 3.37,3.37 0 0 0 -0.74,-0.33 3,3 0 0 0 -0.92,-0.14 h -1.5 a 9.37,9.37 0 0 1 0.12,1.46 v 5 h -1.74 v -13.8 h 1.74 v 4.32 a 10.31,10.31 0 0 1 -0.12,1.58 h 1.5 a 2.49,2.49 0 0 0 1.24,-0.32 4,4 0 0 0 0.92,-0.69 5,5 0 0 0 0.8,-1.3 c 0.29,-0.62 0.51,-1.1 0.64,-1.45 0.13,-0.35 0.35,-1 0.66,-1.86 0,-0.12 0.07,-0.21 0.1,-0.28 h 1.8 a 41.46,41.46 0 0 1 -1.66,4.26 3.8,3.8 0 0 1 -2.64,2.26 z"
         style="fill:#232765;fill-rule:evenodd"
         id="path346"
         inkscape:connector-curvature="0" />
      <path
         d="M 144.87,691.93 V 692 a 3.51,3.51 0 0 1 0.73,0.16 c 0.23,0.08 0.44,0.17 0.63,0.25 a 1.91,1.91 0 0 1 0.56,0.43 c 0.19,0.2 0.34,0.37 0.47,0.52 a 4,4 0 0 1 0.44,0.7 c 0.17,0.32 0.3,0.58 0.39,0.76 0.09,0.18 0.23,0.5 0.4,0.93 0.17,0.43 0.3,0.77 0.39,1 0.09,0.23 0.23,0.63 0.42,1.17 0.19,0.54 0.34,0.95 0.45,1.23 h -1.86 c -0.07,-0.19 -0.17,-0.46 -0.3,-0.84 l -0.53,-1.47 c -0.11,-0.31 -0.27,-0.71 -0.47,-1.21 a 7.35,7.35 0 0 0 -0.51,-1.07 q -0.21,-0.33 -0.54,-0.78 a 2.43,2.43 0 0 0 -0.65,-0.64 3.37,3.37 0 0 0 -0.74,-0.33 3,3 0 0 0 -0.92,-0.14 h -1.5 a 9.37,9.37 0 0 1 0.12,1.46 v 5 h -1.74 v -13.8 h 1.74 v 4.32 a 10.31,10.31 0 0 1 -0.12,1.58 h 1.5 a 2.49,2.49 0 0 0 1.24,-0.32 4,4 0 0 0 0.92,-0.69 5,5 0 0 0 0.8,-1.3 c 0.29,-0.62 0.51,-1.1 0.64,-1.45 0.13,-0.35 0.35,-1 0.66,-1.86 0,-0.12 0.07,-0.21 0.1,-0.28 h 1.8 a 41.46,41.46 0 0 1 -1.66,4.26 3.8,3.8 0 0 1 -2.64,2.26 z"
         style="fill:#232765;fill-rule:evenodd"
         id="path348"
         inkscape:connector-curvature="0" />
      <path
         d="m 160.47,697.71 0.08,1.36 c -1.23,0.08 -3.19,0.12 -5.9,0.12 a 2.78,2.78 0 0 1 -2,-0.65 2.27,2.27 0 0 1 -0.71,-1.75 v -9 a 2.24,2.24 0 0 1 0.72,-1.75 2.81,2.81 0 0 1 1.94,-0.65 c 2.71,0 4.67,0 5.9,0.12 l -0.08,1.38 h -5.54 a 1.16,1.16 0 0 0 -0.9,0.32 1.47,1.47 0 0 0 -0.28,1 v 3 h 5.94 v 1.42 h -5.94 v 3.78 a 1.5,1.5 0 0 0 0.28,1 1.16,1.16 0 0 0 0.9,0.32 z"
         style="fill:#232765;fill-rule:evenodd"
         id="path350"
         inkscape:connector-curvature="0" />
      <path
         d="m 170.21,681.51 h 1.3 a 2.38,2.38 0 0 1 -0.74,2 3.12,3.12 0 0 1 -2.24,0.78 3.18,3.18 0 0 1 -2.27,-0.78 2.39,2.39 0 0 1 -0.75,-2 h 1.3 a 1.85,1.85 0 0 0 0.45,1.33 1.68,1.68 0 0 0 1.27,0.47 1.62,1.62 0 0 0 1.25,-0.47 1.88,1.88 0 0 0 0.43,-1.33 z m 3.44,17.66 H 172 v -10.06 a 10.14,10.14 0 0 1 0.1,-1.58 H 172 a 10.06,10.06 0 0 1 -0.72,1.5 l -6.12,10.14 h -1.8 v -13.8 H 165 v 10 a 14.09,14.09 0 0 1 -0.1,1.64 h 0.1 q 0.3,-0.66 0.78,-1.5 l 6.06,-10.1 h 1.82 z"
         style="fill:#232765;fill-rule:evenodd"
         id="path352"
         inkscape:connector-curvature="0" />
      <polygon
         points="187.01,699.17 185.25,699.17 185.25,692.55 178.89,692.55 178.89,699.17 177.13,699.17 177.13,685.37 178.89,685.37 178.89,691.03 185.25,691.03 185.25,685.37 187.01,685.37 "
         style="fill:#232765;fill-rule:evenodd"
         id="polygon354" />
      <path
         d="m 197.81,694.85 h -5.68 l -1.36,4.32 H 189 l 4.44,-13.32 a 0.6,0.6 0 0 1 0.66,-0.48 h 1.84 a 0.6,0.6 0 0 1 0.66,0.48 l 4.4,13.32 h -1.82 l -1.36,-4.32 z m -0.48,-1.52 -1.74,-5.48 c -0.12,-0.35 -0.23,-0.72 -0.34,-1.12 h -0.56 l -0.34,1.12 -1.74,5.48 z"
         style="fill:#232765;fill-rule:evenodd"
         id="path356"
         inkscape:connector-curvature="0" />
      <path
         d="m 205.21,693 v -0.1 c -1.73,-0.24 -2.59,-1.47 -2.56,-3.68 a 4.05,4.05 0 0 1 1,-3.11 4.93,4.93 0 0 1 3.36,-0.93 46.56,46.56 0 0 1 4.7,0.18 v 13.8 H 210 v -5.62 h -3 a 1.79,1.79 0 0 0 -1.82,1.46 l -1.2,4.14 h -1.88 l 1.28,-4.22 a 2.58,2.58 0 0 1 1.88,-1.94 z m 4.74,-1 v -5.32 h -2.92 a 3,3 0 0 0 -2,0.56 2.86,2.86 0 0 0 -0.6,2.06 3.06,3.06 0 0 0 0.58,2 2.5,2.5 0 0 0 2,0.67 z"
         style="fill:#232765;fill-rule:evenodd"
         id="path358"
         inkscape:connector-curvature="0" />
      <polygon
         points="234.75,699.17 219.65,699.17 219.65,685.37 221.37,685.37 221.37,697.73 226.35,697.73 226.35,685.37 228.05,685.37 228.05,697.73 233.03,697.73 233.03,685.37 234.75,685.37 "
         style="fill:#232765;fill-rule:evenodd"
         id="polygon360" />
      <path
         d="M 243,691.93 V 692 a 3.51,3.51 0 0 1 0.73,0.16 c 0.23,0.08 0.44,0.17 0.63,0.25 a 1.91,1.91 0 0 1 0.56,0.43 c 0.19,0.2 0.34,0.37 0.47,0.52 a 4,4 0 0 1 0.44,0.7 c 0.17,0.32 0.3,0.58 0.39,0.76 0.09,0.18 0.23,0.5 0.4,0.93 0.17,0.43 0.3,0.77 0.39,1 0.09,0.23 0.23,0.63 0.42,1.17 0.19,0.54 0.34,0.95 0.45,1.23 H 246 c -0.07,-0.19 -0.17,-0.46 -0.3,-0.84 l -0.53,-1.47 c -0.11,-0.31 -0.27,-0.71 -0.47,-1.21 a 7.35,7.35 0 0 0 -0.51,-1.07 q -0.21,-0.33 -0.54,-0.78 a 2.43,2.43 0 0 0 -0.65,-0.64 3.37,3.37 0 0 0 -0.74,-0.33 3,3 0 0 0 -0.92,-0.14 h -1.5 a 9.37,9.37 0 0 1 0.12,1.46 v 5 h -1.74 v -13.8 H 240 v 4.32 a 10.31,10.31 0 0 1 -0.12,1.58 h 1.5 a 2.49,2.49 0 0 0 1.24,-0.32 4,4 0 0 0 0.92,-0.69 5,5 0 0 0 0.8,-1.3 c 0.29,-0.62 0.51,-1.1 0.64,-1.45 0.13,-0.35 0.35,-1 0.66,-1.86 0,-0.12 0.07,-0.21 0.1,-0.28 h 1.8 a 41.46,41.46 0 0 1 -1.66,4.26 3.8,3.8 0 0 1 -2.64,2.26 z"
         style="fill:#232765;fill-rule:evenodd"
         id="path362"
         inkscape:connector-curvature="0" />
      <path
         d="m 250.74,686.68 c 0.81,-1 2.22,-1.57 4.25,-1.57 2.03,0 3.44,0.52 4.24,1.57 0.8,1.05 1.2,2.91 1.2,5.59 0,2.68 -0.4,4.54 -1.2,5.59 -0.8,1.05 -2.21,1.57 -4.24,1.57 -2.03,0 -3.44,-0.52 -4.25,-1.57 -0.81,-1.05 -1.21,-2.91 -1.21,-5.59 0,-2.68 0.4,-4.54 1.21,-5.59 z m 7.07,1.22 a 3.89,3.89 0 0 0 -5.64,0 12.63,12.63 0 0 0 0,8.74 3.89,3.89 0 0 0 5.64,0 12.63,12.63 0 0 0 0,-8.74 z"
         style="fill:#232765;fill-rule:evenodd"
         id="path364"
         inkscape:connector-curvature="0" />
      <path
         d="m 272.77,685.37 v 13.8 H 271 v -12.36 h -2.76 a 1.34,1.34 0 0 0 -1.48,1.4 c -0.17,2 -0.3,3.31 -0.38,4 -0.08,0.69 -0.21,1.46 -0.38,2.26 a 9.23,9.23 0 0 1 -0.68,2.08 q -1.2,2.63 -3.48,2.62 l -0.16,-1.36 a 3.07,3.07 0 0 0 2,-1.74 11.65,11.65 0 0 0 0.82,-2.79 c 0.17,-1 0.36,-2.82 0.56,-5.41 a 2.47,2.47 0 0 1 2.74,-2.52 z"
         style="fill:#232765;fill-rule:evenodd"
         id="path366"
         inkscape:connector-curvature="0" />
      <path
         d="m 283.57,694.85 h -5.68 l -1.36,4.32 h -1.82 l 4.44,-13.32 a 0.6,0.6 0 0 1 0.66,-0.48 h 1.84 a 0.6,0.6 0 0 1 0.66,0.48 l 4.44,13.32 h -1.82 z m -0.48,-1.52 -1.74,-5.48 c -0.12,-0.35 -0.23,-0.72 -0.34,-1.12 h -0.56 l -0.34,1.12 -1.74,5.48 z"
         style="fill:#232765;fill-rule:evenodd"
         id="path368"
         inkscape:connector-curvature="0" />
      <path
         d="m 289,690.37 h 0.56 a 0.72,0.72 0 0 1 0.49,0.14 0.64,0.64 0 0 1 0.15,0.48 v 1.1 a 0.66,0.66 0 0 1 -0.15,0.5 0.72,0.72 0 0 1 -0.49,0.14 H 289 a 0.72,0.72 0 0 1 -0.49,-0.14 0.66,0.66 0 0 1 -0.15,-0.5 V 691 a 0.64,0.64 0 0 1 0.15,-0.48 0.72,0.72 0 0 1 0.49,-0.14 z m 0,6.44 h 0.56 a 0.72,0.72 0 0 1 0.49,0.14 0.68,0.68 0 0 1 0.15,0.5 v 1.08 a 0.66,0.66 0 0 1 -0.15,0.5 0.72,0.72 0 0 1 -0.49,0.14 H 289 a 0.72,0.72 0 0 1 -0.49,-0.14 0.66,0.66 0 0 1 -0.15,-0.5 v -1.08 a 0.68,0.68 0 0 1 0.15,-0.5 0.72,0.72 0 0 1 0.49,-0.14 z"
         style="fill:#232765;fill-rule:evenodd"
         id="path370"
         inkscape:connector-curvature="0" />
    </g>
  </g>
</svg>
