<?xml version="1.0" standalone="no"?>
<!DOCTYPE svg PUBLIC "-//W3C//DTD SVG 1.1//EN" "http://www.w3.org/Graphics/SVG/1.1/DTD/svg11.dtd" >
<svg xmlns="http://www.w3.org/2000/svg" xmlns:xlink="http://www.w3.org/1999/xlink" version="1.1">
<metadata>
Created by FontForge 20170731 at Wed Jul 10 16:19:55 2019
 By Aleksey,,,
Copyright 2013 The Exo 2 Project Authors (https://github.com/NDISCOVER/Exo-2.0)
</metadata>
<defs>
<font id="Exo2-SemiBold" horiz-adv-x="568" >
  <font-face 
    font-family="Exo 2 SemiBold"
    font-weight="600"
    font-stretch="normal"
    units-per-em="1000"
    panose-1="0 0 7 0 0 0 0 0 0 0"
    ascent="800"
    descent="-200"
    x-height="490"
    cap-height="690"
    bbox="-436 -285 1241 1080"
    underline-thickness="50"
    underline-position="-150"
    unicode-range="U+000D-FB02"
  />
<missing-glyph horiz-adv-x="605" 
d="M517 0h-430v690h430v-690zM476 649h-348v-608h348v608z" />
    <glyph glyph-name="fi" unicode="fi" horiz-adv-x="641" 
d="M569 0h-121v402h-215v-402h-122v402h-87v83l87 5v68q0 79 36 120t117 41q75 0 124 -9v-86h-81q-42 0 -58 -18t-16 -63v-53h336v-490zM571 669v-54q0 -35 -35 -35h-56q-35 0 -35 35v54q0 35 35 35h56q35 0 35 -35z" />
    <glyph glyph-name="fl" unicode="fl" horiz-adv-x="699" 
d="M692 6q-16 -8 -48.5 -12.5t-55.5 -4.5q-61 0 -96 32.5t-35 89.5v514h-152q-41 1 -57 -17.5t-16 -64.5v-53h132v-88h-132v-402h-122v402h-87v83l87 5v68q0 78 35 119.5t114 41.5q230 0 320 -16v-563q0 -56 57 -56h42z" />
    <glyph glyph-name="f_f" unicode="ff" horiz-adv-x="740" 
d="M593.5 608.5q-16.5 -15.5 -16.5 -53.5v-65h144v-88h-144v-402h-121v402h-224v-402h-121v402h-87v83l87 5v71q0 70 38 109t114 39q84 0 130 -9l-11 -86h-76q-42 0 -58 -14t-16 -55v-55h224v81q0 72 36 110t117 38q33 0 77 -2t72 -7l-11 -86h-96q-41 0 -57.5 -15.5z" />
    <glyph glyph-name="f_f_i" unicode="ffi" horiz-adv-x="976" 
d="M905 0h-121v402h-216v-402h-120v402h-225v-402h-121v402h-78v83l78 4v72q1 70 39 109t114 39q30 0 68 -2t61 -7l-10 -86h-77q-42 0 -58 -14t-16 -55v-55h225v68q0 79 35.5 120t116.5 41q75 0 123 -9v-86h-80q-42 0 -58.5 -18t-16.5 -63v-53h337v-490zM898 695q9 -9 9 -26
v-54q0 -35 -35 -35h-56q-35 0 -35 35v54q0 35 35 35h56q17 0 26 -9z" />
    <glyph glyph-name="f_f_l" unicode="ffl" horiz-adv-x="1046" 
d="M1038 6q-15 -8 -47.5 -12.5t-56.5 -4.5q-61 0 -96 32.5t-35 89.5v514h-152q-41 1 -57.5 -17.5t-16.5 -64.5v-53h133v-88h-133v-402h-121v402h-224v-402h-121v402h-87v83l87 5v71q0 70 38 109t114 39q84 0 130 -9l-11 -86h-76q-42 0 -58 -14t-16 -55v-55h224v68
q0 78 35 119.5t115 41.5q230 0 319 -16v-563q0 -56 58 -56h41z" />
    <glyph glyph-name=".notdef" horiz-adv-x="605" 
d="M517 0h-430v690h430v-690zM476 649h-348v-608h348v608z" />
    <glyph glyph-name=".null" horiz-adv-x="0" 
 />
    <glyph glyph-name="nonmarkingreturn" unicode="&#xd;" horiz-adv-x="220" 
 />
    <glyph glyph-name="space" unicode=" " horiz-adv-x="220" 
 />
    <glyph glyph-name="exclam" unicode="!" horiz-adv-x="287" 
d="M204 410l-13 -194h-95l-13 194v285h121v-285zM192.5 127.5q9.5 -9.5 9.5 -33.5v-51q0 -24 -9.5 -33.5t-33.5 -9.5h-29q-25 0 -34.5 9.5t-9.5 33.5v51q0 24 9.5 33.5t34.5 9.5h29q24 0 33.5 -9.5z" />
    <glyph glyph-name="quotedbl" unicode="&#x22;" horiz-adv-x="367" 
d="M146 472h-79l-7 218h94zM300 472h-78l-8 218h94z" />
    <glyph glyph-name="numbersign" unicode="#" horiz-adv-x="698" 
d="M537 435l-28 -157h110l-15 -74h-108l-35 -204h-93l35 204h-158l-35 -204h-93l35 204h-116l14 74h115l28 157h-115l14 75h114l31 180h93l-31 -180h158l31 180h93l-31 -180h111l-15 -75h-109zM444 435h-158l-28 -157h158z" />
    <glyph glyph-name="dollar" unicode="$" horiz-adv-x="570" 
d="M494.5 308.5q31.5 -48.5 31.5 -127.5q0 -78 -24 -119.5t-75.5 -57.5t-144.5 -16h-2l-9 -110h-55l10 111q-80 4 -168 21l8 95l170 -4l17 196l-64 20q-75 24 -107 72.5t-32 127.5q0 78 24 117.5t73.5 53.5t138.5 14h12l8 94h54l-8 -96q82 -3 150 -21l-8 -89l-151 4
l-17 -194l59 -18q78 -25 109.5 -73.5zM183 468q8 -17 24 -26.5t46 -18.5l19 -6l16 177q-46 0 -68.5 -5t-33.5 -21.5t-11 -52.5q0 -30 8 -47zM358 108.5q23 6.5 32.5 23.5t9.5 50q0 31 -7.5 47.5t-22.5 25.5t-43 18l-21 7l-16 -179q45 1 68 7.5z" />
    <glyph glyph-name="percent" unicode="%" horiz-adv-x="901" 
d="M305 683q36 -20 52 -64.5t16 -120.5t-16 -120.5t-52 -64.5t-99 -20t-99 20t-52 64.5t-16 120.5t16 120.5t52 64.5t99 20t99 -20zM276 0h-81l428 690h80zM159 619q-16 -12 -22.5 -40t-6.5 -81t6.5 -81.5t22.5 -40t46 -11.5t46.5 11.5t23.5 40t7 81.5q0 52 -7 80.5
t-23.5 40.5t-46.5 12t-46 -12zM793 380q36 -20 52 -64.5t16 -120.5q0 -77 -16 -121.5t-52 -64.5t-99 -20q-62 0 -98 20t-52 64.5t-16 121.5q0 76 16 120.5t52 64.5t98 20q63 0 99 -20zM648 315.5q-16 -11.5 -23 -39.5t-6 -81q-1 -54 6 -82.5t23 -40t46 -11.5t46 12t23 40.5
t7 81.5t-7 81t-23 39.5t-46 11.5t-46 -11.5z" />
    <glyph glyph-name="ampersand" unicode="&#x26;" horiz-adv-x="767" 
d="M726 6q-22 -8 -57.5 -12.5t-60.5 -4.5q-48 0 -80.5 20.5t-43.5 57.5q-42 -42 -92.5 -60t-128.5 -18q-75 0 -119 17.5t-65 58t-21 110.5q0 83 31.5 129t104.5 52v4q-62 6 -88.5 45t-26.5 116q0 79 26 117t80.5 50.5t157.5 12.5q95 0 161 -11l-15 -91q-47 3 -150 3
q-55 0 -82 -7t-39 -28t-12 -65q0 -40 10 -61.5t33 -30t66 -8.5h166l9 114h102v-114h115v-91h-115v-162q0 -32 11.5 -44.5t42.5 -12.5h67zM199.5 134.5q9.5 -22.5 32.5 -31.5t65 -9q111 2 181 58v159h-170q-46 0 -71 -10t-36 -34t-11 -69q0 -41 9.5 -63.5z" />
    <glyph glyph-name="quotesingle" unicode="'" horiz-adv-x="213" 
d="M146 472h-79l-7 218h94z" />
    <glyph glyph-name="parenleft" unicode="(" horiz-adv-x="362" 
d="M338 736q-92 -43 -133.5 -148t-41.5 -275q0 -167 42 -272.5t133 -151.5l-14 -54q-144 50 -211.5 166t-67.5 311q0 197 67.5 313t211.5 165z" />
    <glyph glyph-name="parenright" unicode=")" horiz-adv-x="362" 
d="M250.5 625q67.5 -116 67.5 -313q0 -195 -67.5 -311t-211.5 -166l-15 54q91 46 133 151.5t42 272.5q0 170 -41.5 275t-133.5 148l15 54q144 -49 211.5 -165z" />
    <glyph glyph-name="asterisk" unicode="*" horiz-adv-x="450" 
d="M249 527l104 -129l-55 -41l-73 122l-73 -121l-56 40l104 128l-10 165h70zM183 560l-1 -30l-14 -19l-124 31l22 65zM406 541l-123 -30l-16 19v30l117 47z" />
    <glyph glyph-name="plus" unicode="+" horiz-adv-x="546" 
d="M497 255h-179v-171h-91v171h-178v90h178v171h91v-171h179v-90z" />
    <glyph glyph-name="comma" unicode="," horiz-adv-x="238" 
d="M169 127.5q9 -9.5 8 -33.5l1 -64q-1 -51 -12 -91.5t-32 -78.5l-55 15q13 61 13 125q-16 0 -25 10t-9 28v56q1 24 11.5 33.5t33.5 9.5h33q24 0 33 -9.5z" />
    <glyph glyph-name="hyphen" unicode="-" horiz-adv-x="428" 
d="M364 211h-300v86h300v-86z" />
    <glyph glyph-name="period" unicode="." horiz-adv-x="240" 
d="M172.5 127.5q9.5 -9.5 9.5 -33.5v-51q0 -24 -9.5 -33.5t-34.5 -9.5h-36q-25 0 -34.5 9.5t-9.5 33.5v51q0 24 9.5 33.5t34.5 9.5h36q25 0 34.5 -9.5z" />
    <glyph glyph-name="slash" unicode="/" horiz-adv-x="534" 
d="M119 -69h-97l393 759h97z" />
    <glyph glyph-name="zero" unicode="0" horiz-adv-x="616" 
d="M457.5 667.5q54.5 -35.5 79 -113.5t24.5 -209t-24.5 -209t-79 -113.5t-149.5 -35.5t-149.5 35.5t-78.5 113t-24 209.5t24 209.5t78.5 113t149.5 35.5t149.5 -35.5zM229.5 575q-27.5 -23 -39.5 -77.5t-12 -152.5t12 -152.5t39.5 -77.5t77.5 -23q51 0 79 23t40 77t12 153
t-12 153t-40 77t-79 23q-50 0 -77.5 -23z" />
    <glyph glyph-name="one" unicode="1" horiz-adv-x="414" 
d="M312 0h-125v509q0 39 5 68l-162 -46l-15 89l172 70h125v-690z" />
    <glyph glyph-name="two" unicode="2" horiz-adv-x="569" 
d="M398.5 689q47.5 -13 73.5 -47t26 -96q0 -63 -24 -113.5t-91 -123.5l-183 -197q41 6 107 6h213v-118h-470v75q0 33 18 52l180 199q63 67 93.5 117t30.5 91q0 37 -24.5 48t-83.5 11q-53 0 -96 -2.5t-106 -9.5l-7 96q67 15 117 20t105 5q74 0 121.5 -13z" />
    <glyph glyph-name="three" unicode="3" horiz-adv-x="561" 
d="M391.5 688q47.5 -15 70 -49.5t22.5 -95.5q0 -75 -22.5 -119t-78.5 -55v-4q66 -11 92.5 -55t26.5 -125q0 -104 -52 -151t-175 -47q-98 0 -229 18l6 98q120 -8 190 -8q52 0 81 10t42 34t13 68q0 57 -24 82.5t-93 24.5h-128v93h128q45 0 67.5 13t29.5 35t7 57
q-1 38 -11.5 55.5t-35 23t-73.5 5.5q-108 0 -180 -6l-6 95q107 18 206 18q79 0 126.5 -15z" />
    <glyph glyph-name="four" unicode="4" horiz-adv-x="627" 
d="M590 253v-84l-87 -13h-2v-156h-118v156h-271q-36 0 -58.5 23.5t-22.5 56.5q0 17 8 36l184 418h121l-175 -401q-4 -8 -4 -17q0 -19 26 -19h192v192l21 112h97v-304h89z" />
    <glyph glyph-name="five" unicode="5" horiz-adv-x="544" 
d="M471 587h-284l-8 -147l87 -10q125 -12 177 -64t52 -154q0 -100 -50 -162t-181 -62q-99 0 -220 23l13 101q95 -15 176 -15q58 0 88 13t40.5 38.5t10.5 70.5q0 47 -18 69t-54 30t-119 16l-66 7q-20 1 -32.5 15.5t-10.5 34.5l16 299h387z" />
    <glyph glyph-name="six" unicode="6" horiz-adv-x="579" 
d="M456 432q42 -22 59.5 -70t17.5 -131q0 -82 -18.5 -134t-68.5 -80.5t-143 -28.5q-102 0 -154 30.5t-71.5 103.5t-19.5 215q0 154 30 232.5t88 105.5t160 27q91 0 152 -17l-8 -87q-48 2 -144 2q-58 0 -89 -15t-47 -58t-19 -131q32 32 68.5 45t90.5 13q74 0 116 -22z
M375.5 105.5q23.5 15.5 31 44t7.5 80.5q0 49 -9.5 76t-32.5 39t-67 12q-35 0 -62.5 -10t-62.5 -36q1 -97 8.5 -141t32.5 -62t83 -18q48 0 71.5 15.5z" />
    <glyph glyph-name="seven" unicode="7" horiz-adv-x="519" 
d="M477.5 677q15.5 -13 15.5 -36q0 -12 -4 -23l-211 -618h-124l182 526q10 34 26 59h-324l-6 105h402q28 0 43.5 -13z" />
    <glyph glyph-name="eight" unicode="8" horiz-adv-x="610" 
d="M446.5 682q49.5 -19 69 -58t19.5 -106t-24.5 -109.5t-75.5 -48.5v-4q64 -6 90 -53.5t26 -130.5q0 -66 -20.5 -105.5t-74 -58.5t-151.5 -19q-96 0 -149.5 19t-74.5 58.5t-21 105.5q0 83 25.5 130.5t89.5 53.5v4q-51 6 -75 48.5t-24 109.5t19.5 106t69 58t140.5 19
q92 0 141.5 -19zM233 597q-25 -9 -34.5 -30.5t-9.5 -61.5q0 -41 10 -62t34.5 -29.5t73.5 -8.5t73 8.5t32.5 29.5t8.5 62q0 40 -9 61.5t-33.5 30.5t-72.5 9t-73 -9zM226 300.5q-27 -9.5 -37.5 -33t-10.5 -68.5q0 -43 10.5 -66t37.5 -32.5t80 -9.5q52 0 79 9.5t37 32.5t10 66
q0 46 -10 69.5t-36.5 33t-78.5 9.5q-54 -1 -81 -10.5z" />
    <glyph glyph-name="nine" unicode="9" horiz-adv-x="579" 
d="M434.5 671q50.5 -31 68 -103t17.5 -215q0 -153 -27.5 -230.5t-85.5 -106t-164 -28.5q-97 0 -165 17l9 88q52 -3 155 -3q59 0 91 18t47.5 62.5t18.5 127.5q-33 -35 -70 -48.5t-92 -13.5q-103 0 -146 61t-43 166q0 125 53 182t179 57q104 0 154.5 -31zM335.5 342.5
q27.5 10.5 64.5 38.5q-1 96 -8 139.5t-32 61.5t-81 18q-47 0 -72 -15t-33.5 -45t-7.5 -80q-1 -67 22.5 -97.5t84.5 -30.5q35 0 62.5 10.5z" />
    <glyph glyph-name="colon" unicode=":" horiz-adv-x="251" 
d="M173.5 436.5q9.5 -9.5 9.5 -33.5v-51q0 -24 -9.5 -33.5t-34.5 -9.5h-36q-25 0 -34.5 9.5t-9.5 33.5v51q0 24 9.5 33.5t34.5 9.5h36q25 0 34.5 -9.5zM173.5 127.5q9.5 -9.5 9.5 -33.5v-51q0 -24 -9.5 -33.5t-34.5 -9.5h-36q-25 0 -34.5 9.5t-9.5 33.5v51q0 24 9.5 33.5
t34.5 9.5h36q25 0 34.5 -9.5z" />
    <glyph glyph-name="semicolon" unicode=";" horiz-adv-x="252" 
d="M179.5 436.5q9.5 -9.5 9.5 -33.5v-51q0 -24 -9.5 -33.5t-34.5 -9.5h-36q-25 0 -34.5 9.5t-9.5 33.5v51q0 24 9.5 33.5t34.5 9.5h36q25 0 34.5 -9.5zM176 127.5q9 -9.5 8 -33.5l1 -64q-1 -51 -12 -91.5t-32 -78.5l-55 15q13 61 13 125q-16 0 -25 10t-9 28v56
q1 24 11.5 33.5t33.5 9.5h33q24 0 33 -9.5z" />
    <glyph glyph-name="less" unicode="&#x3c;" horiz-adv-x="523" 
d="M460 420l-311 -120l311 -120v-95l-414 167v95l414 169v-96z" />
    <glyph glyph-name="equal" unicode="=" horiz-adv-x="582" 
d="M516 357h-450v88h450v-88zM516 145h-450v88h450v-88z" />
    <glyph glyph-name="greater" unicode="&#x3e;" horiz-adv-x="523" 
d="M477 347v-95l-414 -167v95l311 120l-311 120v96z" />
    <glyph glyph-name="question" unicode="?" horiz-adv-x="508" 
d="M421.5 674q51.5 -38 51.5 -117q0 -34 -11 -61.5t-27 -47.5t-45 -51q-45 -46 -69 -84.5t-27 -96.5h-101q-1 50 12 89t31.5 65.5t49.5 62.5q30 34 44.5 57t14.5 51q0 36 -25.5 53t-81.5 17q-86 0 -171 -5l-28 -2l-5 85q21 4 28 5q50 10 90 14t113 4q105 0 156.5 -38z
M292.5 127.5q9.5 -9.5 9.5 -33.5v-51q0 -24 -9.5 -33.5t-34.5 -9.5h-29q-25 0 -34.5 9.5t-9.5 33.5v51q0 24 9.5 33.5t34.5 9.5h29q25 0 34.5 -9.5z" />
    <glyph glyph-name="at" unicode="@" horiz-adv-x="737" 
d="M632 558q41 -36 41 -120v-304h-90l-11 71q-30 -32 -79 -56.5t-104 -24.5q-61 0 -98.5 32.5t-37.5 92.5v49q0 50 30.5 78.5t88.5 28.5h187v30q0 37 -15.5 50t-57.5 13h-123q-91 0 -126 -12t-47 -57.5t-12 -161.5q0 -121 14.5 -166.5t55.5 -56.5t154 -11h270v-86
q-131 -11 -290 -11q-148 0 -212 23.5t-85 89.5t-21 218q0 153 19.5 217.5t79 87t200.5 22.5h147q81 0 122 -36zM417 333q-30 -1 -41.5 -11.5t-11.5 -35.5v-16q0 -30 13 -42.5t40 -12.5q36 0 75.5 14t66.5 40v68z" />
    <glyph glyph-name="A" unicode="A" horiz-adv-x="636" 
d="M446 195h-256l-57 -195h-128l207 657q4 15 16.5 24t28.5 9h122q16 0 28.5 -9t16.5 -24l207 -657h-128zM416 298l-69 238q-2 9 -7.5 27.5t-7.5 31.5h-27l-16 -59l-69 -238h196z" />
    <glyph glyph-name="B" unicode="B" horiz-adv-x="628" 
d="M546 303.5q32 -45.5 32 -131.5q0 -71 -22.5 -109.5t-71 -54.5t-132.5 -16q-102 0 -159 1.5t-116 6.5v690q53 5 104 6.5t140 1.5q90 0 140.5 -15.5t73 -54.5t22.5 -110q0 -75 -28 -113.5t-90 -44.5v-4q75 -7 107 -52.5zM200 597v-194h125q44 0 67.5 8.5t34 29.5t10.5 61
q0 39 -11.5 59t-37 28t-73.5 8h-115zM405 101.5q26 8.5 37 30t11 63.5q0 46 -11.5 71t-38.5 35t-76 11h-127v-218q38 -1 131 -1q48 0 74 8.5z" />
    <glyph glyph-name="C" unicode="C" horiz-adv-x="578" 
d="M443.5 697q42.5 -5 88.5 -17l-12 -95q-87 7 -186 7q-58 0 -90 -22.5t-45.5 -75.5t-13.5 -149t13.5 -149t45.5 -75.5t90 -22.5q69 0 113.5 2t87.5 8l11 -94q-46 -14 -93.5 -20t-118.5 -6q-105 0 -166 34.5t-88 112t-27 210.5t27 210.5t88 112t166 34.5q67 0 109.5 -5z" />
    <glyph glyph-name="D" unicode="D" horiz-adv-x="671" 
d="M501.5 666.5q60.5 -32.5 88 -109t27.5 -212.5t-27.5 -212.5t-88 -109t-166.5 -32.5q-121 0 -258 9v690q137 9 258 9q106 0 166.5 -32.5zM425 119q32 23 46 76t14 150t-14 150.5t-46 76.5t-90 23l-133 -1v-496q78 -2 133 -2q58 0 90 23z" />
    <glyph glyph-name="E" unicode="E" 
d="M517 101l6 -95q-60 -5 -130 -6.5t-174 -1.5q-68 0 -107.5 35t-40.5 96v432q1 61 40.5 96t107.5 35q104 0 174 -1.5t130 -6.5l-6 -96h-270q-27 0 -38.5 -13t-11.5 -45v-121h283v-96h-283v-154q0 -32 11.5 -45t38.5 -13h270z" />
    <glyph glyph-name="F" unicode="F" horiz-adv-x="546" 
d="M214 575q-13 -13 -13 -45v-133h272v-97h-272v-300h-126v556q0 64 40 100t108 36q101 0 168.5 -1.5t125.5 -7.5l-7 -95h-250q-33 0 -46 -13z" />
    <glyph glyph-name="G" unicode="G" horiz-adv-x="635" 
d="M576 398v-398h-93l-11 68q-35 -33 -86 -57t-116 -24q-114 0 -165 86.5t-51 274.5q0 139 29 215.5t93.5 108t179.5 31.5t198 -23l-10 -93q-98 6 -182 6q-72 0 -108 -17t-52.5 -70t-16.5 -165q0 -94 11.5 -147t38.5 -76t74 -23q40 0 74 12.5t71 35.5v255h122z" />
    <glyph glyph-name="H" unicode="H" horiz-adv-x="678" 
d="M600 690v-690h-125v316h-273v-316h-125v690h125v-271h273v271h125z" />
    <glyph glyph-name="I" unicode="I" horiz-adv-x="279" 
d="M202 0h-125v690h125v-690z" />
    <glyph glyph-name="J" unicode="J" horiz-adv-x="354" 
d="M279 152q0 -79 -37.5 -121t-106.5 -42q-25 0 -58.5 5t-51.5 12l13 87h47q70 0 70 62v535h124v-538z" />
    <glyph glyph-name="K" unicode="K" horiz-adv-x="612" 
d="M264 311h-69q7 -40 7 -68v-243h-125v690h125v-203q0 -44 -7 -80h68l189 283h136l-186 -278q-17 -27 -46 -52v-3q35 -29 54 -59l191 -298h-140z" />
    <glyph glyph-name="L" unicode="L" horiz-adv-x="521" 
d="M200 161q0 -32 13 -44.5t46 -12.5h240l5 -97q-98 -9 -274 -9q-155 0 -155 143v549h125v-529z" />
    <glyph glyph-name="M" unicode="M" horiz-adv-x="894" 
d="M803 641l28 -641h-123l-23 589h-19l-119 -459q-11 -42 -52 -42h-96q-42 0 -53 42l-121 459h-17l-22 -589h-122l26 641q2 49 49 49h130q41 0 51 -42l98 -374q10 -35 15 -65l6 -29h15q11 58 21 95l98 373q11 42 52 42h129q47 0 49 -49z" />
    <glyph glyph-name="N" unicode="N" horiz-adv-x="715" 
d="M638 46q0 -46 -46 -46h-99q-20 0 -32 9t-20 29l-194 423q-11 23 -23.5 52.5t-17.5 50.5h-12q6 -42 6 -104v-460h-123v644q0 22 12 34t35 12h97q20 0 31.5 -9t20.5 -29l188 -411l16 -37q16 -32 32 -72h12q-5 63 -5 112v446h122v-644z" />
    <glyph glyph-name="O" unicode="O" horiz-adv-x="675" 
d="M506 670q61 -33 88.5 -110t27.5 -215t-27.5 -215t-88.5 -110t-169 -33t-169 33t-88 110t-27 215t27 215t88 110t169 33t169 -33zM245.5 573q-32.5 -23 -46.5 -76.5t-14 -151.5t14 -151.5t46.5 -76.5t91.5 -23q60 0 92.5 23t46.5 76.5t14 151.5t-14 151.5t-46.5 76.5
t-92.5 23q-59 0 -91.5 -23z" />
    <glyph glyph-name="P" unicode="P" horiz-adv-x="601" 
d="M469.5 679.5q50.5 -19.5 72.5 -67t22 -135.5t-21 -135.5t-68.5 -67t-131.5 -19.5q-74 0 -141 8v-263h-125v690q57 6 106.5 7.5t143.5 1.5q92 0 142.5 -19.5zM393 368q24 10 34.5 35.5t10.5 73.5t-10.5 73.5t-34.5 35.5t-69 10q-87 0 -122 -1v-238h122q45 1 69 11z" />
    <glyph glyph-name="Q" unicode="Q" horiz-adv-x="677" 
d="M507 670q61 -33 88.5 -110t27.5 -215t-27.5 -215t-88.5 -110t-169 -33t-169 33t-88 110t-27 215t27 215t88 110t169 33t169 -33zM246 573q-33 -23 -47 -76.5t-14 -151.5t14 -151.5t47 -76.5t92 -23q60 0 92.5 23t46.5 76.5t14 151.5t-14 151.5t-46.5 76.5t-92.5 23
q-59 0 -92 -23zM580 -104l-39 -120q-77 18 -144.5 47t-135.5 66l31 73q125 -44 288 -66z" />
    <glyph glyph-name="R" unicode="R" horiz-adv-x="629" 
d="M593 0h-133l-55 214q-10 33 -29 47.5t-51 14.5h-124v-276h-124v690q56 6 106.5 7.5t144.5 1.5q88 0 139.5 -18t76 -62t24.5 -122q0 -80 -30 -122.5t-99 -51.5v-5q30 -7 56 -32t36 -70zM395 389.5q25 9.5 35.5 33t10.5 66.5t-10.5 66t-35.5 32t-70 9h-124v-217h124
q45 1 70 10.5z" />
    <glyph glyph-name="S" unicode="S" horiz-adv-x="570" 
d="M502 679l-8 -89q-114 4 -205 4q-47 0 -70 -4.5t-34 -21.5t-11 -53q0 -30 8 -47t23.5 -26.5t45.5 -18.5l133 -41q79 -25 110.5 -73.5t31.5 -127.5q0 -78 -24 -119.5t-76 -57.5t-145 -16q-114 0 -224 22l8 92q18 0 26 -1q167 -3 193 -3q47 0 71 6.5t34 24t10 53.5
q0 31 -7.5 47.5t-22.5 25.5t-43 18l-139 44q-75 24 -107 72.5t-32 127.5q0 78 24.5 117.5t74 53.5t138.5 14q127 0 217 -23z" />
    <glyph glyph-name="T" unicode="T" horiz-adv-x="592" 
d="M571 583h-213v-583h-126v583h-211v107h550v-107z" />
    <glyph glyph-name="U" unicode="U" horiz-adv-x="671" 
d="M599 270q0 -104 -25 -165.5t-81.5 -89.5t-151.5 -28q-100 0 -158 28t-84.5 89.5t-26.5 165.5v420h125v-420q0 -67 13 -105t43 -54.5t83 -16.5q52 0 81.5 16.5t42.5 54.5t13 105v420h126v-420z" />
    <glyph glyph-name="V" unicode="V" horiz-adv-x="622" 
d="M416 35q-5 -16 -17.5 -25.5t-28.5 -9.5h-118q-17 0 -29 9.5t-16 25.5l-196 655h129l141 -518l18 -77h25q6 32 19 77l139 518h129z" />
    <glyph glyph-name="W" unicode="W" horiz-adv-x="961" 
d="M813 35q-4 -16 -16.5 -25.5t-29.5 -9.5h-131q-17 0 -30 10t-16 26l-87 481q-5 27 -13 81h-20q-9 -58 -13 -81l-86 -481q-3 -16 -16 -26t-31 -10h-130q-17 0 -30 9.5t-16 25.5l-119 655h130l82 -503q6 -34 11 -94h21q9 58 16 94l85 463q3 18 15.5 29t30.5 11h122
q17 0 29.5 -11t15.5 -29l85 -464q10 -50 14 -93h22q4 27 5 44l6 48l83 505h130z" />
    <glyph glyph-name="X" unicode="X" horiz-adv-x="626" 
d="M322 312h-19l-154 -312h-132l183 355l-170 335h131l140 -288h23l140 288h132l-171 -335l184 -355h-133z" />
    <glyph glyph-name="Y" unicode="Y" horiz-adv-x="589" 
d="M357 233v-233h-125v235l-227 455h132l126 -268q9 -20 17 -47.5t11 -35.5h8q3 8 11 35.5t17 47.5l126 268h130z" />
    <glyph glyph-name="Z" unicode="Z" horiz-adv-x="574" 
d="M530 102v-102h-485v102l340 486h-334v102h472v-102l-340 -486h347z" />
    <glyph glyph-name="bracketleft" unicode="[" horiz-adv-x="339" 
d="M303 691h-90q-7 0 -12 -5t-5 -13v-743q0 -8 5 -13t12 -5h90v-77h-153q-67 0 -67 67v799q0 29 19 48t48 19h153v-77z" />
    <glyph glyph-name="backslash" unicode="\" horiz-adv-x="535" 
d="M513 -69h-98l-393 759h98z" />
    <glyph glyph-name="bracketright" unicode="]" horiz-adv-x="339" 
d="M237 749q19 -19 19 -48v-799q0 -29 -19 -48t-49 -19h-152v77h89q8 0 12.5 5t4.5 13v743q0 8 -4.5 13t-12.5 5h-89v77h152q30 0 49 -19z" />
    <glyph glyph-name="asciicircum" unicode="^" horiz-adv-x="447" 
d="M417 397l-48 -28l-141 169h-8l-142 -169l-48 28l150 219h88z" />
    <glyph glyph-name="underscore" unicode="_" horiz-adv-x="441" 
d="M441 -86h-441v86h441v-86z" />
    <glyph glyph-name="grave" unicode="`" horiz-adv-x="337" 
d="M283 587l-38 -54l-213 111l63 90z" />
    <glyph glyph-name="a" unicode="a" horiz-adv-x="558" 
d="M449.5 466q44.5 -38 44.5 -133v-333h-96l-13 74q-32 -35 -79.5 -60t-107.5 -25q-69 0 -112 37.5t-43 104.5v50q0 59 38 91t107 32h184v30q-1 29 -8.5 43.5t-26.5 20.5t-55 6q-77 0 -205 -10l-12 86q53 10 125 17t120 7q95 0 139.5 -38zM179.5 101.5
q15.5 -14.5 48.5 -14.5q31 0 69.5 14.5t74.5 43.5v76h-156q-29 -1 -40.5 -15t-11.5 -40v-19q0 -31 15.5 -45.5z" />
    <glyph glyph-name="b" unicode="b" horiz-adv-x="581" 
d="M492 444q43 -60 43 -196q0 -128 -50.5 -194t-179.5 -66q-57 0 -126 9.5t-113 27.5v675h122v-165q0 -70 -11 -114q38 40 84 61.5t95 21.5q93 0 136 -60zM361 99q25 14 36.5 49t12.5 100q-1 61 -8.5 93.5t-28.5 46.5t-63 14q-30 0 -57 -13t-66 -42l1 -250q51 -12 104 -12
q44 0 69 14z" />
    <glyph glyph-name="c" unicode="c" horiz-adv-x="498" 
d="M375 497q47 -7 82 -21l-14 -76q-49 2 -136 2q-51 0 -80 -14t-41.5 -47t-12.5 -95t12.5 -96t41.5 -48t80 -14q80 0 147 10l11 -80q-73 -30 -180 -30q-89 0 -140.5 25t-75 81t-23.5 152t23.5 152t75.5 81t141 25q42 0 89 -7z" />
    <glyph glyph-name="d" unicode="d" horiz-adv-x="583" 
d="M515 700v-700h-96l-10 67q-37 -35 -85.5 -57t-104.5 -22q-90 0 -131 65.5t-41 194.5q0 96 21 152t62 80t105 24q95 0 163 -44q-5 40 -5 99v141h122zM181.5 151q9.5 -34 29 -47t53.5 -13t59 10.5t70 40.5v243l-20 5q-34 8 -55.5 11.5t-46.5 3.5q-38 0 -59 -12t-30.5 -45
t-9.5 -99q0 -64 9.5 -98z" />
    <glyph glyph-name="e" unicode="e" horiz-adv-x="548" 
d="M482 99l11 -78q-36 -17 -92 -25t-110 -8q-90 0 -143 26t-77.5 82t-24.5 150q0 97 24.5 153t76 80.5t136.5 24.5q117 0 170 -42.5t53 -127.5q0 -140 -131 -140h-200q5 -44 19.5 -67t40.5 -31.5t71 -8.5q75 0 176 12zM220 397q-24 -11 -35 -38.5t-13 -79.5h169q26 0 35 16
t9 41q0 40 -21 56t-76 16q-44 0 -68 -11z" />
    <glyph glyph-name="f" unicode="f" horiz-adv-x="395" 
d="M249.5 608.5q-16.5 -15.5 -16.5 -53.5v-65h143v-88h-143v-402h-122v402h-87v83l87 5v81q0 72 36 110t117 38q34 0 78 -2t71 -7l-10 -86h-96q-41 0 -57.5 -15.5z" />
    <glyph glyph-name="g" unicode="g" 
d="M545 431l-64 -7q13 -32 13 -78q0 -57 -21 -91t-69 -50.5t-131 -16.5q-51 0 -90 6q-7 -14 -7 -26q0 -15 9 -25.5t27 -13.5l179 -25q72 -10 103.5 -44t31.5 -99q0 -61 -23 -95t-76 -48t-148 -14q-96 0 -149.5 14t-76 46.5t-22.5 89.5q0 38 18 62t59 45q-28 25 -28 69
q0 25 11 48t29 35q-36 18 -52 50t-16 82q0 59 21 93t69 50t132 16q81 0 126 -14h152zM358.5 289q23.5 16 23.5 57t-23.5 56.5t-85.5 15.5t-86 -15.5t-24 -56.5t24 -57t86 -16t85.5 16zM402 -3.5q-7 9.5 -22.5 13.5t-53.5 9l-139 17q-20 -17 -29.5 -32.5t-9.5 -36.5
q0 -30 10.5 -43.5t37 -18t82.5 -4.5t83 5t37.5 18.5t10.5 41.5q0 21 -7 30.5z" />
    <glyph glyph-name="h" unicode="h" horiz-adv-x="590" 
d="M490 469q35 -35 35 -101v-368h-122v331q0 41 -11 55.5t-41 14.5q-34 0 -69 -13.5t-92 -45.5v-342h-122v700h122l1 -180q0 -53 -8 -98q111 82 207 82q65 0 100 -35z" />
    <glyph glyph-name="i" unicode="i" horiz-adv-x="265" 
d="M195 668v-55q0 -35 -35 -35h-56q-35 0 -35 35v55q0 17 9 26t26 9h56q35 0 35 -35zM193 0h-121v490h121v-490z" />
    <glyph glyph-name="j" unicode="j" horiz-adv-x="267" 
d="M197 669v-54q0 -35 -35 -35h-56q-35 0 -35 35v54q0 35 35 35h56q35 0 35 -35zM195 9q0 -64 -30 -120.5t-82 -88.5l-68 53q31 37 44.5 73.5t13.5 82.5v481h122v-481z" />
    <glyph glyph-name="k" unicode="k" horiz-adv-x="534" 
d="M238 234h-54q6 -39 6 -75v-159h-122v700h122l1 -298q0 -47 -7 -86h53l134 174h138l-137 -174q-8 -12 -20 -23.5t-21 -17.5v-2q8 -5 20.5 -19t20.5 -28l153 -226h-138z" />
    <glyph glyph-name="l" unicode="l" horiz-adv-x="314" 
d="M190 153q0 -57 59 -57h42l14 -90q-15 -8 -47.5 -12.5t-56.5 -4.5q-61 0 -96.5 35t-35.5 99v577h122z" />
    <glyph glyph-name="m" unicode="m" horiz-adv-x="875" 
d="M776 469q34 -35 34 -101v-368h-119v331q-1 38 -14 54t-47 16q-29 0 -55 -12t-77 -47v-342h-117v331q1 39 -13.5 54.5t-47.5 15.5q-28 0 -53.5 -12t-77.5 -46v-343h-121v490h99l8 -72q49 43 95 64.5t96 21.5q99 0 125 -82q91 82 186 82q65 0 99 -35z" />
    <glyph glyph-name="n" unicode="n" horiz-adv-x="590" 
d="M490 469q35 -35 35 -101v-368h-122v331q0 41 -11 55.5t-41 14.5q-34 0 -68.5 -13.5t-93.5 -46.5l1 -341h-122v490h102l8 -73q113 87 212 87q65 0 100 -35z" />
    <glyph glyph-name="o" unicode="o" horiz-adv-x="576" 
d="M430.5 478.5q52.5 -25.5 76 -82t23.5 -151.5t-23.5 -151t-76 -81.5t-141.5 -25.5q-90 0 -142.5 25.5t-76.5 81.5t-24 151t24 151.5t77 82t142 25.5t141.5 -25.5zM218.5 393q-24.5 -14 -35 -48.5t-10.5 -99.5q0 -64 10.5 -98.5t35 -48.5t70.5 -14q45 0 69.5 14t35 48.5
t10.5 98.5q0 65 -10.5 99.5t-35 48.5t-69.5 14q-46 0 -70.5 -14z" />
    <glyph glyph-name="p" unicode="p" horiz-adv-x="591" 
d="M504 436.5q40 -66.5 40 -195.5q0 -95 -21 -150t-62 -79t-105 -24q-100 0 -169 48q3 -56 2 -102v-129h-121v685h100l9 -72q34 37 90 61t110 24q87 0 127 -66.5zM379 99q21 12 30.5 45t9.5 98q0 62 -8.5 97t-27.5 49.5t-51 14.5q-34 0 -66 -14.5t-77 -46.5v-234
q8 -2 36 -8.5t51 -9.5t44 -3q38 0 59 12z" />
    <glyph glyph-name="q" unicode="q" horiz-adv-x="580" 
d="M401.5 494q68.5 -10 112.5 -27v-662h-121l-1 151q0 64 10 106q-91 -75 -184 -75q-87 0 -129.5 62.5t-42.5 193.5q0 87 20 143.5t71 87t142 30.5q54 0 122.5 -10zM189.5 124.5q18.5 -33.5 71.5 -33.5q35 0 63.5 12t68.5 38v253q-49 13 -106 13q-46 0 -70 -13.5t-35 -50
t-11 -106.5q0 -79 18.5 -112.5z" />
    <glyph glyph-name="r" unicode="r" horiz-adv-x="413" 
d="M400 504l-13 -114h-35q-32 0 -67 -10t-95 -33v-347h-122v490h95l11 -72q51 42 102.5 64t99.5 22h24z" />
    <glyph glyph-name="s" unicode="s" horiz-adv-x="517" 
d="M355 498q61 -5 105 -12l-9 -84q-124 4 -187 4q-47 0 -67 -2t-28.5 -11t-8.5 -29q0 -24 11 -32.5t30 -13.5t26 -7l132 -36q63 -18 90 -48.5t27 -92.5q0 -59 -22.5 -90.5t-69 -43t-127.5 -11.5q-110 0 -205 16l8 85q52 -4 167 -4q54 0 81.5 3.5t39 13.5t11.5 30q0 18 -8 27
t-18 12.5t-46 13.5l-129 35q-64 18 -89.5 51t-25.5 93q0 54 20 84t63 42.5t117 12.5q51 -1 112 -6z" />
    <glyph glyph-name="t" unicode="t" horiz-adv-x="400" 
d="M231 402v-249q0 -32 13 -44.5t46 -12.5h67l13 -90q-24 -8 -62 -12.5t-64 -4.5q-64 0 -98.5 37t-34.5 106l-1 270h-88v83l88 5v141h121v-141h144v-88h-144z" />
    <glyph glyph-name="u" unicode="u" horiz-adv-x="579" 
d="M511 490v-490h-96l-9 66q-53 -40 -103 -59.5t-102 -19.5q-67 0 -101.5 34.5t-34.5 101.5v367h122v-331q-1 -39 12 -54t48 -15q30 0 62 12.5t81 40.5v347h121z" />
    <glyph glyph-name="v" unicode="v" horiz-adv-x="546" 
d="M367 29q-11 -29 -41 -29h-106q-14 0 -25 8t-15 21l-168 461h128l102 -323q1 -5 3 -11.5t4 -13.5q12 -40 17 -60h13l26 85l101 323h129z" />
    <glyph glyph-name="w" unicode="w" horiz-adv-x="834" 
d="M686 33q-4 -16 -15.5 -24.5t-27.5 -8.5h-103q-17 0 -29.5 10.5t-15.5 27.5l-59 301q-4 21 -5 34q-2 12 -8 46h-12l-14 -80l-57 -301q-3 -17 -16 -27.5t-30 -10.5h-101q-17 0 -29 9t-15 24l-130 457h124l81 -337q10 -46 13 -78h13l5 26q3 14 10 52l60 301q3 17 14.5 26.5
t28.5 9.5h99q17 0 29 -10t15 -27l58 -300q2 -15 4.5 -27t4.5 -20l6 -31h13q9 61 13 78l81 337h124z" />
    <glyph glyph-name="x" unicode="x" horiz-adv-x="546" 
d="M280 210h-14l-123 -210h-128l155 252l-143 238h127l111 -192h16l111 192h127l-143 -238l155 -252h-128z" />
    <glyph glyph-name="y" unicode="y" horiz-adv-x="546" 
d="M533 490l-182 -505q-29 -83 -89 -138t-158 -50l-10 77q58 16 92 43.5t52 71.5l5 11h-24q-15 0 -26 8t-15 22l-166 460h129l107 -337q10 -31 16 -65h14l20 65l105 337h130z" />
    <glyph glyph-name="z" unicode="z" horiz-adv-x="518" 
d="M473 93v-93h-428v93l288 304h-284v93h420v-93l-288 -304h292z" />
    <glyph glyph-name="braceleft" unicode="{" horiz-adv-x="331" 
d="M292 693q-48 0 -65 -15.5t-17 -56.5v-163q1 -63 -19.5 -91.5t-77.5 -38.5q58 -17 79 -44.5t22 -81.5v-221q0 -41 17 -56t65 -15v-75q-15 -2 -43 -2q-155 0 -155 138v247q0 24 -5.5 35.5t-16 17.5t-37.5 16v82q28 9 37 13.5t13.5 17t4.5 42.5v190q0 138 155 138
q28 0 43 -2v-75z" />
    <glyph glyph-name="bar" unicode="|" horiz-adv-x="254" 
d="M170 -169h-86v950h86v-950z" />
    <glyph glyph-name="braceright" unicode="}" horiz-adv-x="332" 
d="M83 770q155 0 155 -138v-190q0 -30 4.5 -42.5t13.5 -17t37 -13.5v-82q-27 -10 -37.5 -16t-16 -17.5t-5.5 -35.5v-247q0 -138 -155 -138q-28 0 -43 2v75q48 0 65 15t17 56v221q1 54 22 81.5t79 44.5q-57 10 -77.5 38.5t-19.5 91.5v163q0 41 -17 56.5t-65 15.5v75
q15 2 43 2z" />
    <glyph glyph-name="asciitilde" unicode="~" horiz-adv-x="519" 
d="M197.5 349q29.5 -8 70.5 -22q60 -21 85 -23q4 -1 11 -1q16 0 22 11.5t6 37.5h59q3 -19 3 -35q0 -48 -20.5 -73.5t-55.5 -25.5q-27 0 -59 8.5t-73 22.5q-26 9 -50.5 16t-38.5 7q-18 0 -23.5 -11.5t-5.5 -39.5h-59q-2 12 -2 34q0 50 21.5 76t55.5 26q24 0 53.5 -8z" />
    <glyph glyph-name="uni00A0" unicode="&#xa0;" horiz-adv-x="220" 
 />
    <glyph glyph-name="exclamdown" unicode="&#xa1;" horiz-adv-x="271" 
d="M184.5 491.5q9.5 -9.5 9.5 -33.5v-52q0 -24 -9.5 -33t-33.5 -9h-29q-25 0 -34.5 9t-9.5 33v52q0 24 9.5 33.5t34.5 9.5h29q24 0 33.5 -9.5zM196 91v-281h-121v281l13 194h95z" />
    <glyph glyph-name="cent" unicode="&#xa2;" horiz-adv-x="513" 
d="M302 91l-9 -91h-54l9 92q-75 5 -119 32t-64 81t-20 144q0 95 23.5 151t76 81.5t141.5 25.5h13l9 83h54l-8 -87q58 -7 103 -24l-14 -78q-58 5 -100 5l-30 -316q77 0 140 9l12 -78q-66 -27 -163 -30zM186 235.5q21 -34.5 73 -42.5l29 314q-47 -2 -73.5 -17.5t-38 -48.5
t-11.5 -92q0 -79 21 -113.5z" />
    <glyph glyph-name="sterling" unicode="&#xa3;" horiz-adv-x="577" 
d="M531 105v-105h-476v105q43 19 60.5 54.5t17.5 87.5q0 18 -1 28l-3 52h-77l-1 72h73l-7 119q-4 75 17 115t64.5 54.5t116.5 14.5q84 0 194 -10l-7 -98q-71 3 -177 3q-47 0 -66.5 -14t-19.5 -53l1 -16l8 -115h194l-3 -72h-186l3 -52q1 -9 1 -25q0 -54 -17 -86.5t-55 -64.5
q24 6 71 6h275z" />
    <glyph glyph-name="currency" unicode="&#xa4;" horiz-adv-x="589" 
d="M458 238l73 -71l-52 -52l-72 72q-51 -35 -113 -35t-113 35l-70 -71l-55 55l71 71q-33 49 -33 109q0 64 36 114l-71 70l52 52l69 -71q53 35 114 35q64 0 114 -36l72 72l51 -52l-72 -71q34 -52 34 -113q0 -62 -35 -113zM356.5 240q29.5 17 47 46.5t17.5 65.5q0 35 -17.5 65
t-46.5 47t-63 17q-35 0 -64.5 -17t-47 -47t-17.5 -65t17 -64.5t46.5 -47t63.5 -17.5q35 0 64.5 17z" />
    <glyph glyph-name="yen" unicode="&#xa5;" horiz-adv-x="635" 
d="M424 333h125v-68h-160l-8 -16v-32h168v-67h-168v-150h-125v150h-164l-1 67h165v32l-8 16h-156l-2 68h122l-184 357h130l127 -259q7 -14 13.5 -34t8.5 -26l7 -23h9q15 52 29 84l126 258h129z" />
    <glyph glyph-name="brokenbar" unicode="&#xa6;" horiz-adv-x="256" 
d="M171 381h-86v400h86v-400zM171 -169h-86v400h86v-400z" />
    <glyph glyph-name="section" unicode="&#xa7;" horiz-adv-x="548" 
d="M486 691l-8 -92q-75 5 -199 5q-51 0 -73 -9t-22 -39q0 -25 14.5 -41t44.5 -32l146 -80q54 -28 77.5 -64.5t23.5 -86.5q0 -38 -14 -91h-86q1 10 1 27q0 47 -16 74.5t-58 51.5l-162 93q-49 28 -74.5 61.5t-25.5 95.5q0 56 23.5 86t68.5 41.5t119 11.5q127 -2 220 -12z
M158 340q0 -46 15.5 -72t57.5 -49l162 -92q50 -28 75.5 -62t25.5 -97q0 -58 -24.5 -88.5t-69 -41t-116.5 -10.5q-134 2 -222 12l9 92q69 -5 179 -6q62 0 87.5 8.5t26.5 38.5q2 27 -13 44t-44 32l-146 81q-53 27 -77 64t-24 87q0 42 13 91h86q-1 -12 -1 -32z" />
    <glyph glyph-name="dieresis" unicode="&#xa8;" horiz-adv-x="418" 
d="M170 672v-55q0 -16 -7 -23t-22 -7h-41q-15 0 -22 7t-7 23v55q0 31 29 31h41q29 0 29 -31zM341.5 694.5q8.5 -8.5 8.5 -22.5v-55q0 -30 -31 -30h-39q-31 0 -31 30v55q0 31 31 31h39q14 0 22.5 -8.5z" />
    <glyph glyph-name="copyright" unicode="&#xa9;" horiz-adv-x="822" 
d="M593 657q82 -46 130 -128t48 -184t-48 -184t-130 -128t-182 -46t-182.5 46t-130.5 128t-48 184t48 184t130.5 128t182.5 46t182 -46zM261.5 604q-68.5 -39 -108.5 -107t-40 -152t40 -152t108.5 -107t149.5 -39t149 38.5t108 107t40 152.5t-40 152.5t-108 107t-149 38.5
t-149.5 -39zM491 557q29 -3 60 -11l-8 -68q-64 3 -128 3q-40 0 -61.5 -12t-30.5 -40.5t-9 -81.5t9 -81.5t30.5 -40.5t61.5 -12q84 0 139 4l7 -67q-32 -8 -64.5 -12t-80.5 -4q-72 0 -114.5 20.5t-61.5 67t-19 125.5t19 125t61.5 67t114.5 21q46 0 75 -3z" />
    <glyph glyph-name="ordfeminine" unicode="&#xaa;" horiz-adv-x="439" 
d="M344.5 585q31.5 -27 31.5 -91v-220h-72l-10 58q-24 -27 -58.5 -46.5t-77.5 -19.5q-47 0 -75.5 23.5t-28.5 66.5v37q0 38 26.5 60t72.5 22h133v20q0 22 -12.5 33t-42.5 11q-44 0 -152 -6l-8 63q96 16 180 16q62 0 93.5 -27zM236.5 350q26.5 11 49.5 28v50l-102 -9
q-24 -1 -33.5 -9.5t-9.5 -24.5v-10q0 -20 11.5 -28t35.5 -8q22 0 48.5 11z" />
    <glyph glyph-name="guillemotleft" unicode="&#xab;" horiz-adv-x="504" 
d="M458 421l-114 -170l115 -174l-64 -41l-160 202v26l159 198zM262 421l-114 -170l115 -174l-64 -41l-160 202v26l159 198z" />
    <glyph glyph-name="logicalnot" unicode="&#xac;" horiz-adv-x="587" 
d="M516 344v-210h-91v121h-360v89h451z" />
    <glyph glyph-name="uni00AD" unicode="&#xad;" horiz-adv-x="428" 
d="M364 211h-300v86h300v-86z" />
    <glyph glyph-name="registered" unicode="&#xae;" horiz-adv-x="536" 
d="M380.5 672q50.5 -30 80.5 -80.5t30 -111.5t-30 -112t-80.5 -81t-111.5 -30t-112 30t-81 81t-30 112t30 111.5t81 80.5t112 30t111.5 -30zM360 320q42 25 67 67.5t25 92.5q0 51 -25 93t-67 67t-91 25q-50 0 -92.5 -24.5t-67 -67t-24.5 -93.5q0 -50 24.5 -92.5t67 -67.5
t92.5 -25q49 0 91 25zM363 436l26 -76h-56l-23 74q-5 13 -13 18t-22 5h-53v-97h-53v244q34 3 107 3q56 0 79.5 -15.5t23.5 -55.5q0 -27 -13 -41.5t-43 -18.5v-2q31 -4 40 -38zM315.5 502.5q10.5 7.5 9.5 28.5q1 22 -9.5 29t-40.5 7h-53v-73h53q30 1 40.5 8.5z" />
    <glyph glyph-name="macron" unicode="&#xaf;" horiz-adv-x="400" 
d="M345 601h-290v84h290v-84z" />
    <glyph glyph-name="degree" unicode="&#xb0;" horiz-adv-x="352" 
d="M242.5 686q30.5 -17 48.5 -47t18 -65t-18 -65.5t-48.5 -48.5t-66.5 -18t-66.5 18t-48.5 48.5t-18 65.5t18 64.5t48.5 47t66.5 17.5t66.5 -17zM131 618.5q-18 -17.5 -18 -44.5q0 -28 18 -46t45 -18q26 0 44 18t18 46q0 27 -17.5 44.5t-44.5 17.5t-45 -17.5z" />
    <glyph glyph-name="plusminus" unicode="&#xb1;" horiz-adv-x="581" 
d="M515 411v-90h-180v-125h-90v125h-179v90h179v126h91v-126h179zM66 145h449v-90h-449v90z" />
    <glyph glyph-name="uni00B2" unicode="&#xb2;" horiz-adv-x="433" 
d="M326 760.5q37 -20.5 37 -81.5q0 -59 -76 -132l-114 -108q23 4 64 4l142 -1l-1 -82h-324v51q0 25 15 39l112 106q39 37 59 64t21 49q2 20 -13.5 26.5t-51.5 6.5q-60 0 -134 -5l-4 70q76 14 146 14q85 0 122 -20.5z" />
    <glyph glyph-name="uni00B3" unicode="&#xb3;" horiz-adv-x="414" 
d="M292.5 773q32.5 -9 46.5 -29.5t14 -57.5q0 -47 -16.5 -73t-60.5 -32v-2q50 -6 69 -32.5t19 -77.5q0 -63 -36 -90t-121 -27q-65 0 -155 11l4 69q69 -4 127 -4q49 0 67.5 12.5t18.5 47.5q0 26 -15.5 39.5t-58.5 13.5h-85v67h85q41 0 54 14.5t13 39.5q0 26 -15.5 35t-59.5 9
q-57 0 -123 -2l-4 67q75 11 142 11q58 0 90.5 -9z" />
    <glyph glyph-name="acute" unicode="&#xb4;" horiz-adv-x="337" 
d="M295 650l-213 -111l-38 54l188 147z" />
    <glyph glyph-name="uni00B5" unicode="&#xb5;" horiz-adv-x="587" 
d="M572 6q-54 -17 -95 -17q-40 0 -63 21t-23 66v11q-24 -42 -65 -70.5t-98 -28.5q-24 0 -41 4v-57l-14 -130h-105v685h121v-318q0 -46 14.5 -61t49.5 -15q37 0 68 25.5t49 69.5t18 97v202h122v-369q0 -25 5 -35t20 -10h30z" />
    <glyph glyph-name="paragraph" unicode="&#xb6;" horiz-adv-x="596" 
d="M428.5 698q44.5 -4 78.5 -13v-685h-87v624q-39 3 -73 3v-837h-85v411q-123 11 -176 69t-53 180q0 93 31.5 148t99 79.5t181.5 24.5q39 0 83.5 -4z" />
    <glyph glyph-name="periodcentered" unicode="&#xb7;" horiz-adv-x="249" 
d="M177.5 316.5q9.5 -9.5 9.5 -33.5v-51q0 -24 -9.5 -33.5t-34.5 -9.5h-36q-25 0 -34.5 9.5t-9.5 33.5v51q0 24 9.5 33.5t34.5 9.5h36q25 0 34.5 -9.5z" />
    <glyph glyph-name="cedilla" unicode="&#xb8;" horiz-adv-x="242" 
d="M137 -36q40 0 58.5 -14.5t18.5 -48.5q0 -65 -43 -101.5t-111 -36.5q-9 0 -31 2l17 59q36 -1 60 15.5t26 45.5q1 14 -11 18t-50 4l12 53q40 4 54 4z" />
    <glyph glyph-name="uni00B9" unicode="&#xb9;" horiz-adv-x="300" 
d="M233 360h-94v288q0 30 4 45l-106 -24l-11 63l113 42h94v-414z" />
    <glyph glyph-name="ordmasculine" unicode="&#xba;" horiz-adv-x="441" 
d="M322 595q37 -17 53.5 -55t16.5 -102t-16.5 -101t-53.5 -54t-101 -17t-101 17t-53.5 54t-16.5 101q0 65 16.5 102.5t53.5 54.5t101 17t101 -17zM173.5 532q-16.5 -9 -23.5 -30.5t-7 -63.5q0 -41 7 -62.5t23.5 -30.5t47.5 -9q30 0 46.5 9t23.5 30.5t7 62.5q0 42 -7 63.5
t-23.5 30.5t-46.5 9q-31 0 -47.5 -9z" />
    <glyph glyph-name="guillemotright" unicode="&#xbb;" horiz-adv-x="504" 
d="M269 264v-26l-160 -202l-64 41l115 174l-114 170l64 41zM465 264v-26l-160 -202l-64 41l115 174l-114 170l64 41z" />
    <glyph glyph-name="onequarter" unicode="&#xbc;" horiz-adv-x="881" 
d="M143 564q0 25 4 45l-106 -24l-11 63l113 42h93v-414h-93v288zM655 690l-428 -690h-82l428 690h82zM845 97l-49 -7v-90h-87v89h-182q-21 0 -35.5 11t-14.5 31q0 14 7 28l117 255h88l-108 -237q-1 -2 -1 -6q0 -5 4.5 -8.5t12.5 -3.5h112v109l15 66h72v-175h49v-62z" />
    <glyph glyph-name="onehalf" unicode="&#xbd;" horiz-adv-x="900" 
d="M236 276h-93v288q0 25 4 45l-106 -24l-11 63l113 42h93v-414zM219 0h-82l429 690h81zM803.5 400q37.5 -21 37.5 -81q0 -57 -76 -132l-114 -108q23 4 64 4l141 -1l-1 -82h-323v51q0 25 14 39l112 106q41 39 61 66.5t20 49.5q0 18 -15.5 24t-49.5 6q-60 0 -134 -5l-4 70
q75 14 145 14q85 0 122.5 -21z" />
    <glyph glyph-name="threequarters" unicode="&#xbe;" horiz-adv-x="970" 
d="M325.5 294q-35.5 -28 -121.5 -28q-65 0 -155 11l4 69q69 -4 126 -4q49 0 67.5 12.5t18.5 46.5q0 26 -15 40t-58 14l-85 2v62l85 3q41 0 53.5 14t12.5 39q0 27 -15.5 36t-59.5 9q-72 0 -122 -3l-4 68q70 10 142 10q58 0 90 -9t46 -29t14 -57q0 -47 -16 -73t-60 -32v-2
q49 -7 68.5 -32.5t19.5 -74.5q0 -64 -35.5 -92zM752 690l-429 -690h-81l428 690h82zM934 97l-48 -7v-90h-87v89h-182q-21 0 -35.5 11t-14.5 31q0 14 7 28l117 255h88l-108 -237q-2 -4 -2 -6q0 -5 5 -8.5t12 -3.5h113v109l15 66h72v-175h48v-62z" />
    <glyph glyph-name="questiondown" unicode="&#xbf;" horiz-adv-x="503" 
d="M312.5 495.5q9.5 -9.5 9.5 -33.5v-52q0 -24 -9.5 -33.5t-34.5 -9.5h-28q-25 0 -34.5 9.5t-9.5 33.5v52q0 24 9.5 33.5t34.5 9.5h28q25 0 34.5 -9.5zM302 200q-13 -39 -32 -66t-50 -63q-30 -32 -44.5 -56t-14.5 -51q0 -36 25.5 -53t82.5 -17q86 0 169 5l29 2l5 -85
q-72 -14 -110 -18.5t-121 -4.5q-105 0 -156.5 38t-51.5 117q0 34 11 61.5t27.5 48t45.5 50.5q30 32 48 54.5t32 54.5t16 72h100q2 -50 -11 -89z" />
    <glyph glyph-name="Agrave" unicode="&#xc0;" horiz-adv-x="636" 
d="M446 195h-256l-57 -195h-128l207 657q4 15 16.5 24t28.5 9h122q16 0 28.5 -9t16.5 -24l207 -657h-128zM416 298l-69 238q-2 9 -7.5 27.5t-7.5 31.5h-27l-16 -59l-69 -238h196zM388 772l-38 -54l-213 111l63 90z" />
    <glyph glyph-name="Aacute" unicode="&#xc1;" horiz-adv-x="636" 
d="M446 195h-256l-57 -195h-128l207 657q4 15 16.5 24t28.5 9h122q16 0 28.5 -9t16.5 -24l207 -657h-128zM416 298l-69 238q-2 9 -7.5 27.5t-7.5 31.5h-27l-16 -59l-69 -238h196zM486 835l-213 -111l-38 54l188 147z" />
    <glyph glyph-name="Acircumflex" unicode="&#xc2;" horiz-adv-x="636" 
d="M446 195h-256l-57 -195h-128l207 657q4 15 16.5 24t28.5 9h122q16 0 28.5 -9t16.5 -24l207 -657h-128zM416 298l-69 238q-2 9 -7.5 27.5t-7.5 31.5h-27l-16 -59l-69 -238h196zM494 765l-39 -50l-133 96h-8l-134 -96l-37 51l131 131h88z" />
    <glyph glyph-name="Atilde" unicode="&#xc3;" horiz-adv-x="636" 
d="M446 195h-256l-57 -195h-128l207 657q4 15 16.5 24t28.5 9h122q16 0 28.5 -9t16.5 -24l207 -657h-128zM416 298l-69 238q-2 9 -7.5 27.5t-7.5 31.5h-27l-16 -59l-69 -238h196zM274 872.5q19 -6.5 45 -18.5q41 -19 68 -23q4 -1 12 -1q18 0 24.5 10.5t6.5 35.5h53
q3 -16 3 -32q0 -48 -23 -73.5t-60 -23.5q-25 2 -45.5 9.5t-48.5 20.5q-23 11 -39 17t-33 6q-19 0 -25.5 -11.5t-6.5 -37.5h-53q-2 22 -2 30q0 50 23.5 76.5t58.5 23.5q23 -2 42 -8.5z" />
    <glyph glyph-name="Adieresis" unicode="&#xc4;" horiz-adv-x="636" 
d="M446 195h-256l-57 -195h-128l207 657q4 15 16.5 24t28.5 9h122q16 0 28.5 -9t16.5 -24l207 -657h-128zM416 298l-69 238q-2 9 -7.5 27.5t-7.5 31.5h-27l-16 -59l-69 -238h196zM278 839v-55q0 -16 -7 -23t-22 -7h-41q-15 0 -22 7t-7 23v55q0 31 29 31h41q29 0 29 -31z
M449.5 861.5q8.5 -8.5 8.5 -22.5v-55q0 -30 -31 -30h-39q-31 0 -31 30v55q0 31 31 31h39q14 0 22.5 -8.5z" />
    <glyph glyph-name="Aring" unicode="&#xc5;" horiz-adv-x="636" 
d="M446 195h-256l-57 -195h-128l207 657q4 15 16.5 24t28.5 9h122q16 0 28.5 -9t16.5 -24l207 -657h-128zM416 298l-69 238q-2 9 -7.5 27.5t-7.5 31.5h-27l-16 -59l-69 -238h196zM398.5 902q33.5 -32 33.5 -79t-33 -78.5t-80 -31.5q-48 0 -80.5 31.5t-32.5 78.5t33 79t80 32
q46 0 79.5 -32zM281 863q-15 -15 -15 -40q0 -24 15.5 -38.5t37.5 -14.5t37.5 14.5t15.5 38.5q0 25 -15.5 40t-37.5 15q-23 0 -38 -15z" />
    <glyph glyph-name="AE" unicode="&#xc6;" horiz-adv-x="921" 
d="M870 102l6 -96q-65 -5 -134 -6.5t-173 -1.5q-55 0 -89 36.5t-34 94.5v73h-217l-107 -202h-130l312 568q25 48 56 74.5t79 37.5t127 11q196 0 310 -7l-6 -97h-248q-27 0 -43 -16.5t-16 -44.5v-116h270v-97h-270v-153q0 -32 13.5 -45t45.5 -13h248zM446 301v239
q0 20 7.5 39.5t18.5 29.5h-9q-22 -14 -48 -57l-133 -251h164z" />
    <glyph glyph-name="Ccedilla" unicode="&#xc7;" horiz-adv-x="578" 
d="M443.5 697q42.5 -5 88.5 -17l-12 -95q-87 7 -186 7q-58 0 -90 -22.5t-45.5 -75.5t-13.5 -149t13.5 -149t45.5 -75.5t90 -22.5q69 0 113.5 2t87.5 8l11 -94q-46 -14 -93.5 -20t-118.5 -6q-105 0 -166 34.5t-88 112t-27 210.5t27 210.5t88 112t166 34.5q67 0 109.5 -5z
M325 -51q40 0 58.5 -14.5t18.5 -48.5q0 -65 -43 -101.5t-111 -36.5q-9 0 -31 2l17 59q36 -1 60 15.5t26 45.5q1 14 -11 18t-50 4l12 53q40 4 54 4z" />
    <glyph glyph-name="Egrave" unicode="&#xc8;" 
d="M517 101l6 -95q-60 -5 -130 -6.5t-174 -1.5q-68 0 -107.5 35t-40.5 96v432q1 61 40.5 96t107.5 35q104 0 174 -1.5t130 -6.5l-6 -96h-270q-27 0 -38.5 -13t-11.5 -45v-121h283v-96h-283v-154q0 -32 11.5 -45t38.5 -13h270zM381 789l-38 -54l-213 111l63 90z" />
    <glyph glyph-name="Eacute" unicode="&#xc9;" 
d="M517 101l6 -95q-60 -5 -130 -6.5t-174 -1.5q-68 0 -107.5 35t-40.5 96v432q1 61 40.5 96t107.5 35q104 0 174 -1.5t130 -6.5l-6 -96h-270q-27 0 -38.5 -13t-11.5 -45v-121h283v-96h-283v-154q0 -32 11.5 -45t38.5 -13h270zM479 852l-213 -111l-38 54l188 147z" />
    <glyph glyph-name="Ecircumflex" unicode="&#xca;" 
d="M517 101l6 -95q-60 -5 -130 -6.5t-174 -1.5q-68 0 -107.5 35t-40.5 96v432q1 61 40.5 96t107.5 35q104 0 174 -1.5t130 -6.5l-6 -96h-270q-27 0 -38.5 -13t-11.5 -45v-121h283v-96h-283v-154q0 -32 11.5 -45t38.5 -13h270zM487 782l-39 -50l-133 96h-8l-134 -96l-37 51
l131 131h88z" />
    <glyph glyph-name="Edieresis" unicode="&#xcb;" 
d="M517 101l6 -95q-60 -5 -130 -6.5t-174 -1.5q-68 0 -107.5 35t-40.5 96v432q1 61 40.5 96t107.5 35q104 0 174 -1.5t130 -6.5l-6 -96h-270q-27 0 -38.5 -13t-11.5 -45v-121h283v-96h-283v-154q0 -32 11.5 -45t38.5 -13h270zM271 856v-55q0 -16 -7 -23t-22 -7h-41
q-15 0 -22 7t-7 23v55q0 31 29 31h41q29 0 29 -31zM442.5 878.5q8.5 -8.5 8.5 -22.5v-55q0 -30 -31 -30h-39q-31 0 -31 30v55q0 31 31 31h39q14 0 22.5 -8.5z" />
    <glyph glyph-name="Igrave" unicode="&#xcc;" horiz-adv-x="279" 
d="M202 0h-125v690h125v-690zM209 781l-38 -54l-213 111l63 90z" />
    <glyph glyph-name="Iacute" unicode="&#xcd;" horiz-adv-x="279" 
d="M202 0h-125v690h125v-690zM308 844l-213 -111l-38 54l188 147z" />
    <glyph glyph-name="Icircumflex" unicode="&#xce;" horiz-adv-x="279" 
d="M202 0h-125v690h125v-690zM316 774l-39 -50l-133 96h-8l-134 -96l-37 51l131 131h88z" />
    <glyph glyph-name="Idieresis" unicode="&#xcf;" horiz-adv-x="279" 
d="M202 0h-125v690h125v-690zM100 848v-55q0 -16 -7 -23t-22 -7h-41q-15 0 -22 7t-7 23v55q0 31 29 31h41q29 0 29 -31zM271.5 870.5q8.5 -8.5 8.5 -22.5v-55q0 -30 -31 -30h-39q-31 0 -31 30v55q0 31 31 31h39q14 0 22.5 -8.5z" />
    <glyph glyph-name="Eth" unicode="&#xd0;" horiz-adv-x="675" 
d="M506 666.5q61 -32.5 88 -109t27 -212.5t-27 -212.5t-88 -109t-167 -32.5q-121 0 -258 9v331h-62v66h62v293q137 9 258 9q106 0 167 -32.5zM429 119q32 23 46 76t14 150t-14 150.5t-46 76.5t-90 23l-132 -1v-197h134v-66h-134v-233q78 -2 132 -2q58 0 90 23z" />
    <glyph glyph-name="Ntilde" unicode="&#xd1;" horiz-adv-x="715" 
d="M638 46q0 -46 -46 -46h-99q-20 0 -32 9t-20 29l-194 423q-11 23 -23.5 52.5t-17.5 50.5h-12q6 -42 6 -104v-460h-123v644q0 22 12 34t35 12h97q20 0 31.5 -9t20.5 -29l188 -411l16 -37q16 -32 32 -72h12q-5 63 -5 112v446h122v-644zM323 881.5q19 -6.5 45 -18.5
q41 -19 68 -23q4 -1 12 -1q18 0 24.5 10.5t6.5 35.5h53q3 -16 3 -32q0 -48 -23 -73.5t-60 -23.5q-25 2 -45.5 9.5t-48.5 20.5q-23 11 -39 17t-33 6q-19 0 -25.5 -11.5t-6.5 -37.5h-53q-2 22 -2 30q0 50 23.5 76.5t58.5 23.5q23 -2 42 -8.5z" />
    <glyph glyph-name="Ograve" unicode="&#xd2;" horiz-adv-x="675" 
d="M506 670q61 -33 88.5 -110t27.5 -215t-27.5 -215t-88.5 -110t-169 -33t-169 33t-88 110t-27 215t27 215t88 110t169 33t169 -33zM245.5 573q-32.5 -23 -46.5 -76.5t-14 -151.5t14 -151.5t46.5 -76.5t91.5 -23q60 0 92.5 23t46.5 76.5t14 151.5t-14 151.5t-46.5 76.5
t-92.5 23q-59 0 -91.5 -23zM408 781l-38 -54l-213 111l63 90z" />
    <glyph glyph-name="Oacute" unicode="&#xd3;" horiz-adv-x="675" 
d="M506 670q61 -33 88.5 -110t27.5 -215t-27.5 -215t-88.5 -110t-169 -33t-169 33t-88 110t-27 215t27 215t88 110t169 33t169 -33zM245.5 573q-32.5 -23 -46.5 -76.5t-14 -151.5t14 -151.5t46.5 -76.5t91.5 -23q60 0 92.5 23t46.5 76.5t14 151.5t-14 151.5t-46.5 76.5
t-92.5 23q-59 0 -91.5 -23zM507 844l-213 -111l-38 54l188 147z" />
    <glyph glyph-name="Ocircumflex" unicode="&#xd4;" horiz-adv-x="675" 
d="M506 670q61 -33 88.5 -110t27.5 -215t-27.5 -215t-88.5 -110t-169 -33t-169 33t-88 110t-27 215t27 215t88 110t169 33t169 -33zM245.5 573q-32.5 -23 -46.5 -76.5t-14 -151.5t14 -151.5t46.5 -76.5t91.5 -23q60 0 92.5 23t46.5 76.5t14 151.5t-14 151.5t-46.5 76.5
t-92.5 23q-59 0 -91.5 -23zM515 774l-39 -50l-133 96h-8l-134 -96l-37 51l131 131h88z" />
    <glyph glyph-name="Otilde" unicode="&#xd5;" horiz-adv-x="675" 
d="M506 670q61 -33 88.5 -110t27.5 -215t-27.5 -215t-88.5 -110t-169 -33t-169 33t-88 110t-27 215t27 215t88 110t169 33t169 -33zM245.5 573q-32.5 -23 -46.5 -76.5t-14 -151.5t14 -151.5t46.5 -76.5t91.5 -23q60 0 92.5 23t46.5 76.5t14 151.5t-14 151.5t-46.5 76.5
t-92.5 23q-59 0 -91.5 -23zM294 881.5q19 -6.5 45 -18.5q41 -19 68 -23q4 -1 12 -1q18 0 24.5 10.5t6.5 35.5h53q3 -16 3 -32q0 -48 -23 -73.5t-60 -23.5q-25 2 -45.5 9.5t-48.5 20.5q-23 11 -39 17t-33 6q-19 0 -25.5 -11.5t-6.5 -37.5h-53q-2 22 -2 30q0 50 23.5 76.5
t58.5 23.5q23 -2 42 -8.5z" />
    <glyph glyph-name="Odieresis" unicode="&#xd6;" horiz-adv-x="675" 
d="M506 670q61 -33 88.5 -110t27.5 -215t-27.5 -215t-88.5 -110t-169 -33t-169 33t-88 110t-27 215t27 215t88 110t169 33t169 -33zM245.5 573q-32.5 -23 -46.5 -76.5t-14 -151.5t14 -151.5t46.5 -76.5t91.5 -23q60 0 92.5 23t46.5 76.5t14 151.5t-14 151.5t-46.5 76.5
t-92.5 23q-59 0 -91.5 -23zM299 848v-55q0 -16 -7 -23t-22 -7h-41q-15 0 -22 7t-7 23v55q0 31 29 31h41q29 0 29 -31zM470.5 870.5q8.5 -8.5 8.5 -22.5v-55q0 -30 -31 -30h-39q-31 0 -31 30v55q0 31 31 31h39q14 0 22.5 -8.5z" />
    <glyph glyph-name="multiply" unicode="&#xd7;" horiz-adv-x="486" 
d="M313 291l141 -127l-58 -70l-151 135l-150 -135l-59 70l141 127l-141 126l59 70l150 -135l151 135l58 -70z" />
    <glyph glyph-name="Oslash" unicode="&#xd8;" horiz-adv-x="675" 
d="M597.5 552q24.5 -76 24.5 -207q0 -138 -27.5 -215t-88.5 -110t-169 -33q-77 0 -128 16l-30 -64l-56 23l31 67q-54 36 -77.5 111.5t-23.5 204.5q0 138 27 215t88 110t169 33q73 0 126 -15l31 66l55 -23l-32 -67q56 -36 80.5 -112zM213 155l201 427q-29 14 -77 14
q-59 0 -91.5 -23t-46.5 -76.5t-14 -151.5q0 -135 28 -190zM429.5 117q32.5 23 46.5 76.5t14 151.5q0 72 -7 119t-24 75l-201 -430q29 -15 79 -15q60 0 92.5 23z" />
    <glyph glyph-name="Ugrave" unicode="&#xd9;" horiz-adv-x="671" 
d="M599 270q0 -104 -25 -165.5t-81.5 -89.5t-151.5 -28q-100 0 -158 28t-84.5 89.5t-26.5 165.5v420h125v-420q0 -67 13 -105t43 -54.5t83 -16.5q52 0 81.5 16.5t42.5 54.5t13 105v420h126v-420zM405 781l-38 -54l-213 111l63 90z" />
    <glyph glyph-name="Uacute" unicode="&#xda;" horiz-adv-x="671" 
d="M599 270q0 -104 -25 -165.5t-81.5 -89.5t-151.5 -28q-100 0 -158 28t-84.5 89.5t-26.5 165.5v420h125v-420q0 -67 13 -105t43 -54.5t83 -16.5q52 0 81.5 16.5t42.5 54.5t13 105v420h126v-420zM504 844l-213 -111l-38 54l188 147z" />
    <glyph glyph-name="Ucircumflex" unicode="&#xdb;" horiz-adv-x="671" 
d="M599 270q0 -104 -25 -165.5t-81.5 -89.5t-151.5 -28q-100 0 -158 28t-84.5 89.5t-26.5 165.5v420h125v-420q0 -67 13 -105t43 -54.5t83 -16.5q52 0 81.5 16.5t42.5 54.5t13 105v420h126v-420zM512 774l-39 -50l-133 96h-8l-134 -96l-37 51l131 131h88z" />
    <glyph glyph-name="Udieresis" unicode="&#xdc;" horiz-adv-x="671" 
d="M599 270q0 -104 -25 -165.5t-81.5 -89.5t-151.5 -28q-100 0 -158 28t-84.5 89.5t-26.5 165.5v420h125v-420q0 -67 13 -105t43 -54.5t83 -16.5q52 0 81.5 16.5t42.5 54.5t13 105v420h126v-420zM296 848v-55q0 -16 -7 -23t-22 -7h-41q-15 0 -22 7t-7 23v55q0 31 29 31h41
q29 0 29 -31zM467.5 870.5q8.5 -8.5 8.5 -22.5v-55q0 -30 -31 -30h-39q-31 0 -31 30v55q0 31 31 31h39q14 0 22.5 -8.5z" />
    <glyph glyph-name="Yacute" unicode="&#xdd;" horiz-adv-x="589" 
d="M357 233v-233h-125v235l-227 455h132l126 -268q9 -20 17 -47.5t11 -35.5h8q3 8 11 35.5t17 47.5l126 268h130zM464 832l-213 -111l-38 54l188 147z" />
    <glyph glyph-name="Thorn" unicode="&#xde;" horiz-adv-x="601" 
d="M468 553q50 -20 72 -68t22 -138q0 -89 -21 -137t-68 -67.5t-131 -19.5q-72 0 -139 8v-131h-126v690h126v-118q34 1 124 1q91 0 141 -20zM391.5 237q23.5 10 34 35.5t10.5 74.5q0 50 -10.5 76t-34 36.5t-68.5 10.5q-85 0 -120 -1v-243h120q45 1 68.5 11z" />
    <glyph glyph-name="germandbls" unicode="&#xdf;" horiz-adv-x="691" 
d="M644.5 208.5q18.5 -27.5 18.5 -78.5q0 -55 -19.5 -85.5t-59.5 -43t-107 -12.5q-74 0 -162 11l7 87q69 -3 128 -3q38 0 57 3t27.5 14t8.5 34t-12.5 34.5t-52.5 34.5l-88 46q-78 42 -78 116q0 39 19.5 62t61.5 53q8 5 24 17q32 24 43.5 40.5t11.5 39.5q0 18 -8.5 29.5
t-34 18t-75.5 6.5t-75.5 -8t-36 -28t-10.5 -60v-536h-122v401h-87v89h87v60q0 72 26 110.5t77 52.5t136 14q90 0 141 -13.5t73 -44.5t22 -86q0 -37 -15.5 -66t-61.5 -63q-9 -7 -31 -22q-29 -21 -39.5 -32t-10.5 -30t13 -29.5t51 -31.5l88 -47q47 -26 65.5 -53.5z" />
    <glyph glyph-name="agrave" unicode="&#xe0;" horiz-adv-x="558" 
d="M449.5 466q44.5 -38 44.5 -133v-333h-96l-13 74q-32 -35 -79.5 -60t-107.5 -25q-69 0 -112 37.5t-43 104.5v50q0 59 38 91t107 32h184v30q-1 29 -8.5 43.5t-26.5 20.5t-55 6q-77 0 -205 -10l-12 86q53 10 125 17t120 7q95 0 139.5 -38zM179.5 101.5
q15.5 -14.5 48.5 -14.5q31 0 69.5 14.5t74.5 43.5v76h-156q-29 -1 -40.5 -15t-11.5 -40v-19q0 -31 15.5 -45.5zM348 602l-38 -54l-213 111l63 90z" />
    <glyph glyph-name="aacute" unicode="&#xe1;" horiz-adv-x="558" 
d="M449.5 466q44.5 -38 44.5 -133v-333h-96l-13 74q-32 -35 -79.5 -60t-107.5 -25q-69 0 -112 37.5t-43 104.5v50q0 59 38 91t107 32h184v30q-1 29 -8.5 43.5t-26.5 20.5t-55 6q-77 0 -205 -10l-12 86q53 10 125 17t120 7q95 0 139.5 -38zM179.5 101.5
q15.5 -14.5 48.5 -14.5q31 0 69.5 14.5t74.5 43.5v76h-156q-29 -1 -40.5 -15t-11.5 -40v-19q0 -31 15.5 -45.5zM447 665l-213 -111l-38 54l188 147z" />
    <glyph glyph-name="acircumflex" unicode="&#xe2;" horiz-adv-x="558" 
d="M449.5 466q44.5 -38 44.5 -133v-333h-96l-13 74q-32 -35 -79.5 -60t-107.5 -25q-69 0 -112 37.5t-43 104.5v50q0 59 38 91t107 32h184v30q-1 29 -8.5 43.5t-26.5 20.5t-55 6q-77 0 -205 -10l-12 86q53 10 125 17t120 7q95 0 139.5 -38zM179.5 101.5
q15.5 -14.5 48.5 -14.5q31 0 69.5 14.5t74.5 43.5v76h-156q-29 -1 -40.5 -15t-11.5 -40v-19q0 -31 15.5 -45.5zM455 595l-39 -50l-133 96h-8l-134 -96l-37 51l131 131h88z" />
    <glyph glyph-name="atilde" unicode="&#xe3;" horiz-adv-x="558" 
d="M449.5 466q44.5 -38 44.5 -133v-333h-96l-13 74q-32 -35 -79.5 -60t-107.5 -25q-69 0 -112 37.5t-43 104.5v50q0 59 38 91t107 32h184v30q-1 29 -8.5 43.5t-26.5 20.5t-55 6q-77 0 -205 -10l-12 86q53 10 125 17t120 7q95 0 139.5 -38zM179.5 101.5
q15.5 -14.5 48.5 -14.5q31 0 69.5 14.5t74.5 43.5v76h-156q-29 -1 -40.5 -15t-11.5 -40v-19q0 -31 15.5 -45.5zM235 702.5q19 -6.5 45 -18.5q41 -19 68 -23q4 -1 12 -1q18 0 24.5 10.5t6.5 35.5h53q3 -16 3 -32q0 -48 -23 -73.5t-60 -23.5q-25 2 -45.5 9.5t-48.5 20.5
q-23 11 -39 17t-33 6q-19 0 -25.5 -11.5t-6.5 -37.5h-53q-2 22 -2 30q0 50 23.5 76.5t58.5 23.5q23 -2 42 -8.5z" />
    <glyph glyph-name="adieresis" unicode="&#xe4;" horiz-adv-x="558" 
d="M449.5 466q44.5 -38 44.5 -133v-333h-96l-13 74q-32 -35 -79.5 -60t-107.5 -25q-69 0 -112 37.5t-43 104.5v50q0 59 38 91t107 32h184v30q-1 29 -8.5 43.5t-26.5 20.5t-55 6q-77 0 -205 -10l-12 86q53 10 125 17t120 7q95 0 139.5 -38zM179.5 101.5
q15.5 -14.5 48.5 -14.5q31 0 69.5 14.5t74.5 43.5v76h-156q-29 -1 -40.5 -15t-11.5 -40v-19q0 -31 15.5 -45.5zM239 669v-55q0 -16 -7 -23t-22 -7h-41q-15 0 -22 7t-7 23v55q0 31 29 31h41q29 0 29 -31zM410.5 691.5q8.5 -8.5 8.5 -22.5v-55q0 -30 -31 -30h-39q-31 0 -31 30
v55q0 31 31 31h39q14 0 22.5 -8.5z" />
    <glyph glyph-name="aring" unicode="&#xe5;" horiz-adv-x="558" 
d="M449.5 466q44.5 -38 44.5 -133v-333h-96l-13 74q-32 -35 -79.5 -60t-107.5 -25q-69 0 -112 37.5t-43 104.5v50q0 59 38 91t107 32h184v30q-1 29 -8.5 43.5t-26.5 20.5t-55 6q-77 0 -205 -10l-12 86q53 10 125 17t120 7q95 0 139.5 -38zM179.5 101.5
q15.5 -14.5 48.5 -14.5q31 0 69.5 14.5t74.5 43.5v76h-156q-29 -1 -40.5 -15t-11.5 -40v-19q0 -31 15.5 -45.5zM359.5 732q33.5 -32 33.5 -79t-33 -78.5t-80 -31.5q-48 0 -80.5 31.5t-32.5 78.5t33 79t80 32q46 0 79.5 -32zM242 693q-15 -15 -15 -40q0 -24 15.5 -38.5
t37.5 -14.5t37.5 14.5t15.5 38.5q0 25 -15.5 40t-37.5 15q-23 0 -38 -15z" />
    <glyph glyph-name="ae" unicode="&#xe6;" horiz-adv-x="870" 
d="M805 99l11 -78q-36 -17 -91.5 -25t-110.5 -8q-86 0 -138.5 24t-77.5 76q-31 -39 -82.5 -69t-117.5 -30q-69 0 -112 37.5t-43 104.5v50q0 58 38 90.5t106 32.5h184v30q0 42 -18.5 56t-71.5 14q-77 0 -205 -10l-11 86q53 10 124.5 17t119.5 7q97 0 139 -38q53 38 159 38
q116 0 168.5 -42t53.5 -128q0 -140 -131 -140h-200q5 -44 19.5 -67t41 -31.5t71.5 -8.5q74 0 175 12zM544 397q-24 -11 -35.5 -38.5t-13.5 -79.5h169q26 0 35 16t9 41q0 40 -20.5 56t-75.5 16q-44 0 -68 -11zM301.5 103q40.5 16 76.5 48q-7 35 -8 69l-154 1
q-29 -1 -40.5 -15t-11.5 -40v-19q0 -32 15 -46t49 -14q33 0 73.5 16z" />
    <glyph glyph-name="ccedilla" unicode="&#xe7;" horiz-adv-x="498" 
d="M375 497q47 -7 82 -21l-14 -76q-49 2 -136 2q-51 0 -80 -14t-41.5 -47t-12.5 -95t12.5 -96t41.5 -48t80 -14q80 0 147 10l11 -80q-73 -30 -180 -30q-89 0 -140.5 25t-75 81t-23.5 152t23.5 152t75.5 81t141 25q42 0 89 -7zM278 -49q40 0 58.5 -14.5t18.5 -48.5
q0 -65 -43 -101.5t-111 -36.5q-9 0 -31 2l17 59q36 -1 60 15.5t26 45.5q1 14 -11 18t-50 4l12 53q40 4 54 4z" />
    <glyph glyph-name="egrave" unicode="&#xe8;" horiz-adv-x="548" 
d="M482 99l11 -78q-36 -17 -92 -25t-110 -8q-90 0 -143 26t-77.5 82t-24.5 150q0 97 24.5 153t76 80.5t136.5 24.5q117 0 170 -42.5t53 -127.5q0 -140 -131 -140h-200q5 -44 19.5 -67t40.5 -31.5t71 -8.5q75 0 176 12zM220 397q-24 -11 -35 -38.5t-13 -79.5h169q26 0 35 16
t9 41q0 40 -21 56t-76 16q-44 0 -68 -11zM356 601l-38 -54l-213 111l63 90z" />
    <glyph glyph-name="eacute" unicode="&#xe9;" horiz-adv-x="548" 
d="M482 99l11 -78q-36 -17 -92 -25t-110 -8q-90 0 -143 26t-77.5 82t-24.5 150q0 97 24.5 153t76 80.5t136.5 24.5q117 0 170 -42.5t53 -127.5q0 -140 -131 -140h-200q5 -44 19.5 -67t40.5 -31.5t71 -8.5q75 0 176 12zM220 397q-24 -11 -35 -38.5t-13 -79.5h169q26 0 35 16
t9 41q0 40 -21 56t-76 16q-44 0 -68 -11zM455 664l-213 -111l-38 54l188 147z" />
    <glyph glyph-name="ecircumflex" unicode="&#xea;" horiz-adv-x="548" 
d="M482 99l11 -78q-36 -17 -92 -25t-110 -8q-90 0 -143 26t-77.5 82t-24.5 150q0 97 24.5 153t76 80.5t136.5 24.5q117 0 170 -42.5t53 -127.5q0 -140 -131 -140h-200q5 -44 19.5 -67t40.5 -31.5t71 -8.5q75 0 176 12zM220 397q-24 -11 -35 -38.5t-13 -79.5h169q26 0 35 16
t9 41q0 40 -21 56t-76 16q-44 0 -68 -11zM463 594l-39 -50l-133 96h-8l-134 -96l-37 51l131 131h88z" />
    <glyph glyph-name="edieresis" unicode="&#xeb;" horiz-adv-x="548" 
d="M482 99l11 -78q-36 -17 -92 -25t-110 -8q-90 0 -143 26t-77.5 82t-24.5 150q0 97 24.5 153t76 80.5t136.5 24.5q117 0 170 -42.5t53 -127.5q0 -140 -131 -140h-200q5 -44 19.5 -67t40.5 -31.5t71 -8.5q75 0 176 12zM220 397q-24 -11 -35 -38.5t-13 -79.5h169q26 0 35 16
t9 41q0 40 -21 56t-76 16q-44 0 -68 -11zM246 668v-55q0 -16 -7 -23t-22 -7h-41q-15 0 -22 7t-7 23v55q0 31 29 31h41q29 0 29 -31zM417.5 690.5q8.5 -8.5 8.5 -22.5v-55q0 -30 -31 -30h-39q-31 0 -31 30v55q0 31 31 31h39q14 0 22.5 -8.5z" />
    <glyph glyph-name="igrave" unicode="&#xec;" horiz-adv-x="266" 
d="M194 0h-122v490h122v-490zM202 602l-38 -54l-213 111l63 90z" />
    <glyph glyph-name="iacute" unicode="&#xed;" horiz-adv-x="266" 
d="M194 0h-122v490h122v-490zM301 665l-213 -111l-38 54l188 147z" />
    <glyph glyph-name="icircumflex" unicode="&#xee;" horiz-adv-x="266" 
d="M194 0h-122v490h122v-490zM309 595l-39 -50l-133 96h-8l-134 -96l-37 51l131 131h88z" />
    <glyph glyph-name="idieresis" unicode="&#xef;" horiz-adv-x="266" 
d="M194 0h-122v490h122v-490zM93 669v-55q0 -16 -7 -23t-22 -7h-41q-15 0 -22 7t-7 23v55q0 31 29 31h41q29 0 29 -31zM264.5 691.5q8.5 -8.5 8.5 -22.5v-55q0 -30 -31 -30h-39q-31 0 -31 30v55q0 31 31 31h39q14 0 22.5 -8.5z" />
    <glyph glyph-name="eth" unicode="&#xf0;" 
d="M515 285q0 -100 -21.5 -165t-73 -99t-140.5 -34q-120 0 -176.5 55.5t-56.5 174.5q0 117 48.5 175t159.5 58q72 0 122 -27q-17 87 -64 134l-72 -58l-40 48l58 46q-52 23 -138 20l12 85l28 1q102 0 178 -41l76 61l40 -49l-61 -49q121 -106 121 -336zM350.5 105
q23.5 21 31 63.5t7.5 119.5q0 35 -1 52q-49 13 -109 13q-58 0 -81.5 -31.5t-23.5 -102.5q0 -75 24.5 -105t82.5 -30q46 0 69.5 21z" />
    <glyph glyph-name="ntilde" unicode="&#xf1;" horiz-adv-x="590" 
d="M490 469q35 -35 35 -101v-368h-122v331q0 41 -11 55.5t-41 14.5q-34 0 -68.5 -13.5t-93.5 -46.5l1 -341h-122v490h102l8 -73q113 87 212 87q65 0 100 -35zM263 701.5q19 -6.5 45 -18.5q41 -19 68 -23q4 -1 12 -1q18 0 24.5 10.5t6.5 35.5h53q3 -16 3 -32q0 -48 -23 -73.5
t-60 -23.5q-25 2 -45.5 9.5t-48.5 20.5q-23 11 -39 17t-33 6q-19 0 -25.5 -11.5t-6.5 -37.5h-53q-2 22 -2 30q0 50 23.5 76.5t58.5 23.5q23 -2 42 -8.5z" />
    <glyph glyph-name="ograve" unicode="&#xf2;" horiz-adv-x="576" 
d="M430.5 478.5q52.5 -25.5 76 -82t23.5 -151.5t-23.5 -151t-76 -81.5t-141.5 -25.5q-90 0 -142.5 25.5t-76.5 81.5t-24 151t24 151.5t77 82t142 25.5t141.5 -25.5zM218.5 393q-24.5 -14 -35 -48.5t-10.5 -99.5q0 -64 10.5 -98.5t35 -48.5t70.5 -14q45 0 69.5 14t35 48.5
t10.5 98.5q0 65 -10.5 99.5t-35 48.5t-69.5 14q-46 0 -70.5 -14zM359 596l-38 -54l-213 111l63 90z" />
    <glyph glyph-name="oacute" unicode="&#xf3;" horiz-adv-x="576" 
d="M430.5 478.5q52.5 -25.5 76 -82t23.5 -151.5t-23.5 -151t-76 -81.5t-141.5 -25.5q-90 0 -142.5 25.5t-76.5 81.5t-24 151t24 151.5t77 82t142 25.5t141.5 -25.5zM218.5 393q-24.5 -14 -35 -48.5t-10.5 -99.5q0 -64 10.5 -98.5t35 -48.5t70.5 -14q45 0 69.5 14t35 48.5
t10.5 98.5q0 65 -10.5 99.5t-35 48.5t-69.5 14q-46 0 -70.5 -14zM458 659l-213 -111l-38 54l188 147z" />
    <glyph glyph-name="ocircumflex" unicode="&#xf4;" horiz-adv-x="576" 
d="M430.5 478.5q52.5 -25.5 76 -82t23.5 -151.5t-23.5 -151t-76 -81.5t-141.5 -25.5q-90 0 -142.5 25.5t-76.5 81.5t-24 151t24 151.5t77 82t142 25.5t141.5 -25.5zM218.5 393q-24.5 -14 -35 -48.5t-10.5 -99.5q0 -64 10.5 -98.5t35 -48.5t70.5 -14q45 0 69.5 14t35 48.5
t10.5 98.5q0 65 -10.5 99.5t-35 48.5t-69.5 14q-46 0 -70.5 -14zM466 589l-39 -50l-133 96h-8l-134 -96l-37 51l131 131h88z" />
    <glyph glyph-name="otilde" unicode="&#xf5;" horiz-adv-x="576" 
d="M430.5 478.5q52.5 -25.5 76 -82t23.5 -151.5t-23.5 -151t-76 -81.5t-141.5 -25.5q-90 0 -142.5 25.5t-76.5 81.5t-24 151t24 151.5t77 82t142 25.5t141.5 -25.5zM218.5 393q-24.5 -14 -35 -48.5t-10.5 -99.5q0 -64 10.5 -98.5t35 -48.5t70.5 -14q45 0 69.5 14t35 48.5
t10.5 98.5q0 65 -10.5 99.5t-35 48.5t-69.5 14q-46 0 -70.5 -14zM245 696.5q19 -6.5 45 -18.5q41 -19 68 -23q4 -1 12 -1q18 0 24.5 10.5t6.5 35.5h53q3 -16 3 -32q0 -48 -23 -73.5t-60 -23.5q-25 2 -45.5 9.5t-48.5 20.5q-23 11 -39 17t-33 6q-19 0 -25.5 -11.5t-6.5 -37.5
h-53q-2 22 -2 30q0 50 23.5 76.5t58.5 23.5q23 -2 42 -8.5z" />
    <glyph glyph-name="odieresis" unicode="&#xf6;" horiz-adv-x="576" 
d="M430.5 478.5q52.5 -25.5 76 -82t23.5 -151.5t-23.5 -151t-76 -81.5t-141.5 -25.5q-90 0 -142.5 25.5t-76.5 81.5t-24 151t24 151.5t77 82t142 25.5t141.5 -25.5zM218.5 393q-24.5 -14 -35 -48.5t-10.5 -99.5q0 -64 10.5 -98.5t35 -48.5t70.5 -14q45 0 69.5 14t35 48.5
t10.5 98.5q0 65 -10.5 99.5t-35 48.5t-69.5 14q-46 0 -70.5 -14zM250 663v-55q0 -16 -7 -23t-22 -7h-41q-15 0 -22 7t-7 23v55q0 31 29 31h41q29 0 29 -31zM421.5 685.5q8.5 -8.5 8.5 -22.5v-55q0 -30 -31 -30h-39q-31 0 -31 30v55q0 31 31 31h39q14 0 22.5 -8.5z" />
    <glyph glyph-name="divide" unicode="&#xf7;" horiz-adv-x="560" 
d="M328.5 529.5q9.5 -9.5 9.5 -34.5v-41q0 -25 -9.5 -34t-34.5 -9h-30q-25 0 -34.5 9t-9.5 34v41q0 25 9.5 34.5t34.5 9.5h30q25 0 34.5 -9.5zM505 250h-450v88h450v-88zM328.5 166.5q9.5 -9.5 9.5 -34.5v-40q0 -25 -9.5 -34.5t-34.5 -9.5h-30q-25 0 -34.5 9.5t-9.5 34.5v40
q0 25 9.5 34.5t34.5 9.5h30q25 0 34.5 -9.5z" />
    <glyph glyph-name="oslash" unicode="&#xf8;" horiz-adv-x="576" 
d="M505 399q25 -57 25 -154q0 -95 -23.5 -151t-76 -81.5t-141.5 -25.5q-48 0 -90 8l-36 -77l-47 22l33 71q-54 26 -78.5 82.5t-24.5 151.5t24 151.5t77 82t142 25.5q50 0 85 -7l35 75l47 -23l-32 -68q56 -25 81 -82zM179 165q6 -31 19 -49l133 287q-16 4 -42 4
q-46 0 -70.5 -14t-35 -48.5t-10.5 -99.5q0 -49 6 -80zM358.5 98q24.5 14 35 48.5t10.5 98.5q0 51 -6.5 82.5t-21.5 50.5l-134 -289q16 -5 47 -5q45 0 69.5 14z" />
    <glyph glyph-name="ugrave" unicode="&#xf9;" horiz-adv-x="579" 
d="M511 490v-490h-96l-9 66q-53 -40 -103 -59.5t-102 -19.5q-67 0 -101.5 34.5t-34.5 101.5v367h122v-331q-1 -39 12 -54t48 -15q30 0 62 12.5t81 40.5v347h121zM358 606l-38 -54l-213 111l63 90z" />
    <glyph glyph-name="uacute" unicode="&#xfa;" horiz-adv-x="579" 
d="M511 490v-490h-96l-9 66q-53 -40 -103 -59.5t-102 -19.5q-67 0 -101.5 34.5t-34.5 101.5v367h122v-331q-1 -39 12 -54t48 -15q30 0 62 12.5t81 40.5v347h121zM457 669l-213 -111l-38 54l188 147z" />
    <glyph glyph-name="ucircumflex" unicode="&#xfb;" horiz-adv-x="579" 
d="M511 490v-490h-96l-9 66q-53 -40 -103 -59.5t-102 -19.5q-67 0 -101.5 34.5t-34.5 101.5v367h122v-331q-1 -39 12 -54t48 -15q30 0 62 12.5t81 40.5v347h121zM465 599l-39 -50l-133 96h-8l-134 -96l-37 51l131 131h88z" />
    <glyph glyph-name="udieresis" unicode="&#xfc;" horiz-adv-x="579" 
d="M511 490v-490h-96l-9 66q-53 -40 -103 -59.5t-102 -19.5q-67 0 -101.5 34.5t-34.5 101.5v367h122v-331q-1 -39 12 -54t48 -15q30 0 62 12.5t81 40.5v347h121zM249 673v-55q0 -16 -7 -23t-22 -7h-41q-15 0 -22 7t-7 23v55q0 31 29 31h41q29 0 29 -31zM420.5 695.5
q8.5 -8.5 8.5 -22.5v-55q0 -30 -31 -30h-39q-31 0 -31 30v55q0 31 31 31h39q14 0 22.5 -8.5z" />
    <glyph glyph-name="yacute" unicode="&#xfd;" horiz-adv-x="546" 
d="M533 490l-182 -505q-29 -83 -89 -138t-158 -50l-10 77q58 16 92 43.5t52 71.5l5 11h-24q-15 0 -26 8t-15 22l-166 460h129l107 -337q10 -31 16 -65h14l20 65l105 337h130zM443 665l-213 -111l-38 54l188 147z" />
    <glyph glyph-name="thorn" unicode="&#xfe;" horiz-adv-x="584" 
d="M495 439.5q41 -62.5 41 -198.5q0 -96 -19.5 -151.5t-59 -79t-103.5 -23.5q-91 0 -167 40q3 -45 3 -93v-129h-122v895h122v-149q0 -37 -4 -109q75 60 173 60q95 0 136 -62.5zM369.5 95q21.5 14 31.5 48.5t10 97.5q0 64 -9.5 99t-30 49t-55.5 14q-30 0 -60 -13.5t-66 -39.5
v-240q38 -14 66.5 -21.5t54.5 -7.5q37 0 58.5 14z" />
    <glyph glyph-name="ydieresis" unicode="&#xff;" horiz-adv-x="546" 
d="M533 490l-182 -505q-29 -83 -89 -138t-158 -50l-10 77q58 16 92 43.5t52 71.5l5 11h-24q-15 0 -26 8t-15 22l-166 460h129l107 -337q10 -31 16 -65h14l20 65l105 337h130zM235 669v-55q0 -16 -7 -23t-22 -7h-41q-15 0 -22 7t-7 23v55q0 31 29 31h41q29 0 29 -31z
M406.5 691.5q8.5 -8.5 8.5 -22.5v-55q0 -30 -31 -30h-39q-31 0 -31 30v55q0 31 31 31h39q14 0 22.5 -8.5z" />
    <glyph glyph-name="Amacron" unicode="&#x100;" horiz-adv-x="636" 
d="M446 195h-256l-57 -195h-128l207 657q4 15 16.5 24t28.5 9h122q16 0 28.5 -9t16.5 -24l207 -657h-128zM416 298l-69 238q-2 9 -7.5 27.5t-7.5 31.5h-27l-16 -59l-69 -238h196zM464 769h-290v84h290v-84z" />
    <glyph glyph-name="amacron" unicode="&#x101;" horiz-adv-x="558" 
d="M449.5 466q44.5 -38 44.5 -133v-333h-96l-13 74q-32 -35 -79.5 -60t-107.5 -25q-69 0 -112 37.5t-43 104.5v50q0 59 38 91t107 32h184v30q-1 29 -8.5 43.5t-26.5 20.5t-55 6q-77 0 -205 -10l-12 86q53 10 125 17t120 7q95 0 139.5 -38zM179.5 101.5
q15.5 -14.5 48.5 -14.5q31 0 69.5 14.5t74.5 43.5v76h-156q-29 -1 -40.5 -15t-11.5 -40v-19q0 -31 15.5 -45.5zM425 599h-290v84h290v-84z" />
    <glyph glyph-name="Abreve" unicode="&#x102;" horiz-adv-x="636" 
d="M446 195h-256l-57 -195h-128l207 657q4 15 16.5 24t28.5 9h122q16 0 28.5 -9t16.5 -24l207 -657h-128zM416 298l-69 238q-2 9 -7.5 27.5t-7.5 31.5h-27l-16 -59l-69 -238h196zM476 875l1 -14q0 -57 -43 -93t-115 -36q-73 0 -116.5 36t-43.5 93l1 14l59 8q0 -32 25 -49
t75 -17q48 0 73 17t25 49z" />
    <glyph glyph-name="abreve" unicode="&#x103;" horiz-adv-x="558" 
d="M449.5 466q44.5 -38 44.5 -133v-333h-96l-13 74q-32 -35 -79.5 -60t-107.5 -25q-69 0 -112 37.5t-43 104.5v50q0 59 38 91t107 32h184v30q-1 29 -8.5 43.5t-26.5 20.5t-55 6q-77 0 -205 -10l-12 86q53 10 125 17t120 7q95 0 139.5 -38zM179.5 101.5
q15.5 -14.5 48.5 -14.5q31 0 69.5 14.5t74.5 43.5v76h-156q-29 -1 -40.5 -15t-11.5 -40v-19q0 -31 15.5 -45.5zM437 705l1 -14q0 -57 -43 -93t-115 -36q-73 0 -116.5 36t-43.5 93l1 14l59 8q0 -32 25 -49t75 -17q48 0 73 17t25 49z" />
    <glyph glyph-name="Aogonek" unicode="&#x104;" horiz-adv-x="636" 
d="M648 -193q-50 -21 -92 -21q-38 0 -58.5 18.5t-20.5 48.5q0 16 6 33q20 59 95 114h-75l-57 195h-256l-57 -195h-128l207 657q4 15 16.5 24t28.5 9h122q16 0 28.5 -9t16.5 -24l207 -657h1q-23 -29 -39 -53t-27 -53q-6 -14 -6 -22q0 -25 33 -25q16 0 42 8zM416 298l-69 238
q-2 9 -7.5 27.5t-7.5 31.5h-27l-16 -59l-69 -238h196z" />
    <glyph glyph-name="aogonek" unicode="&#x105;" horiz-adv-x="558" 
d="M509 -193q-50 -21 -92 -21q-38 0 -58.5 18.5t-20.5 48.5q0 16 6 33q20 59 95 114h-41l-13 74q-32 -35 -79.5 -60t-107.5 -25q-69 0 -112 37.5t-43 104.5v50q0 59 38 91t107 32h184v30q-1 29 -8.5 43.5t-26.5 20.5t-55 6q-77 0 -205 -10l-12 86q53 10 125 17t120 7
q95 0 139.5 -38t44.5 -133v-333h-1q-23 -29 -39 -53t-27 -53q-6 -14 -6 -22q0 -25 33 -25q16 0 42 8zM179.5 101.5q15.5 -14.5 48.5 -14.5q31 0 69.5 14.5t74.5 43.5v76h-156q-29 -1 -40.5 -15t-11.5 -40v-19q0 -31 15.5 -45.5z" />
    <glyph glyph-name="Cacute" unicode="&#x106;" horiz-adv-x="578" 
d="M443.5 697q42.5 -5 88.5 -17l-12 -95q-87 7 -186 7q-58 0 -90 -22.5t-45.5 -75.5t-13.5 -149t13.5 -149t45.5 -75.5t90 -22.5q69 0 113.5 2t87.5 8l11 -94q-46 -14 -93.5 -20t-118.5 -6q-105 0 -166 34.5t-88 112t-27 210.5t27 210.5t88 112t166 34.5q67 0 109.5 -5z
M491 844l-213 -111l-38 54l188 147z" />
    <glyph glyph-name="cacute" unicode="&#x107;" horiz-adv-x="498" 
d="M375 497q47 -7 82 -21l-14 -76q-49 2 -136 2q-51 0 -80 -14t-41.5 -47t-12.5 -95t12.5 -96t41.5 -48t80 -14q80 0 147 10l11 -80q-73 -30 -180 -30q-89 0 -140.5 25t-75 81t-23.5 152t23.5 152t75.5 81t141 25q42 0 89 -7zM437 665l-213 -111l-38 54l188 147z" />
    <glyph glyph-name="Ccircumflex" unicode="&#x108;" horiz-adv-x="578" 
d="M443.5 697q42.5 -5 88.5 -17l-12 -95q-87 7 -186 7q-58 0 -90 -22.5t-45.5 -75.5t-13.5 -149t13.5 -149t45.5 -75.5t90 -22.5q69 0 113.5 2t87.5 8l11 -94q-46 -14 -93.5 -20t-118.5 -6q-105 0 -166 34.5t-88 112t-27 210.5t27 210.5t88 112t166 34.5q67 0 109.5 -5z
M499 774l-39 -50l-133 96h-8l-134 -96l-37 51l131 131h88z" />
    <glyph glyph-name="ccircumflex" unicode="&#x109;" horiz-adv-x="498" 
d="M375 497q47 -7 82 -21l-14 -76q-49 2 -136 2q-51 0 -80 -14t-41.5 -47t-12.5 -95t12.5 -96t41.5 -48t80 -14q80 0 147 10l11 -80q-73 -30 -180 -30q-89 0 -140.5 25t-75 81t-23.5 152t23.5 152t75.5 81t141 25q42 0 89 -7zM445 595l-39 -50l-133 96h-8l-134 -96l-37 51
l131 131h88z" />
    <glyph glyph-name="Cdotaccent" unicode="&#x10a;" horiz-adv-x="578" 
d="M443.5 697q42.5 -5 88.5 -17l-12 -95q-87 7 -186 7q-58 0 -90 -22.5t-45.5 -75.5t-13.5 -149t13.5 -149t45.5 -75.5t90 -22.5q69 0 113.5 2t87.5 8l11 -94q-46 -14 -93.5 -20t-118.5 -6q-105 0 -166 34.5t-88 112t-27 210.5t27 210.5t88 112t166 34.5q67 0 109.5 -5z
M377 841v-54q0 -34 -34 -34h-38q-35 0 -35 34v54q0 35 35 35h38q34 0 34 -35z" />
    <glyph glyph-name="cdotaccent" unicode="&#x10b;" horiz-adv-x="498" 
d="M375 497q47 -7 82 -21l-14 -76q-49 2 -136 2q-51 0 -80 -14t-41.5 -47t-12.5 -95t12.5 -96t41.5 -48t80 -14q80 0 147 10l11 -80q-73 -30 -180 -30q-89 0 -140.5 25t-75 81t-23.5 152t23.5 152t75.5 81t141 25q42 0 89 -7zM323 662v-54q0 -34 -34 -34h-38q-35 0 -35 34
v54q0 35 35 35h38q34 0 34 -35z" />
    <glyph glyph-name="Ccaron" unicode="&#x10c;" horiz-adv-x="578" 
d="M443.5 697q42.5 -5 88.5 -17l-12 -95q-87 7 -186 7q-58 0 -90 -22.5t-45.5 -75.5t-13.5 -149t13.5 -149t45.5 -75.5t90 -22.5q69 0 113.5 2t87.5 8l11 -94q-46 -14 -93.5 -20t-118.5 -6q-105 0 -166 34.5t-88 112t-27 210.5t27 210.5t88 112t166 34.5q67 0 109.5 -5z
M499 876l-149 -131h-52l-148 131l37 50l133 -81h8l132 81z" />
    <glyph glyph-name="ccaron" unicode="&#x10d;" horiz-adv-x="498" 
d="M375 497q47 -7 82 -21l-14 -76q-49 2 -136 2q-51 0 -80 -14t-41.5 -47t-12.5 -95t12.5 -96t41.5 -48t80 -14q80 0 147 10l11 -80q-73 -30 -180 -30q-89 0 -140.5 25t-75 81t-23.5 152t23.5 152t75.5 81t141 25q42 0 89 -7zM445 697l-149 -131h-52l-148 131l37 50l133 -81
h8l132 81z" />
    <glyph glyph-name="Dcaron" unicode="&#x10e;" horiz-adv-x="671" 
d="M501.5 666.5q60.5 -32.5 88 -109t27.5 -212.5t-27.5 -212.5t-88 -109t-166.5 -32.5q-121 0 -258 9v690q137 9 258 9q106 0 166.5 -32.5zM425 119q32 23 46 76t14 150t-14 150.5t-46 76.5t-90 23l-133 -1v-496q78 -2 133 -2q58 0 90 23zM496 876l-149 -131h-52l-148 131
l37 50l133 -81h8l132 81z" />
    <glyph glyph-name="dcaron" unicode="&#x10f;" horiz-adv-x="583" 
d="M515 700v-700h-96l-10 67q-37 -35 -85.5 -57t-104.5 -22q-90 0 -131 65.5t-41 194.5q0 96 21 152t62 80t105 24q95 0 163 -44q-5 40 -5 99v141h122zM181.5 151q9.5 -34 29 -47t53.5 -13t59 10.5t70 40.5v243l-20 5q-34 8 -55.5 11.5t-46.5 3.5q-38 0 -59 -12t-30.5 -45
t-9.5 -99q0 -64 9.5 -98zM662.5 700.5q7.5 -7.5 7.5 -28.5l1 -53q0 -41 -10 -74t-30 -66l-48 12q11 55 11 104q-30 0 -30 30l1 47q0 20 9 28t30 8h29q22 0 29.5 -7.5z" />
    <glyph glyph-name="Dcroat" unicode="&#x110;" horiz-adv-x="675" 
d="M506 666.5q61 -32.5 88 -109t27 -212.5t-27 -212.5t-88 -109t-167 -32.5q-121 0 -258 9v331h-62v66h62v293q137 9 258 9q106 0 167 -32.5zM429 119q32 23 46 76t14 150t-14 150.5t-46 76.5t-90 23l-132 -1v-197h134v-66h-134v-233q78 -2 132 -2q58 0 90 23z" />
    <glyph glyph-name="dcroat" unicode="&#x111;" horiz-adv-x="579" 
d="M578 564h-63v-564h-96l-10 67q-37 -35 -85.5 -57t-104.5 -22q-90 0 -131 65.5t-41 194.5q0 96 21 152t62 80t105 24q95 0 163 -44q-5 40 -5 99v5h-140v64h140v72h122v-72h63v-64zM181.5 151q9.5 -34 29 -47t53.5 -13t59 10.5t70 40.5v243l-20 5q-34 8 -55.5 11.5
t-46.5 3.5q-38 0 -59 -12t-30.5 -45t-9.5 -99q0 -64 9.5 -98z" />
    <glyph glyph-name="Emacron" unicode="&#x112;" 
d="M517 101l6 -95q-60 -5 -130 -6.5t-174 -1.5q-68 0 -107.5 35t-40.5 96v432q1 61 40.5 96t107.5 35q104 0 174 -1.5t130 -6.5l-6 -96h-270q-27 0 -38.5 -13t-11.5 -45v-121h283v-96h-283v-154q0 -32 11.5 -45t38.5 -13h270zM457 786h-290v84h290v-84z" />
    <glyph glyph-name="emacron" unicode="&#x113;" horiz-adv-x="548" 
d="M482 99l11 -78q-36 -17 -92 -25t-110 -8q-90 0 -143 26t-77.5 82t-24.5 150q0 97 24.5 153t76 80.5t136.5 24.5q117 0 170 -42.5t53 -127.5q0 -140 -131 -140h-200q5 -44 19.5 -67t40.5 -31.5t71 -8.5q75 0 176 12zM220 397q-24 -11 -35 -38.5t-13 -79.5h169q26 0 35 16
t9 41q0 40 -21 56t-76 16q-44 0 -68 -11zM432 598h-290v84h290v-84z" />
    <glyph glyph-name="Ebreve" unicode="&#x114;" 
d="M517 101l6 -95q-60 -5 -130 -6.5t-174 -1.5q-68 0 -107.5 35t-40.5 96v432q1 61 40.5 96t107.5 35q104 0 174 -1.5t130 -6.5l-6 -96h-270q-27 0 -38.5 -13t-11.5 -45v-121h283v-96h-283v-154q0 -32 11.5 -45t38.5 -13h270zM469 892l1 -14q0 -57 -43 -93t-115 -36
q-73 0 -116.5 36t-43.5 93l1 14l59 8q0 -32 25 -49t75 -17q48 0 73 17t25 49z" />
    <glyph glyph-name="ebreve" unicode="&#x115;" horiz-adv-x="548" 
d="M482 99l11 -78q-36 -17 -92 -25t-110 -8q-90 0 -143 26t-77.5 82t-24.5 150q0 97 24.5 153t76 80.5t136.5 24.5q117 0 170 -42.5t53 -127.5q0 -140 -131 -140h-200q5 -44 19.5 -67t40.5 -31.5t71 -8.5q75 0 176 12zM220 397q-24 -11 -35 -38.5t-13 -79.5h169q26 0 35 16
t9 41q0 40 -21 56t-76 16q-44 0 -68 -11zM444 704l1 -14q0 -57 -43 -93t-115 -36q-73 0 -116.5 36t-43.5 93l1 14l59 8q0 -32 25 -49t75 -17q48 0 73 17t25 49z" />
    <glyph glyph-name="Edotaccent" unicode="&#x116;" 
d="M517 101l6 -95q-60 -5 -130 -6.5t-174 -1.5q-68 0 -107.5 35t-40.5 96v432q1 61 40.5 96t107.5 35q104 0 174 -1.5t130 -6.5l-6 -96h-270q-27 0 -38.5 -13t-11.5 -45v-121h283v-96h-283v-154q0 -32 11.5 -45t38.5 -13h270zM365 849v-54q0 -34 -34 -34h-38q-35 0 -35 34
v54q0 35 35 35h38q34 0 34 -35z" />
    <glyph glyph-name="edotaccent" unicode="&#x117;" horiz-adv-x="548" 
d="M482 99l11 -78q-36 -17 -92 -25t-110 -8q-90 0 -143 26t-77.5 82t-24.5 150q0 97 24.5 153t76 80.5t136.5 24.5q117 0 170 -42.5t53 -127.5q0 -140 -131 -140h-200q5 -44 19.5 -67t40.5 -31.5t71 -8.5q75 0 176 12zM220 397q-24 -11 -35 -38.5t-13 -79.5h169q26 0 35 16
t9 41q0 40 -21 56t-76 16q-44 0 -68 -11zM340 661v-54q0 -34 -34 -34h-38q-35 0 -35 34v54q0 35 35 35h38q34 0 34 -35z" />
    <glyph glyph-name="Eogonek" unicode="&#x118;" 
d="M539 -187q-50 -21 -92 -21q-38 0 -58.5 18.5t-20.5 48.5q0 16 6 33q18 56 90 110q-78 -4 -245 -4q-68 0 -107.5 35t-40.5 96v432q1 61 40.5 96t107.5 35q104 0 174 -1.5t130 -6.5l-6 -96h-270q-27 0 -38.5 -13t-11.5 -45v-121h283v-96h-283v-154q0 -32 11.5 -45t38.5 -13
h270l6 -95q-23 -29 -39 -53t-27 -53q-6 -14 -6 -22q0 -25 33 -25q16 0 42 8z" />
    <glyph glyph-name="eogonek" unicode="&#x119;" horiz-adv-x="548" 
d="M510 -171q-50 -21 -92 -21q-38 0 -58.5 18.5t-20.5 48.5q0 16 6 33q16 47 65 89q-61 -9 -119 -9q-90 0 -143 26t-77.5 82t-24.5 150q0 97 24.5 153t76 80.5t136.5 24.5q117 0 170 -42.5t53 -127.5q0 -140 -131 -140h-200q5 -44 19.5 -67t40.5 -31.5t71 -8.5q75 0 176 12
l11 -77h1q-23 -29 -39 -53t-27 -53q-6 -14 -6 -22q0 -25 33 -25q16 0 42 8zM220 397q-24 -11 -35 -38.5t-13 -79.5h169q26 0 35 16t9 41q0 40 -21 56t-76 16q-44 0 -68 -11z" />
    <glyph glyph-name="Ecaron" unicode="&#x11a;" 
d="M517 101l6 -95q-60 -5 -130 -6.5t-174 -1.5q-68 0 -107.5 35t-40.5 96v432q1 61 40.5 96t107.5 35q104 0 174 -1.5t130 -6.5l-6 -96h-270q-27 0 -38.5 -13t-11.5 -45v-121h283v-96h-283v-154q0 -32 11.5 -45t38.5 -13h270zM487 884l-149 -131h-52l-148 131l37 50l133 -81
h8l132 81z" />
    <glyph glyph-name="ecaron" unicode="&#x11b;" horiz-adv-x="548" 
d="M482 99l11 -78q-36 -17 -92 -25t-110 -8q-90 0 -143 26t-77.5 82t-24.5 150q0 97 24.5 153t76 80.5t136.5 24.5q117 0 170 -42.5t53 -127.5q0 -140 -131 -140h-200q5 -44 19.5 -67t40.5 -31.5t71 -8.5q75 0 176 12zM220 397q-24 -11 -35 -38.5t-13 -79.5h169q26 0 35 16
t9 41q0 40 -21 56t-76 16q-44 0 -68 -11zM463 696l-149 -131h-52l-148 131l37 50l133 -81h8l132 81z" />
    <glyph glyph-name="Gcircumflex" unicode="&#x11c;" horiz-adv-x="635" 
d="M576 398v-398h-93l-11 68q-35 -33 -86 -57t-116 -24q-114 0 -165 86.5t-51 274.5q0 139 29 215.5t93.5 108t179.5 31.5t198 -23l-10 -93q-98 6 -182 6q-72 0 -108 -17t-52.5 -70t-16.5 -165q0 -94 11.5 -147t38.5 -76t74 -23q40 0 74 12.5t71 35.5v255h122zM508 783
l-39 -50l-133 96h-8l-134 -96l-37 51l131 131h88z" />
    <glyph glyph-name="gcircumflex" unicode="&#x11d;" 
d="M545 431l-64 -7q13 -32 13 -78q0 -57 -21 -91t-69 -50.5t-131 -16.5q-51 0 -90 6q-7 -14 -7 -26q0 -15 9 -25.5t27 -13.5l179 -25q72 -10 103.5 -44t31.5 -99q0 -61 -23 -95t-76 -48t-148 -14q-96 0 -149.5 14t-76 46.5t-22.5 89.5q0 38 18 62t59 45q-28 25 -28 69
q0 25 11 48t29 35q-36 18 -52 50t-16 82q0 59 21 93t69 50t132 16q81 0 126 -14h152zM358.5 289q23.5 16 23.5 57t-23.5 56.5t-85.5 15.5t-86 -15.5t-24 -56.5t24 -57t86 -16t85.5 16zM402 -3.5q-7 9.5 -22.5 13.5t-53.5 9l-139 17q-20 -17 -29.5 -32.5t-9.5 -36.5
q0 -30 10.5 -43.5t37 -18t82.5 -4.5t83 5t37.5 18.5t10.5 41.5q0 21 -7 30.5zM451 594l-39 -50l-133 96h-8l-134 -96l-37 51l131 131h88z" />
    <glyph glyph-name="Gbreve" unicode="&#x11e;" horiz-adv-x="635" 
d="M576 398v-398h-93l-11 68q-35 -33 -86 -57t-116 -24q-114 0 -165 86.5t-51 274.5q0 139 29 215.5t93.5 108t179.5 31.5t198 -23l-10 -93q-98 6 -182 6q-72 0 -108 -17t-52.5 -70t-16.5 -165q0 -94 11.5 -147t38.5 -76t74 -23q40 0 74 12.5t71 35.5v255h122zM490 893
l1 -14q0 -57 -43 -93t-115 -36q-73 0 -116.5 36t-43.5 93l1 14l59 8q0 -32 25 -49t75 -17q48 0 73 17t25 49z" />
    <glyph glyph-name="gbreve" unicode="&#x11f;" 
d="M545 431l-64 -7q13 -32 13 -78q0 -57 -21 -91t-69 -50.5t-131 -16.5q-51 0 -90 6q-7 -14 -7 -26q0 -15 9 -25.5t27 -13.5l179 -25q72 -10 103.5 -44t31.5 -99q0 -61 -23 -95t-76 -48t-148 -14q-96 0 -149.5 14t-76 46.5t-22.5 89.5q0 38 18 62t59 45q-28 25 -28 69
q0 25 11 48t29 35q-36 18 -52 50t-16 82q0 59 21 93t69 50t132 16q81 0 126 -14h152zM358.5 289q23.5 16 23.5 57t-23.5 56.5t-85.5 15.5t-86 -15.5t-24 -56.5t24 -57t86 -16t85.5 16zM402 -3.5q-7 9.5 -22.5 13.5t-53.5 9l-139 17q-20 -17 -29.5 -32.5t-9.5 -36.5
q0 -30 10.5 -43.5t37 -18t82.5 -4.5t83 5t37.5 18.5t10.5 41.5q0 21 -7 30.5zM433 704l1 -14q0 -57 -43 -93t-115 -36q-73 0 -116.5 36t-43.5 93l1 14l59 8q0 -32 25 -49t75 -17q48 0 73 17t25 49z" />
    <glyph glyph-name="Gdotaccent" unicode="&#x120;" horiz-adv-x="635" 
d="M576 398v-398h-93l-11 68q-35 -33 -86 -57t-116 -24q-114 0 -165 86.5t-51 274.5q0 139 29 215.5t93.5 108t179.5 31.5t198 -23l-10 -93q-98 6 -182 6q-72 0 -108 -17t-52.5 -70t-16.5 -165q0 -94 11.5 -147t38.5 -76t74 -23q40 0 74 12.5t71 35.5v255h122zM385 850v-54
q0 -34 -34 -34h-38q-35 0 -35 34v54q0 35 35 35h38q34 0 34 -35z" />
    <glyph glyph-name="gdotaccent" unicode="&#x121;" 
d="M545 431l-64 -7q13 -32 13 -78q0 -57 -21 -91t-69 -50.5t-131 -16.5q-51 0 -90 6q-7 -14 -7 -26q0 -15 9 -25.5t27 -13.5l179 -25q72 -10 103.5 -44t31.5 -99q0 -61 -23 -95t-76 -48t-148 -14q-96 0 -149.5 14t-76 46.5t-22.5 89.5q0 38 18 62t59 45q-28 25 -28 69
q0 25 11 48t29 35q-36 18 -52 50t-16 82q0 59 21 93t69 50t132 16q81 0 126 -14h152zM358.5 289q23.5 16 23.5 57t-23.5 56.5t-85.5 15.5t-86 -15.5t-24 -56.5t24 -57t86 -16t85.5 16zM402 -3.5q-7 9.5 -22.5 13.5t-53.5 9l-139 17q-20 -17 -29.5 -32.5t-9.5 -36.5
q0 -30 10.5 -43.5t37 -18t82.5 -4.5t83 5t37.5 18.5t10.5 41.5q0 21 -7 30.5zM329 661v-54q0 -34 -34 -34h-38q-35 0 -35 34v54q0 35 35 35h38q34 0 34 -35z" />
    <glyph glyph-name="uni0122" unicode="&#x122;" horiz-adv-x="635" 
d="M576 398v-398h-93l-11 68q-35 -33 -86 -57t-116 -24q-114 0 -165 86.5t-51 274.5q0 139 29 215.5t93.5 108t179.5 31.5t198 -23l-10 -93q-98 6 -182 6q-72 0 -108 -17t-52.5 -70t-16.5 -165q0 -94 11.5 -147t38.5 -76t74 -23q40 0 74 12.5t71 35.5v255h122zM375 -63
q8 -8 7 -28l1 -53q-1 -79 -40 -141l-50 13q12 51 12 103q-15 0 -23 8.5t-8 23.5v46q1 20 10.5 28t30.5 8h30q22 0 30 -8z" />
    <glyph glyph-name="uni0123" unicode="&#x123;" 
d="M244.5 561q-8.5 8 -7.5 28l-1 53q1 77 40 141l50 -13q-12 -51 -12 -103q15 0 23 -8.5t8 -22.5v-47q-2 -20 -11 -28t-30 -8h-29q-22 0 -30.5 8zM545 431l-64 -7q13 -32 13 -78q0 -57 -21 -91t-69 -50.5t-131 -16.5q-51 0 -90 6q-7 -14 -7 -26q0 -15 9 -25.5t27 -13.5
l179 -25q72 -10 103.5 -44t31.5 -99q0 -61 -23 -95t-76 -48t-148 -14q-96 0 -149.5 14t-76 46.5t-22.5 89.5q0 38 18 62t59 45q-28 25 -28 69q0 25 11 48t29 35q-36 18 -52 50t-16 82q0 59 21 93t69 50t132 16q81 0 126 -14h152zM358.5 289q23.5 16 23.5 57t-23.5 56.5
t-85.5 15.5t-86 -15.5t-24 -56.5t24 -57t86 -16t85.5 16zM402 -3.5q-7 9.5 -22.5 13.5t-53.5 9l-139 17q-20 -17 -29.5 -32.5t-9.5 -36.5q0 -30 10.5 -43.5t37 -18t82.5 -4.5t83 5t37.5 18.5t10.5 41.5q0 21 -7 30.5z" />
    <glyph glyph-name="Hcircumflex" unicode="&#x124;" horiz-adv-x="678" 
d="M600 690v-690h-125v316h-273v-316h-125v690h125v-271h273v271h125zM514 782l-39 -50l-133 96h-8l-134 -96l-37 51l131 131h88z" />
    <glyph glyph-name="hcircumflex" unicode="&#x125;" horiz-adv-x="590" 
d="M490 469q35 -35 35 -101v-368h-122v331q0 41 -11 55.5t-41 14.5q-34 0 -69 -13.5t-92 -45.5v-342h-122v700h122l1 -180q0 -53 -8 -98q111 82 207 82q65 0 100 -35zM304 749l-39 -50l-133 96h-8l-134 -96l-37 51l131 131h88z" />
    <glyph glyph-name="Hbar" unicode="&#x126;" horiz-adv-x="685" 
d="M668 516h-64v-516h-125v316h-273v-316h-125v516h-65v62h65v112h125v-112h273v112h125v-112h64v-62zM479 516h-273v-97h273v97z" />
    <glyph glyph-name="hbar" unicode="&#x127;" horiz-adv-x="594" 
d="M494 469q35 -35 35 -101v-368h-122v331q0 41 -11.5 55.5t-41.5 14.5q-34 0 -68.5 -13.5t-91.5 -45.5v-342h-122v564h-70v64h70v72h122v-72h133v-64h-132v-44q0 -55 -8 -98q109 82 207 82q65 0 100 -35z" />
    <glyph glyph-name="Itilde" unicode="&#x128;" horiz-adv-x="279" 
d="M202 0h-125v690h125v-690zM95 881.5q19 -6.5 45 -18.5q41 -19 68 -23q4 -1 12 -1q18 0 24.5 10.5t6.5 35.5h53q3 -16 3 -32q0 -48 -23 -73.5t-60 -23.5q-25 2 -45.5 9.5t-48.5 20.5q-23 11 -39 17t-33 6q-19 0 -25.5 -11.5t-6.5 -37.5h-53q-2 22 -2 30q0 50 23.5 76.5
t58.5 23.5q23 -2 42 -8.5z" />
    <glyph glyph-name="itilde" unicode="&#x129;" horiz-adv-x="266" 
d="M194 0h-122v490h122v-490zM89 702.5q19 -6.5 45 -18.5q41 -19 68 -23q4 -1 12 -1q18 0 24.5 10.5t6.5 35.5h53q3 -16 3 -32q0 -48 -23 -73.5t-60 -23.5q-25 2 -45.5 9.5t-48.5 20.5q-23 11 -39 17t-33 6q-19 0 -25.5 -11.5t-6.5 -37.5h-53q-2 22 -2 30q0 50 23.5 76.5
t58.5 23.5q23 -2 42 -8.5z" />
    <glyph glyph-name="Imacron" unicode="&#x12a;" horiz-adv-x="279" 
d="M202 0h-125v690h125v-690zM285 778h-290v84h290v-84z" />
    <glyph glyph-name="imacron" unicode="&#x12b;" horiz-adv-x="266" 
d="M194 0h-122v490h122v-490zM279 599h-290v84h290v-84z" />
    <glyph glyph-name="Ibreve" unicode="&#x12c;" horiz-adv-x="279" 
d="M202 0h-125v690h125v-690zM298 884l1 -14q0 -57 -43 -93t-115 -36q-73 0 -116.5 36t-43.5 93l1 14l59 8q0 -32 25 -49t75 -17q48 0 73 17t25 49z" />
    <glyph glyph-name="ibreve" unicode="&#x12d;" horiz-adv-x="266" 
d="M194 0h-122v490h122v-490zM291 705l1 -14q0 -57 -43 -93t-115 -36q-73 0 -116.5 36t-43.5 93l1 14l59 8q0 -32 25 -49t75 -17q48 0 73 17t25 49z" />
    <glyph glyph-name="Iogonek" unicode="&#x12e;" horiz-adv-x="279" 
d="M203 -193q-50 -21 -92 -21q-38 0 -58.5 18.5t-20.5 48.5q0 16 6 33q20 59 95 114h-56v690h125v-690h-15q-23 -29 -39 -53t-27 -53q-6 -14 -6 -22q0 -25 33 -25q16 0 42 8z" />
    <glyph glyph-name="iogonek" unicode="&#x12f;" horiz-adv-x="266" 
d="M80 608v54q0 35 35 35h38q34 0 34 -35v-54q0 -34 -34 -34h-38q-35 0 -35 34zM200 -193q-50 -21 -92 -21q-38 0 -58.5 18.5t-20.5 48.5q0 16 6 33q20 59 95 114h-58v490h122v-490h-10q-23 -29 -39 -53t-27 -53q-6 -14 -6 -22q0 -25 33 -25q16 0 42 8z" />
    <glyph glyph-name="Idotaccent" unicode="&#x130;" horiz-adv-x="279" 
d="M202 0h-125v690h125v-690zM194 841v-54q0 -34 -34 -34h-38q-35 0 -35 34v54q0 35 35 35h38q34 0 34 -35z" />
    <glyph glyph-name="dotlessi" unicode="&#x131;" horiz-adv-x="266" 
d="M194 0h-122v490h122v-490z" />
    <glyph glyph-name="IJ" unicode="&#x132;" horiz-adv-x="633" 
d="M202 0h-125v690h125v-690zM558 152q0 -79 -37.5 -121t-106.5 -42q-25 0 -58.5 5t-51.5 12l13 87h47q70 0 70 62v535h124v-538z" />
    <glyph glyph-name="ij" unicode="&#x133;" horiz-adv-x="532" 
d="M195 668v-55q0 -35 -35 -35h-56q-35 0 -35 35v55q0 17 9 26t26 9h56q35 0 35 -35zM193 0h-121v490h121v-490zM462 669v-54q0 -35 -35 -35h-56q-35 0 -35 35v54q0 35 35 35h56q35 0 35 -35zM460 9q0 -64 -30 -120.5t-82 -88.5l-68 53q31 37 44.5 73.5t13.5 82.5v481h122
v-481z" />
    <glyph glyph-name="Jcircumflex" unicode="&#x134;" horiz-adv-x="354" 
d="M279 152q0 -79 -37.5 -121t-106.5 -42q-25 0 -58.5 5t-51.5 12l13 87h47q70 0 70 62v535h124v-538zM394 774l-39 -50l-133 96h-8l-134 -96l-37 51l131 131h88z" />
    <glyph glyph-name="jcircumflex" unicode="&#x135;" horiz-adv-x="267" 
d="M195 9q0 -64 -30 -120.5t-82 -88.5l-68 53q31 37 44.5 73.5t13.5 82.5v481h122v-481zM309 595l-39 -50l-133 96h-8l-134 -96l-37 51l131 131h88z" />
    <glyph glyph-name="uni0136" unicode="&#x136;" horiz-adv-x="612" 
d="M601 0h-140l-197 311h-69q7 -40 7 -68v-243h-125v690h125v-203q0 -44 -7 -80h68l189 283h136l-186 -278q-17 -27 -46 -52v-3q35 -29 54 -59zM367.5 -63q8.5 -8 7.5 -28l1 -53q-1 -77 -40 -141l-50 13q12 51 12 103q-15 0 -23 8.5t-8 23.5v46q2 20 10.5 28t30.5 8h29
q22 0 30.5 -8z" />
    <glyph glyph-name="uni0137" unicode="&#x137;" horiz-adv-x="534" 
d="M525 0h-138l-149 234h-54q6 -39 6 -75v-159h-122v700h122l1 -298q0 -47 -7 -86h53l134 174h138l-137 -174q-8 -12 -20 -23.5t-21 -17.5v-2q8 -5 20.5 -19t20.5 -28zM331 -62q8 -8 7 -28l1 -53q-1 -41 -11 -75t-29 -66l-50 13q12 52 12 104q-31 0 -31 31v46q1 20 10.5 28
t30.5 8h30q22 0 30 -8z" />
    <glyph glyph-name="kgreenlandic" unicode="&#x138;" horiz-adv-x="534" 
d="M242 205h-58q6 -39 6 -74v-131h-122v490h122l1 -117q0 -47 -7 -86h49l138 203h138l-139 -192q-8 -11 -20 -23t-21 -17v-3q13 -8 41 -47l155 -208h-138z" />
    <glyph glyph-name="Lacute" unicode="&#x139;" horiz-adv-x="521" 
d="M200 161q0 -32 13 -44.5t46 -12.5h240l5 -97q-98 -9 -274 -9q-155 0 -155 143v549h125v-529zM306 844l-213 -111l-38 54l188 147z" />
    <glyph glyph-name="lacute" unicode="&#x13a;" horiz-adv-x="314" 
d="M190 153q0 -57 59 -57h42l14 -90q-15 -8 -47.5 -12.5t-56.5 -4.5q-61 0 -96.5 35t-35.5 99v577h122zM298 856l-213 -111l-38 54l188 147z" />
    <glyph glyph-name="uni013B" unicode="&#x13b;" horiz-adv-x="521" 
d="M200 161q0 -32 13 -44.5t46 -12.5h240l5 -97q-98 -9 -274 -9q-155 0 -155 143v549h125v-529zM339.5 -63q8.5 -8 7.5 -28l1 -53q-1 -77 -40 -141l-50 13q12 51 12 103q-15 0 -23 8.5t-8 23.5v46q2 20 10.5 28t30.5 8h29q22 0 30.5 -8z" />
    <glyph glyph-name="uni013C" unicode="&#x13c;" horiz-adv-x="314" 
d="M190 153q0 -57 59 -57h42l14 -90q-15 -8 -47.5 -12.5t-56.5 -4.5q-61 0 -96.5 35t-35.5 99v577h122zM222.5 -63q8.5 -8 7.5 -28l1 -53q-1 -77 -40 -141l-50 13q12 51 12 103q-15 0 -23 8.5t-8 23.5v46q1 20 10.5 28t30.5 8h29q22 0 30.5 -8z" />
    <glyph glyph-name="Lcaron" unicode="&#x13d;" horiz-adv-x="521" 
d="M200 161q0 -32 13 -44.5t46 -12.5h240l5 -97q-98 -9 -274 -9q-155 0 -155 143v549h125v-529zM414.5 681.5q7.5 -7.5 7.5 -28.5l1 -53q0 -41 -10 -74t-30 -66l-48 12q11 55 11 104q-30 0 -30 30l1 47q0 20 9 28t30 8h29q22 0 29.5 -7.5z" />
    <glyph glyph-name="lcaron" unicode="&#x13e;" horiz-adv-x="314" 
d="M190 153q0 -57 59 -57h42l14 -90q-15 -8 -47.5 -12.5t-56.5 -4.5q-61 0 -96.5 35t-35.5 99v577h122zM332.5 695.5q7.5 -7.5 7.5 -28.5l1 -53q0 -41 -10 -74t-30 -66l-48 12q11 55 11 104q-30 0 -30 30l1 47q0 20 9 28t30 8h29q22 0 29.5 -7.5z" />
    <glyph glyph-name="Ldot" unicode="&#x13f;" horiz-adv-x="521" 
d="M200 161q0 -32 13 -44.5t46 -12.5h240l5 -97q-98 -9 -274 -9q-155 0 -155 143v549h125v-529zM301 388v54q0 34 34 34h38q35 0 35 -34v-54q0 -35 -35 -35h-38q-34 0 -34 35z" />
    <glyph glyph-name="ldot" unicode="&#x140;" horiz-adv-x="351" 
d="M190 153q0 -57 59 -57h42l14 -90q-15 -8 -47.5 -12.5t-56.5 -4.5q-61 0 -96.5 35t-35.5 99v577h122zM250 363v54q0 34 35 34h38q34 0 34 -34v-54q0 -35 -34 -35h-38q-35 0 -35 35z" />
    <glyph glyph-name="Lslash" unicode="&#x141;" horiz-adv-x="528" 
d="M510 7q-98 -9 -273 -9q-156 0 -156 143v180l-64 -26v72l64 26v297h125v-246l110 45v-72l-110 -45v-211q0 -32 13 -44.5t46 -12.5h240z" />
    <glyph glyph-name="lslash" unicode="&#x142;" horiz-adv-x="344" 
d="M327 6q-15 -8 -47.5 -12.5t-56.5 -4.5q-61 0 -96.5 35t-35.5 99v196l-76 -31v72l76 31v309h122v-259l101 41v-73l-102 -41v-215q0 -57 59 -57h42z" />
    <glyph glyph-name="Nacute" unicode="&#x143;" horiz-adv-x="715" 
d="M638 46q0 -46 -46 -46h-99q-20 0 -32 9t-20 29l-194 423q-11 23 -23.5 52.5t-17.5 50.5h-12q6 -42 6 -104v-460h-123v644q0 22 12 34t35 12h97q20 0 31.5 -9t20.5 -29l188 -411l16 -37q16 -32 32 -72h12q-5 63 -5 112v446h122v-644zM536 844l-213 -111l-38 54l188 147z
" />
    <glyph glyph-name="nacute" unicode="&#x144;" horiz-adv-x="590" 
d="M490 469q35 -35 35 -101v-368h-122v331q0 41 -11 55.5t-41 14.5q-34 0 -68.5 -13.5t-93.5 -46.5l1 -341h-122v490h102l8 -73q113 87 212 87q65 0 100 -35zM475 664l-213 -111l-38 54l188 147z" />
    <glyph glyph-name="uni0145" unicode="&#x145;" horiz-adv-x="715" 
d="M638 46q0 -46 -46 -46h-99q-20 0 -32 9t-20 29l-194 423q-11 23 -23.5 52.5t-17.5 50.5h-12q6 -42 6 -104v-460h-123v644q0 22 12 34t35 12h97q20 0 31.5 -9t20.5 -29l188 -411l16 -37q16 -32 32 -72h12q-5 63 -5 112v446h122v-644zM393.5 -63q8.5 -8 7.5 -28l1 -53
q-1 -78 -41 -141l-49 13q11 47 11 103q-14 0 -22 8.5t-9 23.5l1 46q2 20 10.5 28t30.5 8h29q22 0 30.5 -8z" />
    <glyph glyph-name="uni0146" unicode="&#x146;" horiz-adv-x="590" 
d="M490 469q35 -35 35 -101v-368h-122v331q0 41 -11 55.5t-41 14.5q-34 0 -68.5 -13.5t-93.5 -46.5l1 -341h-122v490h102l8 -73q113 87 212 87q65 0 100 -35zM337.5 -62q8.5 -8 7.5 -28l1 -53q-1 -41 -11 -74.5t-29 -66.5l-50 13q12 52 12 104q-31 0 -31 31v46q1 20 10.5 28
t30.5 8h29q22 0 30.5 -8z" />
    <glyph glyph-name="Ncaron" unicode="&#x147;" horiz-adv-x="715" 
d="M638 46q0 -46 -46 -46h-99q-20 0 -32 9t-20 29l-194 423q-11 23 -23.5 52.5t-17.5 50.5h-12q6 -42 6 -104v-460h-123v644q0 22 12 34t35 12h97q20 0 31.5 -9t20.5 -29l188 -411l16 -37q16 -32 32 -72h12q-5 63 -5 112v446h122v-644zM544 876l-149 -131h-52l-148 131
l37 50l133 -81h8l132 81z" />
    <glyph glyph-name="ncaron" unicode="&#x148;" horiz-adv-x="590" 
d="M490 469q35 -35 35 -101v-368h-122v331q0 41 -11 55.5t-41 14.5q-34 0 -68.5 -13.5t-93.5 -46.5l1 -341h-122v490h102l8 -73q113 87 212 87q65 0 100 -35zM483 696l-149 -131h-52l-148 131l37 50l133 -81h8l132 81z" />
    <glyph glyph-name="Eng" unicode="&#x14a;" horiz-adv-x="715" 
d="M638 -66q0 -69 -38 -108t-100 -39q-23 0 -54.5 4.5t-51.5 12.5l13 79h45q71 0 71 61v57h-32q-9 0 -16 8t-16 25l-213 410q-18 36 -42 102h-10q6 -41 6 -103v-443h-123v644q0 46 47 46h78q20 0 31.5 -8.5t21.5 -29.5l205 -394q19 -37 48 -108h12q-5 60 -5 109v431h123
v-756z" />
    <glyph glyph-name="eng" unicode="&#x14b;" horiz-adv-x="590" 
d="M490.5 469.5q34.5 -34.5 34.5 -101.5v-423q0 -70 -34 -108.5t-97 -38.5q-25 0 -56 4.5t-51 12.5l14 77h40q62 0 62 63v376q0 36 -11.5 49.5t-43.5 13.5q-56 0 -159 -54l1 -340h-122v490h95l10 -76q111 90 216 90q67 0 101.5 -34.5z" />
    <glyph glyph-name="Omacron" unicode="&#x14c;" horiz-adv-x="675" 
d="M506 670q61 -33 88.5 -110t27.5 -215t-27.5 -215t-88.5 -110t-169 -33t-169 33t-88 110t-27 215t27 215t88 110t169 33t169 -33zM245.5 573q-32.5 -23 -46.5 -76.5t-14 -151.5t14 -151.5t46.5 -76.5t91.5 -23q60 0 92.5 23t46.5 76.5t14 151.5t-14 151.5t-46.5 76.5
t-92.5 23q-59 0 -91.5 -23zM484 778h-290v84h290v-84z" />
    <glyph glyph-name="omacron" unicode="&#x14d;" horiz-adv-x="576" 
d="M430.5 478.5q52.5 -25.5 76 -82t23.5 -151.5t-23.5 -151t-76 -81.5t-141.5 -25.5q-90 0 -142.5 25.5t-76.5 81.5t-24 151t24 151.5t77 82t142 25.5t141.5 -25.5zM218.5 393q-24.5 -14 -35 -48.5t-10.5 -99.5q0 -64 10.5 -98.5t35 -48.5t70.5 -14q45 0 69.5 14t35 48.5
t10.5 98.5q0 65 -10.5 99.5t-35 48.5t-69.5 14q-46 0 -70.5 -14zM436 592h-290v84h290v-84z" />
    <glyph glyph-name="Obreve" unicode="&#x14e;" horiz-adv-x="675" 
d="M506 670q61 -33 88.5 -110t27.5 -215t-27.5 -215t-88.5 -110t-169 -33t-169 33t-88 110t-27 215t27 215t88 110t169 33t169 -33zM245.5 573q-32.5 -23 -46.5 -76.5t-14 -151.5t14 -151.5t46.5 -76.5t91.5 -23q60 0 92.5 23t46.5 76.5t14 151.5t-14 151.5t-46.5 76.5
t-92.5 23q-59 0 -91.5 -23zM496 884l1 -14q0 -57 -43 -93t-115 -36q-73 0 -116.5 36t-43.5 93l1 14l59 8q0 -32 25 -49t75 -17q48 0 73 17t25 49z" />
    <glyph glyph-name="obreve" unicode="&#x14f;" horiz-adv-x="576" 
d="M430.5 478.5q52.5 -25.5 76 -82t23.5 -151.5t-23.5 -151t-76 -81.5t-141.5 -25.5q-90 0 -142.5 25.5t-76.5 81.5t-24 151t24 151.5t77 82t142 25.5t141.5 -25.5zM218.5 393q-24.5 -14 -35 -48.5t-10.5 -99.5q0 -64 10.5 -98.5t35 -48.5t70.5 -14q45 0 69.5 14t35 48.5
t10.5 98.5q0 65 -10.5 99.5t-35 48.5t-69.5 14q-46 0 -70.5 -14zM448 698l1 -14q0 -57 -43 -93t-115 -36q-73 0 -116.5 36t-43.5 93l1 14l59 8q0 -32 25 -49t75 -17q48 0 73 17t25 49z" />
    <glyph glyph-name="Ohungarumlaut" unicode="&#x150;" horiz-adv-x="675" 
d="M506 670q61 -33 88.5 -110t27.5 -215t-27.5 -215t-88.5 -110t-169 -33t-169 33t-88 110t-27 215t27 215t88 110t169 33t169 -33zM245.5 573q-32.5 -23 -46.5 -76.5t-14 -151.5t14 -151.5t46.5 -76.5t91.5 -23q60 0 92.5 23t46.5 76.5t14 151.5t-14 151.5t-46.5 76.5
t-92.5 23q-59 0 -91.5 -23zM373 890l-144 -164l-51 39l111 182zM552 890l-145 -164l-50 39l111 182z" />
    <glyph glyph-name="ohungarumlaut" unicode="&#x151;" horiz-adv-x="576" 
d="M430.5 478.5q52.5 -25.5 76 -82t23.5 -151.5t-23.5 -151t-76 -81.5t-141.5 -25.5q-90 0 -142.5 25.5t-76.5 81.5t-24 151t24 151.5t77 82t142 25.5t141.5 -25.5zM218.5 393q-24.5 -14 -35 -48.5t-10.5 -99.5q0 -64 10.5 -98.5t35 -48.5t70.5 -14q45 0 69.5 14t35 48.5
t10.5 98.5q0 65 -10.5 99.5t-35 48.5t-69.5 14q-46 0 -70.5 -14zM324 704l-144 -164l-51 39l111 182zM503 704l-145 -164l-50 39l111 182z" />
    <glyph glyph-name="OE" unicode="&#x152;" horiz-adv-x="930" 
d="M879 101l6 -95q-62 -5 -133.5 -6.5t-178.5 -1.5q-41 0 -72 22q-38 -18 -74.5 -25.5t-89.5 -7.5q-108 0 -169 33t-88 110t-27 215t27 215t88 110t169 33q54 0 92 -7t80 -23q32 19 73 19q104 0 173.5 -1.5t129.5 -6.5l-6 -96h-251q-32 0 -45 -13t-13 -45v-120h272v-97h-272
v-154q0 -32 13 -45t45 -13h251zM199 193.5q14 -53.5 46.5 -76.5t91.5 -23q38 0 62 3t48 9q-3 17 -3 35v408q0 20 4 35q-27 6 -51 9t-60 3q-59 0 -91.5 -22.5t-46.5 -76t-14 -152.5q0 -98 14 -151.5z" />
    <glyph glyph-name="oe" unicode="&#x153;" horiz-adv-x="903" 
d="M837 99l11 -78q-36 -17 -92 -25t-110 -8q-124 0 -180 50q-28 -27 -71.5 -39t-106.5 -12q-89 0 -141.5 25.5t-76.5 81.5t-24 151t24 151.5t76.5 82t141.5 25.5q121 0 176 -49q27 25 68.5 36.5t99.5 11.5q229 0 229 -158q0 -57 -16 -88.5t-50.5 -44.5t-93.5 -13h-172
q4 -47 19 -71t41.5 -32.5t73.5 -8.5q73 0 174 12zM354 96q24 12 35.5 41t13.5 82q-1 9 -1 29v26q-2 52 -13.5 80.5t-35 40.5t-65.5 12q-46 0 -70 -14t-34.5 -48.5t-10.5 -99.5q0 -64 10.5 -98.5t34.5 -48.5t70 -14q42 0 66 12zM573 396q-22 -11 -33 -38.5t-13 -77.5h160
q32 0 43.5 14.5t10.5 52.5q-3 31 -27.5 45.5t-78.5 14.5q-40 0 -62 -11z" />
    <glyph glyph-name="Racute" unicode="&#x154;" horiz-adv-x="629" 
d="M593 0h-133l-55 214q-10 33 -29 47.5t-51 14.5h-124v-276h-124v690q56 6 106.5 7.5t144.5 1.5q88 0 139.5 -18t76 -62t24.5 -122q0 -80 -30 -122.5t-99 -51.5v-5q30 -7 56 -32t36 -70zM395 389.5q25 9.5 35.5 33t10.5 66.5t-10.5 66t-35.5 32t-70 9h-124v-217h124
q45 1 70 10.5zM474 844l-213 -111l-38 54l188 147z" />
    <glyph glyph-name="racute" unicode="&#x155;" horiz-adv-x="413" 
d="M400 504l-13 -114h-35q-32 0 -67 -10t-95 -33v-347h-122v490h95l11 -72q51 42 102.5 64t99.5 22h24zM389 665l-213 -111l-38 54l188 147z" />
    <glyph glyph-name="uni0156" unicode="&#x156;" horiz-adv-x="629" 
d="M593 0h-133l-55 214q-10 33 -29 47.5t-51 14.5h-124v-276h-124v690q56 6 106.5 7.5t144.5 1.5q88 0 139.5 -18t76 -62t24.5 -122q0 -80 -30 -122.5t-99 -51.5v-5q30 -7 56 -32t36 -70zM395 389.5q25 9.5 35.5 33t10.5 66.5t-10.5 66t-35.5 32t-70 9h-124v-217h124
q45 1 70 10.5zM376 -63q8 -8 8 -28l1 -53q-1 -78 -41 -141l-50 13q12 45 12 103q-15 0 -23 8.5t-8 23.5l1 46q1 20 10 28t30 8h30q22 0 30 -8z" />
    <glyph glyph-name="uni0157" unicode="&#x157;" horiz-adv-x="413" 
d="M400 504l-13 -114h-35q-32 0 -67 -10t-95 -33v-347h-122v490h95l11 -72q51 42 102.5 64t99.5 22h24zM165 -62q8 -8 8 -28l1 -53q-1 -41 -11 -75t-30 -66l-50 13q12 47 12 104q-31 0 -31 31l1 46q1 20 10 28t30 8h30q22 0 30 -8z" />
    <glyph glyph-name="Rcaron" unicode="&#x158;" horiz-adv-x="629" 
d="M593 0h-133l-55 214q-10 33 -29 47.5t-51 14.5h-124v-276h-124v690q56 6 106.5 7.5t144.5 1.5q88 0 139.5 -18t76 -62t24.5 -122q0 -80 -30 -122.5t-99 -51.5v-5q30 -7 56 -32t36 -70zM395 389.5q25 9.5 35.5 33t10.5 66.5t-10.5 66t-35.5 32t-70 9h-124v-217h124
q45 1 70 10.5zM482 876l-149 -131h-52l-148 131l37 50l133 -81h8l132 81z" />
    <glyph glyph-name="rcaron" unicode="&#x159;" horiz-adv-x="413" 
d="M400 504l-13 -114h-35q-32 0 -67 -10t-95 -33v-347h-122v490h95l11 -72q51 42 102.5 64t99.5 22h24zM397 697l-149 -131h-52l-148 131l37 50l133 -81h8l132 81z" />
    <glyph glyph-name="Sacute" unicode="&#x15a;" horiz-adv-x="570" 
d="M502 679l-8 -89q-114 4 -205 4q-47 0 -70 -4.5t-34 -21.5t-11 -53q0 -30 8 -47t23.5 -26.5t45.5 -18.5l133 -41q79 -25 110.5 -73.5t31.5 -127.5q0 -78 -24 -119.5t-76 -57.5t-145 -16q-114 0 -224 22l8 92q18 0 26 -1q167 -3 193 -3q47 0 71 6.5t34 24t10 53.5
q0 31 -7.5 47.5t-22.5 25.5t-43 18l-139 44q-75 24 -107 72.5t-32 127.5q0 78 24.5 117.5t74 53.5t138.5 14q127 0 217 -23zM458 844l-213 -111l-38 54l188 147z" />
    <glyph glyph-name="sacute" unicode="&#x15b;" horiz-adv-x="517" 
d="M355 498q61 -5 105 -12l-9 -84q-124 4 -187 4q-47 0 -67 -2t-28.5 -11t-8.5 -29q0 -24 11 -32.5t30 -13.5t26 -7l132 -36q63 -18 90 -48.5t27 -92.5q0 -59 -22.5 -90.5t-69 -43t-127.5 -11.5q-110 0 -205 16l8 85q52 -4 167 -4q54 0 81.5 3.5t39 13.5t11.5 30q0 18 -8 27
t-18 12.5t-46 13.5l-129 35q-64 18 -89.5 51t-25.5 93q0 54 20 84t63 42.5t117 12.5q51 -1 112 -6zM431 664l-213 -111l-38 54l188 147z" />
    <glyph glyph-name="Scircumflex" unicode="&#x15c;" horiz-adv-x="570" 
d="M502 679l-8 -89q-114 4 -205 4q-47 0 -70 -4.5t-34 -21.5t-11 -53q0 -30 8 -47t23.5 -26.5t45.5 -18.5l133 -41q79 -25 110.5 -73.5t31.5 -127.5q0 -78 -24 -119.5t-76 -57.5t-145 -16q-114 0 -224 22l8 92q18 0 26 -1q167 -3 193 -3q47 0 71 6.5t34 24t10 53.5
q0 31 -7.5 47.5t-22.5 25.5t-43 18l-139 44q-75 24 -107 72.5t-32 127.5q0 78 24.5 117.5t74 53.5t138.5 14q127 0 217 -23zM466 774l-39 -50l-133 96h-8l-134 -96l-37 51l131 131h88z" />
    <glyph glyph-name="scircumflex" unicode="&#x15d;" horiz-adv-x="517" 
d="M355 498q61 -5 105 -12l-9 -84q-124 4 -187 4q-47 0 -67 -2t-28.5 -11t-8.5 -29q0 -24 11 -32.5t30 -13.5t26 -7l132 -36q63 -18 90 -48.5t27 -92.5q0 -59 -22.5 -90.5t-69 -43t-127.5 -11.5q-110 0 -205 16l8 85q52 -4 167 -4q54 0 81.5 3.5t39 13.5t11.5 30q0 18 -8 27
t-18 12.5t-46 13.5l-129 35q-64 18 -89.5 51t-25.5 93q0 54 20 84t63 42.5t117 12.5q51 -1 112 -6zM439 594l-39 -50l-133 96h-8l-134 -96l-37 51l131 131h88z" />
    <glyph glyph-name="Scedilla" unicode="&#x15e;" horiz-adv-x="570" 
d="M502 679l-8 -89q-114 4 -205 4q-47 0 -70 -4.5t-34 -21.5t-11 -53q0 -30 8 -47t23.5 -26.5t45.5 -18.5l133 -41q79 -25 110.5 -73.5t31.5 -127.5q0 -78 -24 -119.5t-76 -57.5t-145 -16q-114 0 -224 22l8 92q18 0 26 -1q167 -3 193 -3q47 0 71 6.5t34 24t10 53.5
q0 31 -7.5 47.5t-22.5 25.5t-43 18l-139 44q-75 24 -107 72.5t-32 127.5q0 78 24.5 117.5t74 53.5t138.5 14q127 0 217 -23zM290 -48q40 0 58.5 -14.5t18.5 -48.5q0 -65 -43 -101.5t-111 -36.5q-9 0 -31 2l17 59q36 -1 60 15.5t26 45.5q1 14 -11 18t-50 4l12 53q40 4 54 4z
" />
    <glyph glyph-name="scedilla" unicode="&#x15f;" horiz-adv-x="517" 
d="M355 498q61 -5 105 -12l-9 -84q-124 4 -187 4q-47 0 -67 -2t-28.5 -11t-8.5 -29q0 -24 11 -32.5t30 -13.5t26 -7l132 -36q63 -18 90 -48.5t27 -92.5q0 -59 -22.5 -90.5t-69 -43t-127.5 -11.5q-110 0 -205 16l8 85q52 -4 167 -4q54 0 81.5 3.5t39 13.5t11.5 30q0 18 -8 27
t-18 12.5t-46 13.5l-129 35q-64 18 -89.5 51t-25.5 93q0 54 20 84t63 42.5t117 12.5q51 -1 112 -6zM254 -48q40 0 58.5 -14.5t18.5 -48.5q0 -65 -43 -101.5t-111 -36.5q-9 0 -31 2l17 59q36 -1 60 15.5t26 45.5q1 14 -11 18t-50 4l12 53q40 4 54 4z" />
    <glyph glyph-name="Scaron" unicode="&#x160;" horiz-adv-x="570" 
d="M502 679l-8 -89q-114 4 -205 4q-47 0 -70 -4.5t-34 -21.5t-11 -53q0 -30 8 -47t23.5 -26.5t45.5 -18.5l133 -41q79 -25 110.5 -73.5t31.5 -127.5q0 -78 -24 -119.5t-76 -57.5t-145 -16q-114 0 -224 22l8 92q18 0 26 -1q167 -3 193 -3q47 0 71 6.5t34 24t10 53.5
q0 31 -7.5 47.5t-22.5 25.5t-43 18l-139 44q-75 24 -107 72.5t-32 127.5q0 78 24.5 117.5t74 53.5t138.5 14q127 0 217 -23zM465 876l-149 -131h-52l-148 131l37 50l133 -81h8l132 81z" />
    <glyph glyph-name="scaron" unicode="&#x161;" horiz-adv-x="517" 
d="M355 498q61 -5 105 -12l-9 -84q-124 4 -187 4q-47 0 -67 -2t-28.5 -11t-8.5 -29q0 -24 11 -32.5t30 -13.5t26 -7l132 -36q63 -18 90 -48.5t27 -92.5q0 -59 -22.5 -90.5t-69 -43t-127.5 -11.5q-110 0 -205 16l8 85q52 -4 167 -4q54 0 81.5 3.5t39 13.5t11.5 30q0 18 -8 27
t-18 12.5t-46 13.5l-129 35q-64 18 -89.5 51t-25.5 93q0 54 20 84t63 42.5t117 12.5q51 -1 112 -6zM438 696l-149 -131h-52l-148 131l37 50l133 -81h8l132 81z" />
    <glyph glyph-name="uni0162" unicode="&#x162;" horiz-adv-x="592" 
d="M571 583h-213v-583h-126v583h-211v107h550v-107zM297 -39q40 0 58.5 -14.5t18.5 -48.5q0 -65 -43 -101.5t-111 -36.5q-9 0 -31 2l17 59q36 -1 60 15.5t26 45.5q1 14 -11 18t-50 4l12 53q40 4 54 4z" />
    <glyph glyph-name="uni0163" unicode="&#x163;" horiz-adv-x="400" 
d="M231 402v-249q0 -32 13 -44.5t46 -12.5h67l13 -90q-24 -8 -62 -12.5t-64 -4.5q-64 0 -98.5 37t-34.5 106l-1 270h-88v83l88 5v141h121v-141h144v-88h-144zM258 -46q40 0 58.5 -14.5t18.5 -48.5q0 -65 -43 -101.5t-111 -36.5q-9 0 -31 2l17 59q36 -1 60 15.5t26 45.5
q1 14 -11 18t-50 4l12 53q40 4 54 4z" />
    <glyph glyph-name="Tcaron" unicode="&#x164;" horiz-adv-x="592" 
d="M571 583h-213v-583h-126v583h-211v107h550v-107zM471 876l-149 -131h-52l-148 131l37 50l133 -81h8l132 81z" />
    <glyph glyph-name="tcaron" unicode="&#x165;" horiz-adv-x="400" 
d="M231 402v-249q0 -32 13 -44.5t46 -12.5h67l13 -90q-24 -8 -62 -12.5t-64 -4.5q-64 0 -98.5 37t-34.5 106l-1 270h-88v83l88 5v141h121v-141h144v-88h-144zM381.5 763.5q7.5 -7.5 7.5 -28.5l1 -53q0 -41 -10 -74t-30 -66l-48 12q11 55 11 104q-30 0 -30 30l1 47q0 20 9 28
t30 8h29q22 0 29.5 -7.5z" />
    <glyph glyph-name="Tbar" unicode="&#x166;" horiz-adv-x="592" 
d="M359 583v-184h133v-64h-133v-335h-126v335h-134v64h134v184h-211v107h549v-107h-212z" />
    <glyph glyph-name="tbar" unicode="&#x167;" horiz-adv-x="400" 
d="M231 402v-101h116v-63h-116v-85q0 -32 13 -44.5t46 -12.5h67l13 -90q-24 -8 -62 -12.5t-64 -4.5q-64 0 -98.5 37t-34.5 106v106h-62v63h62l-1 101h-88v83l88 5v141h121v-141h144v-88h-144z" />
    <glyph glyph-name="Utilde" unicode="&#x168;" horiz-adv-x="671" 
d="M599 270q0 -104 -25 -165.5t-81.5 -89.5t-151.5 -28q-100 0 -158 28t-84.5 89.5t-26.5 165.5v420h125v-420q0 -67 13 -105t43 -54.5t83 -16.5q52 0 81.5 16.5t42.5 54.5t13 105v420h126v-420zM292 881.5q19 -6.5 45 -18.5q41 -19 68 -23q4 -1 12 -1q18 0 24.5 10.5
t6.5 35.5h53q3 -16 3 -32q0 -48 -23 -73.5t-60 -23.5q-25 2 -45.5 9.5t-48.5 20.5q-23 11 -39 17t-33 6q-19 0 -25.5 -11.5t-6.5 -37.5h-53q-2 22 -2 30q0 50 23.5 76.5t58.5 23.5q23 -2 42 -8.5z" />
    <glyph glyph-name="utilde" unicode="&#x169;" horiz-adv-x="579" 
d="M511 490v-490h-96l-9 66q-53 -40 -103 -59.5t-102 -19.5q-67 0 -101.5 34.5t-34.5 101.5v367h122v-331q-1 -39 12 -54t48 -15q30 0 62 12.5t81 40.5v347h121zM245 706.5q19 -6.5 45 -18.5q41 -19 68 -23q4 -1 12 -1q18 0 24.5 10.5t6.5 35.5h53q3 -16 3 -32
q0 -48 -23 -73.5t-60 -23.5q-25 2 -45.5 9.5t-48.5 20.5q-23 11 -39 17t-33 6q-19 0 -25.5 -11.5t-6.5 -37.5h-53q-2 22 -2 30q0 50 23.5 76.5t58.5 23.5q23 -2 42 -8.5z" />
    <glyph glyph-name="Umacron" unicode="&#x16a;" horiz-adv-x="671" 
d="M599 270q0 -104 -25 -165.5t-81.5 -89.5t-151.5 -28q-100 0 -158 28t-84.5 89.5t-26.5 165.5v420h125v-420q0 -67 13 -105t43 -54.5t83 -16.5q52 0 81.5 16.5t42.5 54.5t13 105v420h126v-420zM482 778h-290v84h290v-84z" />
    <glyph glyph-name="umacron" unicode="&#x16b;" horiz-adv-x="579" 
d="M511 490v-490h-96l-9 66q-53 -40 -103 -59.5t-102 -19.5q-67 0 -101.5 34.5t-34.5 101.5v367h122v-331q-1 -39 12 -54t48 -15q30 0 62 12.5t81 40.5v347h121zM435 602h-290v84h290v-84z" />
    <glyph glyph-name="Ubreve" unicode="&#x16c;" horiz-adv-x="671" 
d="M599 270q0 -104 -25 -165.5t-81.5 -89.5t-151.5 -28q-100 0 -158 28t-84.5 89.5t-26.5 165.5v420h125v-420q0 -67 13 -105t43 -54.5t83 -16.5q52 0 81.5 16.5t42.5 54.5t13 105v420h126v-420zM494 884l1 -14q0 -57 -43 -93t-115 -36q-73 0 -116.5 36t-43.5 93l1 14l59 8
q0 -32 25 -49t75 -17q48 0 73 17t25 49z" />
    <glyph glyph-name="ubreve" unicode="&#x16d;" horiz-adv-x="579" 
d="M511 490v-490h-96l-9 66q-53 -40 -103 -59.5t-102 -19.5q-67 0 -101.5 34.5t-34.5 101.5v367h122v-331q-1 -39 12 -54t48 -15q30 0 62 12.5t81 40.5v347h121zM447 708l1 -14q0 -57 -43 -93t-115 -36q-73 0 -116.5 36t-43.5 93l1 14l59 8q0 -32 25 -49t75 -17q48 0 73 17
t25 49z" />
    <glyph glyph-name="Uring" unicode="&#x16e;" horiz-adv-x="671" 
d="M599 270q0 -104 -25 -165.5t-81.5 -89.5t-151.5 -28q-100 0 -158 28t-84.5 89.5t-26.5 165.5v420h125v-420q0 -67 13 -105t43 -54.5t83 -16.5q52 0 81.5 16.5t42.5 54.5t13 105v420h126v-420zM416.5 911q33.5 -32 33.5 -79t-33 -78.5t-80 -31.5q-48 0 -80.5 31.5
t-32.5 78.5t33 79t80 32q46 0 79.5 -32zM299 872q-15 -15 -15 -40q0 -24 15.5 -38.5t37.5 -14.5t37.5 14.5t15.5 38.5q0 25 -15.5 40t-37.5 15q-23 0 -38 -15z" />
    <glyph glyph-name="uring" unicode="&#x16f;" horiz-adv-x="579" 
d="M511 490v-490h-96l-9 66q-53 -40 -103 -59.5t-102 -19.5q-67 0 -101.5 34.5t-34.5 101.5v367h122v-331q-1 -39 12 -54t48 -15q30 0 62 12.5t81 40.5v347h121zM369.5 735q33.5 -32 33.5 -79t-33 -78.5t-80 -31.5q-48 0 -80.5 31.5t-32.5 78.5t33 79t80 32q46 0 79.5 -32z
M252 696q-15 -15 -15 -40q0 -24 15.5 -38.5t37.5 -14.5t37.5 14.5t15.5 38.5q0 25 -15.5 40t-37.5 15q-23 0 -38 -15z" />
    <glyph glyph-name="Uhungarumlaut" unicode="&#x170;" horiz-adv-x="671" 
d="M599 270q0 -104 -25 -165.5t-81.5 -89.5t-151.5 -28q-100 0 -158 28t-84.5 89.5t-26.5 165.5v420h125v-420q0 -67 13 -105t43 -54.5t83 -16.5q52 0 81.5 16.5t42.5 54.5t13 105v420h126v-420zM371 890l-144 -164l-51 39l111 182zM550 890l-145 -164l-50 39l111 182z" />
    <glyph glyph-name="uhungarumlaut" unicode="&#x171;" horiz-adv-x="579" 
d="M511 490v-490h-96l-9 66q-53 -40 -103 -59.5t-102 -19.5q-67 0 -101.5 34.5t-34.5 101.5v367h122v-331q-1 -39 12 -54t48 -15q30 0 62 12.5t81 40.5v347h121zM324 714l-144 -164l-51 39l111 182zM503 714l-145 -164l-50 39l111 182z" />
    <glyph glyph-name="Uogonek" unicode="&#x172;" horiz-adv-x="671" 
d="M599 690v-420q0 -98 -22 -158t-70.5 -89.5t-130.5 -34.5q-22 -28 -37.5 -51.5t-25.5 -50.5q-6 -14 -6 -22q0 -25 33 -25q16 0 42 8l13 -48q-50 -21 -92 -21q-38 0 -58.5 18.5t-20.5 48.5q0 16 6 33q18 56 89 109q-91 3 -144.5 32.5t-78 90t-24.5 160.5v420h125v-420
q0 -67 13 -105t43 -54.5t83 -16.5q52 0 81.5 16.5t42.5 54.5t13 105v420h126z" />
    <glyph glyph-name="uogonek" unicode="&#x173;" horiz-adv-x="579" 
d="M530 -193q-50 -21 -92 -21q-38 0 -58.5 18.5t-20.5 48.5q0 16 6 33q20 59 95 114h-45l-9 66q-53 -40 -103 -59.5t-102 -19.5q-67 0 -101.5 34.5t-34.5 101.5v367h122v-331q-1 -39 12 -54t48 -15q30 0 62 12.5t81 40.5v347h121v-490h3q-23 -29 -39 -53t-27 -53
q-6 -14 -6 -22q0 -25 33 -25q16 0 42 8z" />
    <glyph glyph-name="Wcircumflex" unicode="&#x174;" horiz-adv-x="961" 
d="M813 35q-4 -16 -16.5 -25.5t-29.5 -9.5h-131q-17 0 -30 10t-16 26l-87 481q-5 27 -13 81h-20q-9 -58 -13 -81l-86 -481q-3 -16 -16 -26t-31 -10h-130q-17 0 -30 9.5t-16 25.5l-119 655h130l82 -503q6 -34 11 -94h21q9 58 16 94l85 463q3 18 15.5 29t30.5 11h122
q17 0 29.5 -11t15.5 -29l85 -464q10 -50 14 -93h22q4 27 5 44l6 48l83 505h130zM657 773l-39 -50l-133 96h-8l-134 -96l-37 51l131 131h88z" />
    <glyph glyph-name="wcircumflex" unicode="&#x175;" horiz-adv-x="834" 
d="M686 33q-4 -16 -15.5 -24.5t-27.5 -8.5h-103q-17 0 -29.5 10.5t-15.5 27.5l-59 301q-4 21 -5 34q-2 12 -8 46h-12l-14 -80l-57 -301q-3 -17 -16 -27.5t-30 -10.5h-101q-17 0 -29 9t-15 24l-130 457h124l81 -337q10 -46 13 -78h13l5 26q3 14 10 52l60 301q3 17 14.5 26.5
t28.5 9.5h99q17 0 29 -10t15 -27l58 -300q2 -15 4.5 -27t4.5 -20l6 -31h13q9 61 13 78l81 337h124zM594 594l-39 -50l-133 96h-8l-134 -96l-37 51l131 131h88z" />
    <glyph glyph-name="Ycircumflex" unicode="&#x176;" horiz-adv-x="589" 
d="M357 233v-233h-125v235l-227 455h132l126 -268q9 -20 17 -47.5t11 -35.5h8q3 8 11 35.5t17 47.5l126 268h130zM472 762l-39 -50l-133 96h-8l-134 -96l-37 51l131 131h88z" />
    <glyph glyph-name="ycircumflex" unicode="&#x177;" horiz-adv-x="546" 
d="M533 490l-182 -505q-29 -83 -89 -138t-158 -50l-10 77q58 16 92 43.5t52 71.5l5 11h-24q-15 0 -26 8t-15 22l-166 460h129l107 -337q10 -31 16 -65h14l20 65l105 337h130zM451 595l-39 -50l-133 96h-8l-134 -96l-37 51l131 131h88z" />
    <glyph glyph-name="Ydieresis" unicode="&#x178;" horiz-adv-x="589" 
d="M357 233v-233h-125v235l-227 455h132l126 -268q9 -20 17 -47.5t11 -35.5h8q3 8 11 35.5t17 47.5l126 268h130zM256 836v-55q0 -16 -7 -23t-22 -7h-41q-15 0 -22 7t-7 23v55q0 31 29 31h41q29 0 29 -31zM427.5 858.5q8.5 -8.5 8.5 -22.5v-55q0 -30 -31 -30h-39
q-31 0 -31 30v55q0 31 31 31h39q14 0 22.5 -8.5z" />
    <glyph glyph-name="Zacute" unicode="&#x179;" horiz-adv-x="574" 
d="M530 102v-102h-485v102l340 486h-334v102h472v-102l-340 -486h347zM453 844l-213 -111l-38 54l188 147z" />
    <glyph glyph-name="zacute" unicode="&#x17a;" horiz-adv-x="518" 
d="M473 93v-93h-428v93l288 304h-284v93h420v-93l-288 -304h292zM429 665l-213 -111l-38 54l188 147z" />
    <glyph glyph-name="Zdotaccent" unicode="&#x17b;" horiz-adv-x="574" 
d="M530 102v-102h-485v102l340 486h-334v102h472v-102l-340 -486h347zM338 841v-54q0 -34 -34 -34h-38q-35 0 -35 34v54q0 35 35 35h38q34 0 34 -35z" />
    <glyph glyph-name="zdotaccent" unicode="&#x17c;" horiz-adv-x="518" 
d="M473 93v-93h-428v93l288 304h-284v93h420v-93l-288 -304h292zM315 662v-54q0 -34 -34 -34h-38q-35 0 -35 34v54q0 35 35 35h38q34 0 34 -35z" />
    <glyph glyph-name="Zcaron" unicode="&#x17d;" horiz-adv-x="574" 
d="M530 102v-102h-485v102l340 486h-334v102h472v-102l-340 -486h347zM461 876l-149 -131h-52l-148 131l37 50l133 -81h8l132 81z" />
    <glyph glyph-name="zcaron" unicode="&#x17e;" horiz-adv-x="518" 
d="M473 93v-93h-428v93l288 304h-284v93h420v-93l-288 -304h292zM437 697l-149 -131h-52l-148 131l37 50l133 -81h8l132 81z" />
    <glyph glyph-name="uni018F" unicode="&#x18f;" horiz-adv-x="642" 
d="M476 667q63 -36 88 -112.5t25 -210.5q0 -130 -24.5 -207t-83 -113t-160.5 -36q-274 0 -274 229q0 90 44.5 137t129.5 47h238q-4 77 -19.5 118.5t-51 59.5t-99.5 18q-98 0 -209 -16l-14 84q97 38 230 38q117 0 180 -36zM423 142q32 47 36 153h-217q-35 0 -50.5 -24
t-15.5 -56q0 -60 30 -90t107 -30q78 0 110 47z" />
    <glyph glyph-name="florin" unicode="&#x192;" horiz-adv-x="464" 
d="M309.5 592q-16.5 -14 -19.5 -54l-13 -134h129l-8 -89h-129l-30 -322q-6 -73 -44 -111t-117 -38q-24 0 -59.5 2.5t-56.5 6.5l16 87h65q38 0 55 15t21 53l28 307h-98l6 85l100 4l14 149q6 71 47 109.5t118 38.5q75 0 118 -8l-17 -87h-71q-38 0 -54.5 -14z" />
    <glyph glyph-name="Ohorn" unicode="&#x1a0;" horiz-adv-x="679" 
d="M664.5 633q-31.5 -37 -78.5 -50q36 -79 36 -238q0 -138 -27.5 -215t-88.5 -110t-169 -33t-169 33t-88 110t-27 215t27 215t88 110t169 33q76 0 128 -16t85 -51q28 9 45.5 32.5t20.5 56.5l81 -5q-1 -50 -32.5 -87zM429.5 117q32.5 23 46.5 76.5t14 151.5t-14 151.5
t-46.5 76.5t-92.5 23q-59 0 -91.5 -23t-46.5 -76.5t-14 -151.5t14 -151.5t46.5 -76.5t91.5 -23q60 0 92.5 23z" />
    <glyph glyph-name="ohorn" unicode="&#x1a1;" horiz-adv-x="596" 
d="M580 456q-31 -37 -78 -50q28 -59 28 -161q0 -95 -23.5 -151t-76 -81.5t-141.5 -25.5q-90 0 -142.5 25.5t-76.5 81.5t-24 151t24 151.5t77 82t142 25.5q117 0 173 -46q29 7 47.5 31.5t21.5 58.5l81 -5q-1 -50 -32 -87zM358.5 98q24.5 14 35 48.5t10.5 98.5
q0 65 -10.5 99.5t-35 48.5t-69.5 14q-46 0 -70.5 -14t-35 -48.5t-10.5 -99.5q0 -64 10.5 -98.5t35 -48.5t70.5 -14q45 0 69.5 14z" />
    <glyph glyph-name="Uhorn" unicode="&#x1af;" horiz-adv-x="717" 
d="M697.5 622.5q-41.5 -39.5 -98.5 -44.5v-308q0 -104 -25 -165.5t-81.5 -89.5t-151.5 -28q-100 0 -158 28t-84.5 89.5t-26.5 165.5v420h125v-420q0 -67 13 -105t43 -54.5t83 -16.5q52 0 81.5 16.5t42.5 54.5t13 105v420h126v-52q26 10 42 32.5t18 54.5l81 -5
q-1 -58 -42.5 -97.5z" />
    <glyph glyph-name="uhorn" unicode="&#x1b0;" horiz-adv-x="623" 
d="M611 444.5q-42 -39.5 -100 -44.5v-400h-96l-9 66q-53 -40 -103 -59.5t-102 -19.5q-67 0 -101.5 34.5t-34.5 101.5v367h122v-331q-1 -39 12 -54t48 -15q30 0 62 12.5t81 40.5v347h121v-29q27 9 43 32t18 55l82 -5q-1 -59 -43 -98.5z" />
    <glyph glyph-name="uni01C4" unicode="&#x1c4;" horiz-adv-x="1239" 
d="M501.5 666.5q60.5 -32.5 88 -109t27.5 -212.5t-27.5 -212.5t-88 -109t-166.5 -32.5q-121 0 -258 9v690q137 9 258 9q106 0 166.5 -32.5zM425 119q32 23 46 76t14 150t-14 150.5t-46 76.5t-90 23l-133 -1v-496q78 -2 133 -2q58 0 90 23zM1196 102v-102h-485v102l340 486
h-334v102h472v-102l-340 -486h347zM1126 876l-149 -131h-52l-148 131l37 50l133 -81h8l132 81z" />
    <glyph glyph-name="uni01C5" unicode="&#x1c5;" horiz-adv-x="1188" 
d="M501.5 666.5q60.5 -32.5 88 -109t27.5 -212.5t-27.5 -212.5t-88 -109t-166.5 -32.5q-121 0 -258 9v690q137 9 258 9q106 0 166.5 -32.5zM425 119q32 23 46 76t14 150t-14 150.5t-46 76.5t-90 23l-133 -1v-496q78 -2 133 -2q58 0 90 23zM1144 93v-93h-428v93l288 304h-284
v93h420v-93l-288 -304h292zM1108 697l-149 -131h-52l-148 131l37 50l133 -81h8l132 81z" />
    <glyph glyph-name="uni01C6" unicode="&#x1c6;" horiz-adv-x="1100" 
d="M515 700v-700h-96l-10 67q-37 -35 -85.5 -57t-104.5 -22q-90 0 -131 65.5t-41 194.5q0 96 21 152t62 80t105 24q95 0 163 -44q-5 40 -5 99v141h122zM181.5 151q9.5 -34 29 -47t53.5 -13t59 10.5t70 40.5v243l-20 5q-34 8 -55.5 11.5t-46.5 3.5q-38 0 -59 -12t-30.5 -45
t-9.5 -99q0 -64 9.5 -98zM1056 93v-93h-428v93l288 304h-284v93h420v-93l-288 -304h292zM1020 697l-149 -131h-52l-148 131l37 50l133 -81h8l132 81z" />
    <glyph glyph-name="uni01C7" unicode="&#x1c7;" horiz-adv-x="875" 
d="M200 161q0 -32 13 -44.5t46 -12.5h240l5 -97q-98 -9 -274 -9q-155 0 -155 143v549h125v-529zM800 152q0 -79 -37.5 -121t-106.5 -42q-25 0 -58.5 5t-51.5 12l13 87h47q70 0 70 62v535h124v-538z" />
    <glyph glyph-name="uni01C8" unicode="&#x1c8;" horiz-adv-x="788" 
d="M200 161q0 -32 13 -44.5t46 -12.5h240l5 -97q-98 -9 -274 -9q-155 0 -155 143v549h125v-529zM718 669v-54q0 -35 -35 -35h-56q-35 0 -35 35v54q0 35 35 35h56q35 0 35 -35zM716 9q0 -64 -30 -120.5t-82 -88.5l-68 53q31 37 44.5 73.5t13.5 82.5v481h122v-481z" />
    <glyph glyph-name="uni01C9" unicode="&#x1c9;" horiz-adv-x="581" 
d="M190 153q0 -57 59 -57h42l14 -90q-15 -8 -47.5 -12.5t-56.5 -4.5q-61 0 -96.5 35t-35.5 99v577h122zM511 669v-54q0 -35 -35 -35h-56q-35 0 -35 35v54q0 35 35 35h56q35 0 35 -35zM509 9q0 -64 -30 -120.5t-82 -88.5l-68 53q31 37 44.5 73.5t13.5 82.5v481h122v-481z" />
    <glyph glyph-name="uni01CA" unicode="&#x1ca;" horiz-adv-x="1068" 
d="M638 46q0 -46 -46 -46h-99q-20 0 -32 9t-20 29l-194 423q-11 23 -23.5 52.5t-17.5 50.5h-12q6 -42 6 -104v-460h-123v644q0 22 12 34t35 12h97q20 0 31.5 -9t20.5 -29l188 -411l16 -37q16 -32 32 -72h12q-5 63 -5 112v446h122v-644zM994 152q0 -79 -37.5 -121t-106.5 -42
q-25 0 -58.5 5t-51.5 12l13 87h47q70 0 70 62v535h124v-538z" />
    <glyph glyph-name="uni01CB" unicode="&#x1cb;" horiz-adv-x="981" 
d="M638 46q0 -46 -46 -46h-99q-20 0 -32 9t-20 29l-194 423q-11 23 -23.5 52.5t-17.5 50.5h-12q6 -42 6 -104v-460h-123v644q0 22 12 34t35 12h97q20 0 31.5 -9t20.5 -29l188 -411l16 -37q16 -32 32 -72h12q-5 63 -5 112v446h122v-644zM912 669v-54q0 -35 -35 -35h-56
q-35 0 -35 35v54q0 35 35 35h56q35 0 35 -35zM910 9q0 -64 -30 -120.5t-82 -88.5l-68 53q31 37 44.5 73.5t13.5 82.5v481h122v-481z" />
    <glyph glyph-name="uni01CC" unicode="&#x1cc;" horiz-adv-x="857" 
d="M490 469q35 -35 35 -101v-368h-122v331q0 41 -11 55.5t-41 14.5q-34 0 -68.5 -13.5t-93.5 -46.5l1 -341h-122v490h102l8 -73q113 87 212 87q65 0 100 -35zM787 669v-54q0 -35 -35 -35h-56q-35 0 -35 35v54q0 35 35 35h56q35 0 35 -35zM785 9q0 -64 -30 -120.5t-82 -88.5
l-68 53q31 37 44.5 73.5t13.5 82.5v481h122v-481z" />
    <glyph glyph-name="Gcaron" unicode="&#x1e6;" horiz-adv-x="635" 
d="M576 398v-398h-93l-11 68q-35 -33 -86 -57t-116 -24q-114 0 -165 86.5t-51 274.5q0 139 29 215.5t93.5 108t179.5 31.5t198 -23l-10 -93q-98 6 -182 6q-72 0 -108 -17t-52.5 -70t-16.5 -165q0 -94 11.5 -147t38.5 -76t74 -23q40 0 74 12.5t71 35.5v255h122zM508 885
l-149 -131h-52l-148 131l37 50l133 -81h8l132 81z" />
    <glyph glyph-name="gcaron" unicode="&#x1e7;" 
d="M545 431l-64 -7q13 -32 13 -78q0 -57 -21 -91t-69 -50.5t-131 -16.5q-51 0 -90 6q-7 -14 -7 -26q0 -15 9 -25.5t27 -13.5l179 -25q72 -10 103.5 -44t31.5 -99q0 -61 -23 -95t-76 -48t-148 -14q-96 0 -149.5 14t-76 46.5t-22.5 89.5q0 38 18 62t59 45q-28 25 -28 69
q0 25 11 48t29 35q-36 18 -52 50t-16 82q0 59 21 93t69 50t132 16q81 0 126 -14h152zM358.5 289q23.5 16 23.5 57t-23.5 56.5t-85.5 15.5t-86 -15.5t-24 -56.5t24 -57t86 -16t85.5 16zM402 -3.5q-7 9.5 -22.5 13.5t-53.5 9l-139 17q-20 -17 -29.5 -32.5t-9.5 -36.5
q0 -30 10.5 -43.5t37 -18t82.5 -4.5t83 5t37.5 18.5t10.5 41.5q0 21 -7 30.5zM451 696l-149 -131h-52l-148 131l37 50l133 -81h8l132 81z" />
    <glyph glyph-name="uni01EA" unicode="&#x1ea;" horiz-adv-x="675" 
d="M314 -106q-6 -14 -6 -22q0 -25 33 -25q16 0 42 8l13 -48q-50 -21 -92 -21q-38 0 -58.5 18.5t-20.5 48.5q0 16 6 33q18 52 79 101q-96 4 -151.5 39t-80.5 111t-25 208q0 138 27 215t88 110t169 33t169 -33t88.5 -110t27.5 -215q0 -131 -24.5 -206.5t-78.5 -110.5t-149 -40
q-39 -50 -56 -94zM199 193.5q14 -53.5 46.5 -76.5t91.5 -23q60 0 92.5 23t46.5 76.5t14 151.5t-14 151.5t-46.5 76.5t-92.5 23q-59 0 -91.5 -23t-46.5 -76.5t-14 -151.5t14 -151.5z" />
    <glyph glyph-name="uni01EB" unicode="&#x1eb;" horiz-adv-x="576" 
d="M269 -104q-6 -14 -6 -22q0 -25 33 -25q16 0 42 8l13 -48q-50 -21 -92 -21q-38 0 -58.5 18.5t-20.5 48.5q0 16 6 33q17 50 77 100q-80 3 -127 30t-68.5 82t-21.5 145q0 95 24 151.5t77 82t142 25.5t141.5 -25.5t76 -82t23.5 -151.5q0 -89 -20.5 -143.5t-65.5 -81.5
t-120 -32q-38 -48 -55 -92zM183.5 146.5q10.5 -34.5 35 -48.5t70.5 -14q45 0 69.5 14t35 48.5t10.5 98.5q0 65 -10.5 99.5t-35 48.5t-69.5 14q-46 0 -70.5 -14t-35 -48.5t-10.5 -99.5q0 -64 10.5 -98.5z" />
    <glyph glyph-name="Aringacute" unicode="&#x1fa;" horiz-adv-x="636" 
d="M247 879l-36 51l161 128l60 -86zM238 685.5q-33 31.5 -33 78.5t33.5 79t80.5 32q46 0 79.5 -32t33.5 -79t-33 -78.5t-80 -31.5q-48 0 -81 31.5zM281 804q-15 -15 -15 -40t15 -39.5t38 -14.5q22 0 37 14.5t15 39.5t-15 40t-37 15q-23 0 -38 -15zM449 166h-262l-54 -166
h-128l207 597q13 33 45 33h122q32 0 45 -33l207 -597h-128zM415 270l-68 206q-11 36 -15 59h-27q-13 -50 -16 -59l-68 -206h194z" />
    <glyph glyph-name="aringacute" unicode="&#x1fb;" horiz-adv-x="558" 
d="M209 759l-35 51l160 129l60 -87zM199 559q-33 32 -33 79t33 79t81 32q46 0 79.5 -32t33.5 -79t-33 -79t-80 -32q-48 0 -81 32zM242 677q-15 -15 -15 -39q0 -25 15 -39.5t38 -14.5q22 0 37 14.5t15 39.5q0 24 -15 39t-37 15q-23 0 -38 -15zM449.5 466q44.5 -38 44.5 -133
v-333h-96l-13 74q-32 -35 -79.5 -60t-107.5 -25q-69 0 -112 37.5t-43 104.5v50q0 59 38 91t107 32h184v30q-1 29 -8.5 43.5t-26.5 20.5t-55 6q-77 0 -205 -10l-12 86q53 10 125 17t120 7q95 0 139.5 -38zM179.5 101.5q15.5 -14.5 48.5 -14.5q31 0 69.5 14.5t74.5 43.5v76
h-156q-29 -1 -40.5 -15t-11.5 -40v-19q0 -31 15.5 -45.5z" />
    <glyph glyph-name="AEacute" unicode="&#x1fc;" horiz-adv-x="921" 
d="M870 102l6 -96q-65 -5 -134 -6.5t-173 -1.5q-55 0 -89 36.5t-34 94.5v73h-217l-107 -202h-130l312 568q25 48 56 74.5t79 37.5t127 11q196 0 310 -7l-6 -97h-248q-27 0 -43 -16.5t-16 -44.5v-116h270v-97h-270v-153q0 -32 13.5 -45t45.5 -13h248zM446 301v239
q0 20 7.5 39.5t18.5 29.5h-9q-22 -14 -48 -57l-133 -251h164zM739 830l-212 -111l-38 54l188 147z" />
    <glyph glyph-name="aeacute" unicode="&#x1fd;" horiz-adv-x="870" 
d="M805 99l11 -78q-36 -17 -91.5 -25t-110.5 -8q-86 0 -138.5 24t-77.5 76q-31 -39 -82.5 -69t-117.5 -30q-69 0 -112 37.5t-43 104.5v50q0 58 38 90.5t106 32.5h184v30q0 42 -18.5 56t-71.5 14q-77 0 -205 -10l-11 86q53 10 124.5 17t119.5 7q97 0 139 -38q53 38 159 38
q116 0 168.5 -42t53.5 -128q0 -140 -131 -140h-200q5 -44 19.5 -67t41 -31.5t71.5 -8.5q74 0 175 12zM544 397q-24 -11 -35.5 -38.5t-13.5 -79.5h169q26 0 35 16t9 41q0 40 -20.5 56t-75.5 16q-44 0 -68 -11zM301.5 103q40.5 16 76.5 48q-7 35 -8 69l-154 1
q-29 -1 -40.5 -15t-11.5 -40v-19q0 -32 15 -46t49 -14q33 0 73.5 16zM624 660l-212 -111l-38 54l188 147z" />
    <glyph glyph-name="Oslashacute" unicode="&#x1fe;" horiz-adv-x="675" 
d="M597.5 552q24.5 -76 24.5 -207q0 -138 -27.5 -215t-88.5 -110t-169 -33q-77 0 -128 16l-30 -64l-56 23l31 67q-54 36 -77.5 111.5t-23.5 204.5q0 138 27 215t88 110t169 33q73 0 126 -15l31 66l55 -23l-32 -67q56 -36 80.5 -112zM213 155l201 427q-29 14 -77 14
q-59 0 -91.5 -23t-46.5 -76.5t-14 -151.5q0 -135 28 -190zM429.5 117q32.5 23 46.5 76.5t14 151.5q0 72 -7 119t-24 75l-201 -430q29 -15 79 -15q60 0 92.5 23zM507 838l-212 -111l-38 54l188 147z" />
    <glyph glyph-name="oslashacute" unicode="&#x1ff;" horiz-adv-x="576" 
d="M505 399q25 -57 25 -154q0 -95 -23.5 -151t-76 -81.5t-141.5 -25.5q-48 0 -90 8l-36 -77l-47 22l33 71q-54 26 -78.5 82.5t-24.5 151.5t24 151.5t77 82t142 25.5q50 0 85 -7l35 75l47 -23l-32 -68q56 -25 81 -82zM179 165q6 -31 19 -49l133 287q-16 4 -42 4
q-46 0 -70.5 -14t-35 -48.5t-10.5 -99.5q0 -49 6 -80zM358.5 98q24.5 14 35 48.5t10.5 98.5q0 51 -6.5 82.5t-21.5 50.5l-134 -289q16 -5 47 -5q45 0 69.5 14zM465 654l-212 -111l-38 54l188 147z" />
    <glyph glyph-name="uni0200" unicode="&#x200;" horiz-adv-x="636" 
d="M446 195h-256l-57 -195h-128l207 657q4 15 16.5 24t28.5 9h122q16 0 28.5 -9t16.5 -24l207 -657h-128zM416 298l-69 238q-2 9 -7.5 27.5t-7.5 31.5h-27l-16 -59l-69 -238h196zM282 758l-50 -39l-144 164l84 57zM462 759l-51 -40l-145 164l84 57z" />
    <glyph glyph-name="uni0201" unicode="&#x201;" horiz-adv-x="558" 
d="M449.5 466q44.5 -38 44.5 -133v-333h-96l-13 74q-32 -35 -79.5 -60t-107.5 -25q-69 0 -112 37.5t-43 104.5v50q0 59 38 91t107 32h184v30q-1 29 -8.5 43.5t-26.5 20.5t-55 6q-77 0 -205 -10l-12 86q53 10 125 17t120 7q95 0 139.5 -38zM179.5 101.5
q15.5 -14.5 48.5 -14.5q31 0 69.5 14.5t74.5 43.5v76h-156q-29 -1 -40.5 -15t-11.5 -40v-19q0 -31 15.5 -45.5zM242 588l-50 -39l-144 164l84 57zM422 589l-51 -40l-145 164l84 57z" />
    <glyph glyph-name="uni0202" unicode="&#x202;" horiz-adv-x="636" 
d="M446 195h-256l-57 -195h-128l207 657q4 15 16.5 24t28.5 9h122q16 0 28.5 -9t16.5 -24l207 -657h-128zM416 298l-69 238q-2 9 -7.5 27.5t-7.5 31.5h-27l-16 -59l-69 -238h196zM160 750l-1 14q0 56 43 92t115 36t116 -35.5t44 -91.5q0 -10 -1 -15l-58 -9q0 33 -25.5 50
t-75.5 17q-48 0 -73 -17.5t-25 -49.5z" />
    <glyph glyph-name="uni0203" unicode="&#x203;" horiz-adv-x="558" 
d="M449.5 466q44.5 -38 44.5 -133v-333h-96l-13 74q-32 -35 -79.5 -60t-107.5 -25q-69 0 -112 37.5t-43 104.5v50q0 59 38 91t107 32h184v30q-1 29 -8.5 43.5t-26.5 20.5t-55 6q-77 0 -205 -10l-12 86q53 10 125 17t120 7q95 0 139.5 -38zM179.5 101.5
q15.5 -14.5 48.5 -14.5q31 0 69.5 14.5t74.5 43.5v76h-156q-29 -1 -40.5 -15t-11.5 -40v-19q0 -31 15.5 -45.5zM120 580l-1 14q0 56 43 92t115 36t116 -35.5t44 -91.5q0 -10 -1 -15l-58 -9q0 33 -25.5 50t-75.5 17q-48 0 -73 -17.5t-25 -49.5z" />
    <glyph glyph-name="uni0204" unicode="&#x204;" 
d="M517 101l6 -95q-60 -5 -130 -6.5t-174 -1.5q-68 0 -107.5 35t-40.5 96v432q1 61 40.5 96t107.5 35q104 0 174 -1.5t130 -6.5l-6 -96h-270q-27 0 -38.5 -13t-11.5 -45v-121h283v-96h-283v-154q0 -32 11.5 -45t38.5 -13h270zM275 774l-50 -39l-144 164l84 57zM455 775
l-51 -40l-145 164l84 57z" />
    <glyph glyph-name="uni0205" unicode="&#x205;" horiz-adv-x="548" 
d="M482 99l11 -78q-36 -17 -92 -25t-110 -8q-90 0 -143 26t-77.5 82t-24.5 150q0 97 24.5 153t76 80.5t136.5 24.5q117 0 170 -42.5t53 -127.5q0 -140 -131 -140h-200q5 -44 19.5 -67t40.5 -31.5t71 -8.5q75 0 176 12zM220 397q-24 -11 -35 -38.5t-13 -79.5h169q26 0 35 16
t9 41q0 40 -21 56t-76 16q-44 0 -68 -11zM250 587l-50 -39l-144 164l84 57zM430 588l-51 -40l-145 164l84 57z" />
    <glyph glyph-name="uni0206" unicode="&#x206;" 
d="M517 101l6 -95q-60 -5 -130 -6.5t-174 -1.5q-68 0 -107.5 35t-40.5 96v432q1 61 40.5 96t107.5 35q104 0 174 -1.5t130 -6.5l-6 -96h-270q-27 0 -38.5 -13t-11.5 -45v-121h283v-96h-283v-154q0 -32 11.5 -45t38.5 -13h270zM153 767l-1 14q0 56 43 92t115 36t116 -35.5
t44 -91.5q0 -10 -1 -15l-58 -9q0 33 -25.5 50t-75.5 17q-48 0 -73 -17.5t-25 -49.5z" />
    <glyph glyph-name="uni0207" unicode="&#x207;" horiz-adv-x="548" 
d="M482 99l11 -78q-36 -17 -92 -25t-110 -8q-90 0 -143 26t-77.5 82t-24.5 150q0 97 24.5 153t76 80.5t136.5 24.5q117 0 170 -42.5t53 -127.5q0 -140 -131 -140h-200q5 -44 19.5 -67t40.5 -31.5t71 -8.5q75 0 176 12zM220 397q-24 -11 -35 -38.5t-13 -79.5h169q26 0 35 16
t9 41q0 40 -21 56t-76 16q-44 0 -68 -11zM128 579l-1 14q0 56 43 92t115 36t116 -35.5t44 -91.5q0 -10 -1 -15l-58 -9q0 33 -25.5 50t-75.5 17q-48 0 -73 -17.5t-25 -49.5z" />
    <glyph glyph-name="uni0208" unicode="&#x208;" horiz-adv-x="279" 
d="M202 0h-125v690h125v-690zM103 767l-50 -39l-144 164l84 57zM283 768l-51 -40l-145 164l84 57z" />
    <glyph glyph-name="uni0209" unicode="&#x209;" horiz-adv-x="266" 
d="M194 0h-122v490h122v-490zM96 588l-50 -39l-144 164l84 57zM276 589l-51 -40l-145 164l84 57z" />
    <glyph glyph-name="uni020A" unicode="&#x20a;" horiz-adv-x="279" 
d="M202 0h-125v690h125v-690zM-19 759l-1 14q0 56 43 92t115 36t116 -35.5t44 -91.5q0 -10 -1 -15l-58 -9q0 33 -25.5 50t-75.5 17q-48 0 -73 -17.5t-25 -49.5z" />
    <glyph glyph-name="uni020B" unicode="&#x20b;" horiz-adv-x="266" 
d="M194 0h-122v490h122v-490zM-26 580l-1 14q0 56 43 92t115 36t116 -35.5t44 -91.5q0 -10 -1 -15l-58 -9q0 33 -25.5 50t-75.5 17q-48 0 -73 -17.5t-25 -49.5z" />
    <glyph glyph-name="uni020C" unicode="&#x20c;" horiz-adv-x="675" 
d="M506 670q61 -33 88.5 -110t27.5 -215t-27.5 -215t-88.5 -110t-169 -33t-169 33t-88 110t-27 215t27 215t88 110t169 33t169 -33zM245.5 573q-32.5 -23 -46.5 -76.5t-14 -151.5t14 -151.5t46.5 -76.5t91.5 -23q60 0 92.5 23t46.5 76.5t14 151.5t-14 151.5t-46.5 76.5
t-92.5 23q-59 0 -91.5 -23zM302 767l-50 -39l-144 164l84 57zM482 768l-51 -40l-145 164l84 57z" />
    <glyph glyph-name="uni020D" unicode="&#x20d;" horiz-adv-x="576" 
d="M430.5 478.5q52.5 -25.5 76 -82t23.5 -151.5t-23.5 -151t-76 -81.5t-141.5 -25.5q-90 0 -142.5 25.5t-76.5 81.5t-24 151t24 151.5t77 82t142 25.5t141.5 -25.5zM218.5 393q-24.5 -14 -35 -48.5t-10.5 -99.5q0 -64 10.5 -98.5t35 -48.5t70.5 -14q45 0 69.5 14t35 48.5
t10.5 98.5q0 65 -10.5 99.5t-35 48.5t-69.5 14q-46 0 -70.5 -14zM253 581l-50 -39l-144 164l84 57zM433 582l-51 -40l-145 164l84 57z" />
    <glyph glyph-name="uni020E" unicode="&#x20e;" horiz-adv-x="675" 
d="M506 670q61 -33 88.5 -110t27.5 -215t-27.5 -215t-88.5 -110t-169 -33t-169 33t-88 110t-27 215t27 215t88 110t169 33t169 -33zM245.5 573q-32.5 -23 -46.5 -76.5t-14 -151.5t14 -151.5t46.5 -76.5t91.5 -23q60 0 92.5 23t46.5 76.5t14 151.5t-14 151.5t-46.5 76.5
t-92.5 23q-59 0 -91.5 -23zM180 759l-1 14q0 56 43 92t115 36t116 -35.5t44 -91.5q0 -10 -1 -15l-58 -9q0 33 -25.5 50t-75.5 17q-48 0 -73 -17.5t-25 -49.5z" />
    <glyph glyph-name="uni020F" unicode="&#x20f;" horiz-adv-x="576" 
d="M430.5 478.5q52.5 -25.5 76 -82t23.5 -151.5t-23.5 -151t-76 -81.5t-141.5 -25.5q-90 0 -142.5 25.5t-76.5 81.5t-24 151t24 151.5t77 82t142 25.5t141.5 -25.5zM218.5 393q-24.5 -14 -35 -48.5t-10.5 -99.5q0 -64 10.5 -98.5t35 -48.5t70.5 -14q45 0 69.5 14t35 48.5
t10.5 98.5q0 65 -10.5 99.5t-35 48.5t-69.5 14q-46 0 -70.5 -14zM131 574l-1 14q0 56 43 92t115 36t116 -35.5t44 -91.5q0 -10 -1 -15l-58 -9q0 33 -25.5 50t-75.5 17q-48 0 -73 -17.5t-25 -49.5z" />
    <glyph glyph-name="uni0210" unicode="&#x210;" horiz-adv-x="629" 
d="M593 0h-133l-55 214q-10 33 -29 47.5t-51 14.5h-124v-276h-124v690q56 6 106.5 7.5t144.5 1.5q88 0 139.5 -18t76 -62t24.5 -122q0 -80 -30 -122.5t-99 -51.5v-5q30 -7 56 -32t36 -70zM395 389.5q25 9.5 35.5 33t10.5 66.5t-10.5 66t-35.5 32t-70 9h-124v-217h124
q45 1 70 10.5zM269 767l-50 -39l-144 164l84 57zM449 768l-51 -40l-145 164l84 57z" />
    <glyph glyph-name="uni0211" unicode="&#x211;" horiz-adv-x="413" 
d="M400 504l-13 -114h-35q-32 0 -67 -10t-95 -33v-347h-122v490h95l11 -72q51 42 102.5 64t99.5 22h24zM184 588l-50 -39l-144 164l84 57zM364 589l-51 -40l-145 164l84 57z" />
    <glyph glyph-name="uni0212" unicode="&#x212;" horiz-adv-x="629" 
d="M593 0h-133l-55 214q-10 33 -29 47.5t-51 14.5h-124v-276h-124v690q56 6 106.5 7.5t144.5 1.5q88 0 139.5 -18t76 -62t24.5 -122q0 -80 -30 -122.5t-99 -51.5v-5q30 -7 56 -32t36 -70zM395 389.5q25 9.5 35.5 33t10.5 66.5t-10.5 66t-35.5 32t-70 9h-124v-217h124
q45 1 70 10.5zM147 759l-1 14q0 56 43 92t115 36t116 -35.5t44 -91.5q0 -10 -1 -15l-58 -9q0 33 -25.5 50t-75.5 17q-48 0 -73 -17.5t-25 -49.5z" />
    <glyph glyph-name="uni0213" unicode="&#x213;" horiz-adv-x="413" 
d="M400 504l-13 -114h-35q-32 0 -67 -10t-95 -33v-347h-122v490h95l11 -72q51 42 102.5 64t99.5 22h24zM62 580l-1 14q0 56 43 92t115 36t116 -35.5t44 -91.5q0 -10 -1 -15l-58 -9q0 33 -25.5 50t-75.5 17q-48 0 -73 -17.5t-25 -49.5z" />
    <glyph glyph-name="uni0214" unicode="&#x214;" horiz-adv-x="671" 
d="M599 270q0 -104 -25 -165.5t-81.5 -89.5t-151.5 -28q-100 0 -158 28t-84.5 89.5t-26.5 165.5v420h125v-420q0 -67 13 -105t43 -54.5t83 -16.5q52 0 81.5 16.5t42.5 54.5t13 105v420h126v-420zM305 782l-49 -39l-145 164l84 57zM485 782l-51 -39l-145 164l84 57z" />
    <glyph glyph-name="uni0215" unicode="&#x215;" horiz-adv-x="579" 
d="M511 490v-490h-96l-9 66q-53 -40 -103 -59.5t-102 -19.5q-67 0 -101.5 34.5t-34.5 101.5v367h122v-331q-1 -39 12 -54t48 -15q30 0 62 12.5t81 40.5v347h121zM252 591l-50 -39l-144 164l84 57zM432 592l-51 -40l-145 164l84 57z" />
    <glyph glyph-name="uni0216" unicode="&#x216;" horiz-adv-x="671" 
d="M599 270q0 -104 -25 -165.5t-81.5 -89.5t-151.5 -28q-100 0 -158 28t-84.5 89.5t-26.5 165.5v420h125v-420q0 -67 13 -105t43 -54.5t83 -16.5q52 0 81.5 16.5t42.5 54.5t13 105v420h126v-420zM177 759l-1 14q0 56 43 92t115 36t116 -35.5t44 -91.5q0 -10 -1 -15l-58 -9
q0 33 -25.5 50t-75.5 17q-48 0 -73 -17.5t-25 -49.5z" />
    <glyph glyph-name="uni0217" unicode="&#x217;" horiz-adv-x="579" 
d="M511 490v-490h-96l-9 66q-53 -40 -103 -59.5t-102 -19.5q-67 0 -101.5 34.5t-34.5 101.5v367h122v-331q-1 -39 12 -54t48 -15q30 0 62 12.5t81 40.5v347h121zM130 584l-1 14q0 56 43 92t115 36t116 -35.5t44 -91.5q0 -10 -1 -15l-58 -9q0 33 -25.5 50t-75.5 17
q-48 0 -73 -17.5t-25 -49.5z" />
    <glyph glyph-name="uni0218" unicode="&#x218;" horiz-adv-x="570" 
d="M502 679l-8 -89q-114 4 -205 4q-47 0 -70 -4.5t-34 -21.5t-11 -53q0 -30 8 -47t23.5 -26.5t45.5 -18.5l133 -41q79 -25 110.5 -73.5t31.5 -127.5q0 -78 -24 -119.5t-76 -57.5t-145 -16q-114 0 -224 22l8 92q18 0 26 -1q167 -3 193 -3q47 0 71 6.5t34 24t10 53.5
q0 31 -7.5 47.5t-22.5 25.5t-43 18l-139 44q-75 24 -107 72.5t-32 127.5q0 78 24.5 117.5t74 53.5t138.5 14q127 0 217 -23zM327.5 -63q8.5 -8 7.5 -28l1 -53q-1 -78 -41 -141l-49 13q11 47 11 103q-14 0 -22 8.5t-9 23.5l1 46q2 20 10.5 28t30.5 8h29q22 0 30.5 -8z" />
    <glyph glyph-name="uni0219" unicode="&#x219;" horiz-adv-x="517" 
d="M355 498q61 -5 105 -12l-9 -84q-124 4 -187 4q-47 0 -67 -2t-28.5 -11t-8.5 -29q0 -24 11 -32.5t30 -13.5t26 -7l132 -36q63 -18 90 -48.5t27 -92.5q0 -59 -22.5 -90.5t-69 -43t-127.5 -11.5q-110 0 -205 16l8 85q52 -4 167 -4q54 0 81.5 3.5t39 13.5t11.5 30q0 18 -8 27
t-18 12.5t-46 13.5l-129 35q-64 18 -89.5 51t-25.5 93q0 54 20 84t63 42.5t117 12.5q51 -1 112 -6zM306.5 -62q8.5 -8 7.5 -28l1 -53q-1 -41 -11 -75t-30 -66l-49 13q11 48 11 104q-31 0 -31 31l1 46q1 20 10 28t31 8h29q22 0 30.5 -8z" />
    <glyph glyph-name="uni021A" unicode="&#x21a;" horiz-adv-x="592" 
d="M571 583h-213v-583h-126v583h-211v107h550v-107zM330 -63q8 -8 7 -28l1 -53q-1 -79 -40 -141l-50 13q12 51 12 103q-15 0 -23 8.5t-8 23.5v46q1 20 10.5 28t30.5 8h30q22 0 30 -8z" />
    <glyph glyph-name="uni021B" unicode="&#x21b;" horiz-adv-x="400" 
d="M231 402v-249q0 -32 13 -44.5t46 -12.5h67l13 -90q-24 -8 -62 -12.5t-64 -4.5q-64 0 -98.5 37t-34.5 106l-1 270h-88v83l88 5v141h121v-141h144v-88h-144zM284.5 -63q8.5 -8 7.5 -28l1 -53q-1 -77 -40 -141l-50 13q12 51 12 103q-15 0 -23 8.5t-8 23.5v46q1 20 10.5 28
t30.5 8h29q22 0 30.5 -8z" />
    <glyph glyph-name="uni022A" unicode="&#x22a;" horiz-adv-x="675" 
d="M506 670q61 -33 88.5 -110t27.5 -215t-27.5 -215t-88.5 -110t-169 -33t-169 33t-88 110t-27 215t27 215t88 110t169 33t169 -33zM245.5 573q-32.5 -23 -46.5 -76.5t-14 -151.5t14 -151.5t46.5 -76.5t91.5 -23q60 0 92.5 23t46.5 76.5t14 151.5t-14 151.5t-46.5 76.5
t-92.5 23q-59 0 -91.5 -23zM472 980v-75h-268v75h268zM303 830v-51q0 -27 -28 -27h-36q-27 0 -27 27v51q0 28 27 28h36q28 0 28 -28zM458.5 850.5q7.5 -7.5 7.5 -20.5v-51q0 -27 -28 -27h-35q-29 0 -29 27v51q0 28 29 28h35q13 0 20.5 -7.5z" />
    <glyph glyph-name="uni022B" unicode="&#x22b;" horiz-adv-x="576" 
d="M430.5 478.5q52.5 -25.5 76 -82t23.5 -151.5t-23.5 -151t-76 -81.5t-141.5 -25.5q-90 0 -142.5 25.5t-76.5 81.5t-24 151t24 151.5t77 82t142 25.5t141.5 -25.5zM218.5 393q-24.5 -14 -35 -48.5t-10.5 -99.5q0 -64 10.5 -98.5t35 -48.5t70.5 -14q45 0 69.5 14t35 48.5
t10.5 98.5q0 65 -10.5 99.5t-35 48.5t-69.5 14q-46 0 -70.5 -14zM423 794v-75h-268v75h268zM254 644v-51q0 -27 -28 -27h-36q-27 0 -27 27v51q0 28 27 28h36q28 0 28 -28zM409.5 664.5q7.5 -7.5 7.5 -20.5v-51q0 -27 -28 -27h-35q-29 0 -29 27v51q0 28 29 28h35
q13 0 20.5 -7.5z" />
    <glyph glyph-name="uni022C" unicode="&#x22c;" horiz-adv-x="675" 
d="M506 670q61 -33 88.5 -110t27.5 -215t-27.5 -215t-88.5 -110t-169 -33t-169 33t-88 110t-27 215t27 215t88 110t169 33t169 -33zM245.5 573q-32.5 -23 -46.5 -76.5t-14 -151.5t14 -151.5t46.5 -76.5t91.5 -23q60 0 92.5 23t46.5 76.5t14 151.5t-14 151.5t-46.5 76.5
t-92.5 23q-59 0 -91.5 -23zM431 990v-46h-187v46h187zM294 875.5q19 -6.5 45 -18.5q41 -19 68 -23q4 -1 12 -1q18 0 24.5 10.5t6.5 35.5h53q3 -16 3 -32q0 -48 -23 -73t-60 -23q-25 2 -44.5 8.5t-49.5 20.5q-23 11 -39 17t-33 6q-19 0 -25.5 -11.5t-6.5 -37.5h-53
q-2 22 -2 30q0 50 23.5 76.5t58.5 23.5q23 -2 42 -8.5z" />
    <glyph glyph-name="uni022D" unicode="&#x22d;" horiz-adv-x="576" 
d="M430.5 478.5q52.5 -25.5 76 -82t23.5 -151.5t-23.5 -151t-76 -81.5t-141.5 -25.5q-90 0 -142.5 25.5t-76.5 81.5t-24 151t24 151.5t77 82t142 25.5t141.5 -25.5zM218.5 393q-24.5 -14 -35 -48.5t-10.5 -99.5q0 -64 10.5 -98.5t35 -48.5t70.5 -14q45 0 69.5 14t35 48.5
t10.5 98.5q0 65 -10.5 99.5t-35 48.5t-69.5 14q-46 0 -70.5 -14zM382 804v-46h-187v46h187zM245 689.5q19 -6.5 45 -18.5q41 -19 68 -23q4 -1 12 -1q18 0 24.5 10.5t6.5 35.5h53q3 -16 3 -32q0 -48 -23 -73t-60 -23q-25 2 -44.5 8.5t-49.5 20.5q-23 11 -39 17t-33 6
q-19 0 -25.5 -11.5t-6.5 -37.5h-53q-2 22 -2 30q0 50 23.5 76.5t58.5 23.5q23 -2 42 -8.5z" />
    <glyph glyph-name="uni0230" unicode="&#x230;" horiz-adv-x="675" 
d="M506 670q61 -33 88.5 -110t27.5 -215t-27.5 -215t-88.5 -110t-169 -33t-169 33t-88 110t-27 215t27 215t88 110t169 33t169 -33zM245.5 573q-32.5 -23 -46.5 -76.5t-14 -151.5t14 -151.5t46.5 -76.5t91.5 -23q60 0 92.5 23t46.5 76.5t14 151.5t-14 151.5t-46.5 76.5
t-92.5 23q-59 0 -91.5 -23zM470 980v-75h-264v75h264zM387 830v-50q0 -15 -8 -23.5t-24 -8.5h-34q-32 0 -32 32v50q0 31 32 31h34q32 0 32 -31z" />
    <glyph glyph-name="uni0231" unicode="&#x231;" horiz-adv-x="576" 
d="M430.5 478.5q52.5 -25.5 76 -82t23.5 -151.5t-23.5 -151t-76 -81.5t-141.5 -25.5q-90 0 -142.5 25.5t-76.5 81.5t-24 151t24 151.5t77 82t142 25.5t141.5 -25.5zM218.5 393q-24.5 -14 -35 -48.5t-10.5 -99.5q0 -64 10.5 -98.5t35 -48.5t70.5 -14q45 0 69.5 14t35 48.5
t10.5 98.5q0 65 -10.5 99.5t-35 48.5t-69.5 14q-46 0 -70.5 -14zM421 794v-75h-264v75h264zM338 644v-50q0 -15 -8 -23.5t-24 -8.5h-34q-32 0 -32 32v50q0 31 32 31h34q32 0 32 -31z" />
    <glyph glyph-name="uni0232" unicode="&#x232;" horiz-adv-x="589" 
d="M357 233v-233h-125v235l-227 455h132l126 -268q9 -20 17 -47.5t11 -35.5h8q3 8 11 35.5t17 47.5l126 268h130zM441 766h-290v84h290v-84z" />
    <glyph glyph-name="uni0233" unicode="&#x233;" horiz-adv-x="546" 
d="M533 490l-182 -505q-29 -83 -89 -138t-158 -50l-10 77q58 16 92 43.5t52 71.5l5 11h-24q-15 0 -26 8t-15 22l-166 460h129l107 -337q10 -31 16 -65h14l20 65l105 337h130zM421 599h-290v84h290v-84z" />
    <glyph glyph-name="uni0237" unicode="&#x237;" horiz-adv-x="267" 
d="M195 9q0 -64 -30 -120.5t-82 -88.5l-68 53q31 37 44.5 73.5t13.5 82.5v481h122v-481z" />
    <glyph glyph-name="uni0259" unicode="&#x259;" horiz-adv-x="548" 
d="M399.5 478q53.5 -26 78 -82t24.5 -150q0 -97 -24.5 -153.5t-76 -80.5t-136.5 -24q-117 0 -170 42t-53 127q0 140 131 140h199q-4 44 -18.5 67t-41 31.5t-71.5 8.5q-88 0 -176 -12l-11 79q37 17 93.5 25t109.5 8q89 0 142.5 -26zM327 95q24 11 35 38t13 80h-169
q-26 0 -35 -16t-9 -41q0 -40 21 -56t76 -16q44 0 68 11z" />
    <glyph glyph-name="uni02B9" unicode="&#x2b9;" horiz-adv-x="271" 
d="M153 538h-79l51 218h94z" />
    <glyph glyph-name="uni02BA" unicode="&#x2ba;" horiz-adv-x="417" 
d="M154 538h-80l52 218h94zM299 538h-79l51 218h94z" />
    <glyph glyph-name="uni02BB" unicode="&#x2bb;" horiz-adv-x="238" 
d="M69 543.5q-9 9.5 -9 34.5l-1 64q0 50 11.5 90.5t33.5 79.5l54 -15q-12 -63 -12 -125q16 0 25 -10.5t9 -27.5l-1 -56q0 -24 -10.5 -34t-34.5 -10h-32q-24 0 -33 9.5z" />
    <glyph glyph-name="uni02BE" unicode="&#x2be;" horiz-adv-x="182" 
d="M66.5 687q-14.5 15 -37.5 15v56q47 0 80 -32t33 -79t-32.5 -78.5t-80.5 -31.5v57q22 0 37 14.5t15 38.5q0 25 -14.5 40z" />
    <glyph glyph-name="uni02BF" unicode="&#x2bf;" horiz-adv-x="182" 
d="M115 687q-15 -15 -15 -40q0 -24 15.5 -38.5t37.5 -14.5v-57q-48 0 -80.5 31.5t-32.5 78.5t33 79t80 32v-56q-23 0 -38 -15z" />
    <glyph glyph-name="circumflex" unicode="&#x2c6;" horiz-adv-x="436" 
d="M395 588l-39 -50l-133 96h-8l-134 -96l-37 51l131 131h88z" />
    <glyph glyph-name="caron" unicode="&#x2c7;" horiz-adv-x="436" 
d="M394 685l-149 -131h-52l-148 131l37 50l133 -81h8l132 81z" />
    <glyph glyph-name="uni02C8" unicode="&#x2c8;" horiz-adv-x="191" 
d="M123 684v-92h-54v92h54z" />
    <glyph glyph-name="uni02C9" unicode="&#x2c9;" horiz-adv-x="400" 
d="M345 601h-290v84h290v-84z" />
    <glyph glyph-name="uni02CA" unicode="&#x2ca;" horiz-adv-x="337" 
d="M295 650l-213 -111l-38 54l188 147z" />
    <glyph glyph-name="uni02CB" unicode="&#x2cb;" horiz-adv-x="337" 
d="M283 587l-38 -54l-213 111l63 90z" />
    <glyph glyph-name="uni02CC" unicode="&#x2cc;" horiz-adv-x="188" 
d="M121 -69v-91h-54v91h54z" />
    <glyph glyph-name="breve" unicode="&#x2d8;" horiz-adv-x="385" 
d="M351 694l1 -14q0 -57 -43 -93t-115 -36q-73 0 -116.5 36t-43.5 93l1 14l59 8q0 -32 25 -49t75 -17q48 0 73 17t25 49z" />
    <glyph glyph-name="dotaccent" unicode="&#x2d9;" horiz-adv-x="229" 
d="M168 659v-54q0 -34 -34 -34h-38q-35 0 -35 34v54q0 35 35 35h38q34 0 34 -35z" />
    <glyph glyph-name="ring" unicode="&#x2da;" horiz-adv-x="306" 
d="M232.5 726q33.5 -32 33.5 -79t-33 -78.5t-80 -31.5q-48 0 -80.5 31.5t-32.5 78.5t33 79t80 32q46 0 79.5 -32zM115 687q-15 -15 -15 -40q0 -24 15.5 -38.5t37.5 -14.5t37.5 14.5t15.5 38.5q0 25 -15.5 40t-37.5 15q-23 0 -38 -15z" />
    <glyph glyph-name="ogonek" unicode="&#x2db;" horiz-adv-x="251" 
d="M193 0q-23 -29 -39 -53t-27 -53q-6 -14 -6 -22q0 -25 33 -25q16 0 42 8l13 -48q-50 -21 -92 -21q-38 0 -58.5 18.5t-20.5 48.5q0 16 6 33q20 59 98 116z" />
    <glyph glyph-name="tilde" unicode="&#x2dc;" horiz-adv-x="431" 
d="M172 698.5q19 -6.5 45 -18.5q41 -19 68 -23q4 -1 12 -1q18 0 24.5 10.5t6.5 35.5h53q3 -16 3 -32q0 -48 -23 -73.5t-60 -23.5q-25 2 -45.5 9.5t-48.5 20.5q-23 11 -39 17t-33 6q-19 0 -25.5 -11.5t-6.5 -37.5h-53q-2 22 -2 30q0 50 23.5 76.5t58.5 23.5q23 -2 42 -8.5z
" />
    <glyph glyph-name="hungarumlaut" unicode="&#x2dd;" horiz-adv-x="481" 
d="M238 695l-144 -164l-51 39l111 182zM417 695l-145 -164l-50 39l111 182z" />
    <glyph glyph-name="acutecomb" unicode="&#x301;" horiz-adv-x="0" 
d="M-75 644l-212 -111l-38 54l188 147z" />
    <glyph glyph-name="uni0302" unicode="&#x302;" horiz-adv-x="0" 
d="M-47 586l-39 -49l-133 96h-8l-134 -96l-37 50l131 132h88z" />
    <glyph glyph-name="tildecomb" unicode="&#x303;" horiz-adv-x="0" 
d="M-270 698.5q19 -6.5 45 -18.5q41 -19 68 -23q4 -1 12 -1q19 0 25 10.5t6 35.5h53q3 -18 3 -33q0 -48 -22.5 -73t-59.5 -23q-25 2 -45.5 9.5t-48.5 20.5q-24 12 -40 17.5t-33 5.5q-18 0 -24.5 -11.5t-6.5 -37.5h-54q-2 22 -2 30q0 50 23.5 76.5t58.5 23.5q23 -2 42 -8.5z
" />
    <glyph glyph-name="uni0304" unicode="&#x304;" horiz-adv-x="0" 
d="M-61 601h-290v84h290v-84z" />
    <glyph glyph-name="uni0306" unicode="&#x306;" horiz-adv-x="0" 
d="M-38 694l1 -14q0 -57 -43 -93t-115 -36q-73 0 -116.5 36t-43.5 93l1 14l59 9q0 -33 25 -50t75 -17q48 0 73 17.5t25 49.5z" />
    <glyph glyph-name="uni0307" unicode="&#x307;" horiz-adv-x="0" 
d="M-69 659v-54q0 -34 -35 -34h-38q-35 0 -35 34v54q0 35 35 35h38q35 0 35 -35z" />
    <glyph glyph-name="uni0308" unicode="&#x308;" horiz-adv-x="0" 
d="M-263.5 694.5q7.5 -8.5 7.5 -22.5v-55q0 -30 -29 -30h-41q-15 0 -22 7t-7 23v55q0 31 29 31h41q14 0 21.5 -8.5zM-85 694.5q8 -8.5 8 -22.5v-55q0 -30 -30 -30h-39q-31 0 -31 30v55q0 31 31 31h39q14 0 22 -8.5z" />
    <glyph glyph-name="hookabovecomb" unicode="&#x309;" horiz-adv-x="0" 
d="M-142 642q12 14 12 37q0 17 -11 26.5t-29 9.5q-15 0 -31 -6l-13 65q29 10 56 10q46 0 75 -27.5t29 -74.5t-31 -79t-83 -41l-13 58q27 8 39 22z" />
    <glyph glyph-name="uni030A" unicode="&#x30a;" horiz-adv-x="0" 
d="M-88.5 717.5q33.5 -32.5 33.5 -78.5q0 -47 -33 -79t-80 -32q-48 0 -80.5 31.5t-32.5 79.5q0 46 33 78.5t80 32.5q46 0 79.5 -32.5zM-206 678q-15 -15 -15 -39q0 -25 15 -39.5t38 -14.5t38 14.5t15 39.5q0 24 -15.5 39t-37.5 15q-23 0 -38 -15z" />
    <glyph glyph-name="uni030B" unicode="&#x30b;" horiz-adv-x="0" 
d="M-238 686l-144 -164l-51 39l111 182zM-59 686l-145 -164l-50 39l111 182z" />
    <glyph glyph-name="uni030C" unicode="&#x30c;" horiz-adv-x="0" 
d="M-50 685l-148 -131h-52l-148 131l37 50l133 -81h8l132 81z" />
    <glyph glyph-name="uni030F" unicode="&#x30f;" horiz-adv-x="0" 
d="M-242 587l-49 -39l-145 164l84 57zM-62 587l-51 -39l-145 164l84 57z" />
    <glyph glyph-name="uni0311" unicode="&#x311;" horiz-adv-x="0" 
d="M-389 569l-1 14q0 56 43 92t115 36t116 -35.5t44 -91.5q0 -10 -1 -15l-58 -9q0 33 -25.5 50t-75.5 17q-48 0 -73 -17.5t-25 -49.5z" />
    <glyph glyph-name="uni0312" unicode="&#x312;" horiz-adv-x="0" 
d="M-158.5 550q-6.5 7 -6.5 24v46q0 65 31 122l39 -11q-9 -45 -9 -90q11 0 17.5 -7t6.5 -19v-41q-1 -17 -8 -24t-24 -7h-23q-17 0 -23.5 7z" />
    <glyph glyph-name="uni031B" unicode="&#x31b;" horiz-adv-x="0" 
d="M-250 453q35 5 56.5 30t24.5 62l82 -5q-1 -42 -23.5 -75t-59 -51t-76.5 -17z" />
    <glyph glyph-name="dotbelowcomb" unicode="&#x323;" horiz-adv-x="0" 
d="M-61 -79v-54q0 -35 -34 -35h-38q-35 0 -35 35v54q0 34 35 34h38q34 0 34 -34z" />
    <glyph glyph-name="uni0324" unicode="&#x324;" horiz-adv-x="0" 
d="M-259.5 -55.5q7.5 -8.5 7.5 -22.5v-55q0 -30 -29 -30h-41q-15 0 -22 7t-7 23v55q0 31 29 31h41q14 0 21.5 -8.5zM-81 -55.5q8 -8.5 8 -22.5v-55q0 -30 -30 -30h-39q-31 0 -31 30v55q0 31 31 31h39q14 0 22 -8.5z" />
    <glyph glyph-name="uni0327" unicode="&#x327;" horiz-adv-x="0" 
d="M-107 -36q40 0 58.5 -14.5t18.5 -48.5q0 -65 -43 -101.5t-111 -36.5q-9 0 -31 2l17 59q36 -1 60 15.5t26 45.5q1 14 -11 18t-50 4l12 53q40 4 54 4z" />
    <glyph glyph-name="uni0328" unicode="&#x328;" horiz-adv-x="0" 
d="M-81 0q-46 -56 -67 -106q-5 -10 -5 -22q0 -25 33 -25q16 0 42 8l12 -48q-50 -21 -91 -21q-38 0 -58.5 18.5t-20.5 48.5q0 16 6 33q20 59 98 116z" />
    <glyph glyph-name="uni032E" unicode="&#x32e;" horiz-adv-x="0" 
d="M-47 -50q1 -5 1 -15q0 -56 -43 -92t-115 -36q-73 0 -116.5 36t-43.5 93l1 14l59 8q0 -32 25 -49t75 -17q48 0 73.5 17t25.5 49z" />
    <glyph glyph-name="uni0331" unicode="&#x331;" horiz-adv-x="0" 
d="M-85 -156h-291v84h291v-84z" />
    <glyph glyph-name="uni0394" unicode="&#x394;" horiz-adv-x="641" 
d="M620 46v-46h-600v46l238 644h125zM312 537q-8 -36 -14 -53l-134 -386h311l-132 387q-9 25 -16 59l-6 26z" />
    <glyph glyph-name="uni03A9" unicode="&#x3a9;" horiz-adv-x="719" 
d="M582 624q68 -79 68 -244q0 -103 -31 -165.5t-107 -118.5q39 11 68 11h89l1 -107h-265l-1 101q65 49 90.5 107.5t25.5 155.5q0 86 -15.5 136.5t-50.5 73.5t-95 23q-61 0 -95.5 -23t-49.5 -73.5t-15 -138.5q0 -69 11.5 -114t35.5 -78t68 -69v-101h-265v107h90q34 0 68 -11
q-75 57 -106.5 120t-31.5 161q0 167 67.5 246.5t223.5 79.5q154 0 222 -79z" />
    <glyph glyph-name="uni03BC" unicode="&#x3bc;" horiz-adv-x="603" 
d="M588 6q-62 -17 -99 -17q-91 0 -91 87v11q-24 -41 -67 -70t-100 -29q-25 0 -42 4v-57l-16 -130h-105v685h121v-311q0 -50 13.5 -66.5t52.5 -16.5q40 0 72 25.5t50 69.5t18 97v202h121v-369q0 -25 5 -35t20 -10h40z" />
    <glyph glyph-name="pi" unicode="&#x3c0;" horiz-adv-x="645" 
d="M620 398h-84v-398h-121v398h-185v-398h-121v398h-85v93h597z" />
    <glyph glyph-name="uni0400" unicode="&#x400;" 
d="M517 101l5 -95q-60 -5 -130 -6.5t-174 -1.5q-68 0 -107 35t-39 96v432q0 61 39 96t107 35q104 0 174 -1.5t130 -6.5l-5 -96h-271q-27 0 -38 -13t-11 -45v-121h282v-96h-282v-154q0 -32 11 -45t38 -13h271zM375 781l-38 -54l-213 111l63 90z" />
    <glyph glyph-name="uni0401" unicode="&#x401;" 
d="M517 101l5 -95q-60 -5 -130 -6.5t-174 -1.5q-68 0 -107 35t-39 96v432q0 61 39 96t107 35q104 0 174 -1.5t130 -6.5l-5 -96h-271q-27 0 -38 -13t-11 -45v-121h282v-96h-282v-154q0 -32 11 -45t38 -13h271zM258.5 870.5q7.5 -8.5 7.5 -22.5v-55q0 -30 -29 -30h-41
q-15 0 -22 7t-7 23v55q0 31 29 31h41q14 0 21.5 -8.5zM437 870.5q8 -8.5 8 -22.5v-55q0 -30 -30 -30h-39q-31 0 -31 30v55q0 31 31 31h39q14 0 22 -8.5z" />
    <glyph glyph-name="uni0402" unicode="&#x402;" horiz-adv-x="757" 
d="M675.5 402.5q45.5 -44.5 45.5 -165.5q0 -136 -67 -192.5t-193 -51.5l-12 90q55 5 86 18.5t46 42.5t15 81q0 51 -9.5 76t-28.5 33t-56 8q-69 0 -144 -38v-304h-126v583h-211v107h549v-107h-212v-184q45 25 95 36.5t95 11.5q82 0 127.5 -44.5z" />
    <glyph glyph-name="uni0403" unicode="&#x403;" horiz-adv-x="524" 
d="M381.5 690.5q67.5 -1.5 126.5 -7.5l-6 -95h-242q-33 0 -46 -13.5t-13 -49.5v-525h-125v549q0 63 39 103t99 40q100 0 167.5 -1.5zM463 844l-213 -111l-38 54l188 147z" />
    <glyph glyph-name="uni0404" unicode="&#x404;" horiz-adv-x="583" 
d="M546 14q-44 -14 -90.5 -20t-116.5 -6q-107 0 -169 34.5t-89.5 112t-27.5 210.5t27.5 210.5t89.5 112t169 34.5q68 0 111.5 -5t89.5 -17l-12 -95q-93 6 -189 6q-54 0 -86 -17t-48.5 -56t-20.5 -108h284v-94h-286q2 -84 17 -130.5t48.5 -66.5t91.5 -20q68 0 111 2t84 8z
" />
    <glyph glyph-name="uni0405" unicode="&#x405;" horiz-adv-x="570" 
d="M502 679l-8 -89q-114 4 -205 4q-47 0 -70 -4.5t-34 -21.5t-11 -53q0 -30 8 -47t23.5 -26.5t45.5 -18.5l133 -41q79 -25 110.5 -73.5t31.5 -127.5q0 -78 -24 -119.5t-76 -57.5t-145 -16q-114 0 -224 22l8 92q18 0 26 -1q167 -3 193 -3q47 0 71 6.5t34 24t10 53.5
q0 31 -7.5 47.5t-22.5 25.5t-43 18l-139 44q-75 24 -107 72.5t-32 127.5q0 78 24.5 117.5t74 53.5t138.5 14q127 0 217 -23z" />
    <glyph glyph-name="uni0406" unicode="&#x406;" horiz-adv-x="280" 
d="M203 0h-125v690h125v-690z" />
    <glyph glyph-name="uni0407" unicode="&#x407;" horiz-adv-x="279" 
d="M202 0h-125v690h125v-690zM92.5 870.5q7.5 -8.5 7.5 -22.5v-55q0 -30 -29 -30h-41q-15 0 -22 7t-7 23v55q0 31 29 31h41q14 0 21.5 -8.5zM271 870.5q8 -8.5 8 -22.5v-55q0 -30 -30 -30h-39q-31 0 -31 30v55q0 31 31 31h39q14 0 22 -8.5z" />
    <glyph glyph-name="uni0408" unicode="&#x408;" horiz-adv-x="354" 
d="M279 152q0 -79 -37.5 -121t-106.5 -42q-25 0 -58.5 5t-51.5 12l13 87h47q70 0 70 62v535h124v-538z" />
    <glyph glyph-name="uni0409" unicode="&#x409;" horiz-adv-x="973" 
d="M837.5 405.5q51.5 -20.5 74 -67.5t22.5 -130q0 -84 -22 -131t-69 -66t-127 -19q-96 0 -149 1.5t-111 6.5v593h-105q-29 0 -42 -16t-15 -47q-17 -177 -28 -251.5t-35 -138.5q-31 -78 -77.5 -110t-125.5 -32l-9 85q30 10 53 30t43 61q24 54 34.5 122.5t20.5 200.5l4 51
q7 142 157 142h248v-264h116q91 0 142.5 -20.5zM766.5 105.5q23.5 9.5 32.5 33.5t9 72q0 46 -8.5 71t-32.5 36t-72 11h-116v-233h116q48 0 71.5 9.5z" />
    <glyph glyph-name="uni040A" unicode="&#x40a;" horiz-adv-x="977" 
d="M842 403q51 -20 73.5 -66.5t22.5 -129.5q0 -84 -22 -130.5t-68.5 -65.5t-126.5 -19q-97 0 -150.5 1.5t-111.5 6.5v325h-256v-325h-125v690h125v-267h256v267h124v-267h117q91 0 142 -20zM771 105.5q23 9.5 32 33t9 70.5q0 46 -8.5 70.5t-32.5 36t-71 11.5h-117v-231h117
q48 0 71 9.5z" />
    <glyph glyph-name="uni040B" unicode="&#x40b;" horiz-adv-x="776" 
d="M687.5 408.5q40.5 -39.5 40.5 -122.5v-286h-125v260q0 45 -18.5 62.5t-67.5 17.5q-41 0 -77 -8.5t-82 -28.5v-303h-126v583h-211v107h549v-107h-212v-183q51 24 105.5 36t97.5 12q86 0 126.5 -39.5z" />
    <glyph glyph-name="uni040C" unicode="&#x40c;" horiz-adv-x="619" 
d="M451.5 319.5q35.5 -31.5 59.5 -86t64 -174.5l20 -59h-131l-12 37q-38 117 -60.5 168.5t-53.5 78.5t-84 27h-58q7 -40 7 -68v-243h-125v690h125v-203q0 -34 -7 -80h58q52 0 84.5 31.5t54 84t57.5 167.5h127l-6.5 -19.5t-7.5 -21.5q-35 -109 -58 -162t-57.5 -85.5
t-90.5 -39.5v-4q59 -7 94.5 -38.5zM483 844l-213 -111l-38 54l188 147z" />
    <glyph glyph-name="uni040D" unicode="&#x40d;" horiz-adv-x="701" 
d="M623 0h-121v452q0 41 8 87h-6q-20 -54 -38 -84l-261 -455h-127v690h120v-446q0 -50 -8 -90h7q13 38 38 83l260 453h128v-690zM423 781l-38 -54l-213 111l63 90z" />
    <glyph glyph-name="uni040E" unicode="&#x40e;" horiz-adv-x="579" 
d="M574 690l-177 -515q-32 -92 -73.5 -138t-114.5 -46q-30 0 -66 4.5t-60 11.5l14 91q44 -3 71 -3q33 0 50 6.5t27.5 21.5t24.5 50l9 25h-36q-33 0 -51.5 14t-28.5 44l-150 434h128l123 -377q3 -13 18 -13h32l131 390h129zM448 888l1 -14q0 -57 -43 -95t-115 -38
q-73 0 -116.5 38t-43.5 95l1 14h86q-2 -84 73 -84q35 0 53.5 21t17.5 63h86z" />
    <glyph glyph-name="uni040F" unicode="&#x40f;" horiz-adv-x="683" 
d="M605 690v-690h-212l-5 -151h-86l-6 151h-218v690h125v-593h276v593h126z" />
    <glyph glyph-name="uni0410" unicode="&#x410;" horiz-adv-x="636" 
d="M446 195h-256l-57 -195h-128l207 657q4 15 16.5 24t28.5 9h122q16 0 28.5 -9t16.5 -24l207 -657h-128zM416 298l-69 238q-2 9 -7.5 27.5t-7.5 31.5h-27l-16 -59l-69 -238h196z" />
    <glyph glyph-name="uni0411" unicode="&#x411;" horiz-adv-x="607" 
d="M467.5 384.5q51.5 -19.5 74.5 -64t23 -124.5q0 -90 -27.5 -134t-80 -57.5t-148.5 -13.5q-124 0 -228 9h-3v690q133 7 225 7q93 0 221 -7l-10 -101h-310v-185h120q92 0 143.5 -19.5zM397 102q24 9 33 31.5t9 67.5t-8.5 68t-33 33t-73.5 10h-120l-1 -219h121q49 0 73 9z
" />
    <glyph glyph-name="uni0412" unicode="&#x412;" horiz-adv-x="628" 
d="M546.5 303.5q32.5 -45.5 32.5 -131.5q0 -71 -23 -109.5t-71.5 -54.5t-132.5 -16q-101 0 -158 1.5t-116 6.5v690q52 5 103.5 6.5t139.5 1.5q90 0 141 -15.5t73.5 -54.5t22.5 -110q0 -75 -28 -113.5t-91 -44.5v-4q75 -7 107.5 -52.5zM200 597v-194h126q43 0 67 8.5t34 29.5
t10 61q0 39 -11.5 59t-37 28t-73.5 8h-115zM405.5 101.5q25.5 8.5 36.5 30t11 63.5q0 47 -11.5 71.5t-38 34.5t-76.5 11h-127v-218q38 -1 132 -1q48 0 73.5 8.5z" />
    <glyph glyph-name="uni0413" unicode="&#x413;" horiz-adv-x="524" 
d="M381.5 690.5q67.5 -1.5 126.5 -7.5l-6 -95h-242q-33 0 -46 -13.5t-13 -49.5v-525h-125v549q0 63 39 103t99 40q100 0 167.5 -1.5z" />
    <glyph glyph-name="uni0414" unicode="&#x414;" horiz-adv-x="717" 
d="M690 97v-248h-87l-11 151h-474l-11 -151h-87v248h71q42 99 63 209t30 243q4 65 45.5 103t111.5 38h261v-593h88zM477 97v496h-108q-34 0 -48.5 -14t-16.5 -50q-12 -149 -32.5 -247.5t-61.5 -184.5h267z" />
    <glyph glyph-name="uni0415" unicode="&#x415;" 
d="M517 101l5 -95q-60 -5 -130 -6.5t-174 -1.5q-68 0 -107 35t-39 96v432q0 61 39 96t107 35q104 0 174 -1.5t130 -6.5l-5 -96h-271q-27 0 -38 -13t-11 -45v-121h282v-96h-282v-154q0 -32 11 -45t38 -13h271z" />
    <glyph glyph-name="uni0416" unicode="&#x416;" horiz-adv-x="926" 
d="M761.5 317.5q36.5 -33.5 61 -92.5t66.5 -189l12 -36h-131l-17 51q-38 111 -59.5 160t-49.5 74.5t-72 25.5h-55q7 -40 7 -68v-243h-120v243q0 28 7 68h-58q-44 0 -72 -26t-49.5 -75.5t-60.5 -163.5l-16 -46h-131l12 36q42 130 66.5 189t61 92.5t97.5 40.5v4
q-56 7 -90.5 39t-56.5 84.5t-57 161.5l-14 43h127l9 -26q34 -100 55 -150t49 -78.5t69 -28.5h59q-7 36 -7 80v203h120v-203q0 -44 -7 -80h54q42 0 70.5 28.5t49.5 77.5t55 149q2 6 4.5 12.5t5.5 15.5h127l-13 -39q-36 -111 -58 -164t-56.5 -85.5t-91.5 -39.5v-4
q61 -7 97.5 -40.5z" />
    <glyph glyph-name="uni0417" unicode="&#x417;" horiz-adv-x="557" 
d="M391.5 682.5q49.5 -15.5 71.5 -54.5t22 -110q0 -75 -27.5 -113.5t-88.5 -44.5v-4q74 -7 105.5 -52.5t31.5 -131.5q0 -71 -22.5 -109.5t-70 -54.5t-129.5 -16q-80 0 -139 6t-113 21l10 89q116 -16 219 -16q46 0 70.5 8.5t35 30.5t10.5 64q0 46 -11.5 70.5t-37.5 34.5
t-73 10l-125 1v93l125 1q60 0 83 20t23 77q0 39 -11 60t-35.5 29t-69.5 8q-55 0 -103 -4t-56 -5l-28 -3l-10 93q48 10 95.5 14t110.5 4q88 0 137.5 -15.5z" />
    <glyph glyph-name="uni0418" unicode="&#x418;" horiz-adv-x="701" 
d="M623 0h-121v452q0 41 8 87h-6q-20 -54 -38 -84l-261 -455h-127v690h120v-446q0 -50 -8 -90h7q13 38 38 83l260 453h128v-690z" />
    <glyph glyph-name="uni0419" unicode="&#x419;" horiz-adv-x="701" 
d="M623 0h-121v452q0 41 8 87h-6q-20 -54 -38 -84l-261 -455h-127v690h120v-446q0 -50 -8 -90h7q13 38 38 83l260 453h128v-690zM512 888l1 -14q0 -57 -43 -95t-115 -38q-73 0 -116.5 38t-43.5 95l1 14h86q-2 -84 73 -84q35 0 53.5 21t17.5 63h86z" />
    <glyph glyph-name="uni041A" unicode="&#x41a;" horiz-adv-x="619" 
d="M451.5 319.5q35.5 -31.5 59.5 -86t64 -174.5l20 -59h-131l-12 37q-38 117 -60.5 168.5t-53.5 78.5t-84 27h-58q7 -40 7 -68v-243h-125v690h125v-203q0 -34 -7 -80h58q52 0 84.5 31.5t54 84t57.5 167.5h127l-6.5 -19.5t-7.5 -21.5q-35 -109 -58 -162t-57.5 -85.5
t-90.5 -39.5v-4q59 -7 94.5 -38.5z" />
    <glyph glyph-name="uni041B" unicode="&#x41b;" horiz-adv-x="665" 
d="M587 0h-126v593h-107q-31 0 -47.5 -15.5t-19.5 -47.5q-14 -170 -26 -249.5t-37 -140.5q-29 -72 -75 -107.5t-111 -35.5q-14 0 -21 1l-10 97q38 9 62 26.5t37 51.5q23 58 35 135.5t24 241.5q6 69 45 104.5t109 35.5h268v-690z" />
    <glyph glyph-name="uni041C" unicode="&#x41c;" horiz-adv-x="895" 
d="M804 641l27 -641h-122l-24 589h-18l-119 -459q-11 -42 -53 -42h-95q-43 0 -54 42l-120 459h-18l-21 -589h-122l26 641q2 49 49 49h129q41 0 51 -42l99 -374q9 -38 20 -94h15l6 28q3 12 6 28.5t9 38.5l98 373q11 42 53 42h128q47 0 50 -49z" />
    <glyph glyph-name="uni041D" unicode="&#x41d;" horiz-adv-x="679" 
d="M601 690v-690h-126v316h-272v-316h-125v690h125v-271h272v271h126z" />
    <glyph glyph-name="uni041E" unicode="&#x41e;" horiz-adv-x="675" 
d="M506 670q61 -33 88.5 -110t27.5 -215t-27.5 -215t-88.5 -110t-169 -33t-169 33t-88 110t-27 215t27 215t88 110t169 33t169 -33zM245.5 573q-32.5 -23 -46.5 -76.5t-14 -151.5t14 -151.5t46.5 -76.5t91.5 -23q60 0 92.5 23t46.5 76.5t14 151.5t-14 151.5t-46.5 76.5
t-92.5 23q-59 0 -91.5 -23z" />
    <glyph glyph-name="uni041F" unicode="&#x41f;" horiz-adv-x="678" 
d="M600 0h-125v593h-272v-593h-125v690h522v-690z" />
    <glyph glyph-name="uni0420" unicode="&#x420;" horiz-adv-x="601" 
d="M470.5 679.5q50.5 -19.5 72.5 -67t22 -135.5t-21.5 -135.5t-69 -67t-131.5 -19.5q-72 0 -139 8v-263h-126v690q57 6 106.5 7.5t143.5 1.5q92 0 142.5 -19.5zM394 368q24 10 34.5 35.5t10.5 73.5t-10.5 73.5t-34.5 35.5t-69 10q-86 0 -121 -1v-238h121q45 1 69 11z" />
    <glyph glyph-name="uni0421" unicode="&#x421;" horiz-adv-x="578" 
d="M443.5 697q42.5 -5 88.5 -17l-12 -95q-87 7 -186 7q-58 0 -90 -22.5t-45.5 -75.5t-13.5 -149t13.5 -149t45.5 -75.5t90 -22.5q69 0 113.5 2t87.5 8l11 -94q-46 -14 -93.5 -20t-118.5 -6q-105 0 -166 34.5t-88 112t-27 210.5t27 210.5t88 112t166 34.5q67 0 109.5 -5z" />
    <glyph glyph-name="uni0422" unicode="&#x422;" horiz-adv-x="592" 
d="M571 583h-213v-583h-126v583h-211v107h550v-107z" />
    <glyph glyph-name="uni0423" unicode="&#x423;" horiz-adv-x="579" 
d="M574 690l-177 -515q-32 -92 -73.5 -138t-114.5 -46q-30 0 -66 4.5t-60 11.5l14 91q44 -3 71 -3q33 0 50 6.5t27.5 21.5t24.5 50l9 25h-36q-33 0 -51.5 14t-28.5 44l-150 434h128l123 -377q3 -13 18 -13h32l131 390h129z" />
    <glyph glyph-name="uni0424" unicode="&#x424;" horiz-adv-x="829" 
d="M759.5 188q-30.5 -61 -98 -90.5t-183.5 -35.5v-92h-126v92q-117 6 -185 35t-98 90t-30 165q0 106 30 168.5t98 92.5t185 36v92h125l1 -92q116 -6 183.5 -36t98 -92.5t31.5 -168.5q-1 -103 -31.5 -164zM183 243q17 -39 57.5 -57.5t116.5 -22.5v385q-76 -4 -116.5 -23
t-57.5 -59.5t-17 -113.5q0 -70 17 -109zM587.5 185.5q40.5 18.5 57.5 57.5t18 109q-1 73 -18 113t-57.5 59t-115.5 24v-385q75 4 115.5 22.5z" />
    <glyph glyph-name="uni0425" unicode="&#x425;" horiz-adv-x="626" 
d="M322 312h-19l-154 -312h-132l183 355l-170 335h131l140 -288h23l140 288h132l-171 -335l184 -355h-133z" />
    <glyph glyph-name="uni0426" unicode="&#x426;" horiz-adv-x="703" 
d="M675 97v-248h-87l-11 151h-499v690h125v-593h262v593h126v-593h84z" />
    <glyph glyph-name="uni0427" unicode="&#x427;" horiz-adv-x="641" 
d="M563 690v-690h-125v296q-55 -27 -114.5 -41t-105.5 -14q-84 0 -124.5 40t-40.5 123v286h125v-260q-1 -42 18.5 -60.5t66.5 -18.5q45 0 84.5 8.5t90.5 30.5v300h125z" />
    <glyph glyph-name="uni0428" unicode="&#x428;" horiz-adv-x="951" 
d="M873 690v-690h-795v690h123v-593h213v593h122v-593h214v593h123z" />
    <glyph glyph-name="uni0429" unicode="&#x429;" horiz-adv-x="979" 
d="M951 97v-248h-87l-11 151h-775v690h123v-593h211v593h121v-593h212v593h122v-593h84z" />
    <glyph glyph-name="uni042A" unicode="&#x42a;" horiz-adv-x="754" 
d="M618.5 405.5q51.5 -20.5 74 -67.5t22.5 -131t-22 -130.5t-69 -65.5t-128 -19q-96 0 -150 1.5t-112 6.5v583h-214v107h340v-264h115q92 0 143.5 -20.5zM547.5 105.5q23.5 9.5 32.5 33t9 70.5t-8.5 72t-33 36.5t-72.5 11.5h-115v-233h115q49 0 72.5 9.5z" />
    <glyph glyph-name="uni042B" unicode="&#x42b;" horiz-adv-x="873" 
d="M464.5 405.5q51.5 -20.5 74 -67.5t22.5 -131t-22 -130.5t-69 -65.5t-128 -19q-96 0 -150 1.5t-111 6.5h-3v690h125v-264h118q92 0 143.5 -20.5zM795 690v-690h-125v690h125zM393.5 105.5q23.5 9.5 32.5 33t9 70.5t-8.5 72t-33 36.5t-72.5 11.5h-118v-233h118
q49 0 72.5 9.5z" />
    <glyph glyph-name="uni042C" unicode="&#x42c;" horiz-adv-x="601" 
d="M465.5 405.5q51.5 -20.5 74 -67.5t22.5 -131t-22 -130.5t-69 -65.5t-128 -19q-97 0 -151 1.5t-111 6.5h-3v690h125v-264h119q92 0 143.5 -20.5zM394.5 105.5q23.5 9.5 32.5 33t9 70.5t-8.5 72t-33 36.5t-72.5 11.5h-119v-233h119q49 0 72.5 9.5z" />
    <glyph glyph-name="uni042D" unicode="&#x42d;" horiz-adv-x="583" 
d="M412 667.5q62 -34.5 90 -112t28 -210.5t-28 -210.5t-90 -112t-169 -34.5q-69 0 -115.5 6t-90.5 20l12 95q41 -6 84 -8t111 -2q58 0 91 20t48.5 66.5t17.5 130.5h-286v94h284q-5 69 -21.5 108t-48.5 56t-85 17q-95 0 -190 -6l-11 95q46 12 89 17t111 5q107 0 169 -34.5z
" />
    <glyph glyph-name="uni042E" unicode="&#x42e;" horiz-adv-x="950" 
d="M780 670q61 -33 88.5 -110t27.5 -215t-27.5 -215t-88.5 -110t-169 -33q-97 0 -153.5 30t-83.5 99.5t-31 192.5h-139v-309h-125v690h125v-284h140q6 113 34 177.5t84 92t149 27.5q108 0 169 -33zM702.5 117q32.5 23 46.5 76.5t15 151.5q-1 98 -15 151.5t-46.5 76.5
t-91.5 23q-57 0 -88 -23t-44.5 -76.5t-13.5 -151.5t13.5 -151.5t44.5 -76.5t88 -23q59 0 91.5 23z" />
    <glyph glyph-name="uni042F" unicode="&#x42f;" horiz-adv-x="623" 
d="M440 697.5q50 -1.5 106 -7.5v-690h-126v270h-119q-32 0 -51 -14.5t-29 -48.5l-53 -207h-132l58 211q12 45 40 69t61 30l-1 6q-70 9 -100.5 52t-30.5 125q0 75 23.5 120t74 65.5t135.5 20.5q94 0 144 -1.5zM420 373v222q-35 1 -121 1q-43 0 -66.5 -9t-33.5 -32t-11 -66
q0 -63 24.5 -89.5t86.5 -26.5h121z" />
    <glyph glyph-name="uni0430" unicode="&#x430;" horiz-adv-x="562" 
d="M451 466q45 -38 45 -133v-333h-96l-13 75q-33 -36 -80 -61t-107 -25q-69 0 -112 37.5t-43 104.5v50q0 59 38 91t107 32h184v30q-1 29 -8.5 43.5t-26.5 20.5t-55 6q-76 0 -206 -10l-11 86q53 10 124.5 17t119.5 7q95 0 140 -38zM181 101q15 -14 49 -14q31 0 69.5 14.5
t74.5 43.5v76h-156q-29 -1 -40.5 -15t-11.5 -40v-19q0 -32 15 -46z" />
    <glyph glyph-name="uni0431" unicode="&#x431;" horiz-adv-x="584" 
d="M512 644q-37 -21 -68.5 -29.5t-76.5 -14.5q-6 -1 -32.5 -4.5t-52.5 -11.5q-96 -27 -118 -126q-10 -38 -13 -73h2q26 42 65.5 66t116.5 24q74 0 117.5 -24t63 -75t19.5 -134q0 -85 -21 -140.5t-73 -84.5t-142 -29q-106 0 -158 38.5t-66 102t-14 168.5q0 112 13.5 184.5
t53 121.5t114.5 72q38 12 97 20q47 7 79.5 15.5t67.5 28.5zM229.5 365.5q-24.5 -14.5 -33.5 -44t-9 -81.5q0 -61 10.5 -94t34 -47t66.5 -14q42 0 65.5 14t34 47t10.5 93q0 57 -9.5 87t-31.5 42t-64 12q-49 0 -73.5 -14.5z" />
    <glyph glyph-name="uni0432" unicode="&#x432;" horiz-adv-x="561" 
d="M487 214q29 -32 29 -93q0 -50 -20.5 -78t-63.5 -39t-117 -11q-156 0 -246 6v491q80 6 218 6q81 0 125.5 -11.5t64.5 -39.5t20 -80q0 -53 -25 -80t-80 -31v-3q66 -5 95 -37zM183 407v-115h108q52 0 72.5 13t20.5 48q0 31 -22 42.5t-80 11.5h-99zM372.5 96q21.5 13 21.5 51
q0 37 -22.5 51.5t-80.5 14.5h-108v-130h112q56 0 77.5 13z" />
    <glyph glyph-name="uni0433" unicode="&#x433;" horiz-adv-x="471" 
d="M339.5 493q61.5 -2 114.5 -9l-5 -85h-211q-26 0 -38 -12t-12 -39v-348h-121v381q0 114 119 114q92 0 153.5 -2z" />
    <glyph glyph-name="uni0434" unicode="&#x434;" horiz-adv-x="611" 
d="M581 93v-236h-79l-10 143h-378l-9 -143h-79v236h60q28 63 43 131t22 147q9 119 137 119h219v-397h74zM393 93v308h-79q-26 0 -39.5 -13t-15.5 -39q-8 -80 -23 -141.5t-42 -114.5h199z" />
    <glyph glyph-name="uni0435" unicode="&#x435;" horiz-adv-x="551" 
d="M484 99l11 -78q-36 -17 -92 -25t-110 -8q-90 0 -143 26t-77.5 82t-24.5 150q0 97 24.5 153t75.5 80.5t137 24.5q117 0 169.5 -42.5t52.5 -127.5q1 -67 -31.5 -103.5t-98.5 -36.5h-200q5 -44 19.5 -67t40.5 -31.5t71 -8.5q75 0 176 12zM222 397q-24 -11 -35 -38.5
t-13 -79.5h169q26 0 35 16t9 41q0 40 -21 56t-76 16q-44 0 -68 -11z" />
    <glyph glyph-name="uni0436" unicode="&#x436;" horiz-adv-x="807" 
d="M674 225.5q29 -22.5 49.5 -69t57.5 -156.5h-123q-2 6 -4 10.5t-3 8.5q-32 87 -49 123t-36.5 52.5t-52.5 16.5h-60q5 -25 5 -44v-167h-106v167q0 19 5 44h-64q-33 0 -52.5 -18t-36.5 -55.5t-54 -137.5h-123q37 112 57 157.5t49 68t84 29.5v3q-51 6 -78.5 28t-45 61.5
t-52.5 142.5h120q29 -81 46 -118t38.5 -55.5t54.5 -18.5h57q-5 24 -5 57v135h106v-135q0 -33 -5 -57h54q34 0 55 18.5t37.5 55t45.5 118.5h121l-8 -22q-29 -87 -47 -125t-45 -59t-76 -26v-3q55 -7 84 -29.5z" />
    <glyph glyph-name="uni0437" unicode="&#x437;" horiz-adv-x="509" 
d="M349.5 490.5q48.5 -10.5 71.5 -39t23 -83.5t-23.5 -82t-79.5 -32v-3q64 -5 93 -36.5t29 -92.5q0 -55 -23 -83.5t-69 -39t-128 -10.5q-121 0 -210 18l9 89q101 -9 193 -9q42 0 63.5 4.5t30.5 17t9 38.5q0 35 -21.5 47.5t-81.5 12.5l-130 1v83l129 1q53 0 71.5 12t18.5 47
q0 21 -9.5 32t-32 15t-65.5 4q-82 0 -159 -9l-8 89q66 19 162 19q89 0 137.5 -10.5z" />
    <glyph glyph-name="uni0438" unicode="&#x438;" horiz-adv-x="595" 
d="M524 0h-109v283q0 23 3 47l2 26h-3q-10 -26 -36 -66l-211 -290h-100v490h108v-286q0 -36 -4 -69h3q17 37 36 62l211 293h100v-490z" />
    <glyph glyph-name="uni0439" unicode="&#x439;" horiz-adv-x="595" 
d="M524 0h-109v283q0 23 3 47l2 26h-3q-10 -26 -36 -66l-211 -290h-100v490h108v-286q0 -36 -4 -69h3q17 37 36 62l211 293h100v-490zM454 708l1 -14q0 -57 -43 -95t-115 -38q-73 0 -116.5 38t-43.5 95l1 14h86q-2 -84 73 -84q35 0 53.5 21t17.5 63h86z" />
    <glyph glyph-name="uni043A" unicode="&#x43a;" horiz-adv-x="551" 
d="M415.5 225q29.5 -22 50.5 -68t58 -157h-127q-34 98 -51 136.5t-40 56t-64 17.5h-56q5 -25 5 -43v-167h-121v490h121v-134q0 -28 -6 -57h49q42 0 66.5 18t41.5 55.5t43 117.5h123q-35 -103 -53 -143t-45.5 -61.5t-79.5 -28.5v-3q56 -7 85.5 -29z" />
    <glyph glyph-name="uni043B" unicode="&#x43b;" horiz-adv-x="578" 
d="M508 0h-122v400h-81q-28 0 -39.5 -11.5t-15.5 -43.5q-12 -86 -20.5 -140t-20.5 -94q-31 -117 -158 -117q-15 0 -23 1l-12 91q40 7 57 19t28 40q21 64 36 222q6 62 39 92.5t98 30.5h234v-490z" />
    <glyph glyph-name="uni043C" unicode="&#x43c;" horiz-adv-x="767" 
d="M688 447l18 -447h-111l-16 401h-16l-95 -304q-11 -38 -46 -38h-79q-36 0 -47 38l-95 304h-15l-15 -401h-110l17 447q0 43 44 43h116q36 0 45 -38l76 -244q7 -19 17 -72h13q9 46 16 72l76 244q11 38 47 38h117q43 0 43 -43z" />
    <glyph glyph-name="uni043D" unicode="&#x43d;" horiz-adv-x="593" 
d="M523 490v-490h-119v215h-214v-215h-120v490h120v-186h214v186h119z" />
    <glyph glyph-name="uni043E" unicode="&#x43e;" horiz-adv-x="580" 
d="M432 478.5q53 -25.5 76.5 -82t23.5 -151.5t-23.5 -151t-76.5 -81.5t-142 -25.5t-141.5 25.5t-76.5 81.5t-24 151t24 151.5t76.5 82t141.5 25.5t142 -25.5zM220 393q-24 -14 -34.5 -48.5t-10.5 -99.5q0 -64 10.5 -98.5t34.5 -48.5t70 -14t70.5 14t35 48.5t10.5 98.5
q0 65 -10.5 99.5t-35 48.5t-70.5 14t-70 -14z" />
    <glyph glyph-name="uni043F" unicode="&#x43f;" horiz-adv-x="585" 
d="M514 0h-118v398h-208v-398h-118v491h444v-491z" />
    <glyph glyph-name="uni0440" unicode="&#x440;" horiz-adv-x="595" 
d="M506 436.5q40 -66.5 40 -195.5q0 -95 -21 -150t-62 -79t-105 -24q-98 0 -169 48q3 -56 2 -102v-129h-121v685h100l9 -72q34 37 90 61t110 24q87 0 127 -66.5zM381 99q21 12 30.5 45t9.5 98q0 62 -8.5 97t-27 49.5t-50.5 14.5q-34 0 -66.5 -14.5t-77.5 -46.5v-234l20 -5
q36 -8 60 -12t51 -4q38 0 59 12z" />
    <glyph glyph-name="uni0441" unicode="&#x441;" horiz-adv-x="501" 
d="M376.5 497q46.5 -7 82.5 -21l-14 -76q-50 2 -137 2q-51 0 -79.5 -14t-41 -47t-12.5 -95t12.5 -96t41 -48t79.5 -14q81 0 147 10l12 -80q-74 -30 -180 -30q-89 0 -140.5 25t-75 81t-23.5 152t23.5 152t75.5 81t141 25q42 0 88.5 -7z" />
    <glyph glyph-name="uni0442" unicode="&#x442;" horiz-adv-x="503" 
d="M480 394h-168v-394h-120v394h-169v96h457v-96z" />
    <glyph glyph-name="uni0443" unicode="&#x443;" horiz-adv-x="549" 
d="M535 490l-182 -505q-38 -110 -108 -155q-50 -35 -128 -35q-34 0 -73 6l11 84q11 -1 32 -1q59 0 89 19q38 25 65 87l4 10h-24q-15 0 -26 8t-15 22l-167 460h130l107 -337q13 -46 16 -65h14q11 34 19 65l105 337h131z" />
    <glyph glyph-name="uni0444" unicode="&#x444;" horiz-adv-x="734" 
d="M660.5 104q-26.5 -54 -84 -81.5t-154.5 -33.5v-184h-110v184q-97 6 -154.5 33.5t-84 81.5t-26.5 141t26.5 141.5t84 82.5t154.5 34v197h110v-197q97 -6 154.5 -34t84 -82.5t26.5 -141.5t-26.5 -141zM177.5 155q14.5 -33 47.5 -49t91 -20v320q-58 -4 -91 -20.5t-47.5 -50
t-14.5 -90.5t14.5 -90zM509 106q33 16 47.5 49t14.5 90t-14.5 90.5t-47.5 50t-91 20.5v-320q58 4 91 20z" />
    <glyph glyph-name="uni0445" unicode="&#x445;" horiz-adv-x="550" 
d="M282 210h-14l-123 -210h-128l154 252l-142 238h127l111 -192h16l111 192h127l-143 -238l155 -252h-129z" />
    <glyph glyph-name="uni0446" unicode="&#x446;" horiz-adv-x="611" 
d="M582 93v-236h-80l-11 143h-421v490h120v-397h199v397h121l-1 -397h73z" />
    <glyph glyph-name="uni0447" unicode="&#x447;" horiz-adv-x="550" 
d="M479 490v-490h-120v191q-43 -14 -91.5 -22t-83.5 -8q-69 0 -102.5 27t-33.5 83v219h120v-179q0 -31 12.5 -43t44.5 -12q66 0 134 26v208h120z" />
    <glyph glyph-name="uni0448" unicode="&#x448;" horiz-adv-x="822" 
d="M752 490v-490h-682v490h117v-397h170v397h108v-397h170v397h117z" />
    <glyph glyph-name="uni0449" unicode="&#x449;" horiz-adv-x="854" 
d="M825 93v-236h-80l-11 143h-664v490h117v-397h170v397h107v-397h171v397h117v-397h73z" />
    <glyph glyph-name="uni044A" unicode="&#x44a;" horiz-adv-x="641" 
d="M521.5 299.5q45.5 -14.5 64.5 -49t19 -97.5q0 -62 -19.5 -96.5t-60.5 -48.5t-111 -14q-143 0 -225 6v398h-167v92h284v-176h88q82 0 127.5 -14.5zM464.5 99.5q18.5 14.5 18.5 58.5q0 42 -18 57t-71 15h-88v-145h88q52 0 70.5 14.5z" />
    <glyph glyph-name="uni044B" unicode="&#x44b;" horiz-adv-x="753" 
d="M405 299.5q45 -14.5 64.5 -49t19.5 -97.5q0 -62 -19.5 -96.5t-60.5 -48.5t-111 -14q-144 0 -224 6h-4v490h117v-176h91q82 0 127 -14.5zM682 490v-490h-121v490h121zM348.5 99.5q18.5 14.5 18.5 58.5q0 42 -18.5 57t-70.5 15h-91v-145h91q52 0 70.5 14.5z" />
    <glyph glyph-name="uni044C" unicode="&#x44c;" horiz-adv-x="526" 
d="M406 299.5q45 -14.5 64.5 -49t19.5 -97.5q0 -62 -19.5 -96.5t-60.5 -48.5t-111 -14q-145 0 -225 6h-4v490h117v-176h91q83 0 128 -14.5zM348.5 99.5q18.5 14.5 18.5 58.5q0 42 -18 57t-71 15h-91v-145h91q52 0 70.5 14.5z" />
    <glyph glyph-name="uni044D" unicode="&#x44d;" horiz-adv-x="522" 
d="M370 474.5q55 -24.5 79.5 -79.5t24.5 -152q0 -95 -24.5 -150t-79.5 -79.5t-150 -24.5q-61 0 -102.5 5t-80.5 18l10 82q65 -5 173 -5q48 0 75 10t39.5 35.5t15.5 73.5h-246v84h245q-6 62 -33.5 85t-90.5 23q-88 0 -173 -3l-11 81q39 12 78 16.5t101 4.5q95 0 150 -24.5z
" />
    <glyph glyph-name="uni044E" unicode="&#x44e;" horiz-adv-x="815" 
d="M668.5 481.5q51.5 -22.5 74.5 -78.5t23 -158q0 -99 -23 -154t-74.5 -77.5t-142.5 -22.5q-82 0 -130 19.5t-71 66t-27 130.5h-107v-207h-121v490h121v-193h108q5 81 29 125.5t71 63t127 18.5q91 0 142.5 -22.5zM594.5 103q24.5 14 35 47.5t11.5 96.5q-1 63 -11.5 96.5
t-35 47t-71.5 13.5q-45 0 -69 -13.5t-33.5 -47t-9.5 -96.5t10 -96.5t33.5 -47.5t68.5 -14q47 0 71.5 14z" />
    <glyph glyph-name="uni044F" unicode="&#x44f;" horiz-adv-x="555" 
d="M395.5 496.5q45.5 -1.5 90.5 -5.5v-491h-119v173h-110q-57 0 -66 -42l-35 -131h-125l43 150q8 29 35 42.5t59 17.5v4q-58 11 -83 43.5t-25 90.5q0 54 17.5 86.5t60.5 48t120 15.5q92 0 137.5 -1.5zM367 258v147h-107q-36 0 -53 -6t-23 -20.5t-6 -45.5q0 -30 6 -45.5
t23.5 -22.5t52.5 -7h107z" />
    <glyph glyph-name="uni0450" unicode="&#x450;" horiz-adv-x="551" 
d="M484 99l11 -78q-36 -17 -92 -25t-110 -8q-90 0 -143 26t-77.5 82t-24.5 150q0 97 24.5 153t75.5 80.5t137 24.5q117 0 169.5 -42.5t52.5 -127.5q1 -67 -31.5 -103.5t-98.5 -36.5h-200q5 -44 19.5 -67t40.5 -31.5t71 -8.5q75 0 176 12zM222 397q-24 -11 -35 -38.5
t-13 -79.5h169q26 0 35 16t9 41q0 40 -21 56t-76 16q-44 0 -68 -11zM354 601l-38 -54l-213 111l63 90z" />
    <glyph glyph-name="uni0451" unicode="&#x451;" horiz-adv-x="551" 
d="M147 613v55q0 15 7.5 23t22.5 8h40q15 0 22.5 -8t7.5 -23v-55q0 -30 -30 -30h-40q-30 0 -30 30zM333 590q-7 7 -7 23v55q0 31 30 31h40q14 0 22 -8.5t8 -22.5v-55q0 -30 -30 -30h-40q-16 0 -23 7zM484 99l11 -78q-36 -17 -92 -25t-110 -8q-90 0 -143 26t-77.5 82
t-24.5 150q0 97 24.5 153t75.5 80.5t137 24.5q117 0 169.5 -42.5t52.5 -127.5q1 -67 -31.5 -103.5t-98.5 -36.5h-200q5 -44 19.5 -67t40.5 -31.5t71 -8.5q75 0 176 12zM222 397q-24 -11 -35 -38.5t-13 -79.5h169q26 0 35 16t9 41q0 40 -21 56t-76 16q-44 0 -68 -11z" />
    <glyph glyph-name="uni0452" unicode="&#x452;" horiz-adv-x="597" 
d="M550 273v-266q0 -64 -30 -120t-81 -88l-67 53q30 36 43 72t13 82v231q0 36 -15.5 50.5t-54.5 14.5q-31 0 -63 -11t-80 -36v-255h-121v475h-71v74h71v151h121v-151h173v-74h-173v-50q0 -49 -6 -88q102 71 204 71q135 0 137 -135z" />
    <glyph glyph-name="uni0453" unicode="&#x453;" horiz-adv-x="471" 
d="M339.5 493q61.5 -2 114.5 -9l-5 -85h-211q-26 0 -38 -12t-12 -39v-348h-121v381q0 114 119 114q92 0 153.5 -2zM436 664l-213 -111l-38 54l188 147z" />
    <glyph glyph-name="uni0454" unicode="&#x454;" horiz-adv-x="522" 
d="M485 12q-39 -13 -81 -18t-103 -5q-94 0 -149 24.5t-79.5 79.5t-24.5 150q0 97 24.5 152t79 79.5t149.5 24.5q62 0 101 -4.5t78 -16.5l-11 -81q-84 3 -173 3q-63 0 -90.5 -23t-33.5 -85h246v-84h-247q3 -48 16.5 -73.5t40 -35.5t73.5 -10q109 0 173 5z" />
    <glyph glyph-name="uni0455" unicode="&#x455;" horiz-adv-x="520" 
d="M356.5 498q60.5 -5 105.5 -12l-9 -84q-126 4 -187 4q-47 0 -67 -2t-28.5 -11t-8.5 -29q0 -24 11 -32.5t30 -13.5t26 -7l131 -36q64 -18 91 -48.5t27 -92.5q0 -59 -22.5 -90.5t-69 -43t-127.5 -11.5q-110 0 -205 16l7 85q53 -4 168 -4q54 0 81.5 3.5t38.5 13.5t11 30
q0 18 -7.5 27t-18.5 12.5t-46 13.5l-129 35q-63 18 -88.5 51t-25.5 93q0 54 20 84t63 42.5t117 12.5q51 -1 111.5 -6z" />
    <glyph glyph-name="uni0456" unicode="&#x456;" horiz-adv-x="269" 
d="M189 694q9 -9 9 -26v-55q0 -35 -35 -35h-56q-35 0 -35 35v55q0 35 35 35h56q17 0 26 -9zM195 0h-121v490h121v-490z" />
    <glyph glyph-name="uni0457" unicode="&#x457;" horiz-adv-x="269" 
d="M87.5 691q7.5 -8 7.5 -23v-55q0 -30 -30 -30h-40q-15 0 -22 7t-7 23v55q0 31 29 31h40q15 0 22.5 -8zM266 690.5q8 -8.5 8 -22.5v-55q0 -30 -30 -30h-40q-30 0 -30 30v55q0 15 7.5 23t22.5 8h40q14 0 22 -8.5zM195 0h-121v490h121v-490z" />
    <glyph glyph-name="uni0458" unicode="&#x458;" horiz-adv-x="270" 
d="M198 669v-54q0 -35 -35 -35h-56q-35 0 -35 35v54q0 35 35 35h56q35 0 35 -35zM196 9q0 -65 -30 -121t-82 -88l-67 53q31 37 44 73t13 83v481h122v-481z" />
    <glyph glyph-name="uni0459" unicode="&#x459;" horiz-adv-x="819" 
d="M699.5 298.5q44.5 -14.5 64 -49t19.5 -96.5t-19.5 -96.5t-60.5 -48.5t-111 -14q-140 0 -222 6h-1v404h-59q-27 0 -38.5 -9.5t-13.5 -34.5q-12 -98 -22 -154.5t-25 -99.5q-19 -56 -60 -83.5t-93 -27.5q-17 0 -25 1l-9 82q30 8 48.5 20t31.5 40q17 34 25 82.5t20 161.5
q12 108 125 108h209v-177h90q82 0 126.5 -14.5zM643.5 98.5q18.5 14.5 18.5 59.5q0 42 -18.5 57t-70.5 15h-90v-146h90q52 0 70.5 14.5z" />
    <glyph glyph-name="uni045A" unicode="&#x45a;" horiz-adv-x="822" 
d="M703.5 295.5q44.5 -14.5 63.5 -48t19 -94.5q0 -62 -19.5 -96.5t-60 -48.5t-109.5 -14q-142 0 -224 6h-1v227h-190v-227h-112v490h112v-180h190v180h114v-180h91q82 0 126.5 -14.5zM646.5 98.5q18.5 14.5 18.5 58.5q0 41 -18 56t-70 15h-91v-144h91q51 0 69.5 14.5z" />
    <glyph glyph-name="uni045B" unicode="&#x45b;" horiz-adv-x="597" 
d="M515.5 374q34.5 -34 34.5 -101v-273h-122v237q0 37 -15 51t-55 14q-31 0 -63 -11t-80 -36v-255h-121v475h-71v74h71v151h121v-151h173v-74h-173v-50q0 -49 -6 -88q102 71 204 71q68 0 102.5 -34z" />
    <glyph glyph-name="uni045C" unicode="&#x45c;" horiz-adv-x="551" 
d="M415.5 225q29.5 -22 50.5 -68t58 -157h-127q-34 98 -51 136.5t-40 56t-64 17.5h-56q5 -25 5 -43v-167h-121v490h121v-134q0 -28 -6 -57h49q42 0 66.5 18t41.5 55.5t43 117.5h123q-35 -103 -53 -143t-45.5 -61.5t-79.5 -28.5v-3q56 -7 85.5 -29zM453 664l-213 -111l-38 54
l188 147z" />
    <glyph glyph-name="uni045D" unicode="&#x45d;" horiz-adv-x="595" 
d="M524 0h-109v283q0 23 3 47l2 26h-3q-10 -26 -36 -66l-211 -290h-100v490h108v-286q0 -36 -4 -69h3q17 37 36 62l211 293h100v-490zM365 601l-38 -54l-213 111l63 90z" />
    <glyph glyph-name="uni045E" unicode="&#x45e;" horiz-adv-x="549" 
d="M535 490l-182 -505q-38 -110 -108 -155q-50 -35 -128 -35q-34 0 -73 6l11 84q11 -1 32 -1q59 0 89 19q38 25 65 87l4 10h-24q-15 0 -26 8t-15 22l-167 460h130l107 -337q13 -46 16 -65h14q11 34 19 65l105 337h131zM428 708l1 -14q0 -57 -43 -95t-115 -38
q-73 0 -116.5 38t-43.5 95l1 14h86q-2 -84 73 -84q35 0 53.5 21t17.5 63h86z" />
    <glyph glyph-name="uni045F" unicode="&#x45f;" horiz-adv-x="590" 
d="M520 490v-490h-176l-9 -164h-81l-9 164h-175v490h120l2 -397h207l1 397h120z" />
    <glyph glyph-name="uni0462" unicode="&#x462;" horiz-adv-x="627" 
d="M503.5 405.5q51.5 -20.5 74 -67.5t22.5 -131t-22 -130.5t-69 -65.5t-128 -19q-97 0 -150.5 1.5t-110.5 6.5h-4v537h-114v85h114v109h125v-109h231v-85h-231v-111h119q92 0 143.5 -20.5zM433 105.5q24 9.5 32.5 32.5t8.5 71q0 47 -8.5 72t-32.5 36.5t-73 11.5h-119v-233
h119q49 0 73 9.5z" />
    <glyph glyph-name="uni0463" unicode="&#x463;" horiz-adv-x="546" 
d="M426 299.5q45 -14.5 64.5 -49t19.5 -97.5q0 -62 -19.5 -96.5t-60.5 -48.5t-111 -14q-145 0 -225 6h-4v457h-87v74h87v159h117v-159h167v-74h-167v-143h91q83 0 128 -14.5zM368.5 99.5q18.5 14.5 18.5 58.5q0 42 -18 57t-71 15h-91v-145h91q52 0 70.5 14.5z" />
    <glyph glyph-name="uni046A" unicode="&#x46a;" horiz-adv-x="874" 
d="M6 23q60 159 93.5 223t85 94t151.5 31v5l-222 254q-10 11 -10 26q0 14 10.5 24t27.5 10h588q17 0 27 -10t10 -24q0 -15 -10 -26l-219 -254v-5q100 -1 151.5 -31t85 -94t93.5 -223l9 -23h-131q-52 153 -80.5 210t-62 72.5t-110.5 15.5q4 -52 4 -68v-230h-120v230
q0 16 4 68q-77 0 -111 -16t-62 -73t-80 -209h-131zM598 599h-326l164 -186z" />
    <glyph glyph-name="uni046B" unicode="&#x46b;" horiz-adv-x="704" 
d="M70 172q24 45 61 65t115 25v4l-163 171q-10 10 -10 24q0 13 9 21.5t24 8.5h489q15 0 24.5 -9t9.5 -21q0 -13 -10 -24l-161 -171v-4q78 -5 115 -25t61 -65.5t73 -171.5h-127q-41 108 -59.5 145t-40.5 48t-74 11q3 -28 3 -48v-156h-115v156l1 25q2 14 2 23q-51 0 -73 -11.5
t-41 -48t-60 -144.5h-127q50 127 74 172zM468 409h-233l116 -122z" />
    <glyph glyph-name="uni0472" unicode="&#x472;" horiz-adv-x="675" 
d="M506 670q61 -33 88.5 -110t27.5 -215t-27.5 -215t-88.5 -110t-169 -33t-169 33t-88 110t-27 215t27 215t88 110t169 33t169 -33zM251.5 577q-31.5 -19 -47 -62.5t-18.5 -120.5h303q-3 77 -18.5 120.5t-47.5 62.5t-86 19t-85.5 -19zM424 113.5q32 19.5 47 64.5t18 126
h-303q3 -81 18 -126t46.5 -64.5t86.5 -19.5t87 19.5z" />
    <glyph glyph-name="uni0473" unicode="&#x473;" horiz-adv-x="580" 
d="M432 478.5q53 -25.5 76.5 -82t23.5 -151.5t-23.5 -151t-76.5 -81.5t-142 -25.5t-141.5 25.5t-76.5 81.5t-24 151t24 151.5t76.5 82t141.5 25.5t142 -25.5zM224.5 396q-23.5 -11 -35 -38t-14.5 -76h231q-3 49 -14.5 76t-35.5 38t-66 11t-65.5 -11zM357 96q24 12 35.5 40
t13.5 80h-231q2 -52 13.5 -80t35.5 -40t66 -12q43 0 67 12z" />
    <glyph glyph-name="uni0474" unicode="&#x474;" horiz-adv-x="659" 
d="M223 9.5q-12 9.5 -16 25.5l-196 655h129l141 -518l18 -77h25q5 24 12 48l7 29l94 412q28 120 161 120q31 0 64 -6v-92q-12 3 -32 3q-33 0 -50 -12t-25 -43l-139 -519q-5 -16 -17.5 -25.5t-28.5 -9.5h-118q-17 0 -29 9.5z" />
    <glyph glyph-name="uni0475" unicode="&#x475;" horiz-adv-x="558" 
d="M187.5 8.5q-10.5 8.5 -15.5 22.5l-160 460h124l106 -349q7 -22 13 -56h22l7 28q1 6 3 12.5t4 14.5l71 257q13 47 43.5 75t88.5 28q36 0 64 -6v-88q-16 2 -27 2q-28 0 -42.5 -9.5t-22.5 -35.5l-103 -333q-4 -14 -15.5 -22.5t-26.5 -8.5h-109q-14 0 -24.5 8.5z" />
    <glyph glyph-name="uni048A" unicode="&#x48a;" horiz-adv-x="740" 
d="M238.5 779q-43.5 38 -43.5 95l1 14h86q-1 -42 18 -63t55 -21q73 0 71 84h86q1 -5 1 -15q0 -37 -19.5 -67t-55.5 -47.5t-83 -17.5q-73 0 -116.5 38zM708 97v-97l-48 -151h-87l38 151h-109v452q0 41 8 87h-6q-20 -54 -38 -84l-261 -455h-127v690h120v-446q0 -50 -8 -90h7
q13 38 38 83l260 453h128v-593h85z" />
    <glyph glyph-name="uni048B" unicode="&#x48b;" horiz-adv-x="627" 
d="M180.5 599q-43.5 38 -43.5 95l1 14h86q-1 -84 73 -84q36 0 54 21t17 63h86l1 -14q0 -57 -43 -95t-115 -38q-73 0 -116.5 38zM597 87v-87l-48 -143h-81l39 143h-92v283q0 23 3 47l2 26h-3q-10 -26 -36 -66l-211 -290h-100v490h108v-286q0 -36 -4 -69h3q17 37 36 62
l211 293h100v-403h73z" />
    <glyph glyph-name="uni048C" unicode="&#x48c;" horiz-adv-x="626" 
d="M505.5 405.5q51.5 -20.5 74.5 -67.5t23 -131t-22 -130.5t-69.5 -65.5t-128.5 -19q-97 0 -150.5 1.5t-110.5 6.5h-4v507h-115v85h115v98h126v-98h229v-85h-229v-81h119q91 0 142.5 -20.5zM435.5 105.5q23.5 9.5 32.5 33t9 70.5t-8.5 72t-33 36.5t-72.5 11.5h-119v-233h119
q49 0 72.5 9.5z" />
    <glyph glyph-name="uni048D" unicode="&#x48d;" horiz-adv-x="546" 
d="M426 299.5q45 -14.5 64.5 -49t19.5 -97.5q0 -62 -19.5 -96.5t-60.5 -48.5t-111 -14q-145 0 -225 6h-4v457h-87v74h87v159h117v-159h167v-74h-167v-143h91q83 0 128 -14.5zM368.5 99.5q18.5 14.5 18.5 58.5q0 42 -18 57t-71 15h-91v-145h91q52 0 70.5 14.5z" />
    <glyph glyph-name="uni048E" unicode="&#x48e;" horiz-adv-x="602" 
d="M552 195l-79 79q-45 -19 -130 -19q-74 0 -141 8v-263h-125v690q57 6 106.5 7.5t143.5 1.5q92 0 142.5 -19.5t72.5 -67t22 -135.5q0 -60 -9.5 -100.5t-30.5 -66.5l72 -71zM383 363l-73 73l43 44l77 -77q11 25 11 74t-10.5 74.5t-35.5 36t-71 10.5q-87 0 -122 -1v-241h122
q38 0 59 7z" />
    <glyph glyph-name="uni048F" unicode="&#x48f;" horiz-adv-x="591" 
d="M527.5 103.5q-16.5 -53.5 -50.5 -81.5l64 -91l-50 -36l-71 100q-27 -7 -64 -7q-100 0 -169 48q3 -56 2 -102v-129h-121v685h100l9 -72q34 37 90 61t110 24q87 0 127 -66.5t40 -195.5q0 -84 -16.5 -137.5zM355 88l-61 86l50 37l61 -87q17 34 17 118q0 62 -9 97t-28.5 49.5
t-52.5 14.5q-34 0 -66 -14.5t-77 -46.5v-235q48 -12 74 -17t57 -5q20 0 35 3z" />
    <glyph glyph-name="uni0490" unicode="&#x490;" horiz-adv-x="531" 
d="M514 842v-168l-6 -86h-248q-33 0 -46 -13.5t-13 -49.5v-525h-125v549q0 63 39 103t99 40q139 0 205 -5l13 155h82z" />
    <glyph glyph-name="uni0491" unicode="&#x491;" horiz-adv-x="477" 
d="M459 636v-152l-6 -85h-214q-26 1 -38 -11.5t-12 -39.5v-348h-121v381q0 114 118 114q122 0 182 -3l11 144h80z" />
    <glyph glyph-name="uni0492" unicode="&#x492;" horiz-adv-x="543" 
d="M251 574.5q-13 -13.5 -13 -49.5v-160h204v-85h-204v-280h-126v280h-113v85h113v184q0 63 39.5 103t99.5 40q100 0 167 -1.5t126 -7.5l-5 -95h-242q-33 0 -46 -13.5z" />
    <glyph glyph-name="uni0493" unicode="&#x493;" horiz-adv-x="475" 
d="M204 387q-12 -12 -12 -39v-105h96v-47h-96v-196h-121v196h-26v47h26v138q0 114 118 114q92 0 154 -2t115 -9l-5 -85h-211q-26 0 -38 -12z" />
    <glyph glyph-name="uni0494" unicode="&#x494;" horiz-adv-x="596" 
d="M475.5 423q40.5 -23 64.5 -86t24 -176q0 -124 -34.5 -195.5t-88.5 -102.5t-130 -45l-21 87q56 15 87 38.5t46.5 73.5t15.5 143q0 78 -10.5 116.5t-31.5 51t-61 12.5q-65 0 -136 -37v-303h-125v549q0 63 39 103t100 40q99 0 165.5 -1.5t124.5 -7.5l-5 -95h-239
q-34 0 -47 -13.5t-13 -49.5v-127q43 25 89.5 36.5t88.5 11.5q57 0 97.5 -23z" />
    <glyph glyph-name="uni0495" unicode="&#x495;" horiz-adv-x="545" 
d="M467 245.5q46 -45.5 46 -162.5q0 -101 -33.5 -161.5t-87.5 -88.5t-128 -40l-22 85q82 18 115.5 63.5t33.5 136.5q0 48 -9.5 73t-27 33t-47.5 8q-32 0 -58.5 -7t-60.5 -26v-159h-121v381q0 114 119 114q83 0 139.5 -2t104.5 -9l-5 -84h-187q-26 0 -38 -12t-12 -39v-104
q74 46 158 46q75 0 121 -45.5z" />
    <glyph glyph-name="uni0496" unicode="&#x496;" horiz-adv-x="937" 
d="M935 97v-248h-87l-11 151h-76l-15 44q-38 113 -60 164t-50 77t-73 26h-55q7 -40 7 -68v-243h-119v243q0 28 7 68h-59q-44 0 -71.5 -25.5t-48.5 -74t-60 -158.5q-6 -21 -18 -53h-130l9 29q42 133 67 193t61.5 94.5t98.5 41.5v4q-56 7 -90.5 39t-56.5 84.5t-57 161.5
l-14 43h127l9 -26q34 -100 55 -150t49 -78.5t69 -28.5h60q-7 36 -7 80v203h119v-203q0 -44 -7 -80h55q42 0 70 28t49 77.5t55 148.5l10 29h127l-13 -39q-36 -111 -58 -164t-56.5 -85.5t-91.5 -39.5v-4q56 -6 91 -34.5t59.5 -79.5t56.5 -147h73z" />
    <glyph glyph-name="uni0497" unicode="&#x497;" horiz-adv-x="835" 
d="M827 93v-236h-80l-11 143h-78q-2 6 -4 10.5t-3 8.5q-32 87 -49 123t-36.5 52.5t-52.5 16.5h-60q5 -25 5 -44v-167h-106v167q0 19 5 44h-64q-33 0 -52.5 -18t-36.5 -55.5t-54 -137.5h-123q37 112 57 157.5t49 68t84 29.5v3q-51 6 -78.5 28t-45 61.5t-52.5 142.5h120
q29 -81 46 -118t38.5 -55.5t54.5 -18.5h57q-5 24 -5 57v135h106v-135q0 -33 -5 -57h54q34 0 55 18.5t37.5 55t45.5 118.5h121l-8 -22q-29 -87 -47 -125t-45 -59t-76 -26v-3q45 -6 72 -21.5t46 -47.5t41 -93h78z" />
    <glyph glyph-name="uni0498" unicode="&#x498;" horiz-adv-x="557" 
d="M391.5 682.5q49.5 -15.5 71.5 -54.5t22 -110q0 -75 -27.5 -113.5t-88.5 -44.5v-4q74 -7 105.5 -52.5t31.5 -131.5q0 -71 -22.5 -109.5t-70 -54.5t-129.5 -16q-80 0 -139 6t-113 21l10 89q116 -16 219 -16q46 0 70.5 8.5t35 30.5t10.5 64q0 46 -11.5 70.5t-37.5 34.5
t-73 10l-125 1v93l125 1q60 0 83 20t23 77q0 39 -11 60t-35.5 29t-69.5 8q-55 0 -103 -4t-56 -5l-28 -3l-10 93q48 10 95.5 14t110.5 4q88 0 137.5 -15.5zM281 -36q40 0 58.5 -14.5t18.5 -48.5q0 -65 -43 -101.5t-111 -36.5q-9 0 -31 2l17 59q36 -1 60 15.5t26 45.5
q1 14 -11 18t-50 4l12 53q40 4 54 4z" />
    <glyph glyph-name="uni0499" unicode="&#x499;" horiz-adv-x="509" 
d="M425 23.5q-38 -28.5 -126 -33.5l-8 -154h-81l-8 154q-92 2 -169 17l9 89q101 -9 193 -9q42 0 63.5 4.5t30.5 17t9 38.5q0 35 -21.5 47.5t-81.5 12.5l-130 1v83l129 1q53 0 71.5 12t18.5 47q0 21 -9.5 32t-32 15t-65.5 4q-82 0 -159 -9l-8 89q66 19 162 19
q89 0 137.5 -10.5t71.5 -39t23 -83.5t-23.5 -82t-79.5 -32v-3q64 -5 93 -36.5t29 -92.5q0 -70 -38 -98.5z" />
    <glyph glyph-name="uni049A" unicode="&#x49a;" horiz-adv-x="640" 
d="M640 97v-248h-83l-11 151h-83q-8 24 -11 36q-39 119 -60.5 170t-53 78t-84.5 27h-59q7 -40 7 -68v-243h-125v690h125v-203q0 -44 -7 -80h58q53 0 85.5 31.5t54 84.5t56.5 167h128q-3 -8 -13 -41q-36 -110 -59 -162.5t-57.5 -85t-91.5 -39.5v-4q56 -6 90 -34t58 -78.5
t58 -148.5h78z" />
    <glyph glyph-name="uni049B" unicode="&#x49b;" horiz-adv-x="577" 
d="M568 93v-236h-80l-10 143h-81q-34 98 -51 136.5t-40 56t-64 17.5h-56q5 -25 5 -43v-167h-121v490h121v-134q0 -28 -6 -57h49q42 0 66.5 18t41.5 55.5t43 117.5h123q-35 -103 -53 -143t-45.5 -61.5t-79.5 -28.5v-3q46 -6 73 -21t47 -47t42 -93h76z" />
    <glyph glyph-name="uni049C" unicode="&#x49c;" horiz-adv-x="613" 
d="M455.5 319.5q35.5 -31.5 59 -85.5t64.5 -173l21 -61h-132l-10 30q-30 96 -48 144t-39.5 80t-51.5 46v-134h-72v145h-53q7 -40 7 -68v-243h-124v690h124v-203q0 -34 -7 -80h53v146h72v-132q30 16 51.5 51t38 80.5t45.5 137.5h128q-3 -8 -13 -41q-36 -110 -59 -162.5
t-57.5 -85t-91.5 -39.5v-4q59 -7 94.5 -38.5z" />
    <glyph glyph-name="uni049D" unicode="&#x49d;" horiz-adv-x="555" 
d="M420 225q29 -22 49.5 -67.5t58.5 -157.5h-127q-36 107 -56 147.5t-51 53.5v-86h-60v95h-48q5 -25 5 -43v-167h-121v490h121v-134q0 -28 -6 -57h49v102h60v-90q30 15 48 52.5t48 126.5h123q-35 -103 -53 -143t-45.5 -61.5t-79.5 -28.5v-3q56 -7 85 -29z" />
    <glyph glyph-name="uni049E" unicode="&#x49e;" horiz-adv-x="664" 
d="M506.5 319.5q35.5 -31.5 59 -85.5t64.5 -173l21 -61h-132q-8 24 -11 36q-39 119 -60.5 170t-53 78t-84.5 27h-59q7 -40 7 -68v-243h-125v522h-132v85h132v83h125v-83h130v-85h-130v-35q0 -44 -7 -80h58q53 0 85.5 31.5t54 84.5t56.5 167h128q-3 -8 -13 -41
q-36 -110 -59 -162.5t-57.5 -85t-91.5 -39.5v-4q59 -7 94.5 -38.5z" />
    <glyph glyph-name="uni049F" unicode="&#x49f;" horiz-adv-x="551" 
d="M415.5 225q29.5 -22 50.5 -68t58 -157h-127q-34 98 -51 136.5t-40 56t-64 17.5h-56q5 -25 5 -43v-167h-121v537h-70v74h70v79h121v-79h173v-74h-173v-181q0 -28 -6 -57h49q42 0 66.5 18t41.5 55.5t43 117.5h123q-35 -103 -53 -143t-45.5 -61.5t-79.5 -28.5v-3
q56 -7 85.5 -29z" />
    <glyph glyph-name="uni04A0" unicode="&#x4a0;" horiz-adv-x="741" 
d="M584.5 319.5q35.5 -31.5 59.5 -86t64 -174.5l20 -59h-131l-12 37q-38 117 -60.5 168.5t-53.5 78.5t-84 27h-58q7 -40 7 -68v-243h-125v604h-158v64h158v22h125v-203q0 -34 -7 -80h58q52 0 84.5 31.5t54 84t57.5 167.5h127l-6.5 -19.5t-7.5 -21.5q-35 -109 -58 -162
t-57.5 -85.5t-90.5 -39.5v-4q59 -7 94.5 -38.5z" />
    <glyph glyph-name="uni04A1" unicode="&#x4a1;" horiz-adv-x="645" 
d="M510.5 225q29.5 -22 50 -68t57.5 -157h-127q-33 97 -50.5 136t-40 56t-63.5 18h-56q5 -25 5 -43v-167h-121v398h-166v92h287v-134q0 -28 -6 -57h49q42 0 66.5 18t41 55t43.5 118h123q-35 -103 -53 -143t-45.5 -61.5t-79.5 -28.5v-3q56 -7 85.5 -29z" />
    <glyph glyph-name="uni04A2" unicode="&#x4a2;" horiz-adv-x="697" 
d="M687 97v-248h-87l-11 151h-113v316h-272v-316h-125v690h125v-271h272v271h126v-593h85z" />
    <glyph glyph-name="uni04A3" unicode="&#x4a3;" horiz-adv-x="607" 
d="M594 93v-236h-80l-10 143h-100v215h-214v-215h-120v490h120v-186h214v186h119v-397h71z" />
    <glyph glyph-name="uni04A4" unicode="&#x4a4;" horiz-adv-x="862" 
d="M737.5 690.5q57.5 -1.5 108.5 -7.5l-5 -95h-202q-33 0 -46.5 -13.5t-13.5 -49.5v-525h-125v316h-252v-316h-125v690h125v-271h252v130q0 63 39.5 103t99.5 40q87 0 144.5 -1.5z" />
    <glyph glyph-name="uni04A5" unicode="&#x4a5;" horiz-adv-x="762" 
d="M645 493q53 -2 100 -9l-5 -85h-175q-27 0 -39 -12t-12 -39v-348h-120v215h-204v-215h-120v490h120v-186h204v77q0 114 118 114q80 0 133 -2z" />
    <glyph glyph-name="uni04A6" unicode="&#x4a6;" horiz-adv-x="996" 
d="M875.5 424q40.5 -23 65 -86t24.5 -177q0 -121 -34.5 -191t-89 -100.5t-129.5 -42.5l-22 87q56 15 87 37.5t46.5 71t15.5 137.5q0 80 -10.5 118.5t-31.5 51t-61 12.5q-64 0 -135 -37v-305h-126v593h-273v-593h-125v690h524v-291q43 25 89.5 36.5t88.5 11.5q56 0 96.5 -23z
" />
    <glyph glyph-name="uni04A7" unicode="&#x4a7;" horiz-adv-x="885" 
d="M807 312.5q49 -54.5 49 -179.5q0 -166 -69 -242t-180 -94l-22 84q54 14 86 40.5t48 77t16 134.5q0 75 -23 103.5t-73 28.5q-30 0 -59.5 -9t-65.5 -30v-226h-118v398h-208v-398h-118v491h444v-173q76 49 167 49q77 0 126 -54.5z" />
    <glyph glyph-name="uni04A8" unicode="&#x4a8;" horiz-adv-x="868" 
d="M706 -12q-84 0 -151 34q-78 -34 -175 -34q-153 0 -240 89t-87 277q0 127 31.5 203.5t94 111t159.5 34.5v-102q-55 0 -88.5 -22.5t-49.5 -78t-16 -154.5q0 -256 228 -256q28 0 51 4q-100 115 -100 332q0 138 52 206t159 68q108 0 161.5 -66t53.5 -193q0 -116 -33.5 -204
t-95.5 -146q21 -4 47 -4q78 0 143 9l11 -80q-56 -28 -155 -28zM568 141q92 80 92 288q0 82 -19.5 122.5t-63.5 40.5q-45 0 -65.5 -42.5t-20.5 -129.5q0 -200 77 -279z" />
    <glyph glyph-name="uni04A9" unicode="&#x4a9;" horiz-adv-x="714" 
d="M576 -9q-63 0 -123 31q-71 -31 -151 -31q-131 0 -193.5 66.5t-62.5 205.5q0 129 56.5 185t173.5 56v-86q-109 0 -109 -155q0 -98 38 -141.5t123 -43.5q27 0 48 4q-39 42 -60.5 98.5t-21.5 122.5q0 101 45 151t132 50q88 0 134.5 -50.5t46.5 -150.5q0 -65 -29.5 -124
t-80.5 -102q20 -5 36 -5q82 0 127 14l15 -59q-45 -36 -144 -36zM467 122q34 27 53.5 72t19.5 107q0 63 -15.5 88.5t-50.5 25.5t-50.5 -27t-15.5 -87q0 -115 59 -179z" />
    <glyph glyph-name="uni04AA" unicode="&#x4aa;" horiz-adv-x="578" 
d="M384 -11l-5 -140h-86l-5 141q-87 7 -138 45t-74 112.5t-23 197.5q0 133 27 210.5t88 112t166 34.5q67 0 109.5 -5t88.5 -17l-12 -95q-87 7 -186 7q-58 0 -90 -22.5t-45.5 -75.5t-13.5 -149t13.5 -149t45.5 -75.5t90 -22.5q69 0 113.5 2t87.5 8l11 -94q-73 -22 -162 -25z
" />
    <glyph glyph-name="uni04AB" unicode="&#x4ab;" horiz-adv-x="498" 
d="M324 -11l-7 -153h-81l-9 155q-98 11 -139.5 70t-41.5 185q0 96 23.5 152t75.5 81t141 25q42 0 89 -7t82 -21l-14 -76q-49 2 -136 2q-51 0 -80 -14t-41.5 -47t-12.5 -95t12.5 -96t41.5 -48t80 -14q80 0 147 10l11 -80q-56 -24 -141 -29z" />
    <glyph glyph-name="uni04AC" unicode="&#x4ac;" horiz-adv-x="592" 
d="M571 583h-213v-505h45v-59h-45v-19h-126v583h-211v107h550v-107zM368 -14h53l-2 -116h-42z" />
    <glyph glyph-name="uni04AD" unicode="&#x4ad;" horiz-adv-x="499" 
d="M310 400v-307h71v-236h-80l-10 143h-103v400h-170v90h463v-90h-171z" />
    <glyph glyph-name="uni04AE" unicode="&#x4ae;" horiz-adv-x="589" 
d="M357 233v-233h-125v235l-227 455h132l126 -268q9 -20 17 -47.5t11 -35.5h8q3 8 11 35.5t17 47.5l126 268h130z" />
    <glyph glyph-name="uni04AF" unicode="&#x4af;" horiz-adv-x="601" 
d="M363 40v-235h-124v233l-227 452h131l126 -264q10 -21 18 -48.5t10 -34.5h8l10 35t18 49l126 263h131z" />
    <glyph glyph-name="uni04B0" unicode="&#x4b0;" horiz-adv-x="565" 
d="M386 283h119v-72h-144v-211h-125v211h-144v72h120l-203 407h132l126 -268q9 -20 17 -47.5t11 -35.5h9q14 54 28 83l125 268h131z" />
    <glyph glyph-name="uni04B1" unicode="&#x4b1;" horiz-adv-x="601" 
d="M386 86h121v-74h-144v-207h-124v207h-144v74h120l-203 404h131l126 -264q10 -21 18 -48.5t10 -34.5h8l10 35t18 49l126 263h131z" />
    <glyph glyph-name="uni04B2" unicode="&#x4b2;" horiz-adv-x="684" 
d="M685 97v-248h-86l-11 151h-112l-154 312h-19l-154 -312h-132l183 355l-170 335h131l140 -288h23l140 288h132l-171 -335l134 -258h126z" />
    <glyph glyph-name="uni04B3" unicode="&#x4b3;" horiz-adv-x="551" 
d="M544 93v-236h-80l-11 143h-50l-123 210h-14l-123 -210h-128l155 252l-143 238h127l111 -192h16l111 192h127l-143 -238l98 -159h70z" />
    <glyph glyph-name="uni04B4" unicode="&#x4b4;" horiz-adv-x="824" 
d="M812 7v-158h-87l-11 151h-484v583h-209v107h501v-107h-131v-413h211v520h126v-520h21v-163h63z" />
    <glyph glyph-name="uni04B5" unicode="&#x4b5;" horiz-adv-x="735" 
d="M722 97v-240h-84l-10 143h-455v400h-155v90h426v-90h-150v-303h236v393h122v-393h70z" />
    <glyph glyph-name="uni04B6" unicode="&#x4b6;" horiz-adv-x="665" 
d="M654 85v-85l-11 -151h-87v151h-117v292q-55 -25 -113.5 -38t-104.5 -13q-86 0 -127 40t-41 123v286h126v-260q-2 -43 18.5 -62t68.5 -19q44 0 83 8.5t90 30.5v302h126v-605h89z" />
    <glyph glyph-name="uni04B7" unicode="&#x4b7;" horiz-adv-x="566" 
d="M552 93v-236h-81l-10 143h-103v190q-44 -14 -92 -21.5t-82 -7.5q-69 0 -102.5 27t-33.5 83v219h120v-179q0 -31 12.5 -43t43.5 -12q34 0 65.5 6t68.5 20v208h121l-1 -397h74z" />
    <glyph glyph-name="uni04B8" unicode="&#x4b8;" horiz-adv-x="641" 
d="M563 690v-690h-123v297q-44 -23 -95 -37v-140h-71v125q-28 -4 -56 -4q-84 0 -124.5 40t-40.5 123v286h125v-260q0 -43 19 -61t66 -18h11v164h71v-156q39 8 95 31v300h123z" />
    <glyph glyph-name="uni04B9" unicode="&#x4b9;" horiz-adv-x="550" 
d="M481 490v-490h-120v191q-35 -11 -67 -17v-93h-60v83q-29 -3 -50 -3q-69 0 -102.5 27t-33.5 83v219h119v-179q0 -30 13 -42.5t44 -12.5h10v127h60v-120q33 6 67 19v208h120z" />
    <glyph glyph-name="uni04BA" unicode="&#x4ba;" horiz-adv-x="625" 
d="M547 409q41 -40 41 -123v-286h-125v260q1 44 -19 62.5t-69 18.5q-42 0 -83.5 -9t-89.5 -30v-302h-125v690h125v-291q54 24 114.5 37t103.5 13q86 0 127 -40z" />
    <glyph glyph-name="uni04BB" unicode="&#x4bb;" horiz-adv-x="590" 
d="M490 469q35 -35 35 -101v-368h-122v331q0 41 -11 55.5t-41 14.5q-34 0 -69 -13.5t-92 -45.5v-342h-122v700h122l1 -180q0 -53 -8 -98q111 82 207 82q65 0 100 -35z" />
    <glyph glyph-name="uni04BC" unicode="&#x4bc;" horiz-adv-x="734" 
d="M581.5 99.5q28.5 1.5 79.5 8.5l10 -93q-33 -12 -86 -19.5t-112 -7.5q-110 0 -172.5 32t-89.5 99t-31 180h-9q-86 0 -128 35.5t-42 111.5q0 20 3 42h96q-3 -15 -3 -29q0 -66 72 -66h11q4 120 32.5 186.5t87.5 95t162 28.5q122 0 181 -53t59 -168q0 -69 -22 -109t-67.5 -57
t-120.5 -17h-180q3 -90 22 -133t55.5 -55.5t106.5 -12.5q57 0 85.5 1.5zM374.5 578.5q-29.5 -17.5 -44.5 -61.5t-18 -124h152q58 0 84 19.5t26 71.5q0 60 -28.5 86t-91.5 26q-50 0 -79.5 -17.5z" />
    <glyph glyph-name="uni04BD" unicode="&#x4bd;" horiz-adv-x="644" 
d="M578 99l12 -78q-36 -17 -92.5 -25t-110.5 -8q-120 0 -177 48t-66 158q-73 3 -109 35.5t-36 101.5q0 14 4 48l84 -2q-2 -24 -2 -32q0 -34 13 -48.5t45 -16.5q4 84 30 132.5t76 70t130 21.5q117 0 170 -42.5t53 -127.5q0 -140 -131 -140h-200q5 -44 19.5 -67t40.5 -31.5
t71 -8.5q75 0 176 12zM316 397q-24 -11 -35 -38.5t-13 -79.5h169q26 0 35 16t9 41q0 40 -21 56t-76 16q-44 0 -68 -11z" />
    <glyph glyph-name="uni04BE" unicode="&#x4be;" horiz-adv-x="733" 
d="M671 15q-60 -22 -171 -27l-4 -139h-86l-5 143q-83 9 -131 44t-69.5 98.5t-24.5 164.5h-9q-86 0 -128 35.5t-42 111.5q0 20 3 42h96q-3 -15 -3 -29q0 -66 72 -66h11q4 120 32.5 186.5t87.5 95t162 28.5q122 0 181 -53t59 -168q0 -69 -22 -109t-67.5 -57t-120.5 -17h-180
q3 -90 22 -133t55.5 -55.5t106.5 -12.5q57 0 85.5 1.5t79.5 8.5zM374.5 578.5q-29.5 -17.5 -44.5 -61.5t-18 -124h152q58 0 84 19.5t26 71.5q0 60 -28.5 86t-91.5 26q-50 0 -79.5 -17.5z" />
    <glyph glyph-name="uni04BF" unicode="&#x4bf;" horiz-adv-x="644" 
d="M590 21q-55 -26 -160 -32l-8 -153h-81l-9 155q-91 10 -135.5 58t-52.5 145q-73 3 -109 35.5t-36 101.5q0 14 4 48l84 -2q-2 -24 -2 -32q0 -34 13 -48.5t45 -16.5q4 84 30 132.5t76 70t130 21.5q117 0 170 -42.5t53 -127.5q0 -140 -131 -140h-200q5 -44 19.5 -67
t40.5 -31.5t71 -8.5q75 0 176 12zM316 397q-24 -11 -35 -38.5t-13 -79.5h169q26 0 35 16t9 41q0 40 -21 56t-76 16q-44 0 -68 -11z" />
    <glyph glyph-name="uni04C0" unicode="&#x4c0;" horiz-adv-x="283" 
d="M204 0h-125v690h125v-690z" />
    <glyph glyph-name="uni04C1" unicode="&#x4c1;" horiz-adv-x="926" 
d="M761.5 317.5q36.5 -33.5 61 -92.5t66.5 -189l12 -36h-131l-17 51q-38 111 -59.5 160t-49.5 74.5t-72 25.5h-55q7 -40 7 -68v-243h-120v243q0 28 7 68h-58q-44 0 -72 -26t-49.5 -75.5t-60.5 -163.5l-16 -46h-131l12 36q42 130 66.5 189t61 92.5t97.5 40.5v4
q-56 7 -90.5 39t-56.5 84.5t-57 161.5l-14 43h127l9 -26q34 -100 55 -150t49 -78.5t69 -28.5h59q-7 36 -7 80v203h120v-203q0 -44 -7 -80h54q42 0 70.5 28.5t49.5 77.5t55 149q2 6 4.5 12.5t5.5 15.5h127l-13 -39q-36 -111 -58 -164t-56.5 -85.5t-91.5 -39.5v-4
q61 -7 97.5 -40.5zM621 888l1 -14q0 -57 -43 -95t-115 -38q-73 0 -116.5 38t-43.5 95l1 14h86q-2 -84 73 -84q35 0 53.5 21t17.5 63h86z" />
    <glyph glyph-name="uni04C2" unicode="&#x4c2;" horiz-adv-x="807" 
d="M674 225.5q29 -22.5 49.5 -69t57.5 -156.5h-123q-2 6 -4 10.5t-3 8.5q-32 87 -49 123t-36.5 52.5t-52.5 16.5h-60q5 -25 5 -44v-167h-106v167q0 19 5 44h-64q-33 0 -52.5 -18t-36.5 -55.5t-54 -137.5h-123q37 112 57 157.5t49 68t84 29.5v3q-51 6 -78.5 28t-45 61.5
t-52.5 142.5h120q29 -81 46 -118t38.5 -55.5t54.5 -18.5h57q-5 24 -5 57v135h106v-135q0 -33 -5 -57h54q34 0 55 18.5t37.5 55t45.5 118.5h121l-8 -22q-29 -87 -47 -125t-45 -59t-76 -26v-3q55 -7 84 -29.5zM562 708l1 -14q0 -57 -43 -95t-115 -38q-73 0 -116.5 38t-43.5 95
l1 14h86q-2 -84 73 -84q35 0 53.5 21t17.5 63h86z" />
    <glyph glyph-name="uni04C3" unicode="&#x4c3;" horiz-adv-x="610" 
d="M473.5 317.5q47.5 -38.5 70.5 -97.5t23 -120q0 -139 -61 -208t-200 -65v89q61 1 89.5 25.5t34.5 58.5t6 92q0 116 -47 166.5t-135 50.5h-62q2 -10 6 -28t4 -38v-243h-125v690h125v-203q0 -44 -7 -80h58q53 0 85.5 31.5t54 84.5t56.5 167h128q-3 -8 -13 -41
q-36 -110 -59 -162.5t-57.5 -85t-91.5 -39.5v-4q70 -2 117.5 -40.5z" />
    <glyph glyph-name="uni04C4" unicode="&#x4c4;" horiz-adv-x="556" 
d="M468.5 196q53.5 -46 53.5 -149q0 -102 -63.5 -159.5t-186.5 -60.5v84q53 4 80.5 22.5t36.5 47t9 69.5q0 76 -44.5 117.5t-112.5 42.5h-55q5 -25 5 -43v-167h-121v490h121v-134q0 -28 -6 -57h49q42 0 66.5 18t41.5 55.5t43 117.5h123q-35 -103 -53 -143t-45.5 -61.5
t-79.5 -28.5v-3q85 -12 138.5 -58z" />
    <glyph glyph-name="uni04C5" unicode="&#x4c5;" horiz-adv-x="670" 
d="M659 97v-97l-48 -151h-87l38 151h-114v593h-107q-31 0 -47.5 -15.5t-19.5 -47.5q-14 -170 -26 -249.5t-37 -140.5q-29 -72 -75 -107.5t-111 -35.5q-14 0 -21 1l-10 97q38 9 62 26.5t37 51.5q23 58 35 135.5t25 241.5q12 140 153 140h268v-593h85z" />
    <glyph glyph-name="uni04C6" unicode="&#x4c6;" horiz-adv-x="601" 
d="M592 93v-93l-48 -144h-85l37 144h-110v400h-81q-28 0 -39.5 -11.5t-15.5 -43.5q-12 -86 -20.5 -140t-20.5 -94q-31 -117 -158 -117q-15 0 -23 1l-12 91q40 7 57 19t28 40q21 64 36 222q6 62 39 92.5t98 30.5h234v-397h84z" />
    <glyph glyph-name="uni04C7" unicode="&#x4c7;" horiz-adv-x="678" 
d="M600 690v-637q0 -112 -55.5 -172.5t-147.5 -60.5q-23 0 -53 5v89q51 0 79.5 15t39.5 45t11 81v261h-272v-316h-125v690h125v-271h272v271h126z" />
    <glyph glyph-name="uni04C8" unicode="&#x4c8;" horiz-adv-x="593" 
d="M523 490v-453q0 -105 -51.5 -160.5t-137.5 -55.5q-25 0 -46 4v80q67 0 91.5 30t24.5 102v178h-214v-215h-120v490h120v-186h214v186h119z" />
    <glyph glyph-name="uni04C9" unicode="&#x4c9;" horiz-adv-x="696" 
d="M685 97v-97l-48 -151h-87l38 151h-114v316h-272v-316h-125v690h125v-271h272v271h126v-593h85z" />
    <glyph glyph-name="uni04CA" unicode="&#x4ca;" horiz-adv-x="617" 
d="M608 97v-97l-48 -145h-87l37 145h-106v215h-214v-215h-120v490h120v-186h214v186h119v-393h85z" />
    <glyph glyph-name="uni04CB" unicode="&#x4cb;" horiz-adv-x="626" 
d="M547 690v-690h-161l-11 -151h-87v248h133v199q-55 -27 -114.5 -41t-105.5 -14q-84 0 -124.5 40t-40.5 123v286h126v-260q-1 -42 18.5 -60.5t66.5 -18.5q44 0 83.5 8.5t90.5 30.5v300h126z" />
    <glyph glyph-name="uni04CC" unicode="&#x4cc;" horiz-adv-x="550" 
d="M479 490v-490h-103l-10 -143h-80v232h73v102q-43 -14 -91.5 -22t-83.5 -8q-69 0 -102.5 27t-33.5 83v219h120v-179q0 -31 12.5 -43t44.5 -12q66 0 134 26v208h120z" />
    <glyph glyph-name="uni04CD" unicode="&#x4cd;" horiz-adv-x="917" 
d="M920 97v-97l-48 -151h-87l37 151h-114l-23 589h-19l-119 -459q-11 -42 -52 -42h-96q-42 0 -53 42l-121 459h-17l-22 -589h-122l26 641q2 49 49 49h130q41 0 51 -42l98 -374q10 -35 15 -65l6 -29h15q11 58 21 95l98 373q11 42 52 42h129q47 0 49 -49l24 -544h93z" />
    <glyph glyph-name="uni04CE" unicode="&#x4ce;" horiz-adv-x="780" 
d="M785 97v-97l-48 -145h-87l37 145h-92l-16 401h-16l-95 -304q-11 -38 -46 -38h-79q-36 0 -47 38l-95 304h-15l-15 -401h-110l17 447q0 43 44 43h116q36 0 45 -38l76 -244q7 -19 17 -72h13q9 46 16 72l76 244q11 38 47 38h117q43 0 43 -43l14 -350h83z" />
    <glyph glyph-name="uni04CF" unicode="&#x4cf;" horiz-adv-x="266" 
d="M194 0h-122v690h122v-690z" />
    <glyph glyph-name="uni04D0" unicode="&#x4d0;" horiz-adv-x="636" 
d="M446 195h-256l-57 -195h-128l207 657q4 15 16.5 24t28.5 9h122q16 0 28.5 -9t16.5 -24l207 -657h-128zM416 298l-69 238q-2 9 -7.5 27.5t-7.5 31.5h-27l-16 -59l-69 -238h196zM479 888l1 -14q0 -57 -43 -95t-115 -38q-73 0 -116.5 38t-43.5 95l1 14h86q-2 -84 73 -84
q35 0 53.5 21t17.5 63h86z" />
    <glyph glyph-name="uni04D1" unicode="&#x4d1;" horiz-adv-x="562" 
d="M451 466q45 -38 45 -133v-333h-96l-13 75q-33 -36 -80 -61t-107 -25q-69 0 -112 37.5t-43 104.5v50q0 59 38 91t107 32h184v30q-1 29 -8.5 43.5t-26.5 20.5t-55 6q-76 0 -206 -10l-11 86q53 10 124.5 17t119.5 7q95 0 140 -38zM181 101q15 -14 49 -14q31 0 69.5 14.5
t74.5 43.5v76h-156q-29 -1 -40.5 -15t-11.5 -40v-19q0 -32 15 -46zM436 712l1 -14q0 -57 -43 -95t-115 -38q-73 0 -116.5 38t-43.5 95l1 14h86q-2 -84 73 -84q35 0 53.5 21t17.5 63h86z" />
    <glyph glyph-name="uni04D2" unicode="&#x4d2;" horiz-adv-x="636" 
d="M446 195h-256l-57 -195h-128l207 657q4 15 16.5 24t28.5 9h122q16 0 28.5 -9t16.5 -24l207 -657h-128zM416 298l-69 238q-2 9 -7.5 27.5t-7.5 31.5h-27l-16 -59l-69 -238h196zM273.5 870.5q7.5 -8.5 7.5 -22.5v-55q0 -30 -29 -30h-41q-15 0 -22 7t-7 23v55q0 31 29 31h41
q14 0 21.5 -8.5zM452 870.5q8 -8.5 8 -22.5v-55q0 -30 -30 -30h-39q-31 0 -31 30v55q0 31 31 31h39q14 0 22 -8.5z" />
    <glyph glyph-name="uni04D3" unicode="&#x4d3;" horiz-adv-x="562" 
d="M451 466q45 -38 45 -133v-333h-96l-13 75q-33 -36 -80 -61t-107 -25q-69 0 -112 37.5t-43 104.5v50q0 59 38 91t107 32h184v30q-1 29 -8.5 43.5t-26.5 20.5t-55 6q-76 0 -206 -10l-11 86q53 10 124.5 17t119.5 7q95 0 140 -38zM181 101q15 -14 49 -14q31 0 69.5 14.5
t74.5 43.5v76h-156q-29 -1 -40.5 -15t-11.5 -40v-19q0 -32 15 -46zM238 672v-55q0 -16 -7 -23t-22 -7h-41q-15 0 -22 7t-7 23v55q0 31 29 31h41q29 0 29 -31zM409.5 694.5q8.5 -8.5 8.5 -22.5v-55q0 -30 -31 -30h-39q-31 0 -31 30v55q0 31 31 31h39q14 0 22.5 -8.5z" />
    <glyph glyph-name="uni04D4" unicode="&#x4d4;" horiz-adv-x="921" 
d="M870 102l6 -96q-65 -5 -134 -6.5t-173 -1.5q-55 0 -89 36.5t-34 94.5v73h-217l-107 -202h-130l312 568q25 48 56 74.5t79 37.5t127 11q196 0 310 -7l-6 -97h-248q-27 0 -43 -16.5t-16 -44.5v-116h270v-97h-270v-153q0 -32 13.5 -45t45.5 -13h248zM446 301v239
q0 20 7.5 39.5t18.5 29.5h-9q-22 -14 -48 -57l-133 -251h164z" />
    <glyph glyph-name="uni04D5" unicode="&#x4d5;" horiz-adv-x="870" 
d="M805 99l11 -78q-36 -17 -91.5 -25t-110.5 -8q-86 0 -138.5 24t-77.5 76q-31 -39 -82.5 -69t-117.5 -30q-69 0 -112 37.5t-43 104.5v50q0 58 38 90.5t106 32.5h184v30q0 42 -18.5 56t-71.5 14q-77 0 -205 -10l-11 86q53 10 124.5 17t119.5 7q97 0 139 -38q53 38 159 38
q116 0 168.5 -42t53.5 -128q0 -140 -131 -140h-200q5 -44 19.5 -67t41 -31.5t71.5 -8.5q74 0 175 12zM544 397q-24 -11 -35.5 -38.5t-13.5 -79.5h169q26 0 35 16t9 41q0 40 -20.5 56t-75.5 16q-44 0 -68 -11zM301.5 103q40.5 16 76.5 48q-7 35 -8 69l-154 1
q-29 -1 -40.5 -15t-11.5 -40v-19q0 -32 15 -46t49 -14q33 0 73.5 16z" />
    <glyph glyph-name="uni04D6" unicode="&#x4d6;" 
d="M517 101l5 -95q-60 -5 -130 -6.5t-174 -1.5q-68 0 -107 35t-39 96v432q0 61 39 96t107 35q104 0 174 -1.5t130 -6.5l-5 -96h-271q-27 0 -38 -13t-11 -45v-121h282v-96h-282v-154q0 -32 11 -45t38 -13h271zM464 888l1 -14q0 -57 -43 -95t-115 -38q-73 0 -116.5 38
t-43.5 95l1 14h86q-2 -84 73 -84q35 0 53.5 21t17.5 63h86z" />
    <glyph glyph-name="uni04D7" unicode="&#x4d7;" horiz-adv-x="551" 
d="M484 99l11 -78q-36 -17 -92 -25t-110 -8q-90 0 -143 26t-77.5 82t-24.5 150q0 97 24.5 153t75.5 80.5t137 24.5q117 0 169.5 -42.5t52.5 -127.5q1 -67 -31.5 -103.5t-98.5 -36.5h-200q5 -44 19.5 -67t40.5 -31.5t71 -8.5q75 0 176 12zM222 397q-24 -11 -35 -38.5
t-13 -79.5h169q26 0 35 16t9 41q0 40 -21 56t-76 16q-44 0 -68 -11zM443 708l1 -14q0 -57 -43 -95t-115 -38q-73 0 -116.5 38t-43.5 95l1 14h86q-2 -84 73 -84q35 0 53.5 21t17.5 63h86z" />
    <glyph glyph-name="uni04D8" unicode="&#x4d8;" horiz-adv-x="606" 
d="M443.5 666.5q63.5 -36.5 88.5 -113t25 -208.5q0 -139 -26.5 -215.5t-87 -109t-169.5 -32.5q-123 0 -182 53t-59 168q0 76 22 119.5t67.5 61.5t121.5 18h179q-4 83 -24 122t-56 51t-104 12q-56 0 -85 -1.5t-80 -8.5l-9 93q33 12 86 19.5t112 7.5q117 0 180.5 -36.5z
M364 114q30 19 44.5 65.5t16.5 133.5h-153q-60 0 -85.5 -22t-25.5 -84q0 -60 28.5 -86t92.5 -26q52 0 82 19z" />
    <glyph glyph-name="uni04D9" unicode="&#x4d9;" horiz-adv-x="549" 
d="M400.5 478q53.5 -26 78 -82t24.5 -150q0 -97 -24.5 -153.5t-76 -80.5t-137.5 -24q-117 0 -169.5 42t-52.5 127q0 149 139 149h190q-5 40 -20 61.5t-41 29t-69 7.5q-88 0 -176 -12l-11 79q37 17 93 25t109 8q90 0 143.5 -26zM329 95.5q24 11.5 35 41t12 85.5h-160
q-31 0 -42 -19t-11 -47q0 -40 21 -56t76 -16q45 0 69 11.5z" />
    <glyph glyph-name="uni04DA" unicode="&#x4da;" horiz-adv-x="606" 
d="M443.5 666.5q63.5 -36.5 88.5 -113t25 -208.5q0 -139 -26.5 -215.5t-87 -109t-169.5 -32.5q-123 0 -182 53t-59 168q0 76 22 119.5t67.5 61.5t121.5 18h179q-4 83 -24 122t-56 51t-104 12q-56 0 -85 -1.5t-80 -8.5l-9 93q33 12 86 19.5t112 7.5q117 0 180.5 -36.5z
M364 114q30 19 44.5 65.5t16.5 133.5h-153q-60 0 -85.5 -22t-25.5 -84q0 -60 28.5 -86t92.5 -26q52 0 82 19zM243.5 873.5q7.5 -8.5 7.5 -22.5v-55q0 -30 -29 -30h-41q-15 0 -22 7t-7 23v55q0 31 29 31h41q14 0 21.5 -8.5zM422 873.5q8 -8.5 8 -22.5v-55q0 -30 -30 -30h-39
q-31 0 -31 30v55q0 31 31 31h39q14 0 22 -8.5z" />
    <glyph glyph-name="uni04DB" unicode="&#x4db;" horiz-adv-x="549" 
d="M400.5 478q53.5 -26 78 -82t24.5 -150q0 -97 -24.5 -153.5t-76 -80.5t-137.5 -24q-117 0 -169.5 42t-52.5 127q0 149 139 149h190q-5 40 -20 61.5t-41 29t-69 7.5q-88 0 -176 -12l-11 79q37 17 93 25t109 8q90 0 143.5 -26zM329 95.5q24 11.5 35 41t12 85.5h-160
q-31 0 -42 -19t-11 -47q0 -40 21 -56t76 -16q45 0 69 11.5zM225.5 690.5q7.5 -8.5 7.5 -22.5v-55q0 -30 -29 -30h-41q-15 0 -22 7t-7 23v55q0 31 29 31h41q14 0 21.5 -8.5zM404 690.5q8 -8.5 8 -22.5v-55q0 -30 -30 -30h-39q-31 0 -31 30v55q0 31 31 31h39q14 0 22 -8.5z
" />
    <glyph glyph-name="uni04DC" unicode="&#x4dc;" horiz-adv-x="926" 
d="M761.5 317.5q36.5 -33.5 61 -92.5t66.5 -189l12 -36h-131l-17 51q-38 111 -59.5 160t-49.5 74.5t-72 25.5h-55q7 -40 7 -68v-243h-120v243q0 28 7 68h-58q-44 0 -72 -26t-49.5 -75.5t-60.5 -163.5l-16 -46h-131l12 36q42 130 66.5 189t61 92.5t97.5 40.5v4
q-56 7 -90.5 39t-56.5 84.5t-57 161.5l-14 43h127l9 -26q34 -100 55 -150t49 -78.5t69 -28.5h59q-7 36 -7 80v203h120v-203q0 -44 -7 -80h54q42 0 70.5 28.5t49.5 77.5t55 149q2 6 4.5 12.5t5.5 15.5h127l-13 -39q-36 -111 -58 -164t-56.5 -85.5t-91.5 -39.5v-4
q61 -7 97.5 -40.5zM423 848v-55q0 -16 -7 -23t-22 -7h-41q-15 0 -22 7t-7 23v55q0 31 29 31h41q29 0 29 -31zM594.5 870.5q8.5 -8.5 8.5 -22.5v-55q0 -30 -31 -30h-39q-31 0 -31 30v55q0 31 31 31h39q14 0 22.5 -8.5z" />
    <glyph glyph-name="uni04DD" unicode="&#x4dd;" horiz-adv-x="807" 
d="M674 225.5q29 -22.5 49.5 -69t57.5 -156.5h-123q-2 6 -4 10.5t-3 8.5q-32 87 -49 123t-36.5 52.5t-52.5 16.5h-60q5 -25 5 -44v-167h-106v167q0 19 5 44h-64q-33 0 -52.5 -18t-36.5 -55.5t-54 -137.5h-123q37 112 57 157.5t49 68t84 29.5v3q-51 6 -78.5 28t-45 61.5
t-52.5 142.5h120q29 -81 46 -118t38.5 -55.5t54.5 -18.5h57q-5 24 -5 57v135h106v-135q0 -33 -5 -57h54q34 0 55 18.5t37.5 55t45.5 118.5h121l-8 -22q-29 -87 -47 -125t-45 -59t-76 -26v-3q55 -7 84 -29.5zM364 668v-55q0 -16 -7 -23t-22 -7h-41q-15 0 -22 7t-7 23v55
q0 31 29 31h41q29 0 29 -31zM535.5 690.5q8.5 -8.5 8.5 -22.5v-55q0 -30 -31 -30h-39q-31 0 -31 30v55q0 31 31 31h39q14 0 22.5 -8.5z" />
    <glyph glyph-name="uni04DE" unicode="&#x4de;" horiz-adv-x="557" 
d="M391.5 682.5q49.5 -15.5 71.5 -54.5t22 -110q0 -75 -27.5 -113.5t-88.5 -44.5v-4q74 -7 105.5 -52.5t31.5 -131.5q0 -71 -22.5 -109.5t-70 -54.5t-129.5 -16q-80 0 -139 6t-113 21l10 89q116 -16 219 -16q46 0 70.5 8.5t35 30.5t10.5 64q0 46 -11.5 70.5t-37.5 34.5
t-73 10l-125 1v93l125 1q60 0 83 20t23 77q0 39 -11 60t-35.5 29t-69.5 8q-55 0 -103 -4t-56 -5l-28 -3l-10 93q48 10 95.5 14t110.5 4q88 0 137.5 -15.5zM222 848v-55q0 -16 -7 -23t-22 -7h-41q-15 0 -22 7t-7 23v55q0 31 29 31h41q29 0 29 -31zM393.5 870.5
q8.5 -8.5 8.5 -22.5v-55q0 -30 -31 -30h-39q-31 0 -31 30v55q0 31 31 31h39q14 0 22.5 -8.5z" />
    <glyph glyph-name="uni04DF" unicode="&#x4df;" horiz-adv-x="509" 
d="M349.5 490.5q48.5 -10.5 71.5 -39t23 -83.5t-23.5 -82t-79.5 -32v-3q64 -5 93 -36.5t29 -92.5q0 -55 -23 -83.5t-69 -39t-128 -10.5q-121 0 -210 18l9 89q101 -9 193 -9q42 0 63.5 4.5t30.5 17t9 38.5q0 35 -21.5 47.5t-81.5 12.5l-130 1v83l129 1q53 0 71.5 12t18.5 47
q0 21 -9.5 32t-32 15t-65.5 4q-82 0 -159 -9l-8 89q66 19 162 19q89 0 137.5 -10.5zM207 668v-55q0 -16 -7 -23t-22 -7h-41q-15 0 -22 7t-7 23v55q0 31 29 31h41q29 0 29 -31zM378.5 690.5q8.5 -8.5 8.5 -22.5v-55q0 -30 -31 -30h-39q-31 0 -31 30v55q0 31 31 31h39
q14 0 22.5 -8.5z" />
    <glyph glyph-name="uni04E0" unicode="&#x4e0;" horiz-adv-x="520" 
d="M385 379q51 -17 77.5 -60t26.5 -119q0 -75 -23 -120t-77.5 -67t-150.5 -22q-124 0 -220 24l9 91q109 -14 203 -14q72 0 102 26.5t30 82.5q0 45 -10.5 70t-36 35.5t-73.5 10.5h-145v73l222 204h-288v96h418q5 0 8 -3t3 -8v-70l-232 -213h25q81 0 132 -17z" />
    </font>
</defs>
</svg>
