<svg width="80" height="80" viewBox="0 0 80 80" fill="none" xmlns="http://www.w3.org/2000/svg">
<g clip-path="url(#clip0)">
<path d="M78.8608 54.8304C78.8604 54.8304 78.8599 54.8302 78.8594 54.8302V54.8262L73.6968 54.0895C72.9708 53.9869 72.4655 53.3152 72.5681 52.5894C72.6175 52.2394 72.8045 51.9237 73.0874 51.7119L74.78 50.4455H78.3217C79.0548 50.4455 79.6492 49.8511 79.6492 49.118V1.32849C79.6492 0.595389 79.0548 0.00100708 78.3217 0.00100708H1.32749C0.594383 0.00100708 1.17919e-06 0.595389 1.17919e-06 1.32849V49.118C1.17919e-06 49.8511 0.594383 50.4455 1.32749 50.4455H4.76037L3.04393 52.1619C2.59159 52.6148 2.52687 53.326 2.88994 53.8532L5.41217 57.5223L1.04872 58.4383C0.436247 58.5699 -0.0008285 59.1115 1.17919e-06 59.7379V65.0479C-0.000330693 65.6758 0.439565 66.218 1.05403 66.3475L5.41748 67.2648L2.89525 70.9326C2.53218 71.4598 2.5969 72.171 3.04924 72.6238L7.0317 76.6063C7.48454 77.0586 8.19574 77.1233 8.72292 76.7603L12.3908 74.2381L13.3081 78.6015C13.4391 79.212 13.9779 79.6486 14.6024 79.6502H19.9123C20.5402 79.6505 21.0825 79.2106 21.2119 78.5962L22.1292 74.2314L25.7971 76.7603C26.3242 77.1233 27.0354 77.0586 27.4883 76.6063L31.4707 72.6238C31.9231 72.171 31.9878 71.4598 31.6247 70.9326L29.1025 67.2634L33.4659 66.3475C34.0784 66.2159 34.5155 65.6743 34.5147 65.0479V59.7379C34.515 59.11 34.0751 58.5677 33.4606 58.4383L29.0972 57.521L31.6194 53.8532C31.9825 53.326 31.9178 52.6148 31.4654 52.1619L29.7543 50.4455H35.2328L34.1708 57.833C34.0656 58.5584 34.5684 59.232 35.2939 59.3373C35.2995 59.3382 35.3053 59.339 35.311 59.3397L40.4736 60.0764C41.1996 60.179 41.7048 60.8507 41.6023 61.5765C41.5528 61.9264 41.3658 62.2422 41.0829 62.4539L36.9041 65.5788C36.3176 66.0187 36.1987 66.8507 36.6386 67.4373L41.4176 73.8093C41.8575 74.3959 42.6895 74.5147 43.2761 74.0748L47.4484 70.9445C48.0348 70.5045 48.867 70.6233 49.3068 71.2097C49.5184 71.4916 49.6092 71.8461 49.5591 72.195L48.821 77.3576C48.7169 78.0834 49.2209 78.756 49.9465 78.8602C49.947 78.8602 49.9475 78.8604 49.948 78.8604L57.832 79.9861C57.8944 79.9955 57.9574 80.0005 58.0205 80.0007C58.6812 80.0007 59.2414 79.5146 59.3347 78.8604L60.0728 73.6978C60.1761 72.972 60.8483 72.4673 61.5742 72.5707C61.9229 72.6203 62.2376 72.8067 62.449 73.0884L65.5779 77.2607C66.0177 77.8473 66.8497 77.9661 67.4363 77.5262L73.8083 72.7473C74.3949 72.3074 74.5137 71.4754 74.0738 70.8888L70.9436 66.7165C70.5035 66.1301 70.6223 65.2979 71.2087 64.858C71.4906 64.6465 71.8452 64.5557 72.194 64.6058L77.3566 65.3426C78.0823 65.4468 78.7551 64.9428 78.8594 64.2172C78.8594 64.217 78.8594 64.217 78.8594 64.2169L79.9864 56.3329C80.0904 55.6073 79.5865 54.9346 78.8608 54.8304ZM31.8597 60.8158V63.9699L28.5503 64.6655C27.1152 64.967 26.1965 66.3747 26.498 67.8097C26.5705 68.1545 26.7107 68.4814 26.9108 68.7715L28.8065 71.5286L26.3931 73.942L23.6359 72.0411C22.4286 71.2091 20.7753 71.5134 19.9432 72.7207C19.7437 73.0103 19.6037 73.3365 19.5313 73.6805L18.8344 76.9952H15.6803L14.9833 73.6871C14.6798 72.2526 13.2709 71.3357 11.8364 71.6392C11.4957 71.7112 11.1726 71.8496 10.8854 72.0464L8.12157 73.942L5.7082 71.5286L7.60916 68.7715C8.44182 67.5644 8.13849 65.9111 6.93147 65.0784C6.64142 64.8783 6.31452 64.7379 5.96971 64.6655L2.65497 63.9699V60.8158L5.9644 60.1202C7.39892 59.8166 8.31555 58.4074 8.01188 56.9729C7.9397 56.6319 7.80098 56.3083 7.60385 56.021L5.7082 53.2571L8.12157 50.8438L10.8854 52.7394C12.0927 53.5714 13.7461 53.2671 14.5781 52.0597C14.7776 51.7702 14.9176 51.4439 14.99 51.1L15.6803 47.7905H18.8344L19.5313 51.0986C19.8327 52.5336 21.2401 53.4528 22.6751 53.1514C23.0195 53.0791 23.346 52.939 23.6359 52.7394L26.3931 50.8438L28.8065 53.2571L26.9108 56.021C26.0781 57.228 26.3815 58.8813 27.5885 59.714C27.8786 59.9141 28.2054 60.0545 28.5503 60.1269L31.8597 60.8158ZM22.9217 50.0061L22.1252 50.553L21.2079 46.1896C21.0788 45.5764 20.5387 45.1372 19.9123 45.1356H17.2573V35.8432H22.5673V49.118C22.5694 49.4481 22.696 49.7652 22.9217 50.0061ZM29.2047 27.8782C28.4716 27.8782 27.8772 28.4726 27.8772 29.2057V47.7905H25.2222V34.5157C25.2222 33.7826 24.6279 33.1882 23.8948 33.1882H15.9298C15.1967 33.1882 14.6024 33.7826 14.6024 34.5157V45.1356C13.9745 45.1352 13.4322 45.5751 13.3027 46.1896L12.3855 50.5544L8.71761 48.0255C8.49542 47.8763 8.23258 47.7995 7.96492 47.8051V47.7905H2.65497V2.65598H76.9942V46.021L72.7463 40.3566C72.3064 39.77 71.4744 39.6512 70.8878 40.0911L66.7155 43.2213C66.1291 43.6614 65.2969 43.5426 64.857 42.9562C64.6455 42.6742 64.5547 42.3198 64.6048 41.9708L65.3429 36.8082C65.3935 36.4405 65.286 36.0687 65.0469 35.7847V11.9484C65.0469 11.2153 64.4525 10.6209 63.7194 10.6209H55.7544C55.0213 10.6209 54.427 11.2153 54.427 11.9484V38.1185L54.0911 40.4681C53.9937 41.1888 53.3305 41.6942 52.6098 41.5968C52.2821 41.5525 51.9831 41.3866 51.772 41.1319V18.5858C51.772 17.8527 51.1776 17.2583 50.4445 17.2583H42.4796C41.7465 17.2583 41.1521 17.8527 41.1521 18.5858V40.8212L40.3556 41.4186C39.769 41.8585 39.6502 42.6905 40.0901 43.2771L43.2203 47.4494C43.6604 48.0358 43.5416 48.868 42.9552 49.3078C42.6732 49.5194 42.3186 49.6102 41.9698 49.5601L38.4971 49.0649V29.2057C38.4971 28.4726 37.9027 27.8782 37.1696 27.8782H29.2047ZM62.3919 13.2759V35.0467L57.0819 34.2873V13.2759H62.3919ZM49.117 19.9133V37.614L48.586 36.9051C48.1461 36.3186 47.3141 36.1997 46.7275 36.6396L43.8071 38.83V19.9133H49.117ZM35.8421 47.7905H30.5322V30.5332H35.8421V47.7905ZM76.4181 62.5256L72.5684 61.9761C70.391 61.6651 68.3739 63.1781 68.0629 65.3555C67.9136 66.4011 68.1857 67.4632 68.8196 68.3082L71.1533 71.4198L66.9053 74.6058L64.5729 71.4955C63.2543 69.735 60.7582 69.3771 58.998 70.6956C58.1517 71.3295 57.5924 72.274 57.443 73.3208L56.8934 77.1705L51.6392 76.4191L52.1888 72.5694C52.4991 70.392 50.9855 68.3752 48.808 68.0649C47.7635 67.9161 46.7025 68.1879 45.858 68.8206L42.7451 71.1543L39.5591 66.9063L42.6681 64.5739C44.4278 63.2544 44.7848 60.7582 43.4652 58.9987C42.8317 58.1537 41.8884 57.595 40.8428 57.4453L36.9931 56.8944L37.7444 51.6389L41.5941 52.1885C43.7716 52.4995 45.7887 50.9865 46.0996 48.809C46.249 47.7635 45.9768 46.7013 45.343 45.8564L43.0106 42.7461L47.2585 39.5601L49.5909 42.6704C50.9096 44.4308 53.4056 44.7887 55.1659 43.4702C56.0121 42.8363 56.5715 41.8918 56.7209 40.8451L57.2704 36.9954L62.526 37.7468L61.9764 41.5965C61.6661 43.7739 63.1797 45.7907 65.3572 46.101C66.4017 46.2498 67.4627 45.978 68.3072 45.3453L71.4188 43.0116L74.6048 47.2595L71.4958 49.5919C69.736 50.9114 69.3791 53.4076 70.6986 55.1672C71.3322 56.0121 72.2755 56.5709 73.3211 56.7205L77.1708 57.2714L76.4181 62.5256Z" fill="#00509E"/>
<path d="M17.2573 54.4271C12.8584 54.4271 9.29242 57.9931 9.29242 62.392C9.29242 66.791 12.8584 70.357 17.2573 70.357C21.6563 70.357 25.2223 66.791 25.2223 62.392C25.2179 57.9949 21.6545 54.4314 17.2573 54.4271ZM17.2573 67.702C14.3248 67.702 11.9474 65.3246 11.9474 62.392C11.9474 59.4595 14.3248 57.0821 17.2573 57.0821C20.1899 57.0821 22.5673 59.4595 22.5673 62.392C22.5673 65.3246 20.1899 67.702 17.2573 67.702Z" fill="#00509E"/>
<path d="M57.082 46.4622C51.2168 46.4622 46.4621 51.2169 46.4621 57.0821C46.4621 62.9473 51.2168 67.702 57.082 67.702C62.9472 67.702 67.7019 62.9473 67.7019 57.0821C67.6952 51.2196 62.9445 46.4689 57.082 46.4622ZM57.082 65.047C52.683 65.047 49.1171 61.4811 49.1171 57.0821C49.1171 52.6832 52.683 49.1172 57.082 49.1172C61.4809 49.1172 65.0469 52.6832 65.0469 57.0821C65.0426 61.4792 61.4791 65.0427 57.082 65.047Z" fill="#00509E"/>
<path d="M53.3649 5.33667L46.7275 4.00919L46.1965 6.61106L49.4143 7.25622L13.9306 28.0593L15.274 30.3505L51.2171 9.28064L50.471 13.0095L53.0729 13.5299L54.4004 6.89249C54.5406 6.17764 54.0785 5.48336 53.3649 5.33667Z" fill="#FFCB00"/>
<path d="M7.96497 35.8423H5.31V45.1347H7.96497V35.8423Z" fill="#FFCB00"/>
<path d="M7.96497 30.5323H5.31V33.1873H7.96497V30.5323Z" fill="#FFCB00"/>
<path d="M74.3392 17.2575H71.6843V37.1698H74.3392V17.2575Z" fill="#FFCB00"/>
<path d="M74.3392 11.9475H71.6843V14.6025H74.3392V11.9475Z" fill="#FFCB00"/>
<path d="M33.1872 75.6669H30.5322V78.3219H33.1872V75.6669Z" fill="#00509E"/>
<path d="M38.4971 75.6669H35.8421V78.3219H38.4971V75.6669Z" fill="#00509E"/>
<path d="M43.8071 75.6669H41.1521V78.3219H43.8071V75.6669Z" fill="#00509E"/>
</g>
<defs>
<clipPath id="clip0">
<rect width="80" height="80" fill="white"/>
</clipPath>
</defs>
</svg>
