<svg width="80" height="80" viewBox="0 0 80 80" fill="none" xmlns="http://www.w3.org/2000/svg">
<path d="M78.638 0H1.36201C0.626221 0 0.0296631 0.596558 0.0296631 1.33235V59.9555C0.0296631 60.6913 0.626221 61.2879 1.36201 61.2879H6.69139V58.6232H2.69435V23.9822H42.6647C43.4005 23.9822 43.9971 23.3857 43.9971 22.6499V2.66469H47.9941V25.3146C47.9939 25.856 48.3215 26.3436 48.8228 26.5483L77.3057 38.201V45.9752L56.4958 37.4056C56.3347 37.3395 56.1622 37.3055 55.9882 37.3057H49.3264C48.5906 37.3057 47.9941 37.9022 47.9941 38.638V49.2968H50.6588V39.9704H55.7217L77.3057 48.8571V58.6232H54.6558V61.2879H78.638C79.3738 61.2879 79.9704 60.6913 79.9704 59.9555V1.33235C79.9704 0.596558 79.3738 0 78.638 0ZM18.6825 21.3175H2.69435V2.66469H18.6825V21.3175ZM41.3324 21.3175H21.3472V2.66469H41.3324V21.3175ZM77.3057 35.3205L50.6588 24.4206V2.66469H77.3057V35.3205Z" fill="#00509E"/>
<path d="M56.1733 64.9185C56.1341 64.8787 56.0947 64.8391 56.0547 64.7999L49.2118 57.957L50.2683 56.9005L48.3844 55.0165L43.997 59.4039L42.0931 57.5C48.1231 48.2219 45.4902 35.8123 36.2121 29.7821C26.934 23.7519 14.5243 26.3851 8.49414 35.663C2.46411 44.9412 5.09699 57.3508 14.3751 63.381C21.0145 67.6961 29.5727 67.6961 36.2121 63.381L38.116 65.2849L33.7286 69.6723L35.6125 71.5563L36.6691 70.4997L43.512 77.3426C46.9428 80.8389 52.5585 80.892 56.0547 77.4612C59.5509 74.0303 59.6041 68.4148 56.1733 64.9185ZM25.3441 63.9526C15.7829 63.9416 8.03465 56.1933 8.02365 46.6321C8.02365 37.0662 15.7782 29.3116 25.3441 29.3116C34.91 29.3116 42.6646 37.0662 42.6646 46.6321C42.6646 56.198 34.91 63.9526 25.3441 63.9526ZM40.4756 59.6504L42.113 61.2879L39.9999 63.401L38.3625 61.7635C39.1178 61.112 39.8241 60.4059 40.4756 59.6504ZM54.1708 75.4587C51.7477 77.8817 47.819 77.8817 45.3959 75.4587L38.553 68.6158L47.3278 59.841L54.1708 66.6839C56.5938 69.1069 56.5938 73.0357 54.1708 75.4587Z" fill="#00509E"/>
<path d="M25.3442 31.9763C17.25 31.9763 10.6884 38.538 10.6884 46.6321C10.6884 54.7263 17.25 61.2879 25.3442 61.2879C33.4384 61.2879 40 54.7263 40 46.6321C39.9905 38.5419 33.4344 31.9858 25.3442 31.9763ZM25.3442 58.6232C18.7218 58.6232 13.3531 53.2545 13.3531 46.6321C13.3531 40.0095 18.7218 34.641 25.3442 34.641C31.9668 34.641 37.3353 40.0095 37.3353 46.6321C37.3272 53.2512 31.9633 58.6151 25.3442 58.6232Z" fill="#FFCB00"/>
<path d="M29.5278 38.7007C26.448 36.3904 22.0788 37.0141 19.7685 40.0938C18.0834 42.3399 17.9107 45.3779 19.33 47.8007L24.2264 55.3511C24.6267 55.9685 25.4518 56.1444 26.0692 55.744C26.2262 55.6421 26.3601 55.5082 26.462 55.3511L31.3917 47.7381C33.1341 44.6859 32.3355 40.8142 29.5278 38.7007ZM29.1281 46.3523L25.3442 52.1786L21.6043 46.4149C20.4257 44.3485 21.1455 41.7177 23.2119 40.5393C25.2784 39.3607 27.9091 40.0805 29.0876 42.1469C29.8292 43.4475 29.8425 45.0396 29.1226 46.3523H29.1281Z" fill="#FFCB00"/>
<path d="M26.6765 42.635H24.0118V45.2997H26.6765V42.635Z" fill="#FFCB00"/>
</svg>
