<svg width="80" height="80" viewBox="0 0 80 80" fill="none" xmlns="http://www.w3.org/2000/svg">
<g clip-path="url(#clip0)">
<path d="M25.3431 45.3563C23.2111 45.3563 21.4789 43.7573 21.3457 41.6254C26.409 39.4935 29.4736 34.4302 29.3404 28.9671C29.3404 28.7006 29.3404 28.1677 29.3404 28.0344C29.3404 21.3722 24.0106 16.0424 17.3483 16.0424H1.35894C0.559469 16.0424 0.0264893 16.5753 0.0264893 17.3748C0.0264893 20.4394 1.22569 23.3708 3.22437 25.5028C2.95788 26.8352 2.69139 28.0344 2.69139 29.3669C2.69139 34.6967 5.88927 39.4935 10.6861 41.6254C10.5528 43.7573 8.82066 45.3563 6.68874 45.3563C2.95788 45.3563 0.0264893 48.2877 0.0264893 52.0185V78.6675C0.0264893 79.467 0.559469 80 1.35894 80H30.6729C31.4723 80 32.0053 79.467 32.0053 78.6675V52.0185C32.0053 48.2877 29.0739 45.3563 25.3431 45.3563ZM2.82464 18.7073H17.3483C22.0119 18.7073 25.876 22.1716 26.5423 26.702H12.0185C7.35497 26.702 3.49086 23.2376 2.82464 18.7073ZM5.35629 29.3669C5.35629 28.7006 5.35629 28.0344 5.48954 27.5014C7.48821 28.7006 9.75338 29.3669 12.0185 29.3669H26.6755C26.6755 33.8972 23.8774 37.8946 19.6135 39.3602C19.0805 39.4935 18.6808 40.0265 18.6808 40.5595V41.3589C18.6808 43.0911 19.347 44.8233 20.6795 46.1557L17.2151 46.6887H14.8167L11.3523 46.1557C12.6848 44.9565 13.351 43.2244 13.351 41.3589V40.6927C13.351 40.1597 12.9513 39.6267 12.4183 39.4935C8.15444 37.8945 5.35629 33.8972 5.35629 29.3669ZM18.6808 64.9433L16.0159 67.475L13.4842 64.9433L15.8827 49.3536H16.2824L18.6808 64.9433ZM2.69139 52.0185C2.69139 49.8866 4.42358 48.0212 6.5555 48.0212L13.0845 49.0871L10.5528 65.0765C10.5528 65.4763 10.6861 65.876 10.9526 66.2758L14.9499 70.2731C15.4829 70.8061 16.2824 70.8061 16.8154 70.2731L20.8127 66.2758C21.0792 66.0093 21.2125 65.6095 21.2125 65.0765L18.6808 49.0871L25.2098 48.0212C27.3417 48.0212 29.0739 49.8866 29.0739 52.0185V72.0053H2.69139V52.0185ZM29.3404 77.3351H2.69139V74.6702H29.3404V77.3351Z" fill="#00509E"/>
<path d="M74.6437 10.7126H68.6477L67.182 8.44739C66.5158 7.38143 65.1833 6.71521 63.8509 6.71521H60.9195C60.2533 6.71521 59.7203 6.31547 59.5871 5.64925C58.2546 1.3854 53.8575 -0.879763 49.5937 0.319443C47.062 1.11891 45.0633 3.11759 44.2639 5.64925C44.1306 6.18223 43.5976 6.71521 42.9314 6.71521H40C38.6676 6.71521 37.4684 7.38143 36.6689 8.44739L35.3365 10.7126H29.3404C26.409 10.7126 24.0106 13.111 24.0106 16.0424H26.6755C26.6755 14.5767 27.8747 13.3775 29.3404 13.3775H33.6043C32.8048 14.5767 33.3378 16.3089 34.537 16.9751C34.9367 17.2416 35.4697 17.3748 35.8694 17.3748H68.248C69.7137 17.3748 70.9129 16.1756 70.9129 14.7099C70.9129 14.1769 70.7796 13.7772 70.5131 13.3775H74.6437C76.1094 13.3775 77.3086 14.5767 77.3086 16.0424V74.6702C77.3086 76.1359 76.1094 77.3351 74.6437 77.3351H34.6702V80H74.6437C77.5751 80 79.9735 77.6016 79.9735 74.6702V16.0424C79.9735 13.111 77.5751 10.7126 74.6437 10.7126ZM35.8694 14.7099L38.9341 9.91309C39.2006 9.6466 39.6003 9.38011 40.1333 9.38011H43.0647C44.7968 9.38011 46.3958 8.1809 46.9288 6.44872C47.8615 3.65057 50.7929 2.05163 53.591 2.98434C55.3232 3.51733 56.5224 4.84978 57.0554 6.44872C57.5884 8.1809 59.1873 9.38011 60.9195 9.38011H63.8509C64.2506 9.38011 64.6504 9.6466 64.9169 9.91309L68.1147 14.7099H35.8694Z" fill="#00509E"/>
<path d="M53.3245 5.38275H50.6596V8.04765H53.3245V5.38275Z" fill="#00509E"/>
<path d="M46.2625 32.9645L44.3971 31.0991L41.3325 34.1637L38.2678 31.0991L36.4024 32.9645L39.467 36.0291L36.4024 39.0938L38.2678 40.9592L41.3325 37.8946L44.3971 40.9592L46.2625 39.0938L43.1979 36.0291L46.2625 32.9645Z" fill="#00509E"/>
<path d="M60.9195 59.6135L59.0541 57.7481L55.9895 60.8127L52.9248 57.7481L51.0594 59.6135L54.124 62.6781L51.0594 65.7428L52.9248 67.6082L55.9895 64.5436L59.0541 67.6082L60.9195 65.7428L57.8549 62.6781L60.9195 59.6135Z" fill="#00509E"/>
<path d="M62.2519 37.7613C61.7189 37.2283 60.9194 37.2283 60.3865 37.7613L55.0567 43.0911L56.9221 44.9566L59.9867 41.8919V44.6901C59.9867 48.0212 57.3218 50.6861 53.9907 50.6861C49.1939 50.6861 45.3298 54.5502 45.3298 59.347V60.6795C45.3298 64.0106 42.6649 66.6755 39.3338 66.6755H36.0026V69.3404H39.3338C44.1306 69.3404 47.9947 65.4763 47.9947 60.6795V59.347C47.9947 56.0159 50.6596 53.351 53.9907 53.351C58.7875 53.351 62.6516 49.4869 62.6516 44.6901V41.8919L65.7163 44.9566L67.5817 43.0911L62.2519 37.7613Z" fill="#FFCB00"/>
<path d="M70.2466 22.4381L68.3812 20.4395L66.649 22.1716C63.4511 19.2403 58.3878 19.5067 55.4564 22.8379C52.5251 26.169 52.7915 31.0991 56.1227 34.0305C59.4538 36.9618 64.3839 36.6954 67.3153 33.3642C69.5804 30.8326 69.9802 27.235 68.3812 24.3036L70.2466 22.4381ZM61.3192 33.3642C58.3878 33.3642 55.9894 30.9658 55.9894 28.0344C55.9894 25.103 58.3878 22.7046 61.3192 22.7046C62.6517 22.7046 63.8509 23.2376 64.7836 24.0371L61.3192 27.5014L59.587 25.7693L57.7216 27.6347L60.3865 30.2996C60.9195 30.8326 61.719 30.8326 62.2519 30.2996L66.2493 26.3022C66.5158 26.8352 66.649 27.3682 66.649 28.0344C66.649 30.9658 64.2506 33.3642 61.3192 33.3642Z" fill="#FFCB00"/>
<path d="M25.343 54.6834H21.3457V57.3483H25.343V54.6834Z" fill="#00509E"/>
<path d="M71.9789 17.3748V72.0053H34.6702V74.6702H73.3113C74.1108 74.6702 74.6438 74.1372 74.6438 73.3377V17.3748H71.9789Z" fill="#00509E"/>
</g>
<defs>
<clipPath id="clip0">
<rect width="80" height="80" fill="white"/>
</clipPath>
</defs>
</svg>
