<svg width="80" height="80" viewBox="0 0 80 80" fill="none" xmlns="http://www.w3.org/2000/svg">
<g clip-path="url(#clip0)">
<path d="M45.2196 74.4918L42.5967 61.3771C42.4721 60.7665 41.9347 60.3278 41.3114 60.3279H38.6885C38.0652 60.3278 37.5278 60.7665 37.4032 61.3771L34.7803 74.4918C34.6957 74.9203 34.8298 75.3628 35.1383 75.6721L39.0727 79.6065C39.5849 80.1185 40.415 80.1185 40.9272 79.6065L44.8616 75.6721C45.1701 75.363 45.3044 74.9203 45.2196 74.4918ZM40 76.8341L37.4885 74.3226L39.7639 62.9509H40.236L42.5114 74.3226L40 76.8341Z" fill="#00509E"/>
<path d="M72.7867 59.0165C70.6969 59.0088 68.9779 57.3685 68.872 55.2814C75.5052 52.3816 78.5318 44.6534 75.6318 38.0202C72.7318 31.3869 65.0038 28.3605 58.3706 31.2604C55.4925 32.5186 53.1621 34.7684 51.8032 37.6002C48.6827 31.0815 40.8687 28.3266 34.3498 31.4471C31.6569 32.7361 29.4858 34.9074 28.1968 37.6002C25.062 31.0763 17.2322 28.3287 10.7081 31.4635C4.18423 34.5982 1.4367 42.4282 4.57144 48.9521C5.92947 51.7783 8.25569 54.0239 11.128 55.2814C11.0221 57.3685 9.30306 59.0088 7.21323 59.0165C3.59358 59.0207 0.660146 61.9542 0.655884 65.5738V80H3.27882V65.5738C3.27882 63.4009 5.04029 61.6394 7.21323 61.6394C10.4326 61.6312 13.1686 59.2843 13.667 56.1037C15.4434 56.4844 17.2796 56.4901 19.0584 56.1208C19.0899 57.5904 19.7065 58.9866 20.7712 60.0001L22.5076 58.0329C21.8392 57.2839 21.5261 56.2831 21.6486 55.2867C24.5138 54.0217 26.8351 51.7781 28.1968 48.9575C29.5567 51.7744 31.874 54.0158 34.7344 55.2814C34.6285 57.3685 32.9095 59.0088 30.8197 59.0165C27.2 59.0207 24.2666 61.9542 24.2623 65.5738V80H26.8853V65.5738C26.8853 63.4009 28.6468 61.6394 30.8197 61.6394C34.039 61.6312 36.7751 59.2843 37.2734 56.1037C39.0706 56.4901 40.9293 56.4901 42.7265 56.1037C43.2249 59.2843 45.9608 61.6312 49.1803 61.6394C51.3532 61.6394 53.1147 63.4009 53.1147 65.5738V80H55.7376V65.5738C55.7334 61.9542 52.7999 59.0207 49.1803 59.0165C47.0904 59.0088 45.3714 57.3685 45.2655 55.2814C48.126 54.0158 50.4432 51.7744 51.8032 48.9575C53.1632 51.775 55.4811 54.017 58.3422 55.2827C58.3119 56.3127 57.9753 57.3103 57.3757 58.1483L59.3429 59.8821C60.207 58.7962 60.7466 57.4883 60.8996 56.1089C62.6904 56.4919 64.542 56.4919 66.333 56.1089C66.8336 59.2875 69.569 61.6316 72.7867 61.6394C74.9597 61.6394 76.7211 63.4009 76.7211 65.5738V80H79.3441V65.5738C79.3398 61.9542 76.4066 59.0209 72.7867 59.0165ZM16.3935 53.7706C11.1111 53.7618 6.65717 49.8308 5.99226 44.5903H9.83617C10.1844 44.5906 10.5185 44.4523 10.7647 44.206L12.7175 42.252L17.1188 44.4592C17.3014 44.5477 17.502 44.5926 17.705 44.5903H26.7948C26.1299 49.8308 21.676 53.7619 16.3935 53.7706ZM18.0145 41.9674L13.044 39.4821C12.5391 39.2302 11.9294 39.3293 11.5306 39.7287L9.29191 41.9674H5.99226C6.65717 36.7269 11.1111 32.7959 16.3935 32.7871C21.676 32.7959 26.1299 36.7269 26.7948 41.9674H18.0145ZM40 53.7706C34.7175 53.7618 30.2636 49.8308 29.5987 44.5903H33.4426C33.7016 44.5898 33.9548 44.5133 34.1705 44.37L37.377 42.2297L40.5836 44.3674C40.799 44.5116 41.0523 44.5892 41.3115 44.5903H50.4013C49.7363 49.8308 45.2824 53.7619 40 53.7706ZM41.7049 41.9674L38.101 39.5648C37.6603 39.2707 37.0859 39.2707 36.6452 39.5648L33.0492 41.9674H29.5987C30.2636 36.7269 34.7175 32.7959 40 32.7871C45.2824 32.7959 49.7363 36.7269 50.4013 41.9674H41.7049ZM63.6064 32.7871C68.8889 32.7959 73.3428 36.7269 74.0077 41.9674H72.1717L69.9422 38.6166C69.699 38.2523 69.2902 38.0333 68.8523 38.033H58.3606C57.9222 38.033 57.5127 38.2518 57.2694 38.6166L55.036 41.9674H53.1999C53.8652 36.7249 58.322 32.7933 63.6064 32.7871ZM62.3033 53.6885C57.5471 53.0926 53.8011 49.3465 53.2052 44.5903H55.7376C56.176 44.5903 56.5855 44.3715 56.8288 44.0067L59.0622 40.6559H68.1507L70.3802 44.0067C70.6243 44.3726 71.0354 44.5916 71.4753 44.5903H74.0077C73.288 50.3349 68.0479 54.4081 62.3033 53.6885Z" fill="#00509E"/>
<path d="M49.1803 19.9347V11.8036H55.7376C56.4619 11.8011 57.047 11.2118 57.0445 10.4875C57.0429 10.0224 56.7952 9.5931 56.3934 9.359L40.6557 0.178709C40.2474 -0.059651 39.7421 -0.059651 39.3338 0.178709L23.5961 9.359C22.9704 9.72359 22.7586 10.5265 23.1233 11.1524C23.3594 11.5575 23.7937 11.8057 24.2624 11.8036H30.8197V19.9347L14.787 23.6396L15.3771 26.197L32.4263 22.2626C33.0215 22.125 33.443 21.5948 33.4426 20.9839V10.4921C33.4426 9.76785 32.8554 9.18064 32.1312 9.18064H29.1148L40 2.82919L50.8852 9.18064H47.8688C47.1446 9.18064 46.5574 9.76785 46.5574 10.4921V20.9839C46.557 21.5948 46.9785 22.125 47.5737 22.2626L64.6228 26.197L65.213 23.6396L49.1803 19.9347Z" fill="#FFCB00"/>
<path d="M38.6886 9.1806V23.9727L35.6512 24.9864L36.48 27.4782L40.4144 26.1668C40.9517 25.9879 41.3133 25.4845 41.3115 24.9182V9.1806H38.6886Z" fill="#FFCB00"/>
<path d="M31.7156 26.2982L27.7819 27.6107L28.6117 30.0976L32.5454 28.7851L31.7156 26.2982Z" fill="#FFCB00"/>
<path d="M45.6048 24.9691L44.8843 27.491L54.0642 30.1137L54.7847 27.5918L45.6048 24.9691Z" fill="#FFCB00"/>
<path d="M21.6132 74.4918L18.9902 61.3771C18.8656 60.7665 18.3283 60.3278 17.705 60.3279H15.082C14.4588 60.3278 13.9214 60.7665 13.7968 61.3771L11.1739 74.4918C11.0893 74.9203 11.2234 75.3628 11.5319 75.6721L15.4663 79.6065C15.9784 80.1185 16.8086 80.1185 17.3207 79.6065L21.2551 75.6721C21.5637 75.363 21.6979 74.9203 21.6132 74.4918ZM16.3935 76.8341L13.882 74.3226L16.1574 62.9509H16.6296L18.905 74.3226L16.3935 76.8341Z" fill="#00509E"/>
<path d="M68.8261 74.4918L66.2032 61.3771C66.0786 60.7665 65.5412 60.3278 64.9179 60.3279H62.295C61.6717 60.3278 61.1343 60.7665 61.0097 61.3771L58.3868 74.4918C58.3022 74.9203 58.4363 75.3628 58.7448 75.6721L62.6792 79.6065C63.1914 80.1185 64.0215 80.1185 64.5337 79.6065L68.4681 75.6721C68.7766 75.363 68.9109 74.9203 68.8261 74.4918ZM63.6065 76.8341L61.095 74.3226L63.3704 62.9509H63.8425L66.1179 74.3226L63.6065 76.8341Z" fill="#00509E"/>
</g>
<defs>
<clipPath id="clip0">
<rect width="80" height="80" fill="white"/>
</clipPath>
</defs>
</svg>
