<svg id="f9e90906-7fba-4da5-9d76-79e54979bda4" data-name="wrapper-learn-more" xmlns="http://www.w3.org/2000/svg" viewBox="0 0 226.64 127.74"><title>salem-baner-RUS_03-2</title><path d="M308,445.06v-2.18h5.65l.31-3c-1.67-.1-3.33-.16-5.18-.16-1.53,0-3.29,0-5,.16V453.3h.12c1.83.13,3.46.15,6,.15,3.43,0,5-.95,5-4.24s-1.41-4.15-5.57-4.15Zm0,5.47v-2.92h1.35c1.13,0,1.34.28,1.34,1.46s-.21,1.46-1.34,1.46Zm14.18-10.94c-4.6,0-6.25,1.46-6.25,7s1.65,7,6.25,7,6.27-1.46,6.27-7-1.66-7-6.27-7Zm0,3.14c1.44,0,1.81.74,1.81,3.85s-.37,3.86-1.81,3.86-1.81-.74-1.81-3.86.37-3.85,1.81-3.85Zm19.45-2.86h-6.53a3.19,3.19,0,0,0-3.54,3.36,25.73,25.73,0,0,1-.82,5.75c-.31.93-1,1-1.9,1.15l.29,3.27c2.59.46,4.57-.18,5.49-3.29a38,38,0,0,0,.93-6.58.9.9,0,0,1,1-.9h.82V453.3h4.23V439.87Zm6.44,4.61v-4.61h-4.22V453.3H344c1.79.13,3.31.15,6.06.15,3.23,0,4.67-1,4.67-4.49s-1.34-4.48-5.43-4.48Zm0,6V447h1.19c1,0,1.2.35,1.2,1.77s-.19,1.73-1.2,1.73Zm25.74-10.66H369.7v10.66h-2.63V439.87H363v10.66h-2.62V439.87h-4.13V453.3h17.62V439.87Zm12,10.27h-4.93a.71.71,0,0,1-.79-.7v-1.61h5V445h-5v-1.3a.71.71,0,0,1,.79-.7h4.93l.19-3a61.86,61.86,0,0,0-7-.25,3,3,0,0,0-3.15,3v7.48a3,3,0,0,0,3.15,3.06,59.49,59.49,0,0,0,7-.26l-.19-3Zm6-5.82v-4.55h-4.05v4.55l.43,4.56h3.19l.43-4.56Zm-2.48,5.38c-1.07,0-1.4.33-1.4,1.4v.8c0,1.07.33,1.4,1.4,1.4h.92c1.07,0,1.4-.33,1.4-1.4v-.8c0-1.07-.33-1.4-1.4-1.4Z" transform="translate(-184.05 -357.09)" style="fill:#1b215d;fill-rule:evenodd"/><path d="M274.57,477.55s-1.19-2.39-2.08-8.39-.71-10.67,1.51-11.8a4.84,4.84,0,0,1,3.12-.26,7.15,7.15,0,0,1,6.55-1.76s1.67-2.77,5.87-2.13V444a3.62,3.62,0,0,1,3.63-3.63h0A3.63,3.63,0,0,1,296.8,444v14.75a4,4,0,0,1,1.64,3.45c0,5.11.6,12.14-2.64,15.37v1.28a3.32,3.32,0,0,1-3.32,3.32H277.89a3.31,3.31,0,0,1-3.32-3.32Z" transform="translate(-184.05 -357.09)" style="fill:#f8aa00;fill-rule:evenodd"/><path id="a21227bd-fc52-499d-b616-6ff03053f3e3" data-name="background-layer" d="M342,428.77H254.05a20.61,20.61,0,0,1-20.61-20.61h0a20.6,20.6,0,0,1,20.61-20.6H342a20.6,20.6,0,0,1,20.6,20.6h0A20.6,20.6,0,0,1,342,428.77Z" transform="translate(-184.05 -357.09)" style="fill:#1aa6e0;fill-rule:evenodd"/><path id="e3c3606c-4f31-4e0e-ae40-7196ac79a094" data-name="text-layer" d="M254.77,400.8H243v13.43h4.22V403.56h3.31v10.67h4.23V400.8Zm8-.27c-4.6,0-6.25,1.46-6.25,7s1.65,7,6.25,7,6.27-1.46,6.27-7-1.66-7-6.27-7Zm0,3.13c1.44,0,1.81.74,1.81,3.86s-.37,3.85-1.81,3.85-1.81-.74-1.81-3.85.37-3.86,1.81-3.86Zm18,7.09a42.22,42.22,0,0,1-4.4.15c-1.33,0-1.66-.66-1.66-3.38s.33-3.39,1.66-3.39c1.85,0,2.74,0,4.1,0l.32-3.08a14.39,14.39,0,0,0-4.42-.52c-4.46,0-6.1,1.83-6.1,6.95s1.64,7,6.1,7a13.29,13.29,0,0,0,4.71-.65l-.31-3.07Zm12.83-9.95a1.47,1.47,0,0,0-1.62,1.3l-.92,5.34c-.09.66-.15,1.34-.23,2h-.17c-.06-.66-.12-1.34-.22-2l-1-5.34a1.47,1.47,0,0,0-1.6-1.3h-3.64a1.33,1.33,0,0,0-1.48,1.46l-.47,12h3.8L286.4,404h.29l1.35,6.86a1.46,1.46,0,0,0,1.61,1.28h2.18a1.44,1.44,0,0,0,1.6-1.28l1.32-6.86h.3l.4,10.28h3.8l-.47-12a1.33,1.33,0,0,0-1.48-1.46Zm13.39-.27c-4.59,0-6.25,1.46-6.25,7s1.66,7,6.25,7,6.27-1.46,6.27-7-1.66-7-6.27-7Zm0,3.13c1.44,0,1.81.74,1.81,3.86s-.37,3.85-1.81,3.85-1.81-.74-1.81-3.85.37-3.86,1.81-3.86Zm18.83.29V400.8H314.07V404h3.75v10.28h4.23V404Zm1.28,10.28h4.22V409.6a17.49,17.49,0,0,0,2.05.12c3.68,0,5-1,5-4.54s-1.3-4.57-5.57-4.57a53.23,53.23,0,0,0-5.68.19v13.43Zm4.22-7.49v-3.16h1.37c1.15,0,1.44.32,1.44,1.6s-.29,1.56-1.44,1.56Zm20.52,7.49V400.8h-4l-3.27,6.07a13.2,13.2,0,0,0-.85,2.07h-.14a14.31,14.31,0,0,0,.21-2.18v-6h-4v13.43h4l3.29-6.19a10.79,10.79,0,0,0,.82-2.06H348a12.24,12.24,0,0,0-.22,2.08v6.17Z" transform="translate(-184.05 -357.09)" style="fill:#fff;fill-rule:evenodd"/><path d="M323,428.77h-69a20.61,20.61,0,0,1-20.61-20.61h0a20.61,20.61,0,0,1,13.93-19.49" transform="translate(-184.05 -357.09)" style="fill:none;stroke:#1b215d;stroke-linecap:round;stroke-linejoin:round;stroke-width:1.3737000000000001px;fill-rule:evenodd"/><path d="M254.05,387.56H342a20.6,20.6,0,0,1,20.6,20.6h0A20.6,20.6,0,0,1,342,428.77" transform="translate(-184.05 -357.09)" style="fill:none;stroke:#1b215d;stroke-linecap:round;stroke-linejoin:round;stroke-width:1.3745px;fill-rule:evenodd"/><polygon points="196.65 48.52 194.14 47.56 191.93 49.08 192.06 46.39 189.93 44.75 192.53 44.06 193.43 41.52 194.9 43.78 197.59 43.85 195.89 45.94 196.65 48.52" style="fill:none;stroke:#f8aa00;stroke-linecap:round;stroke-linejoin:round;stroke-width:1.044px;fill-rule:evenodd"/><polygon points="36.17 63.87 33.78 64.2 32.69 66.35 31.65 64.17 29.26 63.81 31.01 62.14 30.62 59.76 32.74 60.9 34.89 59.8 34.46 62.17 36.17 63.87" style="fill:none;stroke:#003165;stroke-linecap:round;stroke-linejoin:round;stroke-width:1.044px;fill-rule:evenodd"/><path d="M213.17,453.3v-9.74h-3.62L207,447.69a5.85,5.85,0,0,0-.76,1.52h-.1a9.1,9.1,0,0,0,.16-1.58v-4.07h-3.62v9.74h3.62l2.49-3.86a8.07,8.07,0,0,0,.82-1.75h.09a13.51,13.51,0,0,0-.15,1.83v3.82l3.64,0Zm17.25-13.43H226.1l-1.76,6.73h-.17a.28.28,0,0,1-.31-.21l-1.52-6.52H218l2.41,7.86c.31,1.09.86,1.83,2.1,1.83h.8l-.08.31c-.23.7-1.07.59-3.15.55l-.45,2.88a20.59,20.59,0,0,0,4.15.27c2.16-.21,3-1.36,3.7-3.91l2.92-9.79Zm.78,3.17a33.85,33.85,0,0,1,4.3-.29c.82,0,1,.21,1,1.07s-.19,1.13-1,1.15l-2.92,0v2.63l3,.06c1,0,1.22.27,1.22,1.38s-.23,1.33-1.2,1.33A29.91,29.91,0,0,1,231,450l-.31,2.74a17,17,0,0,0,5.74.74c3.26,0,4.7-.74,4.7-3.5,0-2.14-.72-3.39-2.77-3.56v-.12c1.7-.16,2.34-1.13,2.34-3.06,0-2.76-1.27-3.5-4.89-3.5a20.31,20.31,0,0,0-4.9.45l.31,2.88Zm23.44-3.17h-4.23v4.82H247v-4.82H242.8V453.3H247v-5.65h3.39v5.65h4.23V439.87Zm9.59,10.53.69,2.9h4.3L265.73,441a1.43,1.43,0,0,0-1.42-1.09h-3.83a1.43,1.43,0,0,0-1.42,1.09l-3.49,12.34h4.3l.68-2.9Zm-.68-3h-2.31l.66-2.88c.1-.49.17-1.05.23-1.54h.53a13.63,13.63,0,0,0,.23,1.54l.66,2.88Zm13.81-11.86c.15,1.21-.26,1.5-1,1.5s-1.16-.29-1-1.5h-2.47c-.31,1.68,1.09,3.37,3.48,3.37s3.78-1.69,3.47-3.37Zm4.86,17.72V439.87h-4l-3.27,6.07a12.7,12.7,0,0,0-.85,2.06H274a14.31,14.31,0,0,0,.21-2.18v-5.95h-4V453.3h4l3.29-6.19a10.88,10.88,0,0,0,.82-2.07h.14a12.36,12.36,0,0,0-.22,2.09v6.17Z" transform="translate(-184.05 -357.09)" style="fill:#d0005a;fill-rule:evenodd"/><polygon points="157.65 11.91 160.78 15.29 165.17 14.11 162.98 17.55 165.07 21.39 160.84 21.17 158.04 25.09 156.82 19.78 152.7 17.73 156.9 16.29 157.65 11.91" style="fill:none;stroke:#f8aa00;stroke-linecap:round;stroke-linejoin:round;stroke-width:1.0431000000000001px;fill-rule:evenodd"/><polygon points="213.08 22.69 215.74 20.61 218.51 21.93 217.21 19.33 220.17 16.23 216.27 16.79 213.88 13.98 213.5 17.1 210.49 18 213.1 19.59 213.08 22.69" style="fill:none;stroke:#003165;stroke-linecap:round;stroke-linejoin:round;stroke-width:1.0437px;fill-rule:evenodd"/><polygon points="25.66 30.09 28.18 25.57 32.88 25.77 29.48 22.88 31.83 16.73 26.65 19.85 21.6 17.31 22.92 21.94 19.2 25 23.84 25.7 25.66 30.09" style="fill:none;stroke:#003165;stroke-linecap:round;stroke-linejoin:round;stroke-width:1.044px;fill-rule:evenodd"/><polygon points="75.97 118.5 79.35 115.86 82.87 117.53 81.21 114.24 84.98 110.3 80.03 111.01 76.99 107.45 76.51 111.4 72.69 112.55 76 114.57 75.97 118.5" style="fill:none;stroke:#f8aa00;stroke-linecap:round;stroke-linejoin:round;stroke-width:0.8646px;fill-rule:evenodd"/><polygon points="103.68 10.76 103.87 14.17 106.72 15.41 103.87 16.15 103.49 20.48 101.57 16.84 97.58 17.18 100.24 14.66 98.38 11.92 101.63 13.22 103.68 10.76" style="fill:none;stroke:#003165;stroke-linecap:round;stroke-linejoin:round;stroke-width:1.044px;fill-rule:evenodd"/><path d="M277.89,482.15a3.31,3.31,0,0,1-3.32-3.32v-1.28s-1.19-2.39-2.08-8.39-.71-10.67,1.51-11.8a4.84,4.84,0,0,1,3.12-.26,7.15,7.15,0,0,1,6.55-1.76s1.67-2.77,5.87-2.13V444a3.62,3.62,0,0,1,3.63-3.63h0A3.63,3.63,0,0,1,296.8,444m0,14.75a4,4,0,0,1,1.64,3.45c0,5.11.6,12.14-2.64,15.37v1.28a3.32,3.32,0,0,1-3.32,3.32" transform="translate(-184.05 -357.09)" style="fill:none;stroke:#1b215d;stroke-linecap:round;stroke-linejoin:round;stroke-width:0.9921000000000001px;fill-rule:evenodd"/></svg>