<svg width="227" height="128" viewBox="0 0 227 128" fill="none" xmlns="http://www.w3.org/2000/svg">
<g id="wrapper-learn-more">
<g id="learn-more-card">
<path id="Vector" fill-rule="evenodd" clip-rule="evenodd" d="M157.91 71.68H70C64.5339 71.68 59.2917 69.5086 55.4265 65.6435C51.5614 61.7783 49.39 56.5361 49.39 51.07V51.07C49.39 48.3639 49.9232 45.6844 50.9591 43.1844C51.9949 40.6845 53.5132 38.4131 55.4272 36.5001C57.3411 34.5871 59.6132 33.0699 62.1137 32.0352C64.6141 31.0006 67.2939 30.4687 70 30.47H157.91C163.373 30.47 168.613 32.6404 172.476 36.5036C176.34 40.3669 178.51 45.6065 178.51 51.07V51.07C178.511 53.7761 177.979 56.4559 176.945 58.9564C175.91 61.4568 174.393 63.7289 172.48 65.6429C170.567 67.5568 168.296 69.0751 165.796 70.111C163.296 71.1468 160.616 71.68 157.91 71.68V71.68Z" fill="#EEF3FA"/>
<path id="Vector_2" d="M226.64 0H0V127.74H226.64V0Z" fill="white"/>
<path id="Vector_3" fill-rule="evenodd" clip-rule="evenodd" d="M124 88V85.79H129.65L129.96 82.79C128.29 82.7 126.63 82.64 124.78 82.64C123.24 82.64 121.49 82.64 119.78 82.79V96.21H119.9C121.73 96.34 123.36 96.36 125.9 96.36C129.33 96.36 130.9 95.36 130.9 92.12C130.9 88.88 129.48 88 125.32 88H124ZM124 93.47V90.52H125.35C126.48 90.52 126.69 90.79 126.69 91.98C126.69 93.17 126.48 93.44 125.35 93.44L124 93.47ZM138.15 82.5C133.55 82.5 131.9 83.96 131.9 89.5C131.9 95.04 133.55 96.5 138.15 96.5C142.75 96.5 144.42 95.04 144.42 89.5C144.42 83.96 142.76 82.5 138.15 82.5ZM138.15 85.63C139.59 85.63 139.96 86.37 139.96 89.49C139.96 92.61 139.59 93.34 138.15 93.34C136.71 93.34 136.34 92.6 136.34 89.49C136.34 86.38 136.71 85.63 138.15 85.63ZM157.6 82.77H151.07C150.607 82.7197 150.139 82.771 149.699 82.9201C149.258 83.0693 148.855 83.3128 148.518 83.6336C148.181 83.9544 147.918 84.3449 147.747 84.7777C147.577 85.2106 147.503 85.6755 147.53 86.14C147.475 88.0782 147.2 90.0039 146.71 91.88C146.4 92.82 145.71 92.94 144.81 93.03L145.1 96.3C147.69 96.77 149.67 96.13 150.59 93.01C151.093 90.8484 151.405 88.6465 151.52 86.43C151.521 86.3037 151.548 86.179 151.6 86.064C151.652 85.9489 151.727 85.8461 151.822 85.7621C151.916 85.6782 152.027 85.615 152.147 85.5768C152.268 85.5385 152.395 85.526 152.52 85.54H153.34V96.21H157.57V82.77H157.6ZM164 87.39V82.77H159.78V96.21H159.89C161.68 96.34 163.2 96.36 165.95 96.36C169.18 96.36 170.62 95.36 170.62 91.86C170.62 88.36 169.28 87.39 165.19 87.39H164ZM164 93.39V89.89H165.19C166.19 89.89 166.39 90.24 166.39 91.66C166.39 93.08 166.2 93.39 165.19 93.39H164ZM189.74 82.72H185.61V93.44H183V82.77H178.89V93.44H176.27V82.77H172.14V96.21H189.76V82.77L189.74 82.72ZM201.74 93H196.81C196.711 93.0112 196.611 93.0015 196.516 92.9715C196.421 92.9415 196.334 92.8919 196.259 92.8259C196.185 92.7599 196.125 92.679 196.084 92.5884C196.042 92.4978 196.021 92.3995 196.02 92.3V90.74H201.02V87.93H196.02V86.63C196.021 86.5305 196.042 86.4322 196.084 86.3416C196.125 86.251 196.185 86.1701 196.259 86.1041C196.334 86.0381 196.421 85.9885 196.516 85.9585C196.611 85.9285 196.711 85.9188 196.81 85.93H201.74L201.93 82.93C199.603 82.7145 197.266 82.6311 194.93 82.68C194.524 82.6597 194.117 82.7222 193.736 82.8638C193.354 83.0055 193.006 83.2232 192.711 83.5038C192.416 83.7845 192.182 84.1221 192.022 84.4962C191.862 84.8703 191.779 85.2731 191.78 85.68V93.16C191.779 93.5669 191.862 93.9697 192.022 94.3438C192.182 94.7179 192.416 95.0555 192.711 95.3362C193.006 95.6168 193.354 95.8345 193.736 95.9762C194.117 96.1178 194.524 96.1803 194.93 96.16C197.266 96.2089 199.603 96.1255 201.93 95.91L201.74 92.91V93ZM207.74 87.18V82.68H203.7V87.23L204.13 91.79H207.32L207.75 87.23L207.74 87.18ZM205.26 92.55C204.19 92.55 203.86 92.89 203.86 93.96V94.75C203.86 95.83 204.19 96.16 205.26 96.16H206.18C207.25 96.16 207.58 95.83 207.58 94.75V94C207.58 92.93 207.25 92.59 206.18 92.59L205.26 92.55Z" fill="#232765"/>
<path id="Vector_4" fill-rule="evenodd" clip-rule="evenodd" d="M90.52 120.46C90.52 120.46 89.33 118.07 88.44 112.07C87.55 106.07 87.73 101.39 89.95 100.26C90.9343 99.8363 92.0308 99.7485 93.07 100.01C93.9308 99.1971 94.9795 98.61 96.1224 98.3012C97.2653 97.9923 98.467 97.9713 99.62 98.24C99.62 98.24 101.29 95.48 105.49 96.12V86.88C105.49 86.4038 105.584 85.9322 105.767 85.4924C105.949 85.0525 106.217 84.653 106.554 84.3167C106.891 83.9804 107.291 83.714 107.732 83.5327C108.172 83.3513 108.644 83.2587 109.12 83.26C110.081 83.26 111.003 83.6411 111.683 84.3197C112.364 84.9983 112.747 85.919 112.75 86.88V101.64C113.289 102.033 113.722 102.554 114.008 103.157C114.295 103.759 114.426 104.424 114.39 105.09C114.39 110.2 114.99 117.22 111.75 120.46V121.74C111.75 122.621 111.4 123.465 110.778 124.088C110.155 124.71 109.311 125.06 108.43 125.06H93.84C92.9595 125.06 92.115 124.71 91.4924 124.088C90.8698 123.465 90.52 122.621 90.52 121.74V120.46Z" fill="#E5A821"/>
<path id="Vector_5" d="M112.75 101.64C113.289 102.033 113.722 102.554 114.008 103.157C114.295 103.759 114.426 104.424 114.39 105.09C114.39 110.2 114.99 117.22 111.75 120.46V121.74C111.75 122.621 111.4 123.465 110.778 124.088C110.155 124.71 109.311 125.06 108.43 125.06M93.84 125.06C92.9595 125.06 92.115 124.71 91.4924 124.088C90.8698 123.465 90.52 122.621 90.52 121.74V120.46C90.52 120.46 89.33 118.07 88.44 112.07C87.55 106.07 87.73 101.39 89.95 100.26C90.9343 99.8363 92.0308 99.7485 93.07 100.01C93.9308 99.1971 94.9795 98.61 96.1224 98.3012C97.2653 97.9923 98.467 97.9713 99.62 98.24C99.62 98.24 101.29 95.48 105.49 96.12V86.88C105.49 86.4038 105.584 85.9322 105.767 85.4924C105.949 85.0525 106.217 84.653 106.554 84.3167C106.891 83.9804 107.291 83.714 107.732 83.5327C108.172 83.3513 108.644 83.2587 109.12 83.26C110.081 83.26 111.003 83.6411 111.683 84.3197C112.364 84.9983 112.747 85.919 112.75 86.88L93.84 125.06Z" stroke="#232765" stroke-width="0.9921" stroke-linecap="round" stroke-linejoin="round"/>
<path id="Vector_6" d="M139 71.68H70C64.5339 71.68 59.2917 69.5086 55.4265 65.6435C51.5614 61.7783 49.39 56.5361 49.39 51.07V51.07C49.3925 46.7739 50.736 42.5857 53.2333 39.09C55.7305 35.5942 59.2568 32.9652 63.32 31.57" stroke="#232765" stroke-width="1.3737" stroke-linecap="round" stroke-linejoin="round"/>
<path id="Vector_7" d="M70 30.47H157.91C163.373 30.47 168.613 32.6404 172.476 36.5036C176.34 40.3669 178.51 45.6065 178.51 51.07V51.07C178.511 53.7761 177.979 56.4559 176.945 58.9564C175.91 61.4568 174.393 63.7289 172.48 65.6429C170.567 67.5568 168.296 69.0751 165.796 70.111C163.296 71.1468 160.616 71.68 157.91 71.68" stroke="#232765" stroke-width="1.3745" stroke-linecap="round" stroke-linejoin="round"/>
<path id="Vector_8" fill-rule="evenodd" clip-rule="evenodd" d="M196.65 48.52L194.14 47.56L191.93 49.08L192.06 46.39L189.93 44.75L192.53 44.06L193.43 41.52L194.9 43.78L197.59 43.85L195.89 45.94L196.65 48.52Z" stroke="#E5A821" stroke-width="1.044" stroke-linecap="round" stroke-linejoin="round"/>
<path id="Vector_9" fill-rule="evenodd" clip-rule="evenodd" d="M36.17 63.87L33.78 64.2L32.69 66.35L31.65 64.17L29.26 63.81L31.01 62.14L30.62 59.76L32.74 60.9L34.89 59.8L34.46 62.17L36.17 63.87Z" stroke="#203669" stroke-width="1.044" stroke-linecap="round" stroke-linejoin="round"/>
<path id="Vector_10" fill-rule="evenodd" clip-rule="evenodd" d="M29.12 96.21V86.47H25.5L22.93 90.6C22.6021 91.0658 22.3459 91.5782 22.17 92.12H22.07C22.1688 91.5989 22.2223 91.0703 22.23 90.54V86.47H18.61V96.21H22.23L24.72 92.35C25.0587 91.7996 25.3338 91.2125 25.54 90.6H25.63C25.5385 91.2059 25.4884 91.8173 25.48 92.43V96.24H29.12V96.21ZM46.37 82.77H42.05L40.29 89.51H40.12C40.0501 89.5191 39.9794 89.5014 39.9219 89.4607C39.8645 89.4199 39.8245 89.3589 39.81 89.29L38.29 82.77H34L36.41 90.64C36.72 91.73 37.27 92.47 38.51 92.47H39.31L39.23 92.78C39 93.48 38.16 93.36 36.08 93.32L35.63 96.21C37.0006 96.4402 38.3911 96.5306 39.78 96.48C41.94 96.26 42.78 95.12 43.48 92.57L46.4 82.77H46.37ZM47.15 86C48.5755 85.8091 50.0117 85.7089 51.45 85.7C52.27 85.7 52.45 85.92 52.45 86.78C52.45 87.64 52.26 87.9 51.45 87.92L48.53 87.98V90.61L51.53 90.67C52.53 90.67 52.75 90.94 52.75 92.05C52.75 93.16 52.52 93.37 51.55 93.37C50.0075 93.3431 48.4696 93.1959 46.95 92.93L46.64 95.67C48.497 96.2429 50.4384 96.4932 52.38 96.41C55.64 96.41 57.08 95.67 57.08 92.91C57.08 90.77 56.36 89.52 54.31 89.34V89.23C56.01 89.07 56.65 88.1 56.65 86.17C56.65 83.41 55.38 82.67 51.76 82.67C50.1143 82.6159 48.4683 82.767 46.86 83.12L47.15 86ZM70.59 82.82H66.36V87.6H63V82.77H58.75V96.21H63V90.56H66.39V96.21H70.62V82.77L70.59 82.82ZM80.18 93.36L80.87 96.26H85.17L81.68 83.86C81.601 83.5447 81.4177 83.2654 81.1599 83.0675C80.9021 82.8696 80.585 82.7648 80.26 82.77H76.43C76.1033 82.7625 75.7838 82.8663 75.524 83.0644C75.2641 83.2625 75.0793 83.543 75 83.86L71.52 96.21H75.82L76.5 93.31L80.18 93.36ZM79.5 90.36H77.19L77.85 87.47C77.95 86.99 78.02 86.47 78.08 85.94H78.61C78.6573 86.454 78.734 86.9648 78.84 87.47L79.5 90.36ZM93.31 78.49C93.46 79.7 93.05 79.99 92.31 79.99C91.57 79.99 91.14 79.7 91.31 78.49H88.83C88.52 80.16 89.92 81.86 92.31 81.86C94.7 81.86 96.09 80.16 95.78 78.49H93.31ZM98.17 96.21V82.77H94.17L90.9 88.85C90.5397 89.5087 90.2385 90.1981 90 90.91H89.9C90.0256 90.1898 90.0958 89.461 90.11 88.73V82.73H86.11V96.21H90.11L93.42 90C93.7574 89.3615 94.0321 88.6916 94.24 88H94.38C94.2519 88.6595 94.1783 89.3284 94.16 90V96.18L98.17 96.21Z" fill="#B4005A"/>
<path id="Vector_11" fill-rule="evenodd" clip-rule="evenodd" d="M157.65 11.91L160.78 15.29L165.17 14.11L162.98 17.55L165.07 21.39L160.84 21.17L158.04 25.09L156.82 19.78L152.7 17.73L156.9 16.29L157.65 11.91Z" stroke="#E5A821" stroke-width="1.0431" stroke-linecap="round" stroke-linejoin="round"/>
<path id="Vector_12" fill-rule="evenodd" clip-rule="evenodd" d="M213.08 22.69L215.74 20.61L218.51 21.93L217.21 19.33L220.17 16.23L216.27 16.79L213.88 13.98L213.5 17.1L210.49 18L213.1 19.59L213.08 22.69Z" stroke="#203669" stroke-width="1.0437" stroke-linecap="round" stroke-linejoin="round"/>
<path id="Vector_13" fill-rule="evenodd" clip-rule="evenodd" d="M25.66 30.09L28.18 25.57L32.88 25.77L29.48 22.88L31.83 16.73L26.65 19.85L21.6 17.31L22.92 21.94L19.2 25L23.84 25.7L25.66 30.09Z" stroke="#203669" stroke-width="1.044" stroke-linecap="round" stroke-linejoin="round"/>
<path id="Vector_14" fill-rule="evenodd" clip-rule="evenodd" d="M75.97 118.5L79.35 115.86L82.87 117.53L81.21 114.24L84.98 110.3L80.03 111.01L76.99 107.45L76.51 111.4L72.69 112.55L76 114.57L75.97 118.5Z" stroke="#E5A821" stroke-width="0.8646" stroke-linecap="round" stroke-linejoin="round"/>
<path id="Vector_15" fill-rule="evenodd" clip-rule="evenodd" d="M103.68 10.76L103.87 14.17L106.72 15.41L103.87 16.15L103.49 20.48L101.57 16.84L97.58 17.18L100.24 14.66L98.38 11.92L101.63 13.22L103.68 10.76Z" stroke="#203669" stroke-width="1.044" stroke-linecap="round" stroke-linejoin="round"/>
<g id="fill-background-on-hover" opacity="0.01" clip-path="url(#clip0)">
<g id="&#208;&#161;&#208;&#187;&#208;&#190;&#208;&#185; 2">
<g id="&#208;&#161;&#208;&#187;&#208;&#190;&#208;&#185; 1">
<path id="Vector_16" fill-rule="evenodd" clip-rule="evenodd" d="M157.195 71.895H69.285C66.5789 71.895 63.8994 71.3618 61.3994 70.326C58.8995 69.2901 56.6281 67.7718 54.7151 65.8579C52.802 63.9439 51.2849 61.6718 50.2502 59.1714C49.2156 56.6709 48.6837 53.9911 48.685 51.285V51.285C48.685 45.8215 50.8554 40.5818 54.7186 36.7186C58.5818 32.8554 63.8215 30.685 69.285 30.685H157.195C159.901 30.6837 162.581 31.2156 165.081 32.2502C167.582 33.2849 169.854 34.802 171.768 36.7151C173.682 38.6281 175.2 40.8995 176.236 43.3994C177.272 45.8994 177.805 48.5789 177.805 51.285V51.285C177.805 56.7511 175.634 61.9933 171.768 65.8585C167.903 69.7236 162.661 71.895 157.195 71.895V71.895Z" fill="#73AAD5"/>
<path id="Vector_17" fill-rule="evenodd" clip-rule="evenodd" d="M69.995 43.925H58.245V57.355H62.465V46.685H65.775V57.355H69.995V43.925ZM77.995 43.655C73.405 43.655 71.745 45.115 71.745 50.655C71.745 56.195 73.405 57.655 77.995 57.655C82.585 57.655 84.265 56.195 84.265 50.655C84.265 45.115 82.605 43.655 77.995 43.655V43.655ZM77.995 46.785C79.435 46.785 79.805 47.525 79.805 50.635C79.805 53.745 79.425 54.495 77.995 54.495C76.565 54.495 76.185 53.755 76.185 50.635C76.185 47.515 76.555 46.785 77.995 46.785ZM95.995 53.875C94.5319 54.0017 93.0633 54.0518 91.595 54.025C90.265 54.025 89.935 53.365 89.935 50.635C89.935 47.905 90.265 47.255 91.595 47.255C93.445 47.255 94.335 47.255 95.705 47.255L95.995 44.215C94.5582 43.8095 93.0669 43.6307 91.575 43.685C87.115 43.685 85.475 45.515 85.475 50.685C85.475 55.855 87.115 57.685 91.575 57.685C93.1804 57.743 94.783 57.5092 96.305 56.995L95.995 53.875ZM108.825 43.925C108.438 43.8829 108.05 43.9962 107.746 44.2399C107.442 44.4836 107.248 44.8379 107.205 45.225L106.295 50.565C106.195 51.225 106.135 51.905 106.055 52.565H105.885C105.825 51.905 105.765 51.225 105.665 50.565L104.665 45.225C104.622 44.8417 104.43 44.4907 104.131 44.2475C103.832 44.0043 103.449 43.8885 103.065 43.925H99.455C99.2582 43.9046 99.0594 43.9284 98.873 43.9945C98.6866 44.0607 98.5173 44.1676 98.3775 44.3075C98.2376 44.4473 98.1307 44.6166 98.0645 44.803C97.9984 44.9894 97.9746 45.1883 97.995 45.385L97.535 57.385H101.325L101.655 47.105H101.955L103.295 53.955C103.34 54.3403 103.536 54.692 103.839 54.9337C104.143 55.1753 104.529 55.2872 104.915 55.245H107.095C107.285 55.2671 107.477 55.2511 107.66 55.1979C107.843 55.1447 108.014 55.0554 108.162 54.9351C108.31 54.8149 108.433 54.6663 108.523 54.4979C108.612 54.3296 108.668 54.145 108.685 53.955L109.995 47.075H110.285L110.695 57.355H114.485L114.025 45.355C114.046 45.1564 114.022 44.9556 113.955 44.7676C113.887 44.5796 113.779 44.4091 113.636 44.2688C113.494 44.1286 113.322 44.0221 113.133 43.9574C112.944 43.8927 112.743 43.8714 112.545 43.895L108.825 43.925ZM122.215 43.655C117.625 43.655 115.965 45.115 115.965 50.655C115.965 56.195 117.625 57.655 122.215 57.655C126.805 57.655 128.485 56.195 128.485 50.655C128.485 45.115 126.835 43.655 122.215 43.655ZM122.215 46.785C123.655 46.785 124.025 47.525 124.025 50.635C124.025 53.745 123.655 54.495 122.215 54.495C120.775 54.495 120.405 53.755 120.405 50.635C120.405 47.515 120.775 46.785 122.215 46.785ZM141.045 47.075V43.925H129.305V47.075H133.065V57.355H137.285V47.075H141.045ZM142.325 57.355H146.555V52.725C147.219 52.8005 147.887 52.8372 148.555 52.835C152.235 52.835 153.555 51.835 153.555 48.305C153.555 44.775 152.245 43.725 147.985 43.725C146.086 43.6844 144.186 43.7512 142.295 43.925V57.355H142.325ZM146.555 49.865V46.705H147.915C149.065 46.705 149.355 47.015 149.355 48.305C149.355 49.595 149.065 49.865 147.915 49.865H146.555ZM167.075 57.355V43.925H163.075L159.795 49.995C159.444 50.6567 159.156 51.3497 158.935 52.065H158.795C158.924 51.345 158.997 50.6162 159.015 49.885V43.885H155.015V57.355H159.015L162.305 51.165C162.645 50.508 162.917 49.8177 163.115 49.105H163.255C163.126 49.7911 163.055 50.4869 163.045 51.185V57.355H167.075Z" fill="white"/>
<path id="Vector_18" d="M138.275 71.895H69.275C66.5698 71.8937 63.8913 71.3596 61.3925 70.3231C58.8937 69.2866 56.6235 67.7681 54.7115 65.8543C52.7996 63.9405 51.2833 61.6689 50.2493 59.169C49.2152 56.6692 48.6837 53.9902 48.685 51.285V51.285C48.6852 46.9898 50.0268 42.8018 52.5223 39.3059C55.0179 35.81 58.5428 33.1806 62.605 31.785" stroke="#232765" stroke-width="1.3737" stroke-linecap="round" stroke-linejoin="round"/>
<path id="Vector_19" d="M69.285 30.685H157.195C159.901 30.6837 162.581 31.2156 165.081 32.2502C167.582 33.2849 169.854 34.802 171.768 36.7151C173.682 38.6281 175.2 40.8995 176.236 43.3994C177.272 45.8994 177.805 48.5789 177.805 51.285V51.285C177.805 56.7511 175.634 61.9933 171.768 65.8585C167.903 69.7236 162.661 71.895 157.195 71.895" stroke="#232765" stroke-width="1.3745" stroke-linecap="round" stroke-linejoin="round"/>
</g>
</g>
</g>
<path id="disable-on-hover" opacity="0.9999" fill-rule="evenodd" clip-rule="evenodd" d="M70.72 43.71H59V57.14H63.22V46.47H66.53V57.14H70.76V43.71H70.72ZM78.72 43.44C74.12 43.44 72.47 44.9 72.47 50.44C72.47 55.98 74.12 57.44 78.72 57.44C83.32 57.44 85 56 85 50.42C85 44.84 83.34 43.42 78.73 43.42L78.72 43.44ZM78.72 46.57C80.16 46.57 80.53 47.31 80.53 50.42C80.53 53.53 80.16 54.28 78.72 54.28C77.28 54.28 76.91 53.54 76.91 50.42C76.91 47.3 77.28 46.57 78.72 46.57ZM96.72 53.66C95.2569 53.7865 93.7883 53.8366 92.32 53.81C90.99 53.81 90.66 53.15 90.66 50.42C90.66 47.69 91 47 92.31 47C94.16 47 95.05 47 96.41 47L96.73 44C95.2932 43.5945 93.8019 43.4157 92.31 43.47C87.85 43.47 86.21 45.3 86.21 50.47C86.21 55.64 87.85 57.42 92.31 57.42C93.902 57.4723 95.4905 57.2386 97 56.73L96.69 53.66H96.72ZM109.55 43.71C109.163 43.6679 108.775 43.7812 108.471 44.0249C108.167 44.2686 107.973 44.6229 107.93 45.01L107 50.35C106.91 51.01 106.85 51.69 106.77 52.35H106.6C106.54 51.69 106.48 51.01 106.38 50.35L105.38 45.01C105.337 44.6267 105.145 44.2757 104.846 44.0325C104.547 43.7893 104.164 43.6735 103.78 43.71H100.14C99.9417 43.6864 99.7406 43.7077 99.5517 43.7724C99.3628 43.8372 99.1908 43.9436 99.0486 44.0838C98.9065 44.2241 98.7977 44.3946 98.7304 44.5826C98.6631 44.7706 98.6391 44.9714 98.66 45.17L98.19 57.17H102L102.33 46.89H102.62L104 53.71C104.043 54.0925 104.235 54.4426 104.535 54.6842C104.834 54.9258 105.217 55.0393 105.6 55H107.78C107.97 55.0222 108.163 55.0062 108.346 54.9531C108.53 54.9 108.702 54.8108 108.851 54.6907C109 54.5706 109.123 54.422 109.214 54.2536C109.305 54.0853 109.361 53.9004 109.38 53.71L110.7 46.86H111L111.4 57.14H115.2L114.73 45.14C114.753 44.941 114.73 44.7394 114.664 44.5504C114.597 44.3615 114.488 44.1902 114.346 44.0495C114.203 43.9088 114.03 43.8024 113.84 43.7384C113.651 43.6744 113.449 43.6544 113.25 43.68L109.55 43.71ZM122.94 43.44C118.35 43.44 116.69 44.9 116.69 50.44C116.69 55.98 118.35 57.44 122.94 57.44C127.53 57.44 129.21 55.98 129.21 50.44C129.21 44.9 127.55 43.44 122.94 43.44V43.44ZM122.94 46.57C124.38 46.57 124.75 47.31 124.75 50.42C124.75 53.53 124.38 54.28 122.94 54.28C121.5 54.28 121.13 53.54 121.13 50.42C121.13 47.3 121.5 46.57 122.94 46.57ZM141.77 46.86V43.71H130V46.86H133.75V57.14H138V46.86H141.77ZM143 57.14H147.22V52.51C147.901 52.5868 148.585 52.6235 149.27 52.62C152.95 52.62 154.27 51.62 154.27 48.09C154.27 44.56 152.97 43.51 148.7 43.51C146.804 43.4696 144.908 43.5364 143.02 43.71V57.14H143ZM147.22 49.65V46.49H148.59C149.74 46.49 150.03 46.8 150.03 48.09C150.03 49.38 149.74 49.65 148.59 49.65H147.22ZM167.74 57.14V43.71H163.74L160.47 49.78C160.129 50.4447 159.844 51.1372 159.62 51.85H159.48C159.606 51.1298 159.676 50.401 159.69 49.67V43.67H155.69V57.14H159.69L163 51C163.343 50.3433 163.618 49.653 163.82 48.94H164C163.867 49.6258 163.794 50.3217 163.78 51.02V57.19L167.74 57.14Z" fill="#73AAD5"/>
</g>
</g>
<defs>
<clipPath id="clip0">
<rect width="131.12" height="43.21" fill="white" transform="translate(47.685 29.685)"/>
</clipPath>
</defs>
</svg>
