<svg width="32" height="32" viewBox="0 0 32 32" fill="none" xmlns="http://www.w3.org/2000/svg">
<path d="M0 16C0 7.16344 7.16344 0 16 0C24.8366 0 32 7.16344 32 16C32 24.8366 24.8366 32 16 32C7.16344 32 0 24.8366 0 16Z" fill="#003467"/>
<g clip-path="url(#clip0)">
<path d="M13.0193 18.6596C12.714 18.6596 12.4658 18.9078 12.4658 19.2131C12.4658 19.5181 12.714 19.7663 13.0193 19.7663C13.3246 19.7663 13.5728 19.5181 13.5728 19.2131C13.5728 18.9078 13.3246 18.6596 13.0193 18.6596Z" fill="white"/>
<path d="M22.4094 16.0528C22.7279 16.0528 22.9801 15.7942 22.9801 15.4821V15.0218C22.9801 14.707 22.7239 14.4511 22.4094 14.4511H21.1889C20.9475 14.4511 20.752 14.2553 20.752 14.0142C20.752 13.7729 20.9475 13.5774 21.1889 13.5774H21.7008C20.3167 9.08646 14.3902 6.86344 9.44753 11.8593C9.1854 12.1242 9.03031 12.4672 9.00382 12.8347H11.5339C11.7753 12.8347 11.9708 13.0302 11.9708 13.2716C11.9708 13.5127 11.7753 13.7084 11.5339 13.7084H9V16.0528H11.5339C11.7753 16.0528 11.9708 16.2486 11.9708 16.4897C11.9708 16.7311 11.7753 16.9266 11.5339 16.9266H9V17.48C9 19.8329 10.9141 21.747 13.2669 21.747C14.5279 21.747 15.5532 20.7207 15.5532 19.4605V16.4897C15.5532 16.2486 15.7487 16.0528 15.99 16.0528H22.4094ZM13.0193 20.64C12.2323 20.64 11.592 20 11.592 19.2131C11.592 18.4262 12.2323 17.7859 13.0193 17.7859C13.8062 17.7859 14.4465 18.4262 14.4465 19.2131C14.4465 20 13.8062 20.64 13.0193 20.64Z" fill="white"/>
<path d="M22.5632 18.3975H21.0197V16.9266H20.1459V18.3975H16.427V19.2712H20.1459V21.493L18.9112 20.2583C18.8293 20.1764 18.7182 20.1305 18.6024 20.1305C16.1821 20.1305 16.357 20.1234 16.3522 20.145C16.2847 20.4503 16.1728 20.7392 16.0234 21.0043H18.4214C20.4582 23.0408 20.2974 22.8927 20.3841 22.9367C20.5183 23.0052 20.4308 22.9847 22.5632 22.9847C22.8046 22.9847 23.0001 22.7892 23.0001 22.5479V18.8344C23.0001 18.593 22.8046 18.3975 22.5632 18.3975ZM22.1264 22.111H21.0197V19.2712H22.1264V22.111Z" fill="white"/>
</g>
<defs>
<clipPath id="clip0">
<rect x="9" y="9" width="14" height="14" fill="white"/>
</clipPath>
</defs>
</svg>
