<svg width="32" height="32" viewBox="0 0 32 32" fill="none" xmlns="http://www.w3.org/2000/svg">
<path d="M0 16C0 7.16344 7.16344 0 16 0C24.8366 0 32 7.16344 32 16C32 24.8366 24.8366 32 16 32C7.16344 32 0 24.8366 0 16Z" fill="#003467"/>
<g clip-path="url(#clip0)">
<path d="M22.7732 9.92245L21.0159 9.04379C20.9186 8.99512 20.806 8.98716 20.7028 9.02153C20.5996 9.05593 20.5143 9.12992 20.4656 9.22721L15.7465 18.6656H11.167C11.1669 18.6656 11.1669 18.6656 11.1669 18.6656C9.98894 18.6656 9 19.6175 9 20.8335C9 22.0283 9.97212 23.0005 11.167 23.0005H16.4393C16.5946 23.0005 16.7367 22.9127 16.8061 22.7737L22.9566 10.4727C23.0579 10.2701 22.9758 10.0237 22.7732 9.92245Z" fill="white"/>
<path d="M12.8664 15.9709C14.5375 15.9709 15.9125 15.2578 15.9125 14.2427V13.6716C15.7645 13.7939 15.5976 13.9068 15.4126 14.0089C14.7287 14.3865 13.8245 14.5945 12.8664 14.5945C11.9098 14.5945 11.0064 14.3871 10.3226 14.0104C10.1367 13.9079 9.96895 13.7947 9.82031 13.6719V14.2427C9.82031 15.2606 11.2001 15.9709 12.8664 15.9709Z" fill="white"/>
<path d="M12.8664 13.7742C14.5375 13.7742 15.9125 13.0611 15.9125 12.0461C15.9125 11.0282 14.5327 10.318 12.8664 10.318C11.1953 10.318 9.82031 11.0311 9.82031 12.0461C9.82031 13.064 11.2001 13.7742 12.8664 13.7742Z" fill="white"/>
</g>
<defs>
<clipPath id="clip0">
<rect x="9" y="9" width="14" height="14" fill="white"/>
</clipPath>
</defs>
</svg>
