<svg width="32" height="32" viewBox="0 0 32 32" fill="none" xmlns="http://www.w3.org/2000/svg">
<circle cx="16" cy="16" r="16" fill="#003467"/>
<g clip-path="url(#clip0)">
<path d="M15 13H17V15H15V13Z" fill="white"/>
<path d="M15.9852 25C17.2075 23.4738 22.4821 16.7032 22.4821 13.4969C22.4821 9.9087 19.5732 7 15.9852 7C12.397 7 9.48828 9.9087 9.48828 13.4969C9.48828 16.7038 14.7627 23.4742 15.9852 25ZM11.5641 12.266L15.7871 9.01759C15.9038 8.92766 16.0666 8.92766 16.1833 9.01759L20.4063 12.266C20.5156 12.3512 20.5589 12.4962 20.5141 12.6272C20.4696 12.7582 20.3466 12.8466 20.2082 12.8472H19.2336V16.4205C19.2336 16.5999 19.0882 16.7454 18.9088 16.7454H13.0616C12.8822 16.7454 12.7367 16.5999 12.7367 16.4205V12.8472H11.7622C11.6233 12.8472 11.4997 12.7587 11.4548 12.6271C11.4101 12.4954 11.454 12.35 11.5641 12.2651V12.266Z" fill="white"/>
</g>
<defs>
<clipPath id="clip0">
<rect x="7" y="7" width="18" height="18" fill="white"/>
</clipPath>
</defs>
</svg>
