<svg width="32" height="32" viewBox="0 0 32 32" fill="none" xmlns="http://www.w3.org/2000/svg">
<circle cx="16" cy="16" r="16" fill="#003467"/>
<path d="M22.5 12.5H20V9.50001C20 9.22386 19.7761 9 19.5 9H9.50001C9.22386 9 9 9.22386 9 9.50001V21C9 22.1046 9.89543 23 11 23H21C22.1046 23 23 22.1046 23 21V13C23 12.7239 22.7761 12.5 22.5 12.5ZM13 11.5H16C16.2761 11.5 16.5 11.7238 16.5 12C16.5 12.2761 16.2761 12.5 16 12.5H13C12.7238 12.5 12.5 12.2761 12.5 12C12.5 11.7238 12.7239 11.5 13 11.5ZM17.5 21H11.5C11.2238 21 11 20.7761 11 20.5C11 20.2238 11.2238 20 11.5 20H17.5C17.7761 20 18 20.2238 18 20.5C18 20.7761 17.7761 21 17.5 21ZM17.5 19H11.5C11.2238 19 11 18.7761 11 18.5C11 18.2238 11.2238 18 11.5 18H17.5C17.7761 18 18 18.2238 18 18.5C18 18.7761 17.7761 19 17.5 19ZM17.5 17H11.5C11.2238 17 11 16.7761 11 16.5C11 16.2238 11.2238 16 11.5 16H17.5C17.7761 16 18 16.2238 18 16.5C18 16.7761 17.7761 17 17.5 17ZM17.5 15H11.5C11.2238 15 11 14.7761 11 14.5C11 14.2238 11.2238 14 11.5 14H17.5C17.7761 14 18 14.2238 18 14.5C18 14.7761 17.7761 15 17.5 15ZM22 21C22 21.5523 21.5523 22 21 22C20.4477 22 20 21.5523 20 21V13.5H22V21H22Z" fill="white"/>
</svg>
