<svg width="32" height="32" viewBox="0 0 32 32" fill="none" xmlns="http://www.w3.org/2000/svg">
<path d="M0 16C0 7.16344 7.16344 0 16 0C24.8366 0 32 7.16344 32 16C32 24.8366 24.8366 32 16 32C7.16344 32 0 24.8366 0 16Z" fill="#003467"/>
<g clip-path="url(#clip0)">
<path d="M23.7177 20.0024L24.181 16.5503C23.7177 16.7301 23.1059 16.8924 22.3592 17.0312C20.6155 17.3576 18.303 17.5375 15.8459 17.5375C13.3887 17.5375 11.0743 17.3576 9.33258 17.0312C8.58977 16.8924 7.98183 16.7321 7.52051 16.5542L7.99356 20.0005C8.01311 20.1061 8.08935 20.2546 8.17145 20.325C8.79502 20.8489 10.1399 21.4783 12.7769 21.7579V18.9039C12.7769 18.6341 12.9958 18.4152 13.2656 18.4152H18.4223C18.692 18.4152 18.9109 18.6341 18.9109 18.9039V21.7637C21.5597 21.492 22.8948 20.8723 23.5379 20.325C23.6219 20.2566 23.6982 20.108 23.7177 20.0024Z" fill="white"/>
<path d="M24.5645 13.7139C24.5078 13.7432 24.4472 13.7726 24.3827 13.7999C23.9018 14.013 23.2215 14.2026 22.3595 14.3649C20.6158 14.6913 18.3033 14.8711 15.8462 14.8711C13.3891 14.8711 11.0746 14.6913 9.33291 14.3649C8.47085 14.2026 7.79059 14.013 7.30972 13.7999C7.24717 13.7726 7.18657 13.7432 7.12988 13.7139L7.42701 15.8739C7.46415 15.8915 7.50324 15.911 7.5482 15.9306C7.98216 16.1222 8.63505 16.304 9.44042 16.4545C11.1489 16.775 13.4242 16.951 15.8462 16.951C18.2682 16.951 20.5435 16.775 22.252 16.4545C23.0573 16.304 23.7122 16.1222 24.1442 15.9306C24.1911 15.9091 24.2341 15.8895 24.2732 15.87L24.5645 13.7139Z" fill="white"/>
<path d="M7.54734 13.2643C7.9813 13.4559 8.63419 13.6377 9.43956 13.7882C9.45911 13.7765 9.48061 13.7667 9.50602 13.7608C10.9311 13.4285 13.2924 13.2311 15.8219 13.2311C18.3846 13.2311 20.7636 13.4324 22.1847 13.7726C22.2023 13.7765 22.2199 13.7843 22.2356 13.7921C22.2414 13.7921 22.2453 13.7901 22.2512 13.7901C23.0566 13.6396 23.7114 13.4578 24.1434 13.2663C24.4953 13.1099 24.6302 12.9789 24.6712 12.9105C24.6829 12.8909 24.6868 12.8773 24.6868 12.8675C24.6868 12.8245 24.5891 12.6661 24.1434 12.4687C23.9518 12.3847 23.7173 12.3006 23.4456 12.2224V11.9175V11.6125V11.2333L24.9312 10.3497C25.0231 10.295 25.0231 10.2051 24.9312 10.1504L23.2735 9.17688C23.2364 9.16124 23.1954 9.15147 23.1523 9.15147C22.9901 9.15147 22.8591 9.28244 22.8591 9.44468V11.4679V11.7689V12.0699C22.6676 12.025 22.4643 11.9839 22.2512 11.9429C20.617 11.636 18.4667 11.462 16.1621 11.4464V11.1532V10.8599V10.5667L17.6477 9.68317C17.7396 9.62843 17.7396 9.53851 17.6477 9.48378L15.9881 8.51226C15.951 8.49662 15.9099 8.48685 15.8669 8.48685C15.7046 8.48685 15.5737 8.61782 15.5737 8.78006V10.8599V11.1532V11.4464C13.2534 11.4581 11.0816 11.634 9.43765 11.9429C9.24021 11.98 9.05451 12.0191 8.87663 12.0582V11.7572V11.4561V11.2294L10.3623 10.3458C10.4541 10.2911 10.4541 10.2012 10.3623 10.1464L8.70265 9.17493C8.66551 9.15929 8.62446 9.14951 8.58145 9.14951C8.41921 9.14951 8.28824 9.28048 8.28824 9.44273V11.5969V11.8999V12.2048C7.99698 12.2869 7.74481 12.3749 7.54347 12.4648C7.09774 12.6623 7 12.8206 7 12.8636C7 12.8734 7.00391 12.8871 7.01564 12.9066C7.0606 12.9789 7.19548 13.1079 7.54734 13.2643Z" fill="white"/>
<path d="M20.9422 13.9915C19.5719 13.7901 17.7539 13.6768 15.8246 13.6768C13.9089 13.6768 12.0969 13.7901 10.7266 13.9895C12.22 14.183 13.991 14.2866 15.8461 14.2866C17.6934 14.2847 19.4527 14.1831 20.9422 13.9915Z" fill="white"/>
<path d="M13.3642 19.0035V21.8145V22.3774L13.071 22.4752L12.7778 22.5729L12.4025 22.6961C12.3009 22.7293 12.2168 22.8447 12.2168 22.9522V23.3177C12.2168 23.4252 12.3048 23.5132 12.4123 23.5132H19.2754C19.383 23.5132 19.4709 23.4252 19.4709 23.3177V22.9522C19.4709 22.8447 19.3869 22.7293 19.2852 22.6961L18.9099 22.5729L18.6167 22.4752L18.3235 22.3774V21.8184V19.0035H17.608V21.5232H14.0797V19.0035H13.3642Z" fill="white"/>
</g>
<defs>
<clipPath id="clip0">
<rect x="7" y="7" width="18" height="18" fill="white"/>
</clipPath>
</defs>
</svg>
