<?xml version="1.0" standalone="no"?>
<!DOCTYPE svg PUBLIC "-//W3C//DTD SVG 20010904//EN"
 "http://www.w3.org/TR/2001/REC-SVG-20010904/DTD/svg10.dtd">
<svg version="1.0" xmlns="http://www.w3.org/2000/svg"
 width="260.000000pt" height="260.000000pt" viewBox="0 0 260.000000 260.000000"
 preserveAspectRatio="xMidYMid meet">
<metadata>
Created by potrace 1.11, written by Peter Selinger 2001-2013
</metadata>
<g transform="translate(0.000000,260.000000) scale(0.100000,-0.100000)"
fill="#000000" stroke="none">
<path d="M1674 2094 c-24 -52 -44 -102 -44 -111 0 -8 69 -91 154 -185 l154
-170 -76 -110 c-41 -60 -94 -125 -116 -145 -23 -19 -99 -64 -171 -100 -211
-106 -295 -166 -295 -210 0 -40 31 -46 127 -22 112 27 160 21 213 -28 54 -48
80 -121 80 -221 0 -47 5 -83 12 -90 7 -7 38 -12 70 -12 72 0 78 9 88 138 6 82
10 98 30 114 30 24 80 22 165 -6 50 -17 74 -21 83 -14 15 13 16 94 2 135 -13
37 -40 50 -133 64 -167 26 -182 72 -83 248 29 53 59 113 66 135 l12 38 53 -52
c58 -57 88 -63 93 -19 3 22 -34 67 -217 269 -122 134 -221 246 -221 250 0 4
23 37 50 73 28 36 50 71 50 76 0 20 -44 51 -72 51 -27 0 -33 -7 -74 -96z"/>
<path d="M656 2149 c-14 -11 -26 -28 -26 -37 0 -9 25 -46 55 -81 l54 -64 -28
-36 c-16 -20 -108 -135 -205 -256 -176 -220 -201 -263 -161 -279 26 -9 41 3
101 79 l57 73 32 -63 c18 -35 59 -99 92 -143 34 -43 68 -93 77 -111 39 -74 1
-116 -131 -144 -50 -11 -87 -25 -98 -37 -19 -22 -31 -103 -21 -144 8 -32 25
-33 101 -1 34 14 80 25 107 25 62 0 77 -22 89 -132 12 -106 25 -122 97 -116
64 6 93 28 74 58 -22 35 -13 85 27 166 61 120 133 201 249 277 115 76 149 120
143 185 -2 21 -39 13 -112 -23 -182 -92 -294 -82 -425 38 -46 41 -152 161
-213 239 -12 16 -1 34 101 161 63 78 120 152 126 164 10 17 5 33 -29 99 -72
138 -80 144 -133 103z"/>
<path d="M1698 1729 c-10 -5 -22 -28 -28 -50 -9 -32 -15 -39 -28 -34 -69 28
-162 7 -206 -46 -14 -16 -28 -29 -31 -29 -4 0 -20 11 -37 25 -36 30 -61 32
-88 5 -20 -20 -26 -71 -14 -116 5 -20 6 -20 54 4 27 13 53 21 58 18 6 -3 15
-28 22 -56 37 -152 242 -173 327 -32 29 46 29 84 2 139 -12 24 -19 47 -15 50
3 4 31 8 61 11 l54 4 -15 37 c-26 65 -75 94 -116 70z"/>
<path d="M969 1711 c12 -22 -1 -35 -65 -71 -97 -53 -114 -192 -32 -266 43 -40
88 -57 139 -52 158 16 227 207 108 301 -35 27 -45 37 -85 81 -28 32 -81 38
-65 7z"/>
<path d="M2192 1068 c-12 -12 -17 -134 -6 -162 8 -21 50 -21 58 0 3 9 6 44 6
79 0 35 -3 70 -6 79 -7 19 -35 21 -52 4z"/>
<path d="M367 1044 c-4 -4 -7 -30 -7 -58 0 -113 22 -159 57 -123 13 13 15 28
7 99 -8 72 -12 83 -29 86 -12 2 -24 0 -28 -4z"/>
<path d="M871 650 c-64 -42 -78 -72 -36 -78 27 -4 134 44 142 63 5 15 -22 55
-37 55 -4 0 -35 -18 -69 -40z"/>
<path d="M1682 651 c-8 -5 -12 -17 -10 -27 3 -17 14 -19 96 -22 76 -2 93 0 98
13 13 32 -15 45 -95 45 -42 0 -82 -4 -89 -9z"/>
</g>
</svg>
