<svg width="1018" height="1627" viewBox="0 0 1018 1627" fill="none" xmlns="http://www.w3.org/2000/svg">
<path d="M43.49 133.6L32.78 109.32L21.98 133.6H3.97998L18.29 104.14L5.14998 75.84H23.07L32.78 98.69L42.4 75.84H60.31L47.17 104.14L61.48 133.6H43.49Z" stroke="white" stroke-width="8" stroke-linecap="round" stroke-linejoin="round"/>
<path fill-rule="evenodd" clip-rule="evenodd" d="M85.26 90.58C93.79 90.58 99.82 92.24 103.34 95.56C106.85 98.88 108.61 104.61 108.61 112.76C108.61 120.79 106.85 126.44 103.34 129.71C99.82 132.97 93.79 134.6 85.26 134.6C76.66 134.6 70.61 132.97 67.09 129.71C63.58 126.44 61.82 120.79 61.82 112.76C61.82 104.61 63.58 98.88 67.09 95.56C70.61 92.24 76.66 90.58 85.26 90.58ZM85.26 102.46C83.19 102.46 81.84 103.1 81.2 104.39C80.55 105.67 80.23 108.46 80.23 112.76C80.23 116.89 80.55 119.58 81.2 120.83C81.84 122.09 83.19 122.72 85.26 122.72C87.26 122.72 88.59 122.09 89.23 120.83C89.87 119.58 90.19 116.89 90.19 112.76C90.19 108.46 89.87 105.67 89.23 104.39C88.59 103.1 87.26 102.46 85.26 102.46Z" stroke="white" stroke-width="8" stroke-linecap="round" stroke-linejoin="round"/>
<path d="M157.57 91.75V133.6H140.08V119.7C136.06 121.1 131.96 121.8 127.78 121.8C122.81 121.8 119.17 121 116.85 119.41C114.54 117.82 113.38 115.3 113.38 111.84V91.75H130.87V106.73C130.87 108.4 131.85 109.24 133.8 109.24C135.92 109.24 138.02 108.85 140.08 108.07V91.75H157.57Z" stroke="white" stroke-width="8" stroke-linecap="round" stroke-linejoin="round"/>
<path fill-rule="evenodd" clip-rule="evenodd" d="M192.81 116.52H182.35C182.68 118.25 183.37 119.45 184.4 120.12C185.43 120.79 187.06 121.13 189.3 121.13C194.77 121.13 200.43 120.82 206.29 120.21L207.88 130.75C202.8 133.32 195.96 134.6 187.37 134.6C178.83 134.6 172.72 132.83 169.04 129.29C165.36 125.74 163.52 120.32 163.52 113.01C163.52 104.8 165.3 99.02 168.87 95.64C172.44 92.26 178.58 90.58 187.29 90.58C194.99 90.58 200.53 91.8 203.9 94.26C207.28 96.71 208.99 100.45 209.05 105.47C209.11 109.44 207.92 112.27 205.49 113.97C203.07 115.67 198.84 116.52 192.81 116.52ZM182.01 108.24H187.87C189.77 108.24 190.97 108.05 191.47 107.69C191.98 107.33 192.23 106.45 192.23 105.06C192.23 103.77 191.91 102.92 191.26 102.5C190.62 102.08 189.46 101.87 187.79 101.87C185.56 101.82 184.07 102.18 183.31 102.96C182.56 103.74 182.13 105.5 182.01 108.24Z" stroke="white" stroke-width="8" stroke-linecap="round" stroke-linejoin="round"/>
<path d="M279.78 91.75V133.6H214.66V91.75H231.57V122.21H239.52V91.75H254.92V122.21H262.87V91.75H279.78Z" stroke="white" stroke-width="8" stroke-linecap="round" stroke-linejoin="round"/>
<path fill-rule="evenodd" clip-rule="evenodd" d="M304.3 104.89H307.57C315.94 104.89 321.67 105.89 324.77 107.9C327.87 109.91 329.41 113.76 329.41 119.45C329.41 124.98 327.95 128.8 325.02 130.92C322.09 133.04 317.28 134.1 310.58 134.1C300.82 134.1 293.28 133.93 287.98 133.6H287.48V91.75H304.3V104.89ZM304.3 122.88H307.57C309.35 122.88 310.51 122.63 311.04 122.13C311.57 121.63 311.84 120.51 311.84 118.78C311.84 117 311.57 115.85 311.04 115.35C310.51 114.85 309.35 114.6 307.57 114.6H304.3V122.88Z" stroke="white" stroke-width="8" stroke-linecap="round" stroke-linejoin="round"/>
<path d="M43.49 133.6L32.78 109.32L21.98 133.6H3.97998L18.29 104.14L5.14998 75.84H23.07L32.78 98.69L42.4 75.84H60.31L47.17 104.14L61.48 133.6H43.49Z" fill="#0C235E"/>
<path fill-rule="evenodd" clip-rule="evenodd" d="M85.26 90.58C93.79 90.58 99.82 92.24 103.34 95.56C106.85 98.88 108.61 104.61 108.61 112.76C108.61 120.79 106.85 126.44 103.34 129.71C99.82 132.97 93.79 134.6 85.26 134.6C76.66 134.6 70.61 132.97 67.09 129.71C63.58 126.44 61.82 120.79 61.82 112.76C61.82 104.61 63.58 98.88 67.09 95.56C70.61 92.24 76.66 90.58 85.26 90.58ZM85.26 102.46C83.19 102.46 81.84 103.1 81.2 104.39C80.55 105.67 80.23 108.46 80.23 112.76C80.23 116.89 80.55 119.58 81.2 120.83C81.84 122.09 83.19 122.72 85.26 122.72C87.26 122.72 88.59 122.09 89.23 120.83C89.87 119.58 90.19 116.89 90.19 112.76C90.19 108.46 89.87 105.67 89.23 104.39C88.59 103.1 87.26 102.46 85.26 102.46Z" fill="#0C235E"/>
<path d="M157.57 91.75V133.6H140.08V119.7C136.06 121.1 131.96 121.8 127.78 121.8C122.81 121.8 119.17 121 116.85 119.41C114.54 117.82 113.38 115.3 113.38 111.84V91.75H130.87V106.73C130.87 108.4 131.85 109.24 133.8 109.24C135.92 109.24 138.02 108.85 140.08 108.07V91.75H157.57Z" fill="#0C235E"/>
<path fill-rule="evenodd" clip-rule="evenodd" d="M192.81 116.52H182.35C182.68 118.25 183.37 119.45 184.4 120.12C185.43 120.79 187.06 121.13 189.3 121.13C194.77 121.13 200.43 120.82 206.29 120.21L207.88 130.75C202.8 133.32 195.96 134.6 187.37 134.6C178.83 134.6 172.72 132.83 169.04 129.29C165.36 125.74 163.52 120.32 163.52 113.01C163.52 104.8 165.3 99.02 168.87 95.64C172.44 92.26 178.58 90.58 187.29 90.58C194.99 90.58 200.53 91.8 203.9 94.26C207.28 96.71 208.99 100.45 209.05 105.47C209.11 109.44 207.92 112.27 205.49 113.97C203.07 115.67 198.84 116.52 192.81 116.52ZM182.01 108.24H187.87C189.77 108.24 190.97 108.05 191.47 107.69C191.98 107.33 192.23 106.45 192.23 105.06C192.23 103.77 191.91 102.92 191.26 102.5C190.62 102.08 189.46 101.87 187.79 101.87C185.56 101.82 184.07 102.18 183.31 102.96C182.56 103.74 182.13 105.5 182.01 108.24Z" fill="#0C235E"/>
<path d="M279.78 91.75V133.6H214.66V91.75H231.57V122.21H239.52V91.75H254.92V122.21H262.87V91.75H279.78Z" fill="#0C235E"/>
<path fill-rule="evenodd" clip-rule="evenodd" d="M304.3 104.89H307.57C315.94 104.89 321.67 105.89 324.77 107.9C327.87 109.91 329.41 113.76 329.41 119.45C329.41 124.98 327.95 128.8 325.02 130.92C322.09 133.04 317.28 134.1 310.58 134.1C300.82 134.1 293.28 133.93 287.98 133.6H287.48V91.75H304.3V104.89ZM304.3 122.88H307.57C309.35 122.88 310.51 122.63 311.04 122.13C311.57 121.63 311.84 120.51 311.84 118.78C311.84 117 311.57 115.85 311.04 115.35C310.51 114.85 309.35 114.6 307.57 114.6H304.3V122.88Z" fill="#0C235E"/>
<path d="M247.68 155.02V217.46H228.04V167.87H212.66V217.46H193.02V155.02H247.68Z" stroke="white" stroke-width="8" stroke-linecap="round" stroke-linejoin="round"/>
<path fill-rule="evenodd" clip-rule="evenodd" d="M284.78 153.76C292.2 153.76 297.95 154.68 302.02 156.52C306.1 158.36 309.1 161.61 311.03 166.29C312.96 170.97 313.92 177.62 313.92 186.24C313.92 194.87 312.96 201.52 311.03 206.2C309.1 210.87 306.1 214.13 302.02 215.97C297.95 217.81 292.2 218.73 284.78 218.73C277.42 218.73 271.71 217.81 267.64 215.97C263.56 214.13 260.56 210.87 258.63 206.2C256.7 201.52 255.73 194.87 255.73 186.24C255.73 177.62 256.7 170.97 258.63 166.29C260.56 161.61 263.56 158.36 267.64 156.52C271.71 154.68 277.42 153.76 284.78 153.76ZM291.53 171.9C290.41 169.52 288.16 168.33 284.78 168.33C281.41 168.33 279.16 169.52 278.04 171.9C276.93 174.28 276.37 179.06 276.37 186.24C276.37 193.42 276.93 198.2 278.04 200.59C279.16 202.97 281.41 204.16 284.78 204.16C288.16 204.16 290.41 202.97 291.53 200.59C292.64 198.2 293.2 193.42 293.2 186.24C293.2 179.06 292.64 174.28 291.53 171.9Z" stroke="white" stroke-width="8" stroke-linecap="round" stroke-linejoin="round"/>
<path d="M376.64 155.02V217.46H357V167.87H341.62V217.46H321.98V155.02H376.64Z" stroke="white" stroke-width="8" stroke-linecap="round" stroke-linejoin="round"/>
<path fill-rule="evenodd" clip-rule="evenodd" d="M386.86 217.46V155.02C393.02 154.42 401.83 154.12 413.29 154.12C423.24 154.12 430.04 155.6 433.69 158.55C437.34 161.51 439.17 167.12 439.17 175.38C439.17 183.53 437.48 189.08 434.1 192.04C430.72 194.99 424.69 196.47 416 196.47C412.74 196.47 409.58 196.29 406.5 195.93V217.46H386.86ZM406.5 182.62H412.84C415.49 182.62 417.27 182.14 418.17 181.18C419.08 180.21 419.53 178.28 419.53 175.38C419.53 172.43 419.08 170.45 418.17 169.46C417.27 168.46 415.49 167.96 412.84 167.96H406.5V182.62Z" stroke="white" stroke-width="8" stroke-linecap="round" stroke-linejoin="round"/>
<path fill-rule="evenodd" clip-rule="evenodd" d="M472.56 153.76C479.98 153.76 485.73 154.68 489.8 156.52C493.87 158.36 496.88 161.61 498.81 166.29C500.74 170.97 501.7 177.62 501.7 186.24C501.7 194.87 500.74 201.52 498.81 206.2C496.88 210.87 493.87 214.13 489.8 215.97C485.73 217.81 479.98 218.73 472.56 218.73C465.2 218.73 459.49 217.81 455.41 215.97C451.34 214.13 448.34 210.87 446.41 206.2C444.48 201.52 443.51 194.87 443.51 186.24C443.51 177.62 444.48 170.97 446.41 166.29C448.34 161.61 451.34 158.36 455.41 156.52C459.49 154.68 465.2 153.76 472.56 153.76ZM479.3 171.9C478.19 169.52 475.94 168.33 472.56 168.33C469.18 168.33 466.94 169.52 465.82 171.9C464.7 174.28 464.15 179.06 464.15 186.24C464.15 193.42 464.7 198.2 465.82 200.59C466.94 202.97 469.18 204.16 472.56 204.16C475.94 204.16 478.19 202.97 479.3 200.59C480.42 198.2 480.98 193.42 480.98 186.24C480.98 179.06 480.42 174.28 479.3 171.9Z" stroke="white" stroke-width="8" stroke-linecap="round" stroke-linejoin="round"/>
<path fill-rule="evenodd" clip-rule="evenodd" d="M529.3 179.19H535.55C545.32 179.19 552.08 180.54 555.82 183.26C559.56 185.97 561.43 191.04 561.43 198.46C561.43 205.88 559.62 211.02 556 213.89C552.38 216.76 546.44 218.19 538.17 218.19C525.98 218.19 516.66 217.95 510.21 217.46H509.67V155.02C516.72 154.54 524.48 154.3 532.92 154.3C540.65 154.3 548.67 154.54 556.99 155.02L555.55 169.05H529.3V179.19ZM529.3 204.61H535.55C538.14 204.61 539.83 204.18 540.62 203.3C541.4 202.43 541.79 200.6 541.79 197.83C541.79 195.05 541.4 193.23 540.62 192.35C539.83 191.48 538.14 191.04 535.55 191.04H529.3V204.61Z" stroke="white" stroke-width="8" stroke-linecap="round" stroke-linejoin="round"/>
<path fill-rule="evenodd" clip-rule="evenodd" d="M595.18 153.76C602.6 153.76 608.35 154.68 612.42 156.52C616.5 158.36 619.5 161.61 621.43 166.29C623.36 170.97 624.32 177.62 624.32 186.24C624.32 194.87 623.36 201.52 621.43 206.2C619.5 210.87 616.5 214.13 612.42 215.97C608.35 217.81 602.6 218.73 595.18 218.73C587.82 218.73 582.11 217.81 578.04 215.97C573.96 214.13 570.96 210.87 569.03 206.2C567.1 201.52 566.13 194.87 566.13 186.24C566.13 177.62 567.1 170.97 569.03 166.29C570.96 161.61 573.96 158.36 578.04 156.52C582.11 154.68 587.82 153.76 595.18 153.76ZM601.93 171.9C600.81 169.52 598.56 168.33 595.18 168.33C591.81 168.33 589.56 169.52 588.44 171.9C587.33 174.28 586.77 179.06 586.77 186.24C586.77 193.42 587.33 198.2 588.44 200.59C589.56 202.97 591.81 204.16 595.18 204.16C598.56 204.16 600.81 202.97 601.93 200.59C603.04 198.2 603.6 193.42 603.6 186.24C603.6 179.06 603.04 174.28 601.93 171.9Z" stroke="white" stroke-width="8" stroke-linecap="round" stroke-linejoin="round"/>
<path fill-rule="evenodd" clip-rule="evenodd" d="M671.38 184.8V185.34C676.21 185.76 679.66 187.33 681.74 190.04C683.82 192.76 684.87 196.71 684.87 201.9C684.87 208.11 683.13 212.38 679.66 214.7C676.19 217.03 670.39 218.19 662.24 218.19C649.03 218.19 639.04 217.95 632.29 217.46V155.02C638.44 154.54 647.43 154.3 659.26 154.3C668.12 154.3 674.26 155.43 677.67 157.69C681.08 159.95 682.78 164.25 682.78 170.59C682.78 175.11 681.89 178.52 680.11 180.81C678.33 183.11 675.42 184.43 671.38 184.8ZM651.47 179.37H658.44C660.73 179.37 662.24 178.97 662.97 178.19C663.69 177.41 664.05 175.81 664.05 173.39C664.05 170.98 663.67 169.41 662.92 168.69C662.17 167.96 660.61 167.6 658.26 167.6H651.47V179.37ZM651.47 204.89H658.71C661.43 204.89 663.21 204.43 664.05 203.53C664.9 202.62 665.32 200.75 665.32 197.92C665.32 195.02 664.9 193.12 664.05 192.22C663.21 191.31 661.4 190.86 658.62 190.86H651.47V204.89Z" stroke="white" stroke-width="8" stroke-linecap="round" stroke-linejoin="round"/>
<path fill-rule="evenodd" clip-rule="evenodd" d="M726.76 203.98H709.66L706.49 217.46H686.49L702.69 160.09C703.12 158.58 703.93 157.36 705.14 156.43C706.34 155.49 707.73 155.02 709.3 155.02H727.13C728.69 155.02 730.08 155.49 731.29 156.43C732.5 157.36 733.31 158.58 733.73 160.09L749.93 217.46H729.93L726.76 203.98ZM723.6 190.23L720.52 176.83C719.98 174 719.62 171.61 719.43 169.68H716.99C716.63 172.52 716.27 174.9 715.91 176.83L712.83 190.23H723.6Z" stroke="white" stroke-width="8" stroke-linecap="round" stroke-linejoin="round"/>
<path d="M799.52 169.68H782.06V217.46H762.42V169.68H744.95V155.02H799.52V169.68Z" stroke="white" stroke-width="8" stroke-linecap="round" stroke-linejoin="round"/>
<path fill-rule="evenodd" clip-rule="evenodd" d="M825.22 176.47H830.74C840.34 176.47 846.94 177.93 850.56 180.86C854.18 183.79 855.99 189.26 855.99 197.28C855.99 205.19 854.32 210.65 850.97 213.66C847.62 216.68 842.06 218.19 834.27 218.19C821.85 218.19 812.46 217.95 806.13 217.46H805.59V155.02H825.22V176.47ZM825.22 204.61H830.74C833.1 204.61 834.62 204.1 835.31 203.08C836.01 202.05 836.35 199.88 836.35 196.56C836.35 193.24 836.01 191.04 835.31 189.95C834.62 188.87 833.1 188.33 830.74 188.33H825.22V204.61Z" stroke="white" stroke-width="8" stroke-linecap="round" stroke-linejoin="round"/>
<path d="M247.68 155.02V217.46H228.04V167.87H212.66V217.46H193.02V155.02H247.68Z" fill="#0C235E"/>
<path fill-rule="evenodd" clip-rule="evenodd" d="M284.78 153.76C292.2 153.76 297.95 154.68 302.02 156.52C306.1 158.36 309.1 161.61 311.03 166.29C312.96 170.97 313.92 177.62 313.92 186.24C313.92 194.87 312.96 201.52 311.03 206.2C309.1 210.87 306.1 214.13 302.02 215.97C297.95 217.81 292.2 218.73 284.78 218.73C277.42 218.73 271.71 217.81 267.64 215.97C263.56 214.13 260.56 210.87 258.63 206.2C256.7 201.52 255.73 194.87 255.73 186.24C255.73 177.62 256.7 170.97 258.63 166.29C260.56 161.61 263.56 158.36 267.64 156.52C271.71 154.68 277.42 153.76 284.78 153.76ZM291.53 171.9C290.41 169.52 288.16 168.33 284.78 168.33C281.41 168.33 279.16 169.52 278.04 171.9C276.93 174.28 276.37 179.06 276.37 186.24C276.37 193.42 276.93 198.2 278.04 200.59C279.16 202.97 281.41 204.16 284.78 204.16C288.16 204.16 290.41 202.97 291.53 200.59C292.64 198.2 293.2 193.42 293.2 186.24C293.2 179.06 292.64 174.28 291.53 171.9Z" fill="#0C235E"/>
<path d="M376.64 155.02V217.46H357V167.87H341.62V217.46H321.98V155.02H376.64Z" fill="#0C235E"/>
<path fill-rule="evenodd" clip-rule="evenodd" d="M386.86 217.46V155.02C393.02 154.42 401.83 154.12 413.29 154.12C423.24 154.12 430.04 155.6 433.69 158.55C437.34 161.51 439.17 167.12 439.17 175.38C439.17 183.53 437.48 189.08 434.1 192.04C430.72 194.99 424.69 196.47 416 196.47C412.74 196.47 409.58 196.29 406.5 195.93V217.46H386.86ZM406.5 182.62H412.84C415.49 182.62 417.27 182.14 418.17 181.18C419.08 180.21 419.53 178.28 419.53 175.38C419.53 172.43 419.08 170.45 418.17 169.46C417.27 168.46 415.49 167.96 412.84 167.96H406.5V182.62Z" fill="#0C235E"/>
<path fill-rule="evenodd" clip-rule="evenodd" d="M472.56 153.76C479.98 153.76 485.73 154.68 489.8 156.52C493.87 158.36 496.88 161.61 498.81 166.29C500.74 170.97 501.7 177.62 501.7 186.24C501.7 194.87 500.74 201.52 498.81 206.2C496.88 210.87 493.87 214.13 489.8 215.97C485.73 217.81 479.98 218.73 472.56 218.73C465.2 218.73 459.49 217.81 455.41 215.97C451.34 214.13 448.34 210.87 446.41 206.2C444.48 201.52 443.51 194.87 443.51 186.24C443.51 177.62 444.48 170.97 446.41 166.29C448.34 161.61 451.34 158.36 455.41 156.52C459.49 154.68 465.2 153.76 472.56 153.76ZM479.3 171.9C478.19 169.52 475.94 168.33 472.56 168.33C469.18 168.33 466.94 169.52 465.82 171.9C464.7 174.28 464.15 179.06 464.15 186.24C464.15 193.42 464.7 198.2 465.82 200.59C466.94 202.97 469.18 204.16 472.56 204.16C475.94 204.16 478.19 202.97 479.3 200.59C480.42 198.2 480.98 193.42 480.98 186.24C480.98 179.06 480.42 174.28 479.3 171.9Z" fill="#0C235E"/>
<path fill-rule="evenodd" clip-rule="evenodd" d="M529.3 179.19H535.55C545.32 179.19 552.08 180.54 555.82 183.26C559.56 185.97 561.43 191.04 561.43 198.46C561.43 205.88 559.62 211.02 556 213.89C552.38 216.76 546.44 218.19 538.17 218.19C525.98 218.19 516.66 217.95 510.21 217.46H509.67V155.02C516.72 154.54 524.48 154.3 532.92 154.3C540.65 154.3 548.67 154.54 556.99 155.02L555.55 169.05H529.3V179.19ZM529.3 204.61H535.55C538.14 204.61 539.83 204.18 540.62 203.3C541.4 202.43 541.79 200.6 541.79 197.83C541.79 195.05 541.4 193.23 540.62 192.35C539.83 191.48 538.14 191.04 535.55 191.04H529.3V204.61Z" fill="#0C235E"/>
<path fill-rule="evenodd" clip-rule="evenodd" d="M595.18 153.76C602.6 153.76 608.35 154.68 612.42 156.52C616.5 158.36 619.5 161.61 621.43 166.29C623.36 170.97 624.32 177.62 624.32 186.24C624.32 194.87 623.36 201.52 621.43 206.2C619.5 210.87 616.5 214.13 612.42 215.97C608.35 217.81 602.6 218.73 595.18 218.73C587.82 218.73 582.11 217.81 578.04 215.97C573.96 214.13 570.96 210.87 569.03 206.2C567.1 201.52 566.13 194.87 566.13 186.24C566.13 177.62 567.1 170.97 569.03 166.29C570.96 161.61 573.96 158.36 578.04 156.52C582.11 154.68 587.82 153.76 595.18 153.76ZM601.93 171.9C600.81 169.52 598.56 168.33 595.18 168.33C591.81 168.33 589.56 169.52 588.44 171.9C587.33 174.28 586.77 179.06 586.77 186.24C586.77 193.42 587.33 198.2 588.44 200.59C589.56 202.97 591.81 204.16 595.18 204.16C598.56 204.16 600.81 202.97 601.93 200.59C603.04 198.2 603.6 193.42 603.6 186.24C603.6 179.06 603.04 174.28 601.93 171.9Z" fill="#0C235E"/>
<path fill-rule="evenodd" clip-rule="evenodd" d="M671.38 184.8V185.34C676.21 185.76 679.66 187.33 681.74 190.04C683.82 192.76 684.87 196.71 684.87 201.9C684.87 208.11 683.13 212.38 679.66 214.7C676.19 217.03 670.39 218.19 662.24 218.19C649.03 218.19 639.04 217.95 632.29 217.46V155.02C638.44 154.54 647.43 154.3 659.26 154.3C668.12 154.3 674.26 155.43 677.67 157.69C681.08 159.95 682.78 164.25 682.78 170.59C682.78 175.11 681.89 178.52 680.11 180.81C678.33 183.11 675.42 184.43 671.38 184.8ZM651.47 179.37H658.44C660.73 179.37 662.24 178.97 662.97 178.19C663.69 177.41 664.05 175.81 664.05 173.39C664.05 170.98 663.67 169.41 662.92 168.69C662.17 167.96 660.61 167.6 658.26 167.6H651.47V179.37ZM651.47 204.89H658.71C661.43 204.89 663.21 204.43 664.05 203.53C664.9 202.62 665.32 200.75 665.32 197.92C665.32 195.02 664.9 193.12 664.05 192.22C663.21 191.31 661.4 190.86 658.62 190.86H651.47V204.89Z" fill="#0C235E"/>
<path fill-rule="evenodd" clip-rule="evenodd" d="M726.76 203.98H709.66L706.49 217.46H686.49L702.69 160.09C703.12 158.58 703.93 157.36 705.14 156.43C706.34 155.49 707.73 155.02 709.3 155.02H727.13C728.69 155.02 730.08 155.49 731.29 156.43C732.5 157.36 733.31 158.58 733.73 160.09L749.93 217.46H729.93L726.76 203.98ZM723.6 190.23L720.52 176.83C719.98 174 719.62 171.61 719.43 169.68H716.99C716.63 172.52 716.27 174.9 715.91 176.83L712.83 190.23H723.6Z" fill="#0C235E"/>
<path d="M799.52 169.68H782.06V217.46H762.42V169.68H744.95V155.02H799.52V169.68Z" fill="#0C235E"/>
<path fill-rule="evenodd" clip-rule="evenodd" d="M825.22 176.47H830.74C840.34 176.47 846.94 177.93 850.56 180.86C854.18 183.79 855.99 189.26 855.99 197.28C855.99 205.19 854.32 210.65 850.97 213.66C847.62 216.68 842.06 218.19 834.27 218.19C821.85 218.19 812.46 217.95 806.13 217.46H805.59V155.02H825.22V176.47ZM825.22 204.61H830.74C833.1 204.61 834.62 204.1 835.31 203.08C836.01 202.05 836.35 199.88 836.35 196.56C836.35 193.24 836.01 191.04 835.31 189.95C834.62 188.87 833.1 188.33 830.74 188.33H825.22V204.61Z" fill="#0C235E"/>
<path d="M194.99 293.18L193.59 280.24C199.36 278.9 206.7 278.23 215.62 278.23C223.9 278.23 229.62 279.33 232.8 281.51C235.98 283.7 237.57 287.85 237.57 293.97C237.57 298.4 236.75 301.71 235.12 303.89C233.49 306.08 230.8 307.35 227.07 307.7V308.22C231.5 308.63 234.68 310.14 236.6 312.77C238.53 315.39 239.49 319.21 239.49 324.22C239.49 330.22 237.87 334.35 234.64 336.59C231.4 338.83 226 339.96 218.42 339.96C208.04 339.96 199.45 338.85 192.63 336.63L194.03 324.31C202.42 325.65 209.3 326.32 214.66 326.32C216.82 326.32 218.26 325.92 218.99 325.14C219.72 324.35 220.08 322.76 220.08 320.37C220.08 317.87 219.72 316.22 218.99 315.43C218.26 314.65 216.79 314.22 214.57 314.17L201.28 313.9V302.1L214.4 301.84C216.2 301.78 217.4 301.42 217.98 300.75C218.57 300.07 218.86 298.72 218.86 296.68C218.86 294.76 218.55 293.47 217.94 292.83C217.33 292.19 216.12 291.87 214.31 291.87C209.06 291.87 202.62 292.31 194.99 293.18Z" stroke="white" stroke-width="8" stroke-linecap="round" stroke-linejoin="round"/>
<path fill-rule="evenodd" clip-rule="evenodd" d="M280.23 326.23H263.71L260.65 339.26H241.33L256.97 283.83C257.38 282.37 258.17 281.19 259.34 280.29C260.5 279.38 261.84 278.93 263.36 278.93H280.58C282.1 278.93 283.44 279.38 284.6 280.29C285.77 281.19 286.55 282.37 286.96 283.83L302.61 339.26H283.29L280.23 326.23ZM277.17 312.94L274.2 300C273.67 297.26 273.32 294.96 273.15 293.1H270.79C270.44 295.83 270.09 298.14 269.74 300L266.77 312.94H277.17Z" stroke="white" stroke-width="8" stroke-linecap="round" stroke-linejoin="round"/>
<path d="M359.61 278.93V339.26H340.64V291.35H325.78V339.26H306.81V278.93H359.61Z" stroke="white" stroke-width="8" stroke-linecap="round" stroke-linejoin="round"/>
<path fill-rule="evenodd" clip-rule="evenodd" d="M395.46 277.71C402.63 277.71 408.18 278.6 412.11 280.37C416.05 282.15 418.95 285.3 420.81 289.82C422.68 294.33 423.61 300.76 423.61 309.09C423.61 317.43 422.68 323.86 420.81 328.37C418.95 332.89 416.05 336.04 412.11 337.81C408.18 339.59 402.63 340.48 395.46 340.48C388.35 340.48 382.83 339.59 378.89 337.81C374.96 336.04 372.06 332.89 370.19 328.37C368.33 323.86 367.4 317.43 367.4 309.09C367.4 300.76 368.33 294.33 370.19 289.82C372.06 285.3 374.96 282.15 378.89 280.37C382.83 278.6 388.35 277.71 395.46 277.71ZM401.97 295.24C400.89 292.94 398.72 291.78 395.46 291.78C392.2 291.78 390.02 292.94 388.95 295.24C387.87 297.54 387.33 302.16 387.33 309.09C387.33 316.03 387.87 320.65 388.95 322.95C390.02 325.25 392.2 326.41 395.46 326.41C398.72 326.41 400.89 325.25 401.97 322.95C403.05 320.65 403.59 316.03 403.59 309.09C403.59 302.16 403.05 297.54 401.97 295.24Z" stroke="white" stroke-width="8" stroke-linecap="round" stroke-linejoin="round"/>
<path d="M482.8 278.93V339.26H463.83V291.35H460.16C457.24 291.35 455.7 292.69 455.52 295.37C454.47 309.3 453.07 319.15 451.33 324.92C449.4 331.56 446.37 335.96 442.23 338.12C438.1 340.28 432.91 340.8 426.67 339.69L425.36 325.01C426.99 324.83 428.26 324.63 429.16 324.39C430.07 324.16 430.97 323.68 431.87 322.95C432.78 322.22 433.46 321.19 433.93 319.85C435.5 315.19 436.73 306.59 437.6 294.06C438.24 283.97 443.54 278.93 453.51 278.93H482.8Z" stroke="white" stroke-width="8" stroke-linecap="round" stroke-linejoin="round"/>
<path d="M545.92 278.93V339.26H526.95V313.9H511.74V339.26H492.77V278.93H511.74V300.61H526.95V278.93H545.92Z" stroke="white" stroke-width="8" stroke-linecap="round" stroke-linejoin="round"/>
<path d="M610.09 339.26H592.08V311.54C592.08 309.15 592.4 306.03 593.05 302.19H592.43C591.38 305.74 590.16 308.83 588.76 311.46L573.99 339.26H555.89V278.93H573.9V305.69C573.9 308.13 573.58 311.4 572.94 315.48H573.55C574.66 311.98 575.94 308.89 577.4 306.21L592.08 278.93H610.09V339.26Z" stroke="white" stroke-width="8" stroke-linecap="round" stroke-linejoin="round"/>
<path fill-rule="evenodd" clip-rule="evenodd" d="M681.26 275.09V282.34C691.4 283.04 698.51 285.3 702.59 289.12C706.67 292.94 708.71 299.3 708.71 308.22C708.71 316.79 706.67 322.92 702.59 326.62C698.51 330.33 691.4 332.53 681.26 333.22V340.48H662.29V333.22C652.15 332.58 645.04 330.4 640.96 326.67C636.88 322.94 634.84 316.79 634.84 308.22C634.84 299.3 636.88 292.94 640.96 289.12C645.04 285.3 652.15 283.04 662.29 282.34V275.09H681.26ZM663.16 319.94V295.63C659.32 296.04 656.8 297.1 655.6 298.82C654.41 300.54 653.81 303.67 653.81 308.22C653.81 312.42 654.41 315.32 655.6 316.92C656.8 318.52 659.32 319.53 663.16 319.94ZM680.39 295.63V319.94C684.23 319.53 686.75 318.52 687.95 316.92C689.14 315.32 689.74 312.42 689.74 308.22C689.74 303.73 689.14 300.61 687.95 298.87C686.75 297.12 684.23 296.04 680.39 295.63Z" stroke="white" stroke-width="8" stroke-linecap="round" stroke-linejoin="round"/>
<path fill-rule="evenodd" clip-rule="evenodd" d="M740.97 277.71C748.14 277.71 753.69 278.6 757.63 280.37C761.56 282.15 764.46 285.3 766.33 289.82C768.19 294.33 769.13 300.76 769.13 309.09C769.13 317.43 768.19 323.86 766.33 328.37C764.46 332.89 761.56 336.04 757.63 337.81C753.69 339.59 748.14 340.48 740.97 340.48C733.86 340.48 728.34 339.59 724.41 337.81C720.47 336.04 717.57 332.89 715.71 328.37C713.84 323.86 712.91 317.43 712.91 309.09C712.91 300.76 713.84 294.33 715.71 289.82C717.57 285.3 720.47 282.15 724.41 280.37C728.34 278.6 733.86 277.71 740.97 277.71ZM747.49 295.24C746.41 292.94 744.24 291.78 740.97 291.78C737.71 291.78 735.54 292.94 734.46 295.24C733.38 297.54 732.84 302.16 732.84 309.09C732.84 316.03 733.38 320.65 734.46 322.95C735.54 325.25 737.71 326.41 740.97 326.41C744.24 326.41 746.41 325.25 747.49 322.95C748.57 320.65 749.1 316.03 749.1 309.09C749.1 302.16 748.57 297.54 747.49 295.24Z" stroke="white" stroke-width="8" stroke-linecap="round" stroke-linejoin="round"/>
<path fill-rule="evenodd" clip-rule="evenodd" d="M776.82 339.26V278.93C782.76 278.35 791.27 278.06 802.35 278.06C811.96 278.06 818.54 279.49 822.06 282.34C825.59 285.2 827.35 290.62 827.35 298.6C827.35 306.47 825.72 311.83 822.46 314.69C819.19 317.55 813.36 318.97 804.97 318.97C801.82 318.97 798.76 318.8 795.79 318.45V339.26H776.82ZM795.79 305.6H801.91C804.48 305.6 806.19 305.13 807.07 304.2C807.94 303.27 808.38 301.4 808.38 298.6C808.38 295.75 807.94 293.84 807.07 292.88C806.19 291.92 804.48 291.43 801.91 291.43H795.79V305.6Z" stroke="white" stroke-width="8" stroke-linecap="round" stroke-linejoin="round"/>
<path d="M883.39 278.93H900.09C904.35 278.93 906.56 281.12 906.74 285.49L908.83 339.26H891.79L889.95 293.1H888.64L882.69 323.87C882.05 327.72 879.66 329.64 875.52 329.64H865.73C861.59 329.64 859.18 327.72 858.48 323.87L852.44 293.1H851.13L849.65 339.26H832.6L834.7 285.49C834.87 281.12 837.09 278.93 841.34 278.93H857.69C861.77 278.93 864.16 280.88 864.86 284.79L869.23 308.74C869.52 310.61 869.84 313.61 870.19 317.75H870.98C870.98 317.57 871.11 316.32 871.37 313.99C871.63 311.66 871.85 309.91 872.03 308.74L876.14 284.79C876.84 280.88 879.25 278.93 883.39 278.93Z" stroke="white" stroke-width="8" stroke-linecap="round" stroke-linejoin="round"/>
<path d="M967.76 278.93L954.65 322.91C952.9 328.91 950.86 333.22 948.53 335.85C946.2 338.47 942.7 340.02 938.04 340.48C933.61 340.95 927.4 340.54 919.41 339.26L921.42 326.32C926.03 326.55 929.42 326.55 931.61 326.32C933.8 326.08 935.12 325.27 935.59 323.87L935.94 322.47H932.35C929.73 322.47 927.69 321.77 926.23 320.37C924.78 318.97 923.67 316.93 922.91 314.25L912.07 278.93H931.48L938.3 308.22C938.41 308.86 938.88 309.18 939.7 309.18H940.48L948.35 278.93H967.76Z" stroke="white" stroke-width="8" stroke-linecap="round" stroke-linejoin="round"/>
<path d="M194.99 293.18L193.59 280.24C199.36 278.9 206.7 278.23 215.62 278.23C223.9 278.23 229.62 279.33 232.8 281.51C235.98 283.7 237.57 287.85 237.57 293.97C237.57 298.4 236.75 301.71 235.12 303.89C233.49 306.08 230.8 307.35 227.07 307.7V308.22C231.5 308.63 234.68 310.14 236.6 312.77C238.53 315.39 239.49 319.21 239.49 324.22C239.49 330.22 237.87 334.35 234.64 336.59C231.4 338.83 226 339.96 218.42 339.96C208.04 339.96 199.45 338.85 192.63 336.63L194.03 324.31C202.42 325.65 209.3 326.32 214.66 326.32C216.82 326.32 218.26 325.92 218.99 325.14C219.72 324.35 220.08 322.76 220.08 320.37C220.08 317.87 219.72 316.22 218.99 315.43C218.26 314.65 216.79 314.22 214.57 314.17L201.28 313.9V302.1L214.4 301.84C216.2 301.78 217.4 301.42 217.98 300.75C218.57 300.07 218.86 298.72 218.86 296.68C218.86 294.76 218.55 293.47 217.94 292.83C217.33 292.19 216.12 291.87 214.31 291.87C209.06 291.87 202.62 292.31 194.99 293.18Z" fill="#E32865"/>
<path fill-rule="evenodd" clip-rule="evenodd" d="M280.23 326.23H263.71L260.65 339.26H241.33L256.97 283.83C257.38 282.37 258.17 281.19 259.34 280.29C260.5 279.38 261.84 278.93 263.36 278.93H280.58C282.1 278.93 283.44 279.38 284.6 280.29C285.77 281.19 286.55 282.37 286.96 283.83L302.61 339.26H283.29L280.23 326.23ZM277.17 312.94L274.2 300C273.67 297.26 273.32 294.96 273.15 293.1H270.79C270.44 295.83 270.09 298.14 269.74 300L266.77 312.94H277.17Z" fill="#E32865"/>
<path d="M359.61 278.93V339.26H340.64V291.35H325.78V339.26H306.81V278.93H359.61Z" fill="#E32865"/>
<path fill-rule="evenodd" clip-rule="evenodd" d="M395.46 277.71C402.63 277.71 408.18 278.6 412.11 280.37C416.05 282.15 418.95 285.3 420.81 289.82C422.68 294.33 423.61 300.76 423.61 309.09C423.61 317.43 422.68 323.86 420.81 328.37C418.95 332.89 416.05 336.04 412.11 337.81C408.18 339.59 402.63 340.48 395.46 340.48C388.35 340.48 382.83 339.59 378.89 337.81C374.96 336.04 372.06 332.89 370.19 328.37C368.33 323.86 367.4 317.43 367.4 309.09C367.4 300.76 368.33 294.33 370.19 289.82C372.06 285.3 374.96 282.15 378.89 280.37C382.83 278.6 388.35 277.71 395.46 277.71ZM401.97 295.24C400.89 292.94 398.72 291.78 395.46 291.78C392.2 291.78 390.02 292.94 388.95 295.24C387.87 297.54 387.33 302.16 387.33 309.09C387.33 316.03 387.87 320.65 388.95 322.95C390.02 325.25 392.2 326.41 395.46 326.41C398.72 326.41 400.89 325.25 401.97 322.95C403.05 320.65 403.59 316.03 403.59 309.09C403.59 302.16 403.05 297.54 401.97 295.24Z" fill="#E32865"/>
<path d="M482.8 278.93V339.26H463.83V291.35H460.16C457.24 291.35 455.7 292.69 455.52 295.37C454.47 309.3 453.07 319.15 451.33 324.92C449.4 331.56 446.37 335.96 442.23 338.12C438.1 340.28 432.91 340.8 426.67 339.69L425.36 325.01C426.99 324.83 428.26 324.63 429.16 324.39C430.07 324.16 430.97 323.68 431.87 322.95C432.78 322.22 433.46 321.19 433.93 319.85C435.5 315.19 436.73 306.59 437.6 294.06C438.24 283.97 443.54 278.93 453.51 278.93H482.8Z" fill="#E32865"/>
<path d="M545.92 278.93V339.26H526.95V313.9H511.74V339.26H492.77V278.93H511.74V300.61H526.95V278.93H545.92Z" fill="#E32865"/>
<path d="M610.09 339.26H592.08V311.54C592.08 309.15 592.4 306.03 593.05 302.19H592.43C591.38 305.74 590.16 308.83 588.76 311.46L573.99 339.26H555.89V278.93H573.9V305.69C573.9 308.13 573.58 311.4 572.94 315.48H573.55C574.66 311.98 575.94 308.89 577.4 306.21L592.08 278.93H610.09V339.26Z" fill="#E32865"/>
<path fill-rule="evenodd" clip-rule="evenodd" d="M681.26 275.09V282.34C691.4 283.04 698.51 285.3 702.59 289.12C706.67 292.94 708.71 299.3 708.71 308.22C708.71 316.79 706.67 322.92 702.59 326.62C698.51 330.33 691.4 332.53 681.26 333.22V340.48H662.29V333.22C652.15 332.58 645.04 330.4 640.96 326.67C636.88 322.94 634.84 316.79 634.84 308.22C634.84 299.3 636.88 292.94 640.96 289.12C645.04 285.3 652.15 283.04 662.29 282.34V275.09H681.26ZM663.16 319.94V295.63C659.32 296.04 656.8 297.1 655.6 298.82C654.41 300.54 653.81 303.67 653.81 308.22C653.81 312.42 654.41 315.32 655.6 316.92C656.8 318.52 659.32 319.53 663.16 319.94ZM680.39 295.63V319.94C684.23 319.53 686.75 318.52 687.95 316.92C689.14 315.32 689.74 312.42 689.74 308.22C689.74 303.73 689.14 300.61 687.95 298.87C686.75 297.12 684.23 296.04 680.39 295.63Z" fill="#E32865"/>
<path fill-rule="evenodd" clip-rule="evenodd" d="M740.97 277.71C748.14 277.71 753.69 278.6 757.63 280.37C761.56 282.15 764.46 285.3 766.33 289.82C768.19 294.33 769.13 300.76 769.13 309.09C769.13 317.43 768.19 323.86 766.33 328.37C764.46 332.89 761.56 336.04 757.63 337.81C753.69 339.59 748.14 340.48 740.97 340.48C733.86 340.48 728.34 339.59 724.41 337.81C720.47 336.04 717.57 332.89 715.71 328.37C713.84 323.86 712.91 317.43 712.91 309.09C712.91 300.76 713.84 294.33 715.71 289.82C717.57 285.3 720.47 282.15 724.41 280.37C728.34 278.6 733.86 277.71 740.97 277.71ZM747.49 295.24C746.41 292.94 744.24 291.78 740.97 291.78C737.71 291.78 735.54 292.94 734.46 295.24C733.38 297.54 732.84 302.16 732.84 309.09C732.84 316.03 733.38 320.65 734.46 322.95C735.54 325.25 737.71 326.41 740.97 326.41C744.24 326.41 746.41 325.25 747.49 322.95C748.57 320.65 749.1 316.03 749.1 309.09C749.1 302.16 748.57 297.54 747.49 295.24Z" fill="#E32865"/>
<path fill-rule="evenodd" clip-rule="evenodd" d="M776.82 339.26V278.93C782.76 278.35 791.27 278.06 802.35 278.06C811.96 278.06 818.54 279.49 822.06 282.34C825.59 285.2 827.35 290.62 827.35 298.6C827.35 306.47 825.72 311.83 822.46 314.69C819.19 317.55 813.36 318.97 804.97 318.97C801.82 318.97 798.76 318.8 795.79 318.45V339.26H776.82ZM795.79 305.6H801.91C804.48 305.6 806.19 305.13 807.07 304.2C807.94 303.27 808.38 301.4 808.38 298.6C808.38 295.75 807.94 293.84 807.07 292.88C806.19 291.92 804.48 291.43 801.91 291.43H795.79V305.6Z" fill="#E32865"/>
<path d="M883.39 278.93H900.09C904.35 278.93 906.56 281.12 906.74 285.49L908.83 339.26H891.79L889.95 293.1H888.64L882.69 323.87C882.05 327.72 879.66 329.64 875.52 329.64H865.73C861.59 329.64 859.18 327.72 858.48 323.87L852.44 293.1H851.13L849.65 339.26H832.6L834.7 285.49C834.87 281.12 837.09 278.93 841.34 278.93H857.69C861.77 278.93 864.16 280.88 864.86 284.79L869.23 308.74C869.52 310.61 869.84 313.61 870.19 317.75H870.98C870.98 317.57 871.11 316.32 871.37 313.99C871.63 311.66 871.85 309.91 872.03 308.74L876.14 284.79C876.84 280.88 879.25 278.93 883.39 278.93Z" fill="#E32865"/>
<path d="M967.76 278.93L954.65 322.91C952.9 328.91 950.86 333.22 948.53 335.85C946.2 338.47 942.7 340.02 938.04 340.48C933.61 340.95 927.4 340.54 919.41 339.26L921.42 326.32C926.03 326.55 929.42 326.55 931.61 326.32C933.8 326.08 935.12 325.27 935.59 323.87L935.94 322.47H932.35C929.73 322.47 927.69 321.77 926.23 320.37C924.78 318.97 923.67 316.93 922.91 314.25L912.07 278.93H931.48L938.3 308.22C938.41 308.86 938.88 309.18 939.7 309.18H940.48L948.35 278.93H967.76Z" fill="#E32865"/>
<path d="M55.53 418.08H40.61V395.12C40.61 393.14 40.88 390.56 41.41 387.37H40.9C40.03 390.32 39.02 392.88 37.86 395.05L25.62 418.08H10.62V368.1H25.54V390.27C25.54 392.3 25.28 395 24.75 398.38H25.25C26.17 395.48 27.23 392.92 28.44 390.7L40.61 368.1H55.53V418.08Z" stroke="#0C235E" stroke-width="8" stroke-linecap="round" stroke-linejoin="round"/>
<path d="M120.14 368.1H133.98C137.5 368.1 139.34 369.91 139.48 373.54L141.22 418.08H127.1L125.58 379.84H124.49L119.56 405.33C119.03 408.52 117.05 410.12 113.63 410.12H105.51C102.08 410.12 100.08 408.52 99.5 405.33L94.5 379.84H93.42L92.18 418.08H78.06L79.8 373.54C79.94 369.91 81.78 368.1 85.3 368.1H98.85C102.23 368.1 104.21 369.72 104.79 372.96L108.41 392.8C108.65 394.35 108.92 396.83 109.21 400.26H109.86C109.86 400.12 109.97 399.08 110.18 397.15C110.4 395.22 110.58 393.77 110.73 392.8L114.13 372.96C114.71 369.72 116.72 368.1 120.14 368.1Z" stroke="#0C235E" stroke-width="8" stroke-linecap="round" stroke-linejoin="round"/>
<path fill-rule="evenodd" clip-rule="evenodd" d="M164.33 385.27H168.39C175.97 385.27 181.2 386.44 184.07 388.78C186.94 391.12 188.38 395.51 188.38 401.93C188.38 408.26 187.05 412.63 184.39 415.04C181.74 417.46 177.34 418.66 171.21 418.66C161.41 418.66 154 418.47 148.97 418.08H148.54V368.1H164.33V385.27ZM209.46 368.1V418.08H193.67V368.1H209.46ZM164.33 407.8H168.39C170.12 407.8 171.26 407.39 171.79 406.57C172.32 405.74 172.59 404.01 172.59 401.35C172.59 398.65 172.32 396.87 171.79 396.03C171.26 395.18 170.12 394.76 168.39 394.76H164.33V407.8Z" stroke="#0C235E" stroke-width="8" stroke-linecap="round" stroke-linejoin="round"/>
<path d="M270.16 405.12L271.32 416.56C266.68 418.16 260.84 418.95 253.79 418.95C245.48 418.95 239.63 417.02 236.22 413.16C232.82 409.29 231.11 402.61 231.11 393.09C231.11 383.58 232.82 376.89 236.22 373.03C239.63 369.16 245.48 367.23 253.79 367.23C260.02 367.23 265.5 367.89 270.23 369.19L269.07 380.63C262.31 380.54 257.22 380.49 253.79 380.49C251.32 380.49 249.68 381.32 248.86 382.99C248.04 384.65 247.63 388.02 247.63 393.09C247.63 398.16 248.04 401.53 248.86 403.2C249.68 404.86 251.32 405.7 253.79 405.7C260.98 405.7 266.44 405.5 270.16 405.12Z" stroke="#0C235E" stroke-width="8" stroke-linecap="round" stroke-linejoin="round"/>
<path fill-rule="evenodd" clip-rule="evenodd" d="M307.97 391.93V392.37C311.83 392.71 314.6 393.96 316.26 396.13C317.93 398.31 318.76 401.47 318.76 405.62C318.76 410.6 317.37 414.01 314.6 415.87C311.82 417.73 307.17 418.66 300.65 418.66C290.08 418.66 282.09 418.47 276.68 418.08V368.1C281.6 367.72 288.8 367.52 298.26 367.52C305.36 367.52 310.28 368.43 313 370.24C315.73 372.05 317.1 375.49 317.1 380.56C317.1 384.18 316.38 386.91 314.96 388.75C313.54 390.58 311.2 391.64 307.97 391.93ZM292.03 387.59H297.61C299.45 387.59 300.65 387.27 301.23 386.65C301.81 386.02 302.1 384.74 302.1 382.81C302.1 380.88 301.8 379.62 301.2 379.04C300.59 378.46 299.35 378.17 297.47 378.17H292.03V387.59ZM292.03 408.01H297.83C300 408.01 301.43 407.65 302.1 406.93C302.78 406.2 303.12 404.71 303.12 402.44C303.12 400.12 302.78 398.6 302.1 397.87C301.43 397.15 299.98 396.79 297.76 396.79H292.03V408.01Z" stroke="#0C235E" stroke-width="8" stroke-linecap="round" stroke-linejoin="round"/>
<path fill-rule="evenodd" clip-rule="evenodd" d="M333.39 394.9V394.47C326.92 393.79 323.69 389.83 323.69 382.59C323.69 376.89 325.27 372.93 328.43 370.71C331.6 368.49 336.85 367.38 344.19 367.38C353.12 367.38 359.98 367.62 364.76 368.1V418.08H349.04V399.83H345.13C343.82 399.83 342.91 400.06 342.38 400.52C341.85 400.98 341.46 401.88 341.22 403.23L338.1 418.08H321.66L325.43 402.73C326.3 398.14 328.95 395.53 333.39 394.9ZM349.04 388.75V378.46H344.55C342.47 378.46 341.11 378.8 340.46 379.48C339.8 380.15 339.48 381.53 339.48 383.6C339.48 385.68 339.8 387.06 340.46 387.73C341.11 388.41 342.47 388.75 344.55 388.75H349.04Z" stroke="#0C235E" stroke-width="8" stroke-linecap="round" stroke-linejoin="round"/>
<path d="M422.05 391.79V392.22C423.79 392.51 425.18 392.79 426.22 393.06C427.26 393.32 428.26 393.83 429.23 394.58C430.19 395.33 430.95 396.11 431.51 396.93C432.06 397.75 432.69 399.08 433.39 400.92C434.09 402.75 434.71 404.62 435.24 406.53C435.77 408.44 436.52 411.13 437.48 414.61C437.87 416.1 438.18 417.26 438.43 418.08H421.98C418.94 407.6 417.18 401.81 416.7 400.7C415.92 398.77 414.98 397.66 413.87 397.37C413.53 397.27 413.05 397.22 412.42 397.22H410.76C411.14 398.91 411.33 400.43 411.33 401.78V418.08H396.34V401.78C396.34 400.67 396.56 399.15 396.99 397.22H395.25C394.05 397.22 393.14 397.56 392.54 398.24C391.93 398.91 391.29 400.18 390.62 402.04C389.94 403.9 388.9 407.24 387.5 412.07C386.78 414.58 386.2 416.59 385.77 418.08H369.32C372.07 407.99 373.89 401.93 374.75 399.9C376.06 396.81 377.77 394.76 379.9 393.74C381.15 393.12 383.08 392.61 385.69 392.22V391.79C384.53 391.64 383.54 391.48 382.72 391.28C381.9 391.09 381.13 390.79 380.4 390.38C379.68 389.97 379.09 389.62 378.63 389.33C378.17 389.04 377.68 388.46 377.15 387.59C376.61 386.72 376.22 386.02 375.95 385.49C375.68 384.96 375.31 383.94 374.83 382.44C374.34 380.95 373.97 379.72 373.7 378.75C373.44 377.78 372.99 376.17 372.36 373.9C371.74 371.63 371.21 369.7 370.77 368.1H386.71C389.27 377.28 390.76 382.4 391.2 383.46C392.02 385.54 393.06 386.72 394.31 387.01C394.6 387.06 394.94 387.08 395.33 387.08H397.14C396.65 385.1 396.41 382.98 396.41 380.71V368.1H411.33V380.71C411.33 382.83 411.12 384.96 410.68 387.08H412.28C413.92 387.08 415.13 386.32 415.9 384.8C416.67 383.28 417.88 379.52 419.52 373.54C420.15 371.27 420.65 369.45 421.04 368.1H436.98C436.54 369.7 436.01 371.63 435.38 373.9C434.76 376.17 434.31 377.78 434.04 378.75C433.78 379.72 433.4 380.95 432.92 382.44C432.44 383.94 432.06 384.96 431.8 385.49C431.53 386.02 431.13 386.72 430.6 387.59C430.07 388.46 429.58 389.04 429.12 389.33C428.66 389.62 428.07 389.97 427.34 390.38C426.62 390.79 425.85 391.09 425.03 391.28C424.2 391.48 423.21 391.64 422.05 391.79Z" stroke="#0C235E" stroke-width="8" stroke-linecap="round" stroke-linejoin="round"/>
<path d="M479.5 406.35L480.22 417.43C475.39 418.06 466.72 418.37 454.22 418.37C450.79 418.37 447.97 417.32 445.78 415.22C443.58 413.12 442.48 410.38 442.48 407V379.19C442.48 375.8 443.58 373.06 445.78 370.96C447.97 368.86 450.79 367.81 454.22 367.81C466.72 367.81 475.39 368.13 480.22 368.75L479.5 379.84H461.17C460.25 379.84 459.53 380.08 459 380.56C458.47 381.04 458.2 381.67 458.2 382.44V387.3H476.89V397.73H458.2V403.74C458.2 404.51 458.47 405.14 459 405.62C459.53 406.11 460.25 406.35 461.17 406.35H479.5Z" stroke="#0C235E" stroke-width="8" stroke-linecap="round" stroke-linejoin="round"/>
<path d="M527.52 368.1H541.36C544.88 368.1 546.72 369.91 546.86 373.54L548.6 418.08H534.48L532.95 379.84H531.87L526.94 405.33C526.41 408.52 524.43 410.12 521 410.12H512.89C509.46 410.12 507.46 408.52 506.88 405.33L501.88 379.84H500.79L499.56 418.08H485.44L487.17 373.54C487.32 369.91 489.15 368.1 492.68 368.1H506.23C509.61 368.1 511.59 369.72 512.16 372.96L515.79 392.8C516.03 394.35 516.29 396.83 516.58 400.26H517.24C517.24 400.12 517.34 399.08 517.56 397.15C517.78 395.22 517.96 393.77 518.1 392.8L521.51 372.96C522.09 369.72 524.09 368.1 527.52 368.1Z" stroke="#0C235E" stroke-width="8" stroke-linecap="round" stroke-linejoin="round"/>
<path d="M593.15 405.12L594.31 416.56C589.67 418.16 583.83 418.95 576.78 418.95C568.47 418.95 562.62 417.02 559.21 413.16C555.81 409.29 554.11 402.61 554.11 393.09C554.11 383.58 555.81 376.89 559.21 373.03C562.62 369.16 568.47 367.23 576.78 367.23C583.01 367.23 588.49 367.89 593.22 369.19L592.06 380.63C585.3 380.54 580.21 380.49 576.78 380.49C574.31 380.49 572.67 381.32 571.85 382.99C571.03 384.65 570.62 388.02 570.62 393.09C570.62 398.16 571.03 401.53 571.85 403.2C572.67 404.86 574.31 405.7 576.78 405.7C583.97 405.7 589.43 405.5 593.15 405.12Z" stroke="#0C235E" stroke-width="8" stroke-linecap="round" stroke-linejoin="round"/>
<path fill-rule="evenodd" clip-rule="evenodd" d="M608.29 394.9V394.47C601.82 393.79 598.58 389.83 598.58 382.59C598.58 376.89 600.16 372.93 603.32 370.71C606.49 368.49 611.74 367.38 619.08 367.38C628.01 367.38 634.87 367.62 639.65 368.1V418.08H623.93V399.83H620.02C618.72 399.83 617.8 400.06 617.27 400.52C616.74 400.98 616.35 401.88 616.11 403.23L612.99 418.08H596.55L600.32 402.73C601.19 398.14 603.84 395.53 608.29 394.9ZM623.93 388.75V378.46H619.44C617.37 378.46 616 378.8 615.35 379.48C614.7 380.15 614.37 381.53 614.37 383.6C614.37 385.68 614.7 387.06 615.35 387.73C616 388.41 617.37 388.75 619.44 388.75H623.93Z" stroke="#0C235E" stroke-width="8" stroke-linecap="round" stroke-linejoin="round"/>
<path d="M700.28 405.12L701.44 416.56C696.8 418.16 690.96 418.95 683.91 418.95C675.6 418.95 669.75 417.02 666.34 413.16C662.94 409.29 661.24 402.61 661.24 393.09C661.24 383.58 662.94 376.89 666.34 373.03C669.75 369.16 675.6 367.23 683.91 367.23C690.14 367.23 695.62 367.89 700.35 369.19L699.19 380.63C692.43 380.54 687.34 380.49 683.91 380.49C681.45 380.49 679.8 381.32 678.98 382.99C678.16 384.65 677.75 388.02 677.75 393.09C677.75 398.16 678.16 401.53 678.98 403.2C679.8 404.86 681.45 405.7 683.91 405.7C691.1 405.7 696.56 405.5 700.28 405.12Z" stroke="#0C235E" stroke-width="8" stroke-linecap="round" stroke-linejoin="round"/>
<path d="M762.36 379.84H748.38V418.08H732.66V379.84H718.68V368.1H762.36V379.84Z" stroke="#0C235E" stroke-width="8" stroke-linecap="round" stroke-linejoin="round"/>
<path fill-rule="evenodd" clip-rule="evenodd" d="M788.29 367.09C794.23 367.09 798.83 367.82 802.09 369.3C805.35 370.77 807.75 373.38 809.3 377.12C810.84 380.86 811.61 386.19 811.61 393.09C811.61 400 810.84 405.32 809.3 409.06C807.75 412.81 805.35 415.41 802.09 416.89C798.83 418.36 794.23 419.1 788.29 419.1C782.4 419.1 777.82 418.36 774.56 416.89C771.3 415.41 768.9 412.81 767.36 409.06C765.81 405.32 765.04 400 765.04 393.09C765.04 386.19 765.81 380.86 767.36 377.12C768.9 373.38 771.3 370.77 774.56 369.3C777.82 367.82 782.4 367.09 788.29 367.09ZM793.69 381.61C792.79 379.7 790.99 378.75 788.29 378.75C785.59 378.75 783.79 379.7 782.89 381.61C782 383.52 781.55 387.35 781.55 393.09C781.55 398.84 782 402.67 782.89 404.57C783.79 406.48 785.59 407.43 788.29 407.43C790.99 407.43 792.79 406.48 793.69 404.57C794.58 402.67 795.03 398.84 795.03 393.09C795.03 387.35 794.58 383.52 793.69 381.61Z" stroke="#0C235E" stroke-width="8" stroke-linecap="round" stroke-linejoin="round"/>
<path fill-rule="evenodd" clip-rule="evenodd" d="M833.71 387.44H838.7C846.53 387.44 851.94 388.53 854.93 390.7C857.92 392.88 859.42 396.93 859.42 402.87C859.42 408.81 857.97 412.93 855.07 415.22C852.18 417.52 847.42 418.66 840.81 418.66C831.05 418.66 823.59 418.47 818.42 418.08H817.99V368.1C823.64 367.72 829.84 367.52 836.6 367.52C842.78 367.52 849.21 367.72 855.87 368.1L854.71 379.33H833.71V387.44ZM833.71 407.8H838.7C840.78 407.8 842.13 407.45 842.76 406.75C843.39 406.05 843.7 404.59 843.7 402.36C843.7 400.14 843.39 398.68 842.76 397.98C842.13 397.28 840.78 396.93 838.7 396.93H833.71V407.8Z" stroke="#0C235E" stroke-width="8" stroke-linecap="round" stroke-linejoin="round"/>
<path fill-rule="evenodd" clip-rule="evenodd" d="M886.44 367.09C892.38 367.09 896.98 367.82 900.24 369.3C903.5 370.77 905.9 373.38 907.45 377.12C908.99 380.86 909.76 386.19 909.76 393.09C909.76 400 908.99 405.32 907.45 409.06C905.9 412.81 903.5 415.41 900.24 416.89C896.98 418.36 892.38 419.1 886.44 419.1C880.55 419.1 875.97 418.36 872.71 416.89C869.45 415.41 867.05 412.81 865.51 409.06C863.96 405.32 863.19 400 863.19 393.09C863.19 386.19 863.96 380.86 865.51 377.12C867.05 373.38 869.45 370.77 872.71 369.3C875.97 367.82 880.55 367.09 886.44 367.09ZM891.84 381.61C890.94 379.7 889.14 378.75 886.44 378.75C883.74 378.75 881.94 379.7 881.04 381.61C880.15 383.52 879.7 387.35 879.7 393.09C879.7 398.84 880.15 402.67 881.04 404.57C881.94 406.48 883.74 407.43 886.44 407.43C889.14 407.43 890.94 406.48 891.84 404.57C892.73 402.67 893.18 398.84 893.18 393.09C893.18 387.35 892.73 383.52 891.84 381.61Z" stroke="#0C235E" stroke-width="8" stroke-linecap="round" stroke-linejoin="round"/>
<path d="M943.01 352.17H952.21C952.84 355.4 951.92 358.3 949.46 360.86C947 363.42 943.62 364.7 939.32 364.7C935.02 364.7 931.64 363.42 929.18 360.86C926.71 358.3 925.77 355.4 926.35 352.17H935.55C935.26 354.29 935.43 355.75 936.06 356.55C936.69 357.35 937.77 357.74 939.32 357.74C940.81 357.74 941.88 357.35 942.5 356.55C943.13 355.75 943.3 354.29 943.01 352.17ZM961.12 418.08H946.2V395.12C946.2 393.14 946.46 390.56 947 387.37H946.49C945.62 390.32 944.61 392.88 943.45 395.05L931.2 418.08H916.21V368.1H931.13V390.27C931.13 392.3 930.87 395 930.34 398.38H930.84C931.76 395.48 932.82 392.92 934.03 390.7L946.2 368.1H961.12V418.08Z" stroke="#0C235E" stroke-width="8" stroke-linecap="round" stroke-linejoin="round"/>
<path d="M55.53 418.08H40.61V395.12C40.61 393.14 40.88 390.56 41.41 387.37H40.9C40.03 390.32 39.02 392.88 37.86 395.05L25.62 418.08H10.62V368.1H25.54V390.27C25.54 392.3 25.28 395 24.75 398.38H25.25C26.17 395.48 27.23 392.92 28.44 390.7L40.61 368.1H55.53V418.08Z" fill="#32B3E5"/>
<path d="M120.14 368.1H133.98C137.5 368.1 139.34 369.91 139.48 373.54L141.22 418.08H127.1L125.58 379.84H124.49L119.56 405.33C119.03 408.52 117.05 410.12 113.63 410.12H105.51C102.08 410.12 100.08 408.52 99.5 405.33L94.5 379.84H93.42L92.18 418.08H78.06L79.8 373.54C79.94 369.91 81.78 368.1 85.3 368.1H98.85C102.23 368.1 104.21 369.72 104.79 372.96L108.41 392.8C108.65 394.35 108.92 396.83 109.21 400.26H109.86C109.86 400.12 109.97 399.08 110.18 397.15C110.4 395.22 110.58 393.77 110.73 392.8L114.13 372.96C114.71 369.72 116.72 368.1 120.14 368.1Z" fill="#32B3E5"/>
<path fill-rule="evenodd" clip-rule="evenodd" d="M164.33 385.27H168.39C175.97 385.27 181.2 386.44 184.07 388.78C186.94 391.12 188.38 395.51 188.38 401.93C188.38 408.26 187.05 412.63 184.39 415.04C181.74 417.46 177.34 418.66 171.21 418.66C161.41 418.66 154 418.47 148.97 418.08H148.54V368.1H164.33V385.27ZM209.46 368.1V418.08H193.67V368.1H209.46ZM164.33 407.8H168.39C170.12 407.8 171.26 407.39 171.79 406.57C172.32 405.74 172.59 404.01 172.59 401.35C172.59 398.65 172.32 396.87 171.79 396.03C171.26 395.18 170.12 394.76 168.39 394.76H164.33V407.8Z" fill="#32B3E5"/>
<path d="M270.16 405.12L271.32 416.56C266.68 418.16 260.84 418.95 253.79 418.95C245.48 418.95 239.63 417.02 236.22 413.16C232.82 409.29 231.11 402.61 231.11 393.09C231.11 383.58 232.82 376.89 236.22 373.03C239.63 369.16 245.48 367.23 253.79 367.23C260.02 367.23 265.5 367.89 270.23 369.19L269.07 380.63C262.31 380.54 257.22 380.49 253.79 380.49C251.32 380.49 249.68 381.32 248.86 382.99C248.04 384.65 247.63 388.02 247.63 393.09C247.63 398.16 248.04 401.53 248.86 403.2C249.68 404.86 251.32 405.7 253.79 405.7C260.98 405.7 266.44 405.5 270.16 405.12Z" fill="#32B3E5"/>
<path fill-rule="evenodd" clip-rule="evenodd" d="M307.97 391.93V392.37C311.83 392.71 314.6 393.96 316.26 396.13C317.93 398.31 318.76 401.47 318.76 405.62C318.76 410.6 317.37 414.01 314.6 415.87C311.82 417.73 307.17 418.66 300.65 418.66C290.08 418.66 282.09 418.47 276.68 418.08V368.1C281.6 367.72 288.8 367.52 298.26 367.52C305.36 367.52 310.28 368.43 313 370.24C315.73 372.05 317.1 375.49 317.1 380.56C317.1 384.18 316.38 386.91 314.96 388.75C313.54 390.58 311.2 391.64 307.97 391.93ZM292.03 387.59H297.61C299.45 387.59 300.65 387.27 301.23 386.65C301.81 386.02 302.1 384.74 302.1 382.81C302.1 380.88 301.8 379.62 301.2 379.04C300.59 378.46 299.35 378.17 297.47 378.17H292.03V387.59ZM292.03 408.01H297.83C300 408.01 301.43 407.65 302.1 406.93C302.78 406.2 303.12 404.71 303.12 402.44C303.12 400.12 302.78 398.6 302.1 397.87C301.43 397.15 299.98 396.79 297.76 396.79H292.03V408.01Z" fill="#32B3E5"/>
<path fill-rule="evenodd" clip-rule="evenodd" d="M333.39 394.9V394.47C326.92 393.79 323.69 389.83 323.69 382.59C323.69 376.89 325.27 372.93 328.43 370.71C331.6 368.49 336.85 367.38 344.19 367.38C353.12 367.38 359.98 367.62 364.76 368.1V418.08H349.04V399.83H345.13C343.82 399.83 342.91 400.06 342.38 400.52C341.85 400.98 341.46 401.88 341.22 403.23L338.1 418.08H321.66L325.43 402.73C326.3 398.14 328.95 395.53 333.39 394.9ZM349.04 388.75V378.46H344.55C342.47 378.46 341.11 378.8 340.46 379.48C339.8 380.15 339.48 381.53 339.48 383.6C339.48 385.68 339.8 387.06 340.46 387.73C341.11 388.41 342.47 388.75 344.55 388.75H349.04Z" fill="#32B3E5"/>
<path d="M422.05 391.79V392.22C423.79 392.51 425.18 392.79 426.22 393.06C427.26 393.32 428.26 393.83 429.23 394.58C430.19 395.33 430.95 396.11 431.51 396.93C432.06 397.75 432.69 399.08 433.39 400.92C434.09 402.75 434.71 404.62 435.24 406.53C435.77 408.44 436.52 411.13 437.48 414.61C437.87 416.1 438.18 417.26 438.43 418.08H421.98C418.94 407.6 417.18 401.81 416.7 400.7C415.92 398.77 414.98 397.66 413.87 397.37C413.53 397.27 413.05 397.22 412.42 397.22H410.76C411.14 398.91 411.33 400.43 411.33 401.78V418.08H396.34V401.78C396.34 400.67 396.56 399.15 396.99 397.22H395.25C394.05 397.22 393.14 397.56 392.54 398.24C391.93 398.91 391.29 400.18 390.62 402.04C389.94 403.9 388.9 407.24 387.5 412.07C386.78 414.58 386.2 416.59 385.77 418.08H369.32C372.07 407.99 373.89 401.93 374.75 399.9C376.06 396.81 377.77 394.76 379.9 393.74C381.15 393.12 383.08 392.61 385.69 392.22V391.79C384.53 391.64 383.54 391.48 382.72 391.28C381.9 391.09 381.13 390.79 380.4 390.38C379.68 389.97 379.09 389.62 378.63 389.33C378.17 389.04 377.68 388.46 377.15 387.59C376.61 386.72 376.22 386.02 375.95 385.49C375.68 384.96 375.31 383.94 374.83 382.44C374.34 380.95 373.97 379.72 373.7 378.75C373.44 377.78 372.99 376.17 372.36 373.9C371.74 371.63 371.21 369.7 370.77 368.1H386.71C389.27 377.28 390.76 382.4 391.2 383.46C392.02 385.54 393.06 386.72 394.31 387.01C394.6 387.06 394.94 387.08 395.33 387.08H397.14C396.65 385.1 396.41 382.98 396.41 380.71V368.1H411.33V380.71C411.33 382.83 411.12 384.96 410.68 387.08H412.28C413.92 387.08 415.13 386.32 415.9 384.8C416.67 383.28 417.88 379.52 419.52 373.54C420.15 371.27 420.65 369.45 421.04 368.1H436.98C436.54 369.7 436.01 371.63 435.38 373.9C434.76 376.17 434.31 377.78 434.04 378.75C433.78 379.72 433.4 380.95 432.92 382.44C432.44 383.94 432.06 384.96 431.8 385.49C431.53 386.02 431.13 386.72 430.6 387.59C430.07 388.46 429.58 389.04 429.12 389.33C428.66 389.62 428.07 389.97 427.34 390.38C426.62 390.79 425.85 391.09 425.03 391.28C424.2 391.48 423.21 391.64 422.05 391.79Z" fill="#32B3E5"/>
<path d="M479.5 406.35L480.22 417.43C475.39 418.06 466.72 418.37 454.22 418.37C450.79 418.37 447.97 417.32 445.78 415.22C443.58 413.12 442.48 410.38 442.48 407V379.19C442.48 375.8 443.58 373.06 445.78 370.96C447.97 368.86 450.79 367.81 454.22 367.81C466.72 367.81 475.39 368.13 480.22 368.75L479.5 379.84H461.17C460.25 379.84 459.53 380.08 459 380.56C458.47 381.04 458.2 381.67 458.2 382.44V387.3H476.89V397.73H458.2V403.74C458.2 404.51 458.47 405.14 459 405.62C459.53 406.11 460.25 406.35 461.17 406.35H479.5Z" fill="#32B3E5"/>
<path d="M527.52 368.1H541.36C544.88 368.1 546.72 369.91 546.86 373.54L548.6 418.08H534.48L532.95 379.84H531.87L526.94 405.33C526.41 408.52 524.43 410.12 521 410.12H512.89C509.46 410.12 507.46 408.52 506.88 405.33L501.88 379.84H500.79L499.56 418.08H485.44L487.17 373.54C487.32 369.91 489.15 368.1 492.68 368.1H506.23C509.61 368.1 511.59 369.72 512.16 372.96L515.79 392.8C516.03 394.35 516.29 396.83 516.58 400.26H517.24C517.24 400.12 517.34 399.08 517.56 397.15C517.78 395.22 517.96 393.77 518.1 392.8L521.51 372.96C522.09 369.72 524.09 368.1 527.52 368.1Z" fill="#32B3E5"/>
<path d="M593.15 405.12L594.31 416.56C589.67 418.16 583.83 418.95 576.78 418.95C568.47 418.95 562.62 417.02 559.21 413.16C555.81 409.29 554.11 402.61 554.11 393.09C554.11 383.58 555.81 376.89 559.21 373.03C562.62 369.16 568.47 367.23 576.78 367.23C583.01 367.23 588.49 367.89 593.22 369.19L592.06 380.63C585.3 380.54 580.21 380.49 576.78 380.49C574.31 380.49 572.67 381.32 571.85 382.99C571.03 384.65 570.62 388.02 570.62 393.09C570.62 398.16 571.03 401.53 571.85 403.2C572.67 404.86 574.31 405.7 576.78 405.7C583.97 405.7 589.43 405.5 593.15 405.12Z" fill="#32B3E5"/>
<path fill-rule="evenodd" clip-rule="evenodd" d="M608.29 394.9V394.47C601.82 393.79 598.58 389.83 598.58 382.59C598.58 376.89 600.16 372.93 603.32 370.71C606.49 368.49 611.74 367.38 619.08 367.38C628.01 367.38 634.87 367.62 639.65 368.1V418.08H623.93V399.83H620.02C618.72 399.83 617.8 400.06 617.27 400.52C616.74 400.98 616.35 401.88 616.11 403.23L612.99 418.08H596.55L600.32 402.73C601.19 398.14 603.84 395.53 608.29 394.9ZM623.93 388.75V378.46H619.44C617.37 378.46 616 378.8 615.35 379.48C614.7 380.15 614.37 381.53 614.37 383.6C614.37 385.68 614.7 387.06 615.35 387.73C616 388.41 617.37 388.75 619.44 388.75H623.93Z" fill="#32B3E5"/>
<path d="M700.28 405.12L701.44 416.56C696.8 418.16 690.96 418.95 683.91 418.95C675.6 418.95 669.75 417.02 666.34 413.16C662.94 409.29 661.24 402.61 661.24 393.09C661.24 383.58 662.94 376.89 666.34 373.03C669.75 369.16 675.6 367.23 683.91 367.23C690.14 367.23 695.62 367.89 700.35 369.19L699.19 380.63C692.43 380.54 687.34 380.49 683.91 380.49C681.45 380.49 679.8 381.32 678.98 382.99C678.16 384.65 677.75 388.02 677.75 393.09C677.75 398.16 678.16 401.53 678.98 403.2C679.8 404.86 681.45 405.7 683.91 405.7C691.1 405.7 696.56 405.5 700.28 405.12Z" fill="#32B3E5"/>
<path d="M762.36 379.84H748.38V418.08H732.66V379.84H718.68V368.1H762.36V379.84Z" fill="#32B3E5"/>
<path fill-rule="evenodd" clip-rule="evenodd" d="M788.29 367.09C794.23 367.09 798.83 367.82 802.09 369.3C805.35 370.77 807.75 373.38 809.3 377.12C810.84 380.86 811.61 386.19 811.61 393.09C811.61 400 810.84 405.32 809.3 409.06C807.75 412.81 805.35 415.41 802.09 416.89C798.83 418.36 794.23 419.1 788.29 419.1C782.4 419.1 777.82 418.36 774.56 416.89C771.3 415.41 768.9 412.81 767.36 409.06C765.81 405.32 765.04 400 765.04 393.09C765.04 386.19 765.81 380.86 767.36 377.12C768.9 373.38 771.3 370.77 774.56 369.3C777.82 367.82 782.4 367.09 788.29 367.09ZM793.69 381.61C792.79 379.7 790.99 378.75 788.29 378.75C785.59 378.75 783.79 379.7 782.89 381.61C782 383.52 781.55 387.35 781.55 393.09C781.55 398.84 782 402.67 782.89 404.57C783.79 406.48 785.59 407.43 788.29 407.43C790.99 407.43 792.79 406.48 793.69 404.57C794.58 402.67 795.03 398.84 795.03 393.09C795.03 387.35 794.58 383.52 793.69 381.61Z" fill="#32B3E5"/>
<path fill-rule="evenodd" clip-rule="evenodd" d="M833.71 387.44H838.7C846.53 387.44 851.94 388.53 854.93 390.7C857.92 392.88 859.42 396.93 859.42 402.87C859.42 408.81 857.97 412.93 855.07 415.22C852.18 417.52 847.42 418.66 840.81 418.66C831.05 418.66 823.59 418.47 818.42 418.08H817.99V368.1C823.64 367.72 829.84 367.52 836.6 367.52C842.78 367.52 849.21 367.72 855.87 368.1L854.71 379.33H833.71V387.44ZM833.71 407.8H838.7C840.78 407.8 842.13 407.45 842.76 406.75C843.39 406.05 843.7 404.59 843.7 402.36C843.7 400.14 843.39 398.68 842.76 397.98C842.13 397.28 840.78 396.93 838.7 396.93H833.71V407.8Z" fill="#32B3E5"/>
<path fill-rule="evenodd" clip-rule="evenodd" d="M886.44 367.09C892.38 367.09 896.98 367.82 900.24 369.3C903.5 370.77 905.9 373.38 907.45 377.12C908.99 380.86 909.76 386.19 909.76 393.09C909.76 400 908.99 405.32 907.45 409.06C905.9 412.81 903.5 415.41 900.24 416.89C896.98 418.36 892.38 419.1 886.44 419.1C880.55 419.1 875.97 418.36 872.71 416.89C869.45 415.41 867.05 412.81 865.51 409.06C863.96 405.32 863.19 400 863.19 393.09C863.19 386.19 863.96 380.86 865.51 377.12C867.05 373.38 869.45 370.77 872.71 369.3C875.97 367.82 880.55 367.09 886.44 367.09ZM891.84 381.61C890.94 379.7 889.14 378.75 886.44 378.75C883.74 378.75 881.94 379.7 881.04 381.61C880.15 383.52 879.7 387.35 879.7 393.09C879.7 398.84 880.15 402.67 881.04 404.57C881.94 406.48 883.74 407.43 886.44 407.43C889.14 407.43 890.94 406.48 891.84 404.57C892.73 402.67 893.18 398.84 893.18 393.09C893.18 387.35 892.73 383.52 891.84 381.61Z" fill="#32B3E5"/>
<path d="M943.01 352.17H952.21C952.84 355.4 951.92 358.3 949.46 360.86C947 363.42 943.62 364.7 939.32 364.7C935.02 364.7 931.64 363.42 929.18 360.86C926.71 358.3 925.77 355.4 926.35 352.17H935.55C935.26 354.29 935.43 355.75 936.06 356.55C936.69 357.35 937.77 357.74 939.32 357.74C940.81 357.74 941.88 357.35 942.5 356.55C943.13 355.75 943.3 354.29 943.01 352.17ZM961.12 418.08H946.2V395.12C946.2 393.14 946.46 390.56 947 387.37H946.49C945.62 390.32 944.61 392.88 943.45 395.05L931.2 418.08H916.21V368.1H931.13V390.27C931.13 392.3 930.87 395 930.34 398.38H930.84C931.76 395.48 932.82 392.92 934.03 390.7L946.2 368.1H961.12V418.08Z" fill="#32B3E5"/>
<path d="M899.62 212.51C895.27 208.35 893.08 203.29 893.08 197.33C893.08 191.2 895.23 186.19 899.53 182.25C903.83 178.3 909.33 176.29 916.14 176.29C922.95 176.29 928.54 178.3 932.88 182.25C937.23 186.19 939.42 191.2 939.42 197.33C939.42 203.29 937.23 208.35 932.88 212.51C928.54 216.67 922.95 218.73 916.14 218.73C909.47 218.73 903.96 216.67 899.62 212.51ZM902.48 148.09C905.48 143.65 909.82 138.77 915.56 133.49C919.5 129.82 922.41 126.73 924.29 124.22C926.21 121.67 927.15 118.99 927.15 116.16C927.15 112.22 925.5 109.04 922.18 106.67C918.83 104.3 914.53 103.09 909.2 103.09C903.78 103.09 898.86 104.39 894.43 106.98C889.99 109.54 886.46 113.16 883.72 117.77L853.32 101.48C858.92 91.94 866.8 84.51 877.01 79.23C887.17 73.94 899.48 71.26 913.9 71.26C930.06 71.26 943.09 74.66 952.94 81.38C962.83 88.09 967.76 97.54 967.76 109.63C967.76 115.18 966.77 120.1 964.9 124.4C962.97 128.69 960.73 132.28 958.05 135.24C955.4 138.15 951.96 141.42 947.75 145.09C943.14 149.07 939.74 152.43 937.58 155.21C935.39 157.98 934.32 161.2 934.32 164.88H898C898 158.12 899.48 152.47 902.48 148.09Z" fill="#32B3E5"/>
<path d="M939.42 197.33C939.42 203.29 937.23 208.35 932.88 212.51C928.54 216.67 922.95 218.73 916.14 218.73C909.47 218.73 903.96 216.67 899.62 212.51C895.27 208.35 893.08 203.29 893.08 197.33C893.08 191.2 895.23 186.19 899.53 182.25C903.83 178.3 909.33 176.29 916.14 176.29C920.26 176.29 923.93 177.03 927.15 178.49" stroke="#0C235E" stroke-width="4.313" stroke-linecap="round" stroke-linejoin="round"/>
<path d="M871.93 82.16C873.55 81.11 875.24 80.14 877.01 79.23C881.88 76.7 887.23 74.77 893.08 73.43" stroke="#0C235E" stroke-width="4.313" stroke-linecap="round" stroke-linejoin="round"/>
<path d="M893.08 73.43C899.45 71.99 906.39 71.26 913.9 71.26C930.06 71.26 943.09 74.66 952.94 81.38C962.83 88.09 967.76 97.54 967.76 109.63C967.76 115.18 966.77 120.1 964.9 124.4C962.97 128.69 960.73 132.28 958.05 135.24C956.86 136.54 955.52 137.91 954.03 139.35" stroke="#0C235E" stroke-width="4.313" stroke-linecap="round" stroke-linejoin="round"/>
<path d="M940.22 152.16C939.2 153.24 938.32 154.26 937.58 155.21C935.39 157.98 934.32 161.2 934.32 164.88H898C898 158.12 899.48 152.47 902.48 148.09C905.48 143.65 909.82 138.77 915.56 133.49" stroke="#0C235E" stroke-width="4.313" stroke-linecap="round" stroke-linejoin="round"/>
<path d="M915.56 133.49C919.5 129.82 922.41 126.73 924.29 124.22" stroke="#0C235E" stroke-width="4.313" stroke-linecap="round" stroke-linejoin="round"/>
<path d="M924.29 124.22C926.21 121.67 927.15 118.99 927.15 116.16" stroke="#0C235E" stroke-width="4.313" stroke-linecap="round" stroke-linejoin="round"/>
<path d="M909.2 103.09C903.78 103.09 898.86 104.39 894.43 106.98C889.99 109.54 886.46 113.16 883.72 117.77L853.32 101.48C857.96 93.59 864.15 87.14 871.93 82.16" stroke="#0C235E" stroke-width="4.313" stroke-linecap="round" stroke-linejoin="round"/>
<path d="M589.28 25.33L581.7 21.78L574.48 26.01L575.51 17.7L569.26 12.14L577.47 10.56L580.83 2.89001L584.87 10.22L593.2 11.04L587.48 17.15L589.28 25.33Z" stroke="#053364" stroke-width="4" stroke-linecap="round" stroke-linejoin="round"/>
<path d="M25.81 295.69L38.49 283.22L55.25 288.53L47.41 274.87L56.14 260.39L39.76 260.5L29.63 244.9L23.98 265.17L7.71997 272.35L23.68 278.68L25.81 295.69Z" stroke="#053364" stroke-width="4" stroke-linecap="round" stroke-linejoin="round"/>
<path d="M823.13 80.52L829.48 71.41L839.48 72.87L832.86 65.97L839.2 53.35L827.47 58.87L817.25 52.36L819.05 62.52L810.46 68.26L820.21 70.75L823.13 80.52Z" stroke="white" stroke-width="4" stroke-linecap="round" stroke-linejoin="round"/>
<path d="M713.2 90.25L723.08 99.95L736.11 95.82L730.01 106.45L736.81 117.72L724.07 117.63L716.18 129.78L711.79 114L699.13 108.42L711.55 103.49L713.2 90.25Z" stroke="#053364" stroke-width="4" stroke-linecap="round" stroke-linejoin="round"/>
<path d="M124.36 158.39L128.98 162.1L134.35 159.78L132.21 164.57L135.58 169.07L130.15 169.58L127.32 175.08L124.77 168.56L119.15 166.72L124.22 164.1L124.36 158.39Z" stroke="white" stroke-width="4" stroke-linecap="round" stroke-linejoin="round"/>
<path d="M118.81 57.16L128.3 49.74L138.21 54.43L133.54 45.16L144.13 34.1L130.21 36.08L121.67 26.08L120.31 37.19L109.57 40.41L118.89 46.1L118.81 57.16Z" stroke="#053364" stroke-width="4" stroke-linecap="round" stroke-linejoin="round"/>
<path d="M994.28 343.8L1002.2 340.1L1009.74 344.51L1008.66 335.84L1015.19 330.03L1006.61 328.38L1003.1 320.37L998.88 328.03L990.18 328.88L996.16 335.27L994.28 343.8Z" stroke="#053364" stroke-width="4" stroke-linecap="round" stroke-linejoin="round"/>
<path d="M739.88 462.13L732.53 451.61L720.97 453.29L728.63 445.31L721.3 430.73L734.86 437.1L746.68 429.58L744.59 441.32L754.52 447.96L743.25 450.84L739.88 462.13Z" stroke="white" stroke-width="4" stroke-linecap="round" stroke-linejoin="round"/>
<path d="M974.17 453.35L958.13 469.12L936.95 462.4L946.86 479.68L935.82 497.98L956.52 497.85L969.34 517.58L976.47 491.94L997.04 482.87L976.86 474.87L974.17 453.35Z" stroke="#053364" stroke-width="4" stroke-linecap="round" stroke-linejoin="round"/>
<path d="M83.12 438.76L89.81 444.14L97.6 440.78L94.49 447.72L99.38 454.25L91.51 454.98L87.4 462.96L83.71 453.5L75.55 450.84L82.91 447.03L83.12 438.76Z" stroke="white" stroke-width="4" stroke-linecap="round" stroke-linejoin="round"/>
<path d="M125.13 222.16H162.46L156.19 295.63H131.25L125.13 222.16ZM130.24 334.19C126.72 330.82 124.98 326.72 124.98 321.91C124.98 316.94 126.72 312.88 130.24 309.69C133.76 306.5 138.28 304.87 143.79 304.87C149.3 304.87 153.76 306.5 157.24 309.69C160.72 312.88 162.46 316.94 162.46 321.91C162.46 326.72 160.68 330.82 157.17 334.19C153.65 337.56 149.19 339.23 143.79 339.23C138.28 339.23 133.76 337.56 130.24 334.19Z" fill="white"/>
<path fill-rule="evenodd" clip-rule="evenodd" d="M153.66 223.87C152.72 223.87 151.95 223.1 151.95 222.16C151.95 221.21 152.72 220.44 153.66 220.44H162.46C163.41 220.44 164.18 221.21 164.18 222.16C163.22 237.52 161.54 253.17 160.23 268.54C160.15 269.48 159.32 270.19 158.37 270.11C157.43 270.03 156.73 269.2 156.8 268.26L160.59 223.87H153.66ZM157.15 284.32C158.09 284.39 158.8 285.22 158.72 286.17L157.9 295.77C157.83 296.66 157.07 297.34 156.19 297.34L131.25 297.35C130.33 297.35 129.58 296.62 129.54 295.71L123.42 222.3C123.34 221.35 124.04 220.52 124.99 220.44H140.22C141.17 220.44 141.93 221.21 141.93 222.16C141.93 223.1 141.17 223.87 140.22 223.87H126.99L132.83 293.91H154.61L155.3 285.89C155.37 284.94 156.2 284.24 157.15 284.32ZM154.6 309.75L154.49 309.66C153.07 308.66 151.5 307.9 149.76 307.39C147.97 306.86 145.98 306.59 143.79 306.59C141.24 306.59 138.92 306.96 136.86 307.69C134.8 308.42 132.97 309.52 131.38 310.96C130.68 311.59 129.6 311.54 128.97 310.84C128.34 310.14 128.39 309.05 129.09 308.42C131.03 306.67 133.24 305.34 135.71 304.46C138.16 303.59 140.86 303.15 143.79 303.15C146.29 303.15 148.6 303.47 150.73 304.1C152.83 304.72 154.75 305.65 156.48 306.88L156.6 306.96C156.87 307.15 157.18 307.39 157.51 307.67C157.79 307.89 158.08 308.14 158.39 308.43C159.09 309.07 159.14 310.15 158.5 310.84C157.86 311.54 156.78 311.59 156.08 310.95C155.87 310.75 155.63 310.54 155.35 310.32C155.14 310.15 154.89 309.96 154.6 309.75ZM160.74 321.91C160.74 320.96 161.51 320.19 162.46 320.19C163.41 320.19 164.18 320.96 164.18 321.91C164.18 324.55 163.69 327 162.71 329.26C161.74 331.52 160.28 333.58 158.35 335.43C156.43 337.27 154.24 338.66 151.79 339.58C149.36 340.49 146.69 340.95 143.79 340.95C140.84 340.95 138.13 340.49 135.66 339.57C133.18 338.65 130.97 337.27 129.05 335.43L128.54 334.92C126.78 333.12 125.46 331.13 124.59 328.96C123.7 326.78 123.26 324.43 123.26 321.91C123.26 320.96 124.03 320.19 124.98 320.19C125.93 320.19 126.7 320.96 126.7 321.91C126.7 323.99 127.05 325.91 127.77 327.67C128.48 329.44 129.56 331.06 130.99 332.53C131.13 332.67 131.28 332.82 131.42 332.96C133.01 334.48 134.82 335.61 136.85 336.37C138.91 337.13 141.22 337.51 143.79 337.51C146.3 337.51 148.56 337.13 150.58 336.37C152.59 335.62 154.39 334.48 155.98 332.96C157.57 331.43 158.76 329.75 159.56 327.9C160.35 326.08 160.74 324.08 160.74 321.91Z" fill="#E32865"/>
<path d="M374.02 102.34L383.38 94.81L394.28 99.51L389.94 89.8L396.78 80.65L385.77 79.62L380.01 68.45L374.85 81.7L363.43 85.42L373.73 90.75L374.02 102.34Z" stroke="white" stroke-width="4" stroke-linecap="round" stroke-linejoin="round"/>
<path d="M407 450.37L399.42 446.83L392.2 451.05L393.23 442.75L386.98 437.19L395.2 435.61L398.55 427.94L402.6 435.27L410.92 436.09L405.21 442.2L407 450.37Z" stroke="#053364" stroke-width="4" stroke-linecap="round" stroke-linejoin="round"/>
<path d="M254.14 452.29L264.01 461.99L277.05 457.86L270.95 468.49L277.75 479.76L265 479.67L257.12 491.82L252.72 476.04L240.06 470.46L252.49 465.53L254.14 452.29Z" stroke="#053364" stroke-width="4" stroke-linecap="round" stroke-linejoin="round"/>
<path d="M119.19 1463.83L132.18 1476.59L149.33 1471.15L141.31 1485.14L150.25 1499.96L133.48 1499.86L123.11 1515.83L117.33 1495.07L100.67 1487.73L117.02 1481.25L119.19 1463.83Z" stroke="#053364" stroke-width="4" stroke-linecap="round" stroke-linejoin="round"/>
<path d="M239.2 1450.3L248.57 1442.77L259.47 1447.47L255.13 1437.76L261.97 1428.62L250.96 1427.58L245.2 1416.41L240.04 1429.66L228.62 1433.39L238.92 1438.72L239.2 1450.3Z" stroke="white" stroke-width="4" stroke-linecap="round" stroke-linejoin="round"/>
<path d="M786.72 1507.16L779.37 1496.64L767.81 1498.32L775.47 1490.34L768.14 1475.76L781.7 1482.13L793.52 1474.61L791.43 1486.35L801.36 1492.99L790.09 1495.87L786.72 1507.16Z" stroke="white" stroke-width="4" stroke-linecap="round" stroke-linejoin="round"/>
<path d="M712.27 1450.99L726.22 1440.07L740.8 1446.97L733.93 1433.34L749.5 1417.06L729.03 1419.99L716.48 1405.28L714.48 1421.62L698.68 1426.35L712.39 1434.72L712.27 1450.99Z" stroke="#053364" stroke-width="4" stroke-linecap="round" stroke-linejoin="round"/>
<path d="M290.84 1624.07L283.26 1620.52L276.04 1624.75L277.07 1616.45L270.82 1610.89L279.03 1609.31L282.39 1601.64L286.43 1608.97L294.76 1609.79L289.04 1615.9L290.84 1624.07Z" stroke="#053364" stroke-width="4" stroke-linecap="round" stroke-linejoin="round"/>
<path d="M885.72 1520.93L871.41 1541.42L848.9 1538.15L863.81 1553.69L849.53 1582.09L875.94 1569.67L898.96 1584.32L894.89 1561.45L914.24 1548.53L892.29 1542.92L885.72 1520.93Z" stroke="#053364" stroke-width="4" stroke-linecap="round" stroke-linejoin="round"/>
<path d="M74.58 1563.45L79.19 1567.16L84.56 1564.85L82.42 1569.63L85.79 1574.14L80.37 1574.64L77.53 1580.15L74.99 1573.62L69.36 1571.79L74.44 1569.16L74.58 1563.45Z" stroke="white" stroke-width="4" stroke-linecap="round" stroke-linejoin="round"/>
<path d="M984.11 1446.99L976.53 1443.44L969.31 1447.67L970.34 1439.36L964.09 1433.8L972.3 1432.22L975.66 1424.55L979.7 1431.88L988.03 1432.7L982.31 1438.81L984.11 1446.99Z" stroke="#053364" stroke-width="4" stroke-linecap="round" stroke-linejoin="round"/>
</svg>
