<svg version="1.2" baseProfile="tiny-ps" xmlns="http://www.w3.org/2000/svg" viewBox="0 0 1013 1627" width="1013" height="1627">
	<title>Слой 1</title>
	<style>
		tspan { white-space:pre }
		.shp0 { fill: none;stroke: #053364;stroke-linecap:round;stroke-linejoin:round;stroke-width: 4 } 
		.shp1 { fill: none;stroke: #ffffff;stroke-linecap:round;stroke-linejoin:round;stroke-width: 4 } 
	</style>
	<g id="Слой 1">
		<g id="&lt;Group&gt;">
			<g id="stars">
				<path id="&lt;Path&gt;" class="shp0" d="M584.28 25.33L576.7 21.78L569.48 26.01L570.51 17.7L564.26 12.14L572.47 10.56L575.83 2.89L579.87 10.22L588.2 11.04L582.48 17.15L584.28 25.33Z" />
				<path id="&lt;Path&gt;" class="shp0" d="M20.81 295.69L33.49 283.22L50.25 288.53L42.41 274.87L51.14 260.39L34.76 260.5L24.63 244.9L18.98 265.17L2.72 272.35L18.68 278.68L20.81 295.69Z" />
				<path id="&lt;Path&gt;" class="shp1" d="M818.13 80.52L824.48 71.41L834.48 72.87L827.86 65.97L834.2 53.35L822.47 58.87L812.25 52.36L814.05 62.52L805.46 68.26L815.21 70.75L818.13 80.52Z" />
				<path id="&lt;Path&gt;" class="shp0" d="M708.2 90.25L718.08 99.95L731.11 95.82L725.01 106.45L731.81 117.72L719.07 117.63L711.18 129.78L706.79 114L694.13 108.42L706.55 103.49L708.2 90.25Z" />
				<path id="&lt;Path&gt;" class="shp1" d="M119.36 158.39L123.98 162.1L129.35 159.78L127.21 164.57L130.58 169.07L125.15 169.58L122.32 175.08L119.77 168.56L114.15 166.72L119.22 164.1L119.36 158.39Z" />
				<path id="&lt;Path&gt;" class="shp0" d="M113.81 57.16L123.3 49.74L133.21 54.43L128.54 45.16L139.13 34.1L125.21 36.08L116.67 26.08L115.31 37.19L104.57 40.41L113.89 46.1L113.81 57.16Z" />
				<path id="&lt;Path&gt;" class="shp0" d="M989.28 343.8L997.2 340.1L1004.74 344.51L1003.66 335.84L1010.19 330.03L1001.61 328.38L998.1 320.37L993.88 328.03L985.18 328.88L991.16 335.27L989.28 343.8Z" />
				<path id="&lt;Path&gt;" class="shp1" d="M734.88 462.13L727.53 451.61L715.97 453.29L723.63 445.31L716.3 430.73L729.86 437.1L741.68 429.58L739.59 441.32L749.52 447.96L738.25 450.84L734.88 462.13Z" />
				<path id="&lt;Path&gt;" class="shp0" d="M969.17 453.35L953.13 469.12L931.95 462.4L941.86 479.68L930.82 497.98L951.52 497.85L964.34 517.58L971.47 491.94L992.04 482.87L971.86 474.87L969.17 453.35Z" />
				<path id="&lt;Path&gt;" class="shp1" d="M78.12 438.76L84.81 444.14L92.6 440.78L89.49 447.72L94.38 454.25L86.51 454.98L82.4 462.96L78.71 453.5L70.55 450.84L77.91 447.03L78.12 438.76Z" />
				<path id="&lt;Path&gt;" class="shp1" d="M369.02 102.34L378.38 94.81L389.28 99.51L384.94 89.8L391.78 80.65L380.77 79.62L375.01 68.45L369.85 81.7L358.43 85.42L368.73 90.75L369.02 102.34Z" />
				<path id="&lt;Path&gt;" class="shp0" d="M402 450.37L394.42 446.83L387.2 451.05L388.23 442.75L381.98 437.19L390.2 435.61L393.55 427.94L397.6 435.27L405.92 436.09L400.21 442.2L402 450.37Z" />
				<path id="&lt;Path&gt;" class="shp0" d="M249.14 452.29L259.01 461.99L272.05 457.86L265.95 468.49L272.75 479.76L260 479.67L252.12 491.82L247.72 476.04L235.06 470.46L247.49 465.53L249.14 452.29Z" />
				<path id="&lt;Path&gt;" class="shp0" d="M114.19 1463.83L127.18 1476.59L144.33 1471.15L136.31 1485.14L145.25 1499.96L128.48 1499.86L118.11 1515.83L112.33 1495.07L95.67 1487.73L112.02 1481.25L114.19 1463.83Z" />
				<path id="&lt;Path&gt;" class="shp1" d="M781.72 1507.16L774.37 1496.64L762.81 1498.32L770.47 1490.34L763.14 1475.76L776.7 1482.13L788.52 1474.61L786.43 1486.35L796.36 1492.99L785.09 1495.87L781.72 1507.16Z" />
				<path id="&lt;Path&gt;" class="shp0" d="M707.27 1450.99L721.22 1440.07L735.8 1446.97L728.93 1433.34L744.5 1417.06L724.03 1419.99L711.48 1405.28L709.48 1421.62L693.68 1426.35L707.39 1434.72L707.27 1450.99Z" />
				<path id="&lt;Path&gt;" class="shp0" d="M285.84 1624.07L278.26 1620.52L271.04 1624.75L272.07 1616.45L265.82 1610.89L274.03 1609.31L277.39 1601.64L281.43 1608.97L289.76 1609.79L284.04 1615.9L285.84 1624.07Z" />
				<path id="&lt;Path&gt;" class="shp0" d="M880.72 1520.93L866.41 1541.42L843.9 1538.15L858.81 1553.69L844.53 1582.09L870.94 1569.67L893.96 1584.32L889.89 1561.45L909.24 1548.53L887.29 1542.92L880.72 1520.93Z" />
				<path id="&lt;Path&gt;" class="shp1" d="M69.58 1563.45L74.19 1567.16L79.56 1564.85L77.42 1569.63L80.79 1574.14L75.37 1574.64L72.53 1580.15L69.99 1573.62L64.36 1571.79L69.44 1569.16L69.58 1563.45Z" />
				<path id="&lt;Path&gt;" class="shp0" d="M905.11 1446.99L897.53 1443.44L890.31 1447.67L891.34 1439.36L885.09 1433.8L893.3 1432.22L896.66 1424.55L900.7 1431.88L909.03 1432.7L903.31 1438.81L905.11 1446.99Z" />
			</g>
		</g>
	</g>
</svg>