<svg version="1.2" baseProfile="tiny-ps" xmlns="http://www.w3.org/2000/svg" viewBox="0 0 972 354" width="972" height="354">
	<title>Слой 1</title>
	<style>
		tspan { white-space:pre }
		.shp0 { fill: none;stroke: #ffffff;stroke-linecap:round;stroke-linejoin:round;stroke-width: 8 } 
		.shp1 { fill: #0c235e } 
		.shp2 { fill: #e32865 } 
		.shp3 { fill: none;stroke: #0c235e;stroke-linecap:round;stroke-linejoin:round;stroke-width: 8 } 
		.shp4 { fill: #32b3e5 } 
		.shp5 { fill: none;stroke: #0c235e;stroke-linecap:round;stroke-linejoin:round;stroke-width: 4.313 } 
		.shp6 { fill: #ffffff } 
	</style>
	<g id="Слой 1">
		<g id="&lt;Group&gt;">
			<g id="top-text-ru">
				<g id="Folder 1">
					<path id="&lt;Path&gt;" class="shp0" d="M43.49 64.6L32.78 40.32L21.98 64.6L3.98 64.6L18.29 35.14L5.15 6.84L23.07 6.84L32.78 29.69L42.4 6.84L60.31 6.84L47.17 35.14L61.48 64.6L43.49 64.6Z" />
					<path id="&lt;Compound Path&gt;" fill-rule="evenodd" class="shp0" d="M85.26 21.58C93.79 21.58 99.82 23.24 103.34 26.56C106.85 29.88 108.61 35.61 108.61 43.76C108.61 51.79 106.85 57.44 103.34 60.71C99.82 63.97 93.79 65.6 85.26 65.6C76.66 65.6 70.61 63.97 67.09 60.71C63.58 57.44 61.82 51.79 61.82 43.76C61.82 35.61 63.58 29.88 67.09 26.56C70.61 23.24 76.66 21.58 85.26 21.58ZM85.26 33.46C83.19 33.46 81.84 34.1 81.2 35.39C80.55 36.67 80.23 39.46 80.23 43.76C80.23 47.89 80.55 50.58 81.2 51.83C81.84 53.09 83.19 53.72 85.26 53.72C87.26 53.72 88.59 53.09 89.23 51.83C89.87 50.58 90.19 47.89 90.19 43.76C90.19 39.46 89.87 36.67 89.23 35.39C88.59 34.1 87.26 33.46 85.26 33.46Z" />
					<path id="&lt;Path&gt;" class="shp0" d="M157.57 22.75L157.57 64.6L140.08 64.6L140.08 50.7C136.06 52.1 131.96 52.8 127.78 52.8C122.81 52.8 119.17 52 116.85 50.41C114.54 48.82 113.38 46.3 113.38 42.84L113.38 22.75L130.87 22.75L130.87 37.73C130.87 39.4 131.85 40.24 133.8 40.24C135.92 40.24 138.02 39.85 140.08 39.07L140.08 22.75L157.57 22.75Z" />
					<path id="&lt;Compound Path&gt;" fill-rule="evenodd" class="shp0" d="M192.81 47.52L182.35 47.52C182.68 49.25 183.37 50.45 184.4 51.12C185.43 51.79 187.06 52.13 189.3 52.13C194.77 52.13 200.43 51.82 206.29 51.21L207.88 61.75C202.8 64.32 195.96 65.6 187.37 65.6C178.83 65.6 172.72 63.83 169.04 60.29C165.36 56.74 163.52 51.32 163.52 44.01C163.52 35.8 165.3 30.02 168.87 26.64C172.44 23.26 178.58 21.58 187.29 21.58C194.99 21.58 200.53 22.8 203.9 25.26C207.28 27.71 208.99 31.45 209.05 36.47C209.11 40.44 207.92 43.27 205.49 44.97C203.07 46.67 198.84 47.52 192.81 47.52ZM182.01 39.24L187.87 39.24C189.77 39.24 190.97 39.05 191.47 38.69C191.98 38.33 192.23 37.45 192.23 36.06C192.23 34.77 191.91 33.92 191.26 33.5C190.62 33.08 189.46 32.87 187.79 32.87C185.56 32.82 184.07 33.18 183.31 33.96C182.56 34.74 182.13 36.5 182.01 39.24Z" />
					<path id="&lt;Path&gt;" class="shp0" d="M279.78 22.75L279.78 64.6L214.66 64.6L214.66 22.75L231.57 22.75L231.57 53.21L239.52 53.21L239.52 22.75L254.92 22.75L254.92 53.21L262.87 53.21L262.87 22.75L279.78 22.75Z" />
					<path id="&lt;Compound Path&gt;" fill-rule="evenodd" class="shp0" d="M304.3 35.89L307.57 35.89C315.94 35.89 321.67 36.89 324.77 38.9C327.87 40.91 329.41 44.76 329.41 50.45C329.41 55.98 327.95 59.8 325.02 61.92C322.09 64.04 317.28 65.1 310.58 65.1C300.82 65.1 293.28 64.93 287.98 64.6L287.48 64.6L287.48 22.75L304.3 22.75L304.3 35.89ZM304.3 53.88L307.57 53.88C309.35 53.88 310.51 53.63 311.04 53.13C311.57 52.63 311.84 51.51 311.84 49.78C311.84 48 311.57 46.85 311.04 46.35C310.51 45.85 309.35 45.6 307.57 45.6L304.3 45.6L304.3 53.88Z" />
					<path id="&lt;Path&gt;" class="shp1" d="M43.49 64.6L32.78 40.32L21.98 64.6L3.98 64.6L18.29 35.14L5.15 6.84L23.07 6.84L32.78 29.69L42.4 6.84L60.31 6.84L47.17 35.14L61.48 64.6L43.49 64.6Z" />
					<path id="&lt;Compound Path&gt;" fill-rule="evenodd" class="shp1" d="M85.26 21.58C93.79 21.58 99.82 23.24 103.34 26.56C106.85 29.88 108.61 35.61 108.61 43.76C108.61 51.79 106.85 57.44 103.34 60.71C99.82 63.97 93.79 65.6 85.26 65.6C76.66 65.6 70.61 63.97 67.09 60.71C63.58 57.44 61.82 51.79 61.82 43.76C61.82 35.61 63.58 29.88 67.09 26.56C70.61 23.24 76.66 21.58 85.26 21.58ZM85.26 33.46C83.19 33.46 81.84 34.1 81.2 35.39C80.55 36.67 80.23 39.46 80.23 43.76C80.23 47.89 80.55 50.58 81.2 51.83C81.84 53.09 83.19 53.72 85.26 53.72C87.26 53.72 88.59 53.09 89.23 51.83C89.87 50.58 90.19 47.89 90.19 43.76C90.19 39.46 89.87 36.67 89.23 35.39C88.59 34.1 87.26 33.46 85.26 33.46Z" />
					<path id="&lt;Path&gt;" class="shp1" d="M157.57 22.75L157.57 64.6L140.08 64.6L140.08 50.7C136.06 52.1 131.96 52.8 127.78 52.8C122.81 52.8 119.17 52 116.85 50.41C114.54 48.82 113.38 46.3 113.38 42.84L113.38 22.75L130.87 22.75L130.87 37.73C130.87 39.4 131.85 40.24 133.8 40.24C135.92 40.24 138.02 39.85 140.08 39.07L140.08 22.75L157.57 22.75Z" />
					<path id="&lt;Compound Path&gt;" fill-rule="evenodd" class="shp1" d="M192.81 47.52L182.35 47.52C182.68 49.25 183.37 50.45 184.4 51.12C185.43 51.79 187.06 52.13 189.3 52.13C194.77 52.13 200.43 51.82 206.29 51.21L207.88 61.75C202.8 64.32 195.96 65.6 187.37 65.6C178.83 65.6 172.72 63.83 169.04 60.29C165.36 56.74 163.52 51.32 163.52 44.01C163.52 35.8 165.3 30.02 168.87 26.64C172.44 23.26 178.58 21.58 187.29 21.58C194.99 21.58 200.53 22.8 203.9 25.26C207.28 27.71 208.99 31.45 209.05 36.47C209.11 40.44 207.92 43.27 205.49 44.97C203.07 46.67 198.84 47.52 192.81 47.52ZM182.01 39.24L187.87 39.24C189.77 39.24 190.97 39.05 191.47 38.69C191.98 38.33 192.23 37.45 192.23 36.06C192.23 34.77 191.91 33.92 191.26 33.5C190.62 33.08 189.46 32.87 187.79 32.87C185.56 32.82 184.07 33.18 183.31 33.96C182.56 34.74 182.13 36.5 182.01 39.24Z" />
					<path id="&lt;Path&gt;" class="shp1" d="M279.78 22.75L279.78 64.6L214.66 64.6L214.66 22.75L231.57 22.75L231.57 53.21L239.52 53.21L239.52 22.75L254.92 22.75L254.92 53.21L262.87 53.21L262.87 22.75L279.78 22.75Z" />
					<path id="&lt;Compound Path&gt;" fill-rule="evenodd" class="shp1" d="M304.3 35.89L307.57 35.89C315.94 35.89 321.67 36.89 324.77 38.9C327.87 40.91 329.41 44.76 329.41 50.45C329.41 55.98 327.95 59.8 325.02 61.92C322.09 64.04 317.28 65.1 310.58 65.1C300.82 65.1 293.28 64.93 287.98 64.6L287.48 64.6L287.48 22.75L304.3 22.75L304.3 35.89ZM304.3 53.88L307.57 53.88C309.35 53.88 310.51 53.63 311.04 53.13C311.57 52.63 311.84 51.51 311.84 49.78C311.84 48 311.57 46.85 311.04 46.35C310.51 45.85 309.35 45.6 307.57 45.6L304.3 45.6L304.3 53.88Z" />
					<path id="&lt;Path&gt;" class="shp0" d="M247.68 86.02L247.68 148.46L228.04 148.46L228.04 98.87L212.66 98.87L212.66 148.46L193.02 148.46L193.02 86.02L247.68 86.02Z" />
					<path id="&lt;Compound Path&gt;" fill-rule="evenodd" class="shp0" d="M284.78 84.76C292.2 84.76 297.95 85.68 302.02 87.52C306.1 89.36 309.1 92.61 311.03 97.29C312.96 101.97 313.92 108.62 313.92 117.24C313.92 125.87 312.96 132.52 311.03 137.2C309.1 141.87 306.1 145.13 302.02 146.97C297.95 148.81 292.2 149.73 284.78 149.73C277.42 149.73 271.71 148.81 267.64 146.97C263.56 145.13 260.56 141.87 258.63 137.2C256.7 132.52 255.73 125.87 255.73 117.24C255.73 108.62 256.7 101.97 258.63 97.29C260.56 92.61 263.56 89.36 267.64 87.52C271.71 85.68 277.42 84.76 284.78 84.76ZM291.53 102.9C290.41 100.52 288.16 99.33 284.78 99.33C281.41 99.33 279.16 100.52 278.04 102.9C276.93 105.28 276.37 110.06 276.37 117.24C276.37 124.42 276.93 129.2 278.04 131.59C279.16 133.97 281.41 135.16 284.78 135.16C288.16 135.16 290.41 133.97 291.53 131.59C292.64 129.2 293.2 124.42 293.2 117.24C293.2 110.06 292.64 105.28 291.53 102.9Z" />
					<path id="&lt;Path&gt;" class="shp0" d="M376.64 86.02L376.64 148.46L357 148.46L357 98.87L341.62 98.87L341.62 148.46L321.98 148.46L321.98 86.02L376.64 86.02Z" />
					<path id="&lt;Compound Path&gt;" fill-rule="evenodd" class="shp0" d="M386.86 148.46L386.86 86.02C393.02 85.42 401.83 85.12 413.29 85.12C423.24 85.12 430.04 86.6 433.69 89.55C437.34 92.51 439.17 98.12 439.17 106.38C439.17 114.53 437.48 120.08 434.1 123.04C430.72 125.99 424.69 127.47 416 127.47C412.74 127.47 409.58 127.29 406.5 126.93L406.5 148.46L386.86 148.46ZM406.5 113.62L412.84 113.62C415.49 113.62 417.27 113.14 418.17 112.18C419.08 111.21 419.53 109.28 419.53 106.38C419.53 103.43 419.08 101.45 418.17 100.46C417.27 99.46 415.49 98.96 412.84 98.96L406.5 98.96L406.5 113.62Z" />
					<path id="&lt;Compound Path&gt;" fill-rule="evenodd" class="shp0" d="M472.56 84.76C479.98 84.76 485.73 85.68 489.8 87.52C493.87 89.36 496.88 92.61 498.81 97.29C500.74 101.97 501.7 108.62 501.7 117.24C501.7 125.87 500.74 132.52 498.81 137.2C496.88 141.87 493.87 145.13 489.8 146.97C485.73 148.81 479.98 149.73 472.56 149.73C465.2 149.73 459.49 148.81 455.41 146.97C451.34 145.13 448.34 141.87 446.41 137.2C444.48 132.52 443.51 125.87 443.51 117.24C443.51 108.62 444.48 101.97 446.41 97.29C448.34 92.61 451.34 89.36 455.41 87.52C459.49 85.68 465.2 84.76 472.56 84.76ZM479.3 102.9C478.19 100.52 475.94 99.33 472.56 99.33C469.18 99.33 466.94 100.52 465.82 102.9C464.7 105.28 464.15 110.06 464.15 117.24C464.15 124.42 464.7 129.2 465.82 131.59C466.94 133.97 469.18 135.16 472.56 135.16C475.94 135.16 478.19 133.97 479.3 131.59C480.42 129.2 480.98 124.42 480.98 117.24C480.98 110.06 480.42 105.28 479.3 102.9Z" />
					<path id="&lt;Compound Path&gt;" fill-rule="evenodd" class="shp0" d="M529.3 110.19L535.55 110.19C545.32 110.19 552.08 111.54 555.82 114.26C559.56 116.97 561.43 122.04 561.43 129.46C561.43 136.88 559.62 142.02 556 144.89C552.38 147.76 546.44 149.19 538.17 149.19C525.98 149.19 516.66 148.95 510.21 148.46L509.67 148.46L509.67 86.02C516.72 85.54 524.48 85.3 532.92 85.3C540.65 85.3 548.67 85.54 556.99 86.02L555.55 100.05L529.3 100.05L529.3 110.19ZM529.3 135.61L535.55 135.61C538.14 135.61 539.83 135.18 540.62 134.3C541.4 133.43 541.79 131.6 541.79 128.83C541.79 126.05 541.4 124.23 540.62 123.35C539.83 122.48 538.14 122.04 535.55 122.04L529.3 122.04L529.3 135.61Z" />
					<path id="&lt;Compound Path&gt;" fill-rule="evenodd" class="shp0" d="M595.18 84.76C602.6 84.76 608.35 85.68 612.42 87.52C616.5 89.36 619.5 92.61 621.43 97.29C623.36 101.97 624.32 108.62 624.32 117.24C624.32 125.87 623.36 132.52 621.43 137.2C619.5 141.87 616.5 145.13 612.42 146.97C608.35 148.81 602.6 149.73 595.18 149.73C587.82 149.73 582.11 148.81 578.04 146.97C573.96 145.13 570.96 141.87 569.03 137.2C567.1 132.52 566.13 125.87 566.13 117.24C566.13 108.62 567.1 101.97 569.03 97.29C570.96 92.61 573.96 89.36 578.04 87.52C582.11 85.68 587.82 84.76 595.18 84.76ZM601.93 102.9C600.81 100.52 598.56 99.33 595.18 99.33C591.81 99.33 589.56 100.52 588.44 102.9C587.33 105.28 586.77 110.06 586.77 117.24C586.77 124.42 587.33 129.2 588.44 131.59C589.56 133.97 591.81 135.16 595.18 135.16C598.56 135.16 600.81 133.97 601.93 131.59C603.04 129.2 603.6 124.42 603.6 117.24C603.6 110.06 603.04 105.28 601.93 102.9Z" />
					<path id="&lt;Compound Path&gt;" fill-rule="evenodd" class="shp0" d="M671.38 115.8L671.38 116.34C676.21 116.76 679.66 118.33 681.74 121.04C683.82 123.76 684.87 127.71 684.87 132.9C684.87 139.11 683.13 143.38 679.66 145.7C676.19 148.03 670.39 149.19 662.24 149.19C649.03 149.19 639.04 148.95 632.29 148.46L632.29 86.02C638.44 85.54 647.43 85.3 659.26 85.3C668.12 85.3 674.26 86.43 677.67 88.69C681.08 90.95 682.78 95.25 682.78 101.59C682.78 106.11 681.89 109.52 680.11 111.81C678.33 114.11 675.42 115.43 671.38 115.8ZM651.47 110.37L658.44 110.37C660.73 110.37 662.24 109.97 662.97 109.19C663.69 108.41 664.05 106.81 664.05 104.39C664.05 101.98 663.67 100.41 662.92 99.69C662.17 98.96 660.61 98.6 658.26 98.6L651.47 98.6L651.47 110.37ZM651.47 135.89L658.71 135.89C661.43 135.89 663.21 135.43 664.05 134.53C664.9 133.62 665.32 131.75 665.32 128.92C665.32 126.02 664.9 124.12 664.05 123.22C663.21 122.31 661.4 121.86 658.62 121.86L651.47 121.86L651.47 135.89Z" />
					<path id="&lt;Compound Path&gt;" fill-rule="evenodd" class="shp0" d="M726.76 134.98L709.66 134.98L706.49 148.46L686.49 148.46L702.69 91.09C703.12 89.58 703.93 88.36 705.14 87.43C706.34 86.49 707.73 86.02 709.3 86.02L727.13 86.02C728.69 86.02 730.08 86.49 731.29 87.43C732.5 88.36 733.31 89.58 733.73 91.09L749.93 148.46L729.93 148.46L726.76 134.98ZM723.6 121.23L720.52 107.83C719.98 105 719.62 102.61 719.43 100.68L716.99 100.68C716.63 103.52 716.27 105.9 715.91 107.83L712.83 121.23L723.6 121.23Z" />
					<path id="&lt;Path&gt;" class="shp0" d="M799.52 100.68L782.06 100.68L782.06 148.46L762.42 148.46L762.42 100.68L744.95 100.68L744.95 86.02L799.52 86.02L799.52 100.68Z" />
					<path id="&lt;Compound Path&gt;" fill-rule="evenodd" class="shp0" d="M825.22 107.47L830.74 107.47C840.34 107.47 846.94 108.93 850.56 111.86C854.18 114.79 855.99 120.26 855.99 128.28C855.99 136.19 854.32 141.65 850.97 144.66C847.62 147.68 842.06 149.19 834.27 149.19C821.85 149.19 812.46 148.95 806.13 148.46L805.59 148.46L805.59 86.02L825.22 86.02L825.22 107.47ZM825.22 135.61L830.74 135.61C833.1 135.61 834.62 135.1 835.31 134.08C836.01 133.05 836.35 130.88 836.35 127.56C836.35 124.24 836.01 122.04 835.31 120.95C834.62 119.87 833.1 119.33 830.74 119.33L825.22 119.33L825.22 135.61Z" />
					<path id="&lt;Path&gt;" class="shp1" d="M247.68 86.02L247.68 148.46L228.04 148.46L228.04 98.87L212.66 98.87L212.66 148.46L193.02 148.46L193.02 86.02L247.68 86.02Z" />
					<path id="&lt;Compound Path&gt;" fill-rule="evenodd" class="shp1" d="M284.78 84.76C292.2 84.76 297.95 85.68 302.02 87.52C306.1 89.36 309.1 92.61 311.03 97.29C312.96 101.97 313.92 108.62 313.92 117.24C313.92 125.87 312.96 132.52 311.03 137.2C309.1 141.87 306.1 145.13 302.02 146.97C297.95 148.81 292.2 149.73 284.78 149.73C277.42 149.73 271.71 148.81 267.64 146.97C263.56 145.13 260.56 141.87 258.63 137.2C256.7 132.52 255.73 125.87 255.73 117.24C255.73 108.62 256.7 101.97 258.63 97.29C260.56 92.61 263.56 89.36 267.64 87.52C271.71 85.68 277.42 84.76 284.78 84.76ZM291.53 102.9C290.41 100.52 288.16 99.33 284.78 99.33C281.41 99.33 279.16 100.52 278.04 102.9C276.93 105.28 276.37 110.06 276.37 117.24C276.37 124.42 276.93 129.2 278.04 131.59C279.16 133.97 281.41 135.16 284.78 135.16C288.16 135.16 290.41 133.97 291.53 131.59C292.64 129.2 293.2 124.42 293.2 117.24C293.2 110.06 292.64 105.28 291.53 102.9Z" />
					<path id="&lt;Path&gt;" class="shp1" d="M376.64 86.02L376.64 148.46L357 148.46L357 98.87L341.62 98.87L341.62 148.46L321.98 148.46L321.98 86.02L376.64 86.02Z" />
					<path id="&lt;Compound Path&gt;" fill-rule="evenodd" class="shp1" d="M386.86 148.46L386.86 86.02C393.02 85.42 401.83 85.12 413.29 85.12C423.24 85.12 430.04 86.6 433.69 89.55C437.34 92.51 439.17 98.12 439.17 106.38C439.17 114.53 437.48 120.08 434.1 123.04C430.72 125.99 424.69 127.47 416 127.47C412.74 127.47 409.58 127.29 406.5 126.93L406.5 148.46L386.86 148.46ZM406.5 113.62L412.84 113.62C415.49 113.62 417.27 113.14 418.17 112.18C419.08 111.21 419.53 109.28 419.53 106.38C419.53 103.43 419.08 101.45 418.17 100.46C417.27 99.46 415.49 98.96 412.84 98.96L406.5 98.96L406.5 113.62Z" />
					<path id="&lt;Compound Path&gt;" fill-rule="evenodd" class="shp1" d="M472.56 84.76C479.98 84.76 485.73 85.68 489.8 87.52C493.87 89.36 496.88 92.61 498.81 97.29C500.74 101.97 501.7 108.62 501.7 117.24C501.7 125.87 500.74 132.52 498.81 137.2C496.88 141.87 493.87 145.13 489.8 146.97C485.73 148.81 479.98 149.73 472.56 149.73C465.2 149.73 459.49 148.81 455.41 146.97C451.34 145.13 448.34 141.87 446.41 137.2C444.48 132.52 443.51 125.87 443.51 117.24C443.51 108.62 444.48 101.97 446.41 97.29C448.34 92.61 451.34 89.36 455.41 87.52C459.49 85.68 465.2 84.76 472.56 84.76ZM479.3 102.9C478.19 100.52 475.94 99.33 472.56 99.33C469.18 99.33 466.94 100.52 465.82 102.9C464.7 105.28 464.15 110.06 464.15 117.24C464.15 124.42 464.7 129.2 465.82 131.59C466.94 133.97 469.18 135.16 472.56 135.16C475.94 135.16 478.19 133.97 479.3 131.59C480.42 129.2 480.98 124.42 480.98 117.24C480.98 110.06 480.42 105.28 479.3 102.9Z" />
					<path id="&lt;Compound Path&gt;" fill-rule="evenodd" class="shp1" d="M529.3 110.19L535.55 110.19C545.32 110.19 552.08 111.54 555.82 114.26C559.56 116.97 561.43 122.04 561.43 129.46C561.43 136.88 559.62 142.02 556 144.89C552.38 147.76 546.44 149.19 538.17 149.19C525.98 149.19 516.66 148.95 510.21 148.46L509.67 148.46L509.67 86.02C516.72 85.54 524.48 85.3 532.92 85.3C540.65 85.3 548.67 85.54 556.99 86.02L555.55 100.05L529.3 100.05L529.3 110.19ZM529.3 135.61L535.55 135.61C538.14 135.61 539.83 135.18 540.62 134.3C541.4 133.43 541.79 131.6 541.79 128.83C541.79 126.05 541.4 124.23 540.62 123.35C539.83 122.48 538.14 122.04 535.55 122.04L529.3 122.04L529.3 135.61Z" />
					<path id="&lt;Compound Path&gt;" fill-rule="evenodd" class="shp1" d="M595.18 84.76C602.6 84.76 608.35 85.68 612.42 87.52C616.5 89.36 619.5 92.61 621.43 97.29C623.36 101.97 624.32 108.62 624.32 117.24C624.32 125.87 623.36 132.52 621.43 137.2C619.5 141.87 616.5 145.13 612.42 146.97C608.35 148.81 602.6 149.73 595.18 149.73C587.82 149.73 582.11 148.81 578.04 146.97C573.96 145.13 570.96 141.87 569.03 137.2C567.1 132.52 566.13 125.87 566.13 117.24C566.13 108.62 567.1 101.97 569.03 97.29C570.96 92.61 573.96 89.36 578.04 87.52C582.11 85.68 587.82 84.76 595.18 84.76ZM601.93 102.9C600.81 100.52 598.56 99.33 595.18 99.33C591.81 99.33 589.56 100.52 588.44 102.9C587.33 105.28 586.77 110.06 586.77 117.24C586.77 124.42 587.33 129.2 588.44 131.59C589.56 133.97 591.81 135.16 595.18 135.16C598.56 135.16 600.81 133.97 601.93 131.59C603.04 129.2 603.6 124.42 603.6 117.24C603.6 110.06 603.04 105.28 601.93 102.9Z" />
					<path id="&lt;Compound Path&gt;" fill-rule="evenodd" class="shp1" d="M671.38 115.8L671.38 116.34C676.21 116.76 679.66 118.33 681.74 121.04C683.82 123.76 684.87 127.71 684.87 132.9C684.87 139.11 683.13 143.38 679.66 145.7C676.19 148.03 670.39 149.19 662.24 149.19C649.03 149.19 639.04 148.95 632.29 148.46L632.29 86.02C638.44 85.54 647.43 85.3 659.26 85.3C668.12 85.3 674.26 86.43 677.67 88.69C681.08 90.95 682.78 95.25 682.78 101.59C682.78 106.11 681.89 109.52 680.11 111.81C678.33 114.11 675.42 115.43 671.38 115.8ZM651.47 110.37L658.44 110.37C660.73 110.37 662.24 109.97 662.97 109.19C663.69 108.41 664.05 106.81 664.05 104.39C664.05 101.98 663.67 100.41 662.92 99.69C662.17 98.96 660.61 98.6 658.26 98.6L651.47 98.6L651.47 110.37ZM651.47 135.89L658.71 135.89C661.43 135.89 663.21 135.43 664.05 134.53C664.9 133.62 665.32 131.75 665.32 128.92C665.32 126.02 664.9 124.12 664.05 123.22C663.21 122.31 661.4 121.86 658.62 121.86L651.47 121.86L651.47 135.89Z" />
					<path id="&lt;Compound Path&gt;" fill-rule="evenodd" class="shp1" d="M726.76 134.98L709.66 134.98L706.49 148.46L686.49 148.46L702.69 91.09C703.12 89.58 703.93 88.36 705.14 87.43C706.34 86.49 707.73 86.02 709.3 86.02L727.13 86.02C728.69 86.02 730.08 86.49 731.29 87.43C732.5 88.36 733.31 89.58 733.73 91.09L749.93 148.46L729.93 148.46L726.76 134.98ZM723.6 121.23L720.52 107.83C719.98 105 719.62 102.61 719.43 100.68L716.99 100.68C716.63 103.52 716.27 105.9 715.91 107.83L712.83 121.23L723.6 121.23Z" />
					<path id="&lt;Path&gt;" class="shp1" d="M799.52 100.68L782.06 100.68L782.06 148.46L762.42 148.46L762.42 100.68L744.95 100.68L744.95 86.02L799.52 86.02L799.52 100.68Z" />
					<path id="&lt;Compound Path&gt;" fill-rule="evenodd" class="shp1" d="M825.22 107.47L830.74 107.47C840.34 107.47 846.94 108.93 850.56 111.86C854.18 114.79 855.99 120.26 855.99 128.28C855.99 136.19 854.32 141.65 850.97 144.66C847.62 147.68 842.06 149.19 834.27 149.19C821.85 149.19 812.46 148.95 806.13 148.46L805.59 148.46L805.59 86.02L825.22 86.02L825.22 107.47ZM825.22 135.61L830.74 135.61C833.1 135.61 834.62 135.1 835.31 134.08C836.01 133.05 836.35 130.88 836.35 127.56C836.35 124.24 836.01 122.04 835.31 120.95C834.62 119.87 833.1 119.33 830.74 119.33L825.22 119.33L825.22 135.61Z" />
					<path id="&lt;Path&gt;" class="shp0" d="M194.99 224.18L193.59 211.24C199.36 209.9 206.7 209.23 215.62 209.23C223.9 209.23 229.62 210.33 232.8 212.51C235.98 214.7 237.57 218.85 237.57 224.97C237.57 229.4 236.75 232.71 235.12 234.89C233.49 237.08 230.8 238.35 227.07 238.7L227.07 239.22C231.5 239.63 234.68 241.14 236.6 243.77C238.53 246.39 239.49 250.21 239.49 255.22C239.49 261.22 237.87 265.35 234.64 267.59C231.4 269.83 226 270.96 218.42 270.96C208.04 270.96 199.45 269.85 192.63 267.63L194.03 255.31C202.42 256.65 209.3 257.32 214.66 257.32C216.82 257.32 218.26 256.92 218.99 256.14C219.72 255.35 220.08 253.76 220.08 251.37C220.08 248.87 219.72 247.22 218.99 246.43C218.26 245.65 216.79 245.22 214.57 245.17L201.28 244.9L201.28 233.1L214.4 232.84C216.2 232.78 217.4 232.42 217.98 231.75C218.57 231.07 218.86 229.72 218.86 227.68C218.86 225.76 218.55 224.47 217.94 223.83C217.33 223.19 216.12 222.87 214.31 222.87C209.06 222.87 202.62 223.31 194.99 224.18Z" />
					<path id="&lt;Compound Path&gt;" fill-rule="evenodd" class="shp0" d="M280.23 257.23L263.71 257.23L260.65 270.26L241.33 270.26L256.97 214.83C257.38 213.37 258.17 212.19 259.34 211.29C260.5 210.38 261.84 209.93 263.36 209.93L280.58 209.93C282.1 209.93 283.44 210.38 284.6 211.29C285.77 212.19 286.55 213.37 286.96 214.83L302.61 270.26L283.29 270.26L280.23 257.23ZM277.17 243.94L274.2 231C273.67 228.26 273.32 225.96 273.15 224.1L270.79 224.1C270.44 226.83 270.09 229.14 269.74 231L266.77 243.94L277.17 243.94Z" />
					<path id="&lt;Path&gt;" class="shp0" d="M359.61 209.93L359.61 270.26L340.64 270.26L340.64 222.35L325.78 222.35L325.78 270.26L306.81 270.26L306.81 209.93L359.61 209.93Z" />
					<path id="&lt;Compound Path&gt;" fill-rule="evenodd" class="shp0" d="M395.46 208.71C402.63 208.71 408.18 209.6 412.11 211.37C416.05 213.15 418.95 216.3 420.81 220.82C422.68 225.33 423.61 231.76 423.61 240.09C423.61 248.43 422.68 254.86 420.81 259.37C418.95 263.89 416.05 267.04 412.11 268.81C408.18 270.59 402.63 271.48 395.46 271.48C388.35 271.48 382.83 270.59 378.89 268.81C374.96 267.04 372.06 263.89 370.19 259.37C368.33 254.86 367.4 248.43 367.4 240.09C367.4 231.76 368.33 225.33 370.19 220.82C372.06 216.3 374.96 213.15 378.89 211.37C382.83 209.6 388.35 208.71 395.46 208.71ZM401.97 226.24C400.89 223.94 398.72 222.78 395.46 222.78C392.2 222.78 390.02 223.94 388.95 226.24C387.87 228.54 387.33 233.16 387.33 240.09C387.33 247.03 387.87 251.65 388.95 253.95C390.02 256.25 392.2 257.41 395.46 257.41C398.72 257.41 400.89 256.25 401.97 253.95C403.05 251.65 403.59 247.03 403.59 240.09C403.59 233.16 403.05 228.54 401.97 226.24Z" />
					<path id="&lt;Path&gt;" class="shp0" d="M482.8 209.93L482.8 270.26L463.83 270.26L463.83 222.35L460.16 222.35C457.24 222.35 455.7 223.69 455.52 226.37C454.47 240.3 453.07 250.15 451.33 255.92C449.4 262.56 446.37 266.96 442.23 269.12C438.1 271.28 432.91 271.8 426.67 270.69L425.36 256.01C426.99 255.83 428.26 255.63 429.16 255.39C430.07 255.16 430.97 254.68 431.87 253.95C432.78 253.22 433.46 252.19 433.93 250.85C435.5 246.19 436.73 237.59 437.6 225.06C438.24 214.97 443.54 209.93 453.51 209.93L482.8 209.93Z" />
					<path id="&lt;Path&gt;" class="shp0" d="M545.92 209.93L545.92 270.26L526.95 270.26L526.95 244.9L511.74 244.9L511.74 270.26L492.77 270.26L492.77 209.93L511.74 209.93L511.74 231.61L526.95 231.61L526.95 209.93L545.92 209.93Z" />
					<path id="&lt;Path&gt;" class="shp0" d="M610.09 270.26L592.08 270.26L592.08 242.54C592.08 240.15 592.4 237.03 593.05 233.19L592.43 233.19C591.38 236.74 590.16 239.83 588.76 242.46L573.99 270.26L555.89 270.26L555.89 209.93L573.9 209.93L573.9 236.69C573.9 239.13 573.58 242.4 572.94 246.48L573.55 246.48C574.66 242.98 575.94 239.89 577.4 237.21L592.08 209.93L610.09 209.93L610.09 270.26Z" />
					<path id="&lt;Compound Path&gt;" fill-rule="evenodd" class="shp0" d="M681.26 206.09L681.26 213.34C691.4 214.04 698.51 216.3 702.59 220.12C706.67 223.94 708.71 230.3 708.71 239.22C708.71 247.79 706.67 253.92 702.59 257.62C698.51 261.33 691.4 263.53 681.26 264.22L681.26 271.48L662.29 271.48L662.29 264.22C652.15 263.58 645.04 261.4 640.96 257.67C636.88 253.94 634.84 247.79 634.84 239.22C634.84 230.3 636.88 223.94 640.96 220.12C645.04 216.3 652.15 214.04 662.29 213.34L662.29 206.09L681.26 206.09ZM663.16 250.94L663.16 226.63C659.32 227.04 656.8 228.1 655.6 229.82C654.41 231.54 653.81 234.67 653.81 239.22C653.81 243.42 654.41 246.32 655.6 247.92C656.8 249.52 659.32 250.53 663.16 250.94ZM680.39 226.63L680.39 250.94C684.23 250.53 686.75 249.52 687.95 247.92C689.14 246.32 689.74 243.42 689.74 239.22C689.74 234.73 689.14 231.61 687.95 229.87C686.75 228.12 684.23 227.04 680.39 226.63Z" />
					<path id="&lt;Compound Path&gt;" fill-rule="evenodd" class="shp0" d="M740.97 208.71C748.14 208.71 753.69 209.6 757.63 211.37C761.56 213.15 764.46 216.3 766.33 220.82C768.19 225.33 769.13 231.76 769.13 240.09C769.13 248.43 768.19 254.86 766.33 259.37C764.46 263.89 761.56 267.04 757.63 268.81C753.69 270.59 748.14 271.48 740.97 271.48C733.86 271.48 728.34 270.59 724.41 268.81C720.47 267.04 717.57 263.89 715.71 259.37C713.84 254.86 712.91 248.43 712.91 240.09C712.91 231.76 713.84 225.33 715.71 220.82C717.57 216.3 720.47 213.15 724.41 211.37C728.34 209.6 733.86 208.71 740.97 208.71ZM747.49 226.24C746.41 223.94 744.24 222.78 740.97 222.78C737.71 222.78 735.54 223.94 734.46 226.24C733.38 228.54 732.84 233.16 732.84 240.09C732.84 247.03 733.38 251.65 734.46 253.95C735.54 256.25 737.71 257.41 740.97 257.41C744.24 257.41 746.41 256.25 747.49 253.95C748.57 251.65 749.1 247.03 749.1 240.09C749.1 233.16 748.57 228.54 747.49 226.24Z" />
					<path id="&lt;Compound Path&gt;" fill-rule="evenodd" class="shp0" d="M776.82 270.26L776.82 209.93C782.76 209.35 791.27 209.06 802.35 209.06C811.96 209.06 818.54 210.49 822.06 213.34C825.59 216.2 827.35 221.62 827.35 229.6C827.35 237.47 825.72 242.83 822.46 245.69C819.19 248.55 813.36 249.97 804.97 249.97C801.82 249.97 798.76 249.8 795.79 249.45L795.79 270.26L776.82 270.26ZM795.79 236.6L801.91 236.6C804.48 236.6 806.19 236.13 807.07 235.2C807.94 234.27 808.38 232.4 808.38 229.6C808.38 226.75 807.94 224.84 807.07 223.88C806.19 222.92 804.48 222.43 801.91 222.43L795.79 222.43L795.79 236.6Z" />
					<path id="&lt;Path&gt;" class="shp0" d="M883.39 209.93L900.09 209.93C904.35 209.93 906.56 212.12 906.74 216.49L908.83 270.26L891.79 270.26L889.95 224.1L888.64 224.1L882.69 254.87C882.05 258.72 879.66 260.64 875.52 260.64L865.73 260.64C861.59 260.64 859.18 258.72 858.48 254.87L852.44 224.1L851.13 224.1L849.65 270.26L832.6 270.26L834.7 216.49C834.87 212.12 837.09 209.93 841.34 209.93L857.69 209.93C861.77 209.93 864.16 211.88 864.86 215.79L869.23 239.74C869.52 241.61 869.84 244.61 870.19 248.75L870.98 248.75C870.98 248.57 871.11 247.32 871.37 244.99C871.63 242.66 871.85 240.91 872.03 239.74L876.14 215.79C876.84 211.88 879.25 209.93 883.39 209.93Z" />
					<path id="&lt;Path&gt;" class="shp0" d="M967.76 209.93L954.65 253.91C952.9 259.91 950.86 264.22 948.53 266.85C946.2 269.47 942.7 271.02 938.04 271.48C933.61 271.95 927.4 271.54 919.41 270.26L921.42 257.32C926.03 257.55 929.42 257.55 931.61 257.32C933.8 257.08 935.12 256.27 935.59 254.87L935.94 253.47L932.35 253.47C929.73 253.47 927.69 252.77 926.23 251.37C924.78 249.97 923.67 247.93 922.91 245.25L912.07 209.93L931.48 209.93L938.3 239.22C938.41 239.86 938.88 240.18 939.7 240.18L940.48 240.18L948.35 209.93L967.76 209.93Z" />
					<path id="&lt;Path&gt;" class="shp2" d="M194.99 224.18L193.59 211.24C199.36 209.9 206.7 209.23 215.62 209.23C223.9 209.23 229.62 210.33 232.8 212.51C235.98 214.7 237.57 218.85 237.57 224.97C237.57 229.4 236.75 232.71 235.12 234.89C233.49 237.08 230.8 238.35 227.07 238.7L227.07 239.22C231.5 239.63 234.68 241.14 236.6 243.77C238.53 246.39 239.49 250.21 239.49 255.22C239.49 261.22 237.87 265.35 234.64 267.59C231.4 269.83 226 270.96 218.42 270.96C208.04 270.96 199.45 269.85 192.63 267.63L194.03 255.31C202.42 256.65 209.3 257.32 214.66 257.32C216.82 257.32 218.26 256.92 218.99 256.14C219.72 255.35 220.08 253.76 220.08 251.37C220.08 248.87 219.72 247.22 218.99 246.43C218.26 245.65 216.79 245.22 214.57 245.17L201.28 244.9L201.28 233.1L214.4 232.84C216.2 232.78 217.4 232.42 217.98 231.75C218.57 231.07 218.86 229.72 218.86 227.68C218.86 225.76 218.55 224.47 217.94 223.83C217.33 223.19 216.12 222.87 214.31 222.87C209.06 222.87 202.62 223.31 194.99 224.18Z" />
					<path id="&lt;Compound Path&gt;" fill-rule="evenodd" class="shp2" d="M280.23 257.23L263.71 257.23L260.65 270.26L241.33 270.26L256.97 214.83C257.38 213.37 258.17 212.19 259.34 211.29C260.5 210.38 261.84 209.93 263.36 209.93L280.58 209.93C282.1 209.93 283.44 210.38 284.6 211.29C285.77 212.19 286.55 213.37 286.96 214.83L302.61 270.26L283.29 270.26L280.23 257.23ZM277.17 243.94L274.2 231C273.67 228.26 273.32 225.96 273.15 224.1L270.79 224.1C270.44 226.83 270.09 229.14 269.74 231L266.77 243.94L277.17 243.94Z" />
					<path id="&lt;Path&gt;" class="shp2" d="M359.61 209.93L359.61 270.26L340.64 270.26L340.64 222.35L325.78 222.35L325.78 270.26L306.81 270.26L306.81 209.93L359.61 209.93Z" />
					<path id="&lt;Compound Path&gt;" fill-rule="evenodd" class="shp2" d="M395.46 208.71C402.63 208.71 408.18 209.6 412.11 211.37C416.05 213.15 418.95 216.3 420.81 220.82C422.68 225.33 423.61 231.76 423.61 240.09C423.61 248.43 422.68 254.86 420.81 259.37C418.95 263.89 416.05 267.04 412.11 268.81C408.18 270.59 402.63 271.48 395.46 271.48C388.35 271.48 382.83 270.59 378.89 268.81C374.96 267.04 372.06 263.89 370.19 259.37C368.33 254.86 367.4 248.43 367.4 240.09C367.4 231.76 368.33 225.33 370.19 220.82C372.06 216.3 374.96 213.15 378.89 211.37C382.83 209.6 388.35 208.71 395.46 208.71ZM401.97 226.24C400.89 223.94 398.72 222.78 395.46 222.78C392.2 222.78 390.02 223.94 388.95 226.24C387.87 228.54 387.33 233.16 387.33 240.09C387.33 247.03 387.87 251.65 388.95 253.95C390.02 256.25 392.2 257.41 395.46 257.41C398.72 257.41 400.89 256.25 401.97 253.95C403.05 251.65 403.59 247.03 403.59 240.09C403.59 233.16 403.05 228.54 401.97 226.24Z" />
					<path id="&lt;Path&gt;" class="shp2" d="M482.8 209.93L482.8 270.26L463.83 270.26L463.83 222.35L460.16 222.35C457.24 222.35 455.7 223.69 455.52 226.37C454.47 240.3 453.07 250.15 451.33 255.92C449.4 262.56 446.37 266.96 442.23 269.12C438.1 271.28 432.91 271.8 426.67 270.69L425.36 256.01C426.99 255.83 428.26 255.63 429.16 255.39C430.07 255.16 430.97 254.68 431.87 253.95C432.78 253.22 433.46 252.19 433.93 250.85C435.5 246.19 436.73 237.59 437.6 225.06C438.24 214.97 443.54 209.93 453.51 209.93L482.8 209.93Z" />
					<path id="&lt;Path&gt;" class="shp2" d="M545.92 209.93L545.92 270.26L526.95 270.26L526.95 244.9L511.74 244.9L511.74 270.26L492.77 270.26L492.77 209.93L511.74 209.93L511.74 231.61L526.95 231.61L526.95 209.93L545.92 209.93Z" />
					<path id="&lt;Path&gt;" class="shp2" d="M610.09 270.26L592.08 270.26L592.08 242.54C592.08 240.15 592.4 237.03 593.05 233.19L592.43 233.19C591.38 236.74 590.16 239.83 588.76 242.46L573.99 270.26L555.89 270.26L555.89 209.93L573.9 209.93L573.9 236.69C573.9 239.13 573.58 242.4 572.94 246.48L573.55 246.48C574.66 242.98 575.94 239.89 577.4 237.21L592.08 209.93L610.09 209.93L610.09 270.26Z" />
					<path id="&lt;Compound Path&gt;" fill-rule="evenodd" class="shp2" d="M681.26 206.09L681.26 213.34C691.4 214.04 698.51 216.3 702.59 220.12C706.67 223.94 708.71 230.3 708.71 239.22C708.71 247.79 706.67 253.92 702.59 257.62C698.51 261.33 691.4 263.53 681.26 264.22L681.26 271.48L662.29 271.48L662.29 264.22C652.15 263.58 645.04 261.4 640.96 257.67C636.88 253.94 634.84 247.79 634.84 239.22C634.84 230.3 636.88 223.94 640.96 220.12C645.04 216.3 652.15 214.04 662.29 213.34L662.29 206.09L681.26 206.09ZM663.16 250.94L663.16 226.63C659.32 227.04 656.8 228.1 655.6 229.82C654.41 231.54 653.81 234.67 653.81 239.22C653.81 243.42 654.41 246.32 655.6 247.92C656.8 249.52 659.32 250.53 663.16 250.94ZM680.39 226.63L680.39 250.94C684.23 250.53 686.75 249.52 687.95 247.92C689.14 246.32 689.74 243.42 689.74 239.22C689.74 234.73 689.14 231.61 687.95 229.87C686.75 228.12 684.23 227.04 680.39 226.63Z" />
					<path id="&lt;Compound Path&gt;" fill-rule="evenodd" class="shp2" d="M740.97 208.71C748.14 208.71 753.69 209.6 757.63 211.37C761.56 213.15 764.46 216.3 766.33 220.82C768.19 225.33 769.13 231.76 769.13 240.09C769.13 248.43 768.19 254.86 766.33 259.37C764.46 263.89 761.56 267.04 757.63 268.81C753.69 270.59 748.14 271.48 740.97 271.48C733.86 271.48 728.34 270.59 724.41 268.81C720.47 267.04 717.57 263.89 715.71 259.37C713.84 254.86 712.91 248.43 712.91 240.09C712.91 231.76 713.84 225.33 715.71 220.82C717.57 216.3 720.47 213.15 724.41 211.37C728.34 209.6 733.86 208.71 740.97 208.71ZM747.49 226.24C746.41 223.94 744.24 222.78 740.97 222.78C737.71 222.78 735.54 223.94 734.46 226.24C733.38 228.54 732.84 233.16 732.84 240.09C732.84 247.03 733.38 251.65 734.46 253.95C735.54 256.25 737.71 257.41 740.97 257.41C744.24 257.41 746.41 256.25 747.49 253.95C748.57 251.65 749.1 247.03 749.1 240.09C749.1 233.16 748.57 228.54 747.49 226.24Z" />
					<path id="&lt;Compound Path&gt;" fill-rule="evenodd" class="shp2" d="M776.82 270.26L776.82 209.93C782.76 209.35 791.27 209.06 802.35 209.06C811.96 209.06 818.54 210.49 822.06 213.34C825.59 216.2 827.35 221.62 827.35 229.6C827.35 237.47 825.72 242.83 822.46 245.69C819.19 248.55 813.36 249.97 804.97 249.97C801.82 249.97 798.76 249.8 795.79 249.45L795.79 270.26L776.82 270.26ZM795.79 236.6L801.91 236.6C804.48 236.6 806.19 236.13 807.07 235.2C807.94 234.27 808.38 232.4 808.38 229.6C808.38 226.75 807.94 224.84 807.07 223.88C806.19 222.92 804.48 222.43 801.91 222.43L795.79 222.43L795.79 236.6Z" />
					<path id="&lt;Path&gt;" class="shp2" d="M883.39 209.93L900.09 209.93C904.35 209.93 906.56 212.12 906.74 216.49L908.83 270.26L891.79 270.26L889.95 224.1L888.64 224.1L882.69 254.87C882.05 258.72 879.66 260.64 875.52 260.64L865.73 260.64C861.59 260.64 859.18 258.72 858.48 254.87L852.44 224.1L851.13 224.1L849.65 270.26L832.6 270.26L834.7 216.49C834.87 212.12 837.09 209.93 841.34 209.93L857.69 209.93C861.77 209.93 864.16 211.88 864.86 215.79L869.23 239.74C869.52 241.61 869.84 244.61 870.19 248.75L870.98 248.75C870.98 248.57 871.11 247.32 871.37 244.99C871.63 242.66 871.85 240.91 872.03 239.74L876.14 215.79C876.84 211.88 879.25 209.93 883.39 209.93Z" />
					<path id="&lt;Path&gt;" class="shp2" d="M967.76 209.93L954.65 253.91C952.9 259.91 950.86 264.22 948.53 266.85C946.2 269.47 942.7 271.02 938.04 271.48C933.61 271.95 927.4 271.54 919.41 270.26L921.42 257.32C926.03 257.55 929.42 257.55 931.61 257.32C933.8 257.08 935.12 256.27 935.59 254.87L935.94 253.47L932.35 253.47C929.73 253.47 927.69 252.77 926.23 251.37C924.78 249.97 923.67 247.93 922.91 245.25L912.07 209.93L931.48 209.93L938.3 239.22C938.41 239.86 938.88 240.18 939.7 240.18L940.48 240.18L948.35 209.93L967.76 209.93Z" />
					<path id="&lt;Path&gt;" class="shp3" d="M55.53 349.08L40.61 349.08L40.61 326.12C40.61 324.14 40.88 321.56 41.41 318.37L40.9 318.37C40.03 321.32 39.02 323.88 37.86 326.05L25.62 349.08L10.62 349.08L10.62 299.1L25.54 299.1L25.54 321.27C25.54 323.3 25.28 326 24.75 329.38L25.25 329.38C26.17 326.48 27.23 323.92 28.44 321.7L40.61 299.1L55.53 299.1L55.53 349.08Z" />
					<path id="&lt;Path&gt;" class="shp3" d="M120.14 299.1L133.98 299.1C137.5 299.1 139.34 300.91 139.48 304.54L141.22 349.08L127.1 349.08L125.58 310.84L124.49 310.84L119.56 336.33C119.03 339.52 117.05 341.12 113.63 341.12L105.51 341.12C102.08 341.12 100.08 339.52 99.5 336.33L94.5 310.84L93.42 310.84L92.18 349.08L78.06 349.08L79.8 304.54C79.94 300.91 81.78 299.1 85.3 299.1L98.85 299.1C102.23 299.1 104.21 300.72 104.79 303.96L108.41 323.8C108.65 325.35 108.92 327.83 109.21 331.26L109.86 331.26C109.86 331.12 109.97 330.08 110.18 328.15C110.4 326.22 110.58 324.77 110.73 323.8L114.13 303.96C114.71 300.72 116.72 299.1 120.14 299.1Z" />
					<path id="&lt;Compound Path&gt;" fill-rule="evenodd" class="shp3" d="M164.33 316.27L168.39 316.27C175.97 316.27 181.2 317.44 184.07 319.78C186.94 322.12 188.38 326.51 188.38 332.93C188.38 339.26 187.05 343.63 184.39 346.04C181.74 348.46 177.34 349.66 171.21 349.66C161.41 349.66 154 349.47 148.97 349.08L148.54 349.08L148.54 299.1L164.33 299.1L164.33 316.27ZM209.46 299.1L209.46 349.08L193.67 349.08L193.67 299.1L209.46 299.1ZM164.33 338.8L168.39 338.8C170.12 338.8 171.26 338.39 171.79 337.57C172.32 336.74 172.59 335.01 172.59 332.35C172.59 329.65 172.32 327.87 171.79 327.03C171.26 326.18 170.12 325.76 168.39 325.76L164.33 325.76L164.33 338.8Z" />
					<path id="&lt;Path&gt;" class="shp3" d="M270.16 336.12L271.32 347.56C266.68 349.16 260.84 349.95 253.79 349.95C245.48 349.95 239.63 348.02 236.22 344.16C232.82 340.29 231.11 333.61 231.11 324.09C231.11 314.58 232.82 307.89 236.22 304.03C239.63 300.16 245.48 298.23 253.79 298.23C260.02 298.23 265.5 298.89 270.23 300.19L269.07 311.63C262.31 311.54 257.22 311.49 253.79 311.49C251.32 311.49 249.68 312.32 248.86 313.99C248.04 315.65 247.63 319.02 247.63 324.09C247.63 329.16 248.04 332.53 248.86 334.2C249.68 335.86 251.32 336.7 253.79 336.7C260.98 336.7 266.44 336.5 270.16 336.12Z" />
					<path id="&lt;Compound Path&gt;" fill-rule="evenodd" class="shp3" d="M307.97 322.93L307.97 323.37C311.83 323.71 314.6 324.96 316.26 327.13C317.93 329.31 318.76 332.47 318.76 336.62C318.76 341.6 317.37 345.01 314.6 346.87C311.82 348.73 307.17 349.66 300.65 349.66C290.08 349.66 282.09 349.47 276.68 349.08L276.68 299.1C281.6 298.72 288.8 298.52 298.26 298.52C305.36 298.52 310.28 299.43 313 301.24C315.73 303.05 317.1 306.49 317.1 311.56C317.1 315.18 316.38 317.91 314.96 319.75C313.54 321.58 311.2 322.64 307.97 322.93ZM292.03 318.59L297.61 318.59C299.45 318.59 300.65 318.27 301.23 317.65C301.81 317.02 302.1 315.74 302.1 313.81C302.1 311.88 301.8 310.62 301.2 310.04C300.59 309.46 299.35 309.17 297.47 309.17L292.03 309.17L292.03 318.59ZM292.03 339.01L297.83 339.01C300 339.01 301.43 338.65 302.1 337.93C302.78 337.2 303.12 335.71 303.12 333.44C303.12 331.12 302.78 329.6 302.1 328.87C301.43 328.15 299.98 327.79 297.76 327.79L292.03 327.79L292.03 339.01Z" />
					<path id="&lt;Compound Path&gt;" fill-rule="evenodd" class="shp3" d="M333.39 325.9L333.39 325.47C326.92 324.79 323.69 320.83 323.69 313.59C323.69 307.89 325.27 303.93 328.43 301.71C331.6 299.49 336.85 298.38 344.19 298.38C353.12 298.38 359.98 298.62 364.76 299.1L364.76 349.08L349.04 349.08L349.04 330.83L345.13 330.83C343.82 330.83 342.91 331.06 342.38 331.52C341.85 331.98 341.46 332.88 341.22 334.23L338.1 349.08L321.66 349.08L325.43 333.73C326.3 329.14 328.95 326.53 333.39 325.9ZM349.04 319.75L349.04 309.46L344.55 309.46C342.47 309.46 341.11 309.8 340.46 310.48C339.8 311.15 339.48 312.53 339.48 314.6C339.48 316.68 339.8 318.06 340.46 318.73C341.11 319.41 342.47 319.75 344.55 319.75L349.04 319.75Z" />
					<path id="&lt;Path&gt;" class="shp3" d="M422.05 322.79L422.05 323.22C423.79 323.51 425.18 323.79 426.22 324.06C427.26 324.32 428.26 324.83 429.23 325.58C430.19 326.33 430.95 327.11 431.51 327.93C432.06 328.75 432.69 330.08 433.39 331.92C434.09 333.75 434.71 335.62 435.24 337.53C435.77 339.44 436.52 342.13 437.48 345.61C437.87 347.1 438.18 348.26 438.43 349.08L421.98 349.08C418.94 338.6 417.18 332.81 416.7 331.7C415.92 329.77 414.98 328.66 413.87 328.37C413.53 328.27 413.05 328.22 412.42 328.22L410.76 328.22C411.14 329.91 411.33 331.43 411.33 332.78L411.33 349.08L396.34 349.08L396.34 332.78C396.34 331.67 396.56 330.15 396.99 328.22L395.25 328.22C394.05 328.22 393.14 328.56 392.54 329.24C391.93 329.91 391.29 331.18 390.62 333.04C389.94 334.9 388.9 338.24 387.5 343.07C386.78 345.58 386.2 347.59 385.77 349.08L369.32 349.08C372.07 338.99 373.89 332.93 374.75 330.9C376.06 327.81 377.77 325.76 379.9 324.74C381.15 324.12 383.08 323.61 385.69 323.22L385.69 322.79C384.53 322.64 383.54 322.48 382.72 322.28C381.9 322.09 381.13 321.79 380.4 321.38C379.68 320.97 379.09 320.62 378.63 320.33C378.17 320.04 377.68 319.46 377.15 318.59C376.61 317.72 376.22 317.02 375.95 316.49C375.68 315.96 375.31 314.94 374.83 313.44C374.34 311.95 373.97 310.72 373.7 309.75C373.44 308.78 372.99 307.17 372.36 304.9C371.74 302.63 371.21 300.7 370.77 299.1L386.71 299.1C389.27 308.28 390.76 313.4 391.2 314.46C392.02 316.54 393.06 317.72 394.31 318.01C394.6 318.06 394.94 318.08 395.33 318.08L397.14 318.08C396.65 316.1 396.41 313.98 396.41 311.71L396.41 299.1L411.33 299.1L411.33 311.71C411.33 313.83 411.12 315.96 410.68 318.08L412.28 318.08C413.92 318.08 415.13 317.32 415.9 315.8C416.67 314.28 417.88 310.52 419.52 304.54C420.15 302.27 420.65 300.45 421.04 299.1L436.98 299.1C436.54 300.7 436.01 302.63 435.38 304.9C434.76 307.17 434.31 308.78 434.04 309.75C433.78 310.72 433.4 311.95 432.92 313.44C432.44 314.94 432.06 315.96 431.8 316.49C431.53 317.02 431.13 317.72 430.6 318.59C430.07 319.46 429.58 320.04 429.12 320.33C428.66 320.62 428.07 320.97 427.34 321.38C426.62 321.79 425.85 322.09 425.03 322.28C424.2 322.48 423.21 322.64 422.05 322.79Z" />
					<path id="&lt;Path&gt;" class="shp3" d="M479.5 337.35L480.22 348.43C475.39 349.06 466.72 349.37 454.22 349.37C450.79 349.37 447.97 348.32 445.78 346.22C443.58 344.12 442.48 341.38 442.48 338L442.48 310.19C442.48 306.8 443.58 304.06 445.78 301.96C447.97 299.86 450.79 298.81 454.22 298.81C466.72 298.81 475.39 299.13 480.22 299.75L479.5 310.84L461.17 310.84C460.25 310.84 459.53 311.08 459 311.56C458.47 312.04 458.2 312.67 458.2 313.44L458.2 318.3L476.89 318.3L476.89 328.73L458.2 328.73L458.2 334.74C458.2 335.51 458.47 336.14 459 336.62C459.53 337.11 460.25 337.35 461.17 337.35L479.5 337.35Z" />
					<path id="&lt;Path&gt;" class="shp3" d="M527.52 299.1L541.36 299.1C544.88 299.1 546.72 300.91 546.86 304.54L548.6 349.08L534.48 349.08L532.95 310.84L531.87 310.84L526.94 336.33C526.41 339.52 524.43 341.12 521 341.12L512.89 341.12C509.46 341.12 507.46 339.52 506.88 336.33L501.88 310.84L500.79 310.84L499.56 349.08L485.44 349.08L487.17 304.54C487.32 300.91 489.15 299.1 492.68 299.1L506.23 299.1C509.61 299.1 511.59 300.72 512.16 303.96L515.79 323.8C516.03 325.35 516.29 327.83 516.58 331.26L517.24 331.26C517.24 331.12 517.34 330.08 517.56 328.15C517.78 326.22 517.96 324.77 518.1 323.8L521.51 303.96C522.09 300.72 524.09 299.1 527.52 299.1Z" />
					<path id="&lt;Path&gt;" class="shp3" d="M593.15 336.12L594.31 347.56C589.67 349.16 583.83 349.95 576.78 349.95C568.47 349.95 562.62 348.02 559.21 344.16C555.81 340.29 554.11 333.61 554.11 324.09C554.11 314.58 555.81 307.89 559.21 304.03C562.62 300.16 568.47 298.23 576.78 298.23C583.01 298.23 588.49 298.89 593.22 300.19L592.06 311.63C585.3 311.54 580.21 311.49 576.78 311.49C574.31 311.49 572.67 312.32 571.85 313.99C571.03 315.65 570.62 319.02 570.62 324.09C570.62 329.16 571.03 332.53 571.85 334.2C572.67 335.86 574.31 336.7 576.78 336.7C583.97 336.7 589.43 336.5 593.15 336.12Z" />
					<path id="&lt;Compound Path&gt;" fill-rule="evenodd" class="shp3" d="M608.29 325.9L608.29 325.47C601.82 324.79 598.58 320.83 598.58 313.59C598.58 307.89 600.16 303.93 603.32 301.71C606.49 299.49 611.74 298.38 619.08 298.38C628.01 298.38 634.87 298.62 639.65 299.1L639.65 349.08L623.93 349.08L623.93 330.83L620.02 330.83C618.72 330.83 617.8 331.06 617.27 331.52C616.74 331.98 616.35 332.88 616.11 334.23L612.99 349.08L596.55 349.08L600.32 333.73C601.19 329.14 603.84 326.53 608.29 325.9ZM623.93 319.75L623.93 309.46L619.44 309.46C617.37 309.46 616 309.8 615.35 310.48C614.7 311.15 614.37 312.53 614.37 314.6C614.37 316.68 614.7 318.06 615.35 318.73C616 319.41 617.37 319.75 619.44 319.75L623.93 319.75Z" />
					<path id="&lt;Path&gt;" class="shp3" d="M700.28 336.12L701.44 347.56C696.8 349.16 690.96 349.95 683.91 349.95C675.6 349.95 669.75 348.02 666.34 344.16C662.94 340.29 661.24 333.61 661.24 324.09C661.24 314.58 662.94 307.89 666.34 304.03C669.75 300.16 675.6 298.23 683.91 298.23C690.14 298.23 695.62 298.89 700.35 300.19L699.19 311.63C692.43 311.54 687.34 311.49 683.91 311.49C681.45 311.49 679.8 312.32 678.98 313.99C678.16 315.65 677.75 319.02 677.75 324.09C677.75 329.16 678.16 332.53 678.98 334.2C679.8 335.86 681.45 336.7 683.91 336.7C691.1 336.7 696.56 336.5 700.28 336.12Z" />
					<path id="&lt;Path&gt;" class="shp3" d="M762.36 310.84L748.38 310.84L748.38 349.08L732.66 349.08L732.66 310.84L718.68 310.84L718.68 299.1L762.36 299.1L762.36 310.84Z" />
					<path id="&lt;Compound Path&gt;" fill-rule="evenodd" class="shp3" d="M788.29 298.09C794.23 298.09 798.83 298.82 802.09 300.3C805.35 301.77 807.75 304.38 809.3 308.12C810.84 311.86 811.61 317.19 811.61 324.09C811.61 331 810.84 336.32 809.3 340.06C807.75 343.81 805.35 346.41 802.09 347.89C798.83 349.36 794.23 350.1 788.29 350.1C782.4 350.1 777.82 349.36 774.56 347.89C771.3 346.41 768.9 343.81 767.36 340.06C765.81 336.32 765.04 331 765.04 324.09C765.04 317.19 765.81 311.86 767.36 308.12C768.9 304.38 771.3 301.77 774.56 300.3C777.82 298.82 782.4 298.09 788.29 298.09ZM793.69 312.61C792.79 310.7 790.99 309.75 788.29 309.75C785.59 309.75 783.79 310.7 782.89 312.61C782 314.52 781.55 318.35 781.55 324.09C781.55 329.84 782 333.67 782.89 335.57C783.79 337.48 785.59 338.43 788.29 338.43C790.99 338.43 792.79 337.48 793.69 335.57C794.58 333.67 795.03 329.84 795.03 324.09C795.03 318.35 794.58 314.52 793.69 312.61Z" />
					<path id="&lt;Compound Path&gt;" fill-rule="evenodd" class="shp3" d="M833.71 318.44L838.7 318.44C846.53 318.44 851.94 319.53 854.93 321.7C857.92 323.88 859.42 327.93 859.42 333.87C859.42 339.81 857.97 343.93 855.07 346.22C852.18 348.52 847.42 349.66 840.81 349.66C831.05 349.66 823.59 349.47 818.42 349.08L817.99 349.08L817.99 299.1C823.64 298.72 829.84 298.52 836.6 298.52C842.78 298.52 849.21 298.72 855.87 299.1L854.71 310.33L833.71 310.33L833.71 318.44ZM833.71 338.8L838.7 338.8C840.78 338.8 842.13 338.45 842.76 337.75C843.39 337.05 843.7 335.59 843.7 333.36C843.7 331.14 843.39 329.68 842.76 328.98C842.13 328.28 840.78 327.93 838.7 327.93L833.71 327.93L833.71 338.8Z" />
					<path id="&lt;Compound Path&gt;" fill-rule="evenodd" class="shp3" d="M886.44 298.09C892.38 298.09 896.98 298.82 900.24 300.3C903.5 301.77 905.9 304.38 907.45 308.12C908.99 311.86 909.76 317.19 909.76 324.09C909.76 331 908.99 336.32 907.45 340.06C905.9 343.81 903.5 346.41 900.24 347.89C896.98 349.36 892.38 350.1 886.44 350.1C880.55 350.1 875.97 349.36 872.71 347.89C869.45 346.41 867.05 343.81 865.51 340.06C863.96 336.32 863.19 331 863.19 324.09C863.19 317.19 863.96 311.86 865.51 308.12C867.05 304.38 869.45 301.77 872.71 300.3C875.97 298.82 880.55 298.09 886.44 298.09ZM891.84 312.61C890.94 310.7 889.14 309.75 886.44 309.75C883.74 309.75 881.94 310.7 881.04 312.61C880.15 314.52 879.7 318.35 879.7 324.09C879.7 329.84 880.15 333.67 881.04 335.57C881.94 337.48 883.74 338.43 886.44 338.43C889.14 338.43 890.94 337.48 891.84 335.57C892.73 333.67 893.18 329.84 893.18 324.09C893.18 318.35 892.73 314.52 891.84 312.61Z" />
					<path id="&lt;Compound Path&gt;" class="shp3" d="M943.01 283.17L952.21 283.17C952.84 286.4 951.92 289.3 949.46 291.86C947 294.42 943.62 295.7 939.32 295.7C935.02 295.7 931.64 294.42 929.18 291.86C926.71 289.3 925.77 286.4 926.35 283.17L935.55 283.17C935.26 285.29 935.43 286.75 936.06 287.55C936.69 288.35 937.77 288.74 939.32 288.74C940.81 288.74 941.88 288.35 942.5 287.55C943.13 286.75 943.3 285.29 943.01 283.17ZM961.12 349.08L946.2 349.08L946.2 326.12C946.2 324.14 946.46 321.56 947 318.37L946.49 318.37C945.62 321.32 944.61 323.88 943.45 326.05L931.2 349.08L916.21 349.08L916.21 299.1L931.13 299.1L931.13 321.27C931.13 323.3 930.87 326 930.34 329.38L930.84 329.38C931.76 326.48 932.82 323.92 934.03 321.7L946.2 299.1L961.12 299.1L961.12 349.08Z" />
					<path id="&lt;Path&gt;" class="shp4" d="M55.53 349.08L40.61 349.08L40.61 326.12C40.61 324.14 40.88 321.56 41.41 318.37L40.9 318.37C40.03 321.32 39.02 323.88 37.86 326.05L25.62 349.08L10.62 349.08L10.62 299.1L25.54 299.1L25.54 321.27C25.54 323.3 25.28 326 24.75 329.38L25.25 329.38C26.17 326.48 27.23 323.92 28.44 321.7L40.61 299.1L55.53 299.1L55.53 349.08Z" />
					<path id="&lt;Path&gt;" class="shp4" d="M120.14 299.1L133.98 299.1C137.5 299.1 139.34 300.91 139.48 304.54L141.22 349.08L127.1 349.08L125.58 310.84L124.49 310.84L119.56 336.33C119.03 339.52 117.05 341.12 113.63 341.12L105.51 341.12C102.08 341.12 100.08 339.52 99.5 336.33L94.5 310.84L93.42 310.84L92.18 349.08L78.06 349.08L79.8 304.54C79.94 300.91 81.78 299.1 85.3 299.1L98.85 299.1C102.23 299.1 104.21 300.72 104.79 303.96L108.41 323.8C108.65 325.35 108.92 327.83 109.21 331.26L109.86 331.26C109.86 331.12 109.97 330.08 110.18 328.15C110.4 326.22 110.58 324.77 110.73 323.8L114.13 303.96C114.71 300.72 116.72 299.1 120.14 299.1Z" />
					<path id="&lt;Compound Path&gt;" fill-rule="evenodd" class="shp4" d="M164.33 316.27L168.39 316.27C175.97 316.27 181.2 317.44 184.07 319.78C186.94 322.12 188.38 326.51 188.38 332.93C188.38 339.26 187.05 343.63 184.39 346.04C181.74 348.46 177.34 349.66 171.21 349.66C161.41 349.66 154 349.47 148.97 349.08L148.54 349.08L148.54 299.1L164.33 299.1L164.33 316.27ZM209.46 299.1L209.46 349.08L193.67 349.08L193.67 299.1L209.46 299.1ZM164.33 338.8L168.39 338.8C170.12 338.8 171.26 338.39 171.79 337.57C172.32 336.74 172.59 335.01 172.59 332.35C172.59 329.65 172.32 327.87 171.79 327.03C171.26 326.18 170.12 325.76 168.39 325.76L164.33 325.76L164.33 338.8Z" />
					<path id="&lt;Path&gt;" class="shp4" d="M270.16 336.12L271.32 347.56C266.68 349.16 260.84 349.95 253.79 349.95C245.48 349.95 239.63 348.02 236.22 344.16C232.82 340.29 231.11 333.61 231.11 324.09C231.11 314.58 232.82 307.89 236.22 304.03C239.63 300.16 245.48 298.23 253.79 298.23C260.02 298.23 265.5 298.89 270.23 300.19L269.07 311.63C262.31 311.54 257.22 311.49 253.79 311.49C251.32 311.49 249.68 312.32 248.86 313.99C248.04 315.65 247.63 319.02 247.63 324.09C247.63 329.16 248.04 332.53 248.86 334.2C249.68 335.86 251.32 336.7 253.79 336.7C260.98 336.7 266.44 336.5 270.16 336.12Z" />
					<path id="&lt;Compound Path&gt;" fill-rule="evenodd" class="shp4" d="M307.97 322.93L307.97 323.37C311.83 323.71 314.6 324.96 316.26 327.13C317.93 329.31 318.76 332.47 318.76 336.62C318.76 341.6 317.37 345.01 314.6 346.87C311.82 348.73 307.17 349.66 300.65 349.66C290.08 349.66 282.09 349.47 276.68 349.08L276.68 299.1C281.6 298.72 288.8 298.52 298.26 298.52C305.36 298.52 310.28 299.43 313 301.24C315.73 303.05 317.1 306.49 317.1 311.56C317.1 315.18 316.38 317.91 314.96 319.75C313.54 321.58 311.2 322.64 307.97 322.93ZM292.03 318.59L297.61 318.59C299.45 318.59 300.65 318.27 301.23 317.65C301.81 317.02 302.1 315.74 302.1 313.81C302.1 311.88 301.8 310.62 301.2 310.04C300.59 309.46 299.35 309.17 297.47 309.17L292.03 309.17L292.03 318.59ZM292.03 339.01L297.83 339.01C300 339.01 301.43 338.65 302.1 337.93C302.78 337.2 303.12 335.71 303.12 333.44C303.12 331.12 302.78 329.6 302.1 328.87C301.43 328.15 299.98 327.79 297.76 327.79L292.03 327.79L292.03 339.01Z" />
					<path id="&lt;Compound Path&gt;" fill-rule="evenodd" class="shp4" d="M333.39 325.9L333.39 325.47C326.92 324.79 323.69 320.83 323.69 313.59C323.69 307.89 325.27 303.93 328.43 301.71C331.6 299.49 336.85 298.38 344.19 298.38C353.12 298.38 359.98 298.62 364.76 299.1L364.76 349.08L349.04 349.08L349.04 330.83L345.13 330.83C343.82 330.83 342.91 331.06 342.38 331.52C341.85 331.98 341.46 332.88 341.22 334.23L338.1 349.08L321.66 349.08L325.43 333.73C326.3 329.14 328.95 326.53 333.39 325.9ZM349.04 319.75L349.04 309.46L344.55 309.46C342.47 309.46 341.11 309.8 340.46 310.48C339.8 311.15 339.48 312.53 339.48 314.6C339.48 316.68 339.8 318.06 340.46 318.73C341.11 319.41 342.47 319.75 344.55 319.75L349.04 319.75Z" />
					<path id="&lt;Path&gt;" class="shp4" d="M422.05 322.79L422.05 323.22C423.79 323.51 425.18 323.79 426.22 324.06C427.26 324.32 428.26 324.83 429.23 325.58C430.19 326.33 430.95 327.11 431.51 327.93C432.06 328.75 432.69 330.08 433.39 331.92C434.09 333.75 434.71 335.62 435.24 337.53C435.77 339.44 436.52 342.13 437.48 345.61C437.87 347.1 438.18 348.26 438.43 349.08L421.98 349.08C418.94 338.6 417.18 332.81 416.7 331.7C415.92 329.77 414.98 328.66 413.87 328.37C413.53 328.27 413.05 328.22 412.42 328.22L410.76 328.22C411.14 329.91 411.33 331.43 411.33 332.78L411.33 349.08L396.34 349.08L396.34 332.78C396.34 331.67 396.56 330.15 396.99 328.22L395.25 328.22C394.05 328.22 393.14 328.56 392.54 329.24C391.93 329.91 391.29 331.18 390.62 333.04C389.94 334.9 388.9 338.24 387.5 343.07C386.78 345.58 386.2 347.59 385.77 349.08L369.32 349.08C372.07 338.99 373.89 332.93 374.75 330.9C376.06 327.81 377.77 325.76 379.9 324.74C381.15 324.12 383.08 323.61 385.69 323.22L385.69 322.79C384.53 322.64 383.54 322.48 382.72 322.28C381.9 322.09 381.13 321.79 380.4 321.38C379.68 320.97 379.09 320.62 378.63 320.33C378.17 320.04 377.68 319.46 377.15 318.59C376.61 317.72 376.22 317.02 375.95 316.49C375.68 315.96 375.31 314.94 374.83 313.44C374.34 311.95 373.97 310.72 373.7 309.75C373.44 308.78 372.99 307.17 372.36 304.9C371.74 302.63 371.21 300.7 370.77 299.1L386.71 299.1C389.27 308.28 390.76 313.4 391.2 314.46C392.02 316.54 393.06 317.72 394.31 318.01C394.6 318.06 394.94 318.08 395.33 318.08L397.14 318.08C396.65 316.1 396.41 313.98 396.41 311.71L396.41 299.1L411.33 299.1L411.33 311.71C411.33 313.83 411.12 315.96 410.68 318.08L412.28 318.08C413.92 318.08 415.13 317.32 415.9 315.8C416.67 314.28 417.88 310.52 419.52 304.54C420.15 302.27 420.65 300.45 421.04 299.1L436.98 299.1C436.54 300.7 436.01 302.63 435.38 304.9C434.76 307.17 434.31 308.78 434.04 309.75C433.78 310.72 433.4 311.95 432.92 313.44C432.44 314.94 432.06 315.96 431.8 316.49C431.53 317.02 431.13 317.72 430.6 318.59C430.07 319.46 429.58 320.04 429.12 320.33C428.66 320.62 428.07 320.97 427.34 321.38C426.62 321.79 425.85 322.09 425.03 322.28C424.2 322.48 423.21 322.64 422.05 322.79Z" />
					<path id="&lt;Path&gt;" class="shp4" d="M479.5 337.35L480.22 348.43C475.39 349.06 466.72 349.37 454.22 349.37C450.79 349.37 447.97 348.32 445.78 346.22C443.58 344.12 442.48 341.38 442.48 338L442.48 310.19C442.48 306.8 443.58 304.06 445.78 301.96C447.97 299.86 450.79 298.81 454.22 298.81C466.72 298.81 475.39 299.13 480.22 299.75L479.5 310.84L461.17 310.84C460.25 310.84 459.53 311.08 459 311.56C458.47 312.04 458.2 312.67 458.2 313.44L458.2 318.3L476.89 318.3L476.89 328.73L458.2 328.73L458.2 334.74C458.2 335.51 458.47 336.14 459 336.62C459.53 337.11 460.25 337.35 461.17 337.35L479.5 337.35Z" />
					<path id="&lt;Path&gt;" class="shp4" d="M527.52 299.1L541.36 299.1C544.88 299.1 546.72 300.91 546.86 304.54L548.6 349.08L534.48 349.08L532.95 310.84L531.87 310.84L526.94 336.33C526.41 339.52 524.43 341.12 521 341.12L512.89 341.12C509.46 341.12 507.46 339.52 506.88 336.33L501.88 310.84L500.79 310.84L499.56 349.08L485.44 349.08L487.17 304.54C487.32 300.91 489.15 299.1 492.68 299.1L506.23 299.1C509.61 299.1 511.59 300.72 512.16 303.96L515.79 323.8C516.03 325.35 516.29 327.83 516.58 331.26L517.24 331.26C517.24 331.12 517.34 330.08 517.56 328.15C517.78 326.22 517.96 324.77 518.1 323.8L521.51 303.96C522.09 300.72 524.09 299.1 527.52 299.1Z" />
					<path id="&lt;Path&gt;" class="shp4" d="M593.15 336.12L594.31 347.56C589.67 349.16 583.83 349.95 576.78 349.95C568.47 349.95 562.62 348.02 559.21 344.16C555.81 340.29 554.11 333.61 554.11 324.09C554.11 314.58 555.81 307.89 559.21 304.03C562.62 300.16 568.47 298.23 576.78 298.23C583.01 298.23 588.49 298.89 593.22 300.19L592.06 311.63C585.3 311.54 580.21 311.49 576.78 311.49C574.31 311.49 572.67 312.32 571.85 313.99C571.03 315.65 570.62 319.02 570.62 324.09C570.62 329.16 571.03 332.53 571.85 334.2C572.67 335.86 574.31 336.7 576.78 336.7C583.97 336.7 589.43 336.5 593.15 336.12Z" />
					<path id="&lt;Compound Path&gt;" fill-rule="evenodd" class="shp4" d="M608.29 325.9L608.29 325.47C601.82 324.79 598.58 320.83 598.58 313.59C598.58 307.89 600.16 303.93 603.32 301.71C606.49 299.49 611.74 298.38 619.08 298.38C628.01 298.38 634.87 298.62 639.65 299.1L639.65 349.08L623.93 349.08L623.93 330.83L620.02 330.83C618.72 330.83 617.8 331.06 617.27 331.52C616.74 331.98 616.35 332.88 616.11 334.23L612.99 349.08L596.55 349.08L600.32 333.73C601.19 329.14 603.84 326.53 608.29 325.9ZM623.93 319.75L623.93 309.46L619.44 309.46C617.37 309.46 616 309.8 615.35 310.48C614.7 311.15 614.37 312.53 614.37 314.6C614.37 316.68 614.7 318.06 615.35 318.73C616 319.41 617.37 319.75 619.44 319.75L623.93 319.75Z" />
					<path id="&lt;Path&gt;" class="shp4" d="M700.28 336.12L701.44 347.56C696.8 349.16 690.96 349.95 683.91 349.95C675.6 349.95 669.75 348.02 666.34 344.16C662.94 340.29 661.24 333.61 661.24 324.09C661.24 314.58 662.94 307.89 666.34 304.03C669.75 300.16 675.6 298.23 683.91 298.23C690.14 298.23 695.62 298.89 700.35 300.19L699.19 311.63C692.43 311.54 687.34 311.49 683.91 311.49C681.45 311.49 679.8 312.32 678.98 313.99C678.16 315.65 677.75 319.02 677.75 324.09C677.75 329.16 678.16 332.53 678.98 334.2C679.8 335.86 681.45 336.7 683.91 336.7C691.1 336.7 696.56 336.5 700.28 336.12Z" />
					<path id="&lt;Path&gt;" class="shp4" d="M762.36 310.84L748.38 310.84L748.38 349.08L732.66 349.08L732.66 310.84L718.68 310.84L718.68 299.1L762.36 299.1L762.36 310.84Z" />
					<path id="&lt;Compound Path&gt;" fill-rule="evenodd" class="shp4" d="M788.29 298.09C794.23 298.09 798.83 298.82 802.09 300.3C805.35 301.77 807.75 304.38 809.3 308.12C810.84 311.86 811.61 317.19 811.61 324.09C811.61 331 810.84 336.32 809.3 340.06C807.75 343.81 805.35 346.41 802.09 347.89C798.83 349.36 794.23 350.1 788.29 350.1C782.4 350.1 777.82 349.36 774.56 347.89C771.3 346.41 768.9 343.81 767.36 340.06C765.81 336.32 765.04 331 765.04 324.09C765.04 317.19 765.81 311.86 767.36 308.12C768.9 304.38 771.3 301.77 774.56 300.3C777.82 298.82 782.4 298.09 788.29 298.09ZM793.69 312.61C792.79 310.7 790.99 309.75 788.29 309.75C785.59 309.75 783.79 310.7 782.89 312.61C782 314.52 781.55 318.35 781.55 324.09C781.55 329.84 782 333.67 782.89 335.57C783.79 337.48 785.59 338.43 788.29 338.43C790.99 338.43 792.79 337.48 793.69 335.57C794.58 333.67 795.03 329.84 795.03 324.09C795.03 318.35 794.58 314.52 793.69 312.61Z" />
					<path id="&lt;Compound Path&gt;" fill-rule="evenodd" class="shp4" d="M833.71 318.44L838.7 318.44C846.53 318.44 851.94 319.53 854.93 321.7C857.92 323.88 859.42 327.93 859.42 333.87C859.42 339.81 857.97 343.93 855.07 346.22C852.18 348.52 847.42 349.66 840.81 349.66C831.05 349.66 823.59 349.47 818.42 349.08L817.99 349.08L817.99 299.1C823.64 298.72 829.84 298.52 836.6 298.52C842.78 298.52 849.21 298.72 855.87 299.1L854.71 310.33L833.71 310.33L833.71 318.44ZM833.71 338.8L838.7 338.8C840.78 338.8 842.13 338.45 842.76 337.75C843.39 337.05 843.7 335.59 843.7 333.36C843.7 331.14 843.39 329.68 842.76 328.98C842.13 328.28 840.78 327.93 838.7 327.93L833.71 327.93L833.71 338.8Z" />
					<path id="&lt;Compound Path&gt;" fill-rule="evenodd" class="shp4" d="M886.44 298.09C892.38 298.09 896.98 298.82 900.24 300.3C903.5 301.77 905.9 304.38 907.45 308.12C908.99 311.86 909.76 317.19 909.76 324.09C909.76 331 908.99 336.32 907.45 340.06C905.9 343.81 903.5 346.41 900.24 347.89C896.98 349.36 892.38 350.1 886.44 350.1C880.55 350.1 875.97 349.36 872.71 347.89C869.45 346.41 867.05 343.81 865.51 340.06C863.96 336.32 863.19 331 863.19 324.09C863.19 317.19 863.96 311.86 865.51 308.12C867.05 304.38 869.45 301.77 872.71 300.3C875.97 298.82 880.55 298.09 886.44 298.09ZM891.84 312.61C890.94 310.7 889.14 309.75 886.44 309.75C883.74 309.75 881.94 310.7 881.04 312.61C880.15 314.52 879.7 318.35 879.7 324.09C879.7 329.84 880.15 333.67 881.04 335.57C881.94 337.48 883.74 338.43 886.44 338.43C889.14 338.43 890.94 337.48 891.84 335.57C892.73 333.67 893.18 329.84 893.18 324.09C893.18 318.35 892.73 314.52 891.84 312.61Z" />
					<path id="&lt;Compound Path&gt;" class="shp4" d="M943.01 283.17L952.21 283.17C952.84 286.4 951.92 289.3 949.46 291.86C947 294.42 943.62 295.7 939.32 295.7C935.02 295.7 931.64 294.42 929.18 291.86C926.71 289.3 925.77 286.4 926.35 283.17L935.55 283.17C935.26 285.29 935.43 286.75 936.06 287.55C936.69 288.35 937.77 288.74 939.32 288.74C940.81 288.74 941.88 288.35 942.5 287.55C943.13 286.75 943.3 285.29 943.01 283.17ZM961.12 349.08L946.2 349.08L946.2 326.12C946.2 324.14 946.46 321.56 947 318.37L946.49 318.37C945.62 321.32 944.61 323.88 943.45 326.05L931.2 349.08L916.21 349.08L916.21 299.1L931.13 299.1L931.13 321.27C931.13 323.3 930.87 326 930.34 329.38L930.84 329.38C931.76 326.48 932.82 323.92 934.03 321.7L946.2 299.1L961.12 299.1L961.12 349.08Z" />
					<path id="&lt;Compound Path&gt;" class="shp4" d="M899.62 143.51C895.27 139.35 893.08 134.29 893.08 128.33C893.08 122.2 895.23 117.19 899.53 113.25C903.83 109.3 909.33 107.29 916.14 107.29C922.95 107.29 928.54 109.3 932.88 113.25C937.23 117.19 939.42 122.2 939.42 128.33C939.42 134.29 937.23 139.35 932.88 143.51C928.54 147.67 922.95 149.73 916.14 149.73C909.47 149.73 903.96 147.67 899.62 143.51ZM902.48 79.09C905.48 74.65 909.82 69.77 915.56 64.49C919.5 60.82 922.41 57.73 924.29 55.22C926.21 52.67 927.15 49.99 927.15 47.16C927.15 43.22 925.5 40.04 922.18 37.67C918.83 35.3 914.53 34.09 909.2 34.09C903.78 34.09 898.86 35.39 894.43 37.98C889.99 40.54 886.46 44.16 883.72 48.77L853.32 32.48C858.92 22.94 866.8 15.51 877.01 10.23C887.17 4.94 899.48 2.26 913.9 2.26C930.06 2.26 943.09 5.66 952.94 12.38C962.83 19.09 967.76 28.54 967.76 40.63C967.76 46.18 966.77 51.1 964.9 55.4C962.97 59.69 960.73 63.28 958.05 66.24C955.4 69.15 951.96 72.42 947.75 76.09C943.14 80.07 939.74 83.43 937.58 86.21C935.39 88.98 934.32 92.2 934.32 95.88L898 95.88C898 89.12 899.48 83.47 902.48 79.09Z" />
					<path id="&lt;Compound Path&gt;" fill-rule="evenodd" class="shp5" d="M939.42 128.33C939.42 134.29 937.23 139.35 932.88 143.51C928.54 147.67 922.95 149.73 916.14 149.73C909.47 149.73 903.96 147.67 899.62 143.51C895.27 139.35 893.08 134.29 893.08 128.33C893.08 122.2 895.23 117.19 899.53 113.25C903.83 109.3 909.33 107.29 916.14 107.29C920.26 107.29 923.93 108.03 927.15 109.49M871.93 13.16C873.55 12.11 875.24 11.14 877.01 10.23C881.88 7.7 887.23 5.77 893.08 4.43L871.93 13.16ZM893.08 4.43C899.45 2.99 906.39 2.26 913.9 2.26C930.06 2.26 943.09 5.66 952.94 12.38C962.83 19.09 967.76 28.54 967.76 40.63C967.76 46.18 966.77 51.1 964.9 55.4C962.97 59.69 960.73 63.28 958.05 66.24C956.86 67.54 955.52 68.91 954.03 70.35L893.08 4.43ZM940.22 83.16C939.2 84.24 938.32 85.26 937.58 86.21C935.39 88.98 934.32 92.2 934.32 95.88L898 95.88C898 89.12 899.48 83.47 902.48 79.09C905.48 74.65 909.82 69.77 915.56 64.49L940.22 83.16ZM924.29 55.22C922.41 57.73 919.5 60.82 915.56 64.49L924.29 55.22ZM927.15 47.16C927.15 49.99 926.21 52.67 924.29 55.22L927.15 47.16ZM909.2 34.09C903.78 34.09 898.86 35.39 894.43 37.98C889.99 40.54 886.46 44.16 883.72 48.77L853.32 32.48C857.96 24.59 864.15 18.14 871.93 13.16L909.2 34.09Z" />
					<path id="&lt;Compound Path&gt;" class="shp6" d="M125.13 153.16L162.46 153.16L156.19 226.63L131.25 226.63L125.13 153.16ZM130.24 265.19C126.72 261.82 124.98 257.72 124.98 252.91C124.98 247.94 126.72 243.88 130.24 240.69C133.76 237.5 138.28 235.87 143.79 235.87C149.3 235.87 153.76 237.5 157.24 240.69C160.72 243.88 162.46 247.94 162.46 252.91C162.46 257.72 160.68 261.82 157.17 265.19C153.65 268.56 149.19 270.23 143.79 270.23C138.28 270.23 133.76 268.56 130.24 265.19Z" />
					<path id="&lt;Compound Path&gt;" fill-rule="evenodd" class="shp2" d="M153.66 154.87C152.72 154.87 151.95 154.1 151.95 153.16C151.95 152.21 152.72 151.44 153.66 151.44L162.46 151.44C163.41 151.44 164.18 152.21 164.18 153.16C163.22 168.52 161.54 184.17 160.23 199.54C160.15 200.48 159.32 201.19 158.37 201.11C157.43 201.03 156.73 200.2 156.8 199.26L160.59 154.87L153.66 154.87ZM157.15 215.32C158.09 215.39 158.8 216.22 158.72 217.17L157.9 226.77C157.83 227.66 157.07 228.34 156.19 228.34L131.25 228.35C130.33 228.35 129.58 227.62 129.54 226.71L123.42 153.3C123.34 152.35 124.04 151.52 124.99 151.44L140.22 151.44C141.17 151.44 141.93 152.21 141.93 153.16C141.93 154.1 141.17 154.87 140.22 154.87L126.99 154.87L132.83 224.91L154.61 224.91L155.3 216.89C155.37 215.94 156.2 215.24 157.15 215.32ZM154.6 240.75L154.49 240.66C153.07 239.66 151.5 238.9 149.76 238.39C147.97 237.86 145.98 237.59 143.79 237.59C141.24 237.59 138.92 237.96 136.86 238.69C134.8 239.42 132.97 240.52 131.38 241.96C130.68 242.59 129.6 242.54 128.97 241.84C128.34 241.14 128.39 240.05 129.09 239.42C131.03 237.67 133.24 236.34 135.71 235.46C138.16 234.59 140.86 234.15 143.79 234.15C146.29 234.15 148.6 234.47 150.73 235.1C152.83 235.72 154.75 236.65 156.48 237.88L156.6 237.96C156.87 238.15 157.18 238.39 157.51 238.67C157.79 238.89 158.08 239.14 158.39 239.43C159.09 240.07 159.14 241.15 158.5 241.84C157.86 242.54 156.78 242.59 156.08 241.95C155.87 241.75 155.63 241.54 155.35 241.32C155.14 241.15 154.89 240.96 154.6 240.75ZM160.74 252.91C160.74 251.96 161.51 251.19 162.46 251.19C163.41 251.19 164.18 251.96 164.18 252.91C164.18 255.55 163.69 258 162.71 260.26C161.74 262.52 160.28 264.58 158.35 266.43C156.43 268.27 154.24 269.66 151.79 270.58C149.36 271.49 146.69 271.95 143.79 271.95C140.84 271.95 138.13 271.49 135.66 270.57C133.18 269.65 130.97 268.27 129.05 266.43L128.54 265.92C126.78 264.12 125.46 262.13 124.59 259.96C123.7 257.78 123.26 255.43 123.26 252.91C123.26 251.96 124.03 251.19 124.98 251.19C125.93 251.19 126.7 251.96 126.7 252.91C126.7 254.99 127.05 256.91 127.77 258.67C128.48 260.44 129.56 262.06 130.99 263.53C131.13 263.67 131.28 263.82 131.42 263.96C133.01 265.48 134.82 266.61 136.85 267.37C138.91 268.13 141.22 268.51 143.79 268.51C146.3 268.51 148.56 268.13 150.58 267.37C152.59 266.62 154.39 265.48 155.98 263.96C157.57 262.43 158.76 260.75 159.56 258.9C160.35 257.08 160.74 255.08 160.74 252.91Z" />
				</g>
			</g>
		</g>
	</g>
</svg>